<?xml version="1.0" encoding="utf-8"?>
<!-- Generator: Adobe Illustrator 24.3.0, SVG Export Plug-In . SVG Version: 6.00 Build 0)  -->
<svg version="1.1" id="Layer_1" xmlns="http://www.w3.org/2000/svg" xmlns:xlink="http://www.w3.org/1999/xlink" x="0px" y="0px"
	 viewBox="0 0 512 512" style="enable-background:new 0 0 512 512;" xml:space="preserve">
<style type="text/css">
	.st0{fill:#0F437C;}
	.st1{fill:#FFFFFF;}
	.st2{fill:#A6192E;} /* Red */
</style>
<g id="XMLID_1_">
	<rect id="XMLID_3_" y="16.38" class="st1" width="512" height="479.23"/>
	<path class="st2" d="M323.58,168.37c-33.65,29.7-60.42,85.72-86.89,142.48c0.59,0,1.02-0.15,1.61-0.15
		c31.6-3.36,58.95-7.61,82.94-13.31C317,258.05,317.29,214.45,323.58,168.37 M327.09,335.43c-46.23,8.48-71.53,8.05-110.74,18.87
		c-33.65,69.78-69.63,130.19-120.98,130.93c-67.88,0.88-92.75-53.54-83.09-86.02c7.02-23.99,13.31-23.26,13.31-9.8
		c0,7.17,19.02,48.86,67,46.52c23.99-1.17,43.59-24.58,63.93-59.83c-12.58,5.27-26.48,11.41-42.13,19.02
		c-11.12,5.27-12,3.51-9.8-5.71c1.61-6.73,17.85-46.37,80.31-67.58c47.1-94.21,108.11-222.5,233.18-287.6
		c6.29-3.22,29.26-19.89,12,8.48c-57.78,95.09-75.04,178.18-72.27,243.42c46.08-16.82,70.95-41.25,75.04-77.24
		c1.61-14.19,5.56-14.34,13.31-5.56c9.22,10.24,28.82,89.67-83.82,123.61c14.04,75.19,54.86,117.32,76.8,113.81
		c22.67-3.66,40.08-28.09,36.57-62.76c-2.05-20.04,5.56-12.58,12.73-5.71c21.21,20.48,19.46,86.16-22.53,104.3
		C405.5,503.08,348.31,440.91,327.09,335.43z"/>
</g>
</svg>
