<?xml version="1.0" encoding="utf-8"?>
<!-- Generator: Adobe Illustrator 24.3.0, SVG Export Plug-In . SVG Version: 6.00 Build 0)  -->
<svg version="1.1" id="Layer_1" xmlns="http://www.w3.org/2000/svg" xmlns:xlink="http://www.w3.org/1999/xlink" x="0px" y="0px"
	 viewBox="0 0 512 512" style="enable-background:new 0 0 512 512;" xml:space="preserve">
<style type="text/css">
	.st0{fill:#FFFFFF;}
	.st1{fill:#FF0028;}
</style>
<g id="XMLID_1_">
	<rect id="XMLID_5_" y="30.57" class="st0" width="512" height="450.85"/>
	<g id="XMLID_2_">
		<path id="XMLID_4_" d="M270.04,184.32c47.69,0,83.68,21.94,95.67,41.11h59.98c-1.02-2.19-3.8-9.51-3.8-9.51h-57.34
			c-12.14-19.16-49.74-41.11-97.43-41.11c-81.04,0-112.79,53.83-112.79,79.73c0,14.92,4.39,28.09,11.7,39.35
			c-4.83-9.07-6-22.82-6-31.74C160.33,236.25,190.9,184.32,270.04,184.32z"/>
		<path id="XMLID_3_" d="M265.22,382.24c-82.8,0-115.42-35.55-153.75-76.21c-15.8-16.68-25.6-31.74-51.05-50.61l5.27,12.14
			c24.58,20.04,34.67,34.52,50.32,51.2c38.33,40.81,70.36,72.85,153.31,72.85c72.56,0,128.73-35.84,155.06-80.02l-3.95-9.22
			C393.95,346.4,337.77,382.24,265.22,382.24z"/>
		<path id="XMLID_6_" class="st1" d="M267.41,174.81c47.69,0,85.28,21.94,97.43,41.11h57.34c-26.62-52.52-95.23-84.11-163.84-84.11
			c-67.44,0-118.93,38.91-148.48,73.87c-28.67,33.94-41.84,44.76-46.81,48.27c-1.9,1.32-2.63,1.46-2.63,1.46
			c25.45,18.72,35.25,33.94,51.05,50.61c38.33,40.81,70.95,76.21,153.75,76.21c72.56,0,128.73-35.84,155.06-80.02h-56.61
			c-26.48,20.19-58.95,36.43-100.21,36.43c-38.18,0-77.97-15.95-97.13-44.91c-7.46-11.26-11.7-24.28-11.7-39.35
			C154.48,228.64,186.37,174.81,267.41,174.81z"/>
	</g>
</g>
</svg>
