<?xml version="1.0" encoding="utf-8"?>
<!-- Generator: Adobe Illustrator 24.3.0, SVG Export Plug-In . SVG Version: 6.00 Build 0)  -->
<svg version="1.1" id="Layer_1" xmlns="http://www.w3.org/2000/svg" xmlns:xlink="http://www.w3.org/1999/xlink" x="0px" y="0px"
	 viewBox="0 0 512 512" style="enable-background:new 0 0 512 512;" xml:space="preserve">
<style type="text/css">
	.st0{fill:#333333;}
	.st1{fill:#FFFFFF;}
</style>
<g id="XMLID_1_">
	<rect id="XMLID_8_" x="-0.05" y="-9.17" class="st1" width="512" height="530.33"/>
	<g id="XMLID_2_">
		<path class="st0" d="M426.34,468.29c-16.82-16.67-47.28-103.79-72.73-109.55c9.39-4.7,68.03-18.18,68.49-81.52
			c0-68.49-63.49-90.91-126.83-91.22c-13.49,0-38.03,0.91-63.03,2.27c-31.67,1.82-48.03,3.33-72.28,5.15l-0.15,23.33
			c34.09,0.15,41.21,8.18,41.06,45.31l-0.15,44.4c-46.97-10-77.58-62.58-77.28-136.07c0.3-77.73,36.97-132.43,90.31-132.13
			c20,0,37.73,8.18,51.67,22.73c13.94,14.55,23.94,35.76,28.18,61.37l18.94,0.15l-3.18-104.85h-14.85c-1.67,5-3.64,6.97-7.27,6.97
			c-10,0-33.64-15.15-76.67-15.3C163.9,9.17,124.2,26.14,96.32,56.14c-28.18,30.61-44.4,72.13-44.55,122.28
			c-0.15,34.7,9.85,73.79,32.58,105.01s59.7,53.94,113.49,54.09c0.91,0,1.82,0,2.73-0.15l-0.3,97.88
			c-0.15,36.21-8.03,43.64-41.37,43.49v23.33l150.31,0.45V479.2c-30.91-0.15-42.43-4.55-42.28-41.37l0.3-66.37h21.06
			c0,0,76.97,131.22,79.25,131.22c5.45,0,92.58,0.3,92.58,0.3V479.8C460.13,479.8,442.55,482.53,426.34,468.29z M267.39,347.07
			V330.7c1.52,0,3.03-0.15,4.55-0.15c4.85,0,9.24,0,12.88,1.06c3.94,0.45,8.03,1.52,11.67,3.03l1.21-3.49
			c11.82-34.09,21.52-71.22,24.85-99.85h-18.79c-9.7,25.61-21.67,44.85-36.06,57.73l0.3-79.25h19.4
			c38.49,0.15,58.64,25.91,58.49,65.16C345.58,326,324.82,348.28,267.39,347.07z"/>
		<path id="XMLID_5_" class="st1" d="M150.72,40.38c0,0-81.52,31.67-81.97,135.61c-0.45,106.37,78.19,126.83,78.19,126.83
			s-40.31-51.06-39.85-132.58C107.23,82.05,150.72,40.38,150.72,40.38"/>
		<polyline id="XMLID_4_" class="st1" points="216.48,478.74 217.39,212.97 251.63,210.69 250.72,478.89 216.48,478.74 		"/>
		<path id="XMLID_3_" class="st1" d="M401.94,278.43c0,52.28-63.94,65.16-63.94,65.16s23.64-14.09,23.79-64.7
			c0.15-51.06-22.27-65.46-22.27-65.46S401.94,219.18,401.94,278.43"/>
		<path id="XMLID_9_" class="st1" d="M338.91,363.89c17.27,8.79,41.82,47.43,55,79.1c14.09,28.64,24.24,36.67,24.24,36.67
			l-48.79-0.3c0,0-43.94-79.1-64.09-107.43c0,0,14.85-2.42,22.27-4.39C334.06,365.7,338.91,363.89,338.91,363.89"/>
	</g>
</g>
</svg>
