<?xml version="1.0" encoding="utf-8"?>
<!-- Generator: Adobe Illustrator 26.5.0, SVG Export Plug-In . SVG Version: 6.00 Build 0)  -->
<svg version="1.1" id="Layer_1" xmlns="http://www.w3.org/2000/svg" xmlns:xlink="http://www.w3.org/1999/xlink" x="0px" y="0px"
	 viewBox="0 0 512 512" style="enable-background:new 0 0 512 512;" xml:space="preserve">
<style type="text/css">
	.st0{fill:#004684;}
	.st1{fill:#FFFFFF;}
</style>
<g id="XMLID_1_">
	<rect id="XMLID_4_" class="st1" width="512" height="512"/>
	<path id="XMLID_3_" class="st0" d="M58.22,89.38c0-31.74-19.31-41.84-36.57-41.69l-5.71-0.15V31.16H80.9h47.54v16.82
		c-16.09,1.32-32.62,12.14-32.62,41.55v98.74l7.9-4.83c16.24-25.31,58.81-92.6,67.58-111.91c10.83-23.84-5.71-23.84-21.8-23.84
		V31.01h99.77v16.53h-7.02c-10.83,0-24.28,0-42.13,24.58c-22.97,31.45-68.46,107.37-68.46,107.37
		c69.78,5.71,95.96,111.76,113.81,126.24c-10.24-75.78,40.23-170.13,114.54-166.62c8.34,0.44,18.58-0.73,42.13,6.44
		c23.7,7.17,25.89-5.71,28.96-20.19h17.99v124.78h-15.36c-1.32-21.65-10.97-93.04-73.44-95.23c-63.49-2.19-75.48,79.29-76.36,134.88
		c-3.22,205.53,125.95,199.09,149.65,132.68c3.51-9.65,1.9-12.29-1.9-14.34c-28.09-15.21,4.53-55.59,22.53-20.19
		c8.34,16.24-6.58,93.04-83.97,93.04c-120.25,0-155.36-186.08-200.12-246.64c-34.82-47.1-63.34-26.04-74.02-14.48l-0.44,32.48
		l0.29,57.64c0,31.74,19.31,41.84,36.57,41.69l5.71,0.15v16.38H77.09H15.95v-16.38l5.71-0.15c17.26,0.15,36.57-9.95,36.57-41.69
		V89.38"/>
	<path class="st1" d="M496.05,478.21h-4.39v-16.97h-0.15l-6.14,16.97h-4.24l-6-16.97h-0.15v16.97h-4.39v-21.36h7.61l4.97,13.9h0.15
		l5.12-13.9h7.46 M466.8,460.8h-6.44v17.55h-4.39V460.8h-6.44V457h17.26V460.8L466.8,460.8z"/>
</g>
</svg>
