<?xml version="1.0" encoding="utf-8"?>
<!-- Generator: Adobe Illustrator 27.0.0, SVG Export Plug-In . SVG Version: 6.00 Build 0)  -->
<svg version="1.1" id="Layer_1" xmlns="http://www.w3.org/2000/svg" xmlns:xlink="http://www.w3.org/1999/xlink" x="0px" y="0px"
	 viewBox="0 0 512 512" style="enable-background:new 0 0 512 512;" xml:space="preserve">
<style type="text/css">
	.st0{fill:#083884;}
	.st1{fill:#FFFFFF;}
</style>
<g id="XMLID_18_">
	<rect id="XMLID_20_" class="st0" width="512" height="512"/>
	<path id="XMLID_26_" class="st1" d="M110.15,465.04l39.64-0.73l17.12-79.43l-95.52,0.59v-43.89h37.74V43.89H73.58L73,1.02H192.8
		v42.86h-38.77v295.79h23.26L228.21,128l69.34-0.29l50.76,211.53h25.45l0.59-73h48.86l0.59,119.37h-63.78L378,464.6l38.18,0.59
		v45.79H290.67v-45.93h39.06l-18.29-78.99l-96.99-0.59l-18.29,79.58h38.47v45.93H110.15L110.15,465.04L110.15,465.04z
		 M300.03,339.09l-37.01-159.6l-37.74,159.6C225.43,339.82,299.3,339.82,300.03,339.09z"/>
</g>
</svg>
