<?xml version="1.0" encoding="utf-8"?>
<!-- Generator: Adobe Illustrator 26.5.0, SVG Export Plug-In . SVG Version: 6.00 Build 0)  -->
<svg version="1.1" id="Layer_1" xmlns="http://www.w3.org/2000/svg" xmlns:xlink="http://www.w3.org/1999/xlink" x="0px" y="0px"
	 viewBox="0 0 512 512" style="enable-background:new 0 0 512 512;" xml:space="preserve">
<style type="text/css">
	.st0{fill:#000101;}
	.st1{fill:#179ED8;}
	.st2{fill:#179DD7;}
	.st3{fill:#189ED8;}
	.st4{fill:#41738E;}
	.st5{fill:#EC3745;}
	.st6{fill:#EC3846;}
	.st7{fill:#42748E;}
	.st8{fill:#199ED8;}
	.st9{fill:#2CA7DD;}
	.st10{fill:#FBFCFC;}
	.st11{fill:#010101;}
	.st12{fill:#E83442;}
	.st13{fill:#169DD7;}
</style>
<g id="XMLID_1_">
	<path id="XMLID_3_" class="st0" d="M208.79,382.34c-1.26-6.17-2.52-12.06-3.93-18.37c0-0.84,0.28-1.54,0.84-2.38
		c9.81-14.72,21.45-28.18,33.79-40.8c3.36-3.65,7.29-6.73,11.64-9.25c-0.84,0-1.54,0-2.38,0.28c-5.89,1.54-11.08,4.91-15.7,8.97
		c-12.9,11.36-23.69,24.53-33.51,38.69c-1.26,1.82-2.1,3.65-2.1,5.89c0,7.29-2.1,13.88-6.45,19.63c-2.1,2.52-2.52,5.47-2.52,8.83
		c0.28,19.07-0.28,38.41,0.56,57.48c0.28,7.29,1.26,14.16,2.8,21.17c1.54,7.71,4.35,15,7.01,22.15c-4.35-1.26-7.43-4.35-10.09-7.99
		c-6.17-7.99-9.53-17.24-12.06-26.78c-4.07-16.96-5.89-34.35-7.43-51.87c-0.84-9.53-1.26-19.35-5.89-28.18
		c-0.56-0.98-0.56-1.82,0-2.8c2.52-8.83,5.47-17.52,7.99-26.36c0.28-0.98,0.56-1.82,1.82-2.1c6.45-2.1,11.08-6.17,15.98-10.51
		c7.99-7.01,15.7-13.88,23.97-19.91c1.82-1.26,2.1-2.52,1.54-4.35c-2.52-11.36-4.91-22.71-7.29-34.35
		c-3.36-15.7-6.73-31.26-10.09-47.53c-0.56,0.98-0.84,1.54-0.84,2.1c-15.28,49.77-30.42,99.82-45.7,149.59
		c-4.91,15.7-8.97,31.4-16.96,46.12c-8.27,15.42-18.79,28.88-35.05,37.15c-10.09,5.19-20.61,8.27-31.4,10.51
		c-2.8,0.56-5.61,1.26-8.83,1.26c0-0.98,0.56-1.26,0.84-1.54c8.55-10.09,15.28-21.45,20.05-33.79c5.19-13.18,8.97-27.06,13.18-40.52
		c16.26-52.15,32.25-104.17,48.51-156.6c0.28-0.98,0.98-1.82,0.56-3.08h0.28c0,0,0,0-0.28,0c0,0,0,0-0.28,0.28
		c-5.47,3.93-10.09,8.27-14.16,13.46c-0.28,0.28-0.56,0.56-0.56,0.98c-2.52,2.1-3.93,4.63-5.89,7.29
		c-4.07,5.61-7.43,11.64-11.36,17.24c-0.56-1.26,0.28-2.38,0.56-3.36c6.17-24.25,20.33-42.62,40.8-56.78
		c21.17-14.72,44.58-24.25,69.68-29.72c5.19-0.98,10.09-2.38,15.42-2.1c0,0.84,0.28,1.54,0.28,2.38
		c7.01,33.51,14.16,67.01,21.17,100.8c1.54,7.29,3.08,14.44,4.63,21.87c0.84-0.98,1.26-1.54,1.82-2.1
		c8.55-11.36,16.96-22.99,25.52-34.35c16.96-22.43,32.95-45.7,51.31-67.29c14.72-17.52,30.14-34.07,48.23-48.23
		c27.62-21.45,58.6-32.53,93.37-33.79c0.98,0,2.1-0.56,3.36,0.84c-2.52,2.38-5.19,4.35-7.43,7.01
		c-17.52,19.07-29.16,41.5-36.87,65.75c-10.37,32.53-20.33,65.19-30.42,98c-12.06,39.26-24.25,78.37-36.31,117.63
		c-3.08,10.37-4.91,20.89-3.65,31.68c0.28,2.38-0.28,2.8-2.38,2.8c-18.09,0-35.89,0-53.98,0c-2.52,0-2.52-0.84-2.1-2.8
		c4.35-13.88,8.83-27.9,12.9-41.78c16.96-54.96,34.07-109.91,51.03-164.87c1.82-5.47,3.93-10.8,4.91-16.54
		c0.28-0.28,0.28-0.56,0.56-0.56h-0.28c0,0.28,0,0.56,0,0.84c-0.98,0-1.26,0.98-1.82,1.54c-11.08,15-22.43,29.86-33.51,45.14
		c-35.89,47.95-71.5,96.18-107.25,144.12c-0.56,0.84-0.98,2.1-2.38,2.38c-4.91-22.71-9.53-45.14-14.44-68.56
		c-2.8,4.35-5.47,7.99-7.71,11.64c-2.38,2.52-3.36,5.19-3.65,8.83C210.62,375.33,210.62,378.97,208.79,382.34z"/>
	<path id="XMLID_4_" class="st1" d="M381.66,227c-0.98,5.61-3.08,11.08-4.91,16.54c-16.96,54.96-34.07,109.91-51.03,164.87
		c-4.35,13.88-8.55,27.9-12.9,41.78c-0.56,2.1-0.84,2.8,2.1,2.8c18.09,0,35.89,0,53.98,0c2.38,0,2.8-0.28,2.38-2.8
		c-1.26-10.8,0.56-21.45,3.65-31.68c12.06-39.26,24.25-78.37,36.31-117.63c10.09-32.81,20.05-65.47,30.42-98
		c7.71-24.53,19.35-46.69,36.87-65.75c2.38-2.38,4.91-4.35,7.43-7.01c-1.54-1.26-2.52-0.84-3.36-0.84
		c-34.77,1.26-66.03,12.34-93.37,33.79c-18.09,14.16-33.51,30.7-48.23,48.23c-18.09,21.73-34.35,44.86-51.31,67.29
		c-8.55,11.36-16.96,22.99-25.52,34.35c-0.56,0.56-0.98,0.98-1.82,2.1c-1.54-7.71-3.08-14.72-4.63-21.87
		c-7.01-33.51-14.16-67.01-21.17-100.8c-0.28-0.84-0.28-1.54-0.28-2.38c3.08-1.26,6.73-0.56,9.81-0.84
		c4.91,23.27,9.81,46.41,14.72,69.68c1.26,6.45,2.8,13.18,4.35,19.63c0.84,4.07,1.54,8.27,2.52,12.9c0.84-0.98,1.26-1.54,1.82-2.1
		c4.35-5.89,8.83-11.92,13.18-17.81c18.51-24.81,36.17-50.33,56.78-73.46c14.72-16.54,29.72-32.53,47.67-45.7
		c11.64-8.83,24.53-15.7,37.85-21.45c9.53-3.36,19.35-6.45,29.44-8.55c12.62-2.52,25.52-3.93,38.41-3.36
		c6.45,0.28,12.62,0.84,19.07,1.82c-0.28,1.26-1.26,1.82-2.38,2.38c-15.98,11.36-29.44,25.24-39.68,42.06
		c-10.09,16.26-16.54,34.07-22.15,52.15C432.27,267.66,416.43,317.71,401,367.9c-5.89,19.07-12.34,38.13-17.52,57.48
		c-3.36,11.92-3.93,23.69,1.54,35.33c0.28,0.56,0.56,0.98,0.28,1.54c-28.6,0-57.06,0-85.66,0c-0.28-1.54,0.28-2.52,0.84-3.65
		c14.44-46.97,29.16-93.93,43.6-141.04c4.07-12.9,7.99-25.8,11.92-38.97c0-0.28,0.28-0.56,0.28-0.84c-0.28-0.28-0.28,0.28-0.56,0.28
		c-5.61,7.01-10.8,14.16-15.98,21.45c-7.99,10.51-15.7,21.17-23.69,31.68c-27.34,36.87-54.68,73.46-82.02,110.34
		c-0.28,0.56-0.84,0.84-0.98,1.26c-3.36-15.42-6.45-30.98-9.81-46.41c-2.52-11.64-4.91-23.27-7.43-34.77
		c2.52-3.65,4.91-7.29,7.71-11.64c4.91,23.41,9.81,45.84,14.44,68.56c1.26-0.28,1.82-1.54,2.38-2.38
		c35.89-47.95,71.5-96.18,107.25-144.12c11.08-15,22.15-29.86,33.51-45.14C380.4,228.12,380.68,227.28,381.66,227z"/>
	<path id="XMLID_7_" class="st2" d="M127.34,256.44c4.07-5.19,8.97-9.53,14.16-13.46c0.56,0.98-0.28,2.1-0.56,3.08
		c-16.26,52.15-32.25,104.45-48.51,156.6c-4.07,13.74-7.99,27.34-13.18,40.52c-4.91,12.34-11.64,23.69-20.05,33.79
		c-0.28,0.56-0.84,0.84-0.84,1.54c3.08,0,5.89-0.84,8.83-1.26c10.8-2.1,21.45-5.47,31.4-10.51c15.98-8.27,26.5-21.45,35.05-37.15
		c7.71-14.72,12.06-30.42,16.96-46.12c15.28-49.77,30.42-99.82,45.7-149.59c0.28-0.56,0.56-0.98,0.84-2.1
		c3.36,16.26,6.73,31.68,10.09,47.53c2.38,11.36,4.91,22.99,7.29,34.35c0.56,2.1,0,3.08-1.54,4.35
		c-8.55,6.17-16.26,13.18-23.97,19.91c-4.91,4.07-9.53,8.55-15.98,10.51c-0.98,0.28-1.54,0.98-1.82,2.1
		c-2.52,8.83-5.47,17.52-7.99,26.36c-0.28,0.98-0.56,1.82,0,2.8c4.63,8.83,5.19,18.51,5.89,28.18c1.54,17.24,3.08,34.77,7.43,51.87
		c2.38,9.53,5.61,18.79,12.06,26.78c2.8,3.36,5.61,6.45,10.09,7.99c2.8,2.52,5.89,4.63,8.97,6.73c-15-1.82-25.24-9.81-31.96-23.27
		c-5.61-11.08-8.27-23.27-9.81-35.61c-2.1-16.54-3.65-32.81-5.61-49.21c-0.28-1.26-0.56-2.38-0.84-3.65c-0.98,0-0.84,0.84-0.98,1.26
		c-4.07,14.16-8.55,28.32-15.42,41.5c-5.19,9.81-11.08,19.07-18.79,27.06c-0.28,0.28-0.56,0.56-0.56,0.84
		c-0.56,0.56-1.82,0.56-1.26,1.82c-0.84-0.28-0.98,0-0.56,0.56c-0.98-0.56-1.54,0.56-2.1,0.98c-9.25,8.27-20.05,13.88-31.68,18.09
		c-17.81,5.89-36.17,7.99-54.68,8.83c-1.26,0-2.52,0-4.35,0c0.28-0.56,0.56-0.84,0.56-0.84c0.84-0.56,1.54-1.26,2.38-1.82
		c19.07-14.72,33.51-33.23,40.8-56.5c18.37-56.78,36.17-113.7,53.7-170.76c0.28-0.98,0.98-1.82,0.56-3.08
		C127.34,257.42,127.34,257,127.34,256.44z M189.45,291.07c-4.91,15.98-9.81,31.68-14.72,47.67c0,0.56-0.28,0.98,0.56,1.26
		c7.99-4.35,14.16-11.08,21.17-16.82c1.26-0.98,2.52-2.1,3.93-2.8c4.07-2.1,4.63-4.91,3.65-9.25c-3.08-12.9-5.61-26.08-8.27-38.97
		c-0.28,0-0.28,0-0.56,0C193.09,278.31,191.27,284.76,189.45,291.07z"/>
	<path id="XMLID_8_" class="st3" d="M17.14,197.42c9.25-5.19,19.07-8.83,28.88-12.34c5.47-2.1,11.08-3.93,16.82-5.47
		c1.26-0.28,2.38-0.84,2.8-2.1c12.34-26.5,32.81-45.7,57.76-59.86c10.37-5.89,19.91-12.34,27.34-21.73
		c7.43-8.97,10.37-19.91,11.36-31.4c0.98-8.83,0.28-17.52,0.98-26.36c0.84-8.97,2.8-17.52,5.61-26.08c0.84-2.38,1.54-1.82,3.08-0.84
		c10.09,8.55,18.09,18.79,26.08,29.16c13.46,17.52,24.96,36.31,34.77,56.5c0.84,1.54,1.82,2.38,3.36,2.52
		c5.61,0.98,11.08,2.8,16.26,5.19c1.26,0.56,2.52,0.84,3.93,0.56c4.07-0.28,8.55-0.84,12.9-0.84c10.8,0.28,21.17-2.52,31.68-4.35
		c32.53-5.61,64.77-11.64,97.3-17.24c0.84-0.28,1.54-0.28,2.8,0c-2.52,2.38-4.91,4.63-7.43,7.01c-0.28,0.28-0.56,0.28-0.56,0.56
		c-8.27,0.98-15.98,3.93-23.97,5.61c-2.52,0.56-5.19,0.84-7.43,1.26c-21.73,3.93-43.04,7.99-64.77,11.64
		c-8.55,1.54-16.96,3.93-25.8,3.65c-5.47-0.28-10.51,0.28-15.98,0.98c-1.26,0.28-2.38,0.28-3.65-0.56
		c-6.45-3.08-13.18-5.19-20.05-6.17c-2.1-0.28-3.36-1.26-4.35-3.36c-13.74-28.18-30.42-54.12-51.59-77.39
		c-0.56-0.56-0.84-1.54-2.1-1.54c-1.82,5.47-2.52,11.08-2.8,16.82c-0.28,10.37,0.56,20.89-1.82,31.26
		c-3.36,15.28-9.53,28.88-22.15,38.97c-4.63,3.93-9.53,7.01-14.72,10.09c-13.74,7.99-26.5,16.82-37.43,28.32
		c-7.29,7.71-13.88,15.98-18.79,25.52c0,0.28,0,0.28-0.28,0.56c0,0,0.28,0,0.28-0.28c7.29-1.26,14.16-2.8,21.45-4.07
		c3.93-0.56,7.71-0.98,11.64-1.82c0.28,0,0.56,0,0.56-0.56c1.26,0.56,2.38,0,3.65,0c9.81-1.26,19.91-1.82,29.72-2.1
		c10.8-0.28,21.45,0.28,32.25,1.82c-2.1,0.98-4.07,1.82-6.17,2.8c-8.55,3.36-16.54,7.71-24.53,11.92c-0.56-0.84-1.54-0.56-2.38-0.56
		c-22.43-0.28-44.86-0.28-67.29,2.52c-14.72,1.82-29.44,4.35-44.16,7.99C26.26,195.03,21.91,197.14,17.14,197.42z"/>
	<path id="XMLID_9_" class="st4" d="M369.04,96.06c7.99-1.82,15.7-4.63,23.97-5.61c-3.08,3.36-6.17,6.45-10.51,7.99
		c-34.07,12.34-68.14,24.96-101.92,37.71c-4.63,1.82-8.55,4.63-10.51,9.81c6.17-0.28,11.92-0.56,17.52-0.98
		c15.42-1.26,30.7-0.56,44.86,7.29c4.35,2.38,8.27,5.19,12.34,9.25c-5.19,0.56-9.81,0.98-14.44,1.54
		c-18.79,2.1-37.43,4.07-56.22,6.17c-1.54,0.28-2.52,0.84-3.65,1.82c-4.91,4.63-9.81,9.25-14.44,14.16c-2.8,2.8-5.47,5.47-9.53,4.63
		c-3.36,0.28-6.73-0.56-9.81,0.84c-5.19-0.28-10.37,0.98-15.42,2.1c-24.96,5.47-48.51,15-69.68,29.72
		c-20.33,13.88-34.63,32.11-40.8,56.36c-0.28,0.98-1.26,2.1-0.56,3.36c-2.1,5.89-3.93,11.92-5.89,17.52
		c-1.26-7.29-0.98-14.44,0-21.87c2.8-18.09,11.36-32.95,23.69-45.84c15-15.42,32.95-26.5,52.57-34.77
		c21.17-8.97,43.04-15,66.03-15.42c1.54,0,2.38-0.84,3.08-1.54c5.47-5.19,10.51-10.37,15.98-15.42c0.84-0.84,1.82-1.54,3.08-1.82
		c14.72-1.54,29.16-3.08,43.88-4.63c4.63-0.56,9.53-0.98,15-1.82c-0.84-0.56-0.98-0.84-1.26-0.84c-0.56-0.28-1.26-0.56-1.82-0.84
		c-9.53-3.93-19.91-4.35-29.86-3.93c-10.51,0.56-21.45,1.26-31.96,2.1c-2.38,0.28-2.52-0.84-2.38-2.8
		c1.82-9.81,7.43-16.54,16.82-19.91c22.71-8.55,45.7-16.82,68.42-25.24C353.06,102.22,361.05,99.7,369.04,96.06z"/>
	<path id="XMLID_10_" class="st5" d="M103.65,299.48c2.1-5.89,3.93-11.92,5.89-17.52c3.93-5.61,7.29-11.92,11.36-17.24
		c1.82-2.52,3.36-5.19,5.89-7.29c0.56,0.98-0.28,2.1-0.56,3.08c-17.81,57.06-35.33,113.98-53.13,171.04
		c-7.29,23.41-21.73,41.78-40.8,56.5c-0.84,0.56-1.54,1.26-2.38,1.82c0,0-0.28,0.28-0.56,0.84c1.54,0,2.8,0,4.35,0
		c18.51-0.56,36.87-2.52,54.68-8.83c11.92-3.93,22.43-9.81,31.68-18.09c0.56-0.56,0.84-1.54,2.1-0.98
		c-4.07,5.89-9.81,10.37-15.42,14.44c-15.28,11.08-32.25,16.96-50.61,20.33c-18.51,3.36-37.43,3.93-56.22,3.36
		c0.28-1.26,1.26-1.54,2.1-2.1c11.08-8.27,22.15-16.54,32.53-25.8c15.28-13.74,24.96-30.42,30.98-50.33
		c8.83-29.72,18.37-59.02,27.62-88.46c0.28-0.84,0.28-1.54,0.56-2.38c0.84-1.54,1.26-2.8,1.26-4.63
		C98.18,318.55,100.98,309.01,103.65,299.48z"/>
	<path id="XMLID_11_" class="st5" d="M355.02,279.99c-3.93,12.9-7.71,26.08-11.92,38.97c-14.44,46.97-29.16,93.93-43.6,141.04
		c-0.28,0.98-0.98,2.1-0.84,3.65c28.6,0,57.2,0,85.66,0c-2.52,3.36-5.89,6.17-8.83,9.25c-0.84,0.84-1.54,0.56-2.38,0.56
		c-28.6,0-57.2,0-85.94,0c-2.38,0-2.1-0.84-1.54-2.52c7.99-25.24,15.7-50.33,23.69-75.57c9.53-30.42,19.07-60.57,28.6-90.99
		c0.28-0.84,0.56-1.82,0.84-2.8C344.22,294.15,349.41,286.86,355.02,279.99C354.88,279.71,354.88,279.71,355.02,279.99z"/>
	<path id="XMLID_12_" class="st6" d="M424.42,131.39c-13.46,5.61-26.08,12.62-37.85,21.45c-17.81,13.18-32.95,29.16-47.67,45.7
		c-20.33,23.27-37.85,48.79-56.78,73.46c-4.35,5.89-8.83,11.92-13.18,17.81c-0.56,0.56-0.98,0.98-1.82,2.1
		c-0.84-4.63-1.82-8.83-2.52-12.9c14.44-19.63,28.32-39.26,43.04-58.32c17.52-22.99,36.59-44.3,60.57-60.85
		c16.26-11.08,33.23-21.17,52.15-27.34C421.89,131.95,423.16,131.39,424.42,131.39z"/>
	<path id="XMLID_13_" class="st7" d="M207.81,501.51c-3.08-2.1-6.17-4.35-8.97-6.73c-2.52-7.29-5.47-14.44-7.01-22.15
		c-1.54-7.01-2.38-13.88-2.8-21.17c-0.84-19.07-0.56-38.41-0.56-57.48c0-3.36,0.84-6.17,2.52-8.83c4.63-5.61,6.45-12.34,6.45-19.63
		c0-2.1,0.84-4.07,2.1-5.89c9.53-14.16,20.61-27.34,33.51-38.69c4.63-4.07,9.53-7.43,15.7-8.97c0.84-0.28,1.54-0.28,2.38-0.28
		c-4.07,2.52-7.99,5.61-11.64,9.25c-12.34,12.62-23.97,26.08-33.79,40.8c-0.56,0.84-0.84,1.54-0.84,2.38
		c-0.98,0.98-0.98,2.38-0.98,3.65c0,7.29-2.1,13.88-6.45,19.63c-1.82,2.38-2.38,4.91-2.38,7.99c0.28,16.82,0,33.79,0.28,50.61
		c0.28,18.79,5.19,36.31,12.62,53.7C208.79,501.23,208.79,501.23,207.81,501.51z"/>
	<path id="XMLID_14_" class="st8" d="M94.81,327.66c0,1.54-0.56,3.08-1.26,4.63c-12.06-12.06-21.73-26.08-28.88-41.5
		c-8.55-18.51-13.18-38.13-12.34-58.6c0.56-12.9,2.8-25.52,6.73-37.85c2.8,0.28,5.61-0.84,8.55-0.56
		c-10.37,29.44-9.53,58.6,0.56,87.76C73.64,298.78,82.76,314.2,94.81,327.66z"/>
	<path id="XMLID_15_" class="st4" d="M67.19,193.49c-2.8-0.28-5.61,0.84-8.55,0.56c-10.09,0.28-19.91,1.26-29.86,2.52
		c-3.93,0.56-7.71,0.98-11.92,1.54c0-0.28,0-0.56,0-0.84c4.63-0.28,8.97-2.38,13.74-3.36c14.44-3.65,29.16-6.17,44.16-7.99
		c22.43-2.8,44.86-2.8,67.29-2.52c0.84,0,1.82-0.28,2.38,0.56c-4.63,3.36-9.53,6.45-14.16,9.81c-1.82,1.26-3.36,1.54-5.19,1.26
		c-10.8-0.98-21.45-1.82-32.25-1.54c-2.52,0-5.47,0-7.99,0C78.83,193.21,73.22,193.21,67.19,193.49z"/>
	<path id="XMLID_16_" class="st5" d="M214.54,363.27c2.52,11.64,4.91,23.27,7.43,34.77c3.36,15.42,6.45,30.98,9.81,46.41
		c-2.52,3.65-5.19,7.01-7.99,11.08c-1.54-7.43-3.08-14.44-4.35-21.45c-3.65-16.82-7.01-33.79-10.51-50.61c0-0.28,0-0.84,0-0.98
		c1.82-3.08,2.1-7.01,2.1-10.37C211.18,368.46,212.16,365.79,214.54,363.27z"/>
	<path id="XMLID_17_" class="st9" d="M403.81,449.63c-0.98,0.84-0.98,1.82-1.26,2.52c-0.56,0.84,0,2.52-1.82,2.52
		c-1.54,0-0.98-1.54-1.54-2.38c-0.28-0.84-0.56-1.26-0.98-2.52c-0.84,1.54-0.56,2.52-0.56,3.65c0,0.84,0,1.26-0.98,1.26
		c-0.98,0-0.98-0.84-0.98-1.26c0-2.1,0-4.07,0-6.17c0-0.84,0-1.54,0.98-1.54c0.98,0,2.1-0.28,2.38,0.98
		c0.56,1.26,0.84,2.52,1.26,4.07c0.98-1.26,1.26-2.8,1.82-4.07c0.56-1.26,1.26-1.26,2.38-1.26c1.26,0,1.26,0.84,1.26,1.82
		c0,2.1,0,4.07,0,6.17c0,0.56,0,1.26-0.84,1.26c-0.98,0-0.98-0.56-0.98-1.26C403.81,452.16,403.81,450.89,403.81,449.63z"/>
	<path id="XMLID_18_" class="st9" d="M391.47,445.57c0.84,0,1.82,0,2.52,0c0.84,0.28,0.98,1.26,0.28,1.26
		c-2.8,0.28-1.82,2.38-2.1,3.93c-0.28,1.26,0.84,3.65-0.84,3.65c-1.82,0-0.84-2.38-0.98-3.36c-0.28-1.54,0.98-3.93-2.1-3.93
		c-0.28,0-0.56-0.56-0.28-0.98c0-0.56,0.56-0.56,0.84-0.56C389.65,445.57,390.35,445.57,391.47,445.57z"/>
	<path id="XMLID_19_" class="st3" d="M17.14,197.42c0,0.28,0,0.56,0,0.84c-0.84,0.28-1.54,0.84-2.38,0.28
		C15.6,197.84,16.44,197.42,17.14,197.42z"/>
	<path id="XMLID_20_" class="st5" d="M122.71,462.53c-0.56-1.26,0.56-1.26,1.26-1.82C124.25,461.83,123.41,462.25,122.71,462.53z"/>
	<path id="XMLID_21_" class="st4" d="M393.01,90.31c0.28-0.28,0.56-0.28,0.56-0.56C393.29,90.03,393.29,90.03,393.01,90.31z"/>
	<path id="XMLID_22_" class="st5" d="M123.97,460.99c0.28-0.28,0.56-0.56,0.56-0.84C124.54,460.43,124.54,460.99,123.97,460.99z"/>
	<path id="XMLID_23_" class="st5" d="M122.15,463.09c-0.28-0.84,0-0.84,0.56-0.56C122.71,462.81,122.71,463.09,122.15,463.09z"/>
	<path id="XMLID_24_" class="st1" d="M381.66,227c0-0.28,0-0.56,0-0.84h0.28C381.94,226.86,381.66,226.86,381.66,227z"/>
	<path id="XMLID_25_" class="st2" d="M141.5,242.98C141.5,242.98,141.78,242.98,141.5,242.98c0.28-0.28,0.28,0,0.28,0
		S141.78,242.98,141.5,242.98z"/>
	<path id="XMLID_26_" class="st5" d="M127.34,256.44c0,0.56,0,0.84-0.56,0.98C127.06,257,127.06,256.72,127.34,256.44z"/>
	<path id="XMLID_27_" class="st5" d="M354.88,279.43c0-0.28,0-0.56,0.56-0.28c0,0,0,0.56-0.28,0.84
		C354.88,279.71,354.88,279.71,354.88,279.43z"/>
	<path id="XMLID_28_" class="st10" d="M196.46,323.32c-7.01,5.61-13.18,12.34-21.17,16.82c-0.98-0.56-0.84-0.98-0.56-1.26
		c4.91-15.98,9.81-31.68,14.72-47.67c0.28,0.84,0.56,1.26,0.84,2.1C192.11,303.41,194.35,313.22,196.46,323.32z"/>
	<path id="XMLID_29_" class="st6" d="M196.46,323.32c-2.1-10.09-4.07-20.05-6.45-30.14c-0.28-0.84-0.56-1.54-0.84-2.1
		c1.82-6.45,3.65-12.62,5.61-19.07c0.28,0,0.28,0,0.56,0c2.8,12.9,5.19,26.08,8.27,38.97c0.98,4.35,0.56,7.29-3.65,9.25
		C198.84,321.21,197.72,322.47,196.46,323.32z"/>
	<path id="XMLID_33_" class="st11" d="M67.19,193.49c5.61-0.28,11.64-0.28,17.24-0.28c-11.92,27.06-9.25,57.2-5.19,68.56
		c0-1.26,0-2.38,0-3.36c-0.28-9.25,0-18.79,1.54-28.18c2.1-13.18,5.89-25.52,11.92-37.15c10.8-0.28,21.73,0.56,32.25,1.54
		c2.1,0.28,3.65-0.28,5.19-1.26c4.63-3.36,9.53-6.45,14.16-9.81c7.99-4.07,15.98-8.55,24.53-11.92c2.1-0.84,4.07-1.54,6.17-2.8
		c-10.8-1.54-21.45-2.1-32.25-1.82c-10.09,0.28-19.91,0.84-29.72,2.1c-1.26,0.28-2.38,0.56-3.65,0c0.56-0.84,0.98-1.54,1.82-2.1
		c15.7-16.54,35.05-27.62,56.5-34.77c12.06-4.07,24.53-7.01,36.87-8.97c-5.19-0.28-10.09,0.56-15,0.98
		c-18.79,2.1-36.87,6.73-53.98,15.28c-15.28,7.71-28.6,18.09-38.41,31.96c-7.29,1.26-14.16,2.8-21.45,4.07l-0.28-0.28
		c4.91-9.53,11.36-17.81,18.79-25.52c10.8-11.64,23.97-20.33,37.43-28.32c5.19-3.08,10.09-6.45,14.72-10.09
		c12.62-10.09,18.79-23.69,22.15-38.97c2.38-10.37,1.54-20.89,1.82-31.26c0.28-5.61,0.98-11.36,2.8-16.82c0.98,0,1.54,0.98,2.1,1.54
		c20.89,23.27,37.85,49.21,51.59,77.39c0.98,2.1,2.38,2.8,4.35,3.36c7.01,1.26,13.74,3.08,20.05,6.17c1.26,0.56,2.38,0.56,3.65,0.56
		c5.19-0.84,10.51-1.26,15.98-0.98c8.83,0.28,17.24-2.1,25.8-3.65c21.73-3.65,43.04-7.71,64.77-11.64c2.52-0.56,5.19-0.84,7.43-1.26
		c-7.99,3.65-15.98,6.17-24.25,8.97c-22.71,8.55-45.7,16.82-68.42,25.24c-9.25,3.36-15,10.09-16.82,19.91c-0.28,2.1,0,2.8,2.38,2.8
		c10.51-0.84,21.45-1.54,31.96-2.1c10.09-0.56,20.33-0.28,29.86,3.93c0.56,0.28,1.26,0.56,1.82,0.84c0.28,0,0.56,0.28,1.26,0.84
		c-5.47,0.56-10.37,1.26-15,1.82c-14.72,1.54-29.16,3.08-43.88,4.63c-1.26,0.28-2.38,0.98-3.08,1.82
		c-5.47,5.19-10.51,10.37-15.98,15.42c-0.84,0.84-1.82,1.54-3.08,1.54c-23.27,0.56-44.86,6.45-66.03,15.42
		c-19.63,8.27-37.71,19.35-52.57,34.77c-12.34,12.9-21.17,27.9-23.69,45.84c-0.98,7.29-1.26,14.44,0,21.87
		c-2.8,9.53-5.47,18.79-8.83,28.18c-12.06-13.74-21.17-29.16-27.06-46.12C57.66,252.38,57.24,222.93,67.19,193.49z M166.59,110.78
		c0.28,0,0.84,0,0.98-0.28c13.74-5.47,27.9-8.83,42.76-8.97c2.8,0,1.26-1.54,0.84-2.38c-8.55-15.98-17.81-31.4-28.32-46.12
		c-0.28-0.56-0.56-1.26-1.26-0.98c0,0.84,0,1.54,0,2.38c1.26,19.91-3.36,38.41-14.44,54.96
		C166.73,109.93,166.31,110.22,166.59,110.78l-0.28,0.28C166.59,111.06,166.59,111.06,166.59,110.78
		C166.59,111.06,166.59,111.06,166.59,110.78z M256.6,137.27c-8.55,2.8-15.28,7.43-19.35,15.42c-0.56,1.26-0.28,1.82,1.26,1.54
		c3.93-0.28,7.43-0.56,11.36-0.56c0.84,0,1.26-0.28,1.54-1.26C251.97,147.09,253.52,141.9,256.6,137.27z"/>
	<path id="XMLID_34_" class="st12" d="M97.48,171.62c10.09-14.16,23.27-24.53,38.41-31.96c16.96-8.55,35.05-13.18,53.98-15.28
		c4.91-0.56,10.09-0.98,15-0.98c-12.62,2.1-24.96,4.63-36.87,8.97c-21.45,7.43-40.8,18.37-56.5,34.77c-0.84,0.84-1.26,1.54-1.82,2.1
		c-0.28,0.28-0.28,0.28-0.56,0.56C105.47,170.5,101.54,171.06,97.48,171.62z"/>
	<path id="XMLID_35_" class="st11" d="M109.25,170.08c0.28-0.28,0.28-0.28,0.56-0.56C109.81,170.08,109.53,169.8,109.25,170.08z"/>
	<path id="XMLID_36_" class="st11" d="M76.03,175.97c0,0-0.28,0-0.28,0.28C75.75,175.97,75.75,175.69,76.03,175.97
		C76.03,175.69,76.03,175.69,76.03,175.97z"/>
	<path id="XMLID_37_" class="st12" d="M92.71,193.49c-5.61,11.92-9.81,24.25-11.92,37.15c-1.26,9.25-1.82,18.51-1.54,28.18
		c0,0.98,0,2.1,0,3.36c-3.93-11.36-6.45-41.5,5.19-68.56C87.38,193.49,89.91,193.49,92.71,193.49z"/>
	<path id="XMLID_38_" class="st13" d="M166.73,111.06c-0.28-0.84,0.28-0.98,0.56-1.54c11.08-16.82,15.7-35.05,14.44-54.96
		c0-0.84,0-1.54,0-2.38c0.98-0.28,0.98,0.56,1.26,0.98c10.51,14.72,20.05,30.14,28.32,46.12c0.56,0.98,2.1,2.38-0.84,2.38
		c-15,0.28-29.16,3.36-42.76,8.97C167.3,110.78,167.01,110.78,166.73,111.06z"/>
	<path id="XMLID_39_" class="st4" d="M256.6,137.27c-3.08,4.63-4.63,9.81-5.47,15.28c-0.28,0.98-0.84,1.26-1.54,1.26
		c-3.93,0.28-7.43,0.28-11.36,0.56c-1.26,0-1.82-0.28-1.26-1.54C241.04,144.56,248.05,139.94,256.6,137.27z"/>
	<path id="XMLID_40_" class="st13" d="M166.59,110.78C166.59,111.06,166.59,111.06,166.59,110.78c-0.28,0.28-0.28,0.28-0.28,0.28
		C166.59,111.06,166.59,111.06,166.59,110.78C166.73,111.06,166.59,110.78,166.59,110.78z"/>
</g>
</svg>
