<?xml version="1.0" encoding="utf-8"?>
<!-- Generator: Adobe Illustrator 28.0.0, SVG Export Plug-In . SVG Version: 6.00 Build 0)  -->
<svg version="1.1" id="Layer_1" xmlns="http://www.w3.org/2000/svg" xmlns:xlink="http://www.w3.org/1999/xlink" x="0px" y="0px"
	 viewBox="0 0 512 512" style="enable-background:new 0 0 512 512;" xml:space="preserve">
<style type="text/css">
	.st0{fill:#12284B;}
	.st1{fill:#FFC52F;}
	.st2{fill:#FFFFFF;}
</style>
<g>
	<rect id="rect354" y="0" class="st0" width="512" height="512"/>
	<g id="g300" transform="matrix(1.6310268,0,0,1.6310268,19.000618,9.9999991)">
		<path id="path2" class="st1" d="M276.6,89.7v37c0,30.8-5,49.5-29.3,100.7c-25.5,53.9-56.9,69.9-94.6,69.9
			c-24.7,0-48-8.1-66.8-23.2l-0.2,0.1l-4.2-3.8l-0.8-0.7c-5.3-4.8-9.9-9.9-13.8-15.2c-0.3-0.4-0.7-0.9-1-1.3
			c-0.1-0.1-0.1-0.1-0.2-0.2c-0.2-0.3-0.5-0.6-0.7-1c-2.2-3.2-4.3-6.4-6.2-9.8c-0.2-0.4-0.4-0.7-0.6-1.1
			c-6.2-11.1-10.3-22.2-13.7-31.5c-1-2.7-1.9-5.2-2.8-7.5c-7.1-18.2-20.8-53.9-27.5-71.8c-6.9-18.7-8-31.9-3.5-44.3
			c4.7-13.3,15.3-23.9,29.8-35.7c14.5-11.9,26.9-21.7,44.1-34.1c10.8-7.8,22.3-11.9,33.4-11.9c4.7,0,9.1,0.8,13.2,2.2
			c0.7,0.3,1.5,0.6,2.6,1c3.7,1.4,7,3.3,9.9,5.7c0.3-0.2,0.6-0.3,0.9-0.5c7.9-4.6,16.8-7,25.6-7c7,0,13.9,1.5,19.9,4.4
			c1.3,0.6,2.1,1,2.9,1.5l1.5,0.8c4.7,2.4,8.8,5.5,12,9.1c5.2-1.8,10.3-2.6,15.2-2.6c7.4,0,14.3,2,20.6,6l1.5,0.9
			c2.9,1.8,4.3,2.7,6.5,4.3C267.5,41.7,276.6,54.7,276.6,89.7"/>
		<path id="path4" class="st0" d="M244.2,39c-2.4-1.7-3.8-2.5-7.7-5c-7.6-4.8-17.6-6.4-31.2-0.3c-0.9,0.4-1.8,0.8-2.6,1.2
			c-3-6.2-8.4-10.4-13.1-12.8c-1.9-1-2.4-1.3-4.2-2.1c-9.3-4.4-22.7-5.1-35.2,2.2c-2.5,1.5-5.8,3.4-8.7,5.1
			c-2.9-4.9-7.4-7.9-11.5-9.5c-1-0.4-1.8-0.7-2.5-0.9c-9.2-3.4-22.8-1.6-36.4,8.2c-16.2,11.7-28.1,21-43.6,33.7
			c-28.4,23.2-34.4,36.6-22.9,67.6c6.3,17.1,19.7,51.9,27.4,71.7c4.4,11.3,9,26,17.3,40.2h0c0.8,1.3,1.6,2.6,2.4,3.9
			c0.2,0.3,0.5,0.7,0.7,1c3.8,5.7,8.3,11.3,13.7,16.4c0.4,0.4,0.9,0.8,1.3,1.2c0.2,0.2,0.4,0.4,0.6,0.6l0,0
			c16.9,15.4,39.4,24.8,64.6,24.8c46.2,0,83.7-37.5,83.7-83.7v-0.1c0-44.1-35.8-79.9-79.9-79.9c-24,0-48,13.9-62.2,35.7
			c-9.5-23.4-19.1-46.7-28.7-70.1c-5.2-12.7-4-19.2,4-26.6c4.1-3.8,9.1-7.6,14.6-11.3c5.6-3.8,12-1.6,12,5.9v78.9
			c12.9-13,28.7-21.5,48.9-25.2l-0.3-65.2c1.4-0.9,2.8-1.7,3.8-2.3c5.2-3,8.8,0.3,8.8,5.1v60.7c0.3,0,0.6,0,1,0
			c16.4,0,32.6,4.4,46.8,12.7V53c1.3-0.5,2.5-1,3.4-1.4c5.2-2.1,8.7,1.2,8.7,5.8s-0.4,72.1-0.4,72.1c19,15.7,31.3,38.7,33.2,64.7
			c9.1-19.3,15.5-37.2,15.5-67.6v-37C265.6,58.9,258.7,49,244.2,39 M155.9,155.5c26.6,0,48.2,21.6,48.2,48.2s-21.6,48.2-48.2,48.2
			c-26.6,0-48.2-21.6-48.2-48.2S129.3,155.5,155.9,155.5"/>
		<path id="path6" class="st2" d="M119.3,203.7c0-8.8,3.1-16.8,8.2-23.1c10.2,13.6,10.2,32.6,0,46.2
			C122.2,220.3,119.3,212.1,119.3,203.7 M133.9,233c13.5-17.1,13.5-41.4,0-58.5c6.3-4.8,14-7.4,22-7.4c7.9,0,15.6,2.6,22,7.4
			c-13.5,17.1-13.5,41.4,0,58.5c-6.3,4.8-14,7.4-22,7.4C148,240.3,140.3,237.7,133.9,233 M184.2,226.8c-10.2-13.6-10.2-32.6,0-46.2
			c5.1,6.3,8.2,14.3,8.2,23.1S189.4,220.5,184.2,226.8"/>
	</g>
</g>
</svg>
