<?xml version="1.0" encoding="utf-8"?>
<!-- Generator: Adobe Illustrator 26.5.0, SVG Export Plug-In . SVG Version: 6.00 Build 0)  -->
<svg version="1.1" id="Layer_1" xmlns="http://www.w3.org/2000/svg" xmlns:xlink="http://www.w3.org/1999/xlink" x="0px" y="0px"
	 viewBox="0 0 512 512" style="enable-background:new 0 0 512 512;" xml:space="preserve">
<style type="text/css">
	.st0{fill:#002B5C;}
	.st1{fill:#FFFFFF;}
	.st2{fill:#003263;}
	.st3{fill:#CE1141;}
</style>
<g id="XMLID_1_">
	<rect id="XMLID_11_" class="st0" width="512" height="512"/>
	<path class="st1" d="M333.09,440.61h-5.56v15.36h-3.8v-15.36h-5.71v-3.36h15.07V440.61 M358.69,455.97h-3.8v-14.92h-0.15
		l-5.41,14.92h-3.66l-5.27-14.92h-0.15v14.92h-3.8v-18.72h6.58l4.39,12.14h0.15l4.53-12.14h6.58L358.69,455.97L358.69,455.97z"/>
	<path id="XMLID_8_" class="st1" d="M299.45,421.89v22.67l30.28,48.13H215.77l30.28-48.13v-24.87
		C264.63,421.3,288.91,422.77,299.45,421.89"/>
	<path class="st2" d="M242.83,419.69c0,0,0,22.24,0,23.99c-1.02,1.61-32.91,52.37-32.91,52.37h125.81c0,0-32.04-50.76-32.91-52.37
		c0-1.76,0-25.31,0-25.31l-3.51,0.29c-10.09,0.73-33.79-0.59-52.81-2.19l-3.51-0.29v3.51 M248.98,446.32l0.44-0.73
		c0,0,0-17.12,0-22.38c15.95,1.32,35.4,2.49,46.81,2.05c0,4.97,0,20.33,0,20.33s22.53,35.84,27.65,43.89c-10.09,0-91.87,0-101.96,0
		C226.89,481.43,248.98,446.32,248.98,446.32z"/>
	<path id="XMLID_5_" class="st1" d="M299.45,263.9V64.07c15.65,1.17,90.7,4.97,119.08,12.29c14.77,36.13,45.06,56.76,66.85,57.05
		c0.29,0-14.77-53.1-10.68-92.45C425.4,29.4,328.56,19.31,272.68,19.31S119.95,29.4,70.66,40.96c4.1,39.35-10.97,92.45-10.68,92.45
		c21.94-0.29,52.08-20.92,66.85-57.05c28.38-7.46,103.42-11.12,119.08-12.29v200.7v94.79c16.09,4.1,50.18,2.63,53.39,2.19V263.9"/>
	<path class="st2" d="M272.82,15.95c-57.49,0-154.04,10.39-202.75,21.65l-2.78,0.59l0.29,2.93c1.61,15.36,1.17,43.3-9.95,88.8
		c-0.88,3.36-1.02,4.1,0,5.41l1.02,1.32h1.61c21.94-0.29,53.1-20.63,68.9-57.49c23.84-5.85,78.26-9.36,104.74-11.12
		c0,0,5.27-0.44,8.92-0.59c0,6.73,0,294.47,0,294.47l2.49,0.59c16.38,4.24,51.05,2.78,54.56,2.34l2.93-0.44c0,0,0-290.38,0-297.11
		c3.66,0.29,8.92,0.59,8.92,0.59c26.48,1.61,80.9,5.12,104.74,11.12c15.8,36.72,46.96,57.05,69.05,57.49h1.61l1.02-1.32
		c1.02-1.32,0.88-2.05,0-5.27c-11.26-45.49-11.56-73.44-10.09-88.94l0.29-2.93l-2.78-0.59C426.86,26.33,330.31,15.95,272.82,15.95
		 M272.82,22.53c56.17,0,149.5,9.95,198.51,21.07c-0.29,3.51-0.59,7.17-0.59,12c0,16.53,2.34,40.52,10.39,73.58
		c-19.89-2.63-46.08-21.07-59.54-53.98l-0.59-1.46l-1.61-0.44c-23.84-6.29-80.16-9.8-107.23-11.56l-15.95-1.02v3.51
		c0,0,0,288.91,0,294.62c-7.75,0.44-32.48,1.02-46.81-2.05c0-5.41,0-296.08,0-296.08l-15.95,1.02
		c-27.06,1.76-83.38,5.41-107.23,11.56l-1.61,0.44l-0.59,1.46c-13.46,32.91-39.64,51.35-59.54,53.98
		c7.9-33.06,10.39-57.2,10.39-73.58c0-4.68-0.29-8.34-0.59-12C123.32,32.48,216.8,22.53,272.82,22.53z"/>
	<path id="XMLID_2_" class="st3" d="M242.1,109.42c-75.19,9.51-120.54,50.76-151.55,92.16c-8.19,10.97-55.73,55.59-71.39,65.39
		c27.06,17.26,66.85,53.54,93.62,85.58c29.55,35.25,73.44,66.85,161.79,71.39c103.57,5.41,199.53-48.42,217.53-128.15l-71.39-0.73
		c-11.56,36.13-85.28,67.73-146.14,64.8c-90.7-4.24-145.55-48.86-145.41-93.33c0.15-44.03,43.45-83.97,113.08-95.38"/>
	<path id="XMLID_12_" class="st3" d="M303.54,167.35c110.45,4.97,125.51,71.68,127.85,80.16l61.59-0.88
		c-2.34-57.34-63.78-131.36-189.44-139.56"/>
</g>
</svg>
