<?xml version="1.0" encoding="utf-8"?>
<!-- Generator: Adobe Illustrator 26.5.0, SVG Export Plug-In . SVG Version: 6.00 Build 0)  -->
<svg version="1.1" id="Layer_1" xmlns="http://www.w3.org/2000/svg" xmlns:xlink="http://www.w3.org/1999/xlink" x="0px" y="0px"
	 viewBox="0 0 512 512" style="enable-background:new 0 0 512 512;" xml:space="preserve">
<style type="text/css">
	.st0{fill:#0F1C43;}
	.st1{fill:#FFFFFF;stroke:#FFFFFF;}
</style>
<g id="XMLID_1_">
	<rect id="XMLID_2_" class="st1" width="512" height="512"/>
	<path id="XMLID_3_" class="st0" d="M53.83,147.89c6.44,0.29,40.67-36.72,45.79-40.52c36.57,50.03,37.6,67.44,122,143.51
		c-5.12-34.67-65.24-137.51-96.55-169.55c15.21-15.36,47.1-46.37,55.88-56.76c9.36,26.92,42.72,131.95,77.24,195.58l0,0
		c26.48-50.03,72.56-177.3,72.12-196.46c15.07,14.04,38.18,44.32,54.86,58.81c-32.48,25.01-88.36,139.7-108.69,193.54
		c-5.85,15.65-1.02,25.01-1.02,25.01c18.29,14.04,79.29,71.24,90.4,81.92c-22.38-144.53,24.28-240.93,56.91-275.6
		c5.27,5.56,20.92,18.72,37.6,35.69c-17.26,23.11-51.49,83.53-52.81,146.43c-2.05,90.55,13.17,130.05,37.6,165.6
		c-10.97,13.31-19.02,12.43-34.52,30.87c-24.43-22.53-117.76-106.64-134.14-121.42l0,0l2.93,68.46c0.73,3.95,1.61,39.79,17.26,56.76
		c-34.38,0-40.96,0-75.19,1.02c11.41-15.51,14.92-49.3,15.21-59.68l-1.02-108.84c-13.6-13.02-80.46-73.73-86.31-79.87l0,0
		c7.17,36.57,8.19,150.24-42.72,235.96c-4.24-6-46.52-56.47-45.79-57.78c15.65-24.43,43.15-79.58,43.74-130.93
		C105.62,195.58,68.9,170.86,53.83,147.89"/>
</g>
</svg>
