<?xml version="1.0" encoding="utf-8"?>
<!-- Generator: Adobe Illustrator 26.5.0, SVG Export Plug-In . SVG Version: 6.00 Build 0)  -->
<svg version="1.1" id="Layer_1" xmlns="http://www.w3.org/2000/svg" xmlns:xlink="http://www.w3.org/1999/xlink" x="0px" y="0px"
	 viewBox="0 0 512 512" style="enable-background:new 0 0 512 512;" xml:space="preserve">
<style type="text/css">
	.st0{fill:#FFFFFF;}
	.st1{fill:#F47937;}
</style>
<g id="XMLID_1_">
	<rect id="XMLID_6_" class="st0" width="512" height="512"/>
	<path class="st1" d="M333.53,204.8v46.52l-21.8-26.33C318.32,217.38,325.63,210.51,333.53,204.8 M256,252.78
		c-21.65-57.05-55.88-82.51-78.99-94.21v-34.23l87.92,107.96C261.71,238.59,258.78,245.47,256,252.78z M377.56,315.98V193.68
		c19.16,7.9,23.99,36.57,8.92,50.32c0,0,37.6-3.95,37.6-42.72c0-30.57-24.87-48.27-46.52-52.52V63.05
		c0.15-9.8,25.45-21.94,36.28-1.76c18.43-24.14-8.19-71.97-58.37-40.81c-50.18-31.16-76.8,16.68-58.37,40.81
		c10.83-20.19,36.13-8.05,36.28,1.76v96.26c-13.17,6.88-29.7,18.14-45.35,37.01L177.15,61.73c2.05-9.65,25.75-19.89,36.13-0.59
		c18.58-24.14-8.19-71.97-58.37-40.81c-50.18-31.16-76.8,16.68-58.37,40.81c10.83-20.19,36.13-8.05,36.28,1.76v86.02
		c-21.21,4.68-45.06,22.24-45.06,52.22c0,38.77,37.6,42.72,37.6,42.72c-14.63-13.46-10.39-40.96,7.46-49.74v121.86
		c-0.15,9.8-25.45,21.94-36.28,1.76c-18.58,24.14,8.19,71.97,58.37,40.81c50.18,31.16,76.8-16.68,58.37-40.81
		c-10.83,20.19-36.13,8.05-36.28-1.76v-112.2c31.89,21.65,54.13,64.8,56.91,89.82v141.75c0,22.97-25.45,39.5-36.28,19.31
		c-18.58,24.14,8.05,67.29,58.37,36.13c50.18,31.16,76.8-12,58.37-36.13c-10.83,20.19-36.28,1.76-36.28-19.31v-139.7
		c0.59-9.36,4.24-21.65,10.39-34.52l45.06,55.44c-1.02,9.8-25.6,21.07-36.28,1.32c-18.58,24.14,8.19,71.97,58.37,40.81
		c50.18,31.16,76.8-16.68,58.37-40.81C403.02,337.92,377.71,325.78,377.56,315.98z"/>
	<path class="st1" d="M456.12,320.8h-2.34v-9.22l0,0l-3.36,9.22h-2.34l-3.22-9.22l0,0v9.22h-2.34v-11.56h4.1l2.63,7.61h0.15
		l2.78-7.61h4.1 M440.32,311.3h-3.51v9.51h-2.34v-9.51h-3.51v-2.05h9.36V311.3L440.32,311.3z"/>
</g>
</svg>
