<?xml version="1.0" encoding="utf-8"?>
<!-- Generator: Adobe Illustrator 26.5.0, SVG Export Plug-In . SVG Version: 6.00 Build 0)  -->
<svg version="1.1" id="Layer_1" xmlns="http://www.w3.org/2000/svg" xmlns:xlink="http://www.w3.org/1999/xlink" x="0px" y="0px"
	 viewBox="0 0 512 512" style="enable-background:new 0 0 512 512;" xml:space="preserve">
<style type="text/css">
	.st0{fill:#CE1141;}
	.st1{fill:#FFFFFF;}
</style>
<g id="XMLID_1_">
	<rect id="XMLID_10_" class="st0" width="512" height="512"/>
	<path class="st1" d="M367.76,136.63c-4.39-37.89-26.92-55.59-67-52.96l-10.39,0.73v128.59l13.17-2.49
		C346.4,202.46,371.57,173.49,367.76,136.63 M187.54,158.87c0,0-13.31,81.92-77.68,53.25c-38.77-17.41-42.72-84.85,17.7-144.09
		C217.23-19.31,439.3,1.9,430.37,140.87c-4.83,79.14-62.61,110.74-142.04,139.56v145.99c0,44.47-45.79,75.19-83.68,68.61
		c-40.37-7.17-41.55-55.3,6.88-106.2V97.13C174.23,112.49,149.65,159.74,187.54,158.87z"/>
	<path id="XMLID_4_" class="st1" d="M214.89,498.25c-3.66,0-7.17-0.29-10.68-0.88c-15.07-2.63-25.6-11.12-29.84-23.7
		c-7.46-22.67,5.56-54.56,34.67-85.58V100.64c-23.84,11.26-40.67,34.82-38.03,47.4c1.61,7.31,9.65,8.78,16.38,8.63h2.78l-0.44,2.78
		c-0.29,1.76-7.02,41.69-33.94,56.17c-13.31,7.17-29.11,6.73-46.96-1.17c-15.21-6.73-25.31-20.77-28.67-39.5
		c-6-33.79,10.97-74.31,45.64-108.25c27.06-26.33,67.15-44.18,113.08-50.47c44.03-6,89.38-0.29,124.05,15.8
		c47.98,22.09,72.7,60.85,69.63,109.28c-5.12,83.97-69.92,114.69-142.04,141.02v144.38c0,20.19-9.07,39.06-25.75,52.96
		C250.59,491.52,232.3,498.25,214.89,498.25z M213.72,93.77v296.08l-0.59,0.73c-28.09,29.55-41.25,60.85-34.38,81.63
		c3.66,11.12,12.73,18.29,26.19,20.63c18.87,3.22,40.67-3.22,56.91-16.97c15.51-13.02,23.99-30.57,23.99-49.44v-147.6l1.46-0.59
		c85.58-31.01,136.05-63.34,140.58-137.51c2.93-46.52-20.77-83.68-66.85-104.89c-72.7-33.35-179.05-17.99-232.01,33.79
		c-33.5,32.91-50.18,71.83-44.32,104.16c3.07,17.12,12.29,29.99,26.04,36.13c16.53,7.31,30.87,7.9,42.86,1.46
		c21.07-11.41,29.11-41.25,31.16-50.32c-13.6-0.59-17.12-7.75-18.14-12.14c-3.51-16.68,18.29-43.45,43.89-53.98L213.72,93.77z
		 M288.04,215.77V82.36l12.43-0.88c41.55-2.78,64.95,15.65,69.49,54.86l0,0c4.1,38.18-21.94,68.17-66.12,76.36L288.04,215.77z
		 M292.57,86.6v123.61l10.39-1.9c41.69-7.75,66.12-35.84,62.32-71.39c-4.24-36.28-25.89-53.39-64.51-50.91L292.57,86.6z"/>
	<path class="st1" d="M344.94,490.79h-4.68V472.8h-0.15l-6.58,17.99h-4.39l-6.29-17.99h-0.15v17.99h-4.68v-22.53h8.05l5.27,14.77
		h0.15l5.41-14.77h7.9 M313.93,472.21h-6.73v18.58h-4.53v-18.58h-6.88v-3.95h18.29v3.95H313.93z"/>
</g>
</svg>
