<?xml version="1.0" encoding="utf-8"?>
<!-- Generator: Adobe Illustrator 27.0.0, SVG Export Plug-In . SVG Version: 6.00 Build 0)  -->
<svg version="1.1" id="Layer_1" xmlns="http://www.w3.org/2000/svg" xmlns:xlink="http://www.w3.org/1999/xlink" x="0px" y="0px"
	 viewBox="0 0 512 512" style="enable-background:new 0 0 512 512;" xml:space="preserve">
<style type="text/css">
	.st0{fill:#2F241D;}
</style>
<g id="XMLID_1_">
	<path id="XMLID_5_" class="st0" d="M147.63,0.1c-48.79,0-83.7,35.61-83.56,82.3v92.25c0,31.54,26.5,62.81,63.79,62.81h148.89
		c10.23,0,13.04,9.39,13.04,12.9c0,1.26-0.14,81.03-0.14,81.03c0,21.31-12.34,37.99-34.49,37.99h-21.73V257.64H181.7v0.14l0,0
		v111.74h-54.68c-9.25-0.28-10.94-9.11-10.94-13.04c0-2.8,0-37.71,0-50.33c0-13.32,16.4-17.81,20.47-18.79
		c0.56-0.14,0.84-0.42,0.84-0.98c0-0.42-0.42-0.7-0.7-0.7H64.21c0,26.36,0,77.53,0,77.67c-0.14,27.48,22.43,58.18,55.52,58.18h58.6
		h3.5c0,1.68,0,54.68,0,56.08c-0.14,4.63-0.98,8.69-2.1,12.34c-4.77,12.62-16.54,18.93-21.87,20.05c-1.4,0.28-1.4,1.82-0.28,2.1
		h0.14h173.7h1.54c73.74,0,114.96-35.89,114.96-108.65V211.1c0-73.46-41.36-108.23-114.4-108.23c0,0-174.27,0-175.81,0
		c-1.4,0-1.54,2.24,0,2.38c1.4,0.14,23.97,2.1,23.97,22.85v57.34c-16.26,0-51.87,0-53.42,0c-8.83-0.14-11.78-6.45-12.2-11.36
		c0-13.46,0-81.88,0-82.86c0.56-25.94,14.58-39.26,38.97-39.26h118.19c6.87,0,12.76,3.36,12.76,11.64c0,8.41-8.83,10.8-10.51,11.64
		c-0.7,0.42-0.84,1.4,0,1.4h66.03V54.92C340.96,38.93,330.44,0.1,280.82,0.1L147.63,0.1L147.63,0.1z M233.71,151.23h104.45
		c35.19,0,57.9,25.24,57.9,57.9v202.44c0,33.79-26.5,51.87-60,51.87c-30.7,0-84.12,0-102.2,0v-42.2h27.48
		c48.79,0,80.89-35.33,80.89-81.73c0,0,0-90.15,0-95.61c0-19.91-16.26-58.46-63.79-58.46h-44.44L233.71,151.23L233.71,151.23z"/>
</g>
</svg>
