<?xml version="1.0" encoding="utf-8"?>
<!-- Generator: Adobe Illustrator 27.0.0, SVG Export Plug-In . SVG Version: 6.00 Build 0)  -->
<svg version="1.1" id="Layer_1" xmlns="http://www.w3.org/2000/svg" xmlns:xlink="http://www.w3.org/1999/xlink" x="0px" y="0px"
	 viewBox="0 0 512 512" style="enable-background:new 0 0 512 512;" xml:space="preserve">
<style type="text/css">
	.st0{fill:#C41E3A;}
	.st1{fill:#183561;}
	.st2{fill:#FFFFFF;}
</style>
<g id="XMLID_1_">
	<rect id="XMLID_8_" x="13.6" y="0" class="st0" width="484.79" height="512"/>
	<path class="st1" d="M393.65,344.06l-3.36,13.17c-0.29,0.88-2.49,2.93-10.83,7.9c-8.05,4.68-20.04,5.41-20.19,5.41
		c0,0-129.46,0-134.29,0c0-3.8,0-19.31,0-23.84c26.33,5.85,53.69,8.48,83.09,8.19c64.95-0.29,99.77-39.94,99.77-77.24v-0.15
		c0-33.79-24.87-71.09-71.09-74.75c0-2.34,0-5.27,0-7.9c4.53,0,37.01,0,37.01,0v-42.72H256.88v43.01c0,0,32.91,0,37.6,0
		c0,2.05,0,3.8,0,6c-26.62,0-59.98-4.1-69.49-5.12c0-4.24,0-60.85,0-65.1c30.72-3.51,95.96,7.17,127.56,18.72l6.14,2.34l22.09-46.37
		h-11.41l1.17,0.29l-1.46-0.44c-5.27-0.15-10.83-0.88-15.8-2.05l-5.27-1.17c-26.77-6.44-82.07-19.16-123.17-15.21
		c0-2.49,0-4.53,0-6.73c3.66,0,17.41,0,17.41,0V36.43h-79.29v43.89c0,0,14.04,0,17.7,0c0,3.36,0,10.53,0,13.31
		c-32.33,6.88-64.37,31.45-64.37,72.12s31.89,64.51,64.37,70.36c0,3.66,0,43.01,0,50.18c-2.78-1.61-6.14-3.36-6.14-3.36l-1.9-1.17
		l-16.09-10.53l-26.77,38.47l4.39,4.24c1.46,1.46,1.61,1.46,8.63,3.51c0,0,6,1.9,6.29,1.9c1.02,0.59,13.75,6.73,31.74,14.63
		c0,2.93,0,32.48,0,36.72c-4.39,0-30.72,0-30.72,0v44.91h210.51c3.66-0.15,21.8-1.02,32.77-7.02c20.33-10.83,29.7-21.21,29.84-21.36
		l4.39-4.53L393.65,344.06z M180.66,187.68c-11.26-2.78-17.85-11.7-17.85-25.31c0-12,8.19-21.21,17.85-25.6
		C180.66,149.36,180.66,177.01,180.66,187.68z M223.52,239.18c14.19,1.61,46.67,4.97,72.12,5.12c0,9.36,0,46.52,0,46.52h39.79
		c0,0,0-34.38,0-44.18c6.14,1.02,11.7,3.8,16.38,8.19c6,5.85,9.36,13.9,9.36,22.67c0,10.68-6,19.46-16.97,25.6
		c-11.41,6.29-28.09,9.51-48.42,9.51c-31.6,0-61.44-8.19-72.27-11.7C223.52,294.18,223.52,249.56,223.52,239.18z"/>
	<path class="st2" d="M329.58,209.63v-21.8h37.01v-28.53H264.05v28.53h37.3v20.33c-33.65,0.88-83.97-6-83.97-6v-77.82
		c28.09-5.85,100.5,5.27,137.36,18.43l14.34-30.13c0,0-8.05-0.15-17.55-2.34c-25.01-5.85-91.57-22.38-134.14-15.51V72.85h17.55
		v-29.4h-64.66v29.4h17.7v26.33c-31.16,4.39-64.37,27.21-64.37,66.27c0,39.79,32.91,60.85,64.37,64.37v67.73
		c-5.85-1.76-11.7-5.56-18.87-9.8c-4.24-2.63-10.68-7.02-10.68-6.88l-19.46,27.94c0.15,0.15,8.63,2.63,12.58,4.1
		c10.24,4.97,22.38,11.26,36.28,16.53v48.71h-30.72v30.28h203.34c0,0,18.87-0.59,29.4-6.14c18.72-9.95,27.65-19.75,27.65-19.75
		l-20.48-23.11c-1.17,4.53-8.19,8.92-14.48,12.43c-9.65,5.56-23.26,6.29-23.26,6.29H217.53v-39.64c25.75,6.29,54.71,9.95,90.55,9.65
		c57.93-0.29,92.6-33.79,92.6-70.22C400.68,245.47,377.12,209.63,329.58,209.63 M187.98,127.41v68.75
		c-20.33-0.59-32.33-14.19-32.33-33.5C155.79,143.51,172.32,129.46,187.98,127.41z M301.49,238.45v46.52h28.09v-44.62
		c21.8-0.15,37.3,17.12,37.3,37.3c0,21.21-19.31,41.11-71.24,41.11c-40.52,0-78.26-13.31-78.26-13.31v-73
		C217.53,232.45,268.87,238.59,301.49,238.45z"/>
</g>
</svg>
