<?xml version="1.0" encoding="utf-8"?>
<!-- Generator: Adobe Illustrator 27.0.0, SVG Export Plug-In . SVG Version: 6.00 Build 0)  -->
<svg version="1.1" id="Layer_1" xmlns="http://www.w3.org/2000/svg" xmlns:xlink="http://www.w3.org/1999/xlink" x="0px" y="0px"
	 viewBox="0 0 512 512" style="enable-background:new 0 0 512 512;" xml:space="preserve">
<style type="text/css">
	.st0{fill:#092C5C;}
	.st1{fill:#231F20;}
	.st2{fill:#8FBCE6;}
	.st3{fill:#FFFFFF;}
</style>
<g id="XMLID_1_">
	<rect id="XMLID_3_" x="0.42" y="17.39" class="st3" width="511.16" height="477.21"/>
	<polygon id="XMLID_4_" class="st1" points="511.58,17.39 511.58,16.97 0,16.97 0,495.03 512,495.03 512,16.97 511.58,16.97 
		511.58,17.39 511.16,17.39 511.16,494.19 0.84,494.19 0.84,17.81 511.58,17.81 511.58,17.39 511.16,17.39 	"/>
	<path id="XMLID_12_" class="st2" d="M307.76,31.84l10.8,92.02h-1.12l-2.1,0.14l-8.28,0.42c-1.68-8.28-11.64-54.99-38.15-65.51
		l-0.28-0.14l0,0H194v268.2c0,0,46.29,8.42,49.24,8.98v14.73H89.07v9.96h163.56V336.8c0,0-42.5-7.72-49.24-8.98V68.73h68.59
		c22.44,9.26,32.26,49.52,34.79,61.72l0.84,4.21l21.04-1.12l-11.92-101.7H307.76L307.76,31.84z M63.96,58.92l-0.28,0.14
		c-26.37,10.38-35.35,46.71-37.17,55.41v0.28l-11.5-0.56l-1.12,9.68l21.04,1.12l0.84-4.21c1.4-7.01,9.82-41.94,33.81-51.76h68.45
		v-9.96L63.96,58.92L63.96,58.92z M219.53,147.71v23.99c0,0,44.33,7.29,51.34,8.42v-9.12c0,0-48.25-8-51.34-8.42V147.71
		L219.53,147.71z M363.45,147.71c69.72,0.14,105.21,21.04,105.21,71.68c0,63.4-70.42,81.64-70.42,81.64l0,0
		c0,0,90.76-2.1,90.76,78.69c0,61.58-39.42,91.46-107.17,91.46H227.1h-7.57v-14.03l0,0v4.21v19.78h167.21
		c72.24,0,112.08-34.23,112.08-96.37c0-23.57-7.43-42.78-22.02-57.09c-15.99-15.57-37.17-22.02-52.74-24.69
		c22.02-10.8,54.43-34.37,54.43-78.55c0-52.18-35.21-76.59-110.82-76.59L363.45,147.71L363.45,147.71z M346.9,164.54
		c-1.96,0-2.95,0-2.95,0c-3.65,0-11.64,0-15.71,0.42l-1.68,0.28v287h0.14c0.7,0,7.15,0,9.82,0V174.78
		c4.35-0.14,12.62-0.28,12.62-0.28c0.56,0,28.62-1.26,47.27,16.41c11.08,10.52,16.83,25.81,17.25,45.31c0-0.98,0-2.1,0-3.09
		C413.39,169.73,360.22,164.82,346.9,164.54L346.9,164.54z M336.24,452.24L336.24,452.24h20.48
		C346.2,452.24,341.71,452.24,336.24,452.24z M346.76,302.57v18.8l4.49,0.28c8.42,0.7,80.94,8.14,82.34,63.54c0-1.12,0-2.24,0-3.23
		c0-62.14-80.1-69.72-86.97-70.14L346.76,302.57L346.76,302.57L346.76,302.57z"/>
	<path id="XMLID_16_" class="st0" d="M307.76,31.84L24.69,31.98l-9.82,82.06l11.5,0.56v-0.28c1.82-8.7,10.8-44.89,37.17-55.41
		l0.42-0.14h73.92l0,0v9.96v258.24c0,0-45.31,8.42-48.96,8.98v14.73h9.82h143.78h0.56v-14.73c-3.09-0.56-49.24-8.98-49.24-8.98
		V58.92l0,0h74.63l0,0l0.28,0.14c26.51,10.52,36.47,57.23,38.15,65.51l8.28-0.42l2.1-0.14h1.12L307.76,31.84L307.76,31.84
		L307.76,31.84z M219.53,147.71L219.53,147.71v7.57v7.29c3.09,0.42,51.34,8.42,51.34,8.42v276.48l0,0
		c-1.26,0.28-48.39,8.42-51.34,8.98v0.84v6.45v7.57h7.57h154.72c67.61,0,107.17-29.88,107.17-91.46c0-80.94-90.76-78.69-90.76-78.69
		v-0.28c0,0,70.42-18.24,70.42-81.64c0-50.64-35.35-71.54-105.21-71.68c-0.28,0-0.56,0-0.7,0h-135.5L219.53,147.71L219.53,147.71z
		 M346.9,164.54c13.33,0.28,66.49,5.19,66.49,68.45c0,1.12,0,2.1-0.14,3.09c-2.24,59.2-66.49,65.79-66.49,65.79v0.42v9.26
		c6.87,0.56,86.97,8,86.97,70.14c0,1.12,0,2.24,0,3.23c-1.26,33.67-23.15,66.91-75.33,66.91h-1.54c-15.57,0-28.05,0-30.3,0h-0.14
		V165.24l1.68-0.28c4.21-0.42,12.06-0.42,15.71-0.42C343.81,164.54,344.93,164.54,346.9,164.54L346.9,164.54z"/>
</g>
</svg>
