<?xml version="1.0" encoding="utf-8"?>
<!-- Generator: Adobe Illustrator 27.0.0, SVG Export Plug-In . SVG Version: 6.00 Build 0)  -->
<svg version="1.1" id="Layer_1" xmlns="http://www.w3.org/2000/svg" xmlns:xlink="http://www.w3.org/1999/xlink" x="0px" y="0px"
	 viewBox="0 0 512 512" style="enable-background:new 0 0 512 512;" xml:space="preserve">
<style type="text/css">
	.st0{fill:#004685;}
	.st1{fill:#CE1141;}
	.st2{fill:#FFFFFF;}
</style>
<g id="XMLID_1_">
	<rect id="XMLID_9_" class="st2" width="512" height="512"/>
	<g id="XMLID_2_">
		<path id="XMLID_8_" class="st0" d="M190.9,86.45c0-4.24,0-7.61,0-8.92c-0.15,0-0.88,0-0.88,0c-64.07,0-90.26,22.24-90.4,77.39
			l-0.15,12.58H45.93l28.96,27.06h50.47v-10.09C125.51,128,131.07,92.31,190.9,86.45z"/>
		<path id="XMLID_7_" class="st0" d="M334.85,219.14l-14.19,3.95c-0.29,0.15-31.16,9.07-31.16,29.99v123.47
			c0,8.34,3.51,13.9,20.19,13.9h8.78c0-0.73,0-1.61,0-2.49c0,0,0-98.16,0-123.32s34.96-34.96,34.96-34.96
			S344.06,226.01,334.85,219.14z"/>
		<path id="XMLID_6_" class="st0" d="M289.65,77.82c0,9.8,0,103.57,0,103.57c0,19.46,31.31,31.89,31.6,32.04l12.87,4.97
			c-8.05-6.29-15.51-14.77-15.51-25.45c0-23.26,0-104.89,0-104.89l4.97,0.29c19.31,1.61,33.06,6.73,43.01,14.19
			C350.5,86.6,324.75,77.97,289.65,77.82z"/>
		<polygon id="XMLID_5_" class="st0" points="438.42,15.95 438.42,167.5 395.41,167.5 425.84,196.32 466.07,196.32 466.07,41.69 		
			"/>
		<polygon id="XMLID_4_" class="st0" points="341.43,466.07 149.36,466.07 181.1,496.05 365.86,496.05 365.86,423.5 341.43,400.82 
					"/>
	</g>
	<path id="XMLID_3_" class="st1" d="M89.53,154.33c0-60.27,31.01-87.04,100.5-87.04h11.12v114.1c0,19.6-14.19,30.72-24.43,36.57
		c10.24,5.27,24.43,15.65,24.43,35.11v122.29c0,15.95-10.97,25.31-29.26,25.31c0,0-15.65,0-22.53,0c0,8.05,0,47.1,0,55
		c9.51,0,172.32,0,181.83,0c0-7.9,0-46.96,0-55c-6.58,0-21.36,0-21.36,0c-20.19,0-30.43-8.19-30.43-24.28V253.07
		c0-19.31,16.53-29.99,27.94-35.4c-11.26-6.29-27.94-18.29-27.94-36.28V67l5.41,0.29c0,0,4.83,0.29,4.68,0.29
		c67.44,0,106.06,30.43,106.06,83.68c0,0,0,3.07,0,6c6.88,0,25.89,0,32.77,0c0-9.22,0-131.95,0-141.17c-9.95,0-372.3,0-382.1,0
		c0,9.22,0,131.95,0,141.17c7.61,0,36.86,0,43.89,0"/>
	<path class="st2" d="M403.31,476.89h-6.88v18.87h-4.68v-18.87h-7.02v-4.1h18.58V476.89 M434.76,495.76h-4.68v-18.29h-0.15
		l-6.73,18.29h-4.53l-6.44-18.29h-0.15v18.29h-4.68v-23.11h8.19l5.41,15.07h0.15l5.56-15.07h8.05L434.76,495.76L434.76,495.76z"/>
</g>
</svg>
