<?xml version="1.0" encoding="utf-8"?>
<!-- Generator: Adobe Illustrator 27.0.0, SVG Export Plug-In . SVG Version: 6.00 Build 0)  -->
<svg version="1.1" id="Layer_1" xmlns="http://www.w3.org/2000/svg" xmlns:xlink="http://www.w3.org/1999/xlink" x="0px" y="0px"
	 viewBox="0 0 512 512" style="enable-background:new 0 0 512 512;" xml:space="preserve">
<style type="text/css">
	.st0{fill:#003DA5;}
	.st1{fill:#FFFFFF;}
	.st2{fill:#041E42;}
	.st3{fill:#DA291C;}
</style>
<g id="XMLID_2_">
	<rect id="XMLID_5_" y="26.81" class="st1" width="512" height="458.28"/>
	<path id="XMLID_7_" class="st1" d="M497.83,228.53l-15.71-5.19l2.67-31.28l-28.34,5.19l-6.03-16.13l-8.56,7.72
		c-5.33,5.75-8,8.14-13.75,13.19c0.98-13.75,2.81-30.02,2.81-30.16l1.12-13.75c0,0-4.35,1.82-12.91,5.19
		c6.45-33.95,20.62-55.69,20.62-55.69s-10.66-0.7-17.96,1.12c5.19-11.64,19.92-31.42,19.92-31.42s-11.92-0.14-18.1,0.84
		c-6.31,1.12-8.98,1.68-13.89,3.65c0,0,1.12-6.73,1.26-10.8c0.56-11.92-1.12-20.9-1.12-20.9l-18.24,19.64
		c-1.96,3.09-7.72,7.15-10.52,9.68c-3.09,2.81-6.73,5.47-11.64,8.28c-4.77,2.81-10.1,5.47-16.55,8.42
		c-7.43,3.37-14.17,6.03-20.62,8.28c-5.19,1.82-10.66,3.23-15.57,4.63c-4.63,1.26-9.54,2.67-14.31,3.79
		c-4.77,1.26-9.68,2.38-14.87,3.65l-0.98,0.28h-0.14c-10.24,1.82-20.62,3.51-30.86,4.77c-5.33,0.7-10.66,1.26-15.99,1.82
		c-4.07,0.42-8.14,0.98-12.06,1.4c-9.96,1.26-19.92,2.67-29.74,4.21c-8.42,1.26-16.69,3.51-24.55,6.87
		c-6.73,2.81-12.48,6.03-17.39,9.82c-3.65,2.81-6.87,5.89-9.96,8.98l-1.4,1.26c-1.68,1.54-3.51,3.37-5.19,5.47
		c-1.26,1.54-2.38,3.23-3.37,5.05l-2.52,1.4c-1.82,0.7-5.47,2.24-7.72,3.79c-2.52,1.68-5.05,3.79-7.29,6.03
		c-1.96,2.1-3.37,4.35-4.35,5.89l-0.28,0.42c-0.14,0.28-0.42,0.7-0.7,1.12c-1.68,0.28-4.07,0.7-5.89,0.98
		c-1.68,0.28-3.51,0.56-5.05,0.84c-5.89,0.98-13.33,2.38-18.66,3.51c-5.33,1.12-9.96,2.1-14.87,3.51c-1.4,0.42-2.81,0.7-4.21,1.12
		c-3.23,0.84-6.73,1.68-9.96,2.67c-4.21,1.26-8.84,2.67-13.05,4.21c-3.93,1.4-6.45,2.38-8.98,3.51s-4.21,2.24-5.47,3.09l-0.42,0.28
		c-1.96,1.26-3.79,2.67-5.33,4.49c-1.12,1.26-1.82,2.67-2.24,3.37v0.14c-0.84,1.68-2.38,4.77-2.38,8.98c0,3.79,2.67,6.45,2.67,6.45
		c0.42,0.7,1.82,2.38,2.52,3.09c0.28,0.28,0.56,0.56,0.84,0.84l15.15,8.7c4.07,1.68,7.86,3.37,11.64,4.63
		c5.61,2.1,10.38,3.65,16.69,5.61c6.59,1.96,16.69,4.77,24.83,6.87c7.15,1.82,10.94,2.81,15.57,3.65c5.47,1.12,9.82,2.1,11.5,2.38
		l1.12,0.28c2.38,0.56,4.07,0.84,6.17,1.54c0.7,0.28,1.54,0.42,2.24,0.7c2.24,0.7,4.49,1.26,6.87,2.38
		c3.51,1.4,7.57,3.65,11.36,5.89c3.37,2.1,7.15,4.77,11.78,8.42c4.21,3.37,8.42,7.01,11.92,10.38c3.51,3.51,5.89,6.03,9.96,10.8
		c5.33,6.31,10.1,12.2,14.03,17.53c5.47,7.43,12.2,17.96,14.73,22.16c4.07,6.45,6.31,10.52,9.68,16.41
		c2.95,5.19,6.31,11.5,10.24,19.08c0.7,1.4,1.4,2.67,2.1,4.07c2.67,5.05,5.47,10.38,7.57,15.43c1.82,4.07,3.23,8.28,4.77,12.62
		c0.84,2.38,1.68,4.91,2.67,7.29c2.52,6.73,7.43,19.64,7.43,19.64l6.73,21.18l11.5-20.06c0.14-0.14,10.24-18.8,14.87-26.79
		c5.05-8.7,9.4-15.43,13.19-21.32c4.35-6.87,8.7-13.33,13.33-19.64c4.77-6.87,8.98-12.62,13.75-18.66
		c5.75-7.43,12.91-15.85,15.85-19.08c1.96-2.24,3.51-3.93,5.05-5.47c1.96-2.1,3.93-4.21,6.45-7.29c2.67-3.23,7.29-7.43,11.22-11.08
		c1.26-1.12,2.52-2.38,3.65-3.37c4.77-4.49,13.33-11.78,13.33-11.92l5.05-4.49l5.61,10.1l8.42-14.03l54.01,4.35l-14.45-16.97
		L497.83,228.53z"/>
	<path id="XMLID_8_" class="st0" d="M289.95,126.27L289.95,126.27c5.05-1.12,10.1-2.38,15.01-3.65c4.91-1.26,9.68-2.52,14.45-3.93
		c5.33-1.54,10.8-3.09,16.13-4.77c7.43-2.52,14.59-5.33,21.6-8.56c6.03-2.67,11.92-5.61,17.53-8.98c4.77-2.81,9.26-5.89,13.33-9.54
		c3.37-3.09,6.31-6.59,8.84-10.38c0.42,2.67,0.42,5.33,0.28,8c-0.14,2.1-0.56,4.21-0.98,6.31c-0.42,2.24-0.98,4.63-1.68,6.87
		l12.91-5.61c5.61-2.52,11.5-4.49,17.53-4.77l-2.67,2.38c-1.96,2.24-3.79,4.35-5.47,6.73c-1.82,2.38-3.51,4.77-5.19,7.29
		c-2.52,3.93-5.05,8-7.15,12.2l-4.77,10.66l3.37-2.52c1.96-1.12,3.79-2.24,5.75-3.37c1.96-1.12,3.93-2.1,6.03-2.81
		c1.68-0.56,3.51-0.98,5.33-1.12c1.54-0.14,3.23-0.14,4.77,0c-0.98,0.84-1.82,1.68-2.52,2.52c-1.54,1.82-2.81,4.07-3.65,6.31
		c-1.4,2.95-2.52,6.03-3.51,9.12c-1.4,4.35-2.38,8.7-3.51,13.05c-0.98,4.21-2.1,8.42-3.37,12.62l-17.11-28.2l-20.34,32.96
		l-19.36-7.72l4.35,43.91l-21.74-20.76l-6.59,15.85l-27.35-4.35v5.19c-4.07-0.42-8.14-0.84-12.2-1.4c-5.33-0.7-10.8-1.4-15.99-2.52
		c-4.49-0.98-8.98-2.24-13.47-3.51c-4.77-1.4-9.4-2.81-14.03-4.35c-4.63-1.54-9.26-3.23-13.89-4.77c-3.23-1.12-6.45-2.1-9.68-2.95
		c3.65-0.56,7.15-0.98,10.8-1.26c3.09-0.28,6.17-0.42,9.4-0.28c3.79,0,7.57,0.28,11.22,0.84c-4.91-1.82-9.96-3.23-15.15-4.49
		c-5.05-1.12-10.24-2.1-15.43-2.81c-4.35-0.56-8.7-0.98-13.05-1.12c-3.93-0.14-7.72-0.14-11.64,0.14
		c-3.79,0.14-7.43,0.56-11.08,1.26c-3.37,0.7-6.59,1.68-9.68,3.09c-1.82,0.84-3.65,1.68-5.33,2.67c-4.63,2.1-8.28,6.45-9.54,11.36
		c-0.98,3.65-0.56,7.57,0.98,10.94c-3.37,0.14-6.59-0.84-9.4-2.67c-2.1-1.4-3.79-3.23-5.19-5.19c-1.26-1.82-2.52-3.79-3.23-5.89
		c-1.26-3.37-1.54-7.15-0.56-10.52c0.7-2.1,1.96-4.07,3.37-5.89c1.4-1.82,3.09-3.37,4.77-4.91c3.23-3.23,6.59-6.45,10.24-9.26
		c4.63-3.51,9.68-6.31,15.15-8.56c7.15-2.95,14.59-5.05,22.16-6.17c9.82-1.54,19.64-2.95,29.46-4.21c9.4-1.12,18.8-2.1,28.2-3.37
		c11.08-1.4,22.16-3.09,33.1-5.19"/>
	<path id="XMLID_11_" class="st2" d="M137.61,177.05c0,0-4.49,1.82-6.59,3.09c-1.96,1.26-3.79,2.95-5.33,4.49
		c-1.54,1.54-2.52,3.51-3.37,4.77c-0.84,1.26-1.96,3.65-3.51,4.49c-1.54,0.98-9.26,1.82-14.87,2.81
		c-5.61,0.98-12.76,2.24-18.24,3.51c-5.47,1.12-9.82,2.1-14.45,3.37c-4.63,1.26-9.54,2.38-13.89,3.65
		c-4.35,1.26-8.98,2.81-12.48,3.93c-3.51,1.26-5.89,2.1-8.14,3.23c-2.24,1.12-3.65,1.96-4.91,2.81c-1.26,0.84-2.24,1.68-3.23,2.67
		c-0.98,0.98-1.54,2.52-1.54,2.52l117.27,0.42c0,0,1.12-1.54,1.82-2.24s1.26-1.26,2.81-2.1c1.54-0.84,3.37-1.54,5.33-1.96
		c1.96-0.42,3.93-0.56,5.75-0.56c1.96,0,3.93-0.14,6.17,0.42c2.24,0.56,4.63,1.54,6.59,2.52c1.82,0.98,3.51,2.24,4.77,3.23
		s2.38,2.38,3.65,3.51s2.52,2.1,3.93,3.09c1.54,1.12,3.37,2.38,5.19,3.23c1.82,0.84,3.51,1.26,5.33,1.68
		c1.82,0.28,3.79,0.42,5.89,0.42s4.91-0.42,7.01-0.98c2.24-0.7,4.21-1.82,6.03-2.81c1.82-0.98,3.37-2.24,4.77-3.37
		c1.4-1.12,2.38-2.24,3.79-3.37c1.26-1.12,2.52-2.52,4.07-3.51c1.54-0.98,3.37-1.82,5.05-2.38c1.68-0.56,3.23-0.98,4.91-1.26
		c1.82-0.14,64.39-0.14,64.39-0.14l-0.28-9.54c0,0-54.57,0.14-63.82,0c-1.82-0.14-3.23-0.56-4.49-0.84
		c-1.26-0.42-1.68-0.7-3.23-1.54c-1.54-0.84-3.09-1.82-4.77-3.09c-1.68-1.26-3.51-3.09-5.19-4.49s-2.95-2.81-4.63-3.93
		c-1.54-1.12-3.09-2.1-4.91-2.81c-1.68-0.7-3.65-1.26-5.47-1.54c-1.96-0.28-3.79-0.14-5.75,0c-1.96,0.14-3.65,0.42-5.75,1.12
		c-1.4,0.42-3.37,1.4-4.49,2.1c-2.1,1.26-3.65,2.81-5.61,4.21c-1.82,1.4-3.51,2.81-5.19,4.21c-1.96,1.4-3.51,2.81-5.75,4.07
		c-1.68,0.98-4.07,2.24-5.89,2.52c-2.38,0.28-3.51,0.28-5.33,0.14c-1.82-0.14-3.09-0.42-4.91-0.98c-1.82-0.56-3.65-1.4-5.47-2.52
		c-1.82-1.12-3.65-2.67-5.33-4.49c-1.68-1.82-3.51-3.79-4.77-6.17c-1.26-2.24-2.52-5.19-3.23-7.72
		C136.63,182.38,137.61,177.05,137.61,177.05L137.61,177.05z M194.28,195.98v12.2h-6.45c0,0,0.28-3.37,0.7-4.91
		c0.28-1.12,0.84-2.38,1.54-3.37c0.56-0.98,1.4-1.82,2.24-2.67C192.88,196.82,194.28,195.98,194.28,195.98L194.28,195.98z"/>
	<path id="XMLID_14_" d="M137.61,177.05v-0.14c0,0-4.49,1.82-6.59,3.09c-1.96,1.26-3.79,2.95-5.33,4.49
		c-1.54,1.68-2.67,3.51-3.37,4.77c-0.84,1.26-1.96,3.65-3.37,4.49c-0.7,0.42-3.09,0.98-5.89,1.4c-2.81,0.42-6.17,0.98-8.98,1.4
		c-5.61,0.98-12.76,2.24-18.24,3.51c-5.47,1.12-9.82,2.1-14.45,3.37c-4.63,1.26-9.54,2.38-13.89,3.65
		c-4.35,1.26-8.98,2.81-12.48,3.93c-3.51,1.26-5.89,2.1-8.14,3.23l0,0c-2.24,1.12-3.65,1.96-4.91,2.81
		c-1.26,0.84-2.38,1.68-3.23,2.67l0,0c-0.98,1.12-1.54,2.52-1.54,2.52l-0.14,0.14l117.69,0.42l0,0c0,0,0.28-0.42,0.7-0.84
		s0.84-0.98,1.12-1.4c0.7-0.7,1.26-1.26,2.81-2.1c1.54-0.84,3.37-1.54,5.33-1.96c1.96-0.42,3.79-0.56,5.75-0.56v-0.14v0.14
		c0.56,0,1.12,0,1.68,0c1.4,0,2.95,0,4.49,0.42l0,0l0,0c2.24,0.56,4.63,1.54,6.45,2.52c1.82,0.98,3.51,2.24,4.77,3.23l0.14-0.14
		l-0.14,0.14c1.26,0.98,2.38,2.38,3.65,3.51c1.26,1.12,2.52,2.1,4.07,3.09c1.54,1.12,3.37,2.38,5.19,3.23
		c1.82,0.84,3.51,1.26,5.33,1.68c1.82,0.28,3.51,0.42,5.47,0.42c0.14,0,0.28,0,0.42,0l0,0c2.1,0,4.91-0.42,7.15-1.12
		c2.24-0.7,4.21-1.82,6.03-2.81c1.82-1.12,3.37-2.24,4.77-3.37c1.4-1.12,2.52-2.24,3.79-3.37c1.26-1.12,2.52-2.52,4.07-3.51
		c1.54-0.98,3.37-1.82,5.05-2.38c1.68-0.56,3.09-0.98,4.91-1.26c0.98-0.14,20.2-0.14,37.45-0.14c7.15,0,13.89,0,18.8,0
		c4.91,0,8.14,0,8.14,0h0.14l-0.28-9.82h-0.14c0,0-1.54,0-4.07,0c-7.72,0-24.97,0-39.14,0c-9.4,0-17.53,0-20.62,0v0.14v-0.14
		c-1.82-0.14-3.23-0.56-4.49-0.84c-1.26-0.42-1.68-0.7-3.09-1.54c-1.4-0.84-3.09-1.82-4.63-3.09c-1.68-1.26-3.51-3.09-5.05-4.49
		c-1.68-1.4-2.95-2.81-4.63-3.93c-1.54-1.12-3.09-2.1-4.91-2.81s-3.65-1.26-5.61-1.54c-0.84-0.14-1.68-0.14-2.67-0.14
		c-1.12,0-2.1,0-3.23,0.14c-1.96,0.14-3.65,0.42-5.75,1.12c-1.4,0.56-3.37,1.4-4.49,2.1c-2.1,1.26-3.65,2.81-5.61,4.21
		c-1.82,1.4-3.51,2.81-5.19,4.21c-1.96,1.4-3.51,2.81-5.75,4.07c-1.54,0.98-4.07,2.24-5.75,2.38c-1.4,0.14-2.52,0.28-3.51,0.28
		c-0.56,0-1.12,0-1.82-0.14c-1.68-0.14-3.09-0.42-4.91-0.98c-1.82-0.56-3.65-1.4-5.47-2.52c-1.82-1.12-3.65-2.67-5.33-4.49
		c-1.68-1.82-3.37-3.79-4.77-6.03c-1.26-2.24-2.52-5.19-3.09-7.72c-0.42-1.82-0.56-4.77-0.56-6.45c0-0.7,0-1.26,0-1.26
		L137.61,177.05h-0.14l0,0H137.61v-0.14V177.05h0.14l0,0h-0.28c0,0,0,0.42,0,1.26c0,1.68,0,4.63,0.56,6.45
		c0.7,2.67,1.82,5.61,3.23,7.86c1.26,2.24,3.09,4.35,4.77,6.17c1.68,1.82,3.51,3.37,5.33,4.49c1.82,1.12,3.65,1.96,5.47,2.52
		c1.82,0.56,3.23,0.84,4.91,0.98c0.7,0,1.26,0.14,1.82,0.14c0.98,0,1.96-0.14,3.51-0.28c1.82-0.28,4.35-1.54,5.89-2.52
		c2.24-1.26,3.93-2.67,5.75-4.07c1.68-1.26,3.37-2.81,5.19-4.21c1.96-1.4,3.51-2.95,5.61-4.21c1.12-0.7,3.09-1.68,4.49-2.1
		c2.1-0.7,3.79-0.84,5.75-1.12c0.98-0.14,2.1-0.14,3.09-0.14c0.84,0,1.68,0,2.52,0.14c1.82,0.28,3.79,0.84,5.47,1.54
		s3.23,1.68,4.91,2.81c1.54,1.12,2.95,2.52,4.63,3.93c1.54,1.4,3.51,3.23,5.19,4.49c1.68,1.26,3.23,2.24,4.77,3.09
		c1.4,0.84,1.82,1.12,3.23,1.54c1.26,0.42,2.67,0.7,4.49,0.84l0,0l0,0c3.09,0,11.22,0,20.62,0c18.94,0,43.2,0,43.2,0v-0.14h-0.14
		l0.28,9.54h0.14v-0.14c0,0-12.76,0-26.93,0c-17.25,0-36.47,0-37.45,0.14c-1.82,0.14-3.37,0.56-5.05,1.26
		c-1.68,0.56-3.51,1.4-5.05,2.38c-1.54,0.98-2.81,2.38-4.07,3.51c-1.26,1.12-2.38,2.24-3.79,3.37c-1.4,1.12-2.95,2.38-4.63,3.37
		c-1.82,1.12-3.79,2.1-5.89,2.81c-2.24,0.7-4.91,0.98-7.01,0.98l0,0c-0.14,0-0.28,0-0.42,0c-1.96,0-3.65-0.14-5.47-0.42
		c-1.82-0.42-3.51-0.84-5.33-1.68c-1.82-0.84-3.65-2.1-5.19-3.23c-1.54-1.12-2.67-2.1-3.93-3.09c-1.26-0.98-2.38-2.38-3.65-3.51l0,0
		l0,0c-1.26-0.98-2.95-2.24-4.77-3.37c-1.82-0.98-4.21-1.96-6.59-2.52v0.14v-0.14c-1.68-0.42-3.23-0.42-4.63-0.42
		c-0.56,0-1.12,0-1.68,0l0,0c-1.96,0-3.79,0.14-5.75,0.56c-1.96,0.42-3.93,1.12-5.47,1.96c-1.54,0.84-2.1,1.4-2.81,2.1
		s-1.82,2.24-1.82,2.24l0.14,0.14v-0.14l-117.27-0.42v0.14h0.14c0,0,0.14-0.42,0.42-0.84c0.28-0.56,0.56-1.12,1.12-1.68l-0.14-0.14
		l0.14,0.14c0.98-0.98,1.96-1.82,3.23-2.67c1.26-0.84,2.67-1.68,4.91-2.81l0,0c2.24-0.98,4.63-1.96,8.14-3.23
		c3.51-1.26,8.14-2.67,12.48-3.93c4.35-1.26,9.26-2.38,13.89-3.65c4.63-1.26,8.98-2.24,14.45-3.37c5.47-1.12,12.62-2.52,18.24-3.51
		c2.81-0.42,6.17-0.98,8.98-1.4s5.19-0.98,6.03-1.4c1.68-0.98,2.67-3.37,3.51-4.63c0.84-1.26,1.82-3.09,3.37-4.77
		c1.54-1.54,3.37-3.23,5.33-4.49c0.98-0.7,2.67-1.4,3.93-1.96c1.4-0.56,2.52-0.98,2.52-0.98h0.14v-0.14L137.61,177.05z
		 M194.28,195.98h-0.14v12.06h-6.31v0.14h0.14c0,0,0.14-0.84,0.14-1.82c0.14-0.98,0.28-2.24,0.56-3.09
		c0.28-1.12,0.84-2.38,1.54-3.37c0.56-0.98,1.4-1.82,2.24-2.67c0.28-0.28,0.84-0.56,1.26-0.84
		C194,196.26,194.42,196.12,194.28,195.98L194.28,195.98h-0.14l0,0H194.28h0.14l0,0v-0.28l-0.28,0.14c0,0-1.4,0.84-1.96,1.4
		c-0.84,0.84-1.68,1.68-2.24,2.67c-0.7,0.98-1.12,2.24-1.54,3.37c-0.42,1.68-0.84,4.91-0.84,4.91v0.14h6.87v-12.34H194.28z"/>
	<path id="XMLID_15_" class="st3" d="M337.08,192.76l19.22,18.1c1.54,1.26,3.93,2.38,5.47,1.68c1.12-0.7,1.96-2.1,1.68-3.93
		c-1.12-12.34-3.93-40.96-3.93-40.96l14.45,6.03l18.94-29.04l17.96,29.18l14.31-5.75c0,0-2.24,27.49-3.23,40.4
		c0.14,1.54,0.42,2.52,1.82,3.37c2.1,0.84,2.81,0,5.05-1.26c7.72-6.31,12.91-11.92,19.5-18.94l4.77,13.05l25.11-3.93l-1.68,27.49
		l8.56,3.65l-53.3,46.15l8.42,10.94l-43.06-3.51l-4.63,7.29l-4.21-6.87l-44.33,2.81l8.98-10.1l-54.01-47.27l9.4-2.67l-1.68-28.2
		l25.39,4.07L337.08,192.76z"/>
	<path id="XMLID_16_" class="st2" d="M27.21,225.58l35.91,1.26l29.32,2.1l25.95,2.95l17.81,2.67c0,0-0.14,2.52,0.28,4.21
		c0.42,1.68,1.12,4.21,2.1,6.03s2.52,3.65,3.93,5.19c1.54,1.54,2.81,2.52,4.91,4.21c2.24,1.54,5.33,3.51,8.28,5.19
		c2.95,1.54,6.17,2.81,9.54,4.35c3.37,1.54,7.29,3.23,10.38,4.63c3.09,1.4,4.77,1.82,8.42,3.65c3.79,1.82,9.82,5.05,13.89,7.43
		c4.07,2.38,7.29,4.49,10.66,6.87c3.37,2.38,6.03,4.35,9.68,7.43c3.65,2.95,7.86,6.87,11.92,10.66c4.21,3.93,8.7,7.86,12.91,12.48
		c4.35,4.77,8.84,10.52,12.62,15.85c3.79,5.33,7.57,11.36,10.38,16.13c2.81,4.77,4.91,9.26,6.45,12.48s2.95,7.15,2.95,7.15
		s3.37-4.91,5.47-8.28c2.1-3.37,5.33-7.43,7.57-11.5c2.38-4.07,5.89-8.7,8.98-12.62c3.09-3.93,6.87-8.42,9.68-11.92
		s5.05-6.17,7.43-8.98c2.52-2.81,6.45-6.87,6.45-6.87l-21.18-0.14c0,0,3.23-6.87,5.19-11.08c1.96-4.21,4.49-9.54,6.73-13.61
		c2.24-4.07,4.21-7.15,6.59-10.8c2.24-3.65,7.15-11.5,7.15-11.5l19.08,17.11l-13.61,16.69c0,0,6.87-0.42,12.34-0.56
		c5.47-0.28,13.05-0.84,18.24-1.12c3.51-0.28,13.05-1.4,13.05-1.4s-8.7,7.57-13.61,12.2c-4.91,4.63-11.92,10.66-15.85,15.43
		c-4.21,5.05-6.73,7.15-11.36,12.48c-4.63,5.33-11.08,13.05-16.13,19.5s-9.4,12.48-14.03,19.08c-4.63,6.45-8.98,13.05-13.47,20.06
		c-4.49,7.01-8.7,13.61-13.47,21.74c-4.77,8.14-15.01,27.07-15.01,27.07s-4.91-12.91-7.43-19.64c-2.52-6.73-4.77-13.61-7.72-20.34
		c-2.95-6.73-6.59-13.61-10.1-20.2c-3.37-6.59-7.01-13.47-10.38-19.5s-5.75-10.24-9.96-16.83s-10.24-15.99-15.15-22.72
		c-4.91-6.73-10.24-13.19-14.45-18.1c-4.21-4.91-6.73-7.72-10.66-11.5s-8.42-7.72-12.62-11.08s-8.56-6.45-12.76-9.12
		c-4.21-2.67-8.7-4.91-12.62-6.59c-3.93-1.68-7.15-2.38-10.1-3.37c-2.95-0.98-5.19-1.4-8.14-1.96c-2.95-0.7-7.15-1.54-11.64-2.38
		c-4.49-0.98-8.14-1.82-15.01-3.51c-6.87-1.82-17.67-4.63-24.41-6.73c-6.73-2.1-11.36-3.65-16.13-5.47
		c-4.77-1.68-8.98-3.51-12.2-4.91c-3.09-1.4-6.73-3.23-6.73-3.23s-4.07-2.52-5.05-3.65C27.77,227.12,27.21,225.58,27.21,225.58
		L27.21,225.58z"/>
	<polygon id="XMLID_17_" class="st1" points="406.79,310.17 406.79,301.33 403.43,301.33 403.43,299.51 412.41,299.51 
		412.41,301.33 409.04,301.33 409.04,310.17 	"/>
	<polygon id="XMLID_20_" class="st1" points="413.95,310.17 413.95,299.51 417.32,299.51 419.42,306.66 421.38,299.51 
		424.89,299.51 424.89,310.17 422.79,310.17 422.79,301.75 420.54,310.17 418.3,310.17 416.05,301.75 416.05,310.17 	"/>
</g>
</svg>
