<?xml version="1.0" encoding="utf-8"?>
<!-- Generator: Adobe Illustrator 27.0.0, SVG Export Plug-In . SVG Version: 6.00 Build 0)  -->
<svg version="1.1" id="Layer_1" xmlns="http://www.w3.org/2000/svg" xmlns:xlink="http://www.w3.org/1999/xlink" x="0px" y="0px"
	 viewBox="0 0 512 512" style="enable-background:new 0 0 512 512;" xml:space="preserve">
<style type="text/css">
	.st0{fill:#CE1F44;} /*red*/
	.st1{fill:#002D62;}
	.st2{fill:#FFFFFF;}
</style>
<g id="XMLID_1_">
	<rect id="XMLID_6_" y="17.97" class="st2" width="512" height="476.16"/>
	<path class="st1" d="M406.38,54.98c-37.74-30.28-71.97,7.61-71.97,29.11c37.74,8.05,71.53,45.79,56.32,143.95
		c-12.29,80.31-59.68,130.19-89.38,131.22c24.72-33.79,41.25-71.97,50.32-109.28c27.06-111.47-16.24-147.31-50.47-148.92
		c-41.69-2.19-83.38,54.56-95.09,121.56c-9.22,53.1-8.05,107.23,24.28,147.02c-28.53,35.99-97.13,47.1-85.14-39.64
		c10.09-72.56,46.23-152.72,66.12-192.07l0.59-1.02c10.68-21.94,19.16-37.6,22.82-43.74l-8.05-0.15
		c-77.97,1.32-140.14,19.31-168.96,58.95c-27.06,37.01-27.94,75.92-5.56,99.04l3.36,3.36c6.58,6.58,15.21,9.95,23.7,9.95l0,0
		c7.75,0,15.51-2.78,21.5-8.78c6-5.85,8.92-13.75,8.92-21.5c0-8.63-3.51-17.12-9.95-23.7c-3.51-3.51-7.46-6-11.7-7.75l0.15-0.29
		l2.05-4.1c5.27-9.22,14.48-17.55,26.33-23.55c9.36-4.68,20.33-7.9,32.33-9.07l-1.9,3.95c-16.53,30.72-40.67,89.09-48.42,119.52
		C74.9,384.27,113.37,440,154.92,447.76c50.03,9.36,88.5-14.92,108.84-46.23c24.14,15.36,88.21,24.14,136.34-61.44
		C455.09,241.2,457.14,95.65,406.38,54.98 M264.78,336.87c-9.51-23.11-13.75-50.32-13.75-76.21c0-31.16,6.29-60.27,16.97-77.24
		c7.02-11.26,15.51-16.68,25.01-15.95c3.36,0.15,7.17,1.32,9.95,7.9c2.19,5.27,3.22,12.29,3.22,20.48
		C306.18,236.37,281.75,305.86,264.78,336.87"/>
	<path class="st0" d="M400.68,62c-12.14-9.65-24.58-11.85-36.13-6.29c-9.8,4.68-17.12,13.9-19.89,21.94
		c23.26,7.9,58.81,32.04,58.81,106.2c0,13.6-1.17,28.67-3.8,45.64c-11.56,75.63-53.69,127.12-87.48,137.07
		c-9.95,2.93-19.02,2.05-26.33-1.9c33.35-41.11,49.44-85.28,57.05-116.74c5.85-24.43,8.34-44.47,8.34-60.85
		c0-29.26-7.46-46.96-15.36-57.64c-12-15.95-27.21-19.02-35.25-19.46c-35.4-1.76-74.61,50.61-85.58,114.25
		c-3.22,18.43-4.83,35.4-4.83,50.91c0,39.94,10.53,70.8,31.6,93.92c-15.65,24.43-47.4,41.25-72.56,35.4
		c-11.12-2.49-34.38-12.87-34.38-55.59c0-6,0.44-12.73,1.46-20.04c9.22-65.54,39.2-138.09,60.42-181.83l0.59-0.88
		c9.22-19.31,17.12-34.52,22.38-43.74h-1.46c-75.78,2.49-128.59,21.5-153.16,54.86c0,0-20.48,26.19-19.75,52.66
		c0.44,15.36,5.85,28.96,17.55,38.62l1.46,1.17c9.22,7.17,21.94,7.02,29.7-0.88c8.48-8.63,7.9-22.97-1.17-32.04
		c-4.68-4.68-10.83-7.17-16.82-7.31h0c5.41-30.43,40.37-53.83,82.65-53.83l5.56,0.15l-0.73,1.46l-8.78,16.38
		c-15.65,29.11-39.94,86.6-47.54,117.32c-12,48.13-8.48,90.26,9.8,118.78c10.09,15.8,24.14,26.04,39.35,28.96
		c33.5,6.29,57.93-4.39,72.56-14.34c12.14-8.34,24.14-21.5,32.48-35.25c9.95,6.44,26.77,13.46,40.96,13.17
		c23.99-0.29,58.95-12.29,89.53-66.85c25.45-45.49,40.81-103.72,41.84-159.89C434.91,121.83,422.47,79.56,400.68,62 M293.45,158.4
		c53.39,3.36-6.88,170.13-30.13,196.9C225.13,286.26,239.47,155.04,293.45,158.4"/>
</g>
</svg>
