<?xml version="1.0" encoding="utf-8"?>
<!-- Generator: Adobe Illustrator 24.3.0, SVG Export Plug-In . SVG Version: 6.00 Build 0)  -->
<svg version="1.1" id="Layer_1" xmlns="http://www.w3.org/2000/svg" xmlns:xlink="http://www.w3.org/1999/xlink" x="0px" y="0px"
	 viewBox="0 0 512 512" style="enable-background:new 0 0 512 512;" xml:space="preserve">
<style type="text/css">
	.st0{fill:#EFE4BC;}
	.st1{fill:#1D0B09;}
	.st2{fill:#B91134;}
	.st3{fill:#231F20;}
</style>
<g id="layer3" transform="translate(0,-5.4498)">
	<path id="path30" class="st0" d="M318.33,399.51l-42.82,59.04h184.37L371.82,64.35H249.05L-0.05,458.55h196.61l-28.17-59.18
		l60.75-101.86c1.56,6.26,4.69,18.64,5.26,20.63c-3.13,5.41-50.22,86.78-50.22,86.78s69.42-57.33,72.55-60.03
		c1.14,1.42,51.36,62.31,51.36,62.31s-23.62-78.81-25.32-84.22c1.28-1.99,9.1-14.37,14.08-22.48L318.33,399.51L318.33,399.51z
		 M231.27,293.81l38.7-64.87h11.52l14.08,64.87H231.27z"/>
	<path id="path34" class="st1" d="M121.01,310.46l77.11-48.37l-26.46-47.52l74.69-35.99l-24.04-42.39l57.33-25.61l-25.89-37.84
		L14.18,450.59l131.02-82.51L121.01,310.46z"/>
	<path id="path46" class="st2" d="M274.09,321.7c1.99-3.13,12.52-19.92,12.52-19.92h-48.23c0,0,3.7,14.23,4.55,17.36
		c-2.28,3.84-29.45,50.93-29.45,50.93s38.84-32.15,44.39-36.7c3.84,4.69,31.3,37.84,31.3,37.84S275.37,325.97,274.09,321.7"/>
	<path id="path50" class="st2" d="M439.68,443.05L358.73,79.85H267.4l22.48,34.57l-56.76,25.46l24.47,42.39l-74.55,35.71l24.9,46.24
		l-77.11,48.51l23.76,58.33l-115.66,71.7H169.1l-20.91-43.11l112.39-184.94h34.85l42.11,188.5l-29.31,39.69h131.45V443.05z"/>
	<path id="path54" class="st1" d="M449.92,450.73L365.56,71.74H262.14l5.26,8.11h91.33l80.95,363.19H308.23l29.31-39.69
		l-42.11-188.5h-34.85L148.19,399.8l21.05,43.11H38.93l-12.8,7.97h157.06l-24.75-51.21l106.55-177.83h23.19l40.26,179.68
		l-36.13,49.51L449.92,450.73L449.92,450.73z"/>
	<path id="path58" class="st3" d="M486.63,427.11v2.85h-7.97v20.77h-3.27v-20.77h-7.97v-2.85H486.63L486.63,427.11z"/>
	<path id="path70" class="st3" d="M489.47,427.11h4.55l6.69,19.92l6.69-19.92h4.55v23.62h-3.13v-13.94c0-0.43,0-1.28,0-2.42
		c0-1.14,0-2.28,0-3.56l-6.69,19.92H499l-6.83-19.92v0.71c0,0.57,0,1.42,0,2.56c0,1.14,0,2.13,0,2.56v13.94h-2.85v-23.62h0.14
		V427.11z"/>
</g>
</svg>
