<?xml version="1.0" encoding="utf-8"?>
<!-- Generator: Adobe Illustrator 24.3.0, SVG Export Plug-In . SVG Version: 6.00 Build 0)  -->
<svg version="1.1" id="Layer_1" xmlns="http://www.w3.org/2000/svg" xmlns:xlink="http://www.w3.org/1999/xlink" x="0px" y="0px"
	 viewBox="0 0 512 512" style="enable-background:new 0 0 512 512;" xml:space="preserve">
<style type="text/css">
	.st0{fill:#FFFFFF;}
	.st1{fill:#E03A3E;}
	.st2{fill:#005A9B;}
</style>
<g id="XMLID_1_">
	<g id="XMLID_2_">
		<path id="XMLID_13_" class="st0" d="M0.59,256C0.59,114.98,114.98,0.59,256,0.59S511.41,114.98,511.41,256
			S397.02,511.41,256,511.41S0.59,397.02,0.59,256z"/>
		<path class="st0" d="M0,256C0,114.69,114.69,0,256,0l0,0c141.46,0,256,114.69,256,256l0,0c0,141.46-114.54,256-256,256l0,0
			C114.69,512,0,397.46,0,256L0,256z M1.32,256c0,70.36,28.53,134,74.61,180.08l0,0C122,482.16,185.64,510.68,256,510.68l0,0
			c70.36,0,134-28.53,180.08-74.61l0,0C482.16,390,510.68,326.36,510.68,256l0,0c0-70.36-28.53-134-74.61-180.08l0,0
			C390,29.84,326.36,1.32,256,1.32l0,0c-70.36,0-134,28.53-180.08,74.61l0,0C29.84,122,1.32,185.64,1.32,256L1.32,256L1.32,256z"/>
	</g>
	<path id="XMLID_10_" class="st1" d="M266.53,297.11v-81.77h43.89c16.53,0,23.55,3.95,23.55,22.97c0,10.09-1.9,15.36-7.61,18.14
		c7.61,4.24,7.61,12.43,7.61,19.6c0,18.14-8.05,21.07-23.55,21.07C290.23,297.11,266.53,297.11,266.53,297.11z"/>
	<path class="st2" d="M17.7,256C17.7,124.34,124.49,17.7,256,17.7c131.66,0,238.3,106.79,238.3,238.3
		c0,131.66-106.79,238.3-238.3,238.3C124.34,494.3,17.7,387.66,17.7,256z M256,432.13c97.28,0,176.13-78.85,176.13-176.13
		S353.28,79.87,256,79.87S79.87,158.72,79.87,256C80.02,353.28,158.72,432.13,256,432.13z"/>
	<g id="XMLID_3_">
		<g id="XMLID_4_">
			<path id="XMLID_7_" class="st1" d="M333.53,305.74c-16.38,25.45-44.91,42.28-77.53,42.28c-50.91,0-92.16-41.25-92.16-92.16
				s41.25-92.16,92.16-92.16c33.5,0,62.9,17.99,78.99,44.76l45.35-44.18c-28.09-38.03-73.29-62.76-124.34-62.76
				c-85.28,0-154.33,69.19-154.33,154.33c0,85.28,69.19,154.33,154.33,154.33c50.47,0,95.23-24.14,123.47-61.59L333.53,305.74z"/>
		</g>
	</g>
	<path id="XMLID_6_" class="st1" d="M228.79,271.36v-56.03h27.65v56.61c0,20.33-4.83,25.16-20.92,25.16c-12,0-18.29,0-28.82,0
		c-13.31,0-17.55-8.63-17.55-26.62v-55.3h27.65v56.03C216.8,278.97,228.79,278.97,228.79,271.36"/>
	<path id="XMLID_5_" class="st0" d="M307.49,237.57c-0.15-3.36-3.22-3.07-11.85-3.07v11.41c4.83,0,11.85,0.44,11.85-3.8V237.57z"/>
	<path id="XMLID_14_" class="st0" d="M307.2,270.92c-1.46-3.95-2.34-3.36-11.56-3.36v11.41c6,0,11.56,0.44,11.56-3.8
		C307.2,273.99,307.49,271.65,307.2,270.92z"/>
	<g id="XMLID_15_">
		<g id="XMLID_16_">
			<path id="XMLID_17_" class="st1" d="M389.27,297.11c14.92,0,22.67-4.1,22.67-17.26c0-1.61-0.15-16.68-0.15-18.29
				c0.15-9.51-6.88-15.8-16.38-15.8c-9.65,0-16.82,0-19.89,0c-5.41,0-4.24-7.9-4.24-10.24c0-3.8,11.26-4.97,11.26,1.17
				c0,1.61,0,2.93,0,3.8h29.4c0-19.16-3.51-25.16-22.67-25.16c-4.39,0.15-20.77,0.15-25.89,0.15c-12.29,0-19.02,4.83-19.46,19.16
				c-0.44,14.34,0,8.19,0,13.31c0,5.27-0.88,16.97,15.21,16.97c8.63,0,18.43,0,20.33,0c5.71,0,4.53,6.73,4.53,6.73v4.24
				c0,4.83-9.65,4.97-11.85,1.02c-1.46-2.63-0.73-6.73-0.73-6.73h-27.65c0,5.71-3.07,27.06,13.6,27.06
				C372.59,297.11,389.27,297.11,389.27,297.11z"/>
		</g>
	</g>
	<g id="XMLID_18_">
		<g id="XMLID_19_">
			<path class="st2" d="M376.69,312.32H372v12.87h-3.36v-12.87h-4.68v-2.78h12.73V312.32L376.69,312.32z M398.19,325.19h-3.22
				v-12.43h-0.15l-4.53,12.43h-3.07l-4.39-12.43l0,0v12.43h-3.22v-15.65h5.56l3.66,10.24h0.15l3.8-10.24h5.56L398.19,325.19
				L398.19,325.19z"/>
		</g>
	</g>
</g>
</svg>
