<?xml version="1.0" encoding="utf-8"?>
<!-- Generator: Adobe Illustrator 24.3.0, SVG Export Plug-In . SVG Version: 6.00 Build 0)  -->
<svg version="1.1" id="Layer_1" xmlns="http://www.w3.org/2000/svg" xmlns:xlink="http://www.w3.org/1999/xlink" x="0px" y="0px"
	 viewBox="0 0 512 512" style="enable-background:new 0 0 512 512;" xml:space="preserve">
<style type="text/css">
	.st0{fill:#FFFFFF;}
	.st1{fill:#C4CDD3;}
	.st2{fill:#231F20;}
</style>
<g id="XMLID_1_">
	<path id="XMLID_8_" class="st0" d="M129.66,42.84c-13.22,14.08-26.02,41.95-27.87,61c-0.57,6.11-0.85,11.66-0.85,16.92
		c0,19.05,3.84,33.56,12.37,47.63c10.66,17.77,27.44,32.28,48.63,42.09c20.05,9.24,48.77,22.18,52.19,23.6
		c1.14,0.43,2.7,1.14,4.27,1.99c-6.54,4.83-10.52,7.54-13.65,9.95c-17.77-4.12-40.24-1-45.5,0.28
		c-21.19,4.98-40.67,14.5-54.74,26.87c-14.36,12.51-25.17,27.02-28.72,38.53c-4.12,12.94-2.7,22.04,3.84,27.3
		c9.81,7.68,22.47-0.14,26.59-2.7c8.53-5.4,24.17-15.21,43.94-18.2c17.21-2.56,40.24-0.28,50.91,6.68c0,6.26,0,13.65,0,18.77
		c-2.56,2.28-5.26,4.83-5.26,4.83c-2.7,2.7-4.12,6.26-4.12,10.1c0,1.71,0.28,3.55,1,5.26c1.85,4.83,5.83,6.83,5.83,6.83
		c34.13,20.76,34.13,20.76,57.16,34.84c-0.28,0.14-1,0.14-1.28,0.28c-2.99,1.28-10.1,5.69-10.1,18.06v50.05l29.72,28.44
		c6.54,6.54,12.94,7.68,17.21,7.39c5.26-0.28,9.95-2.84,13.22-7.11c0,0,19.76-25.45,32.14-41.09c9.1,14.08,23.46,36.26,23.46,36.26
		c-0.14-0.28,0.28,0.71,0.28,0.71c1.71,3.55,5.12,10.95,13.22,13.08c3.55,1,9.24,1,15.93-3.7c8.96-6.4,29.58-22.61,33.13-26.16
		l0.71-0.71c2.42-2.42,6.11-6.11,6.11-12.09v-47.92c0-5.12-2.7-11.66-9.1-14.22c-4.55-1.85-9.95-1.85-16.21,3.27
		c-2.84,2.28-7.54,5.83-14.65,11.09c-4.12-6.54-6.26-9.95-9.24-14.79c5.97-7.54,20.33-25.59,28.3-35.69c1,0.85,3.13,2.42,3.13,2.42
		l0.28,0.28c8.39,5.55,14.79,3.55,17.92,1.85c8.39-4.69,8.53-15.21,8.39-18.34v-40.1l-25.31-26.16c-3.7-4.12-8.82-6.26-14.08-5.83
		c-5.4,0.43-10.38,3.41-13.22,8.11c-1.42,1.99-13.37,17.06-25.88,32.56c0-11.52,0-45.79,0-52.47c1.56-1.56,3.13-3.13,3.13-3.13
		c2.28-1.99,7.39-8.25,7.39-15.78c0-1.71-0.28-3.55-1-5.4c-1.42-3.84-4.98-8.25-12.66-10.1c2.28-8.82,3.13-17.35,3.27-23.89
		c0-0.57,0-1.28,0-1.85c0-17.49-4.12-32.28-11.94-43.94c-9.53-13.79-16.78-18.49-27.02-24.88l-2.56-1.71
		c-11.8-7.54-73.94-40.1-76.5-41.52c-0.28-0.14-23.75-11.8-23.75-11.8c-15.5-7.82-16.64-13.37-16.64-16.35c0-0.14,0-0.43,0-0.57
		c0.28-1.85,4.55-8.39,13.51-8.39c9.1,0,15.5,0.28,27.44,4.27c19.05,6.4,19.48,14.08,19.48,16.92c0,0.71-0.57,8.67-0.57,8.67
		l39.53,27.02l59.15-76.07l-48.06-32.14l-6.4,6.4c-2.13,2.13-3.41,3.41-4.27,3.98c-1-0.14-3.41-0.57-3.41-0.57l-10.66-3.98
		c-16.35-6.83-44.22-18.06-69.68-18.06C173.03,0.04,149.71,21.22,129.66,42.84"/>
	<path class="st1" d="M135.49,48.52c-11.94,12.8-23.89,38.96-25.59,56.02c-0.57,5.69-0.85,11.09-0.85,15.93
		c0,17.49,3.55,30.71,11.09,43.37c9.81,16.21,25.31,29.72,44.93,38.82c20.9,9.67,48.91,22.18,51.9,23.46
		c5.69,2.28,14.36,7.11,16.64,9.53c-2.99,2.13-25.88,18.77-27.3,19.91c-15.07-4.83-38.82-2.13-45.5-0.57
		c-19.91,4.69-37.97,13.51-51.05,25.03c-13.08,11.38-23.04,24.74-26.31,34.7c-2.84,9.1-2.56,15.07,1,17.77
		c3.41,2.56,8.82,1.56,16.64-3.27c8.39-5.26,25.74-16.21,47.35-19.48c16.07-2.42,32.14-0.57,44.22,2.42c0,0,9.38,2.84,16.64,7.82
		c0,2.28,0,25.88,0,27.73c-1.28,1.14-7.82,7.11-7.82,7.11c-1.14,1.14-1.56,2.56-1.56,3.98c0,0.85,0.14,1.56,0.43,2.28
		c0.57,1.56,2.13,2.42,2.13,2.42l81.48,49.63c0,0,19.34-14.79,22.75-17.35c1.28,2.28,2.99,4.98,3.98,6.54
		c-1.71,2.13-22.61,27.73-25.17,30.86c-2.99-2.56-18.2-16.21-18.2-16.21c-4.55-4.12-8.11-3.55-9.81-2.84
		c-3.13,1.28-4.83,4.98-4.83,10.1v46.5l27.3,26.02c4.27,4.27,8.11,4.98,10.52,4.83c2.7-0.14,5.12-1.56,6.97-3.84
		c0,0,31.42-40.38,39.67-50.91c3.13,4.83,30.15,46.64,30.15,46.64l0.85,1.85c1.42,2.84,3.41,7.25,7.54,8.39
		c2.56,0.71,5.55-0.14,8.67-2.42c8.82-6.4,29.29-22.47,32.14-25.31l0.71-0.71c1.99-1.99,3.55-3.55,3.55-5.97v-47.92
		c0-2.28-1.28-5.12-3.7-6.11c-1.71-0.71-4.41-0.85-7.68,2.42c0.14-0.14-16.35,12.37-22.04,16.64c-2.13-3.41-16.21-25.88-17.63-28.15
		c1.85-2.28,35.12-44.22,37.68-47.35c2.56,1.99,9.67,7.54,9.67,7.54c3.55,2.42,6.54,2.84,8.96,1.56c4.27-2.42,3.98-9.53,3.98-10.38
		V320.4l-23.18-23.89c-1.85-2.13-4.27-3.13-6.83-2.99c-2.56,0.28-5.12,1.85-6.54,4.12c-1.28,1.99-19.05,24.32-31.71,39.96
		c-3.27-2.56-7.96-4.55-10.38-5.26c0-3.13,0-61,0-62.71c0.85-0.85,6.11-6.26,6.11-6.26c0.85-0.71,4.41-4.83,4.41-9.1
		c0-0.85-0.14-1.71-0.43-2.42c-1.28-3.55-5.55-5.4-12.23-5.4c-0.14,0-2.28,0.14-4.27,0.43c4.98-11.38,6.4-23.6,6.54-32.28
		c0-0.57,0-1.14,0-1.71c0-15.78-3.55-28.87-10.52-39.1c-8.53-12.37-14.5-16.21-24.46-22.61l-2.7-1.71
		c-11.52-7.39-73.37-39.81-76.07-41.24l-23.6-11.66c-18.63-9.38-21.61-17.63-21.61-24.46c0-0.28,0-0.57,0-0.85
		c0.14-5.69,8.25-16.49,22.18-16.49c9.67,0,17.06,0.28,30.29,4.69c17.21,5.83,25.59,14.08,25.59,25.59l-0.28,4.12l28.72,19.62
		l48.49-62.28L313.09,23.5l-1.28,1.28c-7.39,7.39-7.68,7.39-15.64,5.83c-2.13-0.43-6.54-2.28-12.23-4.55
		c-15.93-6.68-42.94-17.49-66.69-17.49C176.15,8.57,155.11,27.48,135.49,48.52 M208.29,259.82l30.86-22.32v-1.14
		c-0.43-5.26-15.07-12.09-20.33-14.22c-2.99-1.28-31.28-13.93-51.76-23.46c-18.77-8.67-33.7-21.47-42.94-36.97
		c-6.83-11.38-12.66-26.02-9.67-56.59c1.56-15.93,13.22-41.38,24.46-53.32c18.91-20.33,39.1-38.53,78.35-38.53
		c22.89,0,49.34,10.66,65.27,17.06c6.11,2.42,10.52,4.27,12.94,4.69c8.67,1.71,10.95,1.42,18.34-5.69
		c2.56,1.71,23.89,16.07,27.3,18.2c-2.7,3.55-40.53,52.04-42.94,55.03c-2.99-1.99-21.19-14.5-23.04-15.78
		c0-0.85,0.14-1.71,0.14-1.71c0-13.65-9.67-23.6-28.58-30c-13.79-4.69-21.9-4.98-31.71-4.98c-17.06,0-26.45,13.65-26.73,20.9
		c-0.43,11.8,6.97,20.9,24.03,29.58l23.6,11.66c0.57,0.28,64.27,33.7,75.65,40.95l2.7,1.71c9.81,6.26,15.21,9.67,23.18,21.33
		c6.68,9.81,9.95,22.61,9.67,38.11c-0.14,9.1-1.56,22.32-7.54,33.84l-1.99,3.7l11.94-1.14c4.27,0,7.25,0.85,7.82,2.42
		c0.71,1.99-1.71,5.69-2.7,6.54l-7.82,7.96l0.14,0.71v66.97l1.56,0.43c3.7,1,9.95,3.7,11.8,6.11l1.71,2.42l1.85-2.28
		c3.27-3.98,31.57-39.25,33.42-42.09c0.71-1.14,1.99-1.85,3.13-1.99c1.14-0.14,2.13,0.43,2.99,1.42c0,0,18.77,19.48,21.9,22.75
		c0,1.71,0,35.41,0,35.41c0,0.14,0,0.28,0,0.57c0,2.28-0.57,5.12-1.71,5.69c-0.71,0.43-2.28-0.14-3.98-1.28l-13.08-10.24
		l-42.37,53.46l22.04,35.12l26.16-19.76c1.56-1.56,2.56-1.85,2.99-1.71c0.57,0.28,1,1.28,1,1.99v47.92c0,0.57-1,1.56-2.28,2.7
		l-0.71,0.71c-2.56,2.56-22.32,18.06-31.57,24.88c-1.99,1.42-3.55,1.99-4.83,1.71c-1.99-0.57-3.55-3.55-4.55-5.83l-1.28-2.42
		l-33.56-52.04l-43.65,56.02c-0.71,0.85-1.85,1.99-3.7,1.99c-2.13,0.14-4.55-1.14-6.97-3.55c0,0-24.6-23.46-25.88-24.74
		c0-1.85,0-44.51,0-44.51c0-3.7,1.14-5.4,2.13-5.83c1.14-0.43,2.99,0.28,4.98,1.99l21.76,19.48l30.29-36.97l-8.25-13.65
		c0,0-22.04,16.92-24.32,18.63c-2.56-1.56-79.06-48.2-79.2-48.2c-0.14-0.14-0.14-0.43-0.14-0.71c0-0.28,0.14-0.57,0.14-0.71
		l9.1-8.39v-1v-31.28l-1-0.71c-6.11-3.98-11.09-6.83-20.05-9.1c-15.07-3.84-32.7-4.41-45.08-2.56
		c-22.61,3.55-40.53,14.65-49.2,20.05c-8.25,5.12-10.95,3.98-11.52,3.55c-1.28-1-1.85-4.98,0.57-12.8
		c2.84-9.1,12.66-21.9,24.88-32.7c12.51-10.95,30-19.48,49.2-24.03c7.54-1.85,31-4.12,44.22,0.71l1.14,0.43L208.29,259.82z"/>
	<path class="st2" d="M422.01,497h-3.41v9.38h-2.28V497h-3.41v-1.99h9.1 M437.51,506.39h-2.28v-8.96l0,0l-3.27,8.96h-2.42
		l-3.13-8.96l0,0v8.96h-2.28v-11.38h3.98l2.7,7.39l0,0l2.7-7.39h3.98L437.51,506.39L437.51,506.39z"/>
	<path class="st2" d="M421.72,358.22v-33.98l-21.33-19.05l-58.87,73.09l-8.25-13.22c7.11-5.4,16.49-12.23,17.49-12.8
		c1.71-0.85,5.97-3.41,8.11-3.41c1.99,0-2.99-8.53-17.06-8.53v-75.22l8.11-8.96c0,0-9.81,1.56-14.5,0.14
		c-1-0.28-2.56-1.14-4.69-2.13c2.7-4.27,4.98-8.96,6.83-14.5c9.67-30.43,3.27-58.58-19.62-75.93c-16.07-12.23-82.05-45.5-82.05-45.5
		s-39.96-19.62-44.22-23.89c-3.13-3.13-9.38-7.82-9.38-22.89c0-8.96,9.95-18.91,14.36-20.9c6.97-3.27,9.24-4.83,23.18-4.98
		c7.96-0.14,15.21,1.85,16.21,1.85c8.67,0.85,29.29,7.68,39.96,22.04c4.12,4.12,4.83,16.07,4.83,16.07l16.64,10.66l36.12-47.21
		l-19.48-13.37c-5.55,5.97-16.21,6.4-20.33,4.27c-4.27-2.13-40.81-15.36-45.93-17.06c-9.81-3.13-31-5.4-42.52-3.7
		c-11.52,1.71-30.29,5.12-45.08,20.76c-17.21,18.2-17.49,32.99-17.49,40.81c0,12.37,3.13,28.58,17.06,42.37
		c19.91,19.91,50.19,32.42,57.02,36.12c12.09,6.68,50.19,26.59,55.74,29.86c23.46,13.65,32.28,28.01,29.72,46.36
		c-0.14,0.85-0.43,1.71-0.57,2.56c-10.24-5.97-24.6-15.07-30.43-20.9c0,0-3.55,3.7-5.69,5.97l-16.92,12.66
		c1.99-8.25,2.28-22.32,1.85-23.75c-0.43-1.71-1.71-15.36-13.65-23.75c-8.11-5.83-26.16-16.64-41.66-24.17
		c-6.68-3.27-28.3-16.35-38.68-25.03c0,0-17.92-16.64-20.62-26.87c-5.26-11.66-5.55-39.39-2.7-42.09c0,0-6.83,7.68-11.52,22.89
		c-2.28,7.54-3.84,17.21-3.84,23.75c0,11.09,1.85,30.43,14.08,46.78c5.4,7.25,13.65,15.36,22.61,21.33
		c10.81,7.11,21.76,11.38,22.47,11.94c2.99,2.13,31,13.93,33.56,15.21c2.56,1.28,15.36,7.25,18.2,8.67
		c9.67,5.12,14.65,8.53,17.77,16.78l-29.15,21.76c0,0,1.28,2.28,1.28,5.97c0,0,0,1,0,2.7c-3.98-1.28-7.96-2.42-11.94-3.13
		c-19.05-3.27-30.71-2.99-45.93,0.71c-16.78,4.12-34.41,10.95-51.05,27.44c-18.77,18.77-18.49,31.28-18.49,31.28L109.89,313
		c15.64-8.82,36.26-14.08,50.76-14.08c34.7,0,52.75,10.1,57.73,15.64c0,17.49,0,32.99,0,33.7c0,6.68-1.99,7.54-3.55,8.82
		c-0.57,0.43-1,0.57-3.13,1.85c0,0,2.56,1,3.13,1.56c1.71,1.28,67.83,41.24,67.83,41.24l25.59-18.77l12.66,20.19l-35.12,43.65
		l-24.17-22.04v41.24l27.59,25.45l48.77-61.29l40.1,63.85l32.28-25.88v-40.81l-25.88,19.48l-26.02-41.52l47.49-59.72 M256.49,266.51
		l15.07-11.09c4.12,3.41,8.96,6.54,13.79,9.24c-0.28,0.28-0.57,0.43-0.57,0.43s-17.35,14.93-28.3,16.49V266.51L256.49,266.51z
		 M282.94,363.34l-26.45-16.21v-39.96c11.09-1.99,38.11-14.79,52.04-28.87c0.14,2.7,0.14,29.43,0.14,47.49l-16.21-25.74
		l-24.74,17.63v31.42l13.65-9.1l10.24,16.35L282.94,363.34z"/>
</g>
</svg>
