<?xml version="1.0" encoding="utf-8"?>
<!-- Generator: Adobe Illustrator 27.1.1, SVG Export Plug-In . SVG Version: 6.00 Build 0)  -->
<svg version="1.1" id="Layer_1" xmlns="http://www.w3.org/2000/svg" xmlns:xlink="http://www.w3.org/1999/xlink" x="0px" y="0px"
	 viewBox="0 0 512 512" style="enable-background:new 0 0 512 512;" xml:space="preserve">
<style type="text/css">
	.st0{fill:#00385D;}
	.st1{fill:#E50022;}
	.st2{fill:#FFFFFF;}
</style>
<g>
	<path class="st0" d="M228.78,447.14l48.09,24.56l27.22-11.48c15.86,5.37,32.85,8.28,50.53,8.28c86.92,0,157.37-70.4,157.37-157.23
		c0-45.23-19.11-86-49.71-114.68l1.62-35.61c0,0,0-16.02-11.76-19.22L167.86,40.3l-34.2,6.41c0,0-1.07,23.49,16.03,41.64L36.4,47.78
		L0.07,54.19c0,0-3.21,38.44,35.27,60.87c0,0-5.34,33.1,30.99,54.46c0,0-4.28,30.97,25.65,48.05c0,0-5.34,24.56,29.92,48.05
		l43.82,129.2l47.03,23.49l23.51-7.47L228.78,447.14z"/>
	<path class="st1" d="M249.09,387.34l-9.62,55.53l35.27,17.09l35.27-155.9l-59.85-24.56l-6.41,22.42l20.31,18.15l-5.34,28.83
		c0,0-2.14,7.47-10.69,8.54l-40.61,8.54l-32.06-90.76l59.85-88.63l87.64,34.17l1.07-30.97c0,0,2.14-8.54-8.55-12.81l-94.05-34.17
		l-89.78,124.93l41.68,120.66l39.54,20.29L249.09,387.34z"/>
	<polygon class="st2" points="336.19,291.77 316.95,297.11 259.24,272.55 276.34,267.21 	"/>
	<polygon class="st2" points="209.01,271.48 185.49,278.96 214.35,355.84 235.73,350.5 	"/>
	<polygon class="st2" points="353.29,113.45 336.19,118.79 150.23,51.52 169.46,47.24 	"/>
	<path class="st2" d="M366.11,117.72l-17.1,4.27l80.16,29.9c0,0,4.28,0,8.55,6.41l16.57-5.87c0,0,0-4.27-12.83-7.47L366.11,117.72z"
		/>
	<path class="st2" d="M329.78,124.13l-16.03,22.42l-99.39-35.24c0,0-13.89-11.75-14.96-34.17L329.78,124.13z"/>
	<path class="st2" d="M191.91,73.94c0,0,1.07,18.15,8.55,32.03L169.46,95.3c0,0-24.58-18.15-26.72-38.44L191.91,73.94z"/>
	<path class="st2" d="M330.85,176.45c0,0-3.21-6.41-16.03-9.61l-81.23-29.9l18.17-5.34l88.71,32.03c0,0,7.48,2.14,8.55,6.41
		L330.85,176.45z"/>
	<polygon class="st2" points="237.86,127.33 218.63,132.67 16.63,60.06 39.07,55.79 	"/>
	<path class="st2" d="M213.28,138.01l-24.58,33.1l-70.54-27.76c0,0-47.03-14.95-47.03-55.53L213.28,138.01z"/>
	<path class="st2" d="M62.59,84.62L8.08,64.33c0,0-2.14,38.44,71.61,64.07C79.69,128.4,65.26,115.05,62.59,84.62"/>
	<path class="st2" d="M184.43,178.58l-18.17,24.56l-35.27-12.81c0,0-35.27-13.88-36.34-46.98L184.43,178.58z"/>
	<path class="st2" d="M86.1,140.14c0,0-2.14,17.09,12.83,36.31c0,0-52.37-11.75-56.64-56.59C42.28,119.85,72.74,135.34,86.1,140.14"
		/>
	<path class="st2" d="M160.91,210.62l-16.03,21.36c0,0-26.72-11.75-28.86-40.58L160.91,210.62z"/>
	<path class="st2" d="M109.08,189.8c0,0-3.21,14.95,12.83,34.17c0,0-45.96-12.81-48.09-49.12L109.08,189.8z"/>
	<path class="st2" d="M125.64,258.67l14.96-18.15c0,0-30.99-12.81-40.61-18.15C99.99,222.36,100.53,246.39,125.64,258.67"/>
	<path class="st1" d="M432.38,174.31c2.14-11.75-6.41-14.95-6.41-14.95l-88.71-33.1l-15.5,22.96l17.1,5.34
		c0,0,47.03-5.34,90.84,18.15L432.38,174.31z"/>
	<path class="st2" d="M352.22,163.29c-0.69-0.4,1.6-0.02,2.41-0.02c81.8,0,148.12,66.26,148.12,147.99
		c0,81.73-66.32,147.99-148.12,147.99c-16.05,0-31.5-2.55-45.97-7.27l39.82-163.95l-71.61-28.83l-34.2,10.68l-8.55,34.17
		l20.31,19.22l-3.21,20.29c0,0-1.07,5.34-7.48,5.34l-27.79-81.15l41.68-63l68.4,27.76l30.99-11.75l2.14-46.98
		C359.17,173.78,358.1,166.68,352.22,163.29"/>
	<path class="st1" d="M468.18,384.14c4.28,2.14,1.07,10.68,1.07,10.68h2.14c3.21-3.2,1.07-10.68,1.07-10.68
		c2.14,0,10.69-11.75,10.69-11.75h-4.28C476.73,377.73,468.18,384.14,468.18,384.14"/>
	<path class="st1" d="M469.78,372.93h-3.21c0,0-2.14,8.54-8.55,11.75c0,0,4.81,4.8,1.6,11.21l2.67,0.53c0,0,3.21-10.68-1.07-11.75
		C461.23,384.67,468.72,380.4,469.78,372.93"/>
	<path class="st1" d="M453.81,373.73c0,0-1.93,9.63-7.71,13.49c0,0,6.75,4.82,3.37,11.08l2.89-0.96c0,0,0.72-9.39-2.65-10.35
		c0,0,6.75-7.22,7.23-13L453.81,373.73z"/>
	<path class="st1" d="M443.21,377.1h-3.37c-0.48,8.67-5.3,13.97-5.3,13.97c4.34,1.45,5.3,10.6,5.3,10.6h2.41
		c1.45-4.82-4.34-11.08-4.34-11.08C439.83,389.14,443.21,377.1,443.21,377.1"/>
	<path class="st1" d="M425.86,395.88c0,0,5.79-12.52,3.37-14.45l-3.37,0.96c0,0-0.48,12.52-3.86,14.93c0,0,10.12,5.3,7.23,9.63
		l3.37-1.44C432.6,405.52,431.4,399.98,425.86,395.88"/>
	<path class="st1" d="M413.08,402.87c0,0,4.82-10.6,3.13-15.65l-3.86,1.93c0,0-0.48,13-2.89,14.93c0,0,10.12,3.85,9.16,8.67
		l2.65-1.2C421.28,411.54,419.35,404.31,413.08,402.87"/>
	<path class="st1" d="M401.03,409.13c0,0,4.82-10.6,3.13-15.65l-3.86,1.93c0,0-0.48,13-2.89,14.93c0,0,10.12,3.85,9.16,8.67
		l2.65-1.2C409.23,417.8,407.3,410.57,401.03,409.13"/>
	<path class="st1" d="M389.7,415.15c1.93-3.85,0.48-14.45,0.48-14.45l-3.86,1.93c2.41,5.3-0.96,13.97-0.96,13.97
		c4.1,1.2,10.85,7.95,10.85,7.95l3.62-1.69C398.38,418.52,389.7,415.15,389.7,415.15"/>
	<path class="st1" d="M377.41,420.21c0,0,0.96-12.52-0.48-13l-3.13,1.69c0,0,2.41,6.26-0.48,13c0,0,10.12,3.37,12.05,8.67l2.41-1.44
		C387.77,429.12,382.23,421.17,377.41,420.21"/>
	<path class="st1" d="M364.88,426.47c0,0,2.41-11.56,0-14.45l-3.13,1.69c0,0,2.89,10.11-0.96,13.97c0,0,9.64,2.41,12.53,8.19
		l3.62-1.69C376.93,434.17,370.18,425.98,364.88,426.47"/>
	<path class="st1" d="M354.75,430.8c0,0,0.96-12.52-0.48-13l-3.13,1.69c0,0,2.41,6.26-0.48,13c0,0,10.12,3.37,12.05,8.67l2.41-1.44
		C365.12,439.71,359.58,431.76,354.75,430.8"/>
	<path class="st1" d="M343.43,435.86c1.93-4.82-1.45-13.97-1.45-13.97l-2.89,1.93c3.37,1.93,0.96,13,0.96,13
		c3.37,0.96,11.57,8.19,11.57,8.19l2.89-0.96C353.07,438.75,343.43,435.86,343.43,435.86"/>
	<path class="st1" d="M332.82,438.75c0.48-3.85-0.96-13.49-0.96-13.49l-3.37,1.93c2.89,1.44,1.45,12.52,1.45,12.52
		c2.89,0.48,11.09,7.71,11.09,7.71l2.41-0.96C341.02,442.6,332.82,438.75,332.82,438.75"/>
	<path class="st1" d="M322.22,441.16c1.93-2.89-0.96-13-0.96-13l-3.37,1.93c3.37,2.89,0.96,12.04,0.96,12.04
		c3.37,0,11.09,7.71,11.09,7.71l2.89-0.96C330.89,444.53,322.22,441.16,322.22,441.16"/>
	<path class="st1" d="M479.36,248.51c0,0-0.48,13,1.93,15.41l2.41-1.44c0,0-3.13-9.39-2.41-16.86c0,0-5.3,0.48-8.19-4.82l-1.93,1.93
		C471.17,242.73,474.54,249.96,479.36,248.51"/>
	<path class="st1" d="M472.61,258.63c0,0-1.45,13.49-0.48,15.41l2.89-1.93c0,0-0.72-12.28,0-16.86c0,0-7.71-0.48-9.64-6.26
		l-1.93,2.41C463.46,251.4,469.72,258.14,472.61,258.63"/>
	<path class="st1" d="M462.97,266.33c0,0-3.37,11.08-1.45,14.45l3.37-1.44c0,0-1.21-7.47,1.45-15.41c0,0-8.19-2.41-10.12-8.67
		l-2.89,1.93C453.33,257.18,459.12,264.89,462.97,266.33"/>
	<path class="st1" d="M448.51,285.11l3.37-0.48c-0.96-5.78,3.86-15.41,3.86-15.41c-8.44-1.2-10.12-10.6-10.12-10.6l-3.86,1.44
		c0.48,6.26,9.64,11.08,9.64,11.08C448.99,276.45,448.51,285.11,448.51,285.11"/>
	<path class="st1" d="M433.33,261.03h-4.58c-0.48,7.22,9.16,13,9.16,13c-4.82,2.41-4.82,13-4.82,13h4.34
		c-0.96-5.3,5.78-14.45,5.78-14.45C434.77,271.87,433.33,261.03,433.33,261.03"/>
	<path class="st1" d="M416.21,287.52h4.82c-0.48-5.3,7.23-13,7.23-13c-6.51-3.61-8.68-13.49-8.68-13.49h-2.89
		c-2.41,3.37,7.23,13.49,7.23,13.49C420.55,275.96,416.21,287.52,416.21,287.52"/>
	<path class="st1" d="M400.55,286.32h4.34c0,0,3.86-9.63,8.44-11.8c0,0-7.23-6.74-6.75-14.93l-4.82-0.96c0,0,2.41,12.04,6.27,15.41
		C408.02,274.04,400.07,281.98,400.55,286.32"/>
	<path class="st1" d="M382.95,283.67l4.82,0.48c0,0,2.65-9.39,10.12-11.56c0,0-7.23-9.63-5.79-15.89l-4.82-0.96
		c0,0,2.41,13.49,5.3,15.89C392.59,271.63,383.92,278.85,382.95,283.67"/>
	<path class="st1" d="M381.99,269.7c0,0-7.23-7.71-5.3-17.34l-5.3-1.44c0,0,1.45,15.41,5.3,17.34c0,0-9.64,6.26-10.12,11.56
		l4.58,0.72C371.14,280.54,374.04,272.35,381.99,269.7"/>
	<path class="st1" d="M351.14,274.04l4.34,1.44c0,0,6.03-9.39,10.6-9.63c0,0-5.78-11.56-4.34-18.3l-4.34-0.96
		c0,0,0.48,12.52,3.86,16.86C361.26,263.44,353.07,268.26,351.14,274.04"/>
	<path class="st1" d="M335.71,268.74l4.58,1.69c0,0,5.3-9.15,11.33-9.87c0,0-4.82-8.67-3.86-17.82l-3.86-1.44
		c0,0-0.48,13.97,2.41,16.86C346.32,258.14,338.61,262.48,335.71,268.74"/>
	<path class="st1" d="M320.77,263.44l3.86,1.93c0,0,5.06-9.39,11.57-10.6c0,0-4.82-11.08-2.89-16.86l-4.34-1.44
		c0,0,0.96,14.45,2.89,16.37C331.86,252.85,322.7,257.66,320.77,263.44"/>
	<path class="st1" d="M318.84,233.58l-4.34-0.96c0,0,0,13,2.41,15.41c0,0-8.68,4.82-10.6,11.08l3.86,0.96c0,0,4.58-9.39,11.57-10.11
		C321.74,249.96,316.92,236.47,318.84,233.58"/>
	<path class="st1" d="M304.38,229.73l-4.34-0.48c0,0-1.45,11.08,1.93,14.45c0,0-10.12,7.71-10.12,12.04l4.1,0.72
		c0,0,5.3-10.6,11.33-11.32C307.27,245.14,302.45,238.4,304.38,229.73"/>
	<path class="st1" d="M290.4,226.84h-4.82c0,0-1.45,11.08,1.93,13.49c0,0-10.12,7.22-11.57,12.52l4.34,0.48
		c0,0,6.51-9.87,12.05-11.56C292.33,241.77,287.99,230.69,290.4,226.84"/>
	<path class="st1" d="M276.91,226.36l-4.34-0.48c0,0-1.45,10.11,0.96,13c0,0-8.68,6.74-10.6,13l3.62,0.24c0,0,5.3-11.08,11.33-12.28
		C277.87,239.84,273.53,231.66,276.91,226.36"/>
	<path class="st1" d="M264.37,225.88h-3.86c0,0-1.93,10.6,0,13.49c0,0-8.2,6.26-9.16,11.56h3.13c0,0,4.34-9.39,9.88-11.56
		C264.37,239.36,261,230.69,264.37,225.88"/>
	<path class="st1" d="M252.8,227.32h-3.86c0,0-1.93,10.11,0.48,13c0,0-6.75,6.26-8.19,11.56h3.13c0,0,3.86-9.39,8.44-12.04
		C252.8,239.84,248.95,232.14,252.8,227.32"/>
</g>
</svg>
