<?xml version="1.0" encoding="utf-8"?>
<!-- Generator: Adobe Illustrator 24.3.0, SVG Export Plug-In . SVG Version: 6.00 Build 0)  -->
<svg version="1.1" id="Layer_1" xmlns="http://www.w3.org/2000/svg" xmlns:xlink="http://www.w3.org/1999/xlink" x="0px" y="0px"
	 viewBox="0 0 512 512" style="enable-background:new 0 0 512 512;" xml:space="preserve">
<style type="text/css">
	.st0{fill:#021540;}
</style>
<path class="st0" d="M374.5,91.8c-19.62-12.23-49.34-12.65-70.8-2.42v75.07c24.45-11.66,48.2-11.66,70.8,2.42V91.8 M303.69,286.02
	c24.45,11.66,48.2,11.66,70.8-2.42v-80.61c-22.61-14.08-46.35-14.08-70.8-2.42V286.02z M303.69,422.08l28.15,13.36
	c12.23-7.39,30.57-15.92,42.8-19.48v-95.26c-22.61,14.08-46.35,14.08-70.8,2.42v98.95H303.69z M236.59,109.01v296.72l23.17,3.7V82.7
	C248.67,83.84,236.59,91.24,236.59,109.01z M118.15,9.48H352.6c57.44,0,96.4,39.1,96.4,92.84c0,51.33-14.64,253.93,4.83,338.24
	c-53.74-3.7-107.49,20.76-144.02,67.11c-37.82-20.76-62.27-23.17-104.93-23.17c-34.12,0-83.03,10.95-120.85,25.59
	c-14.36,5.54-9.81-1.85-1.28-14.08c22.04-31.42,65.97-70.24,112.32-88.58V92.51c-17.06,17.06-24.45,35.4-24.45,69.67V349
	c0,32.98-12.23,56.16-30.57,72.08s-41.52,20.76-53.74,23.17c-12.23,2.42-17.06,0-7.39-12.23c9.81-12.23,19.48-22.04,19.48-65.97
	v-89.14c-9.81,3.7-21.61,13.65-28.15,23.17c-6.4,9.53-12.23,6.82-12.23-3.7c0-29.29,18.34-57.44,40.24-68.39v-22.04
	c-9.81,3.7-20.76,13.36-28.15,23.17c-6.82,9.1-12.23,7.25-12.23-3.7c0-29.29,18.34-57.44,40.24-68.39
	c0-45.21,18.34-60.99,47.63-76.92c-42.08-7.25-80.05-56.16-84.31-80.19C75.36,7.07,99.81,9.34,118.15,9.48z"/>
</svg>
