<?xml version="1.0" encoding="utf-8"?>
<!-- Generator: Adobe Illustrator 27.0.0, SVG Export Plug-In . SVG Version: 6.00 Build 0)  -->
<svg version="1.1" id="Layer_1" xmlns="http://www.w3.org/2000/svg" xmlns:xlink="http://www.w3.org/1999/xlink" x="0px" y="0px"
	 viewBox="0 0 512 512" style="enable-background:new 0 0 512 512;" xml:space="preserve">
<style type="text/css">
	.st0{fill:#FFFFFF;}
	.st1{fill:#003263;}
	.st2{fill:#CD1141;}
	.st3{fill:#8F0028;}
	.st4{fill:#C4CDD3;}
</style>
<g id="XMLID_1_">
	<path class="st0" d="M276.2,512h145.92c-13.51-9.1-25.32-25.17-30.72-43.52l-40.68-139.95c-4.41-15.08,2.7-30.15,14.22-40.39
		c-16.21-4.98-30.72-16.36-35.27-31.86l-22.9-78.36c32.43-10.81,53.62-30.15,53.62-52.48c0-29.16-36.12-53.05-86.47-60.02L254.86,0
		h-21.33l-19.06,65.56C164.12,72.39,128,96.28,128,125.44c0,22.33,21.19,41.67,53.76,52.48l-22.9,78.36
		c-4.55,15.64-19.06,26.88-35.27,31.86c11.38,10.24,18.63,25.32,14.22,40.39L97,468.48c-5.4,18.35-17.21,34.42-30.58,43.52h145.92
		c-11.95-9.1-18.49-25.17-13.08-43.52l3.56-12.23h83.06l3.56,12.23C294.68,486.83,288.14,502.9,276.2,512 M231.68,357.12
		l12.66-43.24l12.52,43.24H231.68z"/>
	<path class="st1" d="M397.65,502.04c-6.97-9.1-12.52-19.63-15.79-30.72l-40.53-139.09c-6.4-22.04,5.4-37.69,6.97-40.25
		c-14.08-7.68-24.46-19.2-28.3-33l-24.6-84.62c34.84-9.24,58.45-27.73,58.45-48.92c0-26.88-38.12-49.35-88.6-54.33L247.47,9.96h-6.4
		l-17.78,61.16c-50.49,4.98-88.6,27.45-88.6,54.33c0,21.33,23.75,39.68,58.45,48.92l-24.6,84.62c-3.98,13.65-14.22,25.32-28.3,33
		c1.56,2.56,13.51,18.2,6.97,40.25l-40.53,139.09c-3.27,11.09-8.82,21.76-15.79,30.72h100.98c-8.11-18.06-3.84-31.15-0.28-43.52
		l3.56-12.23h97.99l3.56,12.23c3.56,12.37,7.82,25.46-0.28,43.52 M218.31,367.08l26.03-88.89l25.88,88.89H218.31z"/>
	<path id="XMLID_10_" class="st2" d="M271.08,147.2L271.08,147.2l-12.94-44.66l0,0l2.56,8.96c-5.26-0.28-10.81-0.43-16.36-0.43
		v29.01l77.8,266.67l17.92,61.16l30.72,18.35c-2.13-4.69-4.12-9.53-5.55-14.36l-38.68-132.55c-6.12-20.76-2.7-29.72,1.71-42.24
		c-11.66-8.96-19.34-20.48-23.18-33.71l-29.44-100.98l0,0"/>
	<path id="XMLID_9_" class="st2" d="M253.44,86.33l-9.1-31.29v31C247.32,86.04,250.45,86.19,253.44,86.33"/>
	<path id="XMLID_8_" class="st2" d="M148.05,469.62l24.89,16.78c-1.28-8.39,0-19.34,2.28-27.16l8.25-28.59l-17.07-23.89"/>
	<polyline id="XMLID_7_" class="st2" points="197.4,382.86 244.34,222.15 244.34,139.95 166.4,406.76 322.13,406.76 290.99,382.86 	
		"/>
	<polyline id="XMLID_6_" class="st3" points="244.34,222.15 290.99,382.86 322.13,406.76 244.34,139.95 	"/>
	<path id="XMLID_5_" class="st3" d="M370.77,486.4l-30.86-18.49l-17.92-61.16H166.4l77.94-266.81v-29.01
		c5.55,0,11.09,0.14,16.36,0.43l-2.56-8.96c-0.71,0-1.42,0-2.13-0.14c-3.84-0.14-7.68-0.28-11.8-0.28c-4.69,0-9.39,0.14-13.94,0.43
		l-13.08,44.66l0,0l-4.41,15.36l0,0L183.32,263.4c-3.84,13.08-11.38,24.75-23.18,33.71c4.41,12.52,7.82,21.48,1.71,42.24
		l-38.83,132.55c-1.42,4.98-3.27,9.67-5.55,14.36h55.18l-24.89-16.78l18.63-62.72l17.07,23.89h121.46l8.39,28.59
		c2.28,7.82,3.56,18.77,2.28,27.16"/>
	<path id="XMLID_4_" class="st3" d="M244.34,55.04l-9.1,31.29c2.99-0.14,5.97-0.14,9.1-0.14"/>
	<path id="XMLID_3_" class="st4" d="M217.32,147.2L217.32,147.2c-28.16-3.41-48.21-11.95-48.21-21.76c0-11.38,26.31-20.91,61.3-22.9
		c4.55-0.28,9.1-0.43,13.94-0.43c3.98,0,7.96,0.14,11.8,0.28c0.71,0,1.42,0,2.13,0.14l0,0c34.84,1.99,61.3,11.52,61.3,22.9
		c0,9.96-20.05,18.35-48.21,21.76l0,0l4.41,15.36l0,0c36.27-5.4,62.29-19.91,62.29-37.12c0-20.48-37.12-37.26-84.62-39.25
		c-2.99-0.14-5.97-0.14-9.1-0.14c-3.13,0-6.12,0.14-9.1,0.14c-47.5,1.99-84.62,18.77-84.62,39.25c0,17.21,26.03,31.72,62.29,37.12
		l0,0"/>
	<path class="st1" d="M426.1,489.67h-4.27v11.8h-2.99v-11.8h-4.27v-2.56h11.52 M445.58,501.48h-2.99V490.1l0,0l-4.12,11.38h-2.84
		l-3.98-11.38l0,0v11.38h-2.99v-14.36h4.98l3.27,9.39h0.14l3.41-9.39h4.98L445.58,501.48L445.58,501.48z"/>
</g>
</svg>
