<?xml version="1.0" encoding="utf-8"?>
<!-- Generator: Adobe Illustrator 26.5.0, SVG Export Plug-In . SVG Version: 6.00 Build 0)  -->
<svg version="1.1" id="Layer_1" xmlns="http://www.w3.org/2000/svg" xmlns:xlink="http://www.w3.org/1999/xlink" x="0px" y="0px"
	 viewBox="0 0 512 512" style="enable-background:new 0 0 512 512;" xml:space="preserve">
<style type="text/css">
	.st0{fill:#FFFFFF;}
	.st1{fill:#D50032;}
	.st2{fill:#002D72;}
</style>
<g id="XMLID_1_">
	<path id="XMLID_3_" class="st0" d="M41.8,379C18.66,379,0,360.34,0,337.2V145.72c0-23.15,18.66-41.8,41.8-41.8h428.4
		c23.15,0,41.8,18.66,41.8,41.8v191.61c0,23.15-18.66,41.8-41.8,41.8H41.8V379z"/>
	<path id="XMLID_4_" class="st1" d="M489.98,125.95c-5.19-5.19-12.34-8.14-19.64-8.14H350.54l68.87,115.02l6.31,0.84l3.65,5.19v5.05
		l4.49,0.84l3.93,5.47V255l4.49,0.84l4.49,5.05v10.8c0,0,9.68,8.98,18.38,12.34c6.03,2.38,6.87,12.06,10.24,17.39
		c4.77,7.29,11.08,10.52,9.68,14.73c-3.09,11.22-14.73,30.16-25.39,31.28c0,0-26.79,0-42.5,0v18.24h53.16
		c15.43,0,27.91-12.48,27.91-27.91V145.72C498.11,138.29,495.17,131.14,489.98,125.95z"/>
	<path id="XMLID_7_" class="st2" d="M309.58,117.81H41.8c-7.43,0-14.45,2.95-19.64,8.14c-5.19,5.19-8.14,12.34-8.14,19.64V337.2
		c0,7.43,2.95,14.45,8.14,19.78c5.19,5.19,12.34,8.14,19.64,8.14h173.94c-4.35-7.29-9.26-15.57-10.8-18.1h-20.76
		c0-51.48,17.53-80.1,38.29-85.57c2.95-0.56,1.54-14.73-2.1-18.94c0,0-9.96,0.28-12.06-0.28c-2.67-0.84-0.84-3.37-0.84-3.37
		l9.68-21.04l-1.26-5.75h-35.91c-0.56,0,29.6-20.76,29.6-20.76c1.54-54.57,57.51-58.77,91.32-36.33
		c19.92,13.33,21.6,39.56,19.92,57.93c-0.28,0.98-5.19,0.28-5.19,0.28s-3.37,19.92,5.47,19.92h39.42
		c15.99-0.56,31.56,10.24,31.56,10.24l3.93-13.61L309.58,117.81z M71.54,325.7c-10.52,0.14-19.22-8.28-19.36-18.8
		c-0.14-10.52,8.28-19.22,18.8-19.36h0.56c10.52,0.14,19.08,8.84,18.8,19.36C90.2,317.14,81.92,325.56,71.54,325.7z"/>
	<path id="XMLID_10_" class="st0" d="M490.54,396.25h-4.35v11.92h-2.95v-11.92h-4.35v-2.52h11.64L490.54,396.25L490.54,396.25z
		 M510.32,408.04h-2.95v-11.5l0,0l-4.21,11.5h-2.81l-4.07-11.5l0,0v11.5h-2.95v-14.45h5.05l3.37,9.4l0,0l3.51-9.4h5.05V408.04
		L510.32,408.04z"/>
</g>
</svg>
