<?xml version="1.0" encoding="utf-8"?>
<!-- Generator: Adobe Illustrator 26.5.0, SVG Export Plug-In . SVG Version: 6.00 Build 0)  -->
<svg version="1.1" id="Layer_1" xmlns="http://www.w3.org/2000/svg" xmlns:xlink="http://www.w3.org/1999/xlink" x="0px" y="0px"
	 viewBox="0 0 512 512" style="enable-background:new 0 0 512 512;" xml:space="preserve">
<style type="text/css">
	.st0{fill:#103B34;}
	.st1{fill:#FFFFFF;}
</style>
<g id="XMLID_2_">
	<rect id="XMLID_4_" y="40.54" class="st0" width="512" height="430.92"/>
	<path id="XMLID_5_" class="st1" d="M429.66,153.32c-33.1,0-51.62,23.15-53.16,46.01c-1.68,25.25,26.65,36.61,47.83,42.22
		c11.36,2.67,29.32,8.7,28.48,20.9c-0.28,5.33-3.09,12.06-20.9,12.06c-12.91,0-29.32-10.38-42.5-20.2
		c-3.93,6.45-11.5,15.01-15.15,21.04c8.56,8.56,28.34,26.93,59.48,27.91c0.98,0,1.96,0,2.81,0c25.25,0,50.08-20.62,50.08-46.57
		c0-18.38-19.36-38.86-44.19-42.64c-10.24-1.54-33.95-6.87-33.39-18.52c0.56-10.94,8.84-15.15,20.76-15.15h0.7
		c9.54,0.14,18.8,2.52,29.46,14.03l17.25-17.81C464.31,159.77,444.25,153.32,429.66,153.32"/>
	<polyline id="XMLID_6_" class="st1" points="343.81,150.65 315.76,150.65 315.76,178.71 325.58,178.71 317.44,201.57 326,201.57 
		342.97,178.71 343.81,178.71 343.81,150.65 	"/>
	<path id="XMLID_9_" class="st1" d="M405.11,342.55c-4.91-1.96-7.15,1.26-14.31,8.56c-7.15,7.29-24.13,23.85-39.84,24.13
		c-15.71,0.14-21.18-21.18-32.82-56.67s-69.58-206.62-69.58-206.62s-15.15-49.1-61.16-46.01c-36.33,2.38-54.57,25.53-65.09,65.23
		c0,0,22.58-31.42,47.97-23.85c18.8,5.61,26.51,21.04,23.15,35.07c-3.37,14.59-9.4,28.9-9.4,28.9s-24.41-24.69-53.16-6.03
		c-19.5,12.62-19.78,39.84-19.78,39.84s23.29-15.01,42.08-1.54c18.8,13.47,8.28,35.77,2.81,51.06c-5.47,15.29-41.1,121.2-41.1,121.2
		s-30.44-0.28-49.24,12.2c-18.94,12.48-32.26,25.53-39.7,55.41c0,0,19.5-24.27,72.66-25.95c53.16-1.68,89.07,28.05,89.07,28.05
		l45.03-56.25c0,0-5.05-5.75-22.16-2.81c-16.97,2.95-24.27,12.34-24.27,12.34s-12.06-10.24-23.15-13.75
		c-11.08-3.65-13.33-4.49-13.33-4.49l24.27-70.7l87.25,0.28c0,0,34.09,105.21,42.78,117.69c8.7,12.48,30.86,30.86,47.13,6.31
		s55.83-83.18,55.83-83.18S410.02,344.51,405.11,342.55z M185.72,273.81l31.84-93.98l31.84,93.98H185.72z"/>
	<polygon id="XMLID_10_" class="st1" points="372.15,444.67 372.15,431.06 367.1,431.06 367.1,427.41 381.4,427.41 381.4,431.06 
		376.36,431.06 376.36,444.67 	"/>
	<polygon id="XMLID_11_" class="st1" points="384.07,444.67 384.07,427.41 390.1,427.41 393.75,439.2 397.4,427.41 403.57,427.41 
		403.57,444.67 399.78,444.67 399.78,431.2 395.71,444.67 391.79,444.67 387.86,431.2 387.86,444.67 	"/>
</g>
</svg>
