<?xml version="1.0" encoding="utf-8"?>
<!-- Generator: Adobe Illustrator 26.5.0, SVG Export Plug-In . SVG Version: 6.00 Build 0)  -->
<svg version="1.1" id="Layer_1" xmlns="http://www.w3.org/2000/svg" xmlns:xlink="http://www.w3.org/1999/xlink" x="0px" y="0px"
	 viewBox="0 0 512 512" style="enable-background:new 0 0 512 512;" xml:space="preserve">
<style type="text/css">
	.st0{fill:#FFB10E;}
</style>
<path class="st0" d="M317.28,235.38H170.5V82.35h146.92c23.18,0,37.83,14.65,37.83,33.99v87.61
	C355.11,224.28,343.59,235.38,317.28,235.38 M415.27,169.96c0-26.17,3.7-54.33,20.05-82.49C392.09,76.8,358.81,36.12,348,0
	c-17.92,17.49-35.41,21.62-63.29,21.62L99.25,21.33L73.93,84.62c15.36,6.54,25.32,21.05,25.32,38.4v289.42
	c0,17.35-9.96,31.86-25.32,38.4L99.25,512h70.83l25.32-61.16c-15.22-6.4-25.32-21.33-25.32-38.4V298.38h114.77
	c27.73,0,45.37,6.83,63.29,24.46c11.8-35.98,46.93-62.86,90.03-73.53C421.67,221.01,415.27,195.98,415.27,169.96z"/>
</svg>
