<?xml version="1.0" encoding="utf-8"?>
<!-- Generator: Adobe Illustrator 27.0.0, SVG Export Plug-In . SVG Version: 6.00 Build 0)  -->
<svg version="1.1" id="Layer_1" xmlns="http://www.w3.org/2000/svg" xmlns:xlink="http://www.w3.org/1999/xlink" x="0px" y="0px"
	 viewBox="0 0 512 512" style="enable-background:new 0 0 512 512;" xml:space="preserve">
<style type="text/css">
	.st0{fill:#FD5A1E;}
</style>
<g id="XMLID_1_">
	<path id="XMLID_5_" class="st0" d="M226.46,227.95v51.48c0,0,65.51,4.21,85.57-8c-3.65,11.36-2.52,48.68,0,54.85
		c-25.39-13.05-85.57-7.86-85.57-7.86v51.9h97.07l20.62-23.99V257.4l-23.99-27.77C306,228.09,255.08,227.95,226.46,227.95
		L226.46,227.95z M76.23,43.63c20.2-9.54,41.66-29.88,49.24-43.63c19.36,9.12,198.07,7.86,218.69,0
		c12.48,18.24,25.81,28.34,44.75,34.51c-1.82,17.53-1.26,23.71,4.49,37.59h-49.24l-20.62-23h-175.2l-23,20.2v92.86l22.86,22.16
		l28.9,1.26c0-34.51,0.42-41.1-24.97-47.83c8.42-16.97,10.1-18.94,12.34-39.98c21.74,7.29,246.18,3.37,255.86-2.24
		c-1.54,22.02,10.8,63.68,19.22,79.25H390.3c-2.52-17.11-13.33-30.3-30.44-33.53H226.18v44.33c0,0,103.94,2.81,117.69-1.82
		c6.87,17.81,31.42,43.77,49.24,50.92c-5.89,36.19-4.91,98.19,0,135.79c-19.36,9.54-39.14,29.32-49.24,49.24
		c-24.41-6.73-117.69-3.37-117.69-3.37v27.63c4.77,18.94,15.01,23.57,32.96,25.11c0,0-14.31,27.07-15.01,42.92h-84.02
		c-0.42-15.43-15.01-42.92-15.01-42.92c16.13-0.7,29.46-10.24,31.84-25.11v-27.77c0,0-29.46-1.12-51.76,3.37
		c-6.73-15.15-31.28-42.22-49.24-49.24c4.07-10.94,2.24-78.83-3.79-93.14h53.02v69.01l20.62,23.99h31.14V227.95
		c0,0-27.21-1.4-51.76,0.56c-7.01-13.75-28.05-35.77-49.24-46.15C82.82,157.25,83.38,67.19,76.23,43.63L76.23,43.63z"/>
	<path id="XMLID_8_" class="st0" d="M280.47,491.38h-6.03v16.27h-4.07v-16.27h-5.89v-3.51h15.99V491.38L280.47,491.38z
		 M307.54,507.65h-4.07v-15.71h-0.14l-5.75,15.71h-3.93l-5.47-15.71h-0.14v15.71h-4.07v-19.78h7.01l4.63,12.91h0.14l4.77-12.91h7.01
		V507.65L307.54,507.65z"/>
</g>
</svg>
