<?xml version="1.0" encoding="utf-8"?>
<!-- Generator: Adobe Illustrator 27.0.0, SVG Export Plug-In . SVG Version: 6.00 Build 0)  -->
<svg version="1.1" id="Layer_1" xmlns="http://www.w3.org/2000/svg" xmlns:xlink="http://www.w3.org/1999/xlink" x="0px" y="0px"
	 viewBox="0 0 512 512" style="enable-background:new 0 0 512 512;" xml:space="preserve">
<style type="text/css">
	.st0{fill:#003263;}
	.st1{fill:#006A65;}
	.st2{fill:#C4CDD3;}
	.st3{fill:#FFFFFF;}
	.st4{fill:#EC174C;}
</style>
<g id="XMLID_1_">
	<rect id="XMLID_44_" class="st0" width="512" height="512"/>
	<g id="XMLID_2_">
		<path id="XMLID_43_" class="st0" d="M124.78,312.76c43.89,3.51,46.37,29.55,62.32,57.05c13.9,23.99,32.77,46.37,59.54,46.37
			c29.55,0,33.06-29.7,33.06-40.67c0-17.26-8.78-31.16-21.94-43.45c-2.05-1.9-5.71-6.73-7.9-8.63
			c-8.92-7.31-19.16-14.19-29.99-21.07c-2.93-1.9-4.53-0.88-7.46-2.78c-42.57-26.77-88.8-57.2-88.8-139.56
			c0-98.3,73.14-144.09,123.76-144.09c36.72,0,63.34,21.94,63.34,21.94l50.18-18.14v166.62c-33.21,0-53.83-33.21-61.15-47.1
			c-4.1-7.9-14.34-45.79-43.15-45.79c-18.58,0-23.41,19.46-23.41,30.87c0,15.95,10.68,30.57,26.92,42.28
			c10.09,7.31,22.97,15.21,35.4,22.82c5.85,3.66,20.19,9.95,22.24,11.41c26.92,19.02,70.36,54.13,70.36,131.51
			c0,104.01-73.73,161.06-138.39,161.06c-30.28,0-67.44-18.14-67.44-18.14l-57.34,20.63L124.78,312.76L124.78,312.76z"/>
	</g>
	<g id="XMLID_3_">
		<path id="XMLID_42_" class="st1" d="M293.89,188.42c-7.9-4.83-15.95-9.8-23.26-14.63l2.78,17.12c2.78,1.76,5.71,3.51,8.48,5.27
			L293.89,188.42z"/>
		<path id="XMLID_41_" class="st1" d="M202.31,293.3l5.41-11.85c-8.78-5.71-17.7-11.85-26.19-18.87l-22.67-3.66
			C171.89,272.68,187.1,283.5,202.31,293.3z"/>
		<path id="XMLID_40_" class="st1" d="M241.37,301.2c-0.44-0.29-1.02-0.59-1.46-1.02l-12,7.46c5.71,3.8,11.12,7.46,16.24,11.41
			L241.37,301.2z"/>
		<path id="XMLID_39_" class="st1" d="M357.67,259.07c12,20.77,17.41,45.49,17.41,73.29c0,56.32-22.38,91.28-41.25,110.59
			c-23.26,23.84-53.98,37.6-84.26,37.6c-34.38,0-65.68-20.48-65.68-20.48l-46.23,17.55V333.09c15.51,2.63,22.82,13.75,29.26,26.92
			c2.63,5.27,5.56,10.53,8.92,16.38c20.48,35.55,43.59,52.81,70.66,52.81c33.94,0,46.08-28.82,46.08-53.54
			c0-17.7-7.31-33.79-22.09-49.01l-2.78,16.38c7.46,9.65,11.85,20.19,11.85,32.62c0,10.97-3.51,40.67-33.06,40.67
			c-26.62,0-45.64-22.38-59.54-46.37c-15.95-27.5-18.43-53.54-62.32-57.05v183.15l57.34-20.63c0,0,37.16,18.14,67.44,18.14
			c64.66,0,138.39-57.05,138.39-161.06c0-31.6-7.31-56.17-17.7-75.48L357.67,259.07z"/>
		<path id="XMLID_38_" class="st1" d="M317.59,200.7c-0.29-0.15-0.59-0.44-1.17-0.73l-5.12,12c9.8,7.02,21.07,15.36,31.16,26.33
			l18.14,2.93C346.7,222.35,330.31,209.77,317.59,200.7z"/>
		<path id="XMLID_37_" class="st1" d="M160.77,241.08c-16.38-21.5-24.43-47.98-24.43-81.04c0-51.35,24.43-84.7,42.28-101.81
			c20.19-19.46,44.47-29.4,68.61-29.4c35.69,0,62.03,24.72,62.03,24.72l38.62-15.36v131.51c-26.33-8.05-28.82-28.09-41.25-49.3
			C292.86,97.13,281.6,80.6,256.59,80.6c-24.87,0-36.28,22.67-36.28,43.74c0,17.12,8.78,33.5,25.6,47.54l2.49-15.36
			c-9.51-9.65-15.21-20.63-15.21-32.18c0-11.41,4.68-30.87,23.41-30.87c28.82,0,38.91,37.89,43.15,45.79
			c3.95,7.46,11.7,20.48,23.11,30.87l8.92-5.71l-4.1,9.8c9.07,7.02,20.19,12.14,33.35,12.14V19.75l-50.47,18.29
			c0,0-26.62-21.94-63.34-21.94c-50.47,0-123.76,45.79-123.76,144.09c0,36.72,9.22,63.05,23.11,83.38L160.77,241.08z"/>
	</g>
	<g id="XMLID_4_">
		<path id="XMLID_36_" class="st2" d="M213.87,232.3l-30.72-67.73l58.22,35.25l2.63-16.24c-19.16-14.19-32.77-31.45-32.77-59.25
			c0-33.06,20.33-54.42,42.86-54.42c52.81,0,59.98,64.22,83.68,83.53V51.79c-15.07,5.27-26.77,12.73-29.55,12.73
			c-4.83,0-26.33-26.77-60.71-26.77c-41.98,0-101.67,42.42-101.67,119.95c0,36.28,10.09,61.88,25.16,81.63L213.87,232.3z"/>
		<path id="XMLID_35_" class="st2" d="M306.61,222.79l-3.95,9.22l20.19,3.36C317.73,230.69,312.32,226.6,306.61,222.79z"/>
		<path id="XMLID_34_" class="st2" d="M196.9,265.07c4.53,3.51,9.07,6.88,13.75,9.95l3.36-7.17L196.9,265.07z"/>
		<path id="XMLID_33_" class="st2" d="M302.37,268.43l0.15,1.9l29.4,65.39l-57.2-35.4l-2.49,15.07
			c17.26,14.19,29.26,31.45,29.26,57.49c0,38.77-21.65,66.41-51.35,66.41c-70.66,0-84.41-71.97-102.69-89.67v113.23
			c23.7-7.17,30.28-14.63,35.11-14.63c8.34,0,26.62,22.67,66.41,22.67c56.76,0,116.3-54.86,116.3-137.51
			c0-31.16-7.61-54.27-19.31-72.12L302.37,268.43z"/>
	</g>
	<polygon id="XMLID_32_" class="st1" points="191.78,174.37 218.84,234.35 218.55,267.26 191.78,325.63 246.64,291.55 
		265.95,290.23 323.15,325.63 298.57,271.21 296.67,236.4 323.15,174.37 273.41,205.97 247.22,207.87 	"/>
	<polygon id="XMLID_31_" class="st2" points="191.78,174.37 234.79,224.69 218.55,267.26 191.78,325.63 237.28,276.04 
		265.95,290.23 323.15,325.63 271.51,264.34 296.67,236.4 323.15,174.37 276.04,227.33 247.22,207.87 	"/>
	<path id="XMLID_30_" class="st1" d="M320.22,250.15c0,34.52-28.09,62.61-62.61,62.61S195,284.82,195,250.15
		c0-34.52,28.09-62.61,62.61-62.61C292.13,187.54,320.22,215.63,320.22,250.15z"/>
	<path id="XMLID_29_" class="st3" d="M317.88,250.15c0,33.35-27.06,60.27-60.27,60.27c-33.35,0-60.27-27.06-60.27-60.27
		c0-33.35,27.06-60.27,60.27-60.27C290.96,189.88,317.88,216.8,317.88,250.15z"/>
	<g id="XMLID_5_">
		<path id="XMLID_28_" class="st4" d="M218.26,209.04c0.44-0.15,1.61-4.24,1.61-4.24c-0.15-0.15-0.59-0.73-0.88-1.02
			c-0.29,0.15-0.59,0.44-0.88,0.73l-0.73,2.93l-0.73-0.59c-0.15,0-0.59,0.15-1.32,0.29c-0.73,0.73-1.46,1.46-2.19,2.34
			c1.02-0.29,3.95-1.17,4.39-1.32C217.82,208.75,218.26,209.04,218.26,209.04"/>
		<path id="XMLID_27_" class="st4" d="M222.5,211.82c0.44-0.15,1.61-4.39,1.61-4.39c-0.15-0.29-1.32-1.02-1.32-1.02l-0.44-0.15
			l-0.15,0.29l-1.02,3.8l-1.02-0.59c-0.29,0-4.97,1.46-4.97,1.46c0,0.59,1.17,1.32,1.17,1.32c0.15,0,4.53-1.32,4.97-1.46
			C221.77,211.53,222.5,211.82,222.5,211.82"/>
		<path id="XMLID_26_" class="st4" d="M221.33,215.63c0.29,0,4.53-1.61,4.83-1.76c0.44,0.29,1.17,0.73,1.17,0.73
			c0.44-0.15,1.17-4.53,1.17-4.53c-0.15-0.29-1.46-0.88-1.46-0.88l-0.29-0.15v0.44l-0.59,3.8l-1.17-0.59
			c-0.29,0-4.97,1.76-4.97,1.76C220.01,214.89,221.33,215.63,221.33,215.63"/>
		<path id="XMLID_25_" class="st4" d="M225.72,217.53L225.72,217.53c0.29,0.44,1.32,0.88,1.32,0.88c0.15,0,4.39-1.76,4.68-1.9
			c0.44,0.29,1.32,0.59,1.32,0.59c0.44-0.15,0.73-4.53,0.73-4.53c-0.15-0.29-1.61-0.88-1.61-0.88l-0.44-0.15v0.44l-0.29,3.8
			l-1.17-0.44c-0.29,0-4.83,1.9-4.83,1.9C225.57,217.23,225.57,217.38,225.72,217.53"/>
		<path id="XMLID_24_" class="st4" d="M231.42,219.87c0,0.15,0.15,0.15,0.15,0.29l0,0c0.44,0.44,1.61,0.73,1.61,0.73
			c0.15,0,4.1-2.19,4.24-2.34c0.59,0.29,1.46,0.44,1.46,0.44c0.44-0.29-0.15-4.53-0.15-4.53c-0.15-0.29-1.76-0.59-1.76-0.59
			l-0.44-0.15v0.44l0.44,3.8l-1.32-0.44C235.52,217.53,231.42,219.87,231.42,219.87"/>
		<path id="XMLID_23_" class="st4" d="M276.48,219.57c0-0.29,0.15-0.59,0.15-0.73c0.59,0,1.46-0.29,1.46-0.29s0-0.15-0.15-0.29l0,0
			l0,0c-0.29-0.44-1.32-1.32-2.05-2.05C276.19,217.38,276.33,218.55,276.48,219.57"/>
		<path id="XMLID_22_" class="st4" d="M281.31,216.8c-0.15,0.29-0.73,3.8-0.73,3.8c0.44,0.29,1.9-0.29,1.9-0.29
			c0.15-0.15,0.73-3.22,0.73-3.8c0.44-0.15,1.17-0.44,1.17-0.44s0-0.15-0.15-0.29l0,0h-0.15c-0.88-0.88-3.95-2.93-3.95-2.93
			c-0.29,0-1.61,0.59-1.61,0.59l-0.59,0.15l4.24,2.78"/>
		<path id="XMLID_21_" class="st4" d="M286.13,214.75c-0.15,0.29,0,3.8,0,3.8c0.44,0.29,1.76-0.44,1.76-0.44
			c0.15-0.29,0-3.07,0-3.66c0.44-0.15,1.17-0.44,1.17-0.44s0-0.15-0.15-0.29l0,0h-0.15c-0.88-0.88-4.1-2.63-4.1-2.63
			c-0.29,0-1.61,0.59-1.61,0.59l-0.44,0.29l4.39,2.49"/>
		<path id="XMLID_20_" class="st4" d="M290.67,212.55c-0.15,0.29,0.29,3.8,0.29,3.8c0.44,0.29,1.76-0.59,1.76-0.59
			c0.15-0.29-0.15-3.07-0.29-3.66c0.44-0.15,1.02-0.59,1.02-0.59c0-0.15,0-0.15-0.15-0.29l0,0l0,0c-0.88-0.73-4.24-2.49-4.24-2.49
			c-0.29,0-1.46,0.73-1.46,0.73l-0.44,0.29l4.39,2.19"/>
		<path class="st4" d="M295.06,209.77c-0.15,0.29,1.17,3.66,1.17,3.66c0.44,0.15,1.46-0.73,1.46-0.73c0-0.29-0.88-2.93-1.17-3.51
			c0.44-0.29,0.88-0.73,0.88-0.73c-0.15-0.44-4.68-2.19-4.68-2.19c-0.29,0-1.17,0.88-1.17,0.88l-0.29,0.29l4.53,1.76 M296.37,213.14
			L296.37,213.14L296.37,213.14L296.37,213.14z"/>
		<path id="XMLID_17_" class="st4" d="M299.89,210.36c0.44,0.15,1.46-0.73,1.46-0.73c0-0.15-0.15-0.59-0.29-1.17
			c-0.59-0.73-1.32-1.32-2.05-2.05l-0.29,0.29C298.72,206.99,299.89,210.36,299.89,210.36"/>
		<path id="XMLID_16_" class="st4" d="M294.91,204.36l3.22,1.17c-0.73-0.73-1.46-1.32-2.34-1.9c-0.29,0.15-0.59,0.44-0.59,0.44"/>
		<path id="XMLID_15_" class="st4" d="M297.4,291.4c-0.44,0.15-1.61,4.24-1.61,4.24c0,0.15,0.44,0.44,0.59,0.73
			c0.44-0.29,0.73-0.73,1.17-1.02l0.59-2.34l0.73,0.59c0,0,0.29,0,0.73-0.15c0.73-0.73,1.46-1.46,2.34-2.34
			c-1.32,0.29-3.51,1.02-3.95,1.17C297.84,291.69,297.4,291.4,297.4,291.4"/>
		<path id="XMLID_14_" class="st4" d="M299.3,287.89c-0.29,0-4.39,1.32-4.97,1.46c-0.44-0.29-1.02-0.73-1.02-0.73
			c-0.44,0.15-1.61,4.39-1.61,4.39c0.15,0.29,1.32,1.02,1.32,1.02l0.29,0.15l1.17-4.1l1.02,0.59c0.15,0,4.97-1.46,4.97-1.46
			C300.47,288.62,299.3,287.89,299.3,287.89"/>
		<path id="XMLID_13_" class="st4" d="M294.33,284.96c-0.29,0-4.68,1.61-4.83,1.76c-0.44-0.29-1.17-0.59-1.17-0.59
			c-0.44,0.15-1.17,4.39-1.17,4.39c0.15,0.29,1.46,0.88,1.46,0.88l0.44,0.15l0.73-4.24l1.17,0.59c0.29,0,4.97-1.76,4.97-1.76
			C295.64,285.55,294.33,284.96,294.33,284.96"/>
		<path id="XMLID_12_" class="st4" d="M289.94,282.92L289.94,282.92L289.94,282.92c-0.29-0.44-1.32-0.88-1.32-0.88
			c-0.29,0-4.53,1.76-4.68,1.9c-0.44-0.29-1.32-0.59-1.32-0.59c-0.44,0.15-0.73,4.53-0.73,4.53c0.15,0.29,1.61,0.88,1.61,0.88
			l0.44,0.15l0.29-4.24l1.17,0.44c0.29,0,4.83-1.9,4.83-1.9C290.08,283.21,290.08,283.06,289.94,282.92"/>
		<path id="XMLID_11_" class="st4" d="M284.38,280.72c0-0.15,0-0.15-0.15-0.29l0,0l0,0c-0.44-0.44-1.61-0.73-1.61-0.73
			c-0.15,0-4.1,2.34-4.24,2.34c-0.44-0.15-1.46-0.44-1.46-0.44c-0.44,0.29,0.15,4.53,0.15,4.53c0.15,0.29,1.76,0.59,1.76,0.59
			l0.44,0.15l-0.44-4.24l1.32,0.44C280.28,283.06,284.38,280.72,284.38,280.72"/>
		<path id="XMLID_10_" class="st4" d="M277.21,278.38L277.21,278.38c0,0-0.15-0.15-0.29-0.15c0,0.29-0.15,0.44-0.15,0.73
			c0.29-0.15,0.44-0.44,0.44-0.44C277.36,278.53,277.21,278.53,277.21,278.38"/>
		<path id="XMLID_9_" class="st4" d="M234.35,283.65c0.15-0.15,0.73-3.95,0.73-3.95c-0.44-0.29-1.9,0.29-1.9,0.29
			c-0.15,0.15-0.73,3.22-0.73,3.8c-0.59,0.15-1.17,0.44-1.17,0.44c0,0.15,0.15,0.29,0.15,0.29c0.88,0.88,3.95,2.93,3.95,2.93
			c0.29,0,1.61-0.59,1.61-0.59l0.59-0.15l-4.24-2.78"/>
		<path id="XMLID_8_" class="st4" d="M229.52,285.7c0.15-0.29,0-3.8,0-3.8c-0.44-0.29-1.76,0.44-1.76,0.44
			c-0.15,0.15-0.15,3.07,0,3.66c-0.44,0.15-1.17,0.44-1.17,0.44l0.29,0.29c0.88,0.88,4.1,2.78,4.1,2.78c0.29,0,1.61-0.59,1.61-0.59
			l0.44-0.29l-4.39-2.49"/>
		<path id="XMLID_7_" class="st4" d="M224.99,287.89c0.15-0.29-0.29-3.8-0.29-3.8c-0.44-0.15-1.76,0.59-1.76,0.59
			c-0.15,0.15,0.15,3.07,0.29,3.66c-0.44,0.29-1.02,0.59-1.02,0.59l0.15,0.15l0,0l0,0c0.88,0.73,4.24,2.49,4.24,2.49
			c0.29,0,1.46-0.73,1.46-0.73l0.44-0.29l-4.39-2.19"/>
		<path id="XMLID_6_" class="st4" d="M220.75,290.67c0-0.29-1.17-3.66-1.17-3.66c-0.44-0.15-1.46,0.73-1.46,0.73
			c-0.15,0.29,0.88,2.93,1.17,3.51c-0.44,0.29-0.88,0.73-0.88,0.73c0.15,0.44,4.68,2.19,4.68,2.19c0.29,0,1.17-0.88,1.17-0.88
			l0.29-0.29l-4.53-1.76"/>
		<path id="XMLID_45_" class="st4" d="M215.77,290.08c-0.44-0.15-1.46,0.73-1.46,0.73c0,0.15,0.15,0.88,0.44,1.61
			c0.59,0.59,1.17,1.17,1.76,1.76l0.44-0.44C216.94,293.45,215.77,290.08,215.77,290.08"/>
		<path id="XMLID_46_" class="st4" d="M220.75,296.08l-3.66-1.46c0.88,0.73,1.76,1.46,2.63,2.19c0.29-0.29,0.59-0.59,0.59-0.59"/>
		<path id="XMLID_47_" class="st4" d="M238.88,281.6c-0.59,0.15-1.46,0.29-1.46,0.29s0,0.15,0.15,0.29l0,0l0,0
			c0.29,0.44,1.02,1.02,1.76,1.76C239.18,283.21,239.03,282.33,238.88,281.6"/>
	</g>
	<polygon id="XMLID_48_" class="st1" points="257.9,120.25 240.2,231.86 129.9,250.15 240.2,268.29 257.61,379.61 276.04,268.87 
		388.53,249.86 276.04,231.42 	"/>
	<polygon id="XMLID_49_" class="st2" points="257.9,120.25 257.61,250.15 240.2,231.86 129.9,250.15 257.61,250.15 240.2,268.29 
		257.61,379.61 257.61,250.15 276.04,268.87 388.53,249.86 257.61,250.15 276.04,231.42 	"/>
</g>
</svg>
