<?xml version="1.0" encoding="utf-8"?>
<!-- Generator: Adobe Illustrator 24.3.0, SVG Export Plug-In . SVG Version: 6.00 Build 0)  -->
<svg version="1.1" id="Layer_1" xmlns="http://www.w3.org/2000/svg" xmlns:xlink="http://www.w3.org/1999/xlink" x="0px" y="0px"
	 viewBox="0 0 512 512" style="enable-background:new 0 0 512 512;" xml:space="preserve">
<style type="text/css">
	.st0{fill:#1A191A;}
	.st1{fill:#84161C;}
	.st2{fill:#FFFFFF;}
	.st3{fill:#FDBD12;}
</style>
<g id="XMLID_1_">
	<path id="XMLID_17_" class="st0" d="M-0.05,104.31c0,0,7.82,27.03,37.98,48.23l-17.64-1.85c0,0,18.49,26.18,52.07,42.54
		l-18.35-1.71c0,0,24.47,38.98,74.12,58.19c0,0,4.98,31.87,47.94,60.6c0,0,40.83,23.47,45.52,45.1c0,0,78.67-5.26,164.74,52.49
		c0,0,20.34-83.08,125.62-93.18c0,0,0.14-45.1-59.61-74.97c0,0-24.47-93.61-172.71-103.85l-124.91,0.43
		C154.87,136.03,59.7,129.77-0.05,104.31z"/>
	<path id="XMLID_16_" class="st1" d="M35.94,128.63c0,0,25.46,33.43,97.73,50.22l-65.16-5.83c0,0,24.33,23.33,96.6,41.11
		l-65.44-5.69c0,0,36.7,35,93.61,44.39l-35,5.55c0,0,3.13,17.64,63.31,56.62c0,0,19.77,16.64,15.65,20.77
		c0,0,32.58,0.43,89.62,27.17c0,0,54.63-27.88-21.62-109.26c0,0-35-38.55-74.26-63.59c0,0,59.32-14.08,133.16,28.31
		c0,0,37.7,28.31,72.27,14.08c0,0-14.08-71.42-147.24-82.94h-144.4C144.77,149.4,83.46,144.71,35.94,128.63z"/>
	<path id="XMLID_11_" d="M327.01,363.51l-0.28-0.14c-56.05-26.32-88.91-27.03-89.2-27.03h-1.85l1.28-1.28
		c0.14-0.14,0.43-0.43,0.28-1c-0.14-4.41-11.67-14.94-15.93-18.64c-59.61-38.55-63.31-56.34-63.45-57.05l-0.14-0.71l31.3-4.98
		c-54.06-10.39-89.2-43.39-89.62-43.82l-1.56-1.42l58.33,5.12c-64.73-17.21-87.78-38.7-87.92-38.98l-1.56-1.56l57.62,5.26
		c-64.73-17.36-88.77-47.94-88.91-48.23l-1.56-1.99l2.42,0.85c46.95,15.93,107.98,20.77,108.55,20.77h144.54
		c69,5.97,105.56,28.17,124.05,45.95c20.06,19.21,23.9,37.41,23.9,37.56l0.14,0.57l-0.57,0.28c-34.57,14.08-72.7-13.94-72.98-14.23
		c-65.58-37.7-120.21-30.44-130.74-28.45c38.27,24.9,72.41,62.31,72.84,62.74c30.59,32.58,44.1,60.6,40.12,83.22
		c-3.27,19.06-18.49,27.17-18.64,27.17H327.01z M238.67,334.91c6.4,0.43,38.13,3.41,88.34,26.89c2.13-1.28,14.65-9.1,17.64-25.89
		c3.84-22.05-9.53-49.65-39.69-81.94c-0.43-0.43-35.28-38.7-74.12-63.45l-1.56-1l1.71-0.43c0.57-0.14,60.46-13.66,133.73,28.31
		c0.43,0.28,37.41,27.6,70.99,14.37c-0.85-3.27-5.69-19.35-23.47-36.28c-18.35-17.5-54.49-39.55-123.06-45.38H144.63v-0.14
		c-5.55,0-62.03-5.41-106.41-19.92c6.97,7.54,34.71,33.72,95.6,47.94l-0.28,1.56l-62.88-5.69c6.83,5.41,33.86,24.47,94.46,39.41
		l-0.28,1.42l-63.16-5.55c7.82,6.83,42.25,34.57,91.62,42.68v1.56l-34.14,5.41c1.42,3.7,10.53,21.62,62.6,55.34
		c1.71,1.42,16.36,13.94,16.64,19.77C238.81,334.34,238.67,334.63,238.67,334.91z"/>
	<path id="XMLID_15_" class="st2" d="M317.19,214.28c0,0,7.82,61.6,68.29,58.47c0,0,21.2-5.12,25.46-27.03h-8.25
		c0,0-7.11,22.34-28.31,18.07c0,0-12.8-0.14-25.18-18.92l20.06-2.7C369.4,242.16,333.98,231.06,317.19,214.28z"/>
	<path id="XMLID_8_" d="M381.21,273.6c-56.62,0-64.73-58.61-64.87-59.32l-0.28-2.13l1.56,1.56c16.5,16.5,51.64,27.6,51.93,27.74
		l-0.14,1.42l-18.78,2.56c11.81,17.07,23.76,17.5,23.9,17.5c20.49,4.13,27.46-17.36,27.6-17.5l0.14-0.57h9.67l-0.14,0.85
		c-4.41,22.19-25.89,27.6-26.03,27.74C384.2,273.6,382.63,273.6,381.21,273.6z M318.33,216.41c2.13,10.95,14.65,58.33,67.15,55.62
		c0,0,20.06-5.12,24.61-25.61h-6.83c-1.28,3.41-9.25,22.05-29.02,18.07c-0.43,0-13.23-0.43-25.61-19.21l-0.71-1l18.07-2.42
		C357.45,238.74,332.56,229.5,318.33,216.41z"/>
	<path id="XMLID_14_" class="st3" d="M398.14,300.49c0,0,61.46-11.24,102.86,9.1c0,0-52.49,2.13-87.63,31.87
		C413.36,341.46,416.63,318.98,398.14,300.49z"/>
	<path id="XMLID_5_" d="M412.37,343.31l0.28-1.99c0-0.28,2.99-22.34-15.08-40.26l-1-1l1.42-0.28c0.57-0.14,62.17-11.1,103.28,9.1
		L501,310.3c-0.57,0-52.64,2.56-87.21,31.72L412.37,343.31z M399.71,301.05c14.37,15.22,14.8,33,14.51,38.7
		c30.02-24.47,72.41-29.73,83.79-30.73C460.88,292.38,408.95,299.63,399.71,301.05z"/>
	<path id="XMLID_2_" class="st3" d="M398.99,285.69c0,0,67.29-2.99,102.43,19.21c-8.25-32.72-64.73-58.19-60.18-56.05
		C441.25,248.84,429.87,275.16,398.99,285.69z"/>
	<path id="XMLID_3_" d="M502.56,306.46l-1.56-1c-34.57-21.77-101.29-19.21-102-19.06l-0.28-1.42c28.03-9.53,39.69-32.01,41.54-35.85
		c-0.14-0.14-0.14-0.28,0-0.57l0.14-0.57h0.57l0,0c0,0,0.14,0,0.43,0.14l0,0l0.85,0.43l0,0c8.11,3.84,52.64,27.46,59.89,56.19
		L502.56,306.46z M406.39,284.84c18.21,0,65.44,1.71,93.75,18.49c-8.68-27.88-51.78-50.08-58.61-53.35
		c-1.99,4.13-12.8,24.61-38.13,34.85C404.4,284.84,405.25,284.84,406.39,284.84z"/>
</g>
</svg>
