<?xml version="1.0" encoding="utf-8"?>
<!-- Generator: Adobe Illustrator 24.3.0, SVG Export Plug-In . SVG Version: 6.00 Build 0)  -->
<svg version="1.1" id="Layer_1" xmlns="http://www.w3.org/2000/svg" xmlns:xlink="http://www.w3.org/1999/xlink" x="0px" y="0px"
	 viewBox="0 0 512 512" style="enable-background:new 0 0 512 512;" xml:space="preserve">
<style type="text/css">
	.st0{fill:#DCE0E5;}
	.st1{fill:#FFFFFF;}
	.st2{fill:#161413;}
	.st3{fill:#B01742;}
</style>
<g id="layer1" transform="translate(-15.869222,-165.76504)">
	<g id="g8" transform="matrix(1.25,0,0,1.25,15.869222,165.76504)">
		<path id="path10" class="st0" d="M380.22,166.27c0,0,24.18-3.7,28.59-26.46c4.41-22.76-11.1-40.97-38.98-53.63
			c-40.4-18.35-88.77-35.99-190.91-58.75c-54.91-12.23-70.28-16.08-70.28-16.08L-0.04,127.29l93.18-2.99
			c0,0-30.87,46.95-25.75,124.05s37.98,115.66,63.88,132.87c17.64,11.81,41.82,16.93,41.82,16.93s-12.52-17.64-8.82-39.69
			c3.7-22.05,12.52-33.72,19.06-45.52c6.54-11.81,49.22-95.46,49.22-95.46s15.36,0,22.05,0.71c6.54,0.71,10.95,3.7,10.95,7.4
			c0,3.7-4.41,8.82-4.41,8.82s22.05,1.42,50.64-9.53c28.59-10.95,38.13-29.31,38.13-29.31s-12.52-15.36-27.17-27.17
			c-14.65-11.81-26.46-19.06-26.46-19.06h64.59c0,0,12.52,0,16.93,3.7C382.5,156.74,380.22,166.27,380.22,166.27z"/>
	</g>
	<g id="g12" transform="matrix(1.25,0,0,1.25,35.15996,174.42716)">
		<path id="path14" class="st1" d="M371.81,150.13c0,0,13.94-4.41,15.79-18.78c1.85-14.37-6.26-24.61-10.67-29.02
			c-4.41-4.41-23.9-18.35-58.04-30.44c-28.17-9.96-70.85-21.34-147.52-38.55c-49.79-11.24-70.85-12.8-70.85-12.8l-80.09,86.21
			l82.65-0.43c0,0-34.14,41.82-37.13,124.76c-4.41,124.76,80.09,151.22,80.09,151.22s-8.11-14.65-5.83-31.58
			c2.13-16.93,9.53-30.16,17.64-44.81c8.11-14.65,52.07-102,52.07-102s25.32,0,30.87,0s13.23,2.99,16.22,6.97
			c2.99,3.98,1.42,7.4,1.42,7.4s21.34,1.56,35.57-4.84c20.91-9.25,32.01-23.19,32.01-23.19s-14.8-17.36-36.42-30.87
			c-21.62-13.51-39.98-22.76-39.98-22.76h102.43c0,0,12.52,0,16.22,3.27C371.81,143.16,371.81,150.13,371.81,150.13z"/>
	</g>
	<g id="g16" transform="matrix(1.25,0,0,1.25,54.45196,181.11904)">
		<path id="path18" class="st2" d="M360.83,135.61c0,0,6.54-3.7,6.54-14.65c0-8.39-8.11-18.35-14.65-23.19
			c-6.54-4.84-20.91-13.51-44.39-21.34c-23.47-7.68-73.12-19.77-115.66-28.59S80.72,27.63,80.72,27.63l6.26,9.25L41.03,86.1
			l163.03,12.8l-1.42,1.85H93.67l8.11,8.11l-17.64,31.16l91.76-19.06l-2.56,2.56L66.07,159.79l9.25,5.83c0,0-3.27,6.26-5.55,19.49
			c-2.13,13.23-3.7,25.75-3.7,25.75l91.76-56.19l-0.43,2.13l-101.29,80.8l9.53,2.56c0,0,0.43,17.21,2.13,27.6
			c1.85,10.24,4.84,22.05,4.84,22.05l82.94-97.59v3.27l-81.8,120.35h8.11c0,0,4.41,12.8,14.65,26.03s25.32,23.9,25.32,23.9
			s-5.55-11.52-3.27-30.87c1.42-12.52,13.94-33,19.77-44.81c5.83-11.81,80.8-159.76,80.8-159.76l-14.37-7.68H343.9
			c0,0,8.39,1.14,12.52,4.41C360.41,130.49,360.83,135.61,360.83,135.61z"/>
	</g>
	<g id="g20" transform="matrix(1.25,0,0,1.25,199.53184,221.86729)">
		<path id="path22" class="st1" d="M245.86,93.9c0,0,1.85-6.97-1.42-12.8c-3.27-5.83-10.67-9.96-10.67-9.96l1.42,7.4l-38.13,4.84
			l-1.42,2.13h37.13c0,0,3.84,0.14,8.11,2.7C244.29,90.35,245.86,93.9,245.86,93.9z"/>
	</g>
	<g id="g24" transform="matrix(1.25,0,0,1.25,201.30309,213.40291)">
		<path id="path26" class="st1" d="M226.4,81.23c0,0-3.98-5.55-10.67-9.53c-6.54-3.98-18.35-9.53-18.35-9.53s8.11,6.83,12.09,11.52
			c3.98,4.84,5.12,7.11,5.12,7.11L226.4,81.23z"/>
	</g>
	<g id="g28" transform="matrix(1.25,0,0,1.25,76.893335,194.70179)">
		<path id="path30" class="st3" d="M282.35,84.01c0,0-48.94-13.23-105.7-24.18c-56.9-10.95-98.73-17.64-98.73-17.64l-12.8,15.08
			l216.81,29.31L282.35,84.01z"/>
	</g>
	<g id="g32" transform="matrix(1.25,0,0,1.25,87.227835,226.00066)">
		<path id="path34" class="st3" d="M142.16,75.53l-58.75,1.14L75.87,89.9l65.58-12.52L142.16,75.53z"/>
	</g>
	<g id="g36" transform="matrix(1.25,0,0,1.25,75.612835,244.40641)">
		<path id="path38" class="st3" d="M131.55,95.12l-63.73,22.9l-4.27,16.93l66.86-37.27L131.55,95.12z"/>
	</g>
	<g id="g40" transform="matrix(1.25,0,0,1.25,74.03821,267.43866)">
		<path id="path42" class="st3" d="M123.76,119.7l-61.88,52.35c0,0,0.14,6.83,0.71,10.1s1.42,7.4,1.42,7.4l59.89-66.86L123.76,119.7
			z"/>
	</g>
	<g id="g44" transform="matrix(1.25,0,0,1.25,84.27496,289.97641)">
		<path id="path46" class="st3" d="M126.8,143.68c0,0-17.78,26.32-29.87,44.81c-12.23,18.49-24.04,36.28-24.04,36.28
			s2.7,5.55,4.55,8.39c1.85,2.99,4.84,6.54,4.84,6.54l45.95-94.6L126.8,143.68z"/>
	</g>
	<g id="g48" transform="matrix(1.25,0,0,1.25,139.58934,237.81216)">
		<path id="path50" class="st2" d="M156.17,88.06c0,0,32.44,15.93,49.93,27.74s29.31,24.47,29.31,24.47s-3.7,5.55-12.52,11.24
			c-8.82,5.69-17.92,7.11-17.92,7.11s6.97-6.26,7.54-9.39c0.57-3.13-0.71-3.84-2.56-3.84s-20.2,0-20.2,0s-3.27,2.42-3.13,7.4
			c0.14,4.98,2.56,8.11,2.56,8.11s-6.4-0.85-10.95-6.26c-4.55-5.26-4.55-9.25-4.55-9.25h-41.82l26.32-51.64L156.17,88.06z"/>
	</g>
	<g id="g52" transform="matrix(1.25,0,0,1.25,147.56184,259.76153)">
		<path id="path54" class="st3" d="M145.35,111.41l46.8,7.11l-1.14,2.13h-50.79L145.35,111.41z"/>
	</g>
</g>
</svg>
