<?xml version="1.0" encoding="utf-8"?>
<!-- Generator: Adobe Illustrator 24.3.0, SVG Export Plug-In . SVG Version: 6.00 Build 0)  -->
<svg version="1.1" id="Layer_1" xmlns="http://www.w3.org/2000/svg" xmlns:xlink="http://www.w3.org/1999/xlink" x="0px" y="0px"
	 viewBox="0 0 512 512" style="enable-background:new 0 0 512 512;" xml:space="preserve">
<style type="text/css">
	.st0{fill:#FFFFFF;}
	.st1{fill:#9E7C0C;}
	.st2{fill:#241773;}
	.st3{fill:#C90006;}
</style>
<g id="XMLID_1_">
	<path id="XMLID_5_" class="st0" d="M232.71,132.6c-53.01,0.42-105.61,17.95-151.33,51.33c-28.47,19.63-52.31,50.35-81.34,88.08
		c0,0,28.75-11.22,47.68-18.79c11.78-4.77,62.83-20.34,68.02-13.74c4.63,5.89-7.15,22.72-10.38,27.77
		c-10.66,16.27-28.05,41.23-28.05,41.23s38.01-14.02,56.66-18.37c4.63-1.12,28.47-7.71,21.6,3.09c-5.89,9.26-24.4,34.22-24.4,34.22
		s33.24-12.9,53.72-18.79c21.74-6.31,71.67-14.45,58.9,3.23c-2.24,3.09-13.32,21.04-13.32,21.04l24.54-3.51
		c0,0-0.28,17.39,12.06,32.68c1.68,2.1,16.69,17.25,16.69,17.25c2.24-9.12,5.89-24.12,8.84-31.42
		c4.49-11.36,14.87-19.07,14.87-19.07s0.84,3.37,1.4,8.98c0,0,16.69-5.47,25.53-9.54c10.24-4.77,17.53-11.5,17.53-11.5
		c11.08-0.7,28.05-1.68,43.34-0.56c7.15,0.42,20.34,1.96,32.12,2.1c13.74,0.14,30.71-1.4,33.66-1.82
		c9.26-1.26,15.01-3.93,23.42-2.66c5.61,0.84,10.24,3.93,17.53,7.85c3.65-6.73,7.57-11.78,9.68-23.42
		c1.4-7.71-0.28-31.14-20.34-48.11c-15.15-12.76-24.54-16.83-24.54-16.83c3.37-1.54,6.17-2.52,9.96-3.65c0,0-11.92-5.19-19.35-8.13
		c-4.91-1.96-18.93-6.87-18.93-6.87s0.98-1.4,1.68-2.1c1.12-0.98,1.82-1.82,1.82-1.82s-15.85-2.8-26.37-4.07
		c-6.45-0.84-21.46-0.98-21.46-0.98c-1.68-15.99-2.95-24.68-3.79-32.26c-3.09,4.21-5.19,7.71-9.96,13.32
		c-9.96-14.45-16.55-19.78-31.7-37.31c0,0,0.56,5.47,0.7,8.13c0.14,2.24,0.56,6.59,0.56,6.59s-16.83-13.18-50.07-23.42
		C277.58,135.13,255.15,132.32,232.71,132.6L232.71,132.6z M392.73,228.25l17.25,3.23l23.56,6.73l25.24,9.82l15.57,10.66l9.12,9.68
		l7.57,11.36l1.68,18.93l-7.85-2.66l-42.36,4.91l-50.21-3.93l-36.75,0.98l-13.88,3.65l-38.43-28.75l-69.28-1.26l0.28-17.95
		l59.18-23.56l22.72-1.26l55.4,10.24l6.03-9.12L392.73,228.25L392.73,228.25z"/>
	<path id="XMLID_8_" class="st1" d="M234.53,139.34c-1.12,0-2.24,0-3.51,0c-75.45,1.12-148.94,38.71-195.09,98.03
		c-5.19,6.31-10.38,12.76-15.43,19.21c29.45-11.64,59.47-24.12,91.44-25.53c10.66-0.42,14.17,6.59,11.78,14.02
		c-3.79,12.06-12.76,24.54-19.07,35.34c-3.37,4.91-6.73,9.82-10.1,14.59c23-6.73,46.56-16.41,64.51-14.59
		c6.59,0.7,5.89,10.66,2.1,16.13c-3.79,5.61-7.99,10.66-11.36,16.41c27.63-10.1,55.68-18.93,85.41-18.37
		c7.01,0.14,17.11,2.1,17.67,9.68c0.56,6.59-5.05,13.88-8.7,18.93c5.89,0.28,16.83-2.52,16.83-1.96
		c0.14,20.06,4.63,31.42,18.79,44.74c2.24-17.25,13.18-42.5,33.1-47.4c0.7,6.17,0.28,6.17,1.26,10.1
		c12.2-3.93,27.07-10.94,34.92-18.37c14.02-1.12,24.96-1.68,37.45-1.12c28.05,1.26,56.1,4.63,83.45-1.4
		c9.12-1.96,18.79-1.96,29.03,4.49c11.08-15.15,4.63-38.85-6.45-50.77c-10.94-13.18-36.46-26.37-45.44-29.31l9.26-2.95
		c-11.92-5.47-31.42-11.08-31.42-11.08l2.52-2.52c-10.1-2.8-34.22-3.37-40.53-2.52c0.42-3.79-0.42-18.65-1.4-21.32
		c-1.68,1.4-6.87,9.4-6.87,9.4c-2.24-11.64-21.04-29.87-21.04-29.87s0.56,4.21,0.7,8.7c-24.68-23-64.09-36.32-100-39.55
		C250.66,139.76,242.52,139.48,234.53,139.34L234.53,139.34z M392.73,228.25l17.25,3.23l23.56,6.73l25.24,9.82l15.57,10.66
		l9.12,9.68l7.57,11.36l1.68,18.93l-7.85-2.66l-42.36,4.91l-50.21-3.93l-36.75,0.98l-13.88,3.65l-38.43-28.75l-69.28-1.26
		l0.28-17.95l59.18-23.56l22.72-1.26l55.4,10.24l6.03-9.12L392.73,228.25L392.73,228.25z"/>
	<polygon id="XMLID_9_" class="st0" points="392.73,228.25 410.12,231.48 433.68,238.21 458.93,248.03 474.49,258.69 483.61,268.5 
		491.18,279.87 492.87,298.8 485.01,296.13 442.66,301.18 392.45,297.12 355.7,298.1 341.82,301.74 303.25,272.85 233.83,271.59 
		234.11,253.5 293.29,230.08 316.15,228.81 371.55,239.05 377.58,229.8 	"/>
	<path id="XMLID_12_" d="M236.91,146.63c-30.57,0.14-59.47,6.03-82.75,14.45c-44.32,15.99-76.3,46.28-94.67,69.28
		c15.85-7.85,70.26-21.6,79.94-8.84c11.08,14.45-14.17,48.53-19.35,56.94c13.88-4.07,49.37-16.13,59.18-6.73
		c5.47,5.19-2.95,17.53-2.95,17.53s65.5-18.65,81.2,4.63c6.45,9.68-1.82,23-1.82,23l17.25-3.51c0,0-2.8,7.85-1.54,20.06
		c0.7,7.71,5.75,16.55,5.75,16.55c5.05-16.97,14.73-31.84,41.51-38.71l1.82,7.99c9.82-2.52,22.86-10.94,26.37-15.99
		c12.9-1.96,31.98-3.23,48.25-1.54c19.49,1.96,33.1,3.93,65.22,1.54c21.18-1.54,23.14-6.87,34.08,0.14
		c6.59-12.9-0.56-31.56-15.85-45.16c-18.79-16.69-29.03-20.06-51.19-27.21l11.08-1.68c-5.89-2.8-19.49-6.17-26.09-6.87l2.66-2.66
		c0,0-8.27-1.68-14.87-1.96c-5.19-0.28-18.23,0-18.23,0c0.56-4.07,0.98-10.38,0.56-14.87c0,0-4.63,7.57-6.73,8.84
		c-0.14-5.61-3.09-17.39-11.08-25.24l1.4,13.04c0,0-13.74-23.14-46.84-37.31C292.17,151.12,263.84,146.49,236.91,146.63
		L236.91,146.63z M387.82,232.18c61.43,5.05,105.19,37.45,101.54,62.27c-5.61-14.02-55.54-24.54-82.47-28.47
		c-32.4-4.77-74.47-12.62-74.33-4.77c0.14,7.15,20.2,16.41,20.2,16.41s-5.19-5.47-1.68-7.99c3.09-2.24,43.34,2.24,56.8,4.49
		c34.92,6.03,58.9,11.78,70.69,17.95c-23.56,4.77-50.49,4.35-61.85,2.8c-24.12-3.37-50.35-3.23-55.96-1.26l-10.24-8.41
		c0,0-2.38,7.29-6.31,11.64l-38.43-28.75l-66.48-0.98l0.14-8.7l54.7-23.42l19.35-0.98c0,0,5.19,1.96,20.48,3.23
		c26.09,2.24,60.31,13.88,60.31,13.88l-16.13-11.64l20.62,1.82L387.82,232.18L387.82,232.18z"/>
	<path id="XMLID_16_" class="st2" d="M236.77,157.15c-57.22,1.12-103.5,17.53-140.67,50.91c16.69-4.35,47.96-9.96,58.06,1.68
		c9.12,10.52,3.79,33.8-9.12,54.84l13.88-1.96c5.75-20.2,14.17-44.6,25.53-59.89c8.7-11.5,15.85-14.87,24.4-17.67
		c-19.07,0.7-53.01,4.49-83.31,10.38c18.23-14.87,52.73-24.54,81.06-29.31c42.36-7.01,64.79,0.84,69.7,6.03
		c11.22,11.92,3.51,28.05-28.33,37.03c22.58,4.35,20.34,21.46,15.85,26.51l-5.33-6.87l-49.37,22.02l3.93,7.43
		c0,0-10.52,6.45-17.81,16.27c23.28-3.79,56.38-6.17,70.83,3.79c12.34,8.41,5.75,24.4,5.75,24.4l24.4-6.45
		c-10.1,12.48-19.78,22.02-18.93,34.78c9.4-23.56,38.71-19.63,48.39-43.76c0,0,6.45,6.03,1.82,22.86
		c8.56-2.8,16.69-13.32,16.69-13.32c3.23-6.59-1.4-15.99-1.4-15.99s-24.12-11.64-22.02-19.35c0.84-3.09,6.31-3.93,6.31-3.93
		s-16.97-2.95-38.99-0.98c-33.52,3.09-45.02,8.13-45.02,8.13c9.82-5.47,46-24.26,109.67-13.74c-13.18-10.1-61.43-11.36-61.43-11.36
		s20.34-4.21,42.64-2.38c0,0-26.51-9.68-62.55-3.23c0,0,9.4-13.18,40.25-13.46c-12.9-10.1-40.25-8.27-40.25-8.27
		s25.24-12.62,54.42-8.56c0,0-4.07-9.96-29.03-14.59c42.21-1.96,56.94,20.76,56.94,20.76c-10.52-3.93-16.97-3.79-16.97-3.79
		s10.52,3.79,14.59,12.76c4.21,9.4,13.32,16.13,15.01,14.31c1.12-20.76-6.17-31.28-18.79-42.5
		C328.5,173.56,285.86,157.15,236.77,157.15L236.77,157.15z M229.48,188.14c0,0-8.13,4.21-9.26,17.67
		c16.97,0.14,16.41-1.54,18.23-8.84C240.84,187.58,229.48,188.14,229.48,188.14z M214.47,221.1c-0.42,0-0.98,0-1.4,0
		c0,0-15.43,12.34-9.68,24.12c15.15,3.65,20.06-2.52,23.14-13.6C228.78,223.63,221.77,221.1,214.47,221.1L214.47,221.1z"/>
	<path id="XMLID_20_" class="st0" d="M237.75,163.46c-8.84,0-19.21,0.84-30.99,2.8c-28.47,4.63-62.83,14.45-81.06,29.31
		c30.29-5.89,64.23-9.68,83.31-10.38c-8.56,2.8-15.85,6.17-24.4,17.67c-11.36,15.29-19.78,39.69-25.53,59.89c0,0,20.2-3.09,54-4.49
		c2.1-1.4,4.35-2.8,6.31-4.07l1.26-3.09l32.26-14.45l4.91,0.84l0,0c3.09-0.84,5.19-1.26,6.03-1.82c4.49-5.05,6.87-22.16-15.85-26.51
		c31.84-8.98,39.55-25.1,28.33-37.03C272.96,168.37,260.33,163.32,237.75,163.46L237.75,163.46z M236.49,183.51
		c5.75,0,13.46,1.4,11.22,9.54c-1.96,7.29-8.13,13.88-27.49,12.76c4.35-8.7,8.84-18.79,12.9-22.3c0.7,0,1.4-0.14,2.24-0.14
		C235.79,183.51,236.21,183.51,236.49,183.51L236.49,183.51z M221.21,216.19c7.43-0.14,17.39,0.98,14.31,12.06
		c-2.24,7.71-7.29,18.65-32.12,17.11c0.7-2.24,4.49-13.04,11.78-28.89C216.58,216.33,218.68,216.19,221.21,216.19z"/>
	<path id="XMLID_24_" class="st1" d="M234.95,168.79c-23.56,0.14-55.96,4.91-91.02,20.34c46-9.68,96.77-11.08,102.94-8.13
		c15.29,7.43,2.52,23.28-7.99,25.95c41.79-7.01,43.2-26.37,32.4-32.68C266.22,171.45,253.18,168.65,234.95,168.79L234.95,168.79z
		 M223.73,187.02c-33.66,2.8-43.34,30.85-57.5,70.26c21.88-1.96,52.87-3.23,52.87-3.23l0,0c17.53-10.66,31.14-14.73,38.57-16.69l0,0
		c0,0,22.72-30.29-45.02-27.49L223.73,187.02L223.73,187.02z M220.08,212.69c14.45,0,18.93,2.52,20.2,10.24
		c0.98,5.75-2.38,18.23-13.6,23.7c-8.98,4.49-30.57,3.65-30.57,3.65s6.17-19.49,14.73-37.31
		C214.33,212.83,217.42,212.69,220.08,212.69L220.08,212.69z"/>
	<ellipse id="XMLID_25_" class="st3" cx="331.58" cy="220.82" rx="11.78" ry="10.24"/>
	<ellipse id="XMLID_26_" cx="335.79" cy="222.78" rx="6.31" ry="6.17"/>
	<path id="XMLID_27_" class="st0" d="M337.47,214.51c-5.89-0.84-8.98,2.24-9.96,4.21c-1.54,2.95-0.7,7.71,1.68,9.68
		c-6.59-2.24-7.29-8.41-4.21-11.92C327.51,213.25,332.84,212.13,337.47,214.51L337.47,214.51z"/>
</g>
</svg>
