<?xml version="1.0" encoding="utf-8"?>
<!-- Generator: Adobe Illustrator 24.3.0, SVG Export Plug-In . SVG Version: 6.00 Build 0)  -->
<svg version="1.1" id="Layer_1" xmlns="http://www.w3.org/2000/svg" xmlns:xlink="http://www.w3.org/1999/xlink" x="0px" y="0px"
	 viewBox="0 0 512 512" style="enable-background:new 0 0 512 512;" xml:space="preserve">
<style type="text/css">
	.st0{fill:#FFFFFF;}
	.st1{fill:#C60C3D;}
	.st2{fill:#00338D;}
</style>
<g id="XMLID_1_">
	<path id="XMLID_3_" class="st0" d="M54.01,327.84c35.63-22.72,46.85-48.25,46.85-48.25L0.01,294.03l42.78-76.16l86.12-7.29
		c0,0,33.52-29.88,85.28-51.34c0,0,5.47-9.4,35.07-26.51c0,0,27.21-15.99,58.07-26.23c0,0,20.9-7.15,27.21-7.57l-1.82-6.73
		l39.56-3.37l0.98-3.79c0,0,20.62,1.4,32.4,6.59l2.38-3.09c0,0,27.63,12.62,48.11,43.9c0,0,19.92-1.12,37.73,7.43
		c0,0,18.94,7.57,18.09,29.46c0,0-0.14,28.05-8.56,55.69c0,0-1.26,4.35-2.52,6.87c0,0-1.68,3.51-5.05,8c0,0-9.4,9.68-13.04,18.09
		c0,0-1.96,5.61-5.89,15.85c0,0-2.95,14.17-23.56,14.87c0,0-19.92,25.25-28.33,32.54l-0.7-6.17c0,0-13.89,12.9-25.95,20.48
		l4.07-35.77c0,0,0.98-6.45-3.09-6.87l-10.38-0.28c0,0,3.37,21.46-0.7,31.42c0,0-2.67,15.57-26.79,23c0,0-18.66,5.89-40.12,7.57
		l-4.63-0.7l-33.66,13.75l9.82-35.35c0,0-12.62,1.26-13.75-0.28l-37.59,16.13l14.73-42.22l10.1-5.61l-3.23-4.35l-20.76,0.14
		l-7.57,5.89c-17.67-4.63-34.79-3.37-34.79-3.37l-87.25,70.83L90.9,417.75l-26.09-34.93l8.14-10.66l-3.09-2.38l-11.78,9.26
		l-17.53,47.13l-25.81-36.47l6.59-14.73l-1.4-9.12c7.71-5.05,12.62-8.42,16.55-12.76c2.1-2.67,3.23-3.65,5.75-8.28
		c2.38-5.61,2.38-11.64,5.05-13.61C50.65,329.94,53.17,328.4,54.01,327.84"/>
	<path id="XMLID_4_" class="st1" d="M47.7,225.58l-33.38,58.77l430.34-64.1c0,0-15.01-11.36,6.73-29.32L47.7,225.58"/>
	<path id="XMLID_5_" class="st2" d="M484.63,182.66c0,0-33.66,23-21.88,42.78c0,0-12.2,6.73,1.26,16.27c0,0-20.76,9.4-15.29-16.41
		L110.4,276.5c0,0-7.29,30.58-55.26,59.61c0,0-3.51,2.1-3.79,5.89c0,0,0.28,4.77-4.07,10.66c0,0-5.47,9.4-17.95,17.39l0.84,6.31
		l-5.89,13.47l14.31,20.76l13.04-35.07l25.81-19.78c0,0,25.25-39.41,66.63-54.84c0,0,36.61-15.57,89.91-6.73l4.91-4.63l61.86-1.4
		c0,0,2.38,0.56,0.84,1.82c0,0-12.2,9.4-25.53,10.52l1.26,3.79c0,0,0.42,1.4-0.7,1.68l-12.9,5.19l-8.56,23.71l24.27-10.52l1.4,0.98
		c0,0,21.18,1.26,52.88-5.19c0,0,22.02-4.35,28.19-32.96l41.94-1.82c0,0,8.7,1.82,7.71,9.96l-2.95,23.85l19.22-17.11l1.4,4.49
		c0,0,14.59-15.71,18.23-24.83c0,0,15.99,0.28,19.92-6.17c0,0,1.82-1.82,6.87-15.85c0,0,2.38-9.82,12.2-19.64
		c0,0,7.57-7.15,11.92-25.95c0,0,5.19-27.21,5.05-32.4c0,0,5.47-26.93-12.9-34.93c0,0-13.75-7.57-39.41-5.47
		c0,0-5.05-17.81-40.54-42.36l-2.52,3.79c0,0-12.06-8.28-29.18-8.14l-0.84,2.38c0,0-10.38-0.14-33.1,2.24l2.1,6.31
		c0,0-46.85,2.1-113.2,46.57l-1.26,3.65l-8.42,3.93l4.49,2.52c0,0-50.78,18.37-87.67,48.53L484.63,182.66"/>
	<path id="XMLID_6_" class="st2" d="M365.96,292.35l14.59-0.14c0,0,2.95,19.22,1.12,27.77c0,0-2.81,12.76-15.85,17.67
		c0,0-19.08,8.14-47.83,9.96l-1.4-1.12l-21.74,9.12l7.15-25.25c0,0,29.18-2.24,37.87-4.91C340.02,325.31,362.6,320.96,365.96,292.35
		"/>
	<path id="XMLID_7_" class="st2" d="M187.13,299.92c0,0-51.48-0.56-86.82,40.96c0,0-0.14,15.01-18.37,25.25l0.7,4.77l-8.7,11.92
		l15.43,20.62l17.39-38.43L187.13,299.92"/>
</g>
</svg>
