<?xml version="1.0" encoding="utf-8"?>
<!-- Generator: Adobe Illustrator 24.3.0, SVG Export Plug-In . SVG Version: 6.00 Build 0)  -->
<svg version="1.1" id="Layer_1" xmlns="http://www.w3.org/2000/svg" xmlns:xlink="http://www.w3.org/1999/xlink" x="0px" y="0px"
	 viewBox="0 0 512 512" style="enable-background:new 0 0 512 512;" xml:space="preserve">
<style type="text/css">
	.st0{fill:#BFC0BF;}
	.st1{fill:#0085CA;}
</style>
<g id="XMLID_1_">
	<path id="XMLID_3_" d="M468.76,146.06c0.14-0.28,0.14-0.56,0.28-0.7l0.14-0.56l0,0c-0.7-2.11-2.25-2.25-5.34-1.97
		c-4.5,0.84-8.71,1.41-12.22,1.69l0,0h-0.56h-0.42c-0.56,0-0.98,0.14-1.55,0.14h-0.14c-4.5,0.42-7.31,0.42-7.31,0.42
		c11.52,8.71,12.93,22.2,12.93,22.2l0.56-0.56C463.99,160.26,468.76,146.06,468.76,146.06"/>
	<path id="XMLID_4_" d="M470.03,146.63c0.14-0.28,0.28-0.56,0.28-0.84l0,0l0.14-0.56l0.14-0.42l-0.14-0.42l-1.26,0.42l1.26-0.42
		c-0.28-0.98-0.98-1.97-1.83-2.39c-0.84-0.56-1.83-0.56-2.95-0.56c-0.56,0-1.26,0-1.83,0.14h-0.14h-0.14
		c-4.5,0.84-8.57,1.41-12.08,1.69l-2.81,0.28l1.97,1.97l0.98-0.98l-0.14-1.26h-0.56l0,0h-0.42l0,0c-0.56,0-0.98,0.14-1.55,0.14
		h-0.28l0,0c-2.25,0.14-4.07,0.28-5.34,0.28c-1.26,0-1.97,0-1.97,0h-3.93l3.09,2.39c5.48,4.22,8.57,9.55,10.4,13.77
		c0.84,2.11,1.41,4.07,1.69,5.34c0.14,0.7,0.28,1.26,0.28,1.55v0.42v0.14l0.28,2.53l2.53-2.11l-0.84-0.98l0.84,1.12
		c4.78-3.37,8.15-8.71,10.54-13.21C468.76,150.14,470.03,146.49,470.03,146.63l-2.53-0.98c0,0,0,0.14-0.14,0.56
		c-0.56,1.41-1.83,4.92-4.07,8.71c-2.25,3.93-5.2,8.01-8.85,10.68l0,0l-0.56,0.56l0.84,0.98l1.26-0.14
		c0-0.14-1.41-14.05-13.35-23.18l-0.84,1.12v1.26c0,0,2.95,0,7.45-0.42h0.28l0,0c0.56,0,0.98-0.14,1.55-0.14l0,0h0.42h0.56
		l2.81-0.28l-1.97-1.97l-0.98,0.98l0.14,1.26c3.51-0.42,7.73-0.84,12.22-1.83l-0.28-1.26l0.14,1.26c0.7,0,1.26-0.14,1.69-0.14
		c0.84,0,1.41,0.14,1.55,0.28c0.28,0.14,0.42,0.28,0.7,0.98l0,0l0,0l1.26-0.42l-1.26-0.42l-0.14,0.56l1.26,0.42l-1.26-0.42
		l-0.28,0.7L470.03,146.63L470.03,146.63z"/>
	<path id="XMLID_5_" class="st0" d="M348.91,217.72c5.76,16.86-3.93,39.48-3.93,39.48c12.65-10.82,22.62-33.16,22.62-33.16
		c20.79-4.22,32.18,0,32.18,0c2.67,16.3-3.37,29.51-3.37,29.51c12.08-9.69,17.42-35.27,17.42-35.27s-4.78-4.5-26.13-6.04
		C366.34,210.84,348.91,217.72,348.91,217.72"/>
	<path id="XMLID_6_" class="st0" d="M364.51,282.21c0,0-6.32,17.42-12.79,23.89c0,0,8.29,4.5,22.76,3.23
		c14.47-1.41,17.98-6.74,19.39-12.08c1.41-5.34,0-12.93-2.39-18.55c0,0,1.12,14.19-8.85,21.5c0,0-10.68,2.25-17.7,0.14
		C364.93,300.34,367.74,294.58,364.51,282.21"/>
	<path id="XMLID_7_" class="st0" d="M330.37,146.49l0.42,0.14L330.37,146.49c-8.71-1.69-12.5,4.92-12.5,4.92
		c-2.81,4.07-1.69,6.04-1.69,6.04c26.98-0.42,41.59,3.93,41.59,3.93s-10.12-10.96-26.27-14.61L330.37,146.49"/>
	<path id="XMLID_8_" class="st0" d="M438.13,160.26c-3.51-3.37-11.1-7.59-19.39-5.9c-8.29,1.69-8.71,10.68-8.71,10.68
		C418.89,156.74,438.13,160.26,438.13,160.26"/>
	<path id="XMLID_9_" class="st1" d="M237.21,178.1c0,0,44.54-8.57,95.26,3.51c1.83-1.69,3.93-3.37,6.32-5.06
		C338.94,176.55,292.29,163.63,237.21,178.1"/>
	<path id="XMLID_10_" class="st1" d="M237.49,195.38c0,0,38.92-9.69,86.55-3.23c0.84-1.83,2.11-3.65,3.79-5.62
		C310.56,184.56,275.85,183.02,237.49,195.38"/>
	<path id="XMLID_11_" class="st1" d="M238.48,212.24c0,0,36.81-11.38,83.32-8.15c-0.28-1.69-0.28-3.65,0.14-5.9
		C303.39,197.63,272.06,199.32,238.48,212.24"/>
	<path id="XMLID_12_" class="st1" d="M129.87,328.16L129.87,328.16h0.28c0.84,0.14,3.37,0.28,3.51,0.28c0.42,0,4.78,0.56,4.92,0.56
		c6.32,0.7,12.79,1.55,19.25,2.67c14.61-53.39,55.64-81.77,55.64-81.77C157.83,276.73,134.5,320.43,129.87,328.16"/>
	<path id="XMLID_13_" class="st1" d="M391.35,254.39c-3.51-16.16,5.76-27.12,5.76-27.12c-20.79,18.27-8.29,36.53-1.97,50.72
		c6.32,14.19,3.79,24.59-2.53,31.89s-23.6,7.87-35.27,5.62c-11.66-2.25-17.7-14.47-20.79-28.94c-3.09-14.47,2.53-40.04,2.53-40.04
		c-8.57,12.93-8.57,39.48-1.83,60.84c6.6,21.5,24.03,26.84,36.53,26.84c12.65,0,35.27-10.68,31.75-36.25
		C402.03,272.38,394.86,270.41,391.35,254.39"/>
	<path id="XMLID_14_" class="st1" d="M255.76,267.32c-21.78-22.06-22.48-46.93-22.48-46.93s-7.45,29.08,10.26,50.86
		s60.98,24.17,60.98,24.17S277.54,289.38,255.76,267.32"/>
	<path id="XMLID_15_" class="st1" d="M365.77,172.06c25.57,9.98,25.29,25.29,25.29,25.29c3.93-14.75,21.92-22.62,21.92-22.62
		s-9.27-4.5-22.2-5.48C377.86,168.4,365.77,172.06,365.77,172.06"/>
	<path id="XMLID_16_" class="st1" d="M330.37,146.49c-15.46-3.09-30.21,3.09-30.91,3.37l0,0l0,0l0,0
		c14.19,0.28,18.55,1.55,18.55,1.55S321.52,144.8,330.37,146.49"/>
	<path id="XMLID_17_" class="st1" d="M380.39,346.56L380.39,346.56c-0.14,0-9.27,3.23-20.37,1.26c0,0,14.75,14.33,29.93,45.66l0,0
		h0.56c-1.41-14.33-7.59-38.22-8.99-42.71L380.39,346.56"/>
	<path id="XMLID_28_" d="M396.4,253.55c0,0,6.04-13.21,3.37-29.51c0,0-11.38-4.22-32.18,0c0,0-9.98,22.2-22.62,33.16
		c0,0,9.69-22.62,3.93-39.48c0,0,17.42-6.88,38.78-5.48c21.36,1.55,26.13,6.04,26.13,6.04S408.49,244,396.4,253.55L396.4,253.55z
		 M382.64,300.2c9.98-7.31,8.85-21.5,8.85-21.5c2.39,5.62,3.79,13.21,2.39,18.55c-1.41,5.34-4.78,10.68-19.39,12.08
		c-14.47,1.41-22.76-3.23-22.76-3.23c6.46-6.46,12.79-23.89,12.79-23.89c3.23,12.36,0.42,18.13,0.42,18.13
		C371.96,302.45,382.64,300.2,382.64,300.2L382.64,300.2z M405.54,297.81c3.51,25.57-19.25,36.25-31.75,36.25
		c-12.65,0-29.93-5.34-36.53-26.84c-6.6-21.5-6.6-47.91,1.83-60.84c0,0-5.62,25.57-2.53,40.04c3.09,14.47,9.13,26.84,20.79,28.94
		c11.66,2.25,28.94,1.55,35.27-5.62c6.32-7.31,8.85-17.7,2.53-31.89c-6.32-14.19-18.97-32.46,1.97-50.72c0,0-9.13,10.96-5.76,27.12
		C394.86,270.41,402.03,272.38,405.54,297.81L405.54,297.81z M324.04,192.29c-47.49-6.6-86.55,3.23-86.55,3.23
		c38.22-12.36,73.06-10.82,90.2-8.85C326.15,188.5,324.89,190.46,324.04,192.29L324.04,192.29z M321.8,204.09
		c-46.51-3.23-83.32,8.15-83.32,8.15c33.44-12.93,64.77-14.61,83.46-14.05C321.52,200.44,321.52,202.41,321.8,204.09L321.8,204.09z
		 M243.54,271.25c-17.7-21.78-10.26-50.86-10.26-50.86s0.7,24.87,22.48,46.93c21.78,22.06,48.76,27.96,48.76,27.96
		S261.24,293.03,243.54,271.25L243.54,271.25z M338.94,176.55c-2.39,1.69-4.5,3.37-6.32,5.06c-50.86-12.08-95.26-3.51-95.26-3.51
		C292.29,163.63,338.94,176.55,338.94,176.55L338.94,176.55z M299.32,149.86L299.32,149.86L299.32,149.86
		c0.84-0.28,16.3-6.74,32.04-3.23c16.16,3.65,26.27,14.61,26.27,14.61s-14.61-4.36-41.59-3.93c0,0-0.98-1.97,1.69-6.04
		C317.86,151.4,313.51,150.14,299.32,149.86L299.32,149.86L299.32,149.86z M418.75,154.35c8.29-1.69,15.88,2.67,19.39,5.9
		c0,0-19.11-3.51-28.1,4.78C409.89,165.03,410.46,156.04,418.75,154.35L418.75,154.35z M446,196.51c-0.28-1.69-0.84-3.23-1.41-4.5
		c0,0-0.42-1.26-1.97-3.09c-1.26-1.55-2.67-2.81-3.93-4.07c-2.81-2.67-7.73-4.22-7.73-4.22l0,0c3.51,2.67,6.18,6.46,6.46,11.8
		c0.84,16.72-16.44,23.6-16.44,23.6c4.07-2.67,11.38-11.94,9.41-23.75c-1.83-11.94-17.28-17.56-17.28-17.56s-18.13,7.87-21.92,22.62
		c0,0,0.28-15.32-25.29-25.29c0,0,12.08-3.65,25.01-2.67c12.93,0.84,22.2,5.48,22.2,5.48s2.39-6.32,15.03-8.43
		c12.65-2.11,26.41,0.98,26.41,0.98c-2.53-4.64-5.48-11.38-18.27-16.58s-24.17-0.56-24.17-0.56s-0.84-6.18-10.12-12.22
		c-15.03-9.69-54.94-15.6-62.67-16.02c-7.73-0.42,5.76,4.5,11.1,7.59c6.18,3.51,12.93,9.41,13.63,15.03
		c0.14,1.55-0.14,2.81-0.84,3.93c-0.56-1.55-1.69-3.51-3.65-6.18c-10.96-14.05-38.64-20.09-59.43-18.69
		c-20.79,1.41-37.37,9.27-37.37,9.27c0.28,1.97-7.73,8.57-29.51,10.96c-20.79,2.25-35.41-1.55-40.75-2.25l-0.42-0.14
		c-2.11-0.28-3.79-0.14-4.36,1.41l-0.14,0.28v0.28c-0.14,1.12,0.56,2.53,0.56,2.53l-0.28-0.56c1.55,2.81,10.26,19.11,21.92,27.54
		c0,0,7.03-1.41,15.17-2.39c0,0-127.58,62.1-179.28,159.19c22.48-2.67,52.13-4.36,84.3-1.55h-0.28l0,0
		c4.64-7.87,27.96-51.42,83.46-78.26c0,0-41.03,28.52-55.64,81.77c18.55,3.09,37.51,8.01,56.06,15.17
		c59.57,23.18,109.87,47.49,166.5,47.07l9.69-0.42l0,0c-15.03-31.33-29.93-45.66-29.93-45.66c11.24,1.97,20.23-1.12,20.37-1.26
		c0.84-0.28,1.55-0.56,2.11-0.84c18.55-9.98,21.64-26.84,23.18-39.06c1.69-14.05-0.7-22.9-0.7-22.9s32.04-42.15,40.18-75.17
		C445.16,208.59,446.99,202.55,446,196.51"/>
	<path id="XMLID_39_" d="M396.4,253.55l1.26,0.56c0-0.14,4.07-9.13,4.07-21.5c0-2.81-0.14-5.76-0.7-8.85l-0.14-0.7l-0.7-0.28
		c-0.14,0-5.34-1.97-15.03-1.97c-4.92,0-10.82,0.42-17.84,1.97l-0.7,0.14l-0.28,0.56c0,0-0.14,0.28-0.42,0.98
		c-1.97,4.36-11.1,22.48-21.78,31.61l0.84,0.98l1.26,0.56c0-0.14,5.76-13.63,5.76-27.82c0-4.22-0.56-8.57-1.83-12.5l-1.26,0.42
		l0.42,1.26c0,0,0.14-0.14,0.56-0.28c2.81-0.98,15.6-5.34,31.61-5.34c1.97,0,4.07,0,6.04,0.28c10.54,0.7,17,2.25,20.79,3.51
		c1.83,0.7,3.09,1.26,3.79,1.55c0.28,0.14,0.56,0.42,0.7,0.42l0.14,0.14l0,0l0.42-0.56l-0.56,0.56l0,0l0.42-0.56l-0.56,0.56
		l0.84-0.98l-1.26-0.28c0,0-0.14,0.42-0.28,1.12c-0.56,2.53-2.25,8.85-5.06,15.6s-6.74,13.91-11.66,17.84L396.4,253.55l0.98-0.84
		l0,0L396.4,253.55l1.26,0.56L396.4,253.55l-0.98,0.84l0,0l0.84,0.98l0.98-0.84c6.32-5.06,10.68-14.05,13.63-21.78
		c2.95-7.73,4.22-14.19,4.22-14.19l0.14-0.7l-0.56-0.56c-0.42-0.28-5.48-4.92-26.98-6.32c-2.11-0.14-4.22-0.28-6.32-0.28
		c-18.69,0-33.02,5.62-33.16,5.76l-1.12,0.42l0.42,1.26c1.26,3.65,1.69,7.73,1.69,11.66c0,6.74-1.41,13.49-2.81,18.55
		c-0.7,2.53-1.41,4.64-1.97,6.04c-0.28,0.7-0.42,1.26-0.7,1.69c-0.14,0.42-0.28,0.56-0.28,0.56l2.11,1.55
		c6.46-5.62,12.22-13.91,16.3-20.94c4.07-7.03,6.6-12.65,6.6-12.65l-1.26-0.56l0.28,1.26c6.88-1.41,12.65-1.83,17.28-1.83
		c4.64,0,8.29,0.42,10.68,0.84c1.12,0.28,2.11,0.42,2.67,0.56c0.28,0.14,0.56,0.14,0.7,0.14h0.14l0,0l0.42-1.26l-1.26,0.28
		c0.42,2.95,0.7,5.76,0.7,8.43c0,5.9-0.98,10.96-1.97,14.61c-0.42,1.83-0.98,3.23-1.41,4.22c-0.14,0.42-0.28,0.84-0.42,1.12
		l-0.14,0.28v0.14l-0.28,0.7l0.56,0.7L396.4,253.55z M382.64,300.2l0.84,1.12c4.36-3.23,6.74-7.59,8.01-11.66
		c1.26-4.07,1.41-7.73,1.41-9.69c0-0.84,0-1.26,0-1.26l-1.26,0.14l-1.26,0.56c1.69,3.93,2.81,8.85,2.81,13.21
		c0,1.55-0.14,3.09-0.56,4.5c-0.7,2.53-1.69,4.78-4.22,6.88c-2.53,1.97-6.74,3.65-13.91,4.22c-1.83,0.14-3.51,0.28-5.2,0.28
		c-5.48,0-9.69-0.84-12.65-1.69c-1.41-0.42-2.53-0.84-3.23-1.12c-0.42-0.14-0.56-0.28-0.84-0.42l-0.14-0.14l0,0l-0.7,1.12l0.98,0.98
		c3.51-3.51,6.6-9.55,8.99-14.75c2.39-5.2,3.93-9.55,3.93-9.69l-1.26-0.42l-1.26,0.28c1.12,4.5,1.55,8.01,1.55,10.68
		c0,2.25-0.28,3.93-0.56,5.06c-0.14,0.56-0.28,0.98-0.28,1.12l-0.14,0.28l0,0l0.14,0.14l-0.14-0.14l0,0l0.14,0.14l-0.14-0.14
		l-0.7,1.41l1.55,0.42c2.53,0.7,5.2,0.98,7.87,0.98c5.48,0,10.4-0.98,10.54-0.98L382.64,300.2l0.28,1.26l0,0h0.28l0.28-0.14
		L382.64,300.2l-0.28-1.26l0,0l0,0l0,0c0,0-0.28,0-0.84,0.14c-1.55,0.28-5.34,0.84-9.13,0.84c-2.53,0-5.06-0.28-7.03-0.84
		l-0.42,1.26l1.26,0.56c0.14-0.14,1.26-2.67,1.26-7.59c0-2.95-0.42-6.74-1.55-11.38l-1.12-4.22l-1.41,4.07c0,0-0.14,0.28-0.28,0.7
		c-0.7,1.69-2.39,6.04-4.5,10.68c-2.25,4.64-5.06,9.41-7.59,12.08l-1.26,1.26l1.55,0.84c0.14,0.14,6.74,3.65,18.27,3.65
		c1.69,0,3.51-0.14,5.34-0.28c7.45-0.7,12.22-2.39,15.32-4.78c3.09-2.39,4.5-5.48,5.2-8.29c0.42-1.55,0.56-3.37,0.56-5.06
		c0-4.78-1.26-9.98-3.09-14.33l-2.53,0.56v0.28c0,0.14,0,0.42,0,0.84c0,1.69-0.14,5.2-1.26,8.85s-3.23,7.59-7.03,10.4L382.64,300.2
		l-0.28-1.26L382.64,300.2z M405.54,297.81l-1.26,0.14c0.28,1.69,0.28,3.37,0.28,4.92c0,10.54-4.92,17.84-11.24,22.62
		c-6.32,4.92-14.19,7.17-19.67,7.03c-6.18,0-13.35-1.26-19.81-5.2c-6.46-3.93-12.22-10.26-15.46-20.65
		c-3.09-9.98-4.64-20.94-4.64-31.19c0-11.52,2.11-22.06,6.46-28.52l-1.12-0.7l-1.26-0.28c0,0-3.51,15.74-3.51,29.65
		c0,3.93,0.28,7.59,0.98,10.96c1.55,7.31,3.93,14.19,7.45,19.53c3.51,5.34,8.15,9.27,14.47,10.54c3.79,0.7,8.29,1.12,12.65,1.12
		c4.78,0,9.41-0.42,13.63-1.55c4.22-1.12,7.87-2.95,10.26-5.62c3.93-4.5,6.46-10.26,6.46-17.28c0-4.78-1.12-10.12-3.79-15.88
		c-3.79-8.43-9.55-18.13-9.41-27.82c0-6.88,2.67-13.91,11.1-21.36l-0.84-0.98l-0.98-0.84c-0.14,0.14-6.74,8.15-6.74,20.65
		c0,2.39,0.28,4.92,0.84,7.59c1.83,8.29,4.5,12.93,7.17,18.55c2.67,5.62,5.2,12.22,7.03,24.87L405.54,297.81l-1.26-0.42l0,0
		l-0.14,0.28v0.28L405.54,297.81l1.26,0.42l0,0l0.14-0.28v-0.28c-1.83-12.93-4.5-19.95-7.17-25.71c-2.67-5.76-5.34-10.12-7.03-17.98
		c-0.56-2.53-0.7-4.78-0.7-7.03c0-5.76,1.55-10.54,3.09-13.91c0.84-1.69,1.55-2.95,2.11-3.79c0.28-0.42,0.56-0.7,0.7-0.98l0.14-0.28
		l0,0l-1.97-1.83c-8.85,7.73-11.94,15.74-11.94,23.32c0,10.82,6.04,20.79,9.69,28.94c2.53,5.62,3.51,10.54,3.51,14.89
		c0,6.32-2.25,11.52-5.9,15.6c-1.83,2.11-5.06,3.79-8.99,4.78c-3.93,0.98-8.43,1.55-12.93,1.55c-4.22,0-8.57-0.42-12.22-1.12
		c-5.48-0.98-9.55-4.36-12.79-9.27c-3.23-4.92-5.48-11.52-7.03-18.69c-0.7-2.95-0.98-6.6-0.98-10.4c0-6.74,0.84-14.05,1.69-19.67
		c0.42-2.81,0.84-5.2,1.12-6.88c0.28-1.69,0.56-2.67,0.56-2.67l-2.39-0.98c-4.78,7.31-6.88,18.13-6.88,30.07
		c0,10.54,1.69,21.78,4.78,31.89c3.37,10.96,9.69,17.98,16.58,22.2c7.03,4.22,14.75,5.48,21.22,5.48c6.18,0,14.47-2.39,21.36-7.59
		c6.88-5.2,12.22-13.49,12.22-24.73c0-1.69-0.14-3.51-0.42-5.34L405.54,297.81l1.26,0.42L405.54,297.81z M324.04,192.29l0.14-1.26
		c-12.08-1.69-23.6-2.25-34-2.25c-31.05,0-52.97,5.48-52.97,5.48l0.28,1.26l0.42,1.26c24.59-8.01,47.77-10.12,65.76-10.12
		c9.69,0,17.98,0.7,23.89,1.26l0.14-1.26l-0.98-0.84c-1.69,1.97-2.95,4.07-3.93,5.9L324.04,192.29v-1.26l0,0V192.29l0.14-1.26
		L324.04,192.29v1.26l0,0h0.84l0.42-0.7c0.84-1.69,1.97-3.51,3.51-5.48l1.55-1.83l-2.39-0.28c-6.04-0.7-14.33-1.41-24.17-1.41
		c-18.13,0-41.59,2.25-66.6,10.26l0.7,2.53c0,0,0.28-0.14,0.98-0.28c4.5-0.98,24.45-5.2,51.42-5.2c10.4,0,21.78,0.56,33.58,2.25
		h0.14h0.14L324.04,192.29z M321.8,204.09l0.14-1.26c-5.76-0.42-11.38-0.56-16.86-0.56c-38.5,0-66.88,8.71-66.88,8.85l0.42,1.26
		l0.42,1.26c30.07-11.52,58.45-14.05,77.28-14.05c1.97,0,3.93,0,5.62,0.14v-1.26l-1.26-0.28c-0.28,1.41-0.42,2.67-0.42,3.79
		c0,0.84,0,1.83,0.14,2.53L321.8,204.09l1.12-0.84l0,0l-0.42-0.42h-0.56L321.8,204.09l-1.12,0.84l0,0l2.39-0.98
		c-0.14-0.7-0.14-1.41-0.14-2.25c0-0.98,0.14-2.11,0.28-3.23l0.28-1.55h-1.55c-1.83,0-3.79-0.14-5.76-0.14
		c-19.11,0-47.77,2.53-78.26,14.19l0.84,2.53c0,0,0.42-0.14,1.26-0.42c5.9-1.69,31.61-8.29,64.91-8.29c5.34,0,10.96,0.14,16.72,0.56
		L321.8,204.09l-1.12,0.84L321.8,204.09z M243.54,271.25l0.98-0.84c-9.41-11.52-11.52-25.15-11.52-35.27c0-4.22,0.42-7.87,0.7-10.4
		c0.14-1.26,0.42-2.25,0.56-2.95c0.14-0.28,0.14-0.56,0.14-0.84v-0.28l-1.26-0.28h-1.26c0,0.14,0.7,25.43,22.76,47.91
		c22.06,22.34,49.32,28.38,49.46,28.38l0.28-1.26l0.14-1.26c0,0-0.7,0-1.83-0.14c-4.22-0.42-15.03-1.55-26.56-5.06
		c-11.66-3.51-24.03-9.27-31.47-18.41l-0.42-0.56l-0.7,0.14L243.54,271.25l0.98-0.84L243.54,271.25l0.14,1.26l0,0L243.54,271.25
		l-0.98,0.84c9.27,11.24,24.73,17.28,37.8,20.65c13.21,3.37,24.03,3.93,24.03,3.93l0.42-2.67h-0.28
		c-2.95-0.7-27.68-7.17-47.77-27.54c-10.68-10.82-16.16-22.34-19.11-31.19c-1.41-4.36-2.11-8.15-2.53-10.82
		c-0.14-1.26-0.28-2.39-0.42-3.09c0-0.28,0-0.56,0-0.84v-0.28l-2.67-0.28c0,0.14-1.55,6.18-1.55,15.03
		c0,10.54,2.25,24.73,12.08,36.95l0.42,0.56l0.7-0.14L243.54,271.25z M338.94,176.55l-0.7-1.12c-2.53,1.69-4.64,3.37-6.46,5.06
		l0.84,0.98l0.28-1.26c-21.22-5.06-41.17-6.46-57.47-6.46c-23.04,0-38.36,2.95-38.5,2.95l0.28,1.26l0.28,1.26
		c19.53-5.2,38.08-6.74,53.81-6.74c14.05,0,25.85,1.26,34.14,2.67c4.07,0.7,7.45,1.26,9.55,1.83c1.12,0.28,1.97,0.42,2.53,0.56
		c0.56,0.14,0.84,0.28,0.84,0.28L338.94,176.55v-1.26l0,0h-0.42l-0.28,0.28L338.94,176.55v1.26l0,0l0.42-2.67
		c-0.14,0-19.39-5.34-47.91-5.34c-15.88,0-34.7,1.69-54.52,6.88l0.56,2.67c0,0,0.28,0,0.7-0.14c3.23-0.56,17.28-2.81,37.23-2.81
		c16.02,0,35.97,1.41,56.76,6.32l0.7,0.14l0.56-0.42c1.83-1.55,3.79-3.23,6.18-4.92L338.94,176.55v1.26V176.55z M299.32,149.86
		l0.42,1.26l0,0h0.14h0.14L299.32,149.86l0.56,1.26c0.56-0.28,9.98-4.22,21.5-4.22c3.09,0,6.46,0.28,9.84,0.98
		c7.87,1.83,14.33,5.34,18.69,8.57c2.25,1.55,3.93,3.09,5.06,4.07c0.56,0.56,0.98,0.98,1.26,1.26l0.28,0.28l0.14,0.14l0.98-0.84
		l0.42-1.26c-0.14,0-13.35-3.93-37.94-3.93c-1.26,0-2.67,0-4.07,0v1.26l1.12-0.56l-0.56,0.28l0.56-0.28l0,0l-0.56,0.28l0.56-0.28
		c0,0,0-0.14-0.14-0.56c0-0.7,0.28-2.11,1.69-4.22l0.98-1.55L318,150c-0.14,0-4.64-1.26-18.83-1.55L299.32,149.86l0.98,0.98l0,0
		l0.7-0.7l-0.42-0.84L299.32,149.86l0.42,1.26L299.32,149.86l-1.26,0.56l0,0L299.32,149.86l-0.98-0.98l0,0l-2.25,2.25h3.09
		c7.03,0.14,11.66,0.56,14.47,0.84c1.41,0.14,2.39,0.28,2.95,0.42c0.28,0,0.56,0.14,0.56,0.14h0.14l0,0l0.14-0.28l-0.14,0.28l0,0
		l0.14-0.28l-0.14,0.28l0.42-1.26l-1.12-0.7c-1.69,2.53-2.11,4.36-2.11,5.76c0,0.98,0.28,1.55,0.42,1.69l0.42,0.7h0.84
		c1.41,0,2.67,0,4.07,0c12.08,0,21.5,0.98,27.68,1.97c3.09,0.42,5.48,0.98,7.03,1.26c0.84,0.14,1.41,0.28,1.83,0.42l0.42,0.14h0.14
		l4.64,1.41l-3.23-3.51c-0.14-0.14-10.26-11.24-26.98-15.03c-3.51-0.84-7.03-1.12-10.4-1.12c-12.08,0-21.78,4.07-22.48,4.36l0,0l0,0
		L299.32,149.86l-0.42-1.26l0,0l-1.41,0.42l0.56,1.41L299.32,149.86z M418.75,154.35l0.28,1.26c1.12-0.28,2.39-0.28,3.51-0.28
		c6.32,0,11.94,3.37,14.75,5.9l0.84-0.98l0.28-1.26c0,0-4.22-0.84-9.55-0.84c-3.09,0-6.74,0.28-10.26,1.12
		c-3.51,0.84-6.88,2.25-9.55,4.78l0.84,0.98l1.26,0.14l0,0c0-0.42,0.28-2.53,1.41-4.5c1.12-2.11,2.95-4.07,6.32-4.78L418.75,154.35
		l0.14,1.26l0,0l0,0l0,0L418.75,154.35l-0.14-1.26l0,0l0,0l0,0c-4.64,0.84-7.17,3.93-8.43,6.74c-1.26,2.67-1.41,5.06-1.41,5.2
		l-0.14,3.23l2.39-2.25c2.25-1.97,5.2-3.37,8.29-4.07c3.23-0.84,6.6-0.98,9.55-0.98c2.53,0,4.92,0.14,6.46,0.42
		c0.84,0.14,1.55,0.14,1.97,0.28c0.42,0,0.7,0.14,0.7,0.14l4.5,0.84l-3.37-3.09c-3.23-2.95-9.27-6.6-16.58-6.6
		c-1.26,0-2.67,0.14-4.07,0.42L418.75,154.35l-0.14-1.26L418.75,154.35z M447.27,196.22c-0.28-1.83-0.84-3.37-1.55-4.78l-0.42-0.7
		h-0.84v1.26l0.84-0.98c-0.14-0.14-0.28-0.28-0.84-0.28v1.26l0.84-0.98l-0.84,0.98l1.12-0.7l-0.28-0.28l-0.84,0.98l1.12-0.7
		l-1.12,0.7l1.26-0.56l0-0.14l-1.12,0.7l1.26-0.56l-0.84,0.42l0.84-0.42l0,0l-0.84,0.42l0.84-0.42c-0.14-0.14-0.7-1.55-2.11-3.37
		l0,0l0,0c-1.41-1.69-2.81-2.95-4.07-4.22c-1.55-1.55-3.65-2.53-5.34-3.37c-1.69-0.7-2.95-1.12-2.95-1.12l-0.42,1.26l0.56-1.26l0,0
		l-1.41,2.25c3.23,2.53,5.62,5.9,5.9,10.82c0,0.42,0,0.7,0,1.12c0,7.45-3.79,12.65-7.87,16.16c-1.97,1.69-3.93,2.95-5.48,3.79
		c-0.7,0.42-1.41,0.7-1.83,0.84l-0.42,0.28h-0.14l0.42,1.26l0.7,1.12c1.97-1.41,4.5-3.93,6.6-7.59c2.11-3.65,3.65-8.15,3.65-13.49
		c0-1.26-0.14-2.67-0.28-4.07c-0.98-6.46-5.62-11.1-9.98-14.19c-4.22-2.95-8.15-4.5-8.29-4.5l-0.56-0.14l-0.42,0.28
		c0,0-4.64,1.97-9.84,5.9c-5.06,3.93-10.82,9.69-12.93,17.56l1.26,0.28h1.26l0,0c0-0.56-0.14-4.64-3.51-9.98
		s-9.98-11.66-22.62-16.58l-0.42,1.26l0.42,1.26c0,0,0.14,0,0.42-0.14c1.97-0.56,10.26-2.67,19.95-2.67c1.41,0,2.81,0,4.22,0.14
		c6.32,0.42,11.8,1.83,15.74,2.95c1.97,0.56,3.51,1.12,4.5,1.55c0.56,0.28,0.98,0.42,1.12,0.56l0.28,0.14h0.14l1.26,0.7l0.56-1.41
		l-0.56-0.14l0.56,0.28l0,0l-0.56-0.14l0.56,0.28c0,0,0.56-1.41,2.53-3.09c1.97-1.69,5.48-3.51,11.52-4.64
		c3.23-0.56,6.46-0.7,9.55-0.7c4.5,0,8.57,0.42,11.52,0.84c1.55,0.28,2.67,0.42,3.51,0.56c0.42,0.14,0.7,0.14,0.98,0.14h0.28
		l2.95,0.7l-1.41-2.53c-1.26-2.25-2.67-5.2-5.48-8.29c-2.81-3.09-6.88-6.18-13.49-8.85c-4.78-1.97-9.27-2.53-13.21-2.53
		c-7.03,0-11.94,1.97-12.08,2.11l0.56,1.26l1.26-0.14c0-0.28-1.12-6.88-10.68-13.07c-7.87-5.06-21.64-8.99-34.56-11.66
		c-12.93-2.67-24.73-4.36-28.8-4.5c-0.28,0-0.56,0-0.84,0c-0.56,0-0.98,0-1.55,0.14c-0.28,0.14-0.56,0.14-0.84,0.42
		s-0.56,0.7-0.56,1.12c0,0.56,0.14,0.84,0.42,0.98c0.28,0.42,0.7,0.7,0.98,0.98c1.41,0.98,3.65,1.97,6.04,3.09
		c2.39,1.12,5.06,2.39,6.6,3.23c2.95,1.69,6.18,3.93,8.57,6.46c2.39,2.53,4.07,5.2,4.36,7.59l0,0v0.56c0,0.98-0.28,1.83-0.7,2.53
		l1.12,0.7l1.26-0.42c-0.56-1.83-1.83-3.93-3.93-6.46c-5.2-6.74-13.91-11.52-23.6-14.61c-9.84-3.23-20.79-4.78-30.91-4.78
		c-2.11,0-4.07,0-6.04,0.14c-21.08,1.41-37.66,9.41-37.8,9.41l-0.84,0.42l0.14,0.98l0.56-0.14h-0.56v0.14l0.56-0.14h-0.56h0.42
		l-0.42-0.14v0.14h0.42l-0.42-0.14l0,0c0,0.14-0.56,0.98-1.69,1.83c-3.37,2.53-11.66,6.32-26.56,7.87c-4.64,0.56-8.99,0.7-12.93,0.7
		c-6.88,0-12.65-0.56-17.28-1.26c-4.64-0.7-8.01-1.41-10.12-1.69l-0.14,1.26l0.28-1.26l-0.42-0.14l0,0l0,0
		c-0.56-0.14-1.12-0.14-1.69-0.14c-0.84,0-1.55,0.14-2.25,0.42c-0.7,0.28-1.41,0.98-1.69,1.83l0,0l-0.14,0.28v0.14v0.42l0,0l0,0
		v0.28c0,0.7,0.14,1.41,0.42,1.97c0.14,0.56,0.28,0.84,0.28,0.98l1.26-0.56l1.12-0.56l-0.28-0.56l-2.39,1.26
		c1.55,2.95,10.4,19.25,22.34,27.96l0.42,0.28l0.56-0.14c0,0,0.42-0.14,1.26-0.28c2.39-0.42,7.73-1.41,13.91-2.11l-0.14-1.26
		l-0.56-1.26c0,0-32.04,15.6-70.53,43.28S70.43,280.11,44.44,329l-1.26,2.25l2.53-0.28c14.19-1.69,31.33-2.95,50.16-2.95
		c10.82,0,22.2,0.42,33.86,1.41l0.28-2.67h-0.28l0,0h-0.14v1.26l1.12,0.7c1.12-1.97,3.51-6.18,7.17-11.66
		c11.1-16.72,34.42-46.09,75.73-66.04l-0.56-1.26l-0.7-1.12c-0.14,0.14-41.31,28.8-56.06,82.62l-0.42,1.41l1.41,0.28
		c18.41,3.09,37.37,8.01,55.78,15.17c58.87,22.9,108.89,47.07,165.23,47.07c0.56,0,1.12,0,1.69,0l0,0l11.52-0.56l-0.84-1.83l0,0l0,0
		c-15.17-31.47-30.07-45.95-30.07-46.09l-0.98,0.98l-0.28,1.26c2.81,0.56,5.34,0.7,7.87,0.7c3.79,0,7.17-0.42,9.41-0.98
		c2.39-0.42,3.65-0.98,3.93-0.98l-0.42-1.26l0.42,1.26c0.84-0.28,1.69-0.7,2.25-0.98l0,0l0,0c9.55-5.06,15.17-12.08,18.55-19.25
		c3.37-7.17,4.5-14.61,5.34-20.65c0.42-3.65,0.7-7.03,0.7-9.98c0-8.43-1.41-13.35-1.41-13.49l-1.26,0.42l1.12,0.84
		c0,0,8.01-10.54,17.14-25.29c9.13-14.75,19.11-33.58,23.32-50.44l-1.26-0.28l1.26,0.42c0-0.14,1.26-3.79,1.26-8.57
		C447.69,199.03,447.55,197.63,447.27,196.22l-2.67,0.42c0.28,1.26,0.28,2.53,0.28,3.79c0,2.11-0.28,4.07-0.56,5.48
		c-0.14,0.7-0.28,1.26-0.42,1.69l-0.14,0.42v0.14l0,0l0,0c-4.07,16.3-14.05,34.99-23.04,49.6c-4.5,7.31-8.71,13.63-11.8,17.98
		c-1.55,2.25-2.81,3.93-3.79,5.2c-0.84,1.26-1.41,1.83-1.41,1.83l-0.42,0.56l0.14,0.7v0.14c0.28,0.98,1.26,5.48,1.26,12.65
		c0,2.81-0.14,6.04-0.56,9.69c-0.7,6.04-1.83,13.07-5.06,19.95c-3.23,6.74-8.43,13.21-17.42,18.13l0.7,1.12l-0.56-1.26
		c-0.56,0.28-1.26,0.56-2.11,0.84l0,0l0,0l0,0c-0.28,0.14-5.34,1.83-12.36,1.83c-2.25,0-4.78-0.14-7.31-0.7l-4.36-0.84l3.09,3.09
		l0.14,0.14c1.55,1.55,15.46,15.88,29.37,45.1l1.26-0.56l-1.26,0.56l0,0l1.26-0.56v-1.26l-9.69,0.42v1.26v-1.26
		c-0.56,0-1.12,0-1.69,0c-55.5,0-105.24-23.89-164.25-46.93c-18.69-7.31-37.66-12.08-56.34-15.32l0.14,1.55l1.26,0.42
		c7.17-26.41,20.94-46.65,33.02-60.42c6.04-6.88,11.52-12.08,15.6-15.46c1.97-1.69,3.65-3.09,4.78-3.93
		c0.56-0.42,0.98-0.7,1.26-0.98s0.42-0.28,0.42-0.28l-1.41-2.25c-27.96,13.49-47.77,31.19-61.12,46.65
		c-6.74,7.73-11.8,14.75-15.6,20.37c-3.79,5.62-6.04,9.84-7.17,11.8l-1.26,1.97h2.25h0.14l0.14-1.26l0.14-1.26
		c-11.8-0.98-23.32-1.41-34.14-1.41c-18.97,0-36.11,1.26-50.44,2.95l0.14,1.26l1.12,0.56c25.71-48.19,70.39-87.96,108.61-115.49
		c19.11-13.77,36.67-24.59,49.46-31.89c6.32-3.65,11.52-6.46,15.17-8.29c1.83-0.98,3.23-1.69,4.07-2.11c0.98-0.42,1.41-0.7,1.41-0.7
		l-0.7-2.53c-8.29,0.84-15.32,2.39-15.32,2.39l0.28,1.26l0.84-1.12c-11.24-8.01-20.09-24.31-21.5-26.98l-2.39,1.26l0.28,0.56
		l2.39-1.12l0,0c-0.14-0.14-0.42-1.26-0.42-1.83v-0.14l-1.26-0.14l1.26,0.14v-0.14v-0.14l-1.26-0.42l1.26,0.56
		c0.14-0.28,0.28-0.42,0.42-0.56c0.28-0.14,0.56-0.14,1.12-0.14c0.42,0,0.84,0,1.41,0.14l0.14-1.26l-0.28,1.26l0.42,0.14l0,0l0,0
		c1.97,0.28,5.48,0.98,10.12,1.69c4.78,0.7,10.68,1.26,17.7,1.26c4.07,0,8.57-0.14,13.21-0.7c10.82-1.26,18.41-3.51,23.18-5.76
		c2.39-1.12,4.22-2.25,5.34-3.37c0.56-0.56,1.12-0.98,1.41-1.55c0.28-0.56,0.56-0.98,0.56-1.69v-0.28L262.5,133l0.56,1.26
		c0,0,0.28-0.14,0.7-0.28c3.37-1.55,18.13-7.59,36.11-8.85c1.97-0.14,3.79-0.14,5.9-0.14c9.84,0,20.51,1.55,30.07,4.64
		c9.55,3.09,17.7,7.73,22.34,13.77c1.97,2.53,2.95,4.36,3.51,5.76l0.84,2.67l1.55-2.39c0.7-1.12,1.12-2.53,1.12-3.93
		c0-0.28,0-0.56,0-0.84l0,0c-0.42-3.37-2.39-6.32-5.06-9.13c-2.67-2.67-6.04-5.2-9.13-6.88c-2.25-1.26-5.62-2.81-8.43-4.07
		c-1.41-0.7-2.67-1.26-3.51-1.83c-0.42-0.28-0.7-0.42-0.98-0.56l-0.14-0.14l0,0l-0.7,0.56h0.84c0-0.42-0.14-0.56-0.14-0.56
		l-0.7,0.56h0.84h-1.12l0.7,0.84c0.14-0.14,0.42-0.56,0.42-0.84h-1.12l0.7,0.84l-0.56-0.56l0.28,0.7l0.28-0.14l-0.56-0.56l0.28,0.7
		v-0.14v0.14l0,0v-0.14v0.14c0,0,0.28,0,0.7,0c0.14,0,0.42,0,0.7,0c3.65,0.14,15.6,1.69,28.38,4.5c12.79,2.67,26.41,6.6,33.58,11.24
		c4.5,2.95,6.88,5.76,8.15,7.87c0.56,1.12,0.98,1.97,1.12,2.53c0.14,0.28,0.14,0.56,0.14,0.7v0.14l0,0l0.42-0.14h-0.42l0,0
		l0.42-0.14h-0.42l0.28,1.69l1.55-0.7l0,0c0.42-0.14,4.92-1.83,10.96-1.83c3.65,0,7.87,0.56,12.22,2.39
		c6.18,2.53,9.98,5.48,12.5,8.15c2.53,2.81,3.79,5.48,5.06,7.87l1.12-0.7l0.28-1.26c0,0-7.73-1.69-17-1.69
		c-3.23,0-6.6,0.14-9.98,0.84c-6.6,1.12-10.54,3.37-12.93,5.34c-2.39,1.97-3.09,3.79-3.23,3.93l1.26,0.42l0.56-1.26
		c-0.14,0-9.55-4.64-22.76-5.48c-1.55-0.14-2.95-0.14-4.36-0.14c-11.38,0-21.08,2.95-21.08,2.95l-3.65,1.12l3.65,1.41
		c12.22,4.78,18.27,10.68,21.36,15.46c3.09,4.78,3.09,8.43,3.09,8.57l0,0l2.67,0.42c1.83-6.88,7.03-12.36,11.94-16.16
		c2.39-1.83,4.78-3.23,6.46-4.22c0.84-0.42,1.55-0.84,2.11-1.12c0.28-0.14,0.42-0.14,0.56-0.28l0.14-0.14l-0.56-1.26l-0.42,1.26
		h0.14c0.84,0.28,4.5,1.83,8.29,4.64c3.65,2.81,7.31,6.74,8.15,11.8c0.14,1.26,0.28,2.53,0.28,3.65c0,4.78-1.41,8.85-3.37,12.08
		c-1.83,3.23-4.22,5.62-5.76,6.74l1.26,2.39c0.14,0,4.36-1.69,8.71-5.48c4.36-3.79,8.71-9.69,8.71-18.13c0-0.42,0-0.84,0-1.26
		c-0.28-5.9-3.23-10.12-6.88-12.93l-0.84,1.12l-0.56,1.26l0,0h0.14h0.14h0.14c0.98,0.28,4.92,1.83,7.03,3.79
		c1.26,1.26,2.67,2.39,3.79,3.93l0.98-0.84l-1.12,0.84c0.7,0.84,1.12,1.69,1.41,2.11c0.14,0.28,0.28,0.42,0.28,0.56v0.14l0,0l0,0
		l0,0v0.14l0.14,0.14l0.14,0.14c0.14,0.14,0.28,0.28,0.84,0.28v-1.26l-1.26,0.56c0.56,1.12,0.98,2.53,1.26,4.07L447.27,196.22
		L447.27,196.22z"/>
	<path id="XMLID_40_" class="st1" d="M510.07,217.72c-18.69-10.26-40.04-13.35-56.34-14.05h-0.14h0.14
		c0.56-2.11,1.41-4.64,2.11-7.59c0.42,0,0.56,0,0.56,0c32.74-1.12,49.88,7.59,49.88,7.59l-1.69-1.26
		c-15.88-7.45-32.74-10.12-47.35-10.54h-0.56c0.56-2.25,1.12-6.88,1.26-6.88h0.28c25.15,0.28,38.92,6.18,38.92,6.18l-1.69-1.26
		c-12.5-5.34-25.29-7.73-37.09-8.57c0-4.64-0.7-8.43-2.53-11.8c9.27-8.01,12.65-20.23,13.07-25.01l0,0l0,0l0.14-0.7v-0.28v-0.42
		v-0.28v-0.42v-0.28l-0.14-0.42v-0.14l-0.14-0.28l-0.14-0.14l-0.14-0.28l-0.14-0.14l-0.28-0.28l-0.14-0.14l-0.28-0.14l-0.14-0.14
		l-0.28-0.14h-0.14l-0.28-0.14h-0.14l-0.28-0.14h-0.14h-0.28h-0.14h-0.28l0,0h-0.14l0,0h-0.14c-15.88,0.14-28.94-5.2-28.94-5.2
		c-0.42-0.14-0.7-0.28-1.12-0.42c-35.41-12.93-72.22-16.72-104.82-16.02l0,0c-14.61,0.14-25.29,1.26-25.29,1.26
		c-46.93,3.93-80.65,15.17-80.65,15.17s-12.79,3.65-29.79,2.81c0,0-6.32-0.14-7.59,3.93c-1.12,2.53-1.26,5.62,1.12,12.22
		c2.81,7.73,13.91,22.2,13.91,22.34C168.51,189.34,80.97,238.38,2.57,337.15c0,0,16.58-4.36,42.57-7.31l0,0
		c52.27-97.23,179.99-159.33,179.99-159.33c-8.29,0.84-15.17,2.39-15.17,2.39c-11.66-8.43-20.51-24.59-21.92-27.54l0.28,0.56
		c0,0-0.7-1.55-0.56-2.53v-0.28l0.14-0.28c0.7-1.55,2.25-1.69,4.36-1.41l0.42,0.14c5.34,0.84,19.95,4.64,40.75,2.25
		c21.78-2.39,29.65-9.13,29.51-10.96c0,0,16.58-7.87,37.37-9.27c20.79-1.41,48.47,4.64,59.43,18.69c1.97,2.53,3.09,4.64,3.65,6.18
		c0.7-1.12,0.98-2.39,0.84-3.93c-0.56-5.62-7.45-11.52-13.63-15.03c-5.34-3.09-18.83-8.01-11.1-7.59
		c7.73,0.42,47.63,6.18,62.67,16.02c9.27,6.04,10.12,12.22,10.12,12.22s11.38-4.78,24.17,0.56c12.79,5.2,15.74,11.94,18.27,16.58
		c0,0-1.41-13.49-12.93-22.2c0,0,2.81,0,7.31-0.42h0.14c0.56,0,0.98-0.14,1.55-0.14h0.42h0.56l0,0c3.51-0.28,7.73-0.84,12.22-1.69
		c3.09-0.28,4.5-0.14,5.34,1.97l0,0l-0.14,0.56c-0.14,0.28-0.14,0.56-0.28,0.7c0,0-4.78,14.19-13.63,20.65l-0.56,0.56
		c0,0-13.77-3.09-26.41-0.98s-15.03,8.43-15.03,8.43s15.46,5.62,17.28,17.56c1.97,11.94-5.48,21.08-9.41,23.75
		c0,0,17.28-6.74,16.44-23.6c-0.28-5.48-2.95-9.27-6.46-11.8l0,0c0,0,4.92,1.55,7.73,4.22c1.26,1.26,2.67,2.39,3.93,4.07
		c1.41,1.97,1.97,3.09,1.97,3.09c0.56,1.26,1.12,2.67,1.41,4.5c1.12,6.18-0.84,12.08-0.84,12.08
		c-8.15,33.16-40.18,75.17-40.18,75.17l0,0c24.17-20.65,40.32-57.33,47.49-75.73c38.22,0.42,59.15,11.1,59.15,11.1L510.07,217.72"/>
	<path id="XMLID_41_" class="st1" d="M510.78,216.46c-18.97-10.4-40.47-13.49-56.9-14.19l0,0h-0.14l0.14,2.67h0.14H455l0.28-0.98
		c0.56-2.11,1.41-4.78,2.11-7.59l-1.26-0.28l0.14,1.26c0.42,0,0.7,0,0.7,0l-0.14-1.26v1.26c1.83,0,3.79-0.14,5.48-0.14
		c14.47,0,25.43,1.97,32.74,3.79c3.65,0.98,6.46,1.83,8.29,2.53c0.98,0.28,1.55,0.7,2.11,0.84l0.56,0.28l0.14,0.14l1.41-2.25
		l-1.69-1.26l-0.14-0.14h-0.14c-16.16-7.45-33.16-10.26-47.77-10.68l0,0h-0.56v1.26l1.26,0.28c0.28-1.12,0.56-2.95,0.84-4.36
		c0.14-0.7,0.28-1.41,0.28-1.83l0.14-0.42l0,0l-0.56-0.14l0.56,0.28v-0.14l-0.56-0.14l0.56,0.28l-1.12-0.42l0.98,0.7l0.14-0.28
		l-1.12-0.42l0.98,0.7l-1.12-0.7l0.84,0.98l0.28-0.28l-1.12-0.7l0.84,0.98l-0.84-1.12v1.26c0.42,0,0.7-0.14,0.84-0.28l-0.84-1.12
		v1.26v-1.26v1.26h0.28l0,0l0,0c12.5,0.14,22.06,1.69,28.52,3.23c3.23,0.7,5.76,1.55,7.31,2.11c0.84,0.28,1.41,0.56,1.83,0.7
		l0.42,0.14h0.14l1.41-2.25l-1.69-1.26l-0.14-0.14h-0.14c-12.65-5.34-25.57-7.87-37.66-8.57l-0.14,1.26h1.26v-0.56
		c0-4.5-0.84-8.43-2.67-11.8l-1.12,0.56l0.84,0.98c4.78-4.22,8.01-9.41,10.12-14.19c2.11-4.78,3.09-9.13,3.37-11.66l-1.26-0.14
		l0.98,0.98l0,0l0.42-0.42v-0.42l0.14-0.56l0,0v-0.28l0,0v-0.56l0,0v-0.28l0,0v-0.42l0,0v-0.28v-0.14l-0.14-0.42l0,0l-0.14-0.28l0,0
		l-0.14-0.42l0,0l-0.14-0.14l0,0l-0.28-0.28l0,0l-0.14-0.14l0,0l-0.28-0.28l0,0l-0.14-0.14l0,0l-0.28-0.28l0,0l-0.14-0.14l0,0
		l-0.28-0.14h-0.14h-0.14l-0.28-0.14l0,0h-0.14l0,0l-0.28-0.14l0,0h-0.14l0,0l-0.28-0.14l0,0h-0.14h-0.28l0,0l0,0h-0.28l0,0l0,0
		h-0.28l0,0l0,0c-0.28,0-0.42,0-0.7,0c-7.59,0-14.61-1.26-19.67-2.53c-2.53-0.7-4.5-1.26-5.9-1.83c-0.7-0.28-1.26-0.42-1.55-0.56
		c-0.42-0.14-0.56-0.28-0.56-0.28l0,0l0,0c-0.42-0.14-0.7-0.28-1.12-0.42l0,0c-33.3-12.22-67.58-16.16-98.77-16.16
		c-2.25,0-4.36,0-6.6,0v1.26l1.26-0.42l0,0l-0.28-0.98h-0.98c-14.61,0.14-25.43,1.41-25.43,1.41l0.14,1.26l-0.14-1.26
		c-47.07,3.93-80.93,15.32-80.93,15.32l0.42,1.26l-0.42-1.26c0,0-0.14,0-0.42,0.14c-2.11,0.56-11.38,2.67-23.75,2.67
		c-1.69,0-3.37,0-5.2-0.14l0,0l0,0h-0.14c-0.42,0-2.11,0-3.93,0.56c-0.98,0.28-1.97,0.7-2.81,1.41c-0.84,0.7-1.69,1.69-2.11,2.95
		l1.26,0.42l-1.26-0.56c-0.56,1.26-0.84,2.53-0.84,4.22c0,2.25,0.56,5.06,1.97,8.99c1.55,4.07,4.92,9.69,8.15,14.33
		c3.09,4.64,5.9,8.29,6.04,8.29l1.12-0.84l-0.56-1.26c-33.86,13.77-121.4,62.95-200.08,161.86l-2.53,3.09l3.79-0.98
		c0,0,0.28,0,0.7-0.14c3.51-0.84,18.97-4.5,41.73-7.17l1.12-0.14v-1.12h-1.26l1.12,0.56c25.71-48.19,70.39-87.96,108.61-115.49
		c19.11-13.77,36.67-24.59,49.46-31.89c6.32-3.65,11.52-6.46,15.17-8.29c1.83-0.98,3.23-1.69,4.07-2.11c0.98-0.42,1.41-0.7,1.41-0.7
		l-0.7-2.53c-8.29,0.84-15.32,2.39-15.32,2.39l0.28,1.26l0.84-1.12c-11.24-8.01-20.09-24.31-21.5-26.98l-2.39,1.26l0.28,0.56
		l2.39-1.12l0,0c-0.14-0.14-0.42-1.26-0.42-1.83v-0.14l-1.26-0.14l1.26,0.14v-0.14v-0.14l-1.26-0.42l1.26,0.56
		c0.14-0.28,0.28-0.42,0.42-0.56c0.28-0.14,0.56-0.14,1.12-0.14c0.42,0,0.84,0,1.41,0.14l0.14-1.26l-0.28,1.26l0.42,0.14l0,0l0,0
		c1.97,0.28,5.48,0.98,10.12,1.69c4.78,0.7,10.68,1.26,17.7,1.26c4.07,0,8.57-0.14,13.21-0.7c10.82-1.26,18.41-3.51,23.18-5.76
		c2.39-1.12,4.22-2.25,5.34-3.37c0.56-0.56,1.12-0.98,1.41-1.55c0.28-0.56,0.56-0.98,0.56-1.69v-0.28l-1.26,0.14l0.56,1.26
		c0,0,0.28-0.14,0.7-0.28c3.37-1.55,18.13-7.59,36.11-8.85c1.97-0.14,3.79-0.14,5.9-0.14c9.84,0,20.51,1.55,30.07,4.64
		c9.55,3.09,17.7,7.73,22.34,13.77c1.97,2.53,2.95,4.36,3.51,5.76l0.84,2.67l1.55-2.39c0.7-1.12,1.12-2.53,1.12-3.93
		c0-0.28,0-0.56,0-0.84l0,0c-0.42-3.37-2.39-6.32-5.06-9.13c-2.67-2.67-6.04-5.2-9.13-6.88c-2.25-1.26-5.62-2.81-8.43-4.07
		c-1.41-0.7-2.67-1.26-3.51-1.83c-0.42-0.28-0.7-0.42-0.98-0.56l-0.14-0.14l0,0l-0.7,0.56h0.84c0-0.42-0.14-0.56-0.14-0.56
		l-0.7,0.56h0.84h-1.12l0.7,0.84c0.14-0.14,0.42-0.56,0.42-0.84h-1.12l0.7,0.84l-0.56-0.56l0.28,0.7l0.28-0.14l-0.56-0.56l0.28,0.7
		v-0.14V124l0,0v-0.14V124c0,0,0.28,0,0.7,0c0.28,0,0.42,0,0.7,0c3.65,0.14,15.6,1.69,28.38,4.5c12.79,2.67,26.41,6.6,33.58,11.24
		c4.5,2.95,6.88,5.76,8.15,7.87c0.56,1.12,0.98,1.97,1.12,2.53c0.14,0.28,0.14,0.56,0.14,0.7v0.14l0,0l0.42-0.14h-0.42l0,0
		l0.42-0.14h-0.42l0.28,1.69l1.55-0.7l0,0c0.42-0.14,4.92-1.83,10.96-1.83c3.65,0,7.87,0.56,12.22,2.39
		c6.18,2.53,9.98,5.48,12.5,8.15c2.53,2.81,3.79,5.48,5.06,7.87l2.53-0.84c0-0.14-1.41-14.05-13.35-23.18l-0.84,1.12v1.26
		c0,0,2.95,0,7.45-0.42h0.28l0,0c0.56,0,0.98-0.14,1.55-0.14l0,0h0.42h0.56l2.81-0.28l-2.11-1.97l-0.98,0.98l0.14,1.26
		c3.51-0.42,7.73-0.84,12.22-1.83l-0.28-1.26l0.14,1.26c0.7,0,1.26-0.14,1.69-0.14c0.84,0,1.41,0.14,1.55,0.28
		c0.28,0.14,0.42,0.28,0.7,0.98l0,0l0,0l1.26-0.42l-1.26-0.42l-0.14,0.56l1.26,0.42l-1.26-0.42l-0.28,0.7l0,0l0,0
		c0,0,0,0.14-0.14,0.56c-0.56,1.41-1.83,4.92-4.07,8.71c-2.25,3.93-5.2,8.01-8.85,10.68l0,0l-0.56,0.56l0.84,0.98l0.28-1.26
		c0,0-7.73-1.69-17-1.69c-3.23,0-6.6,0.14-9.98,0.84c-6.6,1.12-10.54,3.37-12.93,5.34c-2.39,1.97-3.09,3.79-3.23,3.93l-0.42,1.26
		l1.26,0.42h0.14c0.84,0.28,4.5,1.83,8.29,4.64c3.65,2.81,7.31,6.74,8.15,11.8c0.14,1.26,0.28,2.53,0.28,3.65
		c0,4.78-1.41,8.85-3.37,12.08c-1.83,3.23-4.22,5.62-5.76,6.74l1.26,2.39c0.14,0,4.36-1.69,8.71-5.48
		c4.36-3.79,8.71-9.69,8.71-18.13c0-0.42,0-0.84,0-1.26c-0.28-5.9-3.23-10.12-6.88-12.93l-0.84,1.12l-0.56,1.26l0,0h0.14h0.14h0.14
		c0.98,0.28,4.92,1.83,7.03,3.79c1.26,1.26,2.67,2.39,3.79,3.93l0.98-0.84l-1.12,0.84c0.7,0.84,1.12,1.69,1.41,2.11
		c0.14,0.28,0.28,0.42,0.28,0.56v0.14l0,0l0,0l0,0v0.14l0.14,0.14l0.14,0.14c0.14,0.14,0.28,0.28,0.84,0.28v-1.26l-1.26,0.56
		c0.56,1.12,0.98,2.53,1.26,4.07c0.28,1.26,0.28,2.53,0.28,3.79c0,2.11-0.28,4.07-0.56,5.48c-0.14,0.7-0.28,1.26-0.42,1.69
		l-0.14,0.42v0.14l0,0l0,0c-3.93,16.3-14.05,34.99-23.04,49.6c-4.5,7.31-8.71,13.63-11.8,17.98c-1.55,2.25-2.81,3.93-3.79,5.2
		c-0.84,1.26-1.41,1.83-1.41,1.83l1.83,1.83l0,0l0,0l0,0c24.59-20.94,40.75-57.75,47.77-76.15l-1.26-0.42v1.26
		c18.97,0.14,33.58,2.95,43.56,5.62c4.92,1.41,8.71,2.67,11.24,3.65c1.26,0.56,2.25,0.84,2.81,1.12c0.28,0.14,0.56,0.28,0.7,0.28
		l0.28,0.14l1.55-2.11l-1.41-1.41l-1.97,1.83l1.41,1.41l0.98-0.98l0.56-1.12c-0.14-0.14-21.22-10.82-59.71-11.24h-0.98l-0.28,0.84
		c-7.03,18.41-23.18,54.8-47.07,75.17l0.84,0.98l-0.84-1.12l0,0l0.84,1.12l1.12,0.84c0,0,8.01-10.54,17.14-25.29
		c9.13-14.75,19.11-33.58,23.32-50.44l-1.26-0.28l1.26,0.42c0-0.14,1.26-3.79,1.26-8.57c0-1.41-0.14-2.81-0.42-4.22
		c-0.28-1.83-0.84-3.37-1.55-4.78l-0.42-0.7h-0.84v1.26l0.84-0.98c-0.14-0.14-0.28-0.28-0.84-0.28v1.26l0.84-0.98l-0.84,0.98
		l1.12-0.7l-0.28-0.28l-0.84,0.98l1.12-0.7l-1.12,0.7l1.26-0.56l0.56,0.14l-1.12,0.7l1.26-0.56l-0.84,0.42l0.98-0.42l0,0l-0.84,0.42
		l0.98-0.42c-0.14-0.14-0.7-1.55-2.11-3.37l0,0l0,0c-1.41-1.69-2.81-2.95-4.07-4.22c-1.55-1.55-3.65-2.53-5.34-3.37
		c-1.69-0.7-2.95-1.12-2.95-1.12l-0.42,1.26l0.56-1.26l0,0l-1.41,2.25c3.23,2.53,5.62,5.9,5.9,10.82c0,0.42,0,0.7,0,1.12
		c0,7.45-3.79,12.65-7.87,16.16c-1.97,1.69-3.93,2.95-5.48,3.79c-0.7,0.42-1.41,0.7-1.83,0.84l-0.42,0.28h-0.14l0.42,1.26l0.7,1.12
		c1.97-1.41,4.5-3.93,6.6-7.59c2.11-3.65,3.65-8.15,3.65-13.49c0-1.26-0.14-2.67-0.28-4.07c-0.98-6.46-5.62-11.1-9.98-14.19
		c-4.22-2.95-8.15-4.5-8.29-4.5l-0.42,1.26l1.26,0.42l-0.56-0.14l0.56,0.28l0,0l-0.56-0.14l0.56,0.28c0,0,0.56-1.41,2.53-3.09
		s5.48-3.51,11.52-4.64c3.23-0.56,6.46-0.7,9.55-0.7c4.5,0,8.57,0.42,11.52,0.84c1.55,0.28,2.67,0.42,3.51,0.56
		c0.42,0.14,0.7,0.14,0.98,0.14h0.28l0.7,0.14l1.12-0.98l-0.84-0.98l0.84,1.12c4.78-3.37,8.15-8.71,10.54-13.21
		c2.39-4.5,3.51-8.15,3.51-8.15l-1.26-0.42l1.26,0.56c0.14-0.28,0.28-0.56,0.28-0.84l0,0l0.14-0.56l0.14-0.42l-0.14-0.42l-1.26,0.42
		l1.26-0.42c-0.28-0.98-0.98-1.97-1.83-2.39c-0.84-0.56-1.83-0.56-2.95-0.56c-0.56,0-1.26,0-1.83,0.14h-0.14h-0.14
		c-4.5,0.84-8.57,1.41-12.08,1.69l-2.81,0.28l2.11,1.97l0.98-0.98l-0.14-1.26h-0.56l0,0h-0.42l0,0l0,0c-0.56,0-0.98,0.14-1.55,0.14
		l0,0h-0.14l0,0c-2.25,0.14-4.07,0.28-5.34,0.28c-1.26,0-1.97,0-1.97,0h-3.93l3.09,2.39c5.48,4.22,8.57,9.55,10.4,13.77
		c0.84,2.11,1.41,4.07,1.69,5.34c0.14,0.7,0.28,1.26,0.28,1.55v0.42V167l1.26-0.14l1.12-0.7c-1.26-2.25-2.67-5.2-5.48-8.29
		c-2.81-3.09-6.88-6.18-13.49-8.85c-4.78-1.97-9.27-2.53-13.21-2.53c-7.03,0-11.94,1.97-12.08,2.11l0.56,1.26l1.26-0.14
		c0-0.28-1.12-6.88-10.68-13.07c-7.87-5.06-21.64-8.99-34.56-11.66c-12.93-2.67-24.73-4.36-28.8-4.5c-0.28,0-0.56,0-0.84,0
		c-0.56,0-0.98,0-1.55,0.14c-0.28,0.14-0.56,0.14-0.84,0.42c-0.28,0.28-0.56,0.7-0.56,1.12c0,0.56,0.14,0.84,0.42,0.98
		c0.28,0.42,0.7,0.7,0.98,0.98c1.41,0.98,3.65,1.97,6.04,3.09c2.39,1.12,5.06,2.39,6.6,3.23c2.95,1.69,6.18,3.93,8.57,6.46
		c2.39,2.53,4.07,5.2,4.36,7.59l0,0v0.56c0,0.98-0.28,1.83-0.7,2.53l1.12,0.7l1.26-0.42c-0.56-1.83-1.83-3.93-3.93-6.46
		c-5.2-6.74-13.91-11.52-23.6-14.61c-9.84-3.23-20.79-4.78-30.91-4.78c-2.11,0-4.07,0-6.04,0.14c-21.08,1.41-37.66,9.41-37.8,9.41
		l-0.84,0.42l0.14,0.98h0.56h-0.56l0,0h0.56h-0.56h0.42l-0.42-0.14V133h0.42l-0.42-0.14l0,0c0,0.14-0.56,0.98-1.69,1.83
		c-3.37,2.53-11.66,6.32-26.56,7.87c-4.64,0.56-8.99,0.7-12.93,0.7c-6.88,0-12.65-0.56-17.28-1.26c-4.64-0.7-8.01-1.41-10.12-1.69
		l-0.14,1.26l0.28-1.26l-0.42-0.14l0,0l0,0c-0.56-0.14-1.12-0.14-1.69-0.14c-0.84,0-1.55,0.14-2.25,0.42
		c-0.7,0.28-1.41,0.98-1.69,1.83l0,0l-0.14,0.28v0.14v0.42l0,0l0,0v0.28c0,0.7,0.14,1.41,0.42,1.97c0.14,0.56,0.28,0.84,0.28,0.98
		l1.26-0.56l1.12-0.56l-0.28-0.56l-2.39,1.26c1.55,2.95,10.4,19.25,22.34,27.96l0.42,0.28l0.56-0.14c0,0,0.42-0.14,1.26-0.28
		c2.39-0.42,7.73-1.41,13.91-2.11l-0.14-1.26l-0.56-1.26c0,0-32.04,15.6-70.53,43.28S70.57,279.97,44.58,328.86l-0.14,0.28v0.28
		h1.26l-0.14-1.26c-26.13,3.09-42.71,7.45-42.85,7.45l0.28,1.26l0.98,0.84c78.26-98.49,165.66-147.39,198.95-161.02l1.69-0.7
		l-1.12-1.41c0,0-2.81-3.65-5.9-8.29c-3.09-4.5-6.6-10.12-7.87-13.63c-1.41-3.79-1.83-6.32-1.83-8.15c0-1.26,0.28-2.25,0.7-3.23l0,0
		l0,0c0.14-0.7,0.56-1.12,1.12-1.55c0.84-0.56,1.97-0.98,3.09-1.26c0.98-0.14,1.97-0.14,2.11-0.14l0,0v-1.26v1.26
		c1.83,0.14,3.51,0.14,5.34,0.14c14.47,0,24.87-2.95,25.01-2.95l0,0l0,0c0,0,0.56-0.14,1.55-0.42c7.03-2.25,37.8-11.24,78.82-14.61
		l0,0l0,0c0,0,0.7-0.14,1.83-0.14c3.65-0.28,12.36-0.98,23.32-1.12v-1.26l-1.26,0.42l0,0l0.28,0.98h0.98c2.11,0,4.36,0,6.6,0
		c30.91,0,64.91,4.07,97.79,16.02l0,0l0,0c0.42,0.14,0.7,0.28,1.12,0.42l0.42-1.26l-0.56,1.26c0.14,0,12.93,5.34,28.8,5.34
		c0.28,0,0.56,0,0.7,0v-1.26l-0.14,1.26h0.14l0.14-1.26l-0.28,1.26l0,0h0.14l0,0h0.28l0,0h0.14l0,0l0.14,0.14h0.14l0.14,0.14l0,0
		l0,0l0.28,0.14l0,0l0.14,0.14l0,0l0.14,0.14l0,0l0.14,0.14l0,0l0.14,0.28l0,0v0.28v0.14v0.28v0.14v0.42v0.14l-0.14,0.7v0.14v0.14
		h1.26l-0.98-0.98l0,0l-0.28,0.28v0.42c-0.28,2.25-1.12,6.32-3.23,10.96c-1.97,4.5-5.06,9.41-9.41,13.21l-0.84,0.7l0.56,0.98
		c1.55,2.95,2.25,6.32,2.25,10.54v0.56v1.26l1.26,0.14c11.8,0.84,24.45,3.23,36.67,8.43l0.56-1.26l-0.84,0.98l1.69,1.26l0.84-0.98
		l0.56-1.26c-0.14,0-14.05-6.04-39.34-6.32v1.26v-1.26h-0.28l0,0l0,0c-0.56,0-0.84,0.28-0.98,0.42c-0.28,0.28-0.28,0.42-0.28,0.42
		c-0.14,0.28-0.14,0.42-0.14,0.56c-0.14,0.56-0.28,1.83-0.56,2.95c-0.28,1.26-0.42,2.53-0.7,3.51l-0.42,1.69h2.25v-1.26v1.26
		c14.47,0.42,31.05,3.09,46.79,10.4l0.56-1.26l-0.84,1.12l1.69,1.26l0.84-1.12l0.56-1.12c-0.14-0.14-15.74-7.87-44.96-7.87
		c-1.83,0-3.65,0-5.62,0.14l0,0l0,0c0,0-0.28,0-0.56,0h-0.98l-0.28,0.98c-0.7,2.81-1.41,5.48-2.11,7.45l1.26,0.42v-1.26h-0.14
		l0.14,2.67h0.14v-1.26v1.26c16.16,0.56,37.23,3.79,55.78,13.91L510.78,216.46L510.78,216.46z"/>
</g>
</svg>
