<?xml version="1.0" encoding="utf-8"?>
<!-- Generator: Adobe Illustrator 24.3.0, SVG Export Plug-In . SVG Version: 6.00 Build 0)  -->
<svg version="1.1" id="Layer_1" xmlns="http://www.w3.org/2000/svg" xmlns:xlink="http://www.w3.org/1999/xlink" x="0px" y="0px"
	 viewBox="0 0 512 512" style="enable-background:new 0 0 512 512;" xml:space="preserve">
<style type="text/css">
	.st0{fill:#FFFFFF;}
	.st1{fill:#DF6108;}
	.st2{fill:#03182F;}
</style>
<g id="Capa_x5F_1">
	<g id="_245649704">
		<path id="path2411" class="st0" d="M494.36,195.99C413.72,54.48,120.18,52.2,61.58,210.21c-8.53,23.04-34.7,47.36-52.34,54.33
			c15.93,7.4,35.56,20.34,51.63,49.49c96.28,174.08,420.69,132.69,445.58-35.98h-89.32c-82.35,144.92-285.87,60.59-285.87-13.51
			c0-105.96,171.38-137.81,257-68.55H494.36L494.36,195.99z"/>
		<path id="path2409" class="st1" d="M467.06,179.63C383.72,81.93,146.92,58.75,73.81,215.19c-6.26,17.21-17.92,32.71-34.84,46.36
			c15.93,7.4,27.45,21.48,36.27,39.54c95.15,173.51,388.41,107.09,413.3-12.8h-60.44c-82.35,143.36-311.32,67.27-311.32-26.88
			c0-116.05,190.86-150.33,276.48-81.92L467.06,179.63L467.06,179.63z"/>
		<g id="XMLID_3_">
			<path id="path2411_0" class="st2" d="M66.13,209.22l-7.4-2.84l0,0l6.4-14.51l7.68-13.65l8.96-12.66l10.1-11.66l11.09-10.81
				l12.09-9.81l12.94-8.82l13.8-7.96l14.51-6.97l15.08-6.12l15.64-5.12l16.07-4.27l16.5-3.41l16.78-2.56l17.07-1.56l17.21-0.71
				l17.21,0.14l17.21,1l17.07,1.85l16.92,2.7l16.64,3.7l16.36,4.55l15.93,5.4l15.36,6.26l14.79,7.11l14.22,7.96l13.37,8.82
				l12.66,9.67l11.66,10.52l10.67,11.38l9.53,12.23l8.39,13.08l-6.83,3.98l-7.96-12.37l-9.1-11.66l-10.24-10.81l-11.24-10.1
				l-12.09-9.24l-12.94-8.53l-13.65-7.68l-14.36-6.83l-14.93-5.97l-15.5-5.26l-15.93-4.41l-16.21-3.56l-16.5-2.7l-16.78-1.85
				l-16.78-1l-16.92-0.14l-16.78,0.71l-16.64,1.56l-16.36,2.42l-16.07,3.27l-15.64,4.12l-15.22,4.98l-14.65,5.97l-13.94,6.83
				l-13.23,7.68l-12.37,8.53l-11.52,9.39l-10.52,10.24l-9.53,11.09l-8.53,11.95l-7.25,12.94L66.13,209.22L66.13,209.22L66.13,209.22
				z M66.13,209.22L66.13,209.22L66.13,209.22L66.13,209.22z M11.8,257.86l-3.27,7.25l0.28-7.25l1.56-0.57l1.56-0.71l1.71-0.85
				l1.71-1l1.71-1l1.71-1.14l1.85-1.14l1.85-1.28l1.85-1.28l1.85-1.42l1.85-1.42l1.85-1.56l1.85-1.56l1.85-1.56l1.85-1.71l1.85-1.71
				l1.71-1.85l1.71-1.85l1.71-1.85l1.71-1.85l1.56-1.99l1.56-1.99l1.56-1.99l1.42-1.99l1.42-1.99l1.28-1.99l1.28-1.99l1.14-1.99
				l1.14-1.99l1-1.99l0.85-1.99l0.85-1.99l7.4,2.84l-0.85,2.28l-1,2.28l-1.14,2.28l-1.14,2.28l-1.28,2.28l-1.42,2.28l-1.42,2.28
				l-1.42,2.13l-1.56,2.13l-1.56,2.13l-1.71,2.13l-1.71,1.99l-1.85,1.99l-1.85,1.99l-1.85,1.99l-1.85,1.85l-1.85,1.85l-1.99,1.85
				l-1.99,1.71l-1.99,1.71l-1.99,1.71l-1.99,1.56l-1.99,1.56l-1.99,1.42l-1.99,1.28l-1.99,1.28l-1.99,1.14l-1.99,1.14l-1.85,1
				l-1.85,1l-1.85,0.85l-1.85,0.71L11.8,257.86L11.8,257.86z M8.53,265.11L0,261.13l8.68-3.41L8.53,265.11z M65.28,308.49
				l-6.97,3.84l0,0l-1.42-2.56l-1.56-2.42l-1.56-2.42l-1.56-2.28l-1.56-2.28l-1.56-2.13l-1.56-2.13l-1.56-1.99l-1.56-1.85
				l-1.56-1.85l-1.56-1.71l-1.56-1.71l-1.56-1.56l-1.56-1.56l-1.56-1.42l-1.56-1.42l-1.56-1.42l-1.56-1.28l-1.56-1.28l-1.56-1.14
				l-1.56-1.14l-1.56-1.14l-1.56-1l-1.56-1l-1.56-1l-1.56-0.85l-1.56-0.85l-1.56-0.85l-1.56-0.85l-1.56-0.71l-1.42-0.71l-1.42-0.71
				l3.27-7.25l1.56,0.71l1.56,0.71l1.56,0.85l1.56,0.85l1.56,0.85l1.71,1l1.71,1l1.71,1l1.71,1l1.71,1.14l1.71,1.14l1.71,1.28
				l1.71,1.28l1.71,1.28l1.71,1.42l1.71,1.42l1.71,1.56l1.71,1.56l1.71,1.71l1.71,1.71l1.71,1.85l1.71,1.85l1.71,1.99L52.2,289
				l1.71,2.13l1.71,2.13l1.71,2.28l1.56,2.42l1.56,2.42l1.56,2.56l1.56,2.7L65.28,308.49L65.28,308.49L65.28,308.49z M58.31,312.33
				L58.31,312.33l27.88,49.78L58.31,312.33L58.31,312.33z M507.45,278.91v-7.96l3.98,4.55l-3.27,15.79l-4.98,14.93l-6.54,14.08
				l-8.11,13.37L479,346.18l-10.81,11.66l-11.95,10.67l-13.08,9.81l-14.08,8.96l-14.93,8.11l-15.64,7.11l-16.36,6.26l-16.92,5.26
				l-17.49,4.27l-17.78,3.27l-18.2,2.28l-18.35,1.28l-18.49,0.28l-18.49-0.71l-18.35-1.85l-18.2-2.84l-17.92-3.98l-17.64-5.12
				l-17.21-6.26l-16.64-7.4l-15.93-8.53l-15.22-9.67l-14.36-10.95l-13.37-12.09l-12.23-13.37l-11.09-14.51l-9.81-15.79l6.97-3.84
				l9.53,15.22l10.67,13.94l11.8,12.8l12.8,11.66l13.8,10.52l14.65,9.39l15.36,8.25l16.07,7.11l16.64,5.97l17.07,4.98l17.49,3.84
				l17.78,2.84l17.92,1.71l18.06,0.71l18.06-0.28l17.92-1.28l17.78-2.28l17.35-3.27l16.92-4.12l16.5-5.12l15.93-5.97l15.22-6.97
				l14.36-7.82l13.51-8.68l12.52-9.39l11.38-10.24l10.24-11.09l8.96-11.8l7.68-12.52l6.26-13.37l4.69-14.08l3.13-14.79
				L507.45,278.91L507.45,278.91z M507.45,270.94H512l-0.71,4.55L507.45,270.94z M414.72,272.93l3.41-1.99h89.32v7.96h-89.32
				L414.72,272.93z M414.72,272.93l1.14-1.99h2.28L414.72,272.93L414.72,272.93z M128.28,261.41h7.96l0,0l0.57,6.26l1.56,6.4
				l2.56,6.4l3.56,6.4l4.55,6.4l5.4,6.26l6.26,6.12l7.11,5.97l7.82,5.69l8.39,5.4l9.1,4.98l9.53,4.55l10.1,4.12l10.52,3.7
				l10.81,3.13l11.09,2.56l11.38,1.85l11.52,1.28l11.66,0.57l11.66-0.28l11.66-1l11.66-1.85l11.52-2.7l11.38-3.56l11.09-4.55
				l10.81-5.55l10.38-6.54l9.96-7.68l9.53-8.82l9.1-9.96l8.53-11.24l7.82-12.52l6.97,3.98l-8.25,13.08l-8.96,11.8l-9.53,10.52
				l-10.1,9.24l-10.52,8.11l-10.95,6.97l-11.38,5.83l-11.66,4.84l-11.95,3.84l-12.09,2.84l-12.23,1.99l-12.23,1l-12.23,0.28
				l-12.09-0.57l-11.95-1.28l-11.8-1.99l-11.52-2.7l-11.24-3.27l-10.95-3.84l-10.52-4.27l-9.96-4.84l-9.39-5.26l-8.82-5.55
				l-8.25-5.97l-7.54-6.26l-6.68-6.54l-5.83-6.83l-4.98-6.97l-3.98-7.25l-2.99-7.4l-1.85-7.54L128.28,261.41L128.28,261.41
				L128.28,261.41z M128.28,261.41L128.28,261.41L128.28,261.41L128.28,261.41z M389.26,189.73v7.96l-2.42-0.85l-8.11-5.97
				l-8.53-5.4l-8.96-4.84l-9.24-4.27l-9.53-3.7l-9.81-3.27l-10.1-2.7l-10.24-2.13l-10.38-1.56l-10.52-1l-10.52-0.57h-10.52
				L259.98,162l-10.38,1l-10.1,1.56l-9.96,1.99l-9.67,2.56l-9.39,2.99l-9.1,3.56l-8.68,3.98l-8.25,4.41l-7.68,4.84l-7.11,5.4
				l-6.54,5.83l-5.97,6.26l-5.26,6.68l-4.55,7.11l-3.84,7.54l-3.13,7.82l-2.28,8.25l-1.42,8.68l-0.43,9.24h-7.96l0.57-9.96
				l1.56-9.53l2.42-9.1l3.41-8.68l4.27-8.25l4.98-7.68l5.83-7.25l6.4-6.68l7.11-6.26l7.68-5.69l8.25-5.26l8.68-4.69l9.1-4.12
				l9.53-3.7l9.81-3.13l10.1-2.7l10.38-2.13l10.52-1.56l10.67-1l10.81-0.57h10.81l10.95,0.57l10.81,1.14l10.81,1.71l10.67,2.13
				l10.52,2.84l10.24,3.27l10.1,3.98l9.67,4.55l9.39,5.12l8.96,5.69l8.53,6.26L389.26,189.73L389.26,189.73z M389.26,197.7h-1.42
				l-1.14-0.85L389.26,197.7z M498.77,191.72l-3.41,5.97h-106.1v-7.96h106.1L498.77,191.72L498.77,191.72z M498.77,191.72l3.41,5.97
				h-6.83L498.77,191.72z"/>
		</g>
	</g>
</g>
</svg>
