<?xml version="1.0" encoding="utf-8"?>
<!-- Generator: Adobe Illustrator 24.3.0, SVG Export Plug-In . SVG Version: 6.00 Build 0)  -->
<svg version="1.1" id="Layer_1" xmlns="http://www.w3.org/2000/svg" xmlns:xlink="http://www.w3.org/1999/xlink" x="0px" y="0px"
	 viewBox="0 0 512 512" style="enable-background:new 0 0 512 512;" xml:space="preserve">
<style type="text/css">
	.st0{fill:#FFFFFF;}
	.st1{fill:#F04E23;}
</style>
<g id="XMLID_1_">
	<g id="XMLID_2_">
		<path id="XMLID_7_" class="st0" d="M0,322.73L65.97,436.1h305.01c98.45,0,141.02-51.35,141.02-106.5
			c0-36.43-25.89-66.12-52.22-79.43c-2.78-1.46-2.34-3.8-0.44-5.27c23.11-17.12,38.62-38.91,38.62-72.85
			c0-40.08-28.67-96.26-140.58-96.26H68.75L3.36,189.61h47.98c5.27,0,9.65,4.39,9.65,9.65v113.81c0,5.27-4.39,9.65-9.65,9.65H0"/>
	</g>
	<path class="st1" d="M288.91,230.86h-47.54v-45.64c0-4.83,3.95-8.63,8.78-8.63h38.77c22.67,0,31.16,11.56,31.16,26.62
		C320.07,219.31,311.59,230.86,288.91,230.86 M288.91,335.9h-38.77c-4.83,0-8.78-3.95-8.78-8.63v-45.64h47.4
		c22.67,0,31.16,11.12,31.16,26.77C320.07,324.34,311.59,335.9,288.91,335.9z M424.08,252.8c-3.51-0.88-2.93-5.12-0.29-6
		c31.31-11.85,49.59-32.91,49.59-70.07c0.44-49.88-43.59-84.11-115.13-84.11H86.75L39.2,176.74h32.77c6.44,0,11.7,5.27,11.7,11.7
		v135.75c0,6.44-5.27,11.7-11.7,11.7H39.5l47.98,83.68h283.5c80.9,0,114.25-53.83,114.25-93.33
		C485.38,291.28,459.63,261.29,424.08,252.8z"/>
	<path d="M179.05,395.73c-50.32-94.5-63.49-203.34-44.76-303.1H86.75L39.2,176.74h32.77c6.44,0,11.7,5.27,11.7,11.7v104.16
		C108.11,332.09,143.51,370.13,179.05,395.73 M416.33,101.98c-57.64,85.43-88.8,194.27-74.75,293.45
		c17.12-83.38,61.88-160.48,131.66-216.21c0-0.88,0.15-1.61,0.15-2.49C473.67,142.21,452.75,115.3,416.33,101.98z M319.78,92.62
		c-8.92,23.7-18.43,52.22-26.48,84.26c-1.46-0.15-2.93-0.15-4.39-0.15h-38.77c-4.83,0-8.63,3.8-8.78,8.63v45.64h40.67
		c-2.63,16.38-4.83,33.35-6.29,50.61h-34.38v45.64c0,4.83,3.95,8.63,8.78,8.63h23.7c0.44,27.36,2.78,55.3,7.9,83.68h-35.4
		c-27.94-67.29-66.27-181.39-28.09-326.8L319.78,92.62L319.78,92.62z"/>
</g>
</svg>
