<?xml version="1.0" encoding="utf-8"?>
<!-- Generator: Adobe Illustrator 24.3.0, SVG Export Plug-In . SVG Version: 6.00 Build 0)  -->
<svg version="1.1" id="Layer_1" xmlns="http://www.w3.org/2000/svg" xmlns:xlink="http://www.w3.org/1999/xlink" x="0px" y="0px"
	 viewBox="0 0 512 512" style="enable-background:new 0 0 512 512;" xml:space="preserve">
<style type="text/css">
	.st0{fill:#E93825;}
	.st1{fill:#2E1B00;}
	.st2{fill:#FFFFFF;}
	.st3{clip-path:url(#SVGID_2_);fill:#FFFFFF;}
	.st4{clip-path:url(#SVGID_4_);fill:#2E1B00;}
	.st5{clip-path:url(#SVGID_6_);fill:#E93825;}
	.st6{clip-path:url(#SVGID_8_);fill:#2E1B00;}
</style>
<g id="XMLID_1_">
	<path id="XMLID_2_" class="st0" d="M232.01,283.23c6.45,6.87,16.13,16.83,23.43,23.71c-1.68-10.38-2.1-21.18,0.14-31.14
		c1.4-6.73,3.93-12.62,6.87-17.53l-6.17-13.61c-1.4,2.1-3.93,5.89-6.31,9.68C250.11,254.34,241.27,268.5,232.01,283.23"/>
	<path id="XMLID_3_" class="st0" d="M261.05,330.37c-6.17-3.51-12.2-8.42-18.24-14.87c-0.14-0.14-10.24-9.68-19.08-18.52
		c-4.49,7.15-7.43,11.92-9.12,14.87l19.64,12.91c4.21,2.81,8.98,6.03,9.12,12.2c0.14,6.31-5.33,13.75-7.01,16.13
		c-2.24,3.09-9.54,11.64-18.94,5.75c0,0-13.75-8.56-23.29-14.31l-7.43,10.94c7.01,1.12,45.59,7.29,77.15,12.34
		c-1.68-12.2-5.75-23.29-8.14-33.1c4.21,9.12,8.7,20.76,11.22,33.53c2.1,0.28,4.21,0.7,6.31,0.98c-0.7-3.23-1.4-6.17-1.96-8.7
		C269.89,355.19,265.12,343.97,261.05,330.37"/>
	<path id="XMLID_4_" class="st0" d="M287.56,234c11.22-6.03,18.24-9.4,36.05-11.64l4.49-0.56c3.09-0.42,8.84-1.68,10.52-4.63
		c0.98-1.68,1.26-4.07,1.26-6.73c-19.08,3.93-39,8.7-56.11,15.71c-5.89,2.1-10.66,5.19-15.29,8.14c1.4,2.95,2.95,6.59,4.77,10.66
		c4.49-4.35,8.98-7.43,12.34-9.54C286.16,234.98,287.56,234,287.56,234"/>
	<path id="XMLID_5_" class="st1" d="M186,434.87c-18.94-0.84-41.24-8.7-57.23-16.83c-7.72-4.49-26.37-14.17-33.81-14.59
		c8.56,1.82,26.37,11.92,32.68,16.13c13.75,7.43,36.75,17.96,58.21,18.8c51.76,3.23,80.66-24.83,82.06-54.01
		c-1.4-0.28-2.81-0.42-4.21-0.7C259.65,420.42,220.51,438.1,186,434.87"/>
	<path id="XMLID_6_" class="st1" d="M263.57,367.68c0.98,0.14,2.1,0.28,3.09,0.42c-2.52-12.76-6.87-24.41-11.22-33.53
		C257.82,344.25,261.89,355.47,263.57,367.68"/>
	<path id="XMLID_7_" class="st1" d="M147.01,315.64c-5.61,0-10.66,2.1-14.45,5.89c-8.42,8.56-7.86,23.29,1.4,32.82
		c4.63,4.91,10.94,7.72,17.25,7.72c2.24,0,4.49-0.28,6.59-0.98l13.75-20.48c-0.14-6.17-2.52-12.48-7.29-17.39
		C159.49,318.58,153.18,315.78,147.01,315.64"/>
	<path id="XMLID_8_" class="st1" d="M117.97,376.09c19.36,24.83,53.44,24.97,70.7,6.73C181.37,386.47,150.79,406.53,117.97,376.09"
		/>
	<path id="XMLID_9_" class="st1" d="M219.25,379.88c6.73,0,11.36,8.56,5.75,14.31c2.38-5.19,0.42-11.78-5.89-12.06
		c-6.59-0.28-8.84,6.31-7.72,9.82C209.15,389.84,209.85,379.88,219.25,379.88 M222.47,387.32c-1.4-1.54-5.05-2.38-7.15-0.98
		c-0.98,0.56-1.96-0.14-0.7-1.4c2.38-2.1,6.73-1.96,8.7,0.98C224.44,387.46,223.32,388.44,222.47,387.32 M218.13,398.68
		c-3.09,0-5.61-2.52-5.61-5.61c0-3.09,2.52-5.61,5.61-5.61c3.09,0,5.61,2.52,5.61,5.61C223.74,396.15,221.21,398.68,218.13,398.68
		 M212.09,395.87c1.12,2.38,3.37,3.93,6.03,3.93c1.96,0,3.65-0.84,4.91-2.1c3.65-1.54,6.17-5.19,6.17-9.4
		c0-5.75-4.49-10.24-10.24-10.38c-5.61,0-10.24,4.63-10.24,10.24C208.73,391.24,209.99,394.05,212.09,395.87"/>
	<path id="XMLID_14_" class="st2" d="M214.62,384.93c-1.26,1.26-0.28,1.96,0.7,1.4c2.1-1.4,5.75-0.7,7.15,0.98
		c0.84,1.26,1.82,0.14,0.84-1.4C221.35,382.97,217,382.83,214.62,384.93"/>
	<path id="XMLID_15_" class="st2" d="M218.97,382.13c6.31,0.28,8.42,6.87,5.89,12.06c5.61-5.75,0.84-14.31-5.75-14.31
		c-9.4,0-10.1,9.96-7.86,12.06C210.13,388.44,212.37,381.85,218.97,382.13"/>
	<path id="XMLID_16_" class="st2" d="M217.99,397.42c-2.52,0-4.49-1.96-4.49-4.49c0-2.52,1.96-4.49,4.49-4.49s4.49,1.96,4.49,4.49
		C222.47,395.45,220.51,397.42,217.99,397.42 M223.74,392.93c0-3.09-2.52-5.61-5.61-5.61c-3.09,0-5.61,2.52-5.61,5.61
		c0,3.09,2.52,5.61,5.61,5.61C221.21,398.68,223.74,396.15,223.74,392.93"/>
	<path id="XMLID_19_" class="st1" d="M214.76,393.07l0.56,0.14c1.26,1.96,4.63,2.1,5.61,0.56c0.56-0.7,0.56,0.28,0.56,0.28
		C219.25,398.4,214.34,395.73,214.76,393.07 M217.99,388.44c-2.52,0-4.49,1.96-4.49,4.49c0,2.52,1.96,4.49,4.49,4.49
		s4.49-1.96,4.49-4.49C222.47,390.54,220.51,388.44,217.99,388.44"/>
	<path id="XMLID_22_" class="st2" d="M220.93,393.91c-0.98,1.54-4.35,1.4-5.61-0.56l-0.56-0.14c-0.28,2.52,4.49,5.19,6.73,0.98
		C221.35,394.19,221.35,393.07,220.93,393.91"/>
	<path id="XMLID_23_" class="st1" d="M135.79,410.04c6.87-8.98-6.45-19.36-11.78-11.08C128.35,385.49,146.03,402.47,135.79,410.04
		 M134.1,403.03c-0.7-1.4-2.95-3.37-4.07-3.51c-1.26-0.28-0.84-2.24,0.7-1.68c1.4,0.42,3.51,2.24,4.07,3.23
		C136.07,403.17,134.66,404.29,134.1,403.03 M124.84,409.06c-2.38-2.52-2.81-6.03-0.98-7.86c1.96-1.82,5.33-1.26,7.72,1.4
		c2.38,2.52,2.81,6.03,0.98,7.86C130.74,412.29,127.23,411.58,124.84,409.06 M125.4,392.79c-2.52,1.82-3.65,5.47-3.23,9.12
		c-1.12,2.24-0.42,5.61,1.96,8c2.52,2.67,6.17,3.51,8.42,2.1c2.1,0.14,4.07-0.28,5.61-1.54c3.65-3.09,3.79-9.12,0.42-13.89
		C135.22,391.81,129.33,390.12,125.4,392.79"/>
	<path id="XMLID_28_" class="st2" d="M130.6,397.7c-1.54-0.56-1.96,1.54-0.7,1.68c1.26,0.28,3.37,2.1,4.07,3.51
		c0.56,1.26,2.1,0.14,0.7-2.1C134.24,399.94,132,398.12,130.6,397.7"/>
	<path id="XMLID_29_" class="st2" d="M124,398.96c5.33-8.28,18.66,2.1,11.78,11.08C146.03,402.47,128.35,385.49,124,398.96"/>
	<path id="XMLID_30_" class="st2" d="M131.58,409.9c-1.54,1.12-4.21,0.14-6.17-1.54c-2.1-1.96-2.24-4.91-0.84-6.31
		c1.54-1.54,4.49-0.56,6.17,1.4C132.14,404.99,133.4,408.5,131.58,409.9 M131.72,402.61c-2.38-2.52-5.89-3.09-7.72-1.4
		c-1.82,1.82-1.4,5.33,0.98,7.86c2.38,2.52,5.89,3.09,7.72,1.4C134.52,408.64,134.1,405.13,131.72,402.61"/>
	<path id="XMLID_33_" class="st1" d="M130.31,409.2c-3.23,0.28-6.03-3.65-4.91-5.33c0,0,0.84-1.26,0.98-0.14
		c0.28,1.96,2.24,3.93,4.21,4.49C131.02,408.22,131.3,408.92,130.31,409.2 M124.56,402.05c-1.4,1.4-1.26,4.35,0.84,6.31
		c1.96,1.82,4.63,2.81,6.17,1.54c1.82-1.4,0.56-4.91-0.84-6.45C129.05,401.48,126.25,400.5,124.56,402.05"/>
	<path id="XMLID_36_" class="st2" d="M126.39,403.73c-0.14-1.12-0.98,0.14-0.98,0.14c-1.26,1.68,1.68,5.61,4.91,5.33
		c0.98-0.14,0.84-0.84,0.28-0.98C128.77,407.66,126.67,405.69,126.39,403.73"/>
	<path id="XMLID_37_" class="st2" d="M110.26,420.28c0.7-0.42,1.26-0.98,1.82-1.26c-8.84-5.61-19.64-9.26-37.45-3.37l-0.84,0.28
		c4.21-0.84,10.1-1.82,13.89-1.54c4.63,0.28,11.5,0.98,18.1,5.19l-3.23,1.82c-15.43,7.43-28.48,9.54-35.91,10.1
		c-7.29,0.56-5.89-3.65-1.12-6.17c2.67-1.4,4.91-3.93,5.89-8.56c-0.84,0.42-0.84,0.28-1.96,0.42H69.3
		c-1.54,11.36-23.85,10.24-21.32-5.33c0,0-3.23-6.59-5.05-10.38l-0.14-2.38c0,0,5.47,8.84,7.72,11.64
		c-2.95,10.52,12.48,15.01,16.55,7.01c-13.61,2.52-14.17-4.49-13.89-6.73l-0.28-1.12c-2.38-2.38-10.1-12.62-18.94-28.76
		c-1.12,9.4,9.4,31.14,10.38,33.24l0.84,2.24c-3.23,8.84,6.03,20.48,22.58,17.81C84.16,432.77,102.54,425.89,110.26,420.28"/>
	<path id="XMLID_38_" class="st1" d="M342.27,391.38c0,0-0.98,0.14-2.67,0.28l1.12,2.1c0.7,1.4,1.4,2.67,2.24,3.93
		c1.82-2.24,3.51-4.49,5.05-7.01C346.06,391.1,344.09,391.24,342.27,391.38"/>
	<path id="XMLID_39_" class="st1" d="M350.4,338.08c1.54,12.34,1.12,25.11-2.38,36.47c2.38-0.28,4.77-0.42,7.01-0.7
		c1.54-5.47,2.38-11.36,2.67-17.39v-1.68l53.02,8.98c0,0-3.51-7.86-4.35-10.52l-48.68-8.42v-1.54c-0.14-1.96-0.28-3.93-0.56-6.03
		C354.89,337.52,352.65,337.8,350.4,338.08"/>
	<path id="XMLID_40_" class="st1" d="M261.05,330.37c4.07,13.61,8.84,24.83,9.96,30.16c0.56,2.52,1.26,5.47,1.96,8.7
		c2.81,0.42,5.47,0.84,8.14,1.26l-0.14-1.54c8.98-6.45,15.85-16.97,19.5-26.93l-0.56-1.4l-1.26-0.14c-9.4-0.56-19.5-1.96-30.02-6.45
		c2.67,9.96,5.33,19.78,6.87,28.76c-1.82-7.86-6.03-18.38-9.96-30.3C264,331.91,262.45,331.21,261.05,330.37"/>
	<path id="XMLID_41_" class="st1" d="M255.58,307.08c1.12,1.12,2.1,2.1,3.09,2.95l0.84,0.56c-3.09-16.13-3.23-33.1,4.91-48.25
		l-1.82-3.93c-2.95,5.05-5.47,10.8-6.87,17.53C253.48,285.9,253.9,296.56,255.58,307.08"/>
	<path id="XMLID_42_" class="st2" d="M344.79,295.02c-3.23-15.01,0.14-42.78,11.08-50.64C340.3,246.2,336.1,285.2,344.79,295.02"/>
	<path id="XMLID_43_" class="st1" d="M292.61,324.75l-26.79-59.06c-6.17,15.57-5.19,31.98-2.1,48.11
		C272.27,319.7,280.27,323.35,292.61,324.75"/>
	<g id="XMLID_44_">
		<g>
			<defs>
				<rect id="SVGID_1_" y="61.18" width="512" height="389.54"/>
			</defs>
			<clipPath id="SVGID_2_">
				<use xlink:href="#SVGID_1_"  style="overflow:visible;"/>
			</clipPath>
			<path id="XMLID_46_" class="st3" d="M472.3,438.24c0.98-4.07,0.7-10.66,0.7-10.66c32.96-7.01,1.68-9.96,1.68-9.96
				c7.29,2.24,7.01,4.77,7.01,4.77c-3.09,0.14-8.7-1.54-8.7-1.54c0.14-2.1-0.42-10.38-0.42-10.38c8.56,3.65,9.96,2.67,18.8,4.63
				c9.12,2.1,4.63,5.75,4.63,5.75c-4.63,5.75-21.74,8.14-21.74,8.14c28.62-3.79,25.95-11.5,25.95-11.5
				c11.64,7.57,0.14,13.05-5.75,14.73C489.42,433.75,472.3,438.24,472.3,438.24 M456.45,417.19c0.28,3.93,0.42,6.31,0.42,6.45
				c0,3.23-1.82,4.35-2.1,4.49c-41.1,11.08-89.92,5.47-111.8-30.44c-0.84-1.26-1.54-2.52-2.24-3.93l-1.12-2.1
				c1.68-0.14,2.67-0.42,2.67-0.42c1.82-0.14,3.65-0.42,5.61-0.56c22.02-2.38,48.25-5.89,70.98-9.68
				C428.82,399.1,442.56,410.88,456.45,417.19 M435.55,378.06c4.63-0.98,8.98-1.82,12.91-2.81c0.98-0.28,1.4,0,1.54,0.14
				c0.7,0.56,0.98,1.82,0.98,2.24v0.14v0.14c1.54,5.19,2.67,12.2,3.51,19.22C447.19,391.67,440.74,385.21,435.55,378.06
				 M421.94,381.14c2.1-0.42,10.52-2.24,10.52-2.24c8.98,13.33,23.29,23,23.29,23c0.42,3.37,0.7,11.92,0.7,11.92
				C433.87,402.89,421.94,381.14,421.94,381.14 M459.54,439.64c0,0,0.14,0.28-3.79,1.54c-24.13,6.17-49.8,6.59-71.54,0.84
				c-19.64-5.19-43.06-16.55-55.97-45.31c0,0-1.68-3.09-1.96-4.63c0,0,6.59,0.14,10.94-0.28c20.06,43.06,71.82,51.06,116.15,39.7
				c0,0,4.07-0.7,5.19-1.96c0.98-2.1,0.84-7.57,0.84-7.57c0-1.26-1.12-27.77-6.03-45.31c-0.42-1.82-0.98-2.95-1.54-3.51
				c0,0-1.4-0.56-2.24-0.56c-2.38-0.14-5.47,0.56-5.47,0.56c-27.35,6.45-69.72,11.92-103.1,15.29c0,0-2.67,0.42-7.15,0.56
				l-3.51,0.28c-6.31,0-15.29-0.28-26.65-2.1l-124-20.34l6.73-9.12l119.93,19.64c18.24,2.81,26.79,1.4,27.07,1.4
				c32.26-1.82,92.16-10.66,106.61-14.45c0,0,7.86-1.82,8.84-2.81c0.7-0.7-0.98-6.45-0.98-6.45c0-0.14-5.89-19.36-8.84-26.65v0.14
				c0-0.28-1.4-4.35-2.67-5.05h-0.98c0,0-1.68,0.28-3.79,0.84c-28.2,5.19-79.68,12.34-109.83,14.17c2.67-0.14-12.2,0.56-23.85-0.28
				c-16.41-0.98-34.65-5.05-52.88-24.69c-0.14-0.14-20.2-19.36-28.34-28.2c-1.96-2.81-0.98-6.03,1.12-7.72
				c1.54-1.26,4.49-1.68,6.17,0.14c3.51,4.77,23.85,25.67,33.81,35.07c11.08,8.7,19.08,13.19,34.65,15.01
				c8.42,0.98,18.38,0.84,18.8,0.84c20.48,0.56,94.97-8.56,116.99-12.91c2.81-0.42,4.49-0.98,4.49-0.98v-0.42l0.14-0.98
				c0-0.28,1.26-1.4,2.38-1.82c1.96-0.98,4.63-0.98,6.87,0.84c15.57,28.76,31.14,82.34,27.49,122.74c-0.14,2.1-1.12,3.93-2.67,4.77
				C466.69,439.92,463.18,441.46,459.54,439.64 M172.12,367.12c-2.38-0.14-4.91-1.68-5.75-3.51c-0.56-1.12-0.42-2.24,0.42-3.37
				l15.57-23.85c0.98,1.96,8.84,6.59,8.84,6.59c-3.23,4.91-15.01,22.3-15.01,22.3C175.06,366.98,173.38,367.26,172.12,367.12
				 M186.42,325.88c4.35-6.03,6.45-9.54,7.43-11.22c0.98,2.1,3.79,3.79,3.79,3.79c7.29,4.49,22.58,13.75,26.93,16.27
				c4.77,2.67,5.75,3.93,5.75,3.93c5.47,5.19,4.49,10.38,1.82,14.03c-3.09,4.07-8.84,6.73-13.75,3.51l-6.59-4.07l0,0l-2.38-1.4
				l-20.48-12.62l0,0l0,0c0,0-3.37-1.54-4.35-4.77C183.76,330.93,184.46,328.54,186.42,325.88 M197.37,308.34
				c-0.28,5.61,8.28,10.24,12.34,9.12l21.88,14.59c3.23,2.38,6.45,6.45,4.63,11.92c-0.28-5.05-6.59-9.12-6.59-9.12
				s-23.57-13.89-30.72-18.38C194.7,313.81,195.12,310.31,197.37,308.34 M201.15,307.5L201.15,307.5l0.14-0.14
				c0.14-0.28,2.81-4.63,12.62-20.62c2.95,4.07,7.72,8.42,7.72,8.42l-11.92,18.94c-1.54,1.26-5.05,0-7.15-2.1
				C201.99,311.57,199.75,309.18,201.15,307.5 M233,330.23c-4.35-2.81-21.04-14.03-21.04-14.03l1.82-1.68
				c7.57,4.91,17.39,11.36,21.74,14.59c7.72,5.89,3.51,12.76,3.51,12.76C239.73,337.66,237.9,333.45,233,330.23 M330.06,376.23
				c0,0-4.21,0.84-11.22,0.28c-3.37-6.31-7.01-14.87-16.41-35.63c6.45,0.7,11.22,0,11.22,0L330.06,376.23z M405.67,350.85
				l-47.97-8.42v0.84v1.54l48.68,8.42c0.98,2.67,4.35,10.52,4.35,10.52l-53.02-8.98v1.68v0.84l52.32,8.84
				c-17.39,2.95-35.63,5.75-54.99,7.86c-2.38,0.28-4.63,0.42-7.01,0.7c3.51-11.5,3.93-24.27,2.38-36.47
				c2.24-0.28,4.49-0.42,6.73-0.7c13.47-1.54,27.63-3.37,40.68-5.19C400.62,338.78,403.29,345.23,405.67,350.85 M422.79,352.25
				l-9.4-22.44c6.31-0.98,12.2-1.96,17.39-2.95h0.14h0.14c1.26-0.42,2.38-0.42,3.23,0c1.4,0.7,1.82,2.38,1.82,2.38v0.14l0,0
				c2.1,5.33,5.89,16.69,7.86,22.58C435.83,352.25,428.54,352.25,422.79,352.25 M427.41,363.33l-3.65-8.56
				c12.48,0.14,21.46,0,21.46,0c1.54,5.47-3.65,5.75-3.65,5.75L427.41,363.33z M425.03,364.17c-1.68,0.7-9.82,1.96-9.82,1.96
				c-1.96-3.65-14.31-33.95-14.31-33.95c1.4-0.14,9.82-1.54,9.82-1.54C417.03,348.04,425.03,364.17,425.03,364.17 M268.48,334.15
				c10.38,4.49,20.62,5.89,30.02,6.45l1.26,0.14l0.56,1.4c-3.65,9.82-10.66,20.48-19.5,26.93l0.14,1.54
				c-2.52-0.42-5.33-0.84-8.14-1.26c-2.1-0.28-4.21-0.7-6.31-0.98c-0.98-0.14-1.96-0.28-3.09-0.42c-31.56-5.05-70-11.22-77.15-12.34
				l7.43-10.94c9.68,5.75,23.29,14.31,23.29,14.31c9.4,6.03,16.69-2.67,18.94-5.75c1.82-2.38,7.29-9.82,7.15-16.13
				c-0.14-6.17-4.91-9.4-9.12-12.2l-19.64-12.91c1.82-2.95,4.77-7.72,9.12-14.87c8.84,8.84,18.94,18.52,19.08,18.52
				c6.03,6.59,12.06,11.36,18.24,14.87c1.4,0.84,2.95,1.54,4.35,2.38c3.93,11.92,8.14,22.44,9.96,30.3
				C273.81,353.79,271.15,344.11,268.48,334.15 M241.83,241.71c2.95-4.77,9.96-13.05,8.98-11.92c0,0-0.14,2.38,1.12,5.05
				c0.98,2.1,3.23,7.43,3.23,7.43c0.28-0.28-4.77,6.03-7.57,10.52l-17.25,28.34l-4.63-5.05c0,0-1.96-2.38-3.79-2.38
				C230.89,258.97,239.03,245.92,241.83,241.71 M265.96,265.7l26.79,59.06c-12.34-1.4-20.48-5.05-28.9-10.94
				C260.63,297.68,259.79,281.27,265.96,265.7 M262.59,258.26l1.82,3.93c-8.14,15.15-8,32.26-4.91,48.25l-0.84-0.56
				c-0.98-0.84-2.1-1.96-3.09-2.95c-7.29-7.01-16.97-16.83-23.43-23.71c9.12-14.87,17.96-28.9,17.96-28.9
				c2.38-3.79,4.91-7.57,6.31-9.68L262.59,258.26z M254.18,228.11c1.26-2.1,3.79-3.37,5.47-3.37c1.26,0,2.24,0.42,2.38,0.42
				l45.31,100.3c0,0-6.31,0.28-11.22-0.7c-19.36-42.22-41.94-91.74-41.94-91.74C253.19,231.33,253.19,229.65,254.18,228.11
				 M275.5,215.2c16.41-6.87,50.64-15.71,80.1-20.48c3.09-0.42,5.75,1.68,6.03,3.93c0.28,1.96-0.7,4.35-4.63,5.05l-1.82,0.28
				c-23.57,4.77-50.36,10.1-72.8,19.22c-7.01,2.52-10.8,4.63-14.73,7.72c0,0-2.24-4.77-2.95-6.03c-1.26-2.24-1.4-2.38-2.38-3.09
				C265.68,219.69,269.75,217.59,275.5,215.2 M346.2,174.24l6.31,17.81l-3.37,0.56c0,0-4.07-11.36-6.73-19.36
				c-1.96-6.03-0.56-8.98-0.56-8.98l3.09-1.4C343.53,167.37,346.2,174.24,346.2,174.24 M347.6,161.76l3.37-1.68l0.28-0.14
				l-0.14,1.26c-0.14,1.12,0,1.82,1.26,5.19c1.96,5.33,12.2,26.65,13.47,29.74c5.89,15.43-9.4,18.24-11.08,11.5
				c16.41-1.26,9.68-18.38,0.42-15.99c-3.51-8.7-6.31-17.53-6.31-17.53S345.07,164.56,347.6,161.76 M369.06,206.08
				c0,0,7.86,0,11.78,0c0,0-2.95,5.47-15.29,4.63C365.55,210.71,368.92,208.47,369.06,206.08 M403.85,195.28L403.85,195.28h0.28
				c1.96,0.28,3.09,2.81,2.95,4.91c-0.14,1.12-0.84,3.65-4.63,3.65c-3.51-0.7-12.62-1.68-17.25-2.1c0-3.93-2.38-9.54-2.38-9.54
				C387.86,192.9,401.18,194.44,403.85,195.28 M432.6,309.04c-2.81,0.42-2.95,2.95-2.95,2.95c-6.73,1.68-22.16,3.37-22.16,3.37
				l-3.23-7.29C420.54,310.31,432.6,309.04,432.6,309.04 M459.96,307.22c-2.81,1.12-15.85,2.81-15.85,2.81
				c-1.68-1.4-3.51-1.68-3.93-1.68h-0.14h0.14C445.23,308.62,459.96,307.22,459.96,307.22 M473.14,307.08
				c2.67,0.42,3.79,1.96,4.07,4.21c0.14,0.84-0.28,3.93-3.65,4.49l-1.26,0.28c-3.09,0.98-9.12,2.38-15.29,3.51
				c-3.79,0.7-7.29,1.4-7.01,1.26c-0.84-1.82-1.4-3.65-3.65-8.14c6.73-1.12,15.29-2.81,21.32-4.63
				C469.64,307.5,473.14,307.08,473.14,307.08 M487.73,317.32c13.05,36.61,23.15,86.83,20.34,104.22c0-2.24-3.51-6.45-9.4-7.57
				c0,0,0.14-2.24,0-5.05c-1.54-15.15-6.87-42.64-6.87-42.64c8.42-2.67,7.72-19.92-6.73-19.78c-3.51-15.57-8.42-28.05-8.42-28.05
				c7.86-4.35,4.21-11.5-0.14-12.76C476.23,305.54,484.09,303.85,487.73,317.32 M489.98,363.47c0,0-4.21,2.1-23.99,5.75
				c0,0-1.54-6.17-2.38-9.26c0,0,16.69-3.51,23.15-5.89c0,0-0.14-2.1-3.37-2.1c0,0-16.97,4.35-20.76,4.63l-0.98-2.52
				c0,0,14.45-2.81,19.36-3.93c0,0,10.24-3.51,12.48,4.35C493.62,354.35,495.73,361.09,489.98,363.47 M472.72,318.86L472.72,318.86
				h0.56c2.24,5.05,5.75,15.99,6.59,19.92l2.1,8.56c-6.73,1.54-14.31,2.67-21.74,3.37c-2.95-9.82-6.17-18.94-9.68-27.07
				C467.53,321.39,472.72,318.86,472.72,318.86 M471.6,406.95c-1.12-11.36-3.09-23.29-5.61-34.79c6.45-1.26,18.38-4.21,22.72-5.33
				l0.28,1.82c2.24,12.2,5.61,30.58,6.87,41.8c0,1.12,0,1.96-0.14,2.81c-2.1-0.42-3.79-0.56-4.21-0.56
				C484.79,411.72,478.05,409.76,471.6,406.95 M512,413.41c-2.38-32.12-9.54-64.11-21.74-98.05l-1.54-3.51
				c-3.09-8-8.56-9.54-17.39-8.42l-7.57,0.84c-15.43,1.4-40.4,4.07-61.16,0.42l-28.2-66.91h-0.7l-1.68,0.14
				c7.72,18.24,32.96,77.85,32.96,77.85c-4.91,0.84-10.1,1.26-10.1,1.26l-31.84-74.77c-0.84,0.84-1.26,1.54-1.54,1.96l-0.28,0.42
				c0,0,10.66,25.39,22.58,53.87c-1.4-0.7-2.67-1.4-3.51-2.24c-5.61-3.51-18.52-12.76-29.32-29.04l-0.14,0.7
				c-0.14,0.56-0.28,1.4-0.56,2.52c15.01,23.15,35.21,31.7,35.21,31.7l5.05,12.34c-20.06-5.89-36.89-23.99-41.52-29.46v1.54v1.26
				c11.36,14.45,26.37,24.69,42.22,30.02c-11.78,1.54-24.69,2.95-36.89,4.21c-2.38,0.28-4.63,0.42-6.87,0.7
				c-1.54-6.03-3.51-11.64-5.61-16.83c-11.36-26.79-42.36-14.59-40.12,1.54c-9.4-20.9-19.08-42.08-26.23-57.93
				c2.81-2.95,8.42-8.7,17.39-14.45c-6.31,2.81-11.36,7.15-11.36,7.15c-2.52,1.96-4.77,3.93-6.73,5.89
				c-0.56-1.26-1.12-2.38-1.54-3.51c-1.82-4.07-3.51-7.72-4.77-10.66c4.63-2.95,9.4-6.03,15.29-8.14
				c17.25-7.01,37.03-11.78,56.11-15.71c1.12-0.28,2.1-0.42,3.23-0.7c0.56,9.54-4.21,13.05-12.48,14.87
				c-5.33,1.12-9.82,1.26-12.06,2.1l5.19,0.14c0.28,0,5.89,0,13.75-2.67c5.19-1.96,9.12-5.47,7.43-14.73
				c0.84-0.14,1.82-0.42,2.67-0.56c1.4,8.84,0.14,17.39-17.11,19.08c2.95,1.96,29.74-2.95,45.87,0.7c0.42,0.14,7.15,2.52-0.56,5.89
				c15.01-3.37,15.71-18.24,12.91-29.32l0.56,0.14c2.81,0.14,5.19,0.56,7.01,0.84l0,0c1.4,0.14,3.23,0.28,5.05,0.56
				c11.22,1.12,10.1-12.06,4.35-13.75c-4.49-1.26-5.61-1.4-6.73-1.54l-1.54-0.14l-13.89-31l7.72-3.51l19.92,35.91
				c9.26,14.59-6.03,20.62-14.45,16.27c-1.12,0.56-1.96,1.12-2.52,1.68c2.38,1.54,5.33,2.52,8.7,2.52c5.61,0,10.52-2.52,12.76-6.59
				c1.68-2.95,2.67-8.14-1.82-15.29l-21.18-38.15l-16.83,7.43c1.4,0.28,2.24,0.84,2.81,1.82l2.95-1.26l13.05,29.46
				c-1.68-0.28-6.03-0.7-7.15-0.84l-3.23-0.14c-2.81-8.7-6.59-19.92-9.12-26.37c-1.4-0.28-4.07-0.42-4.63-0.42l0.14,0.14
				c1.96,3.65,8,22.3,9.96,27.49c2.81,7.01,2.52,11.08,2.52,11.08l-12.91-0.28c-0.14-3.79-3.79-10.94-3.79-10.94l-4.77-9.82
				l-1.26-2.81l-5.05-10.52l0,0c-0.56-1.26-1.4-3.65-1.68-5.89c-0.84-6.87,5.89-6.87,6.03-6.87c3.51,0,6.31,1.4,9.12,5.33
				c0.56,0,1.26,0,1.82,0c-4.07-8-6.31-10.52-8.98-15.01C311.27,72.68,227.38,51.36,153.6,69.32
				C247.16,55.57,318.42,95.83,354.05,156c-2.95,1.54-7.86,3.93-10.24,5.19c-0.98,0-4.77-0.14-6.17,0
				c-2.24,0.14-4.35,0.28-2.81,5.61c1.12,3.93,1.54,4.77,2.38,7.29c0.98,2.95,4.49,11.64,6.87,19.08c-0.84,0.14-1.68,0.28-2.67,0.56
				c-0.42-1.26-0.98-2.67-1.54-4.21c-2.95-7.43-6.45-16.97-7.43-20.2c-0.56-1.68-1.26-4.91-0.42-7.72c0,0-3.51,2.81-0.42,10.24
				l8,22.16c-1.12,0.14-2.1,0.42-3.23,0.7c-24.27,4.91-47.97,11.22-61.3,16.83c0,0-9.96,3.65-17.11,9.4l-0.42,0.56
				c-1.96,0.56-3.93,1.96-5.33,3.79c-0.98,0.84-3.23,2.67-4.35,3.79c-2.81,3.23-5.19,6.03-8.42,10.38
				c-2.81,4.07-12.62,19.64-21.32,33.81c-0.7,0.28-1.54,0.7-2.24,1.26c-2.24,1.82-3.79,4.91-3.23,8.28
				c-7.15,11.5-11.36,18.24-13.05,21.04c-3.93,0.28-5.89,3.37-6.03,3.79c-1.68,3.51-9.12,15.71-10.52,16.97
				c-0.84,0.84-2.52,4.07-1.82,7.86l-0.7,1.26l-16.41,24.41c-1.4,1.96-1.68,4.21-0.7,6.31c1.4,2.81,4.77,5.05,8.28,5.19
				c1.82,0.14,3.65-0.28,4.91-1.26c6.59,1.12,52.6,8.84,87.25,14.59c1.4,0.28,2.81,0.42,4.21,0.7c2.38,0.42,4.63,0.7,6.87,1.12
				c1.96,0.28,3.79,0.56,5.47,0.98c-0.84,10.1-3.37,18.8-7.15,26.37l1.54,0.14c24.13,1.96,41.24-2.38,53.02-10.38
				c0.98,1.96,2.1,3.79,3.23,5.61c11.5,18.38,29.18,30.72,52.32,36.75c23.71,6.31,50.64,5.61,76.59-1.96
				c3.09,1.54,6.03,0.56,8.14-0.42c0.56-0.28,1.12-0.7,1.54-1.12c28.05-6.31,32.82-8.7,34.51-10.24l0.56-0.28
				C512.42,426.31,512,413.97,512,413.41"/>
		</g>
	</g>
	<path id="XMLID_80_" class="st2" d="M202.84,335.42c-0.7,9.26,7.72,10.66,12.48,8.84c0.98,7.57,7.57,7.72,10.8,7.29
		c-3.93,2.52-11.64,0.84-13.05-6.31C207.04,347.06,200.31,342.15,202.84,335.42 M204.52,333.45c1.4-1.26,2.52-1.68,4.77-1.68
		c-0.98,1.4-1.26,3.51-1.4,5.75l-1.26-0.84v1.54l1.26,0.98c0,1.4,0,2.38,0.28,3.37l-0.84-0.56
		C202.98,339.48,204.52,333.45,204.52,333.45 M211.95,332.05c3.23,0.98,5.47,3.79,5.33,6.73h0.42c-0.28,2.1-2.52,4.91-7.01,4.21
		c-0.28-0.98-0.28-1.82-0.28-2.81c0.7,0.28,1.54,0.42,2.38,0.42l0.14-1.26c-0.84-0.14-1.68-0.42-2.52-0.7
		C210.41,336.12,210.97,333.87,211.95,332.05 M219.39,338.92c6.45-0.14,11.5,6.31,8.28,10.94l-1.12,0.14
		c-5.61,0.7-8.84-1.54-9.68-6.45C217.71,342.85,219.11,341.17,219.39,338.92 M211.95,347.2c0,0,0.28,0.98,0.98,2.24l0,0
		c0.56,1.12,1.68,2.24,2.81,2.95c8.56,5.19,13.33-1.4,13.47-1.4c0,0,3.93-5.19-1.82-10.8c-0.14-0.14-3.65-3.23-8.42-2.67
		c-0.56-1.96-2.95-7.43-10.1-7.29l0,0l0,0c-5.75,0.42-7.01,3.51-7.72,5.33c0,0-1.4,3.93,0.7,7.29
		C201.85,342.85,204.66,348.32,211.95,347.2"/>
	<path id="XMLID_86_" class="st1" d="M363.03,170.73c-1.96-1.26-4.77-5.33-4.35-8.7C363.17,162.04,364.43,168.49,363.03,170.73"/>
	<path id="XMLID_87_" class="st1" d="M367.66,182.8c-2.24-2.24-3.37-4.63-3.65-8.28C367.52,175.22,369.76,179.57,367.66,182.8"/>
	<path id="XMLID_88_" class="st1" d="M348.72,174.1c0,0,2.81,8.7,6.31,17.53c9.26-2.38,15.85,14.73-0.42,15.99
		c1.54,6.87,16.97,3.93,11.08-11.5c-1.12-3.09-11.5-24.41-13.47-29.74c-1.26-3.37-1.26-3.93-1.26-5.19l0.14-1.26l-0.28,0.14
		l-3.37,1.68C345.07,164.7,348.72,174.1,348.72,174.1"/>
	<path id="XMLID_89_" class="st1" d="M341.85,164.42c0,0-1.4,2.95,0.56,8.98c2.67,7.86,6.73,19.36,6.73,19.36l3.37-0.56l-6.31-17.81
		c0,0-2.67-6.87-1.26-11.36"/>
	<path id="XMLID_90_" class="st1" d="M380.84,206.08c-3.93,0-11.78,0-11.78,0c-0.14,2.38-3.51,4.77-3.51,4.77
		C377.9,211.55,380.84,206.08,380.84,206.08"/>
	<path id="XMLID_91_" class="st1" d="M225.7,275.94l4.63,5.05l17.25-28.34c2.81-4.49,8-10.8,7.57-10.52c0,0-2.1-5.33-3.23-7.43
		c-1.26-2.67-1.12-5.05-1.12-5.05c0.98-1.12-6.03,7.15-8.98,11.92c-2.81,4.21-11.08,17.25-20.06,31.84
		C223.74,273.55,225.7,275.94,225.7,275.94"/>
	<path id="XMLID_92_" class="st1" d="M459.96,307.22c0,0-14.73,1.54-19.78,1.12c0.42,0,2.24,0.28,3.93,1.68
		C444.25,310.03,457.15,308.34,459.96,307.22"/>
	<polyline id="XMLID_93_" class="st1" points="440.18,308.34 440.04,308.34 440.18,308.34 	"/>
	<path id="XMLID_94_" class="st1" d="M445.23,354.91c0,0-8.98,0.14-21.46-0.14l3.65,8.56l14.03-2.81
		C441.58,360.66,446.63,360.38,445.23,354.91"/>
	<path id="XMLID_95_" class="st1" d="M410.72,330.51c0,0-8.28,1.4-9.82,1.54c0,0,12.34,30.3,14.31,33.95c0,0,8.14-1.26,9.82-1.96
		C425.03,364.17,417.03,348.04,410.72,330.51"/>
	<path id="XMLID_96_" class="st1" d="M432.46,378.9c0,0-8.42,1.82-10.52,2.24c0,0,11.92,21.74,34.37,32.68c0,0-0.28-8.56-0.7-11.92
		C455.61,401.91,441.3,392.23,432.46,378.9"/>
	<g id="XMLID_97_">
		<g>
			<defs>
				<rect id="SVGID_3_" y="61.18" width="512" height="389.54"/>
			</defs>
			<clipPath id="SVGID_4_">
				<use xlink:href="#SVGID_3_"  style="overflow:visible;"/>
			</clipPath>
			<path id="XMLID_99_" class="st4" d="M500.36,417.62c0,0,2.67,7.86-25.95,11.5c0,0,17.11-2.38,21.74-8.14c0,0,4.49-3.79-4.63-5.75
				c-8.84-1.96-10.24-0.98-18.8-4.63c0,0,0.56,8.42,0.42,10.38c0,0,5.61,1.68,8.7,1.54c0,0,0.14-2.52-7.01-4.77
				c0,0,31.28,2.95-1.68,9.96c0,0,0.14,6.45-0.7,10.66c0,0,17.11-4.49,22.3-6.03C500.5,430.66,512,425.19,500.36,417.62"/>
		</g>
	</g>
	<path id="XMLID_100_" class="st1" d="M302.29,340.89c9.4,20.62,13.05,29.32,16.41,35.63c7.01,0.56,11.22-0.28,11.22-0.28
		l-16.41-35.21C313.65,341.03,308.74,341.59,302.29,340.89"/>
	<path id="XMLID_101_" class="st1" d="M295.98,324.75c4.91,0.98,11.22,0.7,11.22,0.7l-45.31-100.3c0-0.14-1.12-0.42-2.38-0.42
		c-1.68,0-4.21,1.26-5.47,3.37c-0.98,1.68-0.98,3.23,0,4.91C254.18,233.16,276.76,282.53,295.98,324.75"/>
	<path id="XMLID_102_" class="st1" d="M469.5,435.15c3.65-40.4-11.92-93.98-27.49-122.74c-2.24-1.82-4.91-1.82-7.01-0.84
		c-0.98,0.42-2.24,1.54-2.38,1.82l-0.14,0.98v0.42c0,0-1.68,0.7-4.49,0.98c-21.88,4.35-96.51,13.47-116.99,12.91
		c-0.56,0-10.38,0.14-18.8-0.84c-15.57-1.68-23.57-6.31-34.65-15.01c-9.96-9.4-30.3-30.3-33.81-35.07c-1.68-1.96-4.63-1.4-6.17-0.14
		c-2.1,1.68-3.23,4.77-1.12,7.72c8.14,8.84,28.2,27.91,28.34,28.2c18.1,19.64,36.33,23.71,52.88,24.69
		c11.5,0.84,26.37,0.14,23.85,0.28c30.3-1.82,81.64-8.98,109.83-14.17c2.1-0.42,3.79-0.84,3.79-0.84h0.98
		c1.4,0.56,2.67,4.77,2.67,5.05v-0.14c2.95,7.43,8.84,26.51,8.84,26.65c0,0,1.68,5.89,0.98,6.45c-0.98,0.98-8.84,2.81-8.84,2.81
		c-14.45,3.79-74.2,12.76-106.47,14.45c-0.28,0-8.7,1.4-27.07-1.4l-119.93-19.64l-6.59,9.12l124.14,20.34
		c11.36,1.82,20.34,2.24,26.65,2.1l3.65-0.14c4.49-0.14,7.01-0.56,7.15-0.56c33.39-3.37,75.75-8.84,103.1-15.29
		c0,0,3.09-0.7,5.47-0.56c0.98,0,2.24,0.56,2.24,0.56c0.42,0.42,1.12,1.54,1.54,3.51c4.91,17.67,5.89,44.19,6.03,45.31
		c0,0,0.14,5.47-0.84,7.57c-1.12,1.26-5.19,1.96-5.19,1.96c-44.33,11.36-96.09,3.37-116.15-39.7c-4.35,0.42-10.94,0.28-10.94,0.28
		c0.28,1.54,1.96,4.63,1.96,4.63c12.91,28.62,36.19,40.12,55.97,45.31c21.74,5.75,47.55,5.33,71.54-0.84
		c3.93-1.26,3.79-1.54,3.79-1.54c3.65,1.82,7.15,0.28,7.15,0.28C468.37,439.08,469.22,437.25,469.5,435.15"/>
	<path id="XMLID_103_" class="st1" d="M201.15,335.42c0.7-1.82,1.96-4.91,7.72-5.33l0,0l0,0c7.15-0.28,9.68,5.33,10.1,7.29
		c4.77-0.56,8.28,2.52,8.42,2.67c5.75,5.61,1.82,10.8,1.82,10.8s-4.77,6.59-13.47,1.4c-1.12-0.7-2.24-1.82-2.81-2.95l0,0
		c-0.7-1.26-0.98-2.24-0.98-2.24c-7.29,1.12-10.1-4.35-10.1-4.35C199.61,339.34,201.15,335.42,201.15,335.42 M188.67,337.94
		L188.67,337.94L188.67,337.94l20.62,12.62l2.38,1.4l0,0l6.59,4.07c4.91,3.23,10.66,0.7,13.75-3.51c2.67-3.65,3.65-8.84-1.82-14.03
		c0,0-0.98-1.26-5.75-3.93c-4.35-2.38-19.64-11.78-26.93-16.27c0,0-2.81-1.68-3.79-3.65c-0.98,1.68-3.09,5.05-7.43,11.22
		c-1.96,2.67-2.52,5.05-1.96,7.29C185.3,336.26,188.67,337.8,188.67,337.94"/>
	<path id="XMLID_106_" class="st1" d="M235.52,329.1c-4.35-3.23-14.17-9.82-21.74-14.59l-1.82,1.68c0,0,16.69,11.08,21.04,14.03
		c4.91,3.37,6.87,7.57,6.03,11.78C239.03,341.87,243.09,334.85,235.52,329.1"/>
	<path id="XMLID_107_" class="st1" d="M198.91,316.48c7.15,4.49,30.72,18.38,30.72,18.38s6.31,4.07,6.59,9.12
		c1.96-5.47-1.26-9.54-4.63-11.92l-21.88-14.59c-4.07,1.12-12.76-3.37-12.34-9.12C195.12,310.31,194.7,313.81,198.91,316.48"/>
	<path id="XMLID_108_" class="st1" d="M216.86,343.55c0.98,5.05,4.07,7.29,9.68,6.45l1.12-0.14c3.23-4.77-1.82-11.22-8.28-10.94
		C219.11,341.17,217.71,342.85,216.86,343.55"/>
	<path id="XMLID_109_" class="st1" d="M213.08,345.23c1.4,7.01,9.12,8.7,13.05,6.17c-3.09,0.56-9.68,0.28-10.8-7.15
		c-4.77,1.68-13.19,0.42-12.48-8.84C200.31,342.15,207.04,347.06,213.08,345.23"/>
	<path id="XMLID_110_" class="st1" d="M467.67,308.2c-6.03,1.68-14.59,3.51-21.32,4.63c2.24,4.49,2.81,6.31,3.65,8.14
		c-0.28,0.14,3.23-0.56,7.01-1.26c6.03-1.12,12.2-2.52,15.29-3.51l1.26-0.28c3.37-0.7,3.79-3.79,3.65-4.49
		c-0.28-2.1-1.4-3.79-4.07-4.21C473,307.08,469.64,307.64,467.67,308.2"/>
	<path id="XMLID_111_" class="st1" d="M481.14,350.14c-4.77,1.12-19.36,3.93-19.36,3.93l0.98,2.52c3.93-0.42,20.76-4.63,20.76-4.63
		c3.23,0,3.37,2.1,3.37,2.1c-6.45,2.38-23.15,5.89-23.15,5.89c0.7,3.09,2.38,9.26,2.38,9.26c19.64-3.51,23.99-5.75,23.99-5.75
		c5.75-2.38,3.51-9.12,3.51-9.12C491.38,346.5,481.14,350.14,481.14,350.14"/>
	<path id="XMLID_112_" class="st1" d="M476.37,318.3c0,0,5.05,12.48,8.42,28.05c14.31-0.14,15.15,17.11,6.73,19.78
		c0,0,5.47,27.49,6.87,42.64c0.14,2.81,0,5.05,0,5.05c5.89,1.26,9.4,5.33,9.4,7.57c2.95-17.39-7.29-67.61-20.34-104.22
		c-3.65-13.47-11.36-11.78-11.36-11.78C480.58,306.8,484.23,313.95,476.37,318.3"/>
	<path id="XMLID_113_" class="st1" d="M429.66,311.99c0,0,0.14-2.67,2.95-2.95c0,0-12.06,1.26-28.34-0.98l3.23,7.29
		C407.5,315.36,423.07,313.67,429.66,311.99"/>
	<path id="XMLID_114_" class="st1" d="M176.18,365.29c0,0,11.78-17.53,15.01-22.3c0,0-7.86-4.63-8.84-6.59l-15.57,23.85
		c-0.84,1.12-0.98,2.24-0.42,3.37c0.84,1.82,3.37,3.37,5.75,3.51C173.38,367.26,175.06,366.98,176.18,365.29"/>
	<path id="XMLID_115_" class="st1" d="M264.84,224.88c0.84,1.4,2.95,6.03,2.95,6.03c3.93-2.95,7.72-5.19,14.73-7.72
		c22.44-9.12,49.1-14.45,72.8-19.22l1.82-0.42c3.93-0.56,4.91-2.95,4.63-5.05c-0.28-2.24-2.95-4.49-6.03-3.93
		c-29.46,4.77-63.68,13.61-80.1,20.48c-5.75,2.38-9.82,4.49-13.05,6.59C263.43,222.35,263.57,222.63,264.84,224.88"/>
	<path id="XMLID_116_" class="st1" d="M209.57,314.09l11.92-18.94c0,0-4.77-4.35-7.72-8.42c-9.82,15.99-12.48,20.34-12.62,20.62
		v0.14l-0.14,0.14c-1.4,1.68,0.98,4.07,1.4,4.49C204.66,314.09,208.03,315.36,209.57,314.09"/>
	<path id="XMLID_117_" class="st1" d="M385.19,201.87c4.63,0.42,13.75,1.26,17.25,2.1c3.79,0,4.49-2.52,4.63-3.65
		c0.14-2.1-0.98-4.63-2.95-4.91h-0.14h-0.14c-2.81-0.84-15.99-2.38-21.18-2.95C382.81,192.34,385.19,197.95,385.19,201.87"/>
	<path id="XMLID_118_" class="st1" d="M344.79,295.02c-8.84-9.68-4.49-48.82,11.08-50.64C345.07,252.23,341.57,280.01,344.79,295.02
		 M410.86,192.62l-19.92-35.91l-7.72,3.51l13.89,31l1.54,0.14c1.12,0.14,2.24,0.28,6.73,1.54c5.89,1.68,6.87,14.87-4.21,13.75
		c-1.82-0.28-3.51-0.42-5.05-0.56l0,0c-1.96-0.28-4.35-0.7-7.01-0.84h-0.56c2.81,11.08,1.96,25.95-12.91,29.32
		c7.72-3.37,0.98-5.75,0.56-5.89c-16.13-3.65-42.92,1.26-45.87-0.7c17.25-1.68,18.52-10.24,17.11-19.08
		c-0.84,0.14-1.82,0.28-2.67,0.56c1.68,9.26-2.24,12.76-7.43,14.73c-7.86,2.67-13.61,2.81-13.75,2.67l-5.19-0.14
		c2.24-0.7,6.59-0.98,12.06-2.1c8.28-1.68,13.05-5.33,12.48-14.87c-0.98,0.14-2.1,0.42-3.23,0.7c0.14,2.81-0.28,5.05-1.26,6.73
		c-1.68,3.09-7.43,4.21-10.52,4.63l-4.49,0.56c-17.81,2.24-24.83,5.61-36.05,11.64c0,0-1.4,0.84-2.1,1.4
		c-3.37,1.96-7.86,5.05-12.34,9.54c0.56,1.12,0.98,2.24,1.54,3.51c2.1-1.96,4.21-3.93,6.73-5.89c0,0,5.05-4.35,11.36-7.15
		c-9.12,5.75-14.59,11.5-17.39,14.45c7.15,15.85,16.83,37.03,26.23,57.93c-2.1-16.13,28.9-28.48,40.26-1.54
		c2.1,5.19,4.07,10.8,5.61,16.83c2.24-0.28,4.49-0.42,6.87-0.7c-0.7-2.95-1.54-6.03-2.52-8.98c-1.68-6.87-2.95-16.41-2.81-26.65
		v-1.54c4.63,5.47,21.46,23.71,41.52,29.46l-5.05-12.2c0,0-20.2-8.7-35.21-31.7c0.14-1.12,0.42-1.96,0.56-2.52
		c1.68-8.42,4.77-16.41,9.68-22.58l0.98-1.12c0.28-0.42,0.84-1.12,1.68-1.96l31.84,74.77c0,0,5.33-0.42,10.1-1.26
		c0,0-25.25-59.76-32.82-77.85l1.68-0.14l0.7-0.14l1.12-0.14c7.57-1.4,11.64-4.77,14.45-10.1c2.52-4.49,2.81-10.52,2.38-15.43
		l1.26-1.4c0.7-0.56,1.54-1.12,2.52-1.68C404.83,213.38,420.12,207.35,410.86,192.62"/>
	<path id="XMLID_121_" class="st1" d="M212.8,340.61c-0.84,0-1.68-0.14-2.38-0.28c0,0.98,0,1.96,0.28,2.81
		c4.49,0.7,6.73-2.1,7.01-4.21h-0.42c0.14-2.81-2.24-5.61-5.33-6.73c-0.98,1.82-1.54,4.07-1.54,6.45c0.84,0.42,1.68,0.7,2.52,0.7
		L212.8,340.61"/>
	<path id="XMLID_122_" class="st1" d="M207.47,342.01l0.7,0.56c-0.28-0.98-0.28-1.96-0.28-3.37l-1.26-0.98v-1.54l1.26,0.84
		c0.14-2.1,0.42-4.35,1.4-5.75c-2.1-0.14-3.23,0.42-4.77,1.68C204.52,333.45,202.98,339.48,207.47,342.01"/>
	<g id="XMLID_123_">
		<g>
			<defs>
				<rect id="SVGID_5_" y="61.18" width="512" height="389.54"/>
			</defs>
			<clipPath id="SVGID_6_">
				<use xlink:href="#SVGID_5_"  style="overflow:visible;"/>
			</clipPath>
			<path id="XMLID_125_" class="st5" d="M157.67,361.23c-2.1,0.7-4.35,0.98-6.59,0.98c-6.31,0-12.62-2.81-17.25-7.72
				c-9.12-9.54-9.68-24.27-1.26-32.82c3.79-3.79,8.98-5.89,14.45-5.89c6.31,0,12.62,2.81,17.25,7.72
				c4.77,4.91,7.15,11.22,7.29,17.39L157.67,361.23z M188.67,382.83c-17.25,18.24-51.34,18.1-70.7-6.73
				C150.79,406.53,181.37,386.47,188.67,382.83 M138.17,410.46c-1.54,1.26-3.51,1.68-5.61,1.54c-2.24,1.4-5.89,0.7-8.42-2.1
				c-2.38-2.52-3.09-5.75-1.96-8c-0.56-3.65,0.56-7.29,3.23-9.12c3.93-2.67,9.82-0.98,13.19,3.79
				C141.96,401.34,141.82,407.38,138.17,410.46 M218.97,378.06c5.61,0,10.24,4.63,10.24,10.38c0,4.21-2.52,7.86-6.17,9.4
				c-1.26,1.26-2.95,2.1-4.91,2.1c-2.67,0-4.91-1.54-6.03-3.93c-2.1-1.82-3.37-4.63-3.37-7.57
				C208.73,382.55,213.22,378.06,218.97,378.06 M328.66,174.1c-0.42-0.98-0.98-2.67-1.4-4.49c-0.28-1.68-0.56-3.51-0.14-5.19
				c0.14-0.84,0.42-1.68,0.98-2.38l0.42-0.42l1.12-0.98l0.7-0.42c-11.08-18.66-27.91-37.59-49.52-53.16
				c-17.81-12.76-38.72-23.29-62.42-29.46l-0.84-0.28L217,77.17c-23.85-6.03-50.22-7.72-78.69-2.81
				c-39.98,12.76-75.89,37.31-100.72,71.68l-0.56,0.84l-0.28,0.42C7.01,189.25-5.89,245.64,10.94,312.97
				c12.91,46.85,27.91,71.68,44.33,94.97c0,0-0.7,11.36,18.8,5.47c4.49-1.4,8.42-2.38,12.2-2.95c11.36-1.68,20.9,0.56,34.65,10.94
				c0.84,0.56,1.68,1.26,2.52,1.82c32.54,22.72,85.85,32.54,120.64,14.45c8.98-4.63,16.55-11.08,22.44-19.78l0.28-0.42
				c2.67-3.79,4.21-7.15,5.61-11.08c2.52-7.15,3.23-14.31,2.95-21.04c-2.24-0.42-4.49-0.7-6.87-1.12
				c-1.54,29.18-30.44,57.23-82.06,54.01c-21.6-0.84-44.61-11.22-58.21-18.8c-6.31-4.21-24.13-14.17-32.68-16.13
				c7.43,0.42,25.95,10.1,33.81,14.59c15.99,8.28,38.29,16.13,57.23,16.83c34.51,3.23,73.64-14.45,77.85-51.34
				c-34.65-5.75-80.52-13.47-87.25-14.59c-1.4,0.98-3.09,1.4-4.91,1.26c-3.51-0.28-6.87-2.38-8.28-5.19
				c-0.98-2.1-0.84-4.35,0.56-6.31l16.41-24.41l0.7-1.26c-0.7-3.79,0.98-7.01,1.82-7.86c1.4-1.4,8.84-13.61,10.52-16.97
				c0.14-0.42,2.24-3.51,6.03-3.79c1.68-2.81,5.89-9.54,13.05-21.04c-0.56-3.23,0.98-6.45,3.23-8.28c0.7-0.56,1.4-0.98,2.24-1.26
				c8.84-14.17,18.66-29.74,21.32-33.81c3.09-4.35,5.61-7.15,8.42-10.38c0.98-1.12,3.37-2.95,4.35-3.79
				c1.26-1.82,3.23-3.09,5.33-3.79l0.42-0.56c7.01-5.75,17.11-9.4,17.11-9.4c13.33-5.61,37.03-12.06,61.3-16.83
				c-1.68-4.91-7.01-20.34-7.01-20.34L328.66,174.1"/>
		</g>
		<g>
			<defs>
				<rect id="SVGID_7_" y="61.18" width="512" height="389.54"/>
			</defs>
			<clipPath id="SVGID_8_">
				<use xlink:href="#SVGID_7_"  style="overflow:visible;"/>
			</clipPath>
			<path id="XMLID_131_" class="st6" d="M372.01,179.71c1.12,5.19-2.52,8-6.31,3.65c-1.54-1.82-2.24-3.37-2.95-5.47l-0.14-0.42
				c-0.7-2.67-0.28-4.91-0.28-4.91c-1.12-0.98-1.96-1.96-2.52-2.81l-0.56-0.7c-0.98-1.4-1.54-2.67-1.68-3.51l-0.14-0.7v-0.14
				c-0.14-0.84-0.14-1.68-0.14-2.24c0-1.4,0.28-2.24,0.56-2.67l0,0l0.28-0.42h0.14l0.14-0.14c0.98-0.56,2.24-0.28,2.24-0.28
				c3.23,0.42,7.01,5.05,7.01,11.78v0.84C369.48,173.26,370.88,175.08,372.01,179.71 M112.08,419.02c-0.56,0.42-1.12,0.84-1.82,1.26
				c-7.86,5.61-26.23,12.48-42.5,14.03c-16.55,2.67-25.81-8.98-22.58-17.81l-0.84-2.24c-0.84-2.1-11.5-23.85-10.38-33.24
				c8.84,16.13,16.55,26.37,18.94,28.76l0.28,1.12c-0.14,2.38,0.28,9.26,13.89,6.73c-4.21,8-19.64,3.65-16.55-7.01
				c-2.24-2.81-7.72-11.64-7.72-11.64l0.28,2.38c1.82,3.79,5.05,10.38,5.05,10.38c-2.38,15.43,19.78,16.69,21.46,5.33h0.14
				c1.12-0.28,1.12,0,1.96-0.42c-0.98,4.63-3.23,7.15-5.89,8.56c-4.77,2.38-6.17,6.59,1.12,6.17c7.43-0.56,20.48-2.67,35.91-10.1
				l3.23-1.82c-6.59-4.07-13.47-4.77-18.1-5.19c-3.65-0.28-9.54,0.7-13.75,1.54l0.84-0.28C92.44,409.76,103.38,413.41,112.08,419.02
				 M381.12,161.34l-2.95,1.12c-0.56-0.98-1.4-1.54-2.81-1.82l-1.26-0.14C265.82-33.08-67.89,74.23,12.34,330.37
				c5.61,18.1,12.62,33.81,19.22,46.43c-0.56,2.24-1.4,6.59,0,12.48c2.24,8.28,4.07,13.19,10.66,27.77
				c-2.67,9.82,6.59,24.27,28.9,20.06c26.51-4.07,40.4-13.75,43.63-16.13c0.84,0.56,1.82,1.26,2.67,1.96
				c47.13,36.75,124.14,39.7,152.48-3.79c11.36,2.38,25.53,0.42,25.53,0.42c14.73-0.98,26.65-4.91,35.91-11.08
				c-1.12-1.82-2.24-3.65-3.23-5.61c-11.92,8-29.04,12.34-53.16,10.38l-1.54-0.14c3.79-7.57,6.31-16.41,7.15-26.37
				c-1.82-0.28-3.65-0.56-5.47-0.98c0.28,6.73-0.42,13.89-2.95,21.04c-1.4,3.93-2.95,7.29-5.61,11.08l-0.28,0.42
				c-5.75,8.56-13.47,15.15-22.44,19.78c-34.79,18.1-88.09,8.28-120.64-14.45c-0.84-0.56-1.68-1.26-2.52-1.82
				c-13.89-10.38-23.29-12.62-34.65-10.94c-3.79,0.56-7.72,1.54-12.2,2.95c-19.5,5.89-18.8-5.33-18.8-5.33
				c-16.41-23.29-31.42-48.11-44.33-94.97C-6.17,246.2,6.87,189.81,36.47,147.87l0.28-0.42l0.56-0.84
				C62,112.24,98.05,87.69,138.03,74.93c28.48-4.77,54.99-3.23,78.69,2.81l0.56,0.14l0.84,0.28c23.57,6.17,44.61,16.69,62.42,29.46
				c21.6,15.57,38.44,34.51,49.52,53.16l-0.7,0.42l-1.12,0.98l-0.42,0.42c-0.42,0.7-0.7,1.54-0.98,2.38
				c-0.28,1.68-0.14,3.51,0.14,5.19c0.42,1.82,0.98,3.51,1.4,4.49l0.42,0.84c0,0,5.33,15.43,7.01,20.34l0,0
				c1.12-0.14,2.1-0.42,3.23-0.7l-8-22.16c-3.23-7.43,0.42-10.24,0.42-10.24c-0.98,2.81-0.14,6.03,0.42,7.72
				c0.98,3.23,4.49,12.91,7.43,20.34c0.56,1.4,1.12,2.81,1.54,4.21c0.84-0.14,1.68-0.28,2.67-0.56c-2.52-7.43-5.89-16.13-6.87-19.08
				c-0.84-2.38-1.26-3.37-2.38-7.29c-1.54-5.33,0.56-5.33,2.81-5.61c1.26-0.14,5.05,0,6.17,0c2.38-1.26,7.29-3.65,10.24-5.19
				C317.86,97.09,246.6,56.83,153.04,70.58c73.78-17.96,157.67,3.23,208.03,75.19c2.67,4.49,4.91,6.87,8.98,15.01
				c-0.56,0-1.26,0-1.82,0c-2.81-3.93-5.61-5.19-9.12-5.33c-0.14,0-6.87,0-6.03,6.87c0.28,2.1,1.12,4.63,1.68,5.89l0,0l5.05,10.52
				l1.26,2.81l4.77,9.82c0,0,3.65,7.15,3.79,10.94l12.91,0.28c0,0,0.14-3.93-2.52-11.08c-1.96-5.05-8-23.71-9.96-27.49l-0.14-0.14
				c0.7,0,3.23,0,4.63,0.42c2.52,6.45,6.31,17.67,9.12,26.37l3.23,0.14c1.12,0.14,5.61,0.42,7.15,0.84"/>
		</g>
	</g>
	<path id="XMLID_135_" class="st2" d="M367.66,182.8c-2.24-2.24-3.37-4.63-3.65-8.28C367.52,175.22,369.76,179.57,367.66,182.8
		 M363.03,170.73c-1.96-1.26-4.77-5.33-4.35-8.7C363.17,162.04,364.43,168.49,363.03,170.73 M372.01,179.71
		c-0.98-4.63-2.52-6.45-4.49-8.42v-0.84c0-6.59-3.79-11.22-7.01-11.78c0,0-1.26-0.28-2.24,0.28l-0.14,0.14h-0.14l-0.28,0.42l0,0
		c-0.28,0.56-0.56,1.4-0.56,2.67c0,0.56,0,1.4,0.14,2.24v0.14l0.14,0.7c0.28,0.84,0.84,2.24,1.68,3.51l0.56,0.56
		c0.56,0.84,1.4,1.82,2.52,2.81c0,0-0.28,2.24,0.28,4.91l0.14,0.28c0.7,2.1,1.4,3.79,2.95,5.47
		C369.34,187.57,373.13,184.9,372.01,179.71"/>
</g>
</svg>
