<?xml version="1.0" encoding="utf-8"?>
<!-- Generator: Adobe Illustrator 24.3.0, SVG Export Plug-In . SVG Version: 6.00 Build 0)  -->
<svg version="1.1" id="Layer_1" xmlns="http://www.w3.org/2000/svg" xmlns:xlink="http://www.w3.org/1999/xlink" x="0px" y="0px"
	 viewBox="0 0 512 512" style="enable-background:new 0 0 512 512;" xml:space="preserve">
<style type="text/css">
	.st0{fill:#0D254C;}
	.st1{fill:#FFFFFF;}
</style>
<g id="XMLID_1_">
	<polygon id="XMLID_2_" class="st0" points="353.72,313.77 512,198.79 316.42,198.79 256,12.86 195.58,198.79 0,198.79 
		158.28,313.77 97.72,499.84 256,385.01 414.28,499.84 	"/>
	<polygon id="XMLID_4_" class="st1" points="337.48,308.94 469.28,213.42 306.32,213.42 256,58.5 205.68,213.42 42.72,213.42 
		174.52,308.94 124.2,463.71 256,367.89 387.8,463.71 	"/>
	<polygon id="XMLID_3_" class="st0" points="324.75,304.55 436.08,223.66 298.57,223.66 256,92.88 213.43,223.66 75.92,223.66 
		187.25,304.55 144.68,435.33 256,354.43 367.32,435.33 	"/>
</g>
</svg>
