<?xml version="1.0" encoding="utf-8"?>
<!-- Generator: Adobe Illustrator 24.3.0, SVG Export Plug-In . SVG Version: 6.00 Build 0)  -->
<svg version="1.1" id="Layer_1" xmlns="http://www.w3.org/2000/svg" xmlns:xlink="http://www.w3.org/1999/xlink" x="0px" y="0px"
	 viewBox="0 0 512 512" style="enable-background:new 0 0 512 512;" xml:space="preserve">
<style type="text/css">
	.st0{fill:#13264B;}
	.st1{fill:#DE6226;}
	.st2{fill:#FFFFFF;}
</style>
<g id="XMLID_1_">
	<g id="XMLID_2_">
		<path id="XMLID_9_" class="st0" d="M0.06,187.31c0,0-2.7,50.19,55.88,82.04c0,0,23.6,12.51,79.05,22.75
			c48.77,8.96,74.93,27.87,85.31,39.81c13.22,15.21,26.3,42.8,32.13,67.11c0,0,0,6.26,4.55,5.97c0,0,3.98,0.28,3.7-5.4
			c0,0-1.42-38.1,9.53-56.44c8.39-15.07,23.46-28.01,48.48-37.25c0,0,16.63,12.65,40.38,12.65c17.2,0,32.42-7.39,32.42-7.39
			s30.14,10.38,33.55,26.73c0,0,0.28,3.98-0.85,6.82l37.82,1.99l20.62-18.63c0,0-38.39-2.84-39.24-13.79c0,0-0.57-5.12,9.81-5.12
			c0,0,23.89-0.43,46.07,32.84l12.8-33.41c0,0-9.81-4.83-9.53-13.79c0,0-0.14-5.4,4.12-16.35l-15.78-7.25c0,0-8.53-8.1-60-40.09
			l6.68-4.27l-56.87-24.6c0,0-18.2-28.72-68.96-28.86c0,0-39.67-64.98-102.94-64.98c0,0-23.32-1.42-50.05,12.65
			c0,0-10.66,4.83-21.04,10.81c0,0-21.75,15.07-46.49-17.77c0,0-9.1,38.67,18.2,55.31c0,0-26.02,5.4-35.12-16.78
			c0,0-8.39-17.06-6.11-45.5c0,0-19.9,18.06-19.9,52.61c0,0-0.14,22.04,14.5,37.11c0,0-7.39-1.14-19.05,6.26
			C43.43,202.8,22.95,217.73,0.06,187.31z"/>
		<path class="st1" d="M96.89,131.15c0,0,3.84,34.12,32.84,34.12c0,0,11.37,0,21.9-3.98c10.38-3.98,25.73-11.66,45.92-11.66
			c0,0,26.45-2.56,41.37,26.87c0,0,33.84-1.85,65.54,4.12c0,0-36.11-63.55-98.81-62.56c0,0-18.34-1-42.8,11.23l-9.81,4.69
			c-7.25,3.41-9.95,5.12-9.95,5.12s-10.09,6.11-19.9,5.83C123.19,144.79,110.53,145.79,96.89,131.15z M61.06,132.28
			c0,0-16.78,46.35,20.05,67.11c6.82,4.41,17.77,8.53,30.14,8.96c0,0,50.33-24.03,105.07-30.28c0,0-6.4-13.51-31.14-13.51
			c0,0-15.07-0.85-42.51,6.68c0,0-7.39,1.85-16.21,4.83c-12.51,2.99-33.27,6.11-46.63-2.42C79.82,173.8,61.48,164.7,61.06,132.28z
			 M13.71,210.34c0,0,4.55,24.74,32.99,24.74c0,0,19.9,0.43,47.91-16.63c0,0-9.67-3.7-14.64-6.97c0,0-10.38-7.82-21.18-4.69
			c0,0-1.85,0.43-11.94,4.55c0,0-6.97,4.55-17.06,4.55C29.92,215.88,19.83,215.74,13.71,210.34z"/>
		<path id="XMLID_5_" class="st2" d="M167.41,290.38c0,0,56.59-59.86,138.34-39.1c0,0,3.98,46.92,54.6,49.76c0,0,17.2,1,33.41-10.38
			l31.71,11.8l-33.27-21.04c0,0-10.66,10.38-30,10.38c-19.34,0-42.65-19.48-40.66-47.2c0,0-34.98-17.49-74.07-26.73l11.66,18.48
			c0,0-75.92-4.83-138.05,43.51c0,0-59.43-13.22-66.54-24.6c0,0,122.27-99.38,278.67-59c0,0,1.85-2.7-2.7-6.4
			c0,0-5.83-4.41-14.64-6.97c0,0,38.25-1.99,58.29,27.01l43.93,18.48l-4.55,3.27c0,0,67.25,41.8,71.8,47.63l9.38,3.98
			c0,0-6.68,19.48,6.97,30.14l-5.12,13.51c0,0-22.46-24.17-44.93-25.17c0,0-16.63-0.43-16.63,12.94c0,0-1.99,14.22,30.99,18.34
			l-6.82,6.26l-25.17-1.56c0,0,0.57-20.47-43.36-36.54c0,0-36.11,21.47-70.24-4.98c0,0-62.27,14.93-67.96,72.37
			c0,0-6.82-21.61-22.04-40.09c0,0,8.25-29.29,52.61-43.93c0,0-39.81-1.99-67.82,29.72C215.32,313.84,196.84,298.77,167.41,290.38z"
			/>
	</g>
	<path id="XMLID_4_" class="st0" d="M370.86,222.57c0,0,30.99,4.69,84.31,48.2l-50.33-27.58c0,0-3.27,1.71-5.26,3.41
		C399.44,246.74,388.06,233.51,370.86,222.57z"/>
	<path id="XMLID_3_" class="st1" d="M396.17,231.81c0,0-2.56,2.13-1.56,5.83c0,0,1.28,3.55,5.26,3.55c0,0,4.55,0,5.26-4.83
		l-2.13-1.14l-5.54,4.12l1.56-6.26L396.17,231.81z"/>
	<path id="XMLID_10_" class="st0" d="M485.74,284.56c0,0-4.27,1.56-4.27,5.4c0,0-1,3.98,7.54,12.65c0,0-12.8-9.38-15.21-14.93
		c0,0-2.27-4.12,3.98-4.12C477.92,283.42,481.62,283.42,485.74,284.56z"/>
	<path id="XMLID_11_" class="st0" d="M340.44,199.25c0,0,7.82,0.14,8.82-1.85c0,0,1.99-1.99-8.67-6.97c0,0,16.35,3.41,23.74,16.49
		C364.46,206.93,353.8,202.09,340.44,199.25z"/>
</g>
</svg>
