<?xml version="1.0" encoding="utf-8"?>
<!-- Generator: Adobe Illustrator 24.3.0, SVG Export Plug-In . SVG Version: 6.00 Build 0)  -->
<svg version="1.1" id="Layer_1" xmlns="http://www.w3.org/2000/svg" xmlns:xlink="http://www.w3.org/1999/xlink" x="0px" y="0px"
	 viewBox="0 0 512 512" style="enable-background:new 0 0 512 512;" xml:space="preserve">
<style type="text/css">
	.st0{fill:#010101;}
	.st1{fill:#FFFFFF;}
	.st2{fill:#006DB0;}
</style>
<g id="XMLID_1_">
	<path id="XMLID_9_" class="st0" d="M335.22,60.93c9.11,5.83,18.07,11.81,27.46,17.08c10.1,5.98,21.77,8.82,32.87,12.38
		c7.54,2.28,14.51,7.4,17.65,14.8c4.27,1.99,8.54,3.84,12.24,6.55c4.13,3.13,6.55,7.97,8.4,12.66c6.97,2.85,13.66,6.26,20.06,10.1
		c8.82,5.55,16.36,12.81,23.76,20.06c-5.83,3.13-11.1,7.68-14.66,13.23c-2.13,5.27-3.98,10.82-7.54,15.51
		c7.4-5.98,18.78-5.55,25.9,0.71c9.53-0.85,19.21,2.99,25.9,9.82c4.55,4.84,6.12,12.38,3.7,18.64c-1.71,3.56-0.43,7.83-2.56,11.38
		c-1.71,3.7-4.98,6.12-7.68,8.97c-2.7,4.84-6.69,9.11-11.95,10.82c-5.69,1.85-11.81,0.71-17.36-0.71
		c-7.68,1.42-15.65,1.28-23.05-1.71c-2.13,3.13-4.27,6.26-6.55,9.39c5.27,4.27,11.24,7.83,17.93,9.53
		c7.4,1.99,15.65,3.7,20.21,10.53c13.8-2.42,27.46,7.83,31.02,20.92c1.14,4.27,1,8.97-0.57,13.09c-1.42,3.84-5.12,6.4-6.26,10.39
		c-2.13,5.69-7.26,9.96-13.38,10.67c-6.4,5.98-16.65,7.12-24.19,2.56c-6.97-0.85-14.37-1-20.49-4.98c-3.7-2.28-6.26-5.69-9.11-8.68
		c-7.4-3.42-15.65-2.56-23.48-3.98c-11.81-1.85-23.62-4.55-34.44-9.82c-7.68,2.42-15.8,3.13-23.76,3.7
		c-1.85-4.55-4.13-8.82-7.68-12.24c-13.38,7.12-26.75,15.8-42.12,17.65c-1.14,5.69-2.28,11.53-4.55,16.93
		c-3.13,7.83-10.1,13.52-17.79,16.65c8.82,3.42,15.94,11.1,17.5,20.63c1.42,7.12-2.42,14.09-8.11,18.21
		c-2.28,5.27-6.97,9.25-12.66,10.53c-5.41,1.57-11.24-0.57-16.36,1.71c-8.25,2.99-16.93,0-23.91-4.7
		c-10.25,0.71-20.63,2.13-30.88,1.28c-7.4-0.71-13.8-5.83-16.65-12.66c-4.27,3.13-8.82,5.69-13.52,7.83
		c-7.68,3.84-15.37,7.83-22.48,12.81c0.43,1.57-0.43,3.98,1.42,4.7c5.83,2.85,10.67,8.25,11.67,14.8
		c0.57,4.98,0.28,10.25-2.28,14.66c-1.71,3.13-4.84,4.98-6.69,7.83c-2.42,3.56-5.83,6.55-9.96,7.54c-3.56,1.14-7.4,0-10.96,1.14
		c-5.83,1.71-12.38,1.57-17.79-1.57c-7.4-4.27-12.38-12.66-12.1-21.35c0.71-10.53,1.14-21.06,1.14-31.45
		c-3.56-5.98-5.83-13.52-2.56-20.06c2.85-7.4,10.96-10.53,14.37-17.5c3.13-5.55,3.42-11.95,3.84-18.07
		c0.43-7.26,1.28-14.51,1.57-21.91c-10.1-3.13-20.06-7.54-28.18-14.51c-7.12-6.83-13.09-15.08-16.36-24.48
		c-3.7-10.1-4.27-21.2-8.97-30.88c-1.99-4.27-5.41-7.83-9.25-10.53c-9.25,1.85-19.21-1.28-25.76-8.11
		c-4.98-4.13-7.68-10.96-13.8-13.52c-7.83-3.7-16.65-4.98-25.33-5.98c13.23-13.52,30.31-24.05,49.38-26.04
		c7.97-1,16.36,1.14,22.34,6.4c4.55,3.7,7.4,8.97,9.25,14.51c16.79,7.54,29.46,22.91,34.58,40.56c2.13,7.4,3.56,15.37,8.68,21.49
		c4.98,6.12,12.52,9.53,20.06,11.1c7.97-7.4,15.23-16.51,25.9-20.06c4.84-1.85,9.96-2.85,14.66-4.98c4.13-2.85,7.83-6.4,11.81-9.53
		c1.99-1.57,3.7-3.42,4.84-5.55c4.13-7.26,8.11-14.66,14.09-20.78c-3.7-7.68-5.98-16.08-5.98-24.62c1.99,0.71,3.84,1.28,5.83,1.85
		c0.28-13.23,9.25-23.76,18.36-32.45c0.14-7.83,2.42-15.65,6.4-22.48c-2.56-4.41-4.84-8.97-5.69-14.09
		c7.83-0.85,15.65-2.13,22.77-5.27c4.27-1.71,6.83-5.69,9.82-8.97c5.41-5.83,11.38-11.53,18.64-14.94c9.25-4.27,19.35-6.4,29.6-5.98
		c-3.27-2.42-6.83-4.55-10.53-6.12c8.54-5.27,18.5-7.97,28.46-9.11C333.37,70.61,333.66,65.63,335.22,60.93L335.22,60.93z"/>
	<path id="XMLID_8_" class="st1" d="M340.2,71.6c8.97,5.27,16.93,12.1,26.61,16.22c8.54,3.56,17.36,6.4,26.04,9.25
		c6.69,1.85,13.09,6.55,14.66,13.52c5.83,2.7,12.66,4.41,16.51,9.96c2.85,3.13,2.42,8.54,6.69,10.25
		c7.12,3.13,14.23,6.4,20.78,10.82c5.41,3.98,10.53,8.54,15.37,13.38c-3.42,3.13-7.54,5.83-10.25,9.68
		c-2.7,6.83-5.12,14.37-11.1,19.21c-1.99,1.71-4.84,2.56-6.12,4.98c5.55,0.14,10.82,1.57,16.08,3.56c3.56-2.13,6.55-5.41,10.82-5.98
		c4.55-1.14,9.11,1.42,12.1,4.84c8.82-0.85,18.78,1,24.33,8.4c3.42,3.84,2.85,9.82-0.14,13.66c0,2.85,0.71,6.12-1,8.82
		c-1.28,2.28-3.7,3.56-5.83,4.84c-1.99,3.98-4.41,8.4-8.68,9.96c-4.98,1.99-10.53,0.28-15.37-1.42c-4.84,0.85-9.96,1.85-14.94,1.14
		c-3.56-0.71-6.69-2.7-9.82-4.7c-5.41,6.26-9.68,13.52-14.94,19.92c6.12,5.41,12.81,10.67,20.63,13.52
		c4.41,1.71,9.11,2.85,13.66,3.98c4.7,1.28,7.83,5.12,9.82,9.25c5.98-1.28,12.81-1.99,18.07,1.85c4.84,3.56,9.96,8.11,10.82,14.51
		c0.85,4.84-1.71,9.68-5.69,12.38c-0.71,2.85-1.28,5.83-3.27,8.11c-2.13,2.42-5.55,3.13-8.68,3.27c-2.7,3.56-7.26,6.12-11.81,5.27
		c-4.13-0.43-7.26-4.13-11.53-3.27c-8.82,0.57-17.93-3.7-21.91-11.67c-8.11-3.27-16.79-4.7-25.33-4.7
		c-12.95-1.42-25.9-4.7-37.28-11.1c-6.26,2.56-12.81,4.55-19.64,5.12c-2.42-5.83-6.83-10.67-12.24-14.09
		c-8.25,4.55-16.65,9.11-25.05,13.38c-7.54,3.84-16.08,5.12-24.48,5.98c0.71,6.4-1.28,12.52-3.27,18.5
		c-1.14,2.85-2.13,5.98-4.13,8.25c-2.42,2.42-5.27,4.13-8.11,5.83c-6.83,3.84-14.94,4.7-21.63,8.82c-3.42,2.13-6.55,4.7-9.68,7.4
		c3.7,0.71,7.83,2.56,11.53,0.71c3.27-1.28,6.4-3.13,10.1-3.27c9.68-1.14,18.64,6.69,20.78,15.65c1.14,5.27-2.56,9.82-6.97,12.24
		c-1.14,2.85-2.56,5.98-5.41,7.54c-4.84,2.56-10.39,1.14-15.51,1.14c-3.98,1.57-8.25,3.56-12.66,2.28
		c-4.55-0.85-8.11-4.27-12.66-5.27c-9.82,0.14-19.64,1.57-29.46,1.57c-4.41-0.14-8.82-2.42-11.24-6.12
		c-3.27-4.55-1.57-10.53,0.85-15.08c2.28-4.27,6.55-7.4,8.4-11.81c-1.14-2.42-3.98-2.99-6.12-4.41c-5.69,9.96-9.11,22.2-19.5,28.46
		c-11.53,6.69-24.48,11.24-34.58,20.21c0,4.27,0,8.54,0.28,12.95c5.12,0.85,10.53,3.56,12.1,8.97c1.28,5.83,0.57,13.66-5.69,16.36
		c-1.42,3.13-3.27,6.55-6.69,7.68c-3.56,1.42-7.4-0.57-10.82,0.85c-3.98,1.28-8.4,1.71-12.24,0.14c-5.69-2.42-9.82-8.4-9.53-14.66
		c-0.14-10.96,0.71-21.77,1-32.59c-0.71-5.41-5.55-9.96-4.13-15.8c2.7-8.4,12.95-11.24,15.94-19.64
		c5.98-15.23,3.27-31.88,5.83-47.81c-8.97-2.28-17.93-5.55-25.9-10.39c-7.97-4.84-13.8-12.67-17.79-20.92
		c-5.69-11.95-5.83-25.61-11.81-37.43c-2.99-5.83-7.97-10.53-13.66-13.66c-7.12,2.42-15.51,1-21.2-4.13
		c-4.84-3.84-7.83-9.68-12.52-13.52c-5.83-3.7-12.95-4.55-19.78-5.55c13.38-8.97,28.75-17.93,45.54-15.65
		c9.25,1.14,15.37,9.96,16.65,18.78c7.26,3.42,14.37,7.54,20.06,13.38c7.26,7.54,12.24,17.22,14.66,27.46
		c2.42,9.53,6.55,19.21,13.95,25.76c6.83,5.27,15.23,8.4,23.62,9.53c5.27-5.69,10.96-11.24,16.79-16.36
		c7.12-6.12,17.08-6.4,25.33-10.39c4.84-3.98,9.39-8.11,14.23-11.95c3.13-2.28,4.41-6.12,6.55-9.25c4.13-7.54,9.11-14.51,14.51-21.2
		c-3.27-4.27-5.27-9.53-5.69-14.94c1.71,0.14,3.56,0.28,5.27,0.43c-1.85-4.84-2.13-10.39,0-15.23c3.7-8.54,9.96-15.65,16.79-21.91
		c-0.14-8.97,2.28-18.21,7.68-25.47c-2.13-2.99-3.98-6.26-5.12-9.68c7.12-1.14,14.51-1.99,20.63-5.98c4.27-2.28,6.69-6.55,9.96-9.96
		c5.69-5.83,12.24-11.1,20.06-13.66c8.25-2.56,17.08-3.42,25.76-2.85c2.99-1.99,6.12-3.7,9.39-5.41c-2.99-2.99-6.12-5.69-9.82-7.83
		c6.55-1.71,13.23-2.7,20.06-2.42C339.49,78.72,340.49,75.16,340.2,71.6L340.2,71.6z"/>
	<path id="XMLID_7_" class="st2" d="M346.18,83.27c5.27,3.84,10.53,7.68,16.36,10.53c10.25,5.41,21.91,7.12,32.45,11.81
		c3.98,1.57,5.69,5.69,5.55,9.68c5.12,2.42,10.53,4.27,15.37,7.26c4.84,3.27,4.41,10.53,9.39,13.66c5.41,2.7,11.1,4.84,16.51,7.83
		c5.69,2.99,10.67,6.97,15.51,11.24c-3.27,2.28-7.26,4.55-8.11,8.82c-2.13,7.54-6.55,14.8-14.09,17.79
		c1.57-3.7,1.99-7.68,1.14-11.53c-7.68-0.14-15.51,1.14-22.48,4.84c0,4.13-0.43,8.97,2.42,12.38c1.57,2.13,4.7,2.56,6.97,1.42
		c3.7-1.71,6.12-4.98,8.25-8.25c0.14,3.13-0.85,6.83,1.28,9.53c0.85,2.42,0.14,5.27,0.14,7.83c6.97-3.42,14.66-1.28,21.35,1.85
		c6.4,1.14,9.82-8.11,16.22-6.12c1.71,1,2.42,3.13,4.13,4.27c5.69,1.28,11.95-1.14,17.22,1.99c2.85,1.42,6.97,3.84,6.12,7.68
		c-1.14,1.28-2.42,2.28-3.56,3.42c0.71,2.28,1.85,4.7,1.28,7.12c-1.14,1.99-3.56,2.28-5.41,3.13c-1.28,3.13-2.28,6.69-5.27,8.68
		c-4.41,1-8.68-0.71-12.81-1.99c-6.55,1.71-14.8,3.42-20.21-1.71c-3.13-3.56-8.68-1.14-11.24,1.85
		c-5.98,7.12-10.25,15.51-16.79,22.06c-9.96,9.96-20.63,19.35-32.16,27.46c-8.11,6.12-17.5,10.53-27.61,12.38
		c-3.84-5.98-9.11-11.53-15.94-13.8c-18.5-6.4-38.42-5.69-57.49-2.99c16.08,0.28,33.16,0,47.81,7.54
		c-7.12,3.98-14.23,7.97-21.63,11.24c-8.54,3.7-18.07,3.84-27.32,4.7c1.14,4.7,2.7,9.68,1.28,14.51
		c-1.42,5.41-2.56,11.38-6.69,15.37c-8.97,6.4-20.63,7.12-29.6,13.52c-6.12,4.27-11.53,9.82-14.66,16.65
		c6.12,1.28,12.38,2.7,18.5,3.7c6.83,1.57,12.1-5.69,18.93-3.84c4.7,1.42,8.82,5.69,9.53,10.53c-0.43,3.27-4.13,3.84-6.55,4.84
		c-0.43,2.13-0.85,4.13-1.42,6.26c-4.7,1.71-9.82,0.85-14.51-0.14c-2.28,1.71-4.98,3.42-7.97,3.27c-5.55,0.14-9.11-5.55-14.51-5.83
		c-10.25-0.28-20.35,1.99-30.45,1.42c-2.56-0.14-5.55-1.71-5.69-4.55c-0.28-4.84,3.7-8.25,6.4-11.81c2.56-3.42,6.55-7.26,4.84-11.95
		c-1.99-4.55-6.97-6.4-10.96-8.4c7.54-8.68,16.51-16.36,26.61-22.2c12.95-7.83,26.47-15.08,40.84-19.92
		c-22.2,3.7-43.12,13.8-60.34,28.03c4.27-8.25,11.38-14.23,17.79-20.63c-13.8,6.97-24.62,19.07-31.31,32.87
		c-3.98,8.4-8.25,16.79-12.95,24.9c-2.7,4.84-7.97,7.12-12.66,9.39c-8.82,4.13-17.5,8.97-25.47,14.51c-2.7,1.99-6.12,4.27-6.26,8.11
		c-0.43,6.55,0.28,13.23,1.14,19.64c3.42,0.57,7.12,0.71,10.25,2.56c2.13,2.28,2.28,5.83,1.28,8.68c-1.14,1.57-3.27,1.28-4.98,1.85
		c-0.43,2.28-0.28,5.12-2.56,6.55c-2.7,0.71-5.41-0.14-7.97-0.57c-1.99,1.28-4.27,2.7-6.83,2.56c-4.7,0.43-8.82-3.84-8.54-8.54
		c0.14-11.53,1.28-23.05,0.85-34.58c-0.14-4.55-4.55-7.83-3.98-12.38c2.28-3.98,6.4-6.4,9.53-9.68c4.13-3.84,6.26-9.11,7.83-14.37
		c4.7-16.22,1.28-33.73,5.98-49.95c-8.97-1.71-17.65-4.41-25.9-8.4c-8.25-3.84-14.8-10.67-19.21-18.64
		c-3.98-7.12-4.55-15.37-6.83-23.05c-1.85-6.4-4.13-12.66-7.12-18.64c-3.84-7.68-11.53-12.38-18.78-16.65
		c-3.7,1.85-8.25,2.99-12.24,1.28c-5.83-2.42-10.96-6.55-14.37-11.95c-2.28-3.98-6.83-5.41-10.82-6.55
		c5.98-1.99,12.38-3.42,18.78-2.13c3.56,0.71,6.55,2.56,9.68,3.98c-3.27-5.83-10.25-6.55-16.08-7.54
		c6.69-2.56,14.94-2.99,20.92,1.28c4.27,3.42,5.41,8.97,6.83,14.09c6.83,3.84,13.95,7.54,19.92,12.66
		c7.68,7.26,12.1,17.36,14.37,27.61c2.7,11.1,8.4,21.63,17.5,28.75c8.4,6.4,19.07,9.11,29.6,9.96c4.98-6.26,10.96-11.81,17.08-17.22
		c7.26-6.69,18.36-5.98,26.33-11.38c5.83-5.12,12.1-9.53,17.5-15.08c4.98-7.4,8.82-15.51,14.09-22.63
		c3.7-4.98,7.97-9.82,12.24-14.37c-3.98-0.43-7.97-1.28-11.1-3.98c4.13-2.7,9.82-5.12,10.67-10.39c0.14-4.55-5.55-2.99-8.4-2.13
		c3.13-13.23,13.38-22.91,23.62-31.16c3.84-2.85,8.68-6.4,8.54-11.95c-2.42-4.98-8.54-1.71-11.38,1.14
		c2.28-5.69,5.12-11.38,9.82-15.51c-2.42-1.14-4.7-2.85-6.26-4.98c4.55-0.43,9.25-0.71,13.38-3.13c7.26-4.13,14.37-8.4,22.2-11.53
		c-3.42-0.28-6.83-0.14-10.1,0.71c6.69-6.97,15.23-12.66,24.9-14.23c11.67-2.28,23.48,1.28,35.01-0.85
		c-2.85-2.28-6.4-3.27-9.96-3.84c4.27-2.13,8.68-4.13,13.38-5.12c-3.13-2.7-6.55-5.12-10.25-7.12c5.83,0.43,11.67,0.71,17.36,2.42
		C347.32,88.68,346.46,85.98,346.18,83.27L346.18,83.27z"/>
	<path id="XMLID_6_" class="st1" d="M396.98,137.63c4.27-0.57,8.82-2.7,12.95-0.71c2.13,0.85,4.41,1.71,6.55,2.42
		c-1.42,1.99-2.56,4.13-3.56,6.26C408.65,141.33,403.24,138.34,396.98,137.63L396.98,137.63z"/>
	<path id="XMLID_5_" class="st1" d="M292.82,169.65c7.68-5.55,16.65-9.82,26.33-10.39c16.65-1,33.44,7.4,43.12,21.06
		c-11.95-8.68-26.04-15.8-41.13-15.37C311.46,164.81,302.07,166.95,292.82,169.65L292.82,169.65z"/>
	<path id="XMLID_4_" class="st1" d="M281.15,196.12c11.53-4.98,21.91-13.38,34.58-15.23c9.39-1.71,18.93-0.14,28.18,2.28
		c-11.67-0.85-23.62,0.57-34.15,5.83c-9.82,4.7-18.21,11.95-28.75,15.37c-10.82,4.13-22.91,3.98-33.87,0.14
		C258.95,203.95,270.62,201.24,281.15,196.12L281.15,196.12z"/>
	<path id="XMLID_3_" class="st1" d="M316.44,203.52c14.09-6.4,30.6-8.82,45.68-4.13c5.55,1.85,11.53,4.41,14.66,9.68
		c1.71,2.56,1.85,5.83,2.13,8.82c4.41-1.14,8.82-2.56,12.95-4.7c0.71-3.7,1.42-7.54,3.7-10.67c1.85-2.7,5.27-4.55,8.68-3.98
		c5.98,0.71,11.53,3.27,16.93,5.83c-14.8,10.96-32.02,17.93-49.52,23.2c1.99-5.12,2.28-11.1-1-15.8
		c-4.84-7.4-14.09-9.53-22.34-10.82C337.64,199.39,326.83,201.1,316.44,203.52L316.44,203.52z"/>
	<path id="XMLID_2_" class="st2" d="M386.31,288.76c15.08-8.54,28.6-19.5,40.7-32.02c4.84,4.27,9.68,8.4,15.37,11.53
		c6.83,3.56,14.23,5.98,21.63,7.83c5.12,1.14,5.41,8.4,10.67,9.53c4.7,0.71,9.82-2.28,14.37,0c3.27,1.85,5.98,4.7,7.83,7.83
		c0.85,1.71,1.85,3.7,0.85,5.55c-1,2.13-3.56,2.42-5.41,3.27c-0.28,2.85,0.28,6.26-1.85,8.54c-2.28,1.42-4.98,0.14-7.4-0.14
		c-1,2.13-1.71,5.27-4.41,5.83c-3.27,0.85-6.12-1.57-8.54-3.27c-5.55,0.28-11.81,0.71-16.65-2.42c-2.85-1.71-4.55-4.7-5.98-7.54
		c-7.4-3.13-15.08-5.41-23.05-5.83C411.21,296.44,398.12,294.31,386.31,288.76L386.31,288.76z"/>
</g>
</svg>
