<?xml version="1.0" encoding="utf-8"?>
<!-- Generator: Adobe Illustrator 26.5.0, SVG Export Plug-In . SVG Version: 6.00 Build 0)  -->
<svg version="1.1" id="Layer_1" xmlns="http://www.w3.org/2000/svg" xmlns:xlink="http://www.w3.org/1999/xlink" x="0px" y="0px"
	 viewBox="0 0 512 512" style="enable-background:new 0 0 512 512;" xml:space="preserve">
<style type="text/css">
	.st0{fill:#313F36;}
	.st1{fill:#F9C132;}
	.st2{fill:#FFFFFF;}
</style>
<g id="XMLID_22_">
	<ellipse id="XMLID_27_" class="st0" cx="256" cy="255.98" rx="253.01" ry="164.98"/>
	<path id="XMLID_30_" class="st1" d="M256,424.09c-68.12,0-132.27-17.35-180.48-48.78C26.74,343.45,0,301.06,0,255.98
		s26.74-87.47,75.52-119.18C123.73,105.37,187.88,88.01,256,88.01s132.27,17.35,180.48,48.78c48.64,31.72,75.52,74.1,75.52,119.18
		s-26.74,87.47-75.52,119.18C388.27,406.73,324.12,424.09,256,424.09z M256,93.99c-137.81,0-249.88,72.68-249.88,161.99
		S118.19,417.97,256,417.97s249.88-72.68,249.88-161.99S393.81,93.99,256,93.99z"/>
	<path id="XMLID_31_" class="st2" d="M367.5,287.98H214.33v-39.82h265.1c0,2.28,0.71,3.56,0.71,5.83
		c1,89.03-117.19,141.94-219.73,141.94c-131.84,0-231.96-61.01-231.4-139.8c0.57-75.95,110.93-139.8,229.69-139.52
		c96,0,178.63,42.95,210.06,95.72H368.64c-20.48-27.02-59.88-51.34-114.49-51.34c-81.07,0-133.83,43.66-133.83,90.31
		c0,51.91,49.49,89.6,129.28,89.6C308.62,341.17,344.32,318.13,367.5,287.98z"/>
</g>
</svg>
