<?xml version="1.0" encoding="utf-8"?>
<!-- Generator: Adobe Illustrator 26.5.0, SVG Export Plug-In . SVG Version: 6.00 Build 0)  -->
<svg version="1.1" id="Layer_1" xmlns="http://www.w3.org/2000/svg" xmlns:xlink="http://www.w3.org/1999/xlink" x="0px" y="0px"
	 viewBox="0 0 512 512" style="enable-background:new 0 0 512 512;" xml:space="preserve">
<style type="text/css">
	.st0{fill:#FFFFFF;}
	.st1{fill:#B21E35;}
	.st2{fill:#06192E;}
</style>
<g id="XMLID_1_">
	<path id="XMLID_9_" class="st0" d="M377.7,101.95c109.57,83.38,26.19,95.82-59.39,108.11c0,0-36.13-9.95-98.74-41.11
		C77.66,98.44,122.28,65.24,233.9,45.19C55.57-32.48-93.2,102.83,70.93,234.49l-45.06,32.18c37.01,22.67,113.67,70.22,102.55,143.07
		l-38.03,27.21l116.15,52.66l91.72-41.55c0.73-40.38,72.85-61.29,103.86-143.36C572.7,265.5,529.25,115.27,377.7,101.95
		L377.7,101.95z"/>
	<path id="XMLID_8_" class="st1" d="M408.56,114.97c73.58,57.64,22.53,94.36-67.15,104.45c22.67,95.67-46.81,183.3-120.54,251.18
		l67.58-30.57c4.97-38.91,73.58-59.1,106.06-145.41C546.8,260.53,521.93,151.11,408.56,114.97L408.56,114.97z"/>
	<path class="st2" d="M299.72,217.67C85.41,134.87,71.08,66.99,204.93,43.44C37.58-1.91-60,119.36,105.6,235.08l-44.47,31.74
		c47.25,31.6,97.13,78.26,80.17,151.7l-22.38,15.95l86.02,38.91C284.95,385.75,326.79,300.61,299.72,217.67L299.72,217.67z
		 M245.6,351.08l-32.91-37.45l-37.89,5.71l17.55-28.82l-32.91-37.6l43.74,19.75l17.41-28.82l9.51,40.96l43.74,19.6l-37.89,5.71
		L245.6,351.08L245.6,351.08z"/>
	<path class="st2" d="M299.72,217.67C85.41,134.87,71.08,66.99,204.93,43.44C37.58-1.91-60,119.36,105.6,235.08l-44.47,31.74
		c47.25,31.6,97.13,78.26,80.17,151.7l-22.38,15.95l86.02,38.91C284.95,385.75,326.79,300.61,299.72,217.67L299.72,217.67z
		 M245.6,351.08l-32.91-37.45l-37.89,5.71l17.55-28.82l-32.91-37.6l43.74,19.75l17.41-28.82l9.51,40.96l43.74,19.6l-37.89,5.71
		L245.6,351.08L245.6,351.08z"/>
	<path id="XMLID_3_" class="st1" d="M408.56,114.97c73.58,57.64,22.53,94.36-67.15,104.45c22.67,95.67-46.81,183.3-120.54,251.18
		l67.58-30.57c4.97-38.91,73.58-59.1,106.06-145.41C546.8,260.53,521.93,151.11,408.56,114.97L408.56,114.97z"/>
	<path class="st0" d="M298.12,471.18l3.51-9.22h3.36v12.58h-2.19v-10.24l0,0l-3.95,10.24h-1.46l-3.95-10.24l0,0v10.24h-2.19v-12.58
		h3.36L298.12,471.18L298.12,471.18z M289.05,463.72h-3.8v10.68h-2.19v-10.68h-3.8v-1.76h9.95L289.05,463.72L289.05,463.72z"/>
</g>
</svg>
