<?xml version="1.0" encoding="utf-8"?>
<!-- Generator: Adobe Illustrator 26.5.0, SVG Export Plug-In . SVG Version: 6.00 Build 0)  -->
<svg version="1.1" id="Layer_1" xmlns="http://www.w3.org/2000/svg" xmlns:xlink="http://www.w3.org/1999/xlink" x="0px" y="0px"
	 viewBox="0 0 512 512" style="enable-background:new 0 0 512 512;" xml:space="preserve">
<style type="text/css">
	.st0{fill:#023A79;}
	.st1{fill:#FFFFFF;}
</style>
<g id="XMLID_1_">
	<g id="XMLID_2_">
		<path class="st0" d="M420.19,73.82c-9.07-12.73-5.41-19.46,0.88-20.34c4.39-0.59,9.66,0,12.44,0c4.83,0,14.05,0.59,13.31-8.78
			c-0.88-10.53-3.07-20.78-5.71-33.07c-2.63-12.44-3.51-11.56-20.34-11.56c0,0-3.07-0.44-28.68,1.32
			c-25.6,1.76-45.94,5.27-46.82,39.8s7.02,45.94,21.22,68.04c14.19,22.09,56.62,90.13,56.62,152.02
			c0,113.69-99.79,162.55-166.94,162.55S89.23,374.94,89.23,261.25c0-61.89,42.43-129.93,56.62-152.02
			c14.19-22.09,22.09-33.51,21.22-68.04c-0.88-34.53-21.22-38.04-46.82-39.8S91.57,0.08,91.57,0.08c-16.83,0-17.7-0.88-20.34,11.56
			c-2.63,12.44-4.83,22.53-5.71,33.07c-0.73,9.36,8.49,8.78,13.31,8.78c2.78,0,8.05-0.59,12.44,0c6.29,0.88,9.95,7.61,0.88,20.34
			C55.58,124.89,17.1,188.24,17.1,263.74C16.37,388.4,123.32,512.03,255.88,512.03S495.4,388.4,495.4,263.74
			C495.4,188.1,456.77,124.89,420.19,73.82z M384.49,82.75c-3.95,0-7.17-3.22-7.17-7.17c0-3.95,3.22-7.17,7.17-7.17
			c3.95,0,7.17,3.22,7.17,7.17C391.66,79.53,388.44,82.75,384.49,82.75z M127.28,68.41c3.95,0,7.17,3.22,7.17,7.17
			c0,3.95-3.22,7.17-7.17,7.17s-7.17-3.22-7.17-7.17C120.11,71.63,123.32,68.41,127.28,68.41z M55.73,251.45
			c-3.95,0-7.17-3.22-7.17-7.17c0-3.95,3.22-7.17,7.17-7.17c3.95,0,7.17,3.22,7.17,7.17C62.9,248.23,59.68,251.45,55.73,251.45z
			 M91.14,393.81c-3.95,0-7.17-3.22-7.17-7.17c0-3.95,3.22-7.17,7.17-7.17s7.17,3.22,7.17,7.17
			C98.31,390.59,95.09,393.81,91.14,393.81z M255.88,475.02c-3.95,0-7.17-3.22-7.17-7.17c0-3.95,3.22-7.17,7.17-7.17
			c3.95,0,7.17,3.22,7.17,7.17S259.84,475.02,255.88,475.02z M420.63,393.81c-3.95,0-7.17-3.22-7.17-7.17
			c0-3.95,3.22-7.17,7.17-7.17c3.95,0,7.17,3.22,7.17,7.17S424.58,393.81,420.63,393.81z M456.04,251.45
			c-3.95,0-7.17-3.22-7.17-7.17c0-3.95,3.22-7.17,7.17-7.17c3.95,0,7.17,3.22,7.17,7.17C463.21,248.23,459.99,251.45,456.04,251.45z
			"/>
	</g>
	<g id="XMLID_3_">
		<g id="XMLID_4_">
			<circle id="XMLID_11_" class="st1" cx="384.49" cy="75.58" r="7.17"/>
			<path id="XMLID_10_" class="st1" d="M384.49,75.58"/>
		</g>
		<circle id="XMLID_9_" class="st1" cx="127.28" cy="75.58" r="7.17"/>
		<g id="XMLID_5_">
			<path id="XMLID_8_" class="st1" d="M48.56,244.28c0-3.95,3.22-7.17,7.17-7.17c3.95,0,7.17,3.22,7.17,7.17
				c0,3.95-3.22,7.17-7.17,7.17S48.56,248.23,48.56,244.28z"/>
			<path id="XMLID_7_" class="st1" d="M55.73,244.28"/>
		</g>
		<circle id="XMLID_6_" class="st1" cx="91.14" cy="386.5" r="7.17"/>
		<circle id="XMLID_20_" class="st1" cx="255.88" cy="467.85" r="7.17"/>
		<g id="XMLID_21_">
			<circle id="XMLID_22_" class="st1" cx="420.63" cy="386.5" r="7.17"/>
			<path id="XMLID_23_" class="st1" d="M420.63,386.5"/>
		</g>
		<g id="XMLID_24_">
			<path id="XMLID_25_" class="st1" d="M448.87,244.28c0-3.95,3.22-7.17,7.17-7.17c3.95,0,7.17,3.22,7.17,7.17
				c0,3.95-3.22,7.17-7.17,7.17S448.87,248.23,448.87,244.28z"/>
			<path id="XMLID_26_" class="st1" d="M456.04,244.28"/>
		</g>
	</g>
</g>
</svg>
