<?xml version="1.0" encoding="utf-8"?>
<!-- Generator: Adobe Illustrator 26.5.0, SVG Export Plug-In . SVG Version: 6.00 Build 0)  -->
<svg version="1.1" id="Layer_1" xmlns="http://www.w3.org/2000/svg" xmlns:xlink="http://www.w3.org/1999/xlink" x="0px" y="0px"
	 viewBox="0 0 512 512" style="enable-background:new 0 0 512 512;" xml:space="preserve">
<style type="text/css">
	.st0{fill:#231F20;}
	.st1{fill:#185465;}
	.st2{fill:#C8932B;}
	.st3{fill:#8A6728;}
	.st4{fill:#FFFFFF;}
</style>
<g id="XMLID_1_">
	<path id="XMLID_3_" class="st0" d="M418.35,321.12c0,0,35.65-9.96,52.63-38.32c19.93-4.21,41.12-26.25,41.12-45.89
		c0-24.42-18.39-35.37-18.39-35.37s-6.74-17.4-32.42-34.25c0,0,7.16-8.14,7.16-17.4c0-9.26-7.16-15.02-19.79-24.28
		c-12.77-9.26-25.12-13.89-40.7-23.58c-15.72-9.68-50.39-26.53-72.7-31.44c-22.32-4.91-36.07-6.46-48.7-6.46
		c-25.82,0-35.51,4.21-35.51,4.21s-7.86-3.37-25.26-3.37s-28.07,1.4-65.26,11.51C123.33,86.6,94.7,93.61,64.38,95.44
		c-30.32,1.96-44.07,3.51-53.47,3.51S0.1,112,0.1,115.79c0,25.26,33.12,58.53,50.81,68.07c0,0-1.54,9.54-1.54,17.96
		s2.67,42.11,30.88,74.53c37.61,39.72,74.39,45.05,99.37,61.19s33.4,33.68,46.6,53.75c20.07,33.68,53.89,56.56,90.67,56.56
		c59.65,0,86.6-58.11,86.6-70.6c0-8.28-9.96-9.82-9.96-9.82s7.72-23.86,1.68-45.89c0,0-8,13.47-20.77,27.93
		c0,0-15.44-13.47-12.35-28.49c0,0,12.63-3.65,23.72-15.02c0,0,17.12-2.81,29.19-16.14c0,0,1.96,3.51,4.21,5.75l8-5.75l0.42,7.72
		l3.51-0.84C430.98,296.56,428.73,306.67,418.35,321.12z"/>
	<path id="XMLID_4_" class="st1" d="M358.42,361.26c0,0,2.39-8.14-8.42-14.6c0,0,1.26,5.89,0.7,9.82L358.42,361.26z"/>
	<path id="XMLID_5_" class="st1" d="M409.92,217.96c12.21-0.7,27.93,2.67,27.65,14.88c0,0,4.35,6.04,8,14.04
		c0,0,9.26-7.3,12.91-18.81C426.49,213.61,416.66,212.91,409.92,217.96z"/>
	<path id="XMLID_6_" class="st2" d="M389.01,215.44l24.84,20.21l-34.39,12.77c0,0,2.81-8.14,0.56-9.26
		c-24.84-13.75-67.09-25.96-109.89-34.11c-42.81-8.14-65.26-8.7-65.26-8.7l14.46,2.95l14.88,6.04l-50.95,3.65v10.67l-15.58,1.4
		c-3.51-7.72-7.44-5.19-12.07-8.28c-3.79-2.25-5.47-7.02-5.89-8.98c-0.42-1.82-2.81-1.82-7.02-2.95c-4.35-1.26-6.04-0.28-6.88,1.26
		c-0.84,1.54,3.79,1.26,3.79,1.26c-1.68,1.82-8.7,2.25-8.7,2.25l-0.14,0.56l4.07,0.7c-1.26,1.26-2.25,5.89,0.56,8.42
		s6.18,0.14,6.18,0.14s-1.82,2.67-1.26,3.51c0.7,0.84-2.25,3.65-2.25,6.46c0,5.19,6.46,7.72,6.46,7.72l-28.21,11.37l-2.39,4.49
		c0,0,0.28,4.07-2.53,5.75c-2.81,1.68-2.95,2.81-3.79,3.79c-0.84,0.98-10.39,8-10.39,8c-7.16-7.44-8.7-10.95-8.7-10.95
		c5.61-4.91,5.33-11.09,5.33-11.09l-4.77-0.7c5.33-3.37,5.89-6.04,5.89-6.04c-0.98,1.26-3.09,0.42-3.09,0.42
		c-0.98-5.05-4.49-5.33-5.75-8.98c-1.26-3.51-6.18-2.39-6.18-2.39c0.98-1.68,3.79-3.51,3.79-3.51c1.54-6.46,3.37-6.88,3.37-9.12
		c0-4.91-8.98-5.75-9.4-4.63c-0.28,1.12,1.82,2.25,1.82,2.25c-4.49,1.26-8,3.79-8,3.79c-3.79-28.91,1.26-34.39,1.26-34.39
		c24.84-0.84,36.91-13.61,36.91-13.61L98.21,168l-9.26-4.91l20.49-6.88c32.56-0.7,56.14-23.02,56.14-23.02s-19.23,11.79-39.86,11.79
		c-15.72,0-34.11-6.04-49.54-18.67l-0.56-2.53c3.79-0.56,2.95-2.67,4.49-4.49c1.54-1.82,4.21-0.7,4.07-1.54
		c-0.14-0.7-1.82-0.84-1.82-0.84l-0.14-1.26c0,0,5.47,0,5.47-2.39c0-2.39-3.79-0.28-8.98-2.81l-2.81-6.6c21.47-1.26,46.32-8,46.32-8
		c1.96,3.79,5.89,4.35,5.89,4.35l-3.37,1.96c0,0,2.95,0.56,4.63,0.28c1.68-0.28,2.53-0.84,4.91-0.7c2.39,0.14,5.89,0.42,5.33-1.54
		c-0.56-1.96-4.35-3.37-4.35-3.37l0.28-0.84l5.61,1.4c-1.54-2.81,0.14-5.89,0.14-5.89l47.16-10.67c0,0,2.81,7.02,8.14,6.88
		c8.28-1.12,7.3,1.82,11.51,2.25c-2.25-2.25-4.91-7.58-4.91-7.58l0.7-0.42l5.19,4.07c5.05-4.35,11.09-2.11,11.51-2.95
		c0.28-0.84-2.81-3.23-2.25-3.79c0.56-0.7,4.21,3.37,5.19,2.67s-1.54-6.32-1.54-6.32c15.86-0.98,40.84,1.82,40.84,1.82l0.28,0.84
		c-4.77,0.98,0.7,6.18,0.7,6.18l-1.26,0.42c0,0-2.81-2.95-4.07-2.95c-1.26,0-2.25,1.12-2.25,3.09c0,1.96,4.21,4.35,7.02,4.35
		s5.19-1.54,5.19-1.54c0,1.26,7.44,0.7,7.02-1.12c-0.28-1.82-4.35-5.05-4.35-5.05l7.86,3.79l2.81-4.77
		c20.91,4.35,31.86,8.42,31.86,8.42s-3.23,0.28-5.33,1.96c-1.68,0.84,0,3.23,0,3.23c-1.54-0.7-2.25,0.56-2.25,0.56
		c1.96,4.21,6.46,3.65,6.46,3.65l-0.84-1.96c2.25,0,2.81,1.96,2.81,1.96s2.95-0.14,5.89-0.28c2.81-0.28,5.75,2.25,5.75,2.25
		l-0.56-1.82l2.11-2.67l1.4,1.82h3.79l3.93,3.51l0.56-3.23c0.42,1.26,2.11,1.82,2.11,1.82c0.42-0.84,2.67-2.25,2.67-2.25
		c-0.7-2.25,4.21-5.33,4.21-5.33c0.7-5.05-5.89-5.75-7.44-5.33c-1.54,0.28-0.28,2.25-1.26,2.39c-0.98,0.28-1.12-2.39-1.82-2.25
		c-0.7,0.14-0.42,2.25-0.42,2.25s-3.37-0.28-4.35,0.42s-3.51,4.63-3.51,4.63l-19.09-9.54l5.33-1.96l0.98,1.26
		c2.11-10.39-10.39-9.54-11.09-9.26c-0.7,0.28,1.54,5.05,0.42,5.33c-1.12,0.28-3.37-3.51-4.35-3.51c-0.84,0-5.33,2.81-5.33,2.81
		c-4.49-2.53-17.26-4.63-17.26-4.63s8.14-2.11,18.53-2.11c33.4,0,59.23,12.07,67.37,15.58c8,3.65,8.28,6.6,8.28,6.6
		c-1.54-0.84-3.51-1.4-3.51-1.4c-0.28,2.25,13.05,7.72,13.05,7.72c-3.09-3.37-2.25-4.91-2.25-4.91c3.79,4.35,5.75,2.81,6.88,3.37
		c1.12,0.56,41.12,22.04,45.47,24.42c4.35,2.39,4.63,5.05,3.37,5.61c-1.26,0.56-2.81-2.53-2.81-2.53c-1.82,1.68-1.82,5.61-0.56,5.89
		c1.26,0.28,0-1.12,1.68-0.84c1.68,0.28,1.26,1.54,3.93,2.25c2.81,0.7,5.75,2.53,5.75,2.53l0.28-2.95l4.49,5.61
		c6.32-0.42,10.53,5.19,10.53,11.37c0,6.18-3.93,9.26-3.93,9.26c-24.42-17.68-43.37-23.3-43.37-23.3
		c13.47,6.88,36.77,26.81,43.79,34.95c7.02,8.14,8.42,10.53,8.42,14.46c0,3.79-2.53,6.6-2.53,8.42s0.98,3.51,2.81,3.51
		c3.23,0,8.98-7.3,8.98-7.3s10.53,7.44,10.53,16.84s-11.79,5.75-21.33,13.89c0,0-23.86-9.96-52.07-13.19
		c-24.84-2.81-39.16-1.12-39.16-1.12L389.01,215.44z"/>
	<path id="XMLID_7_" class="st3" d="M78.98,128.98c14.74,11.09,31.86,16.42,46.6,16.42c20.77,0,39.86-11.79,39.86-11.79
		s-23.58,22.32-56.14,23.02l-20.49,6.88l9.26,4.91l11.51-0.42c0,0-12.07,12.77-36.91,13.61c0,0-5.05,5.33-1.26,34.39
		c0,0,3.51-2.67,8-3.79c0,0-2.25-1.26-1.82-2.25c0.28-1.12,9.4-0.28,9.4,4.63c0,2.39-1.82,2.67-3.37,9.12c0,0-2.81,1.82-3.79,3.51
		c0,0,4.91-1.12,6.18,2.39c1.26,3.51,4.77,3.79,5.75,8.98c0,0,2.11,0.84,3.09-0.42c0,0-0.56,2.81-5.89,6.04l4.77,0.7
		c0,0,0.28,6.04-5.33,11.09c0,0,1.54,3.51,8.7,10.95c0,0,9.54-7.02,10.39-8c0.84-0.98,0.98-2.25,3.79-3.79
		c2.81-1.68,2.53-5.75,2.53-5.75l2.39-4.49l28.21-11.37c0,0-6.46-2.53-6.46-7.72c0-2.81,2.81-5.47,2.25-6.46
		c-0.7-0.84,1.26-3.51,1.26-3.51s-3.37,2.39-6.18-0.14c-2.81-2.53-1.82-7.16-0.56-8.42l-4.07-0.7l0.14-0.56c0,0,7.02-0.56,8.7-2.25
		c0,0-4.63,0.28-3.79-1.26c0.84-1.54,2.67-2.53,6.88-1.26c4.35,1.26,6.6,1.12,7.02,2.95c0.42,1.82,2.25,6.6,5.89,8.98
		c4.63,3.09,8.56,0.56,12.07,8.28l15.58-1.4V209.4l50.95-3.65l-14.88-6.04l-14.46-2.95c0,0,22.46,0.56,65.26,8.7
		c9.12,1.68,18.39,3.65,27.23,5.75c0,0-7.86-8.42-16.42-15.58c0,0-32.84-9.54-77.61-15.72c0,0,24.28,0.84,68.91,9.82
		c-15.44-12.63-28.49-16-28.49-21.75c0-3.65,7.16-9.4,7.16-9.4l10.53-8.28l23.3-8.98l-0.7-6.74l1.82-1.54c0,0-1.68-4.49,3.51-4.07
		l0.28-0.42c0,0-21.19-8-71.02-8.42l5.05,5.05c0,0-5.47,0.28-10.11-0.42c0,0-1.96,4.07,1.26,9.96l-5.33-0.42l7.16,3.65
		c0,0-4.35-0.28-4.63,4.35c0.14,3.93-6.04,4.07-6.04,4.07l0.7,2.53l-4.21-1.96l2.53,3.09c-11.51,0.7-15.02-1.82-12.63-5.33
		c0.98-1.26,0.14-2.95-2.11-4.77l0.14-2.25c0,0,5.47,0.84,7.16,1.12c0,0-1.96-1.82-7.16-3.65c0.7-3.09,3.23-1.54,4.91-5.89
		c0,0,3.23,0.84,5.75,1.82c0,0-1.12-2.25-7.58-4.07c0,0,3.51-0.42,5.89-0.56c2.39-0.14,2.39-2.25,2.39-2.25
		c-23.58,1.68-47.16,8.84-61.33,12.63l4.77-5.19c0,0-15.02,4.35-28.35,4.35C103.26,135.72,91.05,132.07,78.98,128.98z"/>
	<path id="XMLID_8_" class="st3" d="M413.71,209.26c-1.68-0.28-3.37-0.42-5.05-0.7c-18.95-2.11-31.72-1.68-36.77-1.26l-2.25-0.98
		c0,0-6.46-10.11-18.11-12.91c0,0,11.51-4.07,26.39-4.07c14.88,0,24.28,5.05,30.74,5.05c5.75,0,4.91-3.65,4.91-3.65
		c3.23,2.95,0.98,7.72-5.89,8.14C407.82,198.74,408.24,203.93,413.71,209.26z"/>
	<path id="XMLID_9_" class="st0" d="M455.4,144.28L455.4,144.28c1.12,1.96,1.68,4.35,1.68,6.74c0,3.09-0.98,5.33-1.96,6.88
		c-0.42,0.7-0.98,1.4-1.4,1.68c-0.42,0.42-0.56,0.56-0.56,0.56l0.14,0.14l0.14-0.14c-6.6-4.77-12.77-8.7-18.39-11.79v0.14v0.14
		c3.09,0.28,5.75,0.42,8,0.42C449.5,149.05,453.01,147.79,455.4,144.28L455.4,144.28L455.4,144.28L455.4,144.28L455.4,144.28
		c-2.53,3.23-6.04,4.49-12.49,4.49c-2.25,0-4.91-0.14-8-0.42l-0.14,0.28c5.47,3.09,11.79,7.02,18.39,11.79h0.14h0.14
		c0,0,4.07-3.09,4.07-9.4C457.36,148.49,456.66,146.25,455.4,144.28V144V144.28L455.4,144.28z"/>
	<path id="XMLID_10_" class="st1" d="M244.73,252.21c28.77,11.37,25.26,39.44,26.81,56.84c0.42,31.86,5.33,50.81,33.96,65.12
		c0,0,23.3-12.49,30.18-33.96c-15.3-10.25-14.46-27.93-14.46-37.05c0-24.28-5.47-42.95-32.42-47.72
		c18.67,12.77,19.37,54.88,19.37,60.63c0,19.37,5.75,28.21,5.75,28.21s-9.54-2.67-12.49-33.68
		C299.89,256.98,268.17,245.33,244.73,252.21z"/>
	<path id="XMLID_11_" class="st0" d="M330.49,179.79c0,0,12.91-7.3,28.07-7.3c16.56,0,32.28,3.93,32.28,3.93s4.07-4.21,4.07-13.33
		c0-14.74-13.05-23.58-13.05-23.58s3.93,6.74,3.93,15.44c0,10.53-8.84,15.3-18.81,15.3c-14.88,0-27.09-8.14-27.09-8.14l-19.51-8
		l-3.93-7.3l0.56-6.74c0,0,1.54-2.39,3.65-2.95l-0.56-2.39l2.11,1.96c0,0,6.04-2.11,6.04-6.74c0-2.67-2.95-4.21-5.05-4.21
		c-2.11,0-2.67,0.84-4.35,0.84c-1.54,0-1.12-1.54-3.93-0.14c-2.95,1.54-11.65,4.35-11.65,4.35s-4.77,1.4-7.02-1.96
		c-2.25-3.23-5.19-3.51-6.74-3.51c-4.07,0.7-0.42,2.95-0.42,2.95l-0.28,0.42c0,0-4.35-0.7-3.65,3.37l-4.21,12.77l-22.74,6.04
		l-8.28,8.42l0.14,0.84c0,0,9.82-3.51,20.91-2.53l8.42,11.51l16.98,9.54l14.04,3.65l9.4,3.51c0,0,11.37,5.33,27.93,21.75
		C348.03,207.58,347.75,198.74,330.49,179.79z"/>
	<path id="XMLID_12_" class="st3" d="M320.1,137.4c-1.68,0.84-2.95,2.67-2.95,2.67l-0.56,6.74l3.93,7.3l19.65,7.86
		c0,0,12.21,8.14,27.09,8.14c5.61,0,10.81-1.54,14.32-4.77c0,0-3.65,1.68-9.4,1.68s-10.53-2.25-22.32-11.23
		C338.06,146.81,327.68,140.49,320.1,137.4z"/>
	<path id="XMLID_13_" class="st3" d="M390.14,147.79c2.67,3.93,5.05,9.12,5.05,15.3c0,9.12-4.07,13.33-4.07,13.33
		s-15.72-3.93-32.28-3.93c-15.3,0-28.07,7.3-28.07,7.3s14.74-0.56,18.67,14.18c0,0,22.46-15.44,56.14-13.89
		C404.59,168.14,397.29,156.35,390.14,147.79z"/>
	<path id="XMLID_14_" class="st0" d="M413.71,190.74c0,0,0.84,3.65-4.91,3.65c-6.46,0-15.72-5.05-30.74-5.05s-26.39,4.07-26.39,4.07
		l-1.12-0.28c2.39-1.54,8.28-4.77,16.84-7.72C381.57,180.77,405.15,182.6,413.71,190.74z"/>
	<path id="XMLID_15_" class="st0" d="M280.8,195.23c0,0-32.84-9.54-77.61-15.72c0,0,24.28,0.84,68.91,9.82
		c37.33,7.02,88.14,23.44,106.25,33.96c2.25,2.39,1.96,2.11,1.96,4.07s-2.25,2.95-3.79,2.95c-1.54,0-1.54,0.14-8.14-3.23
		C361.92,223.86,329.78,208.84,280.8,195.23z"/>
	<path id="XMLID_16_" class="st0" d="M411.19,124.63c-0.14,0.42-0.56,0.42-0.84,0.7c-0.28,0.14-0.84,0.42-1.26,0.56
		c-0.84,0.14-1.96,0.14-2.39,1.12c0.28,0.14,0.42,0.7,0.56,1.12c0.14,0.42,0.56,0.84,0.84,1.12c0.7,0.56,1.54,1.26,2.11,1.96
		c-0.56,0.14-1.26-0.42-1.68-0.7c-0.42-0.28-1.26-0.28-1.68-0.56c0,1.12,0.84,1.96,1.54,2.67c0.98,0.98,2.39,1.68,3.79,2.11
		c0.42,0.14,0.7,0.28,1.12,0.28c0.42,0.14,0.84,0.14,1.26,0.28c0.7,0.28,1.26,0.7,1.82,0.98c0.28,0.14,0.7,0.14,0.98,0.14l1.12,0.14
		l-0.28-1.26c-0.28-0.42-0.84-0.84-1.12-1.4c-0.56-0.98,0.28-0.7,0.98-0.42c0.7,0.28,1.26,0.84,1.82,1.12
		c0.42,0.28,1.54,1.12,2.25,0.98c0.14-0.98,0-2.11-0.42-2.95c-0.42-0.98-0.7-2.25-1.54-3.09c-0.7-0.84-1.68-1.4-2.53-1.96
		c-0.42-0.28-0.84-0.56-1.26-0.7l-0.98-0.28l-0.56,0.56c-0.84,0.42-1.4-0.28-1.82-0.98c-0.42-0.56-0.7-0.98-1.12-1.4L411.19,124.63z
		"/>
	<path id="XMLID_17_" class="st0" d="M389.99,106.81c0,0.56,0.42,1.54-0.14,2.11c-0.7,0.56-1.82-0.14-2.53-0.42
		c-0.42-0.28-1.54-0.98-1.82-0.14c-0.14,0.56,0.7,1.4,0.84,1.96c0.56,0.28,0.84,1.26,0.7,1.82c-0.42,0.14-0.98,0-1.26-0.28
		c-0.7-0.14-1.4-0.7-1.82-1.26c0,0.28,0.28,0.84,0.42,1.12c0.28,0.56,0.56,0.7,0.98,1.12c0.7,0.56,1.4,1.12,2.11,1.82
		c0.84,0.7,1.54,1.26,2.67,1.26c1.4,0,2.53,0.14,3.93,0.56c0.7,0.28,1.54,0.56,1.82,1.26c0.42,0.84,0.98,1.4,1.68,1.96
		c0.98,0.84,1.96,1.54,3.09,2.11c0.56,0.28,2.67,0.98,2.81,0.14c-0.28-0.14-0.7-0.84-0.7-1.12c-0.42-0.28-0.98-1.4-1.12-1.96
		c-0.14-0.56-0.14-0.7,0.42-0.7c0.56,0,0.7,0,0.98,0.42c0.42,0.56,0.7,1.26,1.12,1.82c0.42,0.42,1.26,0.98,1.68,0.98
		c0.42-0.56,0.14-0.84,0.14-1.54c0-0.56,0.14-1.26-0.14-1.68c-0.14-0.28-0.56-0.56-0.98-0.7l-0.84-0.28
		c-0.42-0.56,0.7-0.84,1.12-0.98c0-0.98-0.14-1.96-0.84-2.53c-0.56-0.42-1.54-1.26-1.68-1.96c-0.7-0.14-0.7,0.56-1.12,0.84
		c-0.56,0.28-0.98-0.28-1.4-0.56c-0.7-0.7-1.54-1.12-2.11-1.96c-0.42-0.56-0.84-0.98-1.54-1.26c-0.56-0.28-1.4-0.14-2.11-0.14
		s-1.26,0.14-1.82,0.42c-0.42,0.14-0.98,0.28-1.4-0.14c-0.28-0.42-0.28-0.98-0.56-1.4L389.99,106.81z"/>
	<path id="XMLID_18_" class="st0" d="M373.43,120c0.28,0.28,0.7,0.56,1.12,0.84c0.28,0.14,0.7,0.7,1.12,0.7
		c0.84,0.84-0.98,1.54-1.4,1.96c-0.56,0.56-1.68,1.4-1.26,2.39c0.14,0.42,0.42,0.7,0.56,1.26c0.14,0.56,0,1.26,0.14,1.68
		c0.14,0.7,1.4,2.11,2.11,2.25c0.84,0.28,0.98-0.7,1.54-0.98c0.28-0.28,0.98-0.14,1.4,0c0.56,0.14,0.98,0.28,1.68,0.28
		c0.28,0,2.39,0.14,1.68,0.84c-0.56,0.56-1.82-0.28-2.53,0.28c0,0.42,0.7,0.56,1.12,0.7c0.42,0.28,0.84,0.42,1.12,0.84
		c0.56,0.42,0.98,0.7,1.68,0.7c0.42,0.14,0.98,0,1.4-0.14c0.42-0.14,0.84-0.42,1.12-0.56c0.42-0.14,1.12-0.14,1.54-0.14
		c0.7,0,0.98-0.14,1.54,0.14c0.56,0.28,1.12,0.56,1.68,0.7c-0.28-0.28-0.42-0.98-0.7-1.26c-0.14-0.28-0.42-1.12-0.42-1.54
		c0.14-0.56,0.98-0.42,1.26-0.98c0.14-0.56-0.28-0.84-0.42-1.4c-0.28-0.7-0.28-0.84-0.7-1.4c-0.42-0.28-0.7-0.56-1.12-0.98
		c-0.28-0.28-0.28-0.42-0.42-0.84c-0.56-0.98-1.26-1.82-2.11-2.53c-0.84-0.7-1.96-0.98-2.95-1.4c-0.56-0.28-0.98-0.7-1.54-0.7
		c-0.42,0-1.4-0.14-1.4,0.42c0,0.42,0.56,0.84,0.56,1.26c0.14,0.84-0.28,0.84-0.98,0.7c-0.84-0.28-1.4-0.98-2.25-1.4
		c-0.56-0.28-1.12-0.56-1.68-0.84c-0.56-0.28-0.98-0.84-1.68-1.12L373.43,120z"/>
	<path id="XMLID_19_" class="st0" d="M363.19,131.93l-0.14-0.28v-0.14c-0.42,0-0.7-0.7-0.84-0.98c-0.28-0.42-0.42-0.7-0.84-1.12
		c-0.84-0.56-1.68-1.12-2.53-1.68c-0.84-0.56-1.82-1.4-2.39-2.25c-0.28-0.42-0.42-0.84-0.7-1.12c-0.28-0.28-0.84-0.56-1.26-0.7
		c-1.26-0.28-2.53,0.7-3.51,1.4c-0.56,0.42-1.12,1.54-1.96,1.54c-1.12-0.14-2.11-0.84-3.23-0.98c-0.14,1.82,1.96,1.68,2.67,2.95
		h0.14c0.14,0.42,0.42,0.98,0,1.26c-0.42,0.42-1.26,0-1.68-0.28c-0.28-0.14-0.42-0.28-0.7-0.42c-0.28-0.14-0.42-0.42-0.7-0.56
		c-0.56-0.28-1.12,0.28-1.12,0.84c0,0.28,0.28,0.56,0.28,0.84c0,0.28,0,0.56,0,0.84c0,0.42-0.14,0.84-0.42,1.12
		c-0.42,0.42-0.84,0.56-0.84,1.26c0.14,0.7,0.98,0.98,1.54,1.26c0.42,0.28,0.98,0.56,1.12,0.98c0.28,0,0.28,0.28,0.28,0.56
		c-0.56,0.28-1.26-0.14-1.96-0.28c-0.56-0.14-1.12-0.14-1.68-0.14c-0.56,0.98,1.54,2.11,2.25,2.39c1.12,0.42,2.39,0.42,3.65,0.42
		c0.84,0,1.54,0.28,2.39,0.28c0.7,0,1.4,0.14,2.11,0c0.7,0,1.12-0.28,1.82-0.56c0.7-0.28,0.98-0.7,1.4-1.26
		c0.7-0.84,1.4-1.68,2.11-2.53c0.56-0.7,1.82-1.54,0.98-2.53c-0.28-0.42-0.84-0.7-1.26-0.98c-0.28-0.28-0.98-0.98-0.42-1.4
		c0.28-0.28,1.12,0,1.4,0c0.42,0.14,0.98,0.56,1.4,0.84c0.42,0.14,0.7,0.42,0.98,0.56c0.28,0.14,1.12,0.56,1.12,0.56L363.19,131.93z
		"/>
	<path id="XMLID_20_" class="st0" d="M345.36,108.63l0.7,0.56c0.28,0,0.84,0.7,0.98,0.84c0.42,0.28,0.56,0.7,0.98,0.84
		c0.42,0.28,0.56,0.42,0.98,0.7c0.28,0.28,0.84,0.42,0.98,0.84c0.56,0,1.4,0.42,1.96,0.7c0.56,0.28,1.26,0.42,1.82,0.7
		c1.68,0.56,3.37,0.98,5.19,0.84c0.14-0.7,0.14-1.26-0.42-1.96c-0.42-0.56-1.12-0.98-1.12-1.68c0.98-0.56,2.53,1.12,3.23,1.68
		c0.84,0.84,2.11,1.68,2.95,2.53c0.42,0.14,0.98,0.28,1.54,0.14c0.56-0.14,0.7-0.56,1.12-0.98c0.84-0.84,2.25-0.7,3.51-0.7
		s2.11-0.7,2.53-1.82c0.14-0.42,0.28-1.26,0.14-1.68c-0.14-0.42-0.42-0.98-0.7-1.26c-0.42-0.56-1.12-1.12-1.68-1.54
		c-0.7-0.42-1.96-0.84-2.39-1.54c-0.42-0.98,0.7-0.84,1.26-0.7s1.26,1.12,1.82,0.7c-0.14-0.28-0.7-0.56-0.98-0.84
		c-0.42-0.42-0.84-0.7-1.12-0.98c-0.84-0.7-1.54-1.12-2.67-1.12c-1.12,0-1.96,0.42-3.09,0.56c-0.7,0.14-2.67-0.14-2.95,0.42
		c0.56,0.56,2.81,1.82,2.39,2.81c-0.28,0.42-1.26,0.42-1.68,0.28c-0.28-0.14-0.56-0.56-0.84-0.7c-0.28-0.14-0.98-0.42-1.12-0.7
		c-0.42-0.14-0.84-0.56-1.26-0.84c-0.56-0.28-0.98-0.56-1.54-0.7c-0.98-0.42-2.53-0.56-3.65-0.28c-0.42,0.14-1.26,0.42-1.68,0.7
		c-0.42,0.28-0.84,0.84-1.4,1.12c-0.56,0.28-1.4,0.56-1.82,0.98c-0.56,0.56,0.14,0.98,0.56,1.4c0.28,0.28,0.84,0.56,0.98,0.98
		c0.28,0.28,0.14,0.84,0.28,1.12c-0.56,0.28-1.68-0.14-2.11-0.7L345.36,108.63z"/>
	<path id="XMLID_21_" class="st0" d="M315.19,107.65c0.42-0.14,1.26,0.56,1.54,0.7c0.28,0.28,0.98,0.7,1.12,0.98
		c0.42,0.98-1.54,1.54-2.11,1.82c-0.7,0.42-1.82,0.84-2.25,1.68c-0.28,0.98,0.84,1.68,0.98,2.53c0,0.28,0,0.84,0,1.12
		c-0.84,0.14-1.68-0.42-2.25-0.84c-0.56-0.42-1.26-0.56-1.82-0.98c0,0.84,1.12,1.82,1.82,1.96c0.28,0.56,1.12,0.7,1.54,0.98
		c0.42,0.28,0.98,0.84,0.84,1.4c-0.14,0.84-0.98,0.42-1.54,0.14c-0.7-0.28-1.12-0.56-1.82-0.42c-0.14,0.56-0.56,0.84-0.42,1.54
		c0.14,0.56,0.56,0.7,0.98,1.12c0.42,0.56,0.7,0.98,1.54,1.12c0.7,0.14,1.54,0,2.25,0c1.12,0,2.39,0,3.51-0.14
		c0.56,0,1.12-0.14,1.68-0.28c0.56-0.14,1.12-0.56,1.68-0.7c0.56-0.14,0.7-0.14,0.56-0.7c-0.14-0.42-0.42-0.84-0.56-1.26
		c-0.28-0.56-1.4-1.12-1.4-1.68c0.84-0.28,1.26,0.28,1.96,0.7c0.56,0.42,1.12,0.7,1.82,0.84c1.4,0.42,2.81,0,4.07-0.42
		c1.26-0.42,2.25-1.54,3.23-2.39c0.84-0.7,2.25-0.42,3.23-1.12c0.84-0.7-0.28-1.54-0.42-2.25c-0.14-0.7,0.14-0.84,0.7-0.84
		c0.28,0,0.56,0,0.84,0c0.28,0.14,0.56,0.28,0.84,0.42c0.56,0.14,0.56-0.42,0.56-0.84c0-0.56,0.14-1.12,0-1.68
		c-0.28-1.12-1.68-1.68-2.67-2.11c-0.98-0.56-1.96-0.98-2.95-1.4c-0.84-0.42-2.81-0.56-3.65-0.28c0.42,0.28,0.42,0.56,0.7,0.84
		l0.56,0.42c0.14,0.56-1.12,0.42-1.4,0.28c-1.26-0.42-2.25-1.96-3.65-1.12c-0.56,0.28-0.84,0.7-1.26,1.12
		c-0.42,0.42-1.26,0.28-1.82,0.28c-0.56,0-1.26-0.28-1.82-0.42s-1.26-0.14-1.82-0.28c-0.42-0.14-0.84-0.28-1.26-0.28h-1.68V107.65z"
		/>
	<path id="XMLID_22_" class="st0" d="M288.24,119.02c0.14-0.42-0.42-0.84-0.7-1.12c-0.56-0.42-0.98-0.56-1.4-1.12
		c-0.42-0.56-1.82-1.96-0.98-2.53c0.28-0.14,0.84-0.28,0.98-0.42c0.28-0.14,0.56-0.28,0.84-0.42c0.42-0.14,0.84-0.56,1.26-0.7
		c0.84-0.56,1.26-1.4,1.96-2.25c0.42-0.56,0.84-0.84,1.12-1.54c0.28-0.56,0.7-0.98,1.26-1.26c1.12-0.7,2.25,0.7,3.37,0.84
		c-0.7-0.42-1.26-1.4-1.26-2.11c0.14-0.56,0.56-0.84,0.98-1.12c0.56-0.28,1.12-0.56,1.68-0.98c1.82-1.12,3.23-4.07,0.84-5.33
		c-0.7-0.42-2.11-0.98-2.95-0.56c-0.28,0.14-0.7,0.42-0.98,0.56c-0.42,0.28-0.98,0.28-1.54,0.28c-1.26,0.14-2.39-0.14-3.51-0.42
		c-0.7-0.14-1.4-0.28-2.11-0.56c-0.7-0.28-1.68-0.56-2.53-0.42c0.14,0.28,0.42,0.28,0.56,0.42l0.28,0.7c0.28,0.7,0,0.98-0.7,1.12
		c-1.26,0.14-2.53-0.42-2.95,0.98c-0.56,1.82-2.11,1.26-3.65,1.26c-0.56,0-1.12-0.14-1.12,0.56c0,0.56,0.56,0.84,0.98,1.26
		c1.4,0.98,2.67,1.54,3.23,3.09c0.42,1.26-0.56,0.84-1.26,0.28c-0.84-0.56-1.54-0.98-2.53-1.4c-1.4-0.56-2.53-1.4-3.93-1.82
		c-0.98-0.42-2.53,0-3.37,0.42c-0.84,0.42-1.96,0.98-2.39,1.82c-0.42,0.7-1.12,2.25-0.84,3.09c0.56,1.12,1.68,1.96,2.67,2.67
		c0.42,0.28,0.98,0.7,1.26,1.12c0.14,0.28,0.56,0.98,0.42,1.26c-0.7,0.14-1.26,0-1.96-0.28c-0.28-0.14-1.82-0.56-1.82,0
		c0.56,0.14,1.26,0.84,1.82,1.12c0.42,0.14,0.98,0.28,1.4,0.56c0.42,0.28,0.98,0.7,1.54,0.56c-0.56,1.12,3.09,0.84,3.65,0.84
		c1.12,0,2.11,0,3.09-0.42c0.42-0.28,0.98-0.14,0.98-0.7c0-0.56,0-0.7-0.28-1.12c-0.14-0.42-0.56-1.12,0-1.4
		c0.56-0.28,1.54,0.7,1.82,0.98c0.7,0.7,1.54,1.26,2.39,1.82c0.56,0.42,1.26,0.84,1.96,1.12L288.24,119.02z"/>
	<path id="XMLID_23_" class="st0" d="M241.78,110.32c-0.14-0.56,0.28-1.26,0.28-1.82c0-0.56,0-1.12,0-1.68v-0.7l0.84-0.42
		c0.56-0.28,0.98-0.7,1.54-0.98c0.84-0.56,1.4-1.82,1.82-2.67c0.42-0.98,0.98-2.53,0.84-3.65c-0.14-0.56-0.56-1.26-0.84-1.68
		c-0.28-0.42-0.56-0.84-0.84-1.26c-0.84-0.84-2.11-1.12-3.37-1.12c-1.12,0-2.53-0.14-3.65,0.14c-0.56,0.28-1.12,0.28-1.82,0.28
		c-0.84,0-1.12-0.42-1.54-1.12c-0.28-0.56-0.56-0.98-0.84-1.54c-0.14-0.42-0.28-0.98-0.56-1.4c-0.28-0.42-0.84-0.84-0.98,0l0.14,0.7
		c0,0.28,0.14,0.7,0.14,0.98c0.42,2.11,0.84,4.21,0.84,6.32c0,0.28,0,0.42-0.14,0.56c-0.56,0.28-0.7-0.56-0.98-0.84
		c-0.28-0.42-0.56-0.84-0.84-1.26c-0.7-1.12-1.12-2.11-2.25-2.53c-1.12-0.42-2.11,0.28-3.09,0.84c-0.7,0.42-1.54,0.98-2.25,1.68
		s-1.12,1.82-0.84,2.81c0.28,0.98,1.26,1.68,1.26,2.81c0.14,1.54-1.96,0-2.53-0.42c-0.84-0.7-1.4-1.4-1.96-2.25
		c-0.28,0.84-0.14,2.53,0.28,3.37c0.42,0.98,1.12,2.53,1.96,3.37c0.42,0.42,0.98,0.7,1.4,0.98c0.56,0.42,1.12,0.56,1.68,0.84
		c1.4,0.56,2.67,0.98,4.21,0.56c1.96-0.7,3.65-2.11,5.75-2.39c1.12-0.14,2.25-0.14,3.23,0.56c0.56,0.28,0.98,0.7,1.4,1.12
		c0.28,0.28,0.7,1.12,0.98,1.26L241.78,110.32z"/>
	<path id="XMLID_24_" class="st0" d="M256.8,143.72c-0.7-0.84-1.12-1.54-2.11-1.96c-0.42-0.14-1.12-0.56-0.7-1.12
		c0.28-0.42,0.84-0.56,1.12-0.84c0.7-0.7,1.4-1.82,1.82-2.81c0.28-0.42,0.42-1.12,0.28-1.68c-0.14-0.42-0.56-0.84-0.84-1.26
		c-0.28-0.42-0.42-0.56-0.42-1.12c0.84-0.7,1.82,0.56,2.53,0.7c-0.28-0.28-0.28-0.7-0.56-0.98c-0.28-0.42-0.7-0.7-1.26-0.84
		c-0.42-0.14-0.98-0.56-0.84-1.12c0.14-0.56,0.84-0.56,1.12-0.84c0.28-0.28,0.14-0.42,0.28-0.84c0-0.28,0.14-0.7,0.14-0.84
		c-0.14-0.42-0.84-0.84-1.26-0.98c-0.56-0.28-0.98-0.56-1.54-0.84c-0.28-0.14-1.12-0.7-1.54-0.56c-1.4,0.42,0.7,3.23-1.68,1.68
		c-0.98-0.56-2.11-1.26-3.23-1.68c-1.12-0.28-2.39,0.14-3.37,0.7c-1.12,0.56-2.39,1.26-3.79,1.54c-0.56,0.14-1.26,0.42-1.68,0.7
		c-0.56,0.56-0.14,0.84,0.28,1.4c0.28,0.42,0.56,0.98,0.84,1.54c0.28,0.42,0.56,0.84,0.42,1.4c-0.84,0-1.96-0.7-2.81-0.98
		c-0.42-0.14-0.84-0.28-1.26-0.28c-0.56-0.14-0.84-0.28-1.26,0.28c-0.42,0.56-0.28,1.12-0.42,1.68c-0.28,0.56-0.84,0.7-1.4,0.98
		c-0.7,0.28-1.4,0.7-2.11,1.12c-0.42,0.28-1.12,0.56-1.4,0.98c-0.7,1.12,0.28,2.39,0.98,3.09c0.56,0.56,1.68,1.26,1.4,2.25
		c-0.56,0-2.11-0.28-2.53,0.28c0.28,0.14,0.42,0.42,0.7,0.56c0.56,0.42,1.12,0.7,1.68,0.98c0.7,0.56,1.54,0.84,2.25,1.4
		c0.42,0.28,0.84,0.7,0.14,0.84c-0.7,0.14-1.54-0.14-2.25,0l0.42,0.28l0.7,0.7c0.42,0.28,0.98,0.14,1.4,0.28
		c1.26,0.42,1.82,0.14,2.95,0.7c1.4,0.56,2.81,1.12,4.07,0.28c-0.7-0.28-2.67-0.84-2.25-1.96c0.28-0.56,1.26-0.28,1.54,0
		c0.56,0.42,1.12,0.84,1.68,1.12c2.67,1.26,4.63-1.82,6.18-3.37c0.7-0.7,1.4-1.54,2.39-1.82c0.84-0.14,2.81-0.28,3.23,0.84
		L256.8,143.72z"/>
	<path id="XMLID_25_" class="st0" d="M113.92,193.4c-0.56,0-1.26,0-1.82,0c-0.56,0-1.12-0.56-1.68-0.56
		c-0.84-1.12-3.23-2.25-4.63-2.39c-1.4-0.14-3.79-0.84-5.19,0c-1.54,0.7-2.81,2.67-3.93,3.79c-0.7,0.7-1.26,1.4-1.82,2.39
		c-0.56,1.12-0.56,2.11-0.84,3.37c-0.42,2.39-2.67,1.68-4.35,2.53c1.4,0.14,2.67,0,4.07,0c0.84,0,3.09-0.14,3.51,0.7
		c-0.84,0.56-2.53,0.84-3.23,1.82c0.42,0.42,0.84,0.42,1.12,0.84c0.28,0.42,0.7,1.4,0.84,1.96c0.28,0.98,0.14,2.39,0.14,3.51
		c0,1.4,0,2.81,0.14,4.35c0.14,1.12-0.14,2.67,0.28,3.79c1.54-0.56,3.51,0,5.05,0.14c-0.28,0.56-1.12,0.84-1.68,1.26
		c-0.7,0.42-1.4,0.84-2.25,1.26c-1.54,0.84-2.11,2.95-1.26,4.49c0.84,1.68,1.68,2.95,3.37,3.79c1.68,0.84,3.65,1.54,5.61,1.26
		c3.65-0.42,5.75-5.05,8.14-7.3c1.54-1.54,3.79-1.96,5.05-3.79c1.12-1.68,1.82-4.63,1.54-6.6c-0.14-0.98-0.56-1.82-1.26-2.67
		c-0.56-0.84-1.54-1.26-2.53-1.68c-1.12-0.56-2.11-0.28-3.23,0.14c-0.84,0.42-1.82,0.42-2.81,0.7c0.56-0.7,1.4-1.4,2.25-1.96
		c0.42-0.28,1.4-0.56,1.68-0.98c0.28-0.42,0-1.68,0-2.11c-0.14-0.7-0.7-1.4-1.12-1.96c-0.84-1.12-1.4-2.81-1.82-4.35
		c-0.14-0.7-0.14-1.4-0.56-1.96c-0.42-0.56-1.4-1.12-1.96-0.7c0.42-0.98,3.37-1.4,4.21-1.82L113.92,193.4z"/>
	<path id="XMLID_26_" class="st0" d="M134.14,174.18c0-0.56-1.54-1.26-1.96-1.54c-0.84-0.7-1.4-0.56-2.53-0.84
		c-0.56-0.14-1.54-0.56-2.39-0.56c-0.98,0-1.12,0.56-1.82,1.12c-1.54,1.12-3.51-0.14-5.19,0.7c-1.4,0.56-2.53,1.82-2.95,3.37
		c0.56-0.14,0.56,0.28,1.12,0.56c0.28,0.14,0.42,0.14,0.7,0.28c0.56,0.14,1.54,0.28,2.11,0.28c0.14,0.28,0.14,0.56,0,0.84
		c-0.56,0-1.12,0.28-1.68,0.28s-1.26,0.14-1.68,0c-0.7-0.14-2.53-0.98-2.95,0c0.98,0.98,0,1.68,0,2.67c0,1.26,0.98,2.53,1.54,3.51
		h0.28c0.28,1.54,2.11,2.67,3.51,3.23c1.12,0.42,2.53,0.56,3.79,0.7c0.84,0.14,1.68,0.28,2.53,0.14c0-0.84-0.7-1.26-1.54-1.54
		c-0.56-0.28-2.25-0.7-1.4-1.4c0.84-0.56,2.67,0.14,3.51,0.28c1.12,0.14,1.96,0.42,3.09,0.56c1.54,0.14,3.93,0.56,5.05-0.7
		c0.56-0.56,0.98-1.54,1.4-2.25c0.56-0.84,1.54-1.12,1.68-1.96c0.14-0.7,0.14-1.68,0.14-2.39c0-0.98-0.56-1.4-0.98-2.11
		c-0.56-0.28-1.26-0.84-1.82-1.26c-0.7-0.42-1.12-0.56-1.96-0.56c-0.7,0-1.82,0.14-2.11-0.28c-0.56-0.7,0.14-0.98,0.56-1.26
		L134.14,174.18z"/>
	<path id="XMLID_27_" class="st0" d="M173.99,154.39c-0.28-0.28-0.84,0-1.26-0.14c-0.56-0.14-0.98-0.42-1.4-0.7
		c-0.98-0.56-1.96-0.98-3.09-1.12c-0.28-0.98-0.56-1.26,0-2.11c0.42-0.7,0.98-1.12,1.12-1.96c0.42-1.4,0-3.37-1.12-4.35
		c-2.25-2.11-6.6-2.25-9.68-1.96c0.28,0.42,0.84,0.56,1.12,0.98c0.42,0.42,0.56,0.98,1.4,0.84c0.14,0.28,0.42,0.56,0.42,0.98h0.28
		c0.56,1.4-4.63,0.42-5.47,0.42c-0.56,0-1.12,0-1.54,0.42c-0.42,0.42-0.56,0.98-1.12,1.4c-0.84,0.56-1.82,0.7-2.67,1.26
		c-1.4,0.98-2.95,2.11-4.63,2.67c-0.84,0.28-1.82,0.42-1.4,1.4c0.28,0.7,1.26,1.26,1.68,1.68l0.42,0.14
		c0.14,0.42-0.14,0.84-0.56,1.12c-0.7,0.42-1.4-0.28-1.96-0.56c-0.84-0.56-1.82-0.98-2.67-1.54c-0.42,0.84,0,2.11,0.14,2.81
		c0.14,0.42,0.42,0.84,0.42,1.4c0,0.7-0.42,0.84-0.84,1.26c-1.82,2.25,3.23,2.53,4.35,3.79c-1.12,0.84-3.09,0-4.21-0.28
		c-1.12-0.42-2.67-0.42-3.79,0.14c1.68,1.12,4.35,1.96,6.6,2.53c1.26,0.28,2.53,0.56,3.93,0.7c1.26,0.14,2.25,0.7,3.51,0.7
		c1.12,0,2.11-0.14,3.09-0.14c1.26-0.14,1.54-0.42,2.39-1.12c0.84-0.7,1.26-0.98,2.39-0.98c0.98,0,1.96,0.14,2.81-0.14
		c1.26-0.42,3.51-1.4,3.23-2.81s-1.68-2.25-0.7-3.93c0.42-0.56,0.84-0.7,1.4-0.98c0.56-0.28,0.84-0.7,1.4-1.12
		c1.4-0.84,2.53-0.42,3.79-0.14L173.99,154.39z"/>
	<path id="XMLID_28_" class="st0" d="M196.03,182.88c-0.7-0.14-1.4,0.7-2.25,0.84c-0.7,0.14-1.96,0.28-2.67,0.14
		c-1.68-0.28-3.37-1.26-4.49-2.53c-2.11-2.53-3.09-5.75-5.33-8.14c-0.56-0.7-1.68-1.12-1.96-1.96c-1.4-0.56-2.95-0.28-4.49-0.42
		c-0.56,0-3.37-0.7-3.23,0.42c0.84,0,5.05,1.12,3.65,2.81c-0.98,1.12-4.63,0.14-6.04,0.28c-1.26,0.14-1.26,1.12-1.54,2.11
		c-0.28,0.84-0.84,1.68-1.26,2.53c-0.42,0.98-1.68,3.93-1.12,5.19c0.42,0.7,1.82,0.42,2.67,0.7c0.42,0.14,2.11,0.56,2.25,0.84
		c-0.98,0.98-2.25,1.12-3.51,1.68c-1.12,2.53,3.37,5.05,4.91,6.32c0.84,0.7,2.11,1.4,2.53,2.39c0.7,1.54-1.12,2.11-2.25,2.67
		c-0.14,0.84,1.54,1.26,2.11,1.4c0.7,0.28,1.26,0.42,1.96,0.42c0.84,0.14,0.98,0.28,1.82,0.56c1.82,0.56,4.49,0.28,6.32-0.7
		c0.98-0.56,1.68-0.84,2.81-0.98c1.12,0,2.25,0,3.23-0.14c1.54-0.14,3.51-0.84,4.91-1.68c0.84-0.42,1.4-0.84,1.26-1.68
		c-0.14-0.84-0.56-1.68-1.12-2.25c-0.7-0.84-1.4-1.68-2.11-2.39c-0.56-0.56-1.26-0.98-1.82-1.54c-0.42-0.42-0.84-1.12-0.98-1.68
		c-0.28-0.98-0.14-1.4,0.84-1.82c1.4-0.56,2.67-1.54,4.07-2.11L196.03,182.88z"/>
	<path id="XMLID_29_" class="st0" d="M230.7,172.35c-1.54-0.28-2.53-1.12-3.93-1.26l-0.14-0.7c0.98-0.42,1.96-0.7,3.09-0.28
		c1.12,0.42,1.68,0.98,3.09,0.98c-0.56,0.14-1.4-1.12-1.68-1.54c-0.56-0.56-1.26-0.7-1.96-1.12c-1.26-0.84-1.82-2.25-3.23-3.09
		c-0.56-0.28-5.33-1.26-4.49-2.39c0.42-0.56,2.39,0.14,1.82-0.7c-0.14-0.28-2.25-1.12-2.53-1.26c-0.84-0.28-1.82-0.28-2.67-0.28
		c-0.98,0-2.25-0.28-3.09-0.14c-0.7,0.14-0.28,0-0.7,0.56c-0.28,0.42-0.42,0.98-0.7,1.4c-0.7,0.84-1.68,0.42-2.81,0.56
		c-0.42,0-2.11,0.42-2.25,0.98c0,0.7,2.11,0.98,2.67,1.26c0.56,0.14,2.11,0.7,1.54,1.54c-0.42,0.56-2.11,0-2.53-0.14
		c-0.98-0.42-2.39-1.12-3.51-0.84c0.14,1.12,2.95,2.25,3.93,2.67c0.42,0.14,1.54,0.42,1.12,1.26c-0.28,0.56-1.54,0.28-1.96,0.28
		c0.98-0.14,1.82,0.56,2.53,1.12c0.84,0.56,1.96,0.98,2.67,1.68c0.7,0.84,0.28,1.54,0.7,2.53c0.28,0.84,1.12,1.4,1.82,1.68
		c1.26,0.7,3.37,0.56,4.49-0.14c0.7-0.42,1.54-0.84,2.25-1.26c0.7-0.42,0.84-1.26,1.54-1.68c0.7-0.56,1.68-1.4,2.67-1.26
		L230.7,172.35z"/>
	<path id="XMLID_30_" class="st0" d="M130.21,112c-1.82,0-3.23,0.84-5.05,0.84c-2.11,0.14-3.79-0.84-5.89-1.12
		c-1.96-0.14-3.79-0.42-5.19,1.12c-1.26,1.4-2.53,2.81-4.21,3.93c-0.98,0.7-0.7,1.12-1.26,1.96c-0.42,0.56-1.26,0.56-1.82,0.56
		c-0.7,0.14-1.54,0.42-2.25,0.7c-0.7,0.28-1.82,0.28-2.39,0.7c0.56,0.14,1.26,0.14,1.82,0.14c0.98,0,1.54,0.28,2.53,0.56
		c1.54,0.42,2.25,0.84,1.12,2.39c-0.7,0.84-1.12,1.82-0.28,2.67c0.42,0.42,0.98,0.7,1.4,0.98c0.42,0.14,0.98,0.28,1.26,0.56
		c0.42,0.14,0.42,0.56,0.98,0.56v0.56c-1.4,0.42-3.93-0.84-4.77,0.7c1.4,1.26,2.53,1.54,4.63,1.54c1.96,0,3.93-0.28,5.47-1.4
		c0.84-0.56,1.26-0.7,2.53-0.7c0.56,0,1.4,0.14,1.96,0c0.56-0.14,0.56-0.42,0.98-0.7c0.98-0.84,1.4-0.98,2.67-1.12
		c1.12-0.14,1.4-0.42,2.11-1.12c1.26-1.26,1.68-1.96,1.12-3.79c-0.14-0.56-0.42-1.12-0.42-1.68c0-0.98,0.42-1.4,0.7-2.25
		c0.14-0.7,0-1.4-0.28-2.11c-0.14-0.42-0.7-1.12-0.7-1.54c0-1.4,1.68-1.26,2.53-1.68L130.21,112z"/>
	<path id="XMLID_31_" class="st0" d="M185.64,96.84c-1.82,0-3.23,1.68-4.91,0.42c-0.84-0.56-1.12-0.7-2.25-0.7
		c-1.12,0-1.54,0-2.53,0.56c-1.54,1.12-3.37,1.68-4.77,2.67c-1.12,0.84-1.54,1.4-2.95,1.4c-0.98,0-1.82,0-2.81,0.14
		c-2.11,0.42-3.79,1.82-5.33,3.23c-0.98,0.98-3.09,3.93-2.39,5.33c1.4,0.28,1.82,0.7,3.37,0.14c0.28-0.14,1.12-0.56,1.4-0.28
		c0.7,0.56-0.14,1.4-0.56,1.68c-1.12,0.84-2.39,1.54-3.51,2.25c-1.26,0.7-2.11,0.84-2.67,2.25c0.98,0,2.25,0,3.23-0.28
		c0.98-0.14,1.82-0.7,2.81-0.56c0.14,0.42,0.84,0.7,1.26,0.98c0.56,0.56,0.7,0.98,1.4,1.4c0.7,0.56,1.54,0.84,2.39,1.12
		c2.11,0.56,4.35,0.42,6.6,0.42c1.82,0,3.79,0,5.61-0.14c0.84-0.14,1.82-0.14,2.67-0.42c0.7-0.28,2.11-1.12,2.39-1.96
		c-0.56-0.56-2.81-0.14-3.51-0.14c-0.56-1.26,0.98-1.68,1.82-1.82c1.12-0.28,1.68-0.56,2.53-1.26c1.4-1.12,1.82-2.81,2.95-4.07
		c0.56-0.7,1.26-0.84,1.96-1.26c0.84-0.56,1.68-1.26,2.39-1.82c1.26-1.12,1.82-3.79,0.84-5.47c-0.42-0.7-2.67-2.11-3.51-2.11
		c-1.12,0-3.09,0.84-4.07,1.4c-0.42,0.28-3.79,1.82-3.23,0.14c0.28-1.12,2.67-1.26,3.23-2.25L185.64,96.84z"/>
	<path id="XMLID_32_" class="st0" d="M213.43,124.63c0,0-1.96,4.07,1.26,9.96l-5.33-0.42l7.16,3.65c0,0-4.35-0.28-4.63,4.35
		c0.14,3.93-6.04,4.07-6.04,4.07l0.7,2.53l-4.21-1.96l2.53,3.09c-11.51,0.7-15.02-1.82-12.63-5.33c0.98-1.26,0.14-2.95-2.11-4.77
		l0.14-2.25c0,0,5.47,0.84,7.16,1.12c0,0-1.96-1.82-7.16-3.65c0.7-3.09,3.23-1.54,4.91-5.89c0,0,3.23,0.84,5.75,1.82
		c0,0-1.12-2.25-7.58-4.07c0,0,3.51-0.42,5.89-0.56c2.39-0.14,2.39-2.25,2.39-2.25c1.68-0.14,2.39-1.4,5.05-1.4
		C209.08,122.67,211.75,122.95,213.43,124.63z"/>
	<path id="XMLID_33_" class="st4" d="M366.84,284.21c0,0,2.53,15.16-13.47,32.14c0,0,27.65-4.35,42.25-35.79
		c0,0,1.54,4.49,0.98,14.46c0,0,7.58-1.96,19.79-19.23c0,0,0.7,5.47,4.77,10.11l10.53-8.84c0,0,1.26,3.23,1.82,9.68
		c0,0,3.51-1.4,9.4-5.75c0,0,0.14,6.18-11.09,27.51c15.58-8.14,30.88-25.68,30.88-33.12c0-3.51-3.65-6.88-8.14-6.88
		c-4.35,0-8,3.51-8,3.51s-2.53-2.95-6.74-2.95c-4.21,0-7.72,3.93-7.72,3.93s0.42-3.23-3.65-3.23
		C424.38,269.61,405.85,281.96,366.84,284.21z"/>
	<path id="XMLID_34_" class="st4" d="M390.14,336.84c0,0-8.42,14.88-21.47,29.05c0,0-1.96-4.91-4.21-5.89c0,0-7.44,5.75-9.54,8.56
		c0,0-2.81-5.19-5.05-7.3c0,0-5.33,4.21-6.74,6.32c0,0,6.74-11.65,0.28-31.72c0,0-8.42,26.25-30.88,41.26
		c-1.12,0.98-1.4,6.32,7.02,6.32c13.19,0,20.91-10.39,20.91-10.39s13.47-2.25,26.67-0.56c0,0,4.49,4.21,7.86,4.21
		C378.21,376.7,391.26,362.81,390.14,336.84z"/>
	<path id="XMLID_35_" class="st4" d="M88.24,106.25h-6.32v-2.67c0,0,6.32,0.28-56.98,1.82c0,0,25.12,7.44,38.74,15.02
		c0,0,3.37-1.96,5.61-1.96c2.25-0.14,2.53-1.12,5.19-1.12c2.67-0.14,2.53-1.82,2.53-1.82h4.21c0,0-0.98-2.39-4.35-3.37
		C76.73,112,82.21,108.35,88.24,106.25z"/>
	<path id="XMLID_36_" class="st4" d="M8.52,115.93c0,0,6.74,2.67,10.25,7.3c0.14,11.79,9.82,21.75,22.6,32.14h-8.14
		c0,0,7.44,4.91,20.63,8.84c0,0-1.96,1.54-8.98,2.25c0,0,10.95,7.3,36.49,7.3c21.33,0,30.6-6.6,30.6-6.6l-17.4-2.39
		c0,0,30.6-2.95,46.18-15.86c0,0-9.68,6.32-42.53,6.32s-47.44-9.54-47.44-9.54s19.23,3.51,31.44,1.12
		C54.7,127.72,41.64,115.37,8.52,115.93z"/>
	<path id="XMLID_37_" class="st4" d="M441.78,257.96c0,0,16.28,0,27.37,12.21c0,0,18.39-3.37,27.23-15.02
		c-8.56,0.42-11.09-1.26-11.09-2.95c0-1.82,1.96-2.11,7.16-2.11s6.88,0,6.88,0s3.79-1.26,4.49-13.33c-6.74,6.18-14.74,8-16.14,5.05
		c-1.68-3.51,11.93-5.05,15.86-11.23c0,0,0.7-2.95-1.96-9.4c-4.91,8.42-8,9.68-10.11,8.28c-3.37-2.25,6.46-5.89,8-12.07l-4.77-5.75
		C480.8,239.86,457.22,234.11,441.78,257.96z"/>
	<path id="XMLID_38_" class="st4" d="M113.5,250.53c0,0,1.96-2.11,4.35-3.79l-0.84,3.65h0.56c0,0,3.51-3.93,6.74-4.21
		c0,0-1.68,1.82,0.84,2.67c4.77,1.82,10.53,0.84,16.84,1.68c1.82,0.7,2.81,1.12,6.6-0.42c3.79-1.4,6.6-1.4,6.6-1.4
		s-5.47,2.25-6.6,4.07c0,0,3.65,2.39,3.65,6.46c0,4.07-1.4,7.02-5.47,9.54c-5.47,3.23-6.04,6.88-6.04,6.88l3.51-2.25
		c0,0-0.98,8.14-8.84,8.14c-4.49,0-5.75-2.53-7.3-2.53c-0.98,0-3.93,3.37-3.93,3.37s0.28-3.23,5.61-8.7c0,0-3.51,1.4-5.05,3.51
		c-7.58-4.49-16.14-5.05-16.14-11.93c0-2.95,2.39-6.88,2.39-6.88s-1.96,0.14-2.67,2.11l-0.42-3.65l-11.65,9.68
		c0,0,6.74,7.44,18.81,16.7c12.07,9.26,32.84,21.89,52.77,30.18s36.77,17.96,46.18,28.21c9.4,10.25,17.54,25.26,26.11,37.75
		s28.49,34.67,48.84,39.86l-4.21,5.05c0,0,15.16,2.67,34.81-0.42l-6.32,7.02c32.56-3.37,59.23-18.11,73.96-46.18
		c0,0-5.61-4.91-21.19-4.91c-22.88,0-43.93,14.74-64.28,14.74c-19.65,0-34.53-17.96-45.61-35.09c-11.09-17.12-30.46-56-30.46-84.35
		c0-46.04,32.56-50.11,32.56-50.11s-41.82-9.26-68.21-11.23c64.28,2.81,135.72,21.33,169.96,38.32c0.98,0.84,1.68,5.61-2.95,5.61
		c-3.09,0-12.77-6.6-37.05-14.74c5.89,11.65,20.35,32.14,48,32.14c25.96,0,36.49-17.12,70.46-18.11c0.98-19.65-8.42-24-30.04-34.67
		c-21.61-10.67-38.04-14.88-38.04-14.88l-0.84,0.14c0,0,10.53,5.33,21.05,13.75l-2.53,1.4c0,0,6.04,3.79,14.88,14.6
		c0,0-13.89,5.75-22.74,5.19c0,0-0.28,2.67-3.37,2.67c-2.11,0-10.25-4.21-29.89-12.77c-19.65-8.42-72-26.81-142.46-36.21
		c0,0,11.37,3.51,15.58,5.47c0,0-5.89-1.68-10.81-0.84l5.05,3.23c0,0-33.82-1.4-54.04,2.81c0,0,13.05,3.79,18.25,10.53
		c0,0-8.14,0.14-13.19,0.84c0,0,1.26,2.67,1.26,3.79c0,1.12-4.21,4.21-4.21,4.21h3.23v8.14c0,0-4.49,6.46-17.12,3.23l0.42-1.96
		l-7.44,0.7c0,0,5.19-2.53,7.72-4.49c0,0-7.72,3.23-9.4-0.84c0,0-25.4,6.32-37.75,16.28C102.7,247.16,109.85,248.28,113.5,250.53"/>
	<path id="XMLID_39_" class="st4" d="M282.77,137.96c0,0-22.6,3.79-33.82,22.04l1.82-0.56c0,0,9.82-10.95,36.21-10.95
		c30.74,0,50.53,17.4,68.07,19.79c0,0-11.79-2.81-16.7-12.63c0,0-0.84,2.81,0.14,4.91c-12.63-7.02-20.07-9.82-20.91-20.77
		c0,0-2.81,2.25-2.95,7.44l-2.11-1.54c0,0-0.56,2.11,2.95,3.93c1.26,0.56-0.56,2.25-0.56,2.25s-3.79-0.56-7.16-2.53
		c0,0,2.53-0.14,1.68-1.26c-0.84-0.98-3.65-3.51-4.21-4.77c-1.54-1.96,2.67-0.98,2.67-0.98s-1.26-2.11-5.19-2.81
		c0,0,0.84-1.26,2.67-0.98c1.82,0.28-0.42-1.82,1.96-2.53c2.39-0.7,6.04-3.09,7.86-6.6c1.54-2.53,4.49,0.7,4.49,0.7
		s-0.84-4.21-7.16-4.21c-7.44,0-12.91,4.21-12.91,4.21l4.49,2.25c0,0-1.96,0.28-4.35-0.7s-3.93,1.96-3.93,5.19
		c0,4.35,5.05,5.33,5.05,7.72c0,2.39-0.42,4.35-2.25,1.96l0.14,2.25c-4.91-3.65-9.12-3.37-12.21-8.56l3.51,1.4
		c0,0-0.28-1.26-4.21-3.23c0,0-0.56-1.54,0.56-1.54l0.14-4.35h-8.84v0.84L282.77,137.96z"/>
	<path id="XMLID_40_" class="st1" d="M338.91,170.11v-0.84l-13.47-4.21l-0.28,1.26c0,0,0.84,0.56,0.84,2.25
		c0,1.68-1.26,4.35-5.05,4.35c-3.65,0-5.19-3.09-4.91-5.19c0,0,3.65,0.14,3.65-2.25c0-3.51-14.6-7.16-33.68-6.46
		c16.42,12.63,26.11,17.68,32.98,17.68C327.54,176.56,338.91,170.11,338.91,170.11z"/>
	<path id="XMLID_41_" class="st4" d="M316.17,167.72c0,0,3.65,0.14,3.65-2.25c0-2.25-6.04-4.49-15.3-5.75
		C304.52,159.72,310.56,163.51,316.17,167.72z"/>
	<path id="XMLID_42_" class="st4" d="M271.54,157.61c0,0-2.25-0.42-8.84,0.14c0,0,1.54,4.21,6.18,8.84c0,0-4.21-0.28-6.04-0.7
		c12.91,12.77,24.7,17.26,43.37,16.98l-2.81,1.54c0,0,11.51,0.28,21.75,4.63C297.08,170.53,298.91,178.25,271.54,157.61z"/>
	<path id="XMLID_43_" class="st0" d="M209.5,250.11c0,0-3.23,0.14-6.6,1.4c0,0-4.21-8.84-10.39-8.84c-6.04,0-15.72,6.04-15.72,6.04
		l0.42-2.25c-10.53,0-13.19,0.56-13.19,4.49s4.21,4.35,8.84,8.7c0,0,1.82-1.96,4.35-1.96l-5.47,5.33c0,0,3.51-2.53,7.58,0.28
		c4.07,2.67,13.47-0.42,17.12-2.53c0,0-1.12,2.67-3.51,3.93c0,0,8.56,2.67,12.35-2.11c2.25-3.51-1.26-8.56-1.26-8.56
		S206.7,251.23,209.5,250.11z"/>
	<path id="XMLID_44_" class="st0" d="M189.71,279.16c-8.7,2.67-18.25,0.42-28.35,0.14l1.4-1.96c0,0-3.23,0.42-5.75,1.96
		c-2.67,1.4-8.56,1.96-8.56,7.02c0,4.21,3.51,6.88,3.51,6.88l3.37-3.65c0,0,0.42,2.39-0.84,3.93c12.07,7.72,25.4,3.23,30.74,8.7
		l6.32-4.21c0,0,0.28,1.26-2.95,6.46c3.93,3.79,6.6,5.05,10.39,5.05c3.79,0,6.18-0.7,6.6-5.89l1.54-1.82l-2.39,0.14
		c0,0,0.56-2.25-0.84-4.77c0,0,0.98-1.12,3.79,0.98c0,0,1.12,0,2.39-1.54c1.26-1.54,1.26-1.54,1.26-1.54l-1.4,0.14
		c-0.98-7.3-6.6-10.81-10.67-9.26c0,0-0.7-4.91-6.04-4.91c-1.96,0-5.89,2.39-8.84,2.39L189.71,279.16z"/>
</g>
</svg>
