<?xml version="1.0" encoding="utf-8"?>
<!-- Generator: Adobe Illustrator 26.5.0, SVG Export Plug-In . SVG Version: 6.00 Build 0)  -->
<svg version="1.1" id="Layer_1" xmlns="http://www.w3.org/2000/svg" xmlns:xlink="http://www.w3.org/1999/xlink" x="0px" y="0px"
	 viewBox="0 0 512 512" style="enable-background:new 0 0 512 512;" xml:space="preserve">
<style type="text/css">
	.st0{fill:#FFFFFF;}
	.st1{fill:#B21E35;}
</style>
<g id="XMLID_1_">
	<g id="XMLID_2_">
		<path class="st0" d="M487.49,245.55c-9.11-7.83-20.78-8.25-27.75-21.92c-5.27-10.39-16.79-14.23-27.32-15.94
			c-8.25-1.99-13.09-9.96-18.78-15.94c-7.26-12.67-22.06-12.81-35.01-14.23c-14.09,0.57-22.91-16.51-37.43-20.35
			c-5.41-1.42-19.92-0.43-29.46-7.26c-8.54-6.26-19.35-12.67-40.98-9.82c-16.22-2.7-27.89-16.51-44.4-18.78
			c-11.24-3.42-21.35,1.71-32.45,1.14c-7.83-2.13-14.23-7.68-22.2-9.25c-11.95-2.13-14.94,2.56-45.25-3.84
			c-14.23-3.13-32.02-7.68-22.91,22.06c3.98,12.95,13.38,45.4-17.08,48.53c-10.96,1.14-21.06-8.97-31.02-0.85
			c-3.42,2.42-9.82-3.13-13.95-1.85c-13.23,3.84-7.97,19.21-9.11,29.88c-0.28,11.95-8.4,20.78-12.38,31.17
			c-9.39,19.07-5.41,45.11,1.14,64.18c1.85,9.96-1,20.21,1,30.03c0.57,1.71,2.7,3.98,5.27,2.7c20.07-9.82,25.19,2.42,32.02-0.43
			c18.93-8.25,31.88-4.55,35.86,5.12c6.97,20.07-7.97,37.43-3.98,57.21c3.84,13.23,28.89,1.71,40.56,1.14
			c16.37-1.28,32.3,3.42,47.96,0.43c13.52-6.83,28.75-10.82,45.11-10.39c10.96,0.14,19.35-5.41,28.18-10.67
			c16.08-11.24,40.42-2.99,56.07-15.65c8.4-6.69,20.92-3.98,30.03-9.11c13.95-12.38,30.45-19.07,48.53-21.77
			c9.39-3.7,16.79-13.38,25.76-18.07c7.97-4.98,17.36-5.98,25.05-11.67c12.1-15.94,28.18-29.03,47.39-32.3
			C504.42,261.91,497.74,251.52,487.49,245.55z M369.66,316.42c-14.66,13.8-42.41,23.62-68.59,26.33
			c-31.59,3.27-62.9-1.28-87.8-17.79c-14.94-10.96-24.33-27.89-22.48-46.68c1-18.36,12.52-34.15,27.18-45.11
			c-1.14-1.28-2.13-2.28-3.42-3.84l-36,22.06c0,1.85,0,4.41,0,6.26c3.7,0,4.7,0,9.11,0v20.21l-6.69,7.68H114.5v-15.65l8.25-12.1
			c1.28,0,1.99,0,2.56,0v-69.45H114.5v-14.09l8.97-9.96h64.18v14.94l-8.97,10.67v26.9c34.72-19.5,62.05-35.01,62.05-35.01v-11.95
			l5.55-5.55h65.89c0,6.83,0,8.54,0,15.23l-8.25,8.82h-19.5c-11.24,6.97-13.23,8.11-24.76,14.94c1.28,1.71,2.28,2.85,5.12,5.83
			c31.02-7.4,68.59-6.83,96.63,6.4l9.82-7.4c8.25,0,10.67,0,18.36,0c0,14.8,0,22.63,0,46.25l-8.68,9.96h-16.65
			c-14.52-24.48-41.98-36-70.73-31.45c-1.85,0.57-3.7,0.71-5.27,1.57c10.25,11.24,11.67,12.52,21.63,23.34c1.99,0,2.56,0,4.27,0V277
			l-6.69,8.54h-67.03v-16.22l4.27-7.54c-0.57-0.71-1-1-1.85-1.85c-5.98,4.41-8.68,11.81-7.26,19.07
			c3.13,16.51,19.78,25.33,34.3,28.89c24.19,5.27,52.23,3.13,73.57-6.4c19.07-11.1,20.49-21.2,21.2-22.06h25.33
			C389.58,291.23,382.18,304.75,369.66,316.42z"/>
	</g>
	<g id="XMLID_3_">
		<g id="XMLID_4_">
			<path d="M468.14,213.53c-11.95-7.68-8.97-22.91-36.86-26.47c-14.52-2.13-14.94-23.2-47.53-29.32
				c-15.51-2.99-25.76-18.22-41.84-19.5c-14.52,0.28-29.32-0.14-40.27-9.11c-10.96-10.39-27.89-4.84-41.98-7.97
				c-11.53-3.98-17.22-11.67-29.17-15.23c-13.23-4.13-23.91,0.57-34.3-2.13c-13.38-1.42-23.77-11.38-38.42-9.11
				c-14.37,3.98-30.31,0.28-44.68-0.85c-8.68-1-34.15-6.55-29.74,18.36c2.85,11.81,5.41,23.48,8.4,35.15
				c5.55,18.64-0.43,19.92-9.11,20.78c-8.4,0.71-10.39-10.39-18.07-11.24c-6.12-1-15.37,5.69-22.77,8.11
				c-7.4,2.28-10.67-5.41-17.08-5.98c-13.66-0.14-14.37,18.07-11.95,21.06c4.7,9.11,5.69,21.49,2.13,31.59
				c-4.98,8.82-9.39,17.79-12.1,27.75c-5.27,24.9-3.7,53.51,5.27,76.28c2.99,12.67-7.97,27.18,3.27,36.86
				c10.25,6.83,18.36-3.13,28.03-5.27c7.12-1.57,18.78,3.27,24.62,0c13.66-6.69,21.49-1,19.92,8.11
				c-3.7,15.08-6.97,30.31-11.81,44.97c-2.85,10.67,10.25,20.35,16.93,19.21c9.11-1.71,18.22-3.27,27.18-4.98
				c20.92-3.13,40.13,7.83,59.91,0.57c13.23-6.4,26.47-13.09,43.4-10.82c11.38,1.42,20.21-3.84,28.89-9.11
				c10.67-6.26,30.45-8.97,36.86-8.82c11.81,0.43,19.21-7.97,29.46-11.1c7.83-2.56,21.49-2.7,24.33-4.84
				c7.12-5.83,16.22-14.52,22.63-15.37c18.93-3.7,34.87-12.1,49.81-25.47c1.99-1.99,17.79-5.12,22.48-6.97
				c9.82-3.84,16.37-13.38,21.49-22.06c5.12-6.97,12.67-11.38,20.35-13.8c13.38-2.13,26.9-13.66,32.59-25.76
				c5.27-10.96,3.13-12.81,1.71-14.52C497.59,233.73,482.94,222.63,468.14,213.53z M486.07,269.03
				c-19.21,3.27-35.29,16.37-47.39,32.3c-7.68,5.69-17.08,6.69-25.05,11.67c-8.97,4.7-16.22,14.37-25.76,18.07
				c-18.07,2.7-34.58,9.25-48.53,21.77c-9.11,5.12-21.49,2.56-30.03,9.11c-15.51,12.67-39.99,4.27-56.07,15.65
				c-8.82,5.12-17.22,10.82-28.18,10.67c-16.37-0.28-31.59,3.56-45.11,10.39c-15.51,2.99-31.45-1.71-47.96-0.43
				c-11.81,0.57-36.86,12.1-40.56-1.14c-3.98-19.78,10.96-37.14,3.98-57.21c-3.98-9.68-17.08-13.38-35.86-5.12
				c-6.83,2.85-11.95-9.39-32.02,0.43c-2.7,1.28-4.7-1-5.27-2.7c-1.99-9.82,0.85-20.07-1-30.03c-6.69-19.07-10.67-45.11-1.14-64.18
				c3.98-10.39,12.1-19.21,12.38-31.17c1.14-10.67-4.13-26.04,9.11-29.88c4.13-1.28,10.53,4.27,13.95,1.85
				c9.96-8.11,20.07,1.85,31.02,0.85c30.45-3.13,21.06-35.43,17.08-48.53c-9.11-29.6,8.68-25.05,22.91-22.06
				c30.31,6.4,33.3,1.85,45.25,3.84c7.97,1.71,14.37,7.12,22.2,9.25c11.1,0.43,21.2-4.7,32.45-1.14
				c16.51,2.13,28.18,16.08,44.4,18.78c21.63-2.85,32.45,3.56,40.98,9.82c9.39,6.83,24.05,5.83,29.46,7.26
				c14.66,3.84,23.34,20.92,37.43,20.35c12.95,1.42,27.75,1.71,35.01,14.23c5.69,5.98,10.39,13.95,18.78,15.94
				c10.67,1.71,22.2,5.55,27.32,15.94c6.83,13.52,18.5,14.09,27.75,21.92C497.74,251.52,504.42,261.91,486.07,269.03z"/>
			<path d="M343.47,301.05c-21.35,9.68-49.38,11.81-73.57,6.4c-14.52-3.42-31.17-12.24-34.3-28.89c-1.28-7.26,1.28-14.52,7.26-19.07
				c0.85,0.85,1.28,1.14,1.85,1.85l-4.27,7.54v16.22h67.17l6.69-8.54v-19.21c-1.71,0-2.28,0-4.27,0
				c-10.1-10.67-11.38-12.1-21.63-23.34c1.71-0.85,3.42-1,5.27-1.57c28.75-4.7,56.07,6.83,70.73,31.45h16.65l8.68-9.96
				c0-23.62,0-31.45,0-46.25c-7.83,0-10.25,0-18.36,0l-9.82,7.4c-28.03-13.23-65.6-13.95-96.63-6.4c-2.85-2.99-3.84-4.13-5.12-5.83
				c11.53-6.97,13.38-7.97,24.76-14.94h19.5l8.25-8.82c0-6.55,0-8.4,0-15.23h-65.89l-5.55,5.55v11.95c0,0-27.32,15.37-62.05,35.01
				v-26.9l8.97-10.67v-14.94h-64.18l-8.97,9.96v14.09h10.82v69.45c-0.57,0-1.14,0-2.56,0l-8.25,12.1v15.65h66.46l6.69-7.68v-20.21
				c-4.41,0-5.27,0-9.11,0c0-1.85,0-4.41,0-6.26l36-22.06c1.42,1.57,2.28,2.56,3.42,3.84c-14.8,10.96-26.18,26.75-27.18,45.11
				c-1.85,18.93,7.68,35.86,22.48,46.68c25.05,16.37,56.35,20.92,87.8,17.79c26.18-2.7,53.94-12.52,68.59-26.33
				c12.52-11.67,19.92-25.19,20.49-37.28h-25.33C363.97,279.99,362.54,289.95,343.47,301.05z M348.31,214.38
				c0,0,10.39,3.56,13.8,5.55l9.68-7.83c5.69,0,8.25,0,13.38,0v41.13c-5.41,0-6.83,0-13.66,0c-20.92-26.04-55.93-31.17-88.23-24.05
				l-15.23-16.37C293.1,205.13,324.69,205.56,348.31,214.38z M173.84,249.39c0,5.27,0,7.12,0,13.23h9.53v11.95
				c-26.75,0-29.32,0-57.07,0v-12.1c4.98,0,6.55,0,10.53,0v-84.82h-10.53v-9.68c26.61,0,32.59,0,57.07,0c0,4.27,0,4.84,0,9.82
				c-3.7,0-3.7,0-9.53,0v46.39l83.11-46.39c0,0-6.12,0-8.97,0c0-3.98,0-5.12,0-9.68h59.63v9.82H293.1
				c-16.51,9.96-40.7,24.62-40.7,24.62l56.07,60.2h1.57c0,4.41,0,7.26,0,12.1h-60.05v-11.95h8.68c-24.19-26.47-38-41.55-38-41.55
				C205.43,230.18,201.02,232.74,173.84,249.39z M385.17,284.11c-8.4,32.02-43.12,46.25-73.15,50.38
				c-28.03,3.84-56.64,0.28-80.69-9.96c-16.79-6.4-31.45-22.77-32.87-41.13c-1.42-18.93,7.26-36.15,22.77-46.53l17.93,18.93
				c-5.83,6.69-9.25,14.66-7.68,23.77c2.85,17.5,21.77,29.74,37.57,33.02c28.75,4.7,60.62,2.85,84.53-11.38
				c11.81-8.4,16.51-17.08,16.51-17.08C376.92,284.11,378.91,284.11,385.17,284.11z"/>
		</g>
	</g>
	<g id="XMLID_5_">
		<path id="XMLID_14_" class="st1" d="M258.66,262.62h-8.68v11.95h60.05c0-4.84,0-7.54,0-12.1h-1.57l-56.07-60.2
			c0,0,24.19-14.66,40.7-24.62h14.52v-9.82h-59.63c0,4.55,0,5.69,0,9.68c2.99,0,8.97,0,8.97,0l-83.11,46.39v-46.39
			c5.83,0,5.83,0,9.53,0c0-4.98,0-5.55,0-9.82c-24.48,0-30.45,0-57.07,0v9.68h10.53v84.82c-3.98,0-5.55,0-10.53,0v12.1
			c27.89,0,30.31,0,57.07,0v-11.95h-9.53c0-6.12,0-7.97,0-13.23c27.18-16.65,31.59-19.35,46.82-28.46
			C220.66,221.07,234.46,236.15,258.66,262.62z"/>
		<path id="XMLID_15_" class="st1" d="M371.65,253.23c6.83,0,8.25,0,13.66,0V212.1c-5.27,0-7.68,0-13.38,0l-9.68,7.83
			c-3.42-1.99-13.8-5.55-13.8-5.55c-23.48-8.82-55.22-9.25-80.12-1.71l15.23,16.37C315.58,222.07,350.73,227.19,371.65,253.23z"/>
		<path id="XMLID_16_" class="st1" d="M353.86,301.05c-23.91,14.23-55.93,16.08-84.53,11.38c-15.94-3.27-34.87-15.37-37.57-33.02
			c-1.71-9.11,1.85-17.08,7.68-23.77l-17.93-18.93c-15.65,10.25-24.19,27.47-22.77,46.54c1.42,18.36,16.08,34.58,32.87,41.13
			c24.05,10.25,52.65,13.8,80.69,9.96c29.88-4.13,64.61-18.36,73.15-50.38c-6.26,0-8.4,0-14.8,0
			C370.51,283.97,365.67,292.65,353.86,301.05z"/>
	</g>
</g>
</svg>
