<?xml version="1.0" encoding="utf-8"?>
<!-- Generator: Adobe Illustrator 27.0.0, SVG Export Plug-In . SVG Version: 6.00 Build 0)  -->
<svg version="1.1" id="Layer_1" xmlns="http://www.w3.org/2000/svg" xmlns:xlink="http://www.w3.org/1999/xlink" x="0px" y="0px"
	 viewBox="0 0 512 512" style="enable-background:new 0 0 512 512;" xml:space="preserve">
<style type="text/css">
	.st0{fill:#FFFFFF;}
	.st1{fill:#002244;}
</style>
<g id="XMLID_1_">
	<path id="XMLID_3_" class="st0" d="M504.99,166.77c-7.43-21.88-24.55-52.74-62.84-75.33c-19.22-11.36-44.19-17.39-70-17.39
		c-6.73,0-13.47,0.42-20.2,1.26c-37.73,4.77-70.42,22.58-91.74,50.36c-1.4,1.82-2.81,3.79-4.07,5.75
		c-118.67,18.8-212.23,95.81-216.44,99.31L0,263.69l51.48,4.07c76.87,6.17,131.02,33.1,163,54.43c35.07,23.43,51.9,45.73,51.9,45.73
		l6.59,8.98l6.87,9.26l17.25-14.73c1.82-1.54,3.65-3.37,5.19-5.19l1.4,1.12c2.1,1.68,3.65,2.95,5.61,5.19
		c0.28,0.7,0.42,1.54,0.42,2.52c0,3.79-0.28,3.79-1.26,6.31l-0.56,1.26c-0.56,1.4-1.4,3.23-2.24,4.63c-0.42,0.7-0.7,1.4-0.98,1.82
		l-0.28,0.56l0,0l-5.19,9.54l69.16,38.86l1.26-0.28c0,0,5.47-1.54,6.59-1.82c1.12-0.28,12.06-3.09,12.2-3.09
		c14.87-3.65,24.27-6.17,30.44-8.98l5.75-2.81l3.23-5.47c0.84-1.54,19.36-32.54,28.62-76.17c3.37-3.09,11.5-10.52,11.5-10.52
		l0.84-0.84l0.42-4.07l0.42-3.93c0.28-3.65,0.56-7.43,0.56-11.08c0-6.03-0.42-12.2-1.26-18.52c20.9-12.34,30.3-29.88,35.91-43.63
		c4.77-11.78,7.15-25.11,7.15-38.72C512,194.26,509.76,180.23,504.99,166.77"/>
	<path id="XMLID_4_" class="st1" d="M450.56,106.17c-3.93-2.81-7.86-5.61-12.2-8.14l0,0l0,0c-4.21-2.52-8.84-4.77-13.75-6.73
		c-6.03-2.38-12.48-4.35-19.22-5.89c-10.52-2.38-21.74-3.65-33.24-3.79c-37.73,0-78.97,13.75-105.91,48.68
		c-0.7,0.84-1.26,1.82-1.96,2.81c-1.26,1.68-2.52,3.37-3.65,5.19c-1.26,0.28-2.1,0.42-2.67,0.42c-10.94,1.68-21.74,3.93-32.26,6.59
		c-101.42,25.39-177.59,87.95-181.37,91.04l-25.39,21.04l0,0l16.41,1.26l16.41,1.26c152.06,12.2,220.09,102.68,220.37,103.1
		l4.91,6.73l3.65,4.91l10.94-9.4l0.56-0.42c3.51-3.09,6.31-6.59,8.42-10.1l0,0c1.26,1.12,2.81,2.38,4.35,3.79
		c3.51,2.95,5.89,4.49,8.84,7.86c0.56,0.56,0.98,1.12,1.68,1.82c0.84,1.54,1.12,3.23,1.26,4.91c0,0.56,0.14,1.12,0.14,1.68l0,0v0.28
		c0,2.1-0.14,3.51-0.42,4.63c-0.42,1.96-1.12,3.23-1.96,5.61c-1.26,3.23-3.93,7.86-3.93,7.86l-1.4,2.67l59.9,33.67l5.05-1.4
		l6.03-1.54l6.03-1.54c14.03-3.51,23.57-5.89,29.04-8.56l2.81-1.4l0.84-0.42l2.1-3.51c0-0.14,0.14-0.28,0.42-0.7
		c2.24-3.79,13.19-23.43,21.74-51.48c2.24-7.43,4.49-15.57,6.17-24.13c0.56-0.56,1.26-1.26,2.1-1.82c1.82-1.54,3.79-3.51,5.47-5.05
		c1.96-1.82,3.65-3.23,3.65-3.23l0.84-0.84l0.56-5.19c0.14-1.82,0.14-3.51,0.28-5.19c0.14-1.68,0.28-3.51,0.28-5.19
		c0-6.03-0.42-12.06-1.26-17.81c-0.28-1.54-0.42-3.23-0.7-4.77c21.6-10.94,31.14-27.63,37.17-42.5c0.56-1.26,0.84-2.52,1.26-3.79
		c3.37-9.82,5.33-20.62,5.33-32.26c0-13.61-2.52-27.91-7.86-42.08C488.29,143.9,473.42,122.86,450.56,106.17"/>
	<path id="XMLID_5_" class="st0" d="M435.27,103.36L435.27,103.36c-16.13-9.54-38.86-15.43-62.98-15.43
		c-31.84,0-65.79,10.1-90.9,34.79c-3.51,3.51-7.01,7.29-10.1,11.5c-1.4,1.96-2.81,3.93-4.07,5.89c-0.56,0.84-1.12,1.82-1.68,2.67
		l-0.7,1.12l-0.7,0.14l-0.7,0.14c-0.56,0.14-0.98,0.14-1.54,0.28c-1.12,0.28-2.1,0.42-2.67,0.56
		c-45.59,7.01-87.53,23.15-121.76,40.26c-52.18,25.95-86.55,54.15-88.79,55.97l-13.75,11.36l17.67,1.4
		c101.28,8.14,165.94,50.36,198.77,78.97l0.14,0.14c1.82,1.54,3.51,3.09,5.19,4.63c13.61,12.48,20.48,21.46,20.76,21.88l4.63,6.31
		l5.89-5.05c4.21-3.65,7.15-8,9.26-12.2l0.84-1.82l0.84-1.82l3.09,2.81c2.1,1.82,4.35,3.93,7.15,6.45
		c3.65,3.09,6.87,5.19,11.36,10.52l0.14,0.28l0.14,0.28c0.42,0.84,0.84,1.68,1.12,2.52c0.84,2.52,1.26,5.05,1.26,7.29l0,0
		c0,5.75-1.12,8.84-2.38,11.64c-0.14,0.42-0.28,0.84-0.56,1.12c-0.84,1.96-1.82,4.07-2.67,5.75l52.32,29.46l2.67-0.7l12.2-3.09
		c12.2-3.09,21.18-5.33,25.95-7.29c0.7-0.28,1.26-0.56,1.82-0.84l1.96-0.98l1.12-1.82c0.14-0.28,1.54-2.81,3.79-6.87
		c2.38-4.49,5.47-11.08,8.98-19.5c5.33-12.91,11.22-29.74,15.01-48.96l0.14-0.98l0.7-0.7c0.56-0.56,1.4-1.26,2.24-2.1
		c2.95-2.67,7.01-6.31,8.84-8l0.28-2.81c0.28-3.37,0.42-6.59,0.42-9.82c0-0.42,0-0.84,0-1.26c-0.14-7.72-0.98-15.43-2.38-22.58
		l-0.42-2.38l2.1-0.98c13.19-6.31,21.6-14.59,27.49-23.43l0.14-0.28c0.14-0.28,0.42-0.7,0.56-0.98c3.23-5.05,5.75-10.38,7.86-15.57
		c3.65-9.12,5.75-19.78,6.03-31.14c0-0.84,0.14-1.68,0.14-2.52l0,0C498.11,171.82,479.88,129.73,435.27,103.36"/>
	<path id="XMLID_6_" class="st1" d="M447.61,119.91c-11.36-9.12-23.85-15.15-35.91-18.94h-0.14c-0.28-0.14-0.7-0.14-0.98-0.28
		c-32.82-10.1-62.84-4.91-63.12-4.77h0.14c0.14,0,0.28,0,0.56,0c5.05-0.42,33.81-2.1,62.84,9.82c5.61,2.24,11.22,5.33,16.83,9.12
		c14.31,9.54,27.91,23.57,36.47,40.68c3.37,6.73,5.89,13.75,7.43,21.32c0.28,1.68,0.56,3.23,0.84,4.77
		c0.98,6.31,1.4,12.34,1.4,17.81l0,0v1.68c-0.28,21.18-6.73,35.35-8.84,39.84c-0.7,1.4-1.54,2.95-2.67,4.49
		c-3.51,5.33-8.56,11.08-12.2,13.89c-0.98,0.7-1.96,1.4-2.95,1.82c-1.96,1.12-3.79,1.82-5.33,2.1l0,0
		c-0.84,0.14-1.54,0.28-2.24,0.28c-0.56,0-1.12,0-1.54-0.14l0,0c-0.42-0.14-0.98-0.28-1.4-0.42c-2.67-1.26-3.65-4.49-9.68-13.05
		c-1.68-2.24-3.37-4.49-4.91-6.31c-2.38-2.81-4.35-4.91-4.35-4.91c0.56-0.42,0.98-0.98,1.4-1.4l0,0l0.14-0.14l0.14-0.14l0.14-0.14
		l0.28-0.28c0.56-0.56,1.12-1.26,1.54-1.96c0.56-0.84,1.12-1.68,1.68-2.67c0.84-1.4,1.54-2.81,2.1-4.49l0.14-0.28
		c0.14-0.42,0.28-0.84,0.42-1.26c0.14-0.42,0.28-0.84,0.42-1.26c4.49-15.99,0.42-39.7-16.55-57.37c-1.96-1.96-4.07-3.93-6.31-5.89
		c-5.89-4.77-12.06-8.42-18.1-11.08c-18.24-8.14-36.61-7.43-52.18-1.12c-35.07,14.03-56.25,56.25-31.28,90.76
		c12.06,16.69,31.84,17.81,44.05,8.42c11.5-8.84,19.22-35.77-9.12-50.22c21.32-1.82,46.85,21.88,38.72,53.58
		c-0.56,2.1-1.26,4.21-2.1,6.45c-0.98,2.52-2.1,4.91-3.51,7.15c-0.7,1.26-1.4,2.52-2.1,3.79c-0.56,1.12-1.26,2.1-1.96,3.23
		c-22.86,34.37-90.76,32.26-115.59-22.72c-14.03-31.14-10.66-56.39-4.77-72.8c2.67-7.43,5.89-13.05,8.14-16.55
		c0.84-2.38,1.82-4.91,2.95-7.15C153.04,175.6,85.99,238.17,85.99,238.17c95.11,19.78,150.37,64.11,177.17,92.3
		c14.03,14.73,20.2,24.97,20.2,25.11c5.33-4.63,8.28-10.8,9.96-15.85c-8.14-13.33-6.73-26.09-6.03-30.3
		c0.14-0.98,0.28-1.54,0.28-1.54c2.24,11.08,6.31,19.22,10.24,24.97c1.12,1.54,4.63,5.19,7.43,8c1.68,1.68,3.23,3.09,3.79,3.65
		c0.42,0.28,0.7,0.42,0.7,0.42v0.28c7.29,6.45,15.85,13.61,17.39,16.41c2.38,4.35,3.37,8.98,3.37,13.19c0,1.68-0.14,3.37-0.28,4.91
		c-0.84,6.87-3.37,11.92-3.51,11.92l43.91,23.99c9.82-2.81,32.68-7.72,39-10.8c0,0,0.7-1.12,1.82-3.23
		c1.26-2.24,3.09-5.89,5.19-10.38c6.45-13.47,15.57-36.05,20.48-62.7l0,0l11.5-10.38c0.14-1.54,0.28-3.09,0.28-4.63l0,0
		c0-0.56,0-0.98,0-1.54c0-0.98,0-1.96,0-2.95l0,0c0-0.7,0-1.26,0-1.96c0-0.84,0-1.68-0.14-2.52c0-0.7,0-1.4-0.14-2.1
		c0-0.7-0.14-1.26-0.14-1.82c-0.28-3.37-0.7-6.59-1.12-9.68v-0.42c-0.14-1.26-0.42-2.38-0.7-3.65c-0.42-2.38-0.98-4.77-1.54-7.15
		l0,0c0.98-0.28,1.82-0.42,2.81-0.84c2.24-0.7,4.63-1.82,6.87-3.09c8.28-4.63,16.27-12.34,22.44-22.72
		c12.48-20.9,17.81-52.04,2.81-88.37C472.16,144.6,460.52,130.29,447.61,119.91"/>
	<path id="XMLID_12_" class="st0" d="M402.45,243.21L402.45,243.21L402.45,243.21c0,0,17.25,21.6,21.74,50.22
		c0.98,6.03,1.26,12.48,0.84,18.94l-4.63,4.21l-2.38,2.24c0.14,6.59-0.14,17.11-2.95,29.46c-1.54,6.73-3.79,13.89-7.15,21.46
		c-3.65-6.73-8.98-12.48-14.73-17.39c-6.31-5.33-13.19-9.54-18.8-12.2c-3.37-1.54-6.17-2.67-8.42-3.23
		c-3.65,2.1-9.68,5.47-15.71,9.68c-4.63,3.09-9.12,6.73-12.62,10.66c0.7,0.98,1.54,2.81,2.24,4.63c0.7,1.82,1.26,3.51,1.4,4.35
		c0.42,2.67,0.7,5.05,0.84,7.43c0.28,6.59-0.84,11.64-1.96,15.71c0,0,6.03,3.37,10.52,5.75c2.67,1.54,4.77,2.67,4.77,2.38
		c0.28-1.26,0.56-2.38,0.84-3.51c1.4-7.29,0.28-12.48-1.68-16.83c-1.4-3.09-3.23-5.75-4.77-8.56c0.98-0.56,2.1-1.26,3.51-2.1
		c4.77-2.81,11.5-6.45,15.01-7.86c4.63,6.31,7.01,16.83,1.96,31.7c-1.12,3.37-2.67,6.73-3.79,9.54c-0.42,0.98-0.84,1.82-1.12,2.67
		l0.14,0.14c0.98,0.56,5.89,3.23,5.75,3.09l0,0c4.07-0.84,7.86-2.67,11.08-5.33c2.95-2.38,5.33-5.61,6.73-9.12
		c0.84-2.24,0.42-3.93,0.14-5.75c-0.42,0.42-0.84,1.12-1.4,1.68c-0.56,0.56-1.12,1.26-1.68,1.68c-1.96-4.63-2.1-8.42,0.56-11.22
		c1.26-1.4,2.81-1.96,4.49-2.1c0.7,0,1.4,0.14,1.96,0.28c1.68,0.56,2.95,1.82,3.51,3.23s0.84,2.67,0.98,3.93
		c0.56,8.14-6.03,15.71-6.03,15.71s8.7-0.42,11.22-1.68c1.54-2.95,3.93-8,6.59-14.31c6.73-15.57,15.57-39.28,18.66-63.4l8-7.15
		c0-2.67,0-5.19-0.28-7.72C433.03,267.48,402.45,243.21,402.45,243.21L402.45,243.21z M403.15,291.33L403.15,291.33
		c0,0,0.14,1.54,0,3.51c-0.14,1.68-0.28,3.65-0.7,5.47c-4.21,2.24-7.01,6.59-7.01,11.64c0,7.29,5.89,13.19,13.19,13.19
		c0,0,0.42-1.12,0.98-3.09l0,0c-1.54,0-2.95-0.42-4.07-1.12c-2.38-1.4-4.07-4.07-4.07-7.01c0-3.09,1.68-5.61,4.07-7.01
		c1.26-0.7,2.67-1.12,4.07-1.12l0,0h0.42c-0.42-2.24-1.26-4.63-2.38-7.01C406.51,296.24,405.11,293.85,403.15,291.33L403.15,291.33z
		 M410.86,314.75l-0.14,0.14c-0.28,0.28-0.7,0.56-1.4,0.98c-0.7,0.28-1.54,0.56-2.52,0.42c-0.7,0-1.4-0.28-2.1-0.7
		c1.12,2.67,3.93,3.23,5.61,2.52l0.28-0.7C411,316.02,410.86,314.75,410.86,314.75z M309.87,344.77v0.28V344.77z M364.29,369.46
		c0,0-5.05,0.42-5.47,2.1c3.37,3.09,3.09,11.64,3.09,17.67c0,0.84,0,1.68,0,2.38C362.33,390.5,367.94,382.23,364.29,369.46z"/>
</g>
</svg>
