<?xml version="1.0" encoding="utf-8"?>
<!-- Generator: Adobe Illustrator 26.5.0, SVG Export Plug-In . SVG Version: 6.00 Build 0)  -->
<svg version="1.1" id="Layer_1" xmlns="http://www.w3.org/2000/svg" xmlns:xlink="http://www.w3.org/1999/xlink" x="0px" y="0px"
	 viewBox="0 0 512 512" style="enable-background:new 0 0 512 512;" xml:space="preserve">
<style type="text/css">
	.st0{fill:#005778;}
	.st1{fill:#FFFFFF;}
	.st2{fill:#F58220;}
	.st3{fill:#008E97;}
	.st4{clip-path:url(#SVGID_00000034069942336731231990000005479982242711678603_);fill:#005778;}
	.st5{clip-path:url(#SVGID_00000002364267643754185540000009424805661348849302_);fill:#005778;}
</style>
<g id="XMLID_1_">
	<path id="XMLID_3_" class="st0" d="M436.39,157.25c-3.79,0.84-13.05,1.26-16.97,1.26s-9.54-0.56-18.24,3.23
		c-6.17,2.67-10.38,8.14-12.2,10.94c0.56-0.84,1.12-1.54,1.54-1.82c0,0,6.31-7.29,19.08-6.31c-0.42,0.7-0.84,1.54-0.42,2.52l0,0
		l0.28,0.42l0,0v0.14c0,0,4.63-1.54,7.86-2.52c7.01-1.68,11.36-2.95,16.13-4.91c6.45-2.67,8.56-3.79,8.42-4.35
		C441.72,155.14,440.18,156.41,436.39,157.25"/>
	<path id="XMLID_4_" class="st0" d="M436.11,156.27c-1.68,0.42-5.05,0.7-8.28,0.98c-3.23,0.14-6.59,0.28-8.56,0.28
		c-0.98,0-1.96,0-3.09,0c-3.79,0-8.7,0.42-15.43,3.23c-6.45,2.81-10.66,8.42-12.62,11.36l1.68,1.12c0.56-0.84,1.12-1.4,1.4-1.68
		h0.14l0.14-0.14l0,0c0.28-0.28,5.47-6.03,15.99-6.03c0.7,0,1.4,0,2.24,0.14l0.14-0.98l-0.84-0.56c-0.42,0.56-0.7,1.26-0.7,2.24
		c0,0.42,0.14,0.84,0.28,1.26l0,0l0,0l0,0l0.28,0.42l0.84-0.56l-0.7-0.7l0,0l-0.56,0.56l0.56,0.84l0.42,0.7l0.7-0.28
		c0,0,1.12-0.42,2.67-0.84c1.54-0.42,3.51-1.12,5.19-1.54l-0.28-0.98l0.28,0.98c7.01-1.68,11.5-2.95,16.27-4.91
		c3.09-1.26,5.19-2.24,6.59-2.95c0.7-0.42,1.12-0.7,1.54-0.98c0.14-0.14,0.42-0.28,0.56-0.42c0.14-0.14,0.28-0.42,0.28-0.84
		l-0.14-0.42l0,0c-0.14-0.28-0.28-0.42-0.56-0.56c-0.28-0.14-0.42-0.14-0.56-0.14c-0.42,0-0.7,0.14-0.98,0.28
		C439.76,155.14,438.36,155.7,436.11,156.27l0.42,1.96c1.68-0.42,2.81-0.84,3.79-1.12c0.42-0.14,0.84-0.28,1.12-0.42l0.28-0.14l0,0
		v-0.28v0.28l0,0v-0.28v0.28v-0.7l-0.28,0.7l0.28,0.14v-0.7l-0.28,0.7l0.42-0.7l-0.84,0.28l0.42,0.42l0.42-0.7l-0.84,0.28l0.98-0.42
		l-0.98,0.42l0.84-0.28h-0.84v0.28l0.84-0.28h-0.84h0.7l-0.56-0.42c0,0-0.14,0.14-0.14,0.42h0.7l-0.56-0.42l0,0
		c-0.14,0.14-0.84,0.7-2.1,1.26c-1.26,0.56-3.09,1.4-5.61,2.52c-4.63,1.96-8.98,3.09-15.99,4.91l0,0l0,0
		c-3.23,0.98-7.86,2.52-7.86,2.52l0.28,0.98l0.84-0.56v-0.14l-0.84,0.56l0.7,0.7l0,0l0.56-0.56l-0.56-0.98l0,0l-0.98,0.42l0.98-0.42
		l-0.14-0.42c0-0.28,0.14-0.7,0.42-1.12l0.98-1.4l-1.68-0.14c-0.84,0-1.54-0.14-2.38-0.14c-11.64,0-17.53,6.59-17.53,6.73l0.84,0.7
		l-0.56-0.84c-0.7,0.42-1.26,1.26-1.82,2.1l0.84,0.56l0.84,0.56c1.82-2.81,5.89-8,11.78-10.52c6.45-2.81,11.08-3.09,14.59-3.09
		c1.12,0,2.1,0,3.09,0c1.96,0,5.33-0.14,8.7-0.28c3.37-0.14,6.59-0.42,8.7-0.98L436.11,156.27L436.11,156.27z"/>
	<path id="XMLID_5_" class="st1" d="M390.52,170.71c-0.42,0.28-0.98,0.98-1.54,1.82c-2.24,3.23-5.19,9.12-5.19,9.12
		c4.21-6.31,17.67-11.64,25.67-14.45l-0.28-0.42l0,0c-0.42-0.84,0-1.82,0.42-2.52C396.84,163.42,390.52,170.71,390.52,170.71"/>
	<path id="XMLID_6_" class="st2" d="M403.43,320.11c-2.67,5.47,4.35,22.58,10.8,27.63c-4.77-1.4-29.46-8.42-33.53,0.7
		c-4.35,10.1,19.78,46.99,22.58,53.87c-11.08-11.08-41.66-35.91-46.01-32.96c-4.35,2.81-3.23,16.69-2.1,23.71
		c-4.21-5.05-11.36-13.33-17.67-10.8c-6.17,2.38-5.47,26.23-5.89,36.33c-5.19-11.92-13.47-35.91-21.32-34.93
		c-7.72,0.84-16.41,17.11-18.1,23.43c-1.12-6.17-6.31-19.92-13.89-19.92c-7.57,0-25.53,36.33-30.86,48.11
		c0-9.12,2.1-53.58-2.67-55.83c-4.77-2.24-21.18,8-24.69,12.62c1.26-5.89,2.38-25.67-1.96-28.05c-4.35-2.38-16.83-3.09-39.28,17.67
		c3.79-8,9.82-16.69,11.36-24.97c9.26-0.42,18.52-1.54,27.77-3.37c20.2,14.59,45.17,23.29,72.1,23.29
		c68.03,0,123.02-55.13,123.02-123.02c0-5.33-0.28-10.52-0.98-15.71c4.63-4.35,8.98-8.42,13.05-12.34c-0.98,2.24-1.4,4.91-1.4,8.28
		c0.28,10.38,27.21,12.62,41.38,13.75c-15.99,2.1-43.91,13.75-38.58,19.92c5.33,6.17,20.76,14.73,23,15.85
		c-7.29,0-31.56,2.52-34.23,9.4c-2.67,6.87,35.07,29.88,48.82,35.21C447.19,322.63,406.23,314.63,403.43,320.11"/>
	<path id="XMLID_7_" class="st2" d="M382.67,143.22c-8,1.54-16.41,3.93-24.97,7.15c-19.36-12.76-42.5-20.2-67.47-20.2
		c-68.03,0-123.02,55.13-123.02,123.02c0,16.41,3.23,31.98,8.98,46.29c-7.01,5.19-13.75,9.26-20.62,12.48
		c5.05-6.03,9.4-17.53,3.65-20.62c-3.93-2.1-21.88-2.95-21.88-2.95s20.34-13.61,19.78-23.57c-0.42-9.82-32.82-14.87-45.59-17.81
		c11.36-2.38,47.83-10.66,49.52-17.96c1.54-7.29-11.5-12.62-16.83-15.15c6.17,0.14,21.6,2.67,23.71-4.91
		c2.38-8.7-35.91-31.28-44.61-34.51c1.96,0.42,38.44,8.98,51.76,6.03c9.96-2.1-1.68-15.43-3.51-17.11
		c2.95,1.4,19.64,4.91,24.41-3.09c4.77-8-11.5-39.56-20.48-52.88c8,8,44.89,34.23,50.36,29.74c5.47-4.49,1.26-18.8-1.68-23.57
		c5.89,5.61,11.78,13.05,19.36,12.76c3.79-0.14,8.56-12.62,9.26-40.82c5.05,15.85,17.25,37.31,26.23,36.05
		c8.98-1.26,12.06-14.59,13.33-20.34c0.98,6.03,5.75,21.74,11.78,22.3c7.29,1.12,21.32-31.56,26.51-46.29
		c0.84,7.29-4.63,44.75,3.37,47.83c7.86,3.09,21.04-12.62,28.34-21.46c-4.49,8.56-13.33,29.18-8,34.09
		c5.19,4.91,23.29-0.28,30.44-6.03C382.53,136.49,382.11,139.99,382.67,143.22"/>
	<path id="XMLID_10_" class="st3" d="M433.59,160.05c-4.77,1.96-9.12,3.09-16.13,4.91c-3.23,0.98-7.86,2.52-7.86,2.52v-0.14
		c-8,2.67-21.46,8-25.67,14.31c0.14-0.42,2.95-5.89,5.19-9.12c1.82-2.81,6.03-8.28,12.2-10.94c8.56-3.79,14.17-3.23,18.24-3.23
		c3.93,0,13.19-0.28,16.97-1.26c3.79-0.84,5.33-2.1,5.61-1.54C442.14,156.27,440.04,157.39,433.59,160.05L433.59,160.05z
		 M479.18,142.66c-9.4,0.98-28.2,7.72-28.2,7.72c-34.37-8.98-75.05-9.96-125.12,20.48c-9.4,5.75-17.81,11.5-25.81,17.53
		c-7.86,6.03-15.15,12.06-21.88,18.24c-2.95,2.67-6.73,6.03-9.82,9.26c-16.27,5.47-23.43,0.42-45.73,3.23
		c-17.67,2.38-24.55,8.28-28.34,13.05c-0.56,1.4-0.42,2.52,0.42,3.23c2.1,1.68,5.33,0.84,11.5,0.42c6.17-0.42,15.57-0.28,21.74,3.51
		c3.93,2.52,5.75,8.42,6.45,11.78c-4.63,4.91-9.12,9.68-13.75,14.17c-28.2,27.91-47.13,44.47-68.31,52.74
		c-46.01,17.96-71.96-3.09-82.34-9.4l0,0c-12.62-8.14-29.32-10.8-38.29-12.48c-8.98-1.68-13.89-6.03-15.85-7.72
		c-1.96-1.68-3.37-4.35-5.61-3.79c-0.56,0.14-0.98,0.28-1.4,0.7c0.28-0.28,0.84-0.56,1.4-0.7c0.28,3.93,13.33,36.33,54.85,42.22
		c11.92,1.68,15.57,1.12,17.81,0.98c-7.01-6.17-12.76-14.73-13.19-15.15c1.54,1.4,3.23,2.67,4.77,3.93
		c12.34,13.19,26.51,18.66,38.29,20.62c0.84,0.28,12.48,0.7,12.48,0.7c13.61-0.28,31.84-4.35,48.82-9.26
		c49.8-14.45,97.77-57.51,97.77-57.51s-2.67,11.64-3.65,15.71c-0.7,3.23-3.09,14.17-7.72,25.53c0,0-1.4,3.51-3.37,7.72
		c-2.95,6.17-7.15,14.03-7.15,17.39v0.42c0,0,0,0.42,0.14,0.84c3.79-1.96,8.84-5.47,14.59-10.24c9.12-7.57,20.48-19.08,33.81-35.49
		c29.88-36.89,34.65-62,55.55-81.64c8.84-8.28,32.26-21.18,44.19-25.39l0.28-0.14l0,0l0,0c20.2-11.5,39.98-20.48,43.2-21.74
		c11.78-4.77,53.44-18.52,57.79-11.64l0,0C497.97,144.9,488.43,141.82,479.18,142.66"/>
	<path id="XMLID_11_" class="st1" d="M268.2,287.42c-0.7,3.23-3.09,14.17-7.72,25.53c-16.27,8.7-42.22,19.64-65.79,25.25
		c-46.29,10.8-76.03,1.4-81.08-0.28l-0.7-0.28c1.12,0.28,12.34,0.7,12.34,0.7c2.38,0,34.09,1.26,68.73-11.78
		C222.47,316.32,250.39,299.34,268.2,287.42"/>
	<path id="XMLID_12_" class="st0" d="M271.85,271.71c0,0-2.67,11.64-3.65,15.71c-17.81,12.06-45.73,28.9-74.06,39.28
		c-34.65,13.05-66.35,11.78-68.73,11.78c13.61-0.28,31.84-4.35,48.82-9.26C223.88,314.77,271.85,271.71,271.85,271.71"/>
	<path id="XMLID_13_" class="st0" d="M270.87,271.43c0,0-0.7,2.95-1.4,6.31c-0.84,3.37-1.68,7.29-2.24,9.4l0.98,0.28l-0.56-0.84
		c-17.81,11.92-45.59,28.9-73.92,39.14l0,0l0,0c-28.48,10.66-54.99,11.78-64.67,11.78c-1.96,0-3.23,0-3.79,0v0.98v0.98
		c13.75-0.28,32.12-4.35,49.1-9.26c50.08-14.59,98.05-57.79,98.19-57.79l-1.4-1.54c0,0-0.14,0.14-0.56,0.42
		c-5.33,4.77-50.5,43.48-96.79,56.81c-16.83,4.91-35.07,8.84-48.53,9.12v2.1c0.42,0,1.68,0,3.79,0c9.82,0,36.47-0.98,65.37-11.78
		l0,0c28.48-10.38,56.39-27.35,74.35-39.42l0.28-0.28l0.14-0.42c0.98-4.21,3.65-15.71,3.65-15.71L270.87,271.43L270.87,271.43z"/>
	<path id="XMLID_14_" class="st3" d="M389.96,251.37c-3.51,10.94-8.98,25.81-15.57,38.44c-7.86,15.01-18.24,25.25-23.85,29.32
		c-0.84-0.56-1.26-1.68-1.26-2.95c0-2.1,4.63-13.19,6.45-36.33c5.89-4.49,11.22-8.7,15.99-12.62
		C377.76,262.17,383.79,256.84,389.96,251.37"/>
	<path id="XMLID_15_" class="st0" d="M116.29,303.27c0,1.4-0.14,2.95-0.56,4.49c-0.7,2.67-2.1,5.75-4.35,8.98
		c-1.4,1.96-3.51,4.49-3.65,4.49c-0.42,0-2.1,0.14-3.51,0c-1.4-0.14-2.95-0.42-3.65-0.56l0,0c-0.42-0.56,18.66-13.47,13.47-19.78
		C114.46,300.89,116.29,300.47,116.29,303.27"/>
	<path id="XMLID_16_" class="st0" d="M115.31,303.27c0,1.4-0.14,2.81-0.56,4.21l0.98,0.28l-0.98-0.28c-0.7,2.52-1.96,5.61-4.21,8.7
		c-0.7,0.98-1.54,2.1-2.24,2.95c-0.42,0.42-0.7,0.84-0.84,1.12l-0.28,0.28l-0.14,0.14l0,0l0,0l0.7,0.7l-0.7-0.7l0,0l0.7,0.7
		l-0.7-0.7l0.7,0.7v-0.98c-0.14,0-0.7,0-1.4,0c-0.56,0-1.26,0-1.96-0.14c-1.4-0.14-2.95-0.42-3.51-0.56l-0.14,0.98h0.98l0,0v-0.28
		l-0.14-0.28l-0.84,0.56h0.98c0-0.14,0-0.42-0.14-0.56l-0.84,0.56h0.98h-0.84l0.7,0.56c0,0,0.14-0.14,0.14-0.56h-0.84l0.7,0.56
		l-0.14-0.14l0.14,0.14l0,0l-0.14-0.14l0.14,0.14c0,0,0.42-0.42,0.84-0.7c1.68-1.4,5.05-4.07,8-7.15c1.54-1.54,2.95-3.23,3.93-4.77
		c0.98-1.68,1.82-3.37,1.82-5.05c0-1.12-0.42-2.24-1.12-3.23l-0.84,0.7l0.14,0.98h0.28l0.28,0.14
		C115.02,302.15,115.31,302.43,115.31,303.27h2.1c0-1.12-0.42-2.1-0.98-2.67s-1.26-0.7-1.82-0.7c-0.28,0-0.56,0-0.56,0l-1.82,0.28
		l1.12,1.4c0.42,0.56,0.7,1.12,0.7,1.82c0,1.26-0.7,2.95-2.1,4.77c-1.96,2.67-4.91,5.47-7.43,7.72c-1.26,1.12-2.38,1.96-3.23,2.67
		c-0.42,0.42-0.7,0.7-0.98,0.84l-0.28,0.42l-0.14,0.28c0,0.14-0.14,0.28-0.14,0.56c0,0.14,0,0.42,0.14,0.56l0.84-0.56h-0.98l0,0
		v0.84l0.84,0.14c0.7,0.14,2.24,0.42,3.79,0.56c0.7,0.14,1.54,0.14,2.1,0.14c0.7,0,1.26,0,1.54,0h0.42l0.28-0.28l0,0
		c0.14-0.14,2.24-2.67,3.65-4.63c2.24-3.37,3.65-6.59,4.49-9.26l0,0l0,0c0.42-1.54,0.56-3.23,0.56-4.77L115.31,303.27L115.31,303.27
		z"/>
	<path id="XMLID_17_" class="st0" d="M497.27,161.03L497.27,161.03c0,0-0.84,1.12-3.37,3.37c-2.52,2.24-6.87,5.61-14.03,9.96
		c-6.87,4.21-25.95,17.11-40.68,30.72c-0.56,0.56-39.84,37.59-40.82,38.44c-0.14,0.28-5.19,19.36-17.39,44.05
		c-8.56,17.25-21.32,28.05-25.81,30.58c-0.28,0.14-2.95,1.82-4.63,0.7c5.47-3.93,15.85-14.31,23.85-29.32
		c6.59-12.62,12.06-27.49,15.57-38.44c-6.17,5.47-12.2,10.94-18.24,15.85c-4.77,3.93-9.96,8.14-15.99,12.62
		c0,0-12.76,9.4-19.92,14.17l0,0c-4.07,2.67-22.44,14.17-33.67,20.34c-9.54,5.19-29.46,14.59-29.46,14.59l0,0
		c-10.38,8.7-18.52,12.91-20.62,12.34c-1.26-0.28-1.82-1.96-1.82-1.96c3.79-1.96,8.84-5.47,14.59-10.24
		c9.12-7.57,20.48-19.08,33.81-35.49c29.88-36.89,34.65-62,55.55-81.64c8.84-8.28,32.26-21.18,44.19-25.39l0.28-0.14
		c-13.75,7.86-27.63,16.83-36.61,25.39c-17.53,16.41-23.57,35.49-40.96,61.72l-0.42,0.7c58.49-44.33,103.8-95.81,150.51-112.22
		c1.54-0.56,2.95-0.98,4.21-1.4h0.14c15.85-5.33,22.3-6.17,22.86-3.23C498.81,158.51,497.69,160.33,497.27,161.03"/>
	<path id="XMLID_18_" class="st0" d="M496.57,160.47L496.57,160.47L496.57,160.47L496.57,160.47l0.14,0.28L496.57,160.47
		L496.57,160.47l0.14,0.28L496.57,160.47c-0.14,0.14-0.84,1.26-3.23,3.23c-2.52,2.24-6.87,5.47-13.89,9.96
		c-6.87,4.21-26.09,17.25-40.82,30.86c-0.28,0.28-10.24,9.68-20.2,19.08c-9.96,9.4-20.06,18.94-20.62,19.36l-0.14,0.14l-0.14,0.28
		l-0.14,0.28c-0.7,2.38-5.89,20.48-17.25,43.48c-4.21,8.56-9.4,15.43-14.17,20.62c-4.77,5.05-8.98,8.42-11.08,9.54l0.56,0.84
		l-0.42-0.98c-0.14,0-0.14,0.14-0.42,0.28c-0.56,0.28-1.54,0.7-2.38,0.7c-0.42,0-0.56-0.14-0.84-0.28l-0.56,0.84l0.56,0.84
		c5.61-4.07,16.13-14.45,24.13-29.6c6.73-12.62,12.06-27.63,15.71-38.58l1.12-3.65l-2.81,2.52c-6.17,5.47-12.2,10.8-18.24,15.85
		c-4.63,3.93-9.96,8.14-15.85,12.62l-0.42,0.28v0.56h0.98l-0.84-0.56c0,0.14-0.14,0.14-0.14,0.56h0.98l-0.84-0.56l0.84,0.56
		l-0.7-0.7l-0.14,0.14l0.84,0.56l-0.7-0.7l0.7,0.7l-0.56-0.7l-0.14,0.14l0.7,0.7l-0.56-0.7v0.14V279l0,0v0.14V279
		c-0.56,0.42-12.91,9.4-19.78,14.03l-0.14,0.14l-0.14,0.14l0.7,0.7l-0.56-0.84c-3.93,2.67-22.44,14.17-33.67,20.2
		c-4.77,2.52-12.06,6.17-18.24,9.26c-3.09,1.54-5.89,2.81-7.86,3.79c-0.98,0.42-1.82,0.84-2.38,1.12c-0.28,0.14-0.56,0.28-0.7,0.28
		l-0.14,0.14l0,0l0,0l0.42,0.98v-0.98l0,0h-0.42l-0.28,0.28c-4.77,4.07-9.12,7.15-12.62,9.12c-1.68,0.98-3.23,1.82-4.35,2.24
		c-1.12,0.56-2.1,0.7-2.52,0.7h-0.14c-0.28-0.14-0.56-0.28-0.84-0.7l-0.28-0.42v-0.14v-0.14l-0.98,0.42l0.42,0.98
		c3.79-2.1,8.98-5.47,14.73-10.38l0,0c9.12-7.57,20.62-19.22,33.95-35.63c15.01-18.52,23.71-34.09,31.28-47.41
		c7.57-13.33,13.89-24.41,24.27-34.09c4.35-4.07,12.34-9.4,20.76-14.03c8.42-4.77,17.25-8.98,23.15-11.08l0,0l0.28-0.14l-0.42-0.98
		l-0.56-0.84c-13.75,7.86-27.63,16.83-36.75,25.67l0.7,0.7l-0.7-0.7c-8.84,8.28-14.87,17.25-20.76,27.35
		c-5.89,10.1-11.64,21.46-20.34,34.51l0,0l-0.42,0.7l1.54,1.4c29.32-22.3,55.27-46.15,79.68-66.63
		c24.41-20.48,47.41-37.31,70.56-45.45c1.54-0.56,2.95-0.98,4.21-1.4h0.14l0,0c9.82-3.37,16.13-4.91,19.22-4.91
		c0.98,0,1.54,0.14,1.82,0.28c0.28,0.14,0.28,0.28,0.42,0.56l0,0l0,0v0.14c0,0.42-0.14,0.98-0.42,1.68c-0.28,0.56-0.56,1.12-0.7,1.4
		l1.82,0.98c0.14-0.28,0.56-0.98,0.84-1.68c0.28-0.7,0.56-1.54,0.56-2.38v-0.56l0,0c-0.14-0.84-0.7-1.68-1.4-2.1
		c-0.84-0.42-1.68-0.56-2.81-0.56c-3.65,0-9.96,1.68-19.92,5.05h-0.14l0,0c-1.4,0.42-2.81,0.98-4.21,1.54
		c-23.57,8.28-46.71,25.39-71.12,45.87c-24.55,20.48-50.36,44.47-79.68,66.63l0.56,0.84l0.84,0.56l0.42-0.7l-0.84-0.56l0.84,0.56
		c8.7-13.19,14.59-24.55,20.48-34.51c5.89-10.1,11.64-18.8,20.34-26.93l0,0l0,0c8.98-8.56,22.72-17.53,36.47-25.25l-0.98-1.82
		l-0.28,0.14l0.42,0.98l-0.28-0.98c-6.03,2.1-14.87,6.45-23.43,11.22c-8.56,4.77-16.55,10.1-21.18,14.31
		c-10.66,9.96-17.11,21.32-24.69,34.65c-7.57,13.33-16.13,28.76-31,47.13c-13.19,16.41-24.69,27.77-33.67,35.35l0,0
		c-5.75,4.91-10.8,8.28-14.45,10.24l-0.84,0.42l0.28,0.84l0,0c0,0.14,0.28,0.7,0.56,1.26c0.42,0.56,0.98,1.12,1.96,1.4
		c0.28,0,0.42,0.14,0.7,0.14c0.98,0,1.96-0.28,3.37-0.84c3.93-1.68,10.24-5.47,17.53-11.78l-0.7-0.84v0.98l0,0h0.28l0.28-0.14
		l-0.42-0.84l0.42,0.84l0,0l-0.42-0.84l0.42,0.84c0.14-0.14,20.06-9.54,29.46-14.73c11.22-6.17,29.74-17.67,33.81-20.34l0.14-0.14
		l0.14-0.14l-0.7-0.7l0.56,0.84c3.65-2.38,8.56-5.89,12.62-8.84c2.1-1.4,3.93-2.81,5.19-3.79c0.7-0.42,1.12-0.84,1.54-1.12
		l0.42-0.28l0.14-0.14l0,0l0,0l0,0l0.14-0.14l0.14-0.14c0-0.14,0.14-0.14,0.14-0.56h-0.98l0.56,0.84
		c5.89-4.49,11.22-8.7,15.99-12.62c6.03-5.05,12.2-10.38,18.24-15.85l-0.7-0.7l-0.98-0.28c-3.51,10.8-8.98,25.67-15.57,38.29
		c-7.86,14.87-18.1,25.11-23.43,28.9l-1.26,0.84l1.26,0.84c0.7,0.42,1.4,0.56,1.96,0.56c0.98,0,1.82-0.28,2.52-0.56
		c0.28-0.14,0.56-0.28,0.84-0.42l0.28-0.14h0.14l0,0l0,0l0,0c2.38-1.4,6.73-4.63,11.64-9.96c4.91-5.19,10.24-12.34,14.59-21.04
		c6.17-12.34,10.38-23.29,13.33-31.28c1.4-3.93,2.38-7.15,3.09-9.4c0.28-1.12,0.56-1.96,0.84-2.52c0.14-0.28,0.14-0.56,0.14-0.7
		v-0.14l0,0l0,0l-0.42-0.14l0.42,0.14l0,0l-0.42-0.14l0.42,0.14l-0.98-0.28l0.7,0.7c0.56-0.42,10.52-9.96,20.62-19.36
		c9.96-9.4,19.92-18.8,20.2-19.08c14.59-13.47,33.67-26.51,40.54-30.58c7.15-4.49,11.64-7.86,14.17-10.1
		c2.67-2.24,3.51-3.51,3.51-3.51l-0.84-0.56l0.7,0.7l0,0L496.57,160.47L496.57,160.47z"/>
	<path id="XMLID_19_" class="st3" d="M100.72,320.67L100.72,320.67c-11.78-2.24-25.67-10.24-29.88-12.76
		c1.4-1.4,5.05-4.07,11.92-3.65c9.4,0.56,19.78,1.4,24.69-0.14c4.21-1.26,5.05-3.09,6.73-3.37l0,0
		C119.37,307.2,100.3,320.11,100.72,320.67"/>
	<path id="XMLID_20_" class="st0" d="M222.61,219.25c22.3-2.95,29.46,2.1,45.73-3.23c3.23-3.23,7.01-6.59,9.82-9.26
		c-4.63,1.54-8.14,2.38-11.5,2.95c-7.57,1.54-13.05,1.12-28.9,3.23c-24.83,3.23-36.33,11.08-39.56,14.03
		c-0.98,0.84-1.68,1.68-2.81,3.09c-0.7,0.98-1.26,2.1-1.26,2.38C198.21,227.52,205.08,221.49,222.61,219.25"/>
	<path id="XMLID_21_" class="st0" d="M222.76,220.23c5.89-0.7,10.66-0.98,14.73-0.98c5.33,0,9.82,0.42,14.17,0.42
		c5.19,0,10.38-0.56,16.97-2.67l0.28-0.14l0.14-0.14c3.23-3.23,6.87-6.59,9.82-9.26l-0.98-1.68c-4.63,1.4-8,2.38-11.36,2.95l0,0l0,0
		c-7.43,1.54-13.05,1.12-28.76,3.23c-24.97,3.23-36.75,11.08-40.12,14.31c-0.98,0.98-1.82,1.82-2.95,3.23
		c-0.84,1.12-1.26,2.24-1.4,2.67l1.82,0.98c1.82-2.24,4.49-4.91,8.7-7.15C208.03,223.46,214.06,221.35,222.76,220.23l-0.28-2.1
		c-8.98,1.12-15.15,3.23-19.78,5.75c-4.49,2.52-7.29,5.33-9.4,7.72l0.84,0.7l0.98,0.42c0-0.14,0.56-1.26,1.12-2.1
		c0.98-1.4,1.68-2.1,2.67-2.95c3.09-2.81,14.45-10.52,39-13.75c15.71-2.1,21.18-1.68,28.9-3.23l-0.14-0.98l0.14,0.98
		c3.37-0.56,7.01-1.54,11.64-2.95l-0.28-0.98l-0.7-0.7c-2.95,2.67-6.73,6.03-9.96,9.26l0.7,0.7l-0.28-0.98
		c-6.31,2.1-11.22,2.52-16.27,2.67c-4.35,0-8.7-0.42-14.17-0.42c-4.21,0-9.12,0.28-15.01,0.98L222.76,220.23L222.76,220.23z"/>
	<g id="XMLID_24_">
		<g>
			<defs>
				<rect id="SVGID_1_" y="58.21" width="512" height="395.57"/>
			</defs>
			<clipPath id="SVGID_00000096035778782729475460000006037781433748852361_">
				<use xlink:href="#SVGID_1_"  style="overflow:visible;"/>
			</clipPath>
			<path id="XMLID_25_" style="clip-path:url(#SVGID_00000096035778782729475460000006037781433748852361_);fill:#005778;" d="
				M258.81,321.93c-2.95,6.17-7.15,14.03-7.15,17.39v0.42c-37.73,14.73-68.59,14.03-68.59,14.03c-51.9,2.52-92.72-18.66-92.72-18.66
				l0,0c-0.14,0-0.42,0-0.84,0c-4.91,0-29.04-0.42-44.75-7.72c-17.25-8-27.21-20.62-31.56-30.16c-3.23-7.01-3.37-9.26-2.38-10.24
				l0.28-0.28l0,0c0.28-0.14,0.7-0.28,1.12-0.42c0.28,3.93,13.33,36.33,54.85,42.22c11.92,1.68,15.57,1.12,17.81,0.98
				c-7.01-6.17-12.76-14.73-13.19-15.15c1.54,1.4,3.23,2.67,4.77,3.93c12.34,13.19,26.51,18.66,38.29,20.62l0,0l0,0l0,0l0.7,0.28
				c5.05,1.68,34.79,11.08,81.08,0.28c23.57-5.47,49.52-16.55,65.79-25.25C262.17,314.21,260.91,317.72,258.81,321.93"/>
		</g>
		<g>
			<defs>
				<rect id="SVGID_00000042006587700721903820000005363959708683623338_" y="58.21" width="512" height="395.57"/>
			</defs>
			<clipPath id="SVGID_00000077306526938530408520000003934401989148723880_">
				<use xlink:href="#SVGID_00000042006587700721903820000005363959708683623338_"  style="overflow:visible;"/>
			</clipPath>
			<path id="XMLID_26_" style="clip-path:url(#SVGID_00000077306526938530408520000003934401989148723880_);fill:#005778;" d="
				M257.96,321.51c-1.4,3.09-3.23,6.59-4.63,9.82c-0.7,1.54-1.4,3.09-1.82,4.49s-0.7,2.52-0.7,3.51l0,0v0.42h0.98l-0.42-0.98
				c-34.51,13.47-63.12,14.03-67.61,14.03c-0.42,0-0.56,0-0.56,0h-0.14c0,0,0,0-0.28,0l0.42,0.98v-0.98
				c-2.81,0.14-5.61,0.14-8.42,0.14c-23.85,0-44.75-4.63-59.76-9.4c-7.57-2.38-13.61-4.63-17.67-6.45c-2.1-0.84-3.65-1.54-4.77-2.1
				c-0.56-0.28-0.98-0.42-1.26-0.56c-0.28-0.14-0.42-0.14-0.42-0.14l-0.42,0.98l0.7-0.7l0,0l-0.28-0.28h-0.42c-0.14,0-0.42,0-0.84,0
				c-2.38,0-9.68-0.14-18.24-1.12c-8.56-0.98-18.52-2.95-26.23-6.59c-17.11-7.86-26.93-20.34-31.14-29.6
				c-2.1-4.63-2.81-7.15-2.81-8.28c0-0.56,0.14-0.7,0.28-0.84l-0.7-0.7l0.56,0.84l0.28-0.28l0,0l0,0l-0.7-0.7l0.56,0.84
				c0.14-0.14,0.42-0.28,0.84-0.28l-0.28-0.98l-0.98,0.14c0,0.7,0.28,1.68,0.84,2.95c1.68,4.63,6.17,13.33,15.01,21.6
				c8.7,8.28,21.6,15.99,39.98,18.66c6.73,0.98,10.94,1.26,13.75,1.26c2.1,0,3.37-0.14,4.35-0.28l2.52-0.14l-1.82-1.68
				c-3.37-2.95-6.59-6.59-8.98-9.54c-1.12-1.4-2.1-2.81-2.81-3.79c-0.42-0.42-0.7-0.84-0.84-1.12l-0.28-0.42l-0.28-0.28l-0.7,0.7
				l-0.7,0.84c1.54,1.4,3.23,2.67,4.77,3.93l0.7-0.84l-0.7,0.7c12.48,13.47,26.93,18.94,38.86,20.9l0.14-0.98l-0.28,0.98l0,0h0.14
				h0.14v-0.98l-0.28,0.98l0,0l0.7,0.14l0,0c3.37,1.12,16.97,5.47,38.72,5.47c11.92,0,26.37-1.26,42.92-5.19
				c23.71-5.61,49.66-16.69,66.07-25.25l-0.42-0.98h-0.98h0.98l-0.98-0.28c0,0,0,0,0,0.28h0.98l-0.98-0.28l0.98,0.28l-0.98-0.28
				v0.14l0.98,0.28l-0.98-0.28l0.7,0.28l-0.7-0.28l0,0l0.7,0.28l-0.7-0.28C261.19,314.07,259.79,317.44,257.96,321.51l1.82,0.84
				c0.98-2.1,1.82-4.07,2.38-5.47c0.28-0.7,0.56-1.26,0.7-1.68c0.14-0.14,0.14-0.28,0.14-0.42v-0.14l0,0l0,0l0,0l0,0l0,0
				c0,0,0,0,0-0.28v-1.68l-1.54,0.84c-16.13,8.56-42.08,19.64-65.51,25.11c-16.41,3.79-30.58,5.19-42.36,5.19
				c-21.46,0-34.79-4.21-38.01-5.33l0,0l-0.7-0.28l0,0l0,0h-0.14h-0.14v0.98l0.28-0.98l0,0l0,0l0,0
				c-11.64-1.96-25.53-7.29-37.73-20.34l0,0l0,0c-1.54-1.26-3.09-2.52-4.77-3.93l-1.4,1.54l0,0c0.14,0.14,0.7,0.84,1.4,1.96
				c2.24,3.09,6.73,8.84,11.92,13.33l0.7-0.84l-0.14-0.98c-0.98,0.14-2.1,0.14-4.21,0.14c-2.67,0-6.73-0.28-13.47-1.12
				c-20.48-2.95-33.95-12.34-42.22-21.6c-4.21-4.63-7.15-9.12-8.98-12.76c-0.98-1.82-1.68-3.37-2.1-4.63
				c-0.42-1.26-0.7-2.1-0.7-2.38l-0.14-1.26l-1.26,0.28c-0.42,0.14-0.98,0.28-1.4,0.56h-0.14l0,0l-0.28,0.14l0,0l0,0
				c-0.56,0.56-0.98,1.4-0.84,2.38c0,1.82,0.84,4.35,2.95,9.12c4.49,9.68,14.59,22.44,32.12,30.58c8.14,3.79,18.1,5.75,26.79,6.73
				c8.7,0.98,15.99,1.12,18.38,1.12c0.42,0,0.7,0,0.84,0v-0.98l-0.7,0.7l0,0l0.14,0.14l0.14,0.14c0.14,0,36.75,18.94,84.73,18.94
				c2.81,0,5.61,0,8.56-0.14h0.14h0.14l-0.42-0.98l0.14,0.98c0,0,0,0,0.28,0l-0.42-0.98l0.14,0.98l-0.14-0.98v0.98h0.14l-0.14-0.98
				v0.98c0,0,0.28,0,0.56,0c4.63,0,33.53-0.56,68.45-14.17l0.7-0.28l-0.14-1.12h-0.98h0.98c0-0.56,0.28-1.68,0.7-2.95
				c1.26-3.79,4.07-9.26,6.31-14.03L257.96,321.51L257.96,321.51z"/>
		</g>
		<g>
			<path id="XMLID_32_" class="st1" d="M501.48,154.16c-4.35-6.87-46.01,7.01-57.79,11.64c-3.23,1.26-23,10.24-43.2,21.74
				c-13.75,7.86-27.63,16.83-36.61,25.39c-17.53,16.41-23.57,35.49-40.96,61.72l-0.42,0.7c58.49-44.33,103.8-95.81,150.51-112.22
				c1.54-0.56,2.95-0.98,4.21-1.4h0.14c15.85-5.33,22.3-6.17,22.86-3.23c0.14,1.26-0.84,3.23-1.26,3.93c0,0-0.7,1.12-3.37,3.37
				c-2.52,2.24-6.87,5.61-14.03,9.96c-6.87,4.21-25.95,17.11-40.68,30.72c-0.56,0.56-39.84,37.59-40.82,38.44
				c-0.14,0.28-5.19,19.36-17.39,44.05c-8.56,17.25-21.32,28.05-25.81,30.58c-0.28,0.14-2.95,1.82-4.63,0.7
				c-0.84-0.56-1.26-1.68-1.26-2.95c0-2.1,4.63-13.19,6.45-36.33c0,0-12.76,9.4-19.92,14.17c-4.07,2.67-22.44,14.17-33.67,20.34
				c-9.54,5.19-29.46,14.59-29.46,14.59c-10.38,8.7-18.52,12.91-20.62,12.34c-1.26-0.28-1.82-1.96-1.82-1.96
				c-0.14-0.42-0.14-0.84-0.14-0.84c-37.73,14.73-68.59,14.03-68.59,14.03c-51.9,2.52-92.72-18.66-92.72-18.66
				c-0.14,0-0.42,0-0.84,0c-4.91,0-29.04-0.42-44.89-7.72c-17.25-8-27.21-20.62-31.56-30.16c-3.23-7.01-3.37-9.26-2.38-10.24
				c0.28-0.28,0.84-0.56,1.4-0.7c2.24-0.56,3.65,2.1,5.61,3.79c1.96,1.68,6.87,6.03,15.85,7.72c8.98,1.68,25.67,4.35,38.29,12.48
				c10.38,6.31,36.33,27.35,82.34,9.4c21.18-8.28,40.12-24.97,68.31-52.74c4.63-4.49,9.12-9.26,13.75-14.17
				c-0.7-3.37-2.52-9.26-6.45-11.78c-6.17-3.79-15.57-4.07-21.74-3.51c-6.17,0.42-9.4,1.26-11.5-0.42c-0.7-0.56-0.84-1.54-0.7-2.52
				c0.14-0.98,0.56-1.82,1.12-2.52c0.14-0.14,0.28-0.42,0.42-0.56c0.98-1.4,1.82-2.24,2.81-3.09c3.23-2.95,14.87-10.8,39.56-14.03
				c15.71-2.1,21.32-1.68,28.9-3.23c3.37-0.56,6.87-1.4,11.5-2.95c6.73-6.17,14.03-12.2,21.88-18.24s16.41-11.92,25.81-17.53
				c49.94-30.44,90.76-29.46,125.12-20.48c0,0,18.8-6.73,28.2-7.72C490.26,143.08,499.66,146.17,501.48,154.16L501.48,154.16z
				 M467.11,248.57c-15.99,2.1-43.77,13.75-38.58,19.92c5.33,6.17,20.76,14.73,23,15.85c-7.29,0-31.56,2.52-34.23,9.4
				c-2.67,6.87,35.07,29.88,48.82,35.21c-17.11-4.77-58.21-12.91-60.88-7.43c-2.67,5.47,4.35,22.58,10.8,27.63
				c-4.77-1.4-29.46-8.42-33.53,0.7c-4.35,10.1,19.78,46.99,22.58,53.87c-11.08-11.08-41.66-35.91-46.01-32.96
				c-4.35,2.81-3.23,16.69-2.1,23.71c-4.21-5.05-11.36-13.33-17.67-10.8c-6.17,2.38-5.47,26.23-5.89,36.33
				c-5.19-11.92-13.47-35.91-21.32-34.93c-7.72,0.84-16.41,17.11-18.1,23.43c-1.12-6.17-6.31-19.92-13.89-19.92
				c-7.57,0-25.53,36.33-30.86,48.11c0-9.12,2.1-53.58-2.67-55.83c-4.77-2.24-21.18,8-24.69,12.62c1.26-5.89,2.38-25.67-1.96-28.05
				c-4.35-2.38-16.83-3.09-39.28,17.67c3.79-8,9.82-16.69,11.36-24.97c9.26-0.42,18.52-1.54,27.77-3.37
				c20.2,14.59,45.17,23.29,72.1,23.29c68.03,0,123.02-55.13,123.02-123.02c0-5.33-0.28-10.52-0.98-15.71
				c4.63-4.35,8.98-8.42,13.05-12.34c-0.98,2.24-1.4,4.91-1.4,8.28C425.87,245.2,452.8,247.44,467.11,248.57L467.11,248.57z
				 M84.44,305.66c9.4,0.56,19.78,1.4,24.69-0.14c4.21-1.26,5.05-3.09,6.73-3.37l0,0c0.28,0,2.1-0.42,2.1,2.24
				c0,1.4-0.14,2.95-0.56,4.49c-0.7,2.67-2.1,5.75-4.35,8.98c-1.4,1.96-3.51,4.49-3.65,4.49c-0.42,0-2.1,0.14-3.51,0
				c-1.4-0.14-2.95-0.42-3.65-0.56c-11.78-2.24-25.67-10.24-29.88-12.76C74.06,307.76,77.57,305.24,84.44,305.66L84.44,305.66z
				 M161.03,292.75c-3.93-2.1-21.88-2.95-21.88-2.95s20.34-13.61,19.78-23.57c-0.42-9.82-32.82-14.87-45.59-17.81
				c11.36-2.38,47.83-10.66,49.52-17.96c1.54-7.29-11.5-12.62-16.83-15.15c6.17,0.14,21.6,2.67,23.71-4.91
				c2.38-8.7-35.91-31.28-44.61-34.51c1.96,0.42,38.44,8.98,51.76,6.03c9.96-2.1-1.68-15.43-3.51-17.11
				c2.95,1.4,19.64,4.91,24.41-3.09s-11.5-39.56-20.48-52.88c8,8,44.89,34.23,50.36,29.74c5.47-4.49,1.26-18.8-1.68-23.57
				c5.89,5.61,11.78,13.05,19.36,12.76c3.79-0.14,8.56-12.62,9.26-40.82c5.05,15.85,17.25,37.31,26.23,36.05
				c8.98-1.26,12.06-14.59,13.33-20.34c0.98,6.03,5.75,21.74,11.78,22.3c7.29,1.12,21.32-31.56,26.51-46.29
				c0.84,7.29-4.63,44.75,3.37,47.83c7.86,3.09,21.04-12.62,28.34-21.46c-4.49,8.56-13.33,29.18-8,34.09
				c5.19,4.91,23.29-0.28,30.44-6.03c-1.96,4.35-2.38,7.86-1.82,11.08c-8,1.54-16.41,3.93-24.97,7.15
				c-19.36-12.76-42.5-20.2-67.47-20.2c-68.03,0-123.02,55.13-123.02,123.02c0,16.41,3.23,31.98,8.98,46.29
				c-7.01,5.19-13.75,9.26-20.62,12.48C162.3,307.34,166.65,295.84,161.03,292.75L161.03,292.75z M505.97,155.42
				c-0.14-1.82-0.42-2.95-0.42-2.95l0,0c-2.24-8-10.38-12.91-21.46-12.91c-1.12,0-2.38,0-3.51,0.14
				c-8.42,0.84-23.57,5.89-27.91,7.43c-14.03-3.51-27.21-5.33-40.12-5.33c-6.73,0-13.33,0.42-20.06,1.4l0,0l-2.81,0.42
				c0,0-1.12-3.51,1.68-11.64c1.4-4.21,3.37-8.14,3.37-8.14s-30.58,15.85-34.37,10.8c-3.79-5.05,13.33-45.31,13.33-45.31
				s-29.46,32.68-35.21,31.28c-2.24-0.56-2.52-12.34-2.67-25.11c-0.14-17.25,0.42-37.03,0.42-37.03s-24.27,60.32-30.16,59.9
				c-5.19-0.28-12.62-32.4-12.62-32.4s-4.63,27.77-13.05,31.14c-8.42,3.37-30.02-48.39-30.02-48.39s-0.98,51.9-7.01,53.02
				s-25.11-18.24-25.11-18.24s8.98,25.81,5.89,29.18c-1.82,1.96-20.2-9.4-39.42-23.15c-11.08-8-20.34-14.59-20.34-14.59
				s10.8,17.96,19.36,36.75c5.89,12.91,9.54,25.25,8,27.77c-3.79,5.89-32.26-2.52-32.26-2.52s16.13,15.57,15.15,19.64
				c-0.56,1.96-16.55,0.56-32.96-1.68c-17.39-2.38-34.93-5.61-34.93-5.61s57.79,33.53,55.97,39.56c-1.4,4.77-37.31,0.84-37.31,0.84
				s31.28,14.31,31.14,18.94c-0.14,4.91-61.16,20.34-61.16,20.34s55.27,11.5,56.39,17.67c1.12,6.17-21.74,25.95-21.74,25.95
				s26.65,2.38,27.91,5.89c1.26,3.51-6.45,17.25-13.19,19.5c-8.42,2.67-15.99,4.35-25.25,4.35c-1.26,0-2.67,0-3.93-0.14
				c0.42-0.56,0.84-1.26,1.26-1.82c2.24-3.37,3.93-6.87,4.91-10.24l0,0l0,0c0.42-1.82,0.7-3.79,0.7-5.47v-0.14v-0.14
				c0-2.1-0.7-3.79-1.96-5.05c-2.24-1.96-4.35-1.68-5.89-1.12l-5.19,2.52c-0.42,0.14-0.84,0.28-1.4,0.56
				c-0.98,0.28-3.09,0.7-7.57,0.7c-4.21,0-9.12-0.28-13.89-0.56c0,0-2.95-0.14-3.51-0.14c-5.75,0-9.54,1.82-11.78,3.51l-1.26-0.7
				c-11.64-6.17-25.25-8.7-33.81-10.24c-0.7-0.14-1.26-0.28-1.82-0.28c-9.4-1.82-14.59-7.43-15.01-7.86
				c-0.84-0.84-1.82-1.96-3.23-2.81c0,0-2.38-1.54-6.03-0.42c-2.38,0.84-3.37,2.67-3.37,2.67c-1.96,3.37-0.14,8.28,2.38,13.89
				c2.95,6.31,11.92,22.16,33.67,32.26c7.15,3.37,16.41,5.61,27.77,7.01c8.56,0.98,15.71,1.12,18.66,1.12
				c2.81,1.4,11.22,5.33,23.99,9.26c13.89,4.35,35.63,9.54,60.46,9.68c0,0,8.84,0.14,13.61-0.14c0.42,1.96-2.95,9.12-7.15,17.39
				c-4.91,9.82-11.22,21.6-11.22,21.6s11.36-10.1,22.02-17.53c10.66-7.57,22.58-13.61,25.53-10.1c5.33,6.59-0.42,33.67-0.42,33.67
				s21.6-19.08,26.65-16.55c2.24,1.12,2.52,15.43,2.52,30.44c0,17.81-0.42,36.75-0.42,36.75s29.74-60.18,35.91-58.49
				c6.17,1.68,12.91,29.18,12.91,29.18s11.36-33.39,18.24-32.54c2.81-0.28,8.7,10.52,13.89,21.6c5.75,12.2,10.66,23.99,10.66,23.99
				s0.14-12.34,0.98-25.11c0.84-11.5,2.24-22.58,4.77-23.29c5.33-1.26,20.62,19.36,20.62,19.36s-5.47-28.76-1.12-31.14
				c4.21-2.38,55.41,41.8,55.41,41.8s-33.67-62.28-29.46-67.05c4.07-4.77,39.98,4.91,39.98,4.91s-5.33-6.31-9.96-13.47
				c-4.77-7.43-8.7-15.85-6.87-17.81c1.68-1.82,20.48,0.14,39.7,3.79c22.3,4.35,36.75,7.43,36.75,7.43s-13.19-7.15-32.54-18.8
				c-16.83-10.1-31.56-21.46-30.86-23.29c1.4-3.93,41.38-7.72,41.38-7.72s-6.73-3.93-13.89-8.42c-7.86-4.77-16.27-10.8-16.27-12.91
				c0-1.96,10.1-6.59,23.29-10.66c15.85-4.91,30.58-8.14,30.58-8.14s-54.57-4.35-57.93-12.2c-2.38-5.33,1.96-12.2,5.05-16.69
				c3.09-4.49,7.57-8.56,7.57-8.56c14.87-13.75,33.95-26.51,39.98-30.16c0.42-0.28,0.84-0.56,1.26-0.84c0,0,14.03-10.38,15.43-11.5
				c1.26-1.12,4.49-4.35,5.19-8.7C505.69,158.37,505.97,157.25,505.97,155.42"/>
		</g>
	</g>
</g>
</svg>
