<?xml version="1.0" encoding="utf-8"?>
<!-- Generator: Adobe Illustrator 26.5.0, SVG Export Plug-In . SVG Version: 6.00 Build 0)  -->
<svg version="1.1" id="Layer_1" xmlns="http://www.w3.org/2000/svg" xmlns:xlink="http://www.w3.org/1999/xlink" x="0px" y="0px"
	 viewBox="0 0 512 512" style="enable-background:new 0 0 512 512;" xml:space="preserve">
<style type="text/css">
	.st0{fill:#5D2380;}
	.st1{fill:#EEC6A5;}
	.st2{fill:#EEBF1B;}
	.st3{fill:#FFFFFF;}
</style>
<g id="XMLID_1_">
	<path d="M425.56,288.61c1.02-5.56,4.1-11.56,1.46-17.56c2.93-1.61,6.15-3.22,9.36-4.83c0.29-3.66-1.02-14.63-13.17-22.39
		c0,0,12-6.15,2.78-12.88c-12-8.78-10.97-15.51-15.07-23.85c12.44-7.17,15.51-21.65,11.85-30.87c-3.8,6.58-8.78,12.14-15.66,13.17
		C373.04,101.18,286.27,78.95,234.77,81.87c0,0-1.61,12.73-4.39,17.85c-37.46-9.8-36.43-50.62-54.14-76.23
		C172,17.64,160.88,3.45,148.16,1.11c-2.49-0.29-3.37,1.46-3.22,2.49c26.48,17.85,29.26,48.28,31.75,77.55
		c2.19,24.58,17.7,38.63,33.65,50.62c-0.88,0.88-2.19,3.51-2.93,5.12c-20.78,5.85-45.8,2.49-63.06-9.07
		c-34.97-22.97-26.34-66.57-35.99-101.1c-2.93-8.93-7.46-21.22-16.68-26.04c-2.93-1.61-5.71,0.15-4.24,2.05
		c6.73,9.51,11.56,20.19,12.14,32.19c0.15,30.87-7.32,63.79,4.54,92.76c17.7,39.36,50.33,67.89,89.98,76.23
		c-1.32,13.9,0.15,25.9,2.49,39.07c-42.58,23.12-75.64,47.26-130.36,131.83c-1.61,3.37,0,6.73,4.54,2.34
		c53.55-49.75,141.92-74.47,197.52,8.49c26.63,42.14,24.29,71.69,22.68,99.35c0,9.66-5.85,22.97,2.78,26.63
		c9.22,3.95,18.58-19.46,18.58-22.82c2.05-2.05,3.07-6.29,3.22-9.22c1.9-1.46,2.93-8.19,2.49-11.7c5.56-6.58,10.53-23.12,4.39-32.77
		c2.05-5.56,2.34-19.9-1.17-27.65c1.9-8.34,3.95-27.51-3.07-36.14c9.95-11.27,23.12-20.48,36.14-26.04
		c3.22,24.58,8.05,56.04-13.46,72.86c-1.46,1.02-1.17,2.63,1.46,1.9c34.68-11.56,41.99-77.69,44.48-85.89
		c11.56-6,44.48-14.92,54.28-18.44c10.39-3.95,3.22-17.85-0.88-22.82C438.15,290.22,432.29,288.9,425.56,288.61z M420.3,233.6
		l0.44,3.8c-7.17,1.76-17.7,8.63-20.04,3.95c-2.05-4.1,7.32-4.83,8.93-6.88c0.88-1.17,0.15-3.07-2.05-3.51
		c-5.12,0.15-7.9,0.15-9.95,0.73c-4.39,3.66-3.95,12.44-2.05,15.36c-9.36,4.24-18.73,13.75-24,19.46
		c-2.49-12.14,6.58-20.92,15.51-27.21c2.05-1.9,0.88-14.19-0.88-20.48c-1.76-0.73-4.54,0-4.83-1.46c0-1.32,11.12-1.61,15.8-1.9
		c-1.17-7.75,8.05-9.07,10.83-4.54C411.52,218.53,409.03,232.28,420.3,233.6z M419.71,187.07c-0.59,5.85-4.54,11.12-9.8,14.19
		c-14.92,6.44-34.53-3.07-48.28,6.29c0.15-5.12,2.78-12.14,10.53-12.73C391.77,194.09,405.66,200.53,419.71,187.07z M399.23,189.56
		c-26.63-1.46-55.89,2.63-80.03,9.95c-3.66,37.46-47.84,51.5-73.74,22.82c0,0-9.8,2.19-39.5,15.66c-3.66-4.83-6.73-16.83-1.17-19.46
		c7.75-4.1,13.61-7.61,21.51-9.51c6.73-1.46,17.41,1.9,22.53,3.37c29.41,17.7,59.4,18.14,67.01-34.24c0,0,38.04-9.36,74.03-7.02
		C389.86,170.98,395.57,178.73,399.23,189.56z M202.44,212.09v-6.58l11.12,1.61C210.19,208.29,206.39,210.19,202.44,212.09z
		 M239.75,86.99c113.68,2.93,146.46,78.13,146.46,78.13c-21.8-1.9-49.75,2.19-71.84,6.88c-11.7-29.85-29.56-42.14-97.59-36.14
		C225.99,118.74,237.41,107.62,239.75,86.99z M110.11,341.14c-10.97,7.32-19.46,13.61-30.14,24.14c-1.02,0.73-1.46-0.44-0.44-1.76
		c64.67-96.57,141.92-127.58,160.65-132.41c3.66-0.73,3.37,1.32,1.9,2.19c-35.41,13.9-94.37,49.01-119.54,91.44
		C118.6,331.33,115.53,337.48,110.11,341.14z M158.84,326.51c-13.61,3.95-24.87,6.88-36.72,11.12c-1.02,0.44-2.78,0.29-2.19-1.17
		c27.65-50.04,78.72-80.03,127.73-101.39c1.46-0.73,2.49,0.88,1.32,1.46c-36.29,17.7-62.62,52.82-84.42,85.89
		C164.1,323.14,160.88,325.92,158.84,326.51z M172,325.33c-1.9-0.73-1.76-2.78-1.32-3.95c23.41-28.68,41.7-65.11,77.25-79.74
		c2.78-0.73,6.58-2.78,9.51-1.61c6.88,2.93,18.58,7.32,33.21,3.37c28.82-8.93,32.48-36.72,32.48-36.72
		c7.17-1.9,14.19-4.1,21.95-4.83c-8.34,48.28-75.5,68.18-78.13,118.66c-19.9,3.95-44.77-11.7-48.58-34.97
		c-4.97,9.95-11.56,21.65-23.26,31.75C188.54,322.26,178.73,327.38,172,325.33z M302.51,385.47c-4.39-3.51-8.34-7.75-13.61-9.36
		c-0.59-18.73,12.29-39.94,16.53-46.53c1.61-2.63,3.37-0.88,4.24,2.49C319.19,360.6,304.86,372.59,302.51,385.47z M314.8,374.64
		c4.68,2.93,2.19,26.34-2.78,38.48c-3.51-5.12-7.9-9.51-10.1-11.85C305,393.66,312.61,373.62,314.8,374.64z M307.05,281.29
		c-0.73,0.29-0.59,5.56-0.59,5.56c0.15,38.92-20.48,47.11-20.34,70.81c-4.1-3.22-9.66-8.05-14.92-10.1
		c-9.36-36.72,35.85-85.3,38.48-83.25C310.71,265.49,307.93,280.42,307.05,281.29z M192.93,324.6
		c10.83-6.73,18.87-18.44,23.12-27.07c1.17,3.07,3.07,6.44,4.24,9.36c-5.56,6.73-13.61,15.95-21.65,19.02
		C195.71,326.36,191.03,326.51,192.93,324.6z M246.33,350.35c-12.58-10.83-26.19-17.7-41.41-22.09c5.85-4.24,13.9-11.56,18.58-17.7
		c0.73,0.73,1.9,1.9,2.49,2.63c-0.59,15.51,7.17,27.51,20.78,34.68C248.96,348.74,247.5,351.67,246.33,350.35z M231.41,317.87
		c10.83,7.32,22.39,10.53,34.53,9.8v17.7C231.99,341.43,231.41,317.87,231.41,317.87z M266.52,370.69
		c-3.66-2.19-18-15.66-12.73-20.04c5.71-5.85,30.73,10.83,30.73,10.83c-0.15,4.1-1.17,7.9-0.88,12.14
		C283.64,373.62,270.33,373.32,266.52,370.69z M277.06,389.27c-1.9-3.51-5.41-7.61-3.37-10.24c3.37-3.07,18.58,2.19,26.34,10.68
		c-0.88,3.8-1.9,6.44-2.78,10.39C289.49,398.78,281.15,397.47,277.06,389.27z M290.37,415.61c-1.61-2.93-3.95-9.51-1.46-11.56
		c3.22-1.76,16.68,4.83,21.07,12.88c0.73,1.9-2.93,8.93-4.39,9.07C304.27,426.58,292.57,420.88,290.37,415.61z M311.29,443.41
		c0,2.78-2.34,6.58-3.51,6.44c-1.46,0.44-12.44-6-13.17-12.29c-0.59-3.22-1.02-9.22,0.59-9.8
		C298.27,426.88,308.81,436.68,311.29,443.41z M294.76,507.93c-3.37-1.9-1.32-9.51,1.02-13.61c2.05,1.46,3.66,3.8,5.56,5.85
		C300.76,502.08,298.13,509.25,294.76,507.93z M303.39,496.08c-2.78-3.07-3.95-5.56-7.61-7.75c-1.17-1.17-0.15-4.1,0.88-3.8
		c2.93,1.32,7.17,6,8.34,10.1C305.29,495.64,304.42,496.81,303.39,496.08z M306.47,488.77c-2.63-3.51-6.29-7.17-9.66-9.95
		c-1.61-0.88,0.15-3.8,1.9-3.37c4.1,1.46,7.32,7.17,9.22,11.56C308.22,488.47,306.9,489.35,306.47,488.77z M309.25,481.01
		c-1.46-3.37-8.49-10.53-12.44-14.05c-2.19-1.76,1.61-5.27,2.93-4.1C305.73,467.55,313.2,477.79,309.25,481.01z M311.59,472.52
		c-2.78-6.73-7.75-12.88-13.9-16.97c-2.19-1.17-1.9-6.44,0-5.85c7.17,2.49,14.34,11.12,15.95,18.29
		C314.22,470.62,312.76,474.72,311.59,472.52z M319.93,441.07c2.34,1.76,0.59,14.34-3.66,20.04L311,453.8
		C313.78,449.26,318.17,440.04,319.93,441.07z M313.78,439.9c-1.02-4.24-3.51-6.58-4.83-10.39c1.02-1.46,7.75-16.24,9.22-15.8
		C320.66,415.02,318.17,432.87,313.78,439.9z M317.73,364.84c3.8-16.09-2.49-30.29-8.34-43.45c2.05-10.39,2.49-19.17,3.8-29.56
		c0.73-2.19,3.51-2.63,4.54-1.17c2.78,23.26,12.44,31.46,33.21,30.29l1.46,15.66C339.09,342.16,327.97,353.43,317.73,364.84z
		 M351.24,313.78c-19.17,5.71-30.29-6-28.53-32.48c-2.34-3.66-8.49,4.68-9.36,2.05c-0.15-27.8,12-29.26,16.68-35.85
		c4.54,0.59,9.51,2.34,12,5.56c7.46,11.7,5.56,25.75,10.1,38.77c1.02,2.34,3.22,0,3.22,0c-4.83-17.85,0.44-43.31-21.36-50.92
		c8.78-12,12.14-25.02,15.8-39.07c1.46-1.61,4.54-2.05,6.15-1.32c-0.59,5.56-2.78,10.39-2.05,16.68c0.44,3.8,7.61-4.54,11.85-6.58
		c5.85-3.07,15.36-2.34,23.41-1.02c1.61,0.29,1.46,1.9-0.29,2.19c-7.9,0.88-20.04,2.34-20.78,5.85c0,2.49,9.22,5.12,14.63,5.27
		c0.73,2.93,1.61,6.73,1.17,10.1c-10.24,4.83-23.12,17.85-15.8,39.07C360.02,283.93,354.89,299,351.24,313.78z M386.21,320.36
		c-8.78,26.63-12.73,62.04-24.14,77.4c-0.15,0.29-0.88,0.29-0.59-0.29c13.31-26.63,10.83-50.48,18.73-76.08
		c0.44-1.02-0.59-2.19-1.46-0.73c-8.93,11.7-10.53,58.38-18,72.86c-0.29,0.59-1.02,0.73-0.88-0.44c8.93-33.8,1.9-66.28,15.8-92.18
		c0.59-0.88-1.02-2.34-2.49-0.88c-6.15,10.97-13.17,33.51-11.27,60.13c0.15,1.46-1.02,1.76-1.32,0c-3.8-31.16-6.88-62.18,15.07-89.1
		c9.22-11.27,23.12-21.8,32.33-24.29c21.8-4.54,24.87,15.95,24.87,15.95C407.27,270.03,393.52,297.83,386.21,320.36z M393.37,322.55
		c-1.32-0.73-1.17-3.37,0-3.8c7.61-2.05,29.12-7.02,30.14-4.68C423.95,314.65,394.98,323.43,393.37,322.55z M440.19,309.09
		c-16.09-0.88-31.46,0.88-45.36,3.8c2.63-15.8,23.7-39.8,27.95-37.46c3.95,2.19-4.68,13.46,0.29,16.83
		c3.66,2.19,8.05,0.73,11.12,1.9C440.93,297.39,442.54,308.51,440.19,309.09z"/>
	<path id="XMLID_32_" class="st0" d="M315.83,178c-7.46,52.38-37.6,51.94-67.01,34.24c-5.27-1.46-15.95-4.83-22.53-3.37
		c-8.05,1.9-13.9,5.41-21.51,9.51c-5.71,2.63-2.49,14.63,1.17,19.46c29.7-13.46,39.5-15.66,39.5-15.66
		c25.9,28.68,70.08,14.63,73.74-22.82c24.14-7.32,53.4-11.41,80.03-9.95c-3.66-10.68-9.22-18.58-9.22-18.58
		C353.87,168.63,315.83,178,315.83,178z"/>
	<g id="XMLID_2_">
		<path id="XMLID_31_" class="st1" d="M383.86,232.87c0.44-3.51-0.29-7.17-1.17-10.1c-5.56-0.15-14.63-2.78-14.63-5.27
			c0.59-3.37,12.88-4.97,20.78-5.85c1.76-0.29,1.9-1.9,0.29-2.19c-8.19-1.17-17.56-1.9-23.41,1.02c-4.1,2.05-11.27,10.24-11.85,6.58
			c-0.88-6.29,1.46-11.12,2.05-16.68c-1.61-0.59-4.68-0.29-6.15,1.32c-3.66,14.05-7.02,27.07-15.8,39.07
			c21.8,7.46,16.53,32.92,21.36,50.92c0,0-2.19,2.34-3.22,0c-4.54-13.02-2.63-27.07-10.1-38.77c-2.49-3.22-7.46-4.97-12-5.56
			c-4.68,6.73-16.83,8.05-16.68,35.85c0.88,2.63,7.02-5.71,9.36-2.05c-1.76,26.48,9.36,38.19,28.53,32.48
			c3.51-14.78,8.78-29.85,16.68-41.85C360.75,250.57,373.62,237.69,383.86,232.87z"/>
		<path id="XMLID_30_" class="st1" d="M397.18,215.6c-4.68,0.15-15.8,0.44-15.8,1.9c0.29,1.46,3.07,0.73,4.83,1.46
			c1.61,6.29,2.78,18.58,0.88,20.48c-8.93,6.29-17.85,15.07-15.51,27.21c5.27-5.71,14.63-15.22,24-19.46
			c-1.9-2.93-2.19-11.7,2.05-15.36c2.05-0.59,4.83-0.73,9.95-0.73c2.19,0.44,2.93,2.34,2.05,3.51c-1.61,2.05-10.97,2.78-8.93,6.88
			c2.34,4.68,16.24-2.05,23.41-3.8c0,0,2.05-3.07-1.9-4.39c-10.68-3.51-10.68-14.63-14.19-22.24
			C405.23,206.53,396.01,207.85,397.18,215.6z"/>
		<path id="XMLID_29_" class="st1" d="M434.05,294.17c-3.07-1.17-7.46,0.29-11.12-1.9c-4.83-3.37,3.8-14.63-0.29-16.83
			c-4.24-2.34-25.31,21.65-27.95,37.46c13.9-3.07,29.26-4.68,45.36-3.8C442.54,308.51,440.93,297.39,434.05,294.17z"/>
		<path id="XMLID_28_" class="st1" d="M317.73,290.66c-0.88-1.46-3.66-1.02-4.54,1.17c-1.32,10.39-1.76,19.17-3.8,29.56
			c5.85,13.17,12.14,27.51,8.34,43.45c10.24-11.41,21.36-22.82,34.53-28.24l-1.46-15.66C330.17,322.12,320.66,313.92,317.73,290.66z
			"/>
		<path id="XMLID_27_" class="st1" d="M393.37,318.6c-1.17,0.44-1.32,3.07,0,3.8c1.61,0.88,30.58-7.9,30.29-8.49
			C422.49,311.73,400.98,316.56,393.37,318.6z"/>
	</g>
	<g id="XMLID_3_">
		<path id="XMLID_26_" class="st2" d="M202.44,205.65v6.58c3.8-1.9,7.75-3.8,11.12-4.83L202.44,205.65z"/>
		<path id="XMLID_25_" class="st2" d="M314.37,172c22.09-4.68,50.04-8.78,71.84-6.88c0,0-32.77-75.2-146.46-78.13
			c-2.34,20.63-13.61,31.75-22.97,48.87C284.81,129.86,302.51,142.15,314.37,172z"/>
		<path id="XMLID_24_" class="st2" d="M372.31,194.97c-7.75,0.59-10.39,7.61-10.53,12.73c13.61-9.36,33.36,0.15,48.28-6.29
			c5.27-3.07,9.22-8.34,9.8-14.19C405.66,200.53,391.77,194.09,372.31,194.97z"/>
		<path id="XMLID_23_" class="st2" d="M218.39,285.39c3.8,23.26,28.68,38.92,48.58,34.97c2.63-50.48,69.79-70.38,78.13-118.66
			c-7.75,0.88-14.78,3.07-21.95,4.83c0,0-3.66,27.8-32.48,36.72c-14.48,3.95-26.19-0.44-33.21-3.37c-2.93-1.17-6.73,0.73-9.51,1.61
			c-35.55,14.63-53.84,51.06-77.25,79.74c-0.44,1.17-0.59,3.22,1.32,3.95c6.73,2.19,16.53-2.93,23.12-8.19
			C206.83,306.9,213.41,295.19,218.39,285.39z"/>
		<path id="XMLID_22_" class="st2" d="M242.09,233.45c1.46-0.88,1.9-2.93-1.9-2.19c-18.73,4.83-95.98,35.7-160.65,132.41
			c-1.02,1.17-0.44,2.34,0.44,1.76c10.68-10.53,19.17-16.83,30.14-24.14c5.56-3.8,8.63-9.8,12.44-16.39
			C147.72,282.32,206.68,247.2,242.09,233.45z"/>
		<path id="XMLID_21_" class="st2" d="M249.11,236.38c1.17-0.44,0.15-2.19-1.32-1.46c-49.01,21.36-100.08,51.36-127.73,101.39
			c-0.59,1.32,1.17,1.61,2.19,1.17c11.85-4.24,23.12-7.17,36.72-11.12c2.05-0.59,5.12-3.37,5.71-4.1
			C186.49,289.34,212.68,254.08,249.11,236.38z"/>
		<path id="XMLID_20_" class="st2" d="M432.88,262.71c0,0-3.07-20.48-24.87-15.95c-9.22,2.34-23.12,12.88-32.33,24.29
			c-21.95,26.92-18.87,57.94-15.07,89.1c0.15,1.61,1.46,1.46,1.32,0c-2.05-26.63,5.12-49.16,11.27-60.13
			c1.32-1.61,2.93-0.15,2.49,0.88c-13.9,25.9-6.88,58.38-15.8,92.18c-0.29,1.17,0.59,1.02,0.88,0.44c7.46-14.34,9.07-61.01,18-72.86
			c0.88-1.46,1.9-0.15,1.46,0.73c-7.9,25.6-5.41,49.45-18.73,76.08c-0.29,0.59,0.29,0.59,0.59,0.29
			c11.27-15.36,15.22-50.77,24.14-77.4C393.52,297.83,407.27,270.03,432.88,262.71z"/>
		<path id="XMLID_19_" class="st2" d="M309.68,264.32c-2.49-2.19-47.84,46.53-38.48,83.25c5.27,2.05,10.68,6.73,14.92,10.1
			c-0.15-23.7,20.48-31.9,20.34-70.81c0,0-0.15-5.12,0.59-5.56C307.93,280.42,310.71,265.49,309.68,264.32z"/>
		<path id="XMLID_18_" class="st2" d="M220.29,306.9c-1.17-2.93-3.07-6.29-4.24-9.36c-4.24,8.63-12.29,20.34-23.12,27.07
			c-1.9,1.9,2.78,1.76,5.71,1.32C206.83,322.85,214.87,313.63,220.29,306.9z"/>
		<path id="XMLID_17_" class="st2" d="M246.77,347.72c-13.61-7.17-21.51-19.17-20.78-34.68c-0.59-0.59-1.76-1.9-2.49-2.63
			c-4.68,6.15-12.58,13.46-18.58,17.7c15.22,4.54,28.82,11.41,41.41,22.09C247.5,351.67,248.96,348.74,246.77,347.72z"/>
		<path id="XMLID_16_" class="st2" d="M265.94,327.68c-12.14,0.88-23.7-2.49-34.53-9.8c0,0,0.59,23.41,34.53,27.51V327.68z"/>
		<path id="XMLID_15_" class="st2" d="M305.44,329.58c-4.24,6.58-17.12,27.8-16.53,46.53c5.27,1.61,9.22,5.85,13.61,9.36
			c2.34-12.88,16.53-24.87,7.17-53.4C308.81,328.7,307.05,326.94,305.44,329.58z"/>
		<path id="XMLID_14_" class="st2" d="M284.37,361.47c0,0-25.02-16.68-30.73-10.83c-5.27,4.39,9.07,17.85,12.73,20.04
			c3.8,2.63,17.12,2.93,17.12,2.93C283.2,369.37,284.23,365.57,284.37,361.47z"/>
		<path id="XMLID_13_" class="st2" d="M311.88,413.12c5.12-12.14,7.46-35.55,2.78-38.48c-2.19-1.02-9.8,19.02-12.88,26.63
			C304.12,403.61,308.37,408,311.88,413.12z"/>
		<path id="XMLID_12_" class="st2" d="M300.03,389.71c-7.75-8.49-22.97-13.75-26.34-10.68c-2.05,2.63,1.61,6.88,3.37,10.24
			c4.1,8.19,12.44,9.51,20.19,10.83C298.13,396.15,299.3,393.52,300.03,389.71z"/>
		<path id="XMLID_11_" class="st2" d="M305.59,426c1.46-0.29,5.12-7.17,4.39-9.07c-4.54-8.19-17.85-14.63-21.07-12.88
			c-2.63,2.19-0.15,8.63,1.46,11.56C292.57,420.88,304.27,426.58,305.59,426z"/>
		<path id="XMLID_10_" class="st2" d="M308.95,429.51c1.17,3.95,3.8,6.15,4.83,10.39c4.39-7.02,7.02-25.02,4.54-26.19
			C316.71,413.27,309.98,428.05,308.95,429.51z"/>
		<path id="XMLID_9_" class="st2" d="M295.2,427.75c-1.61,0.59-1.32,6.58-0.59,9.8c0.88,6.29,11.85,12.73,13.17,12.29
			c1.17,0.15,3.51-3.66,3.51-6.44C308.81,436.68,298.27,426.88,295.2,427.75z"/>
		<path id="XMLID_8_" class="st2" d="M310.85,453.8l5.27,7.32c4.24-5.71,6-18.29,3.66-20.04
			C318.17,440.04,313.78,449.26,310.85,453.8z"/>
		<path id="XMLID_7_" class="st2" d="M297.69,449.7c-1.9-0.44-2.19,4.68,0,5.85c6.15,4.1,11.12,10.24,13.9,16.97
			c1.17,2.19,2.63-1.9,2.05-4.54C311.88,460.82,304.71,452.19,297.69,449.7z"/>
		<path id="XMLID_6_" class="st2" d="M299.73,462.87c-1.46-1.17-5.12,2.34-2.93,4.1c3.95,3.51,11.12,10.68,12.44,14.05
			C313.2,477.79,305.73,467.55,299.73,462.87z"/>
		<path id="XMLID_5_" class="st2" d="M298.71,475.45c-1.76-0.44-3.51,2.49-1.9,3.37c3.37,2.78,7.02,6.44,9.66,9.95
			c0.44,0.44,1.76-0.29,1.46-1.76C306.03,482.62,302.81,476.91,298.71,475.45z"/>
		<path id="XMLID_4_" class="st2" d="M296.66,484.52c-1.02-0.29-2.05,2.63-0.88,3.8c3.66,2.19,4.68,4.83,7.61,7.75
			c1.02,0.73,1.9-0.59,1.61-1.61C303.83,490.52,299.59,485.84,296.66,484.52z"/>
		<path id="XMLID_64_" class="st2" d="M295.78,494.32c-2.34,4.1-4.39,11.7-1.02,13.61c3.37,1.32,5.85-5.85,6.58-7.75
			C299.59,498.13,297.83,495.64,295.78,494.32z"/>
	</g>
	<path id="XMLID_65_" class="st3" d="M273.84,143.03c-34.24-11.56-94.22,16.97-130.95-9.51c-17.26-12.44-29.99-22.24-38.19-87.64
		c-6.88,34.82-1.9,79.01,16.83,102.13c25.46,31.46,56.77,51.06,95.1,49.45c45.21-2.05,65.55,35.55,83.4,8.78
		C310.71,190.29,318.17,156.05,273.84,143.03z"/>
	<path id="XMLID_66_" class="st3" d="M192.34,105.14c-15.22-20.34-5.71-43.16-23.12-81.35c16.09,11.85,23.7,67.16,48.58,76.08
		c4.97,1.76,2.93,15.07-6.88,17.12C202.44,118.3,197.61,112.16,192.34,105.14z"/>
</g>
</svg>
