<?xml version="1.0" encoding="utf-8"?>
<!-- Generator: Adobe Illustrator 26.5.0, SVG Export Plug-In . SVG Version: 6.00 Build 0)  -->
<svg version="1.1" id="Layer_1" xmlns="http://www.w3.org/2000/svg" xmlns:xlink="http://www.w3.org/1999/xlink" x="0px" y="0px"
	 viewBox="0 0 512 512" style="enable-background:new 0 0 512 512;" xml:space="preserve">
<style type="text/css">
	.st0{fill:#FFFFFF;}
	.st1{fill:#C6A876;}
</style>
<g id="XMLID_1_">
	<g id="XMLID_2_">
		<path id="XMLID_4_" d="M421.87,202.8c-37.67-21.89-74.77-16.77-102.77-4.26c-1.28-9.24-3.7-19.33-7.68-31.27
			c-5.97-17.63-12.51-34.54-18.19-49.47c-7.53-19.62-13.36-36.25-16.49-47.48L256.13,0.1l-21.32,70.22
			c-3.27,11.09-8.81,28-16.35,47.62c-5.69,14.93-12.22,31.7-18.05,49.47c-3.98,11.94-6.4,22.03-7.68,31.27
			c-28.14-12.51-65.24-17.48-102.77,4.55c-30.7,18.05-47.19,49.18-42.93,81.59c3.84,29.42,24.02,52.45,52.45,60.41l21.18,5.83
			l5.26-21.32c0.71-2.84,8.39-29.57,32.55-29.14c16.63,0.28,30.56,15.07,37.53,24.59c-2.27,6.68-3.41,14.78-2.27,23.6l-9.38-12.65
			l-17.06,12.79c-15.35,11.37-37.67,39.66-23.88,73.06c5.97,14.64,18.91,24.45,36.39,28c10.66,2.13,22.89,1.71,34.11-0.85
			c4.41,14.21,12.51,31.41,27.15,46.77l15.49,16.2l15.49-16.2c14.64-15.35,22.6-32.55,27.15-46.77c11.23,2.42,23.31,2.99,33.97,0.85
			c17.48-3.55,30.28-13.5,36.39-28c13.65-33.4-8.67-61.69-24.02-73.06l-17.06-12.65l-9.95,12.08c1.14-8.67-0.14-16.77-2.42-23.6
			c6.97-9.67,20.75-24.45,37.53-24.73c24.16-0.57,31.84,26.15,32.69,29.28l5.26,21.32c0-0.14,21.18-6.11,21.18-6.11
			c28.57-7.82,48.47-30.99,52.31-60.41C469.2,251.84,452.57,220.71,421.87,202.8"/>
	</g>
	<path id="XMLID_3_" class="st0" d="M249.02,73.3c-2.56,12.22-9.24,29.71-17.06,49.75c-5.69,14.78-12.08,31.41-17.91,48.76
		c-5.54,16.63-7.82,29.14-7.82,40.65c0,3.7,0.43,7.25,0.85,10.95c-21.46-14.78-63.68-34.97-109.88-7.96
		c-25.59,14.93-39.37,40.65-35.96,67.09c3.13,23.45,19.19,41.93,41.93,48.19l6.68,1.85l1.71-6.82c0.43-1.71,10.52-41.08,46.91-40.23
		c29.28,0.57,48.33,29,53.59,37.81c-2.42,4.55-4.55,10.8-4.55,17.91c0,7.68,2.56,16.49,9.38,25.3c-2.7,3.55-6.97,8.1-12.08,8.53
		c-7.25,0.57-14.64-7.11-19.47-13.65l-4.12-5.54l-5.4,4.12c-11.23,8.24-29.57,30.7-19.19,55.86c4.12,10.09,13.08,16.77,25.87,19.33
		c13.22,2.56,29.85,0.28,41.51-5.12c2.27,13.36,8.67,35.82,27.29,55.29l4.98,5.12l4.98-5.26c18.48-19.33,24.88-41.93,27.15-55.29
		c11.8,5.4,28.43,7.68,41.65,4.98c12.79-2.56,21.61-9.24,25.73-19.33c10.38-25.3-8.1-47.62-19.33-55.86l-5.4-4.12l-4.12,5.4
		c-4.83,6.54-12.22,14.21-19.47,13.65c-5.12-0.43-9.52-4.83-12.22-8.53c6.68-8.81,9.24-17.48,9.24-25.16
		c0-7.25-2.13-13.5-4.55-18.05c5.12-8.81,24.16-37.24,53.45-37.81c36.39-0.85,46.62,38.52,46.91,40.08l1.71,6.82l6.68-1.85
		c22.74-6.25,38.81-24.88,41.79-48.33c3.41-26.44-10.38-52.02-36.1-66.95c-46.2-26.87-88.41-6.54-109.88,8.24
		c0.43-3.55,0.85-7.11,0.85-10.66c0-11.66-2.27-24.31-7.82-40.94c-5.83-17.34-12.37-33.97-18.05-48.76
		c-7.82-20.18-14.5-37.53-17.2-49.75l-6.68-31.41L249.02,73.3"/>
	<path id="XMLID_5_" d="M256.27,480.83c26.15-27.43,26.44-62.12,26.44-62.12c11.66,11.51,56.57,19.33,66.67-5.26
		c11.09-27.01-17.06-47.76-17.06-47.76c-27.29,36.53-45.49,0.71-45.49,0.71c20.75-22.46,5.12-42.64,5.12-42.64
		c1.42-4.12,24.31-44.21,61.12-45.06c42.36-1,53.73,45.34,53.73,45.34c44.49-12.37,53.16-74.34,4.12-102.91
		c-62.12-36.1-116.27,18.91-116.27,18.91c4.98-20.61,6.4-35.96-3.7-66.1c-13.79-40.8-30.7-77.18-35.39-99.36
		c-4.69,22.03-21.46,58.56-35.11,99.36c-10.09,30.13-8.53,45.49-3.55,66.1c0,0-54.3-55.01-116.27-18.62
		c-48.9,28.57-40.23,90.69,4.41,102.91c0,0,11.23-46.34,53.73-45.49c36.82,0.71,59.98,40.8,61.26,44.92c0,0-15.49,20.33,5.26,42.64
		c0,0-18.19,35.82-45.49-0.71c0,0-28,20.9-16.92,47.9c10.09,24.59,55.15,16.77,66.67,5.12
		C229.55,418.85,229.97,453.54,256.27,480.83"/>
	<path id="XMLID_6_" class="st1" d="M367.57,219.28c-50.6,0-92.11,57.43-92.11,57.43c1.85-9.38,23.45-51.74,3.84-102.2
		c-19.62-50.6-23.6-70.93-23.6-70.93l-0.14,0.57v-0.57c0,0-3.98,20.33-23.45,70.93s2.27,92.82,4.12,102.2
		c0,0-41.65-57.28-92.11-57.28c-50.6,0-92.68,57.57-45.91,91.68c0,0,13.65-42.5,60.84-42.64c34.68,0,69.37,37.1,70.93,55.58
		c0,0-15.92,22.46,6.25,41.08c0,0-23.88,50.18-56.86,14.07c0,0-25.44,31.7,7.82,39.52c26.44,6.11,52.31-20.61,52.31-20.61
		s-2.84,42.22,16.63,65.39v-0.14l0.14,0.14c19.47-23.17,16.49-65.39,16.49-65.39s26.01,26.72,52.31,20.47
		c33.26-7.82,7.68-39.52,7.68-39.52c-32.98,36.1-56.86-13.93-56.86-13.93c22.03-18.76,6.11-41.22,6.11-41.22
		c1.42-18.34,36.1-55.72,70.79-55.72c47.19,0,60.98,42.36,60.98,42.36C460.39,276.71,418.17,219.28,367.57,219.28"/>
</g>
</svg>
