<?xml version="1.0" encoding="utf-8"?>
<!-- Generator: Adobe Illustrator 26.5.0, SVG Export Plug-In . SVG Version: 6.00 Build 0)  -->
<svg version="1.1" id="Layer_1" xmlns="http://www.w3.org/2000/svg" xmlns:xlink="http://www.w3.org/1999/xlink" x="0px" y="0px"
	 viewBox="0 0 512 512" style="enable-background:new 0 0 512 512;" xml:space="preserve">
<style type="text/css">
	.st0{fill:#FFFFFF;}
	.st1{fill:#0D254C;}
	.st2{fill:#D6D6D6;}
	.st3{fill:#C0001D;}
</style>
<g id="XMLID_1_">
	<g id="XMLID_2_">
		<path class="st0" d="M498.43,154.55c-47.62,13.84-86.94-19.1-146.05-18.14h-0.14c0,0-81.26-2.35-159.48,27
			c-78.77,28.1-132.63,49.42-183.57,55.51c-11.91,1.94-13.15,20.07,1.25,21.04c47.07,1.8,78.91-1.52,110.06-7.75
			c-4.43,13.71,9.41,15.09,9.55,15.09c36.96,4.57,67,0.83,96.22-5.26c-7.48,9-1.38,17.03,4.98,18.41
			c110.34,19.52,152.28,75.31,192.71,115.04c11.35-1.52,35.58-15.92,27.69-44.99c0,0,2.91-6.51,2.91-11.49l13.98-8.31
			c0,0-5.95-29.35-6.65-32.81c7.61-4.01,21.46-10.94,21.46-10.94s25.2-88.6,28.1-99.95C514.35,156.9,503.83,153.03,498.43,154.55z
			 M10.57,229.44c88.19-12.04,160.87-53.85,235.76-70.74c2.35,9.14,6.65,27.41,6.65,27.41C145.82,208.68,134.47,233.46,10.57,229.44
			z M130.04,236.78c58.56-8.58,94-30.32,127.09-37.38c1.94,8.17,4.57,16.61,6.09,23.12C176.28,246.33,130.04,236.78,130.04,236.78z
			 M474.62,259.76c-8.31,4.01-16.61,8.17-24.64,12.74c2.91,10.8,4.43,22.43,6.92,33.23l-12.74,7.48v7.89l-4.01,10.52
			c4.71,6.23,3.32,15.23-0.28,21.46c-3.05,5.12-8.03,8.86-13.01,11.63c0,0-71.57-97.32-193.68-114.35
			c34.33-5.4,47.35-21.18,106.74-21.04c-21.04-11.63-48.04-12.6-72.68-7.06c-1.38-5.26-5.95-23.95-5.95-23.95
			c15.92-4.57,32.26-6.37,49.15-7.61c-16.06-6.09-33.78-6.78-52.33-5.12c-2.22-9.28-4.15-18.14-6.51-27.83
			c31.56-7.2,66.87-10.8,100.51-10.52c39.59,0.28,92.48,18.14,92.48,18.14c17.86,4.98,38.62,4.98,56.9-0.55
			C498.71,176.15,474.62,259.76,474.62,259.76z"/>
		<path id="XMLID_7_" class="st0" d="M450.81,201.76c-1.25-4.85-3.46-18.55-4.15-19.8l-12.04,15.64c0,0-16.2-4.29-25.33-6.09
			c5.68,5.95,11.21,11.35,16.34,17.3c-4.85,7.2-10.94,14.12-15.92,21.04c9.28-3.18,18.69-5.95,27.83-9.14
			c6.65,6.78,13.84,14.12,20.49,20.63c-1.11-8.86-3.74-17.72-4.57-26.03l21.04-7.2C466.87,205.63,458.56,204.11,450.81,201.76z"/>
	</g>
	<g id="XMLID_3_">
		<path class="st1" d="M444.44,165.21c0,0-52.88-17.86-92.48-18.14c-33.78-0.28-68.94,3.32-100.51,10.52
			c2.49,9.69,4.43,18.55,6.51,27.83c18.41-1.66,36.27-0.97,52.33,5.12c-16.75,1.25-33.23,3.05-49.15,7.61c0,0,4.57,18.69,5.95,23.95
			c24.64-5.54,51.64-4.57,72.68,7.06c-59.25-0.14-72.4,15.51-106.74,20.9c121.97,17.03,193.68,114.35,193.68,114.35
			c4.98-2.77,9.97-6.65,13.01-11.63c3.74-6.23,4.98-15.23,0.28-21.46l4.01-10.52v-7.89l12.74-7.48c-2.63-10.8-4.15-22.43-6.92-33.23
			c8.17-4.57,16.34-8.72,24.64-12.74c0,0,24.23-83.48,26.86-94.97C483.2,170.19,462.44,170.19,444.44,165.21z M429.9,301.16
			l-3.05,3.88c3.46,1.25,7.34,3.6,10.66,4.85l-0.28,4.29l-9.28,0.28c-4.29,3.18-7.61,6.23-11.77,9.28c0,0,9.14-1.52,13.84-2.77h8.72
			c-0.97,2.63-1.94,4.85-3.05,7.06l-8.72,0.42c0,0,5.26,6.23,8.86,10.24c4.01,6.92-7.06,15.37-7.06,15.37
			c-20.07-22.43-41.81-45.82-68.39-60.91c2.63-4.15,6.65-6.37,11.49-5.95c9.83,1.94,18.41,8.58,20.77,11.08
			c3.05,3.32,8.72,11.63,10.38,12.87c-0.83-6.78-3.18-13.57-4.85-20.35l-30.04-20.49c3.18-8.31,13.98-14.26,23.4-14.54
			c9.14-0.28,18.14-0.14,24.92,5.12c-15.64-0.28-21.32,7.61-23.53,14.81c-0.14,0.55,31.98-0.14,31.98-0.14
			c1.25-3.32,1.66-6.78,4.01-9.55c2.49-3.6,6.92-4.85,10.94-4.85c0.69,2.63,7.75,39.59,7.75,39.59
			C441.39,300.88,436.13,300.74,429.9,301.16z M458.01,241.35c-6.65-6.51-13.71-13.84-20.49-20.63c-9.28,3.18-18.69,5.95-27.83,9.14
			c4.98-6.92,11.08-13.84,15.92-21.04c-4.98-5.95-10.66-11.35-16.34-17.3c9,1.8,25.33,6.09,25.33,6.09l12.04-15.64
			c0.69,1.25,3.05,15.09,4.15,19.8c7.75,2.35,16.06,4.01,23.53,6.37l-21.04,7.2C454.27,223.63,456.9,232.49,458.01,241.35z"/>
	</g>
	<path id="XMLID_4_" class="st2" d="M428.8,265.99c-2.35,2.77-2.91,6.37-4.01,9.55c0,0-31.98,0.69-31.98,0.14
		c2.35-7.2,7.89-15.09,23.53-14.81c-6.78-5.4-15.78-5.4-24.92-5.12c-9.41,0.28-20.35,6.09-23.4,14.54l29.9,20.49
		c1.66,6.78,4.01,13.57,4.85,20.35c-1.66-1.25-7.2-9.55-10.38-12.87c-2.35-2.49-10.8-9.14-20.77-11.08
		c-4.71-0.55-8.72,1.66-11.49,5.95c26.58,15.09,48.32,38.62,68.39,60.91c0,0,11.21-8.44,7.06-15.37c-3.6-4.01-8.86-10.24-8.86-10.24
		l8.72-0.42c1.11-2.35,2.08-4.57,3.05-7.06h-8.72c-4.71,1.25-13.84,2.77-13.84,2.77c4.29-3.18,7.61-6.23,11.77-9.28l9.28-0.28
		l0.28-4.29c-3.32-1.38-7.2-3.6-10.66-4.85l3.05-3.88c6.23-0.42,11.49-0.28,17.58-0.42c0,0-7.06-36.96-7.75-39.59
		C435.86,261.29,431.29,262.53,428.8,265.99z"/>
	<g id="XMLID_13_">
		<path id="XMLID_14_" class="st3" d="M257.13,199.4c-33.23,6.92-68.53,28.8-127.09,37.38c0,0,46.24,9.55,133.32-14.12
			C261.7,216.02,259.21,207.57,257.13,199.4z"/>
		<path id="XMLID_15_" class="st3" d="M246.33,158.7c-74.9,16.89-147.58,58.7-235.76,70.74c123.9,4.01,135.26-20.9,242.27-43.33
			C252.98,186.11,248.68,167.84,246.33,158.7z"/>
	</g>
</g>
</svg>
