<?xml version="1.0" encoding="utf-8"?>
<!-- Generator: Adobe Illustrator 26.5.0, SVG Export Plug-In . SVG Version: 6.00 Build 0)  -->
<svg version="1.1" id="Layer_1" xmlns="http://www.w3.org/2000/svg" xmlns:xlink="http://www.w3.org/1999/xlink" x="0px" y="0px"
	 viewBox="0 0 512 512" style="enable-background:new 0 0 512 512;" xml:space="preserve">
<style type="text/css">
	.st0{fill:#B21E35;}
	.st1{fill:#25316A;}
</style>
<g id="XMLID_1_">
	<g id="XMLID_2_">
		<path id="XMLID_4_" class="st0" d="M497.62,60.25h-76.35l0.15,180.64c0,4.39-1.17,26.33-19.45,26.33c-6.73,0-9.8-2.34-11.56-4.1
			c-5.7-5.85-6.73-16.97-6.73-20.77l-0.15-182.1H259.65v73.57h14.04c12.87,0,17.11,3.22,18.28,4.68c1.17,1.46,1.46,3.22,1.46,4.24
			c0,0.59,0,0.88,0,0.88c-0.15,0.44-0.15,1.02-0.15,1.02v1.61v121.11c0,23.55,7.75,43.73,22.53,58.51
			c15.36,15.36,37.3,23.7,62.02,23.7c18.14,0,32.76-4.39,43.73-9.65c0,1.76,0,3.51,0,5.27c0,12.43-0.44,22.96-2.34,25.3
			c-0.44,0.44-3.22,1.9-16.09,1.9H36.44v84.69h394.63c28.96,0,50.75-8.34,64.94-24.57c14.19-16.24,15.94-35.84,15.94-45.93
			c0-2.63,0.15-4.39,0-5.56c0-1.32,0-320.62,0-320.62L497.62,60.25L497.62,60.25z"/>
		<path id="XMLID_3_" class="st0" d="M36.44,344.3h87.76l-0.15-188.25l-0.15-1.02c0-0.15-0.73-7.61,3.51-12.43
			c3.95-4.39,11.56-5.27,17.11-5.27c6.14,0,10.53,1.46,13.31,4.24c4.1,4.1,4.97,11.26,4.83,13.6v0.29l0.15,142.03v-0.44
			c-0.15,2.19-0.44,21.65,12.73,35.25c7.61,7.9,17.99,11.99,30.28,11.99h75.33V270l-16.09,2.05c-1.9,0.29-7.75,0.29-10.97-2.34
			c-2.49-2.19-3.36-6.73-3.36-10.24c0-0.44,0,0,0-133.83v0.59c0-1.17,1.17-29.69-18.87-50.46C218.69,62,200.12,55.13,176.71,55.13
			c-24.13,0-41.54,6.73-53.97,14.92c0-4.1,0-9.65,0-9.65H0.02v77.08l17.11-3.66c3.36-0.73,11.7-1.17,15.5,2.34
			c2.78,2.49,3.66,7.46,3.66,11.99L36.44,344.3L36.44,344.3z"/>
	</g>
	<g id="XMLID_5_">
		<path id="XMLID_6_" class="st1" d="M301.04,267.36c0,21.5,7.02,39.78,20.18,52.95c13.9,13.9,33.93,21.36,56.61,21.36
			c24.13,0,41.25-8.19,51.49-15.07c0,2.34,0,5.7,0,5.7c0,4.83,0.15,9.21,0.15,13.31c0,16.24-0.73,26.18-4.53,30.13
			c-2.93,2.93-9.07,4.1-21.65,4.1l-359.09,0.29v69.18l386.88-0.29c26.62,0,46.51-7.31,59.09-21.79
			c12.58-14.33,14.33-31.59,14.33-40.52c0-2.78-0.15-4.68-0.29-5.56c0-0.73-0.29-313.16-0.29-313.16h-75.04l0.15,172.89
			c0,1.32-0.44,34.08-27.06,34.08c-7.31,0-12.87-2.05-17.11-6.44c-9.21-9.36-8.92-26.18-8.92-26.33c0-0.15-0.15-174.2-0.15-174.2
			H267.25v58.07h6.29c11.85,0,20.18,2.63,24.43,7.61c4.1,4.97,2.93,11.12,2.93,11.26v122.43H301.04z"/>
		<path id="XMLID_7_" class="st1" d="M44.05,336.55h72.26l-0.15-180.2v-0.44c0-0.15-1.32-10.82,5.27-18.28
			c4.68-5.27,12.43-8.04,23.11-8.04c8.19,0,14.63,2.19,19.01,6.73c7.31,7.46,7.02,19.01,7.02,19.01c0,0.15,0.15,142.17,0.15,142.17
			c0,0.44-0.44,17.84,10.53,29.4c6.14,6.44,14.48,9.65,24.57,9.65h67.58v-57.78l-7.31,1.02c-0.15,0-10.53,1.46-16.97-4.24
			c-3.8-3.36-5.7-8.78-5.7-16.09l-0.15-133.83c0-0.88,0.88-26.18-16.82-44.61c-11.7-12.14-28.38-18.28-49.58-18.28
			c-31.74,0-50.9,12.29-61.72,23.4c0-5.41,0-18.14,0-18.14H7.77v59.82l7.75-1.76c0.15,0,14.33-3.07,22.38,4.1
			c4.1,3.66,6.29,9.51,6.29,17.7v188.68H44.05z"/>
	</g>
</g>
</svg>
