<?xml version="1.0" encoding="utf-8"?>
<!-- Generator: Adobe Illustrator 26.5.0, SVG Export Plug-In . SVG Version: 6.00 Build 0)  -->
<svg version="1.1" id="Layer_1" xmlns="http://www.w3.org/2000/svg" xmlns:xlink="http://www.w3.org/1999/xlink" x="0px" y="0px"
	 viewBox="0 0 512 512" style="enable-background:new 0 0 512 512;" xml:space="preserve">
<style type="text/css">
	.st0{fill:#FFFFFF;}
	.st1{fill:#203731;}
	.st2{fill:#2D433D;}
</style>
<g id="XMLID_1_">
	<path id="XMLID_3_" class="st0" d="M478.05,183.66c-22.58-22.58-54.43-41.8-91.74-55.55c-39.7-14.45-84.16-22.16-129.61-22.16
		c-62.42,0-127.09,16.55-176.75,45.31C29.18,180.71,0,218.59,0,255.62c0,23.71,11.92,48.11,34.37,70.56
		c23,22.86,55.27,42.64,93.42,56.81c40.26,15.01,85.01,22.86,127.93,22.86c44.89,0,89.21-7.72,129.61-22.16
		c37.59-13.75,69.58-32.96,91.74-55.55c22.86-22.86,34.93-47.97,34.93-72.52c0-24.55-12.06-49.66-34.93-72.52L478.05,183.66"/>
	<path id="XMLID_4_" class="st1" d="M498.25,256.04c0-65.51-106.89-135.5-241.55-135.5c-128.77,0-241.55,70.56-241.55,135.5
		c0,65.09,112.78,135.5,241.55,135.5C391.36,391.54,498.25,321.55,498.25,256.04"/>
	<path id="XMLID_5_" class="st0" d="M350.12,185.34v14.17h22.72h0.14c1.26-0.14,3.23,0.28,3.65,0.98c0.42,0.7,0.28,3.09-2.81,8
		c0,0.14-21.88,36.33-30.02,49.94l-31.98-51.06c-2.67-4.07-2.38-5.75-1.96-6.31c0.56-1.12,1.4-1.4,3.37-1.54h0.14h0.14h16.27v-14.17
		H206.9v14.17h15.43c3.23,0,5.33,0.7,6.59,1.96c2.24,2.24,2.67,6.73,2.67,13.05v52.32l-62.28-81.36h-61.44v14.87h20.2
		c2.1,0,3.65,0.42,4.49,1.26c1.54,1.54,1.54,5.47,1.54,9.4v82.06c0,13.61-1.4,17.39-6.73,17.39h-19.64v13.19h65.93v-13.33H155
		c-3.09,0-5.33-0.14-6.17-0.84c-1.68-1.68-1.82-9.4-1.82-16.27v-72.24l85.01,102.68h13.33c0,0,0.14-114.46,0-116.15
		c-0.14-3.09,0.7-6.73,6.31-7.43h13.19c6.17,0,10.1,7.43,14.17,14.45c0,0,31.84,54.01,36.05,61.16v26.09c0,8.84-3.93,8.84-5.61,8.84
		h-14.87v13.33h78.13v-13.33H358.4c-5.47-0.28-7.43-1.96-7.29-10.1v-26.93l38.15-64.11c5.47-8.56,6.03-9.4,13.61-9.26h12.91V185.9
		H350.4L350.12,185.34"/>
	<path id="XMLID_6_" class="st1" d="M353.49,189.55v7.15h19.08c0,0,14.03-1.12,4.07,14.45L343.67,266l-35.07-56.11
		c-9.12-14.45,4.49-13.19,4.49-13.19h12.76v-7.15H209.71v7.01h11.92c11.5,0,12.91,7.43,12.91,18.52v62.84l-67.61-88.37h-56.11v7.86
		h16.69c10.66,0,9.4,8.28,9.54,16.55v79.68c0,11.08-0.42,20.9-10.38,20.9h-16.13v6.03h58.77v-6.17H154.3
		c-10.1,0.14-11.64-1.4-11.64-20.76v-83.04l90.06,110.26h7.43V214.8c0-11.08,0.14-17.25,10.52-17.67h14.59
		c7.86,0.56,11.92,9.54,17.53,19.08l34.93,59.06v27.07c0,8.42-3.23,12.34-9.12,12.34h-11.36v6.17h71.12v-6.31h-10.8
		c-8.7-0.42-10.94-4.91-10.66-13.75v-27.77l35.91-60.74c8-12.06,8.56-15.29,19.36-15.01h9.4v-7.15h-58.21L353.49,189.55"/>
	<path id="XMLID_10_" class="st1" d="M256.7,288.44c-3.93,0-7.72,0.28-11.5,0.84c0,19.22,0,34.23,0,34.23h-13.33l-17.81-21.46
		c-7.57,5.89-12.2,12.91-12.2,19.64c0,15.99,25.53,33.39,54.71,33.39c29.18,0,52.6-15.85,54.57-31.28h-16.83v-13.33h13.19
		C299.63,298.54,279.99,288.44,256.7,288.44"/>
	<path id="XMLID_14_" class="st2" d="M307.62,310.47h-13.19v13.33h16.83c0.14-0.7,0.14-1.4,0.14-1.96c0-0.28,0-0.7,0-0.98h-14.03
		v-6.17h11.36c0.42,0,0.84,0,1.12,0C309.3,313.13,308.6,311.73,307.62,310.47 M245.34,289.29c-1.68,0.28-3.37,0.56-5.05,0.98v30.44
		h-7.43l-16.55-20.2c-0.7,0.56-1.4,0.98-2.1,1.54l17.81,21.46h13.33C245.2,323.51,245.2,308.5,245.34,289.29"/>
	<path id="XMLID_17_" class="st1" d="M309.87,314.53c-0.42,0-0.7,0-1.12,0h-11.36v6.17h14.03
		C311.27,318.6,310.71,316.64,309.87,314.53 M240.29,290.27c-9.12,2.1-17.39,5.75-23.85,10.24l16.55,20.2h7.43v-30.44"/>
	<path id="XMLID_18_" class="st0" d="M307.2,320.01c-1.82-13.75-23.85-27.91-51.06-27.91c-26.09,0-49.1,14.17-51.06,27.91h101.84"/>
	<path id="XMLID_19_" class="st0" d="M205.36,323.37c1.82,13.75,24.97,27.91,51.06,27.91c27.21,0,49.38-14.03,51.06-27.91H205.64"/>
	<path id="XMLID_20_" class="st1" d="M238.19,333.47c-6.87,0-12.48-5.33-12.48-11.92s5.61-11.92,12.48-11.92h36.89
		c6.87,0,12.48,5.33,12.48,11.92s-5.61,11.92-12.48,11.92H238.19"/>
	<path id="XMLID_21_" class="st0" d="M276.9,316.64c-0.14-0.42-0.14-0.7-0.28-0.98h-3.51c0.14,0.42,0.28,0.7,0.28,1.12
		c0.28,1.12,0.42,2.24,0.56,3.51h-6.31c-0.14-1.12-0.28-2.1-0.56-3.23h-3.37c0.28,0.98,0.56,2.1,0.7,3.09h-6.31v-2.95h-3.51v2.95
		h-6.31c0.14-1.12,0.28-2.1,0.7-3.09h-3.37c-0.28,0.98-0.42,2.1-0.56,3.23h-6.31c0.14-1.12,0.28-2.38,0.56-3.51
		c0.14-0.42,0.14-0.7,0.28-1.12h-3.51c-0.14,0.28-0.14,0.7-0.28,0.98c-0.42,1.68-0.56,3.51-0.56,5.47c0,2.1,0.28,4.21,0.84,6.31
		h3.51c-0.42-1.54-0.7-3.09-0.84-4.63h6.31c0.14,1.12,0.28,2.24,0.56,3.23h3.37c-0.28-0.98-0.56-2.1-0.56-3.23h6.31v3.09h3.51v-3.09
		h6.31c-0.14,1.12-0.28,2.24-0.56,3.23h3.37c0.28-1.12,0.42-2.1,0.56-3.23h6.31c-0.14,1.54-0.42,3.09-0.84,4.63h3.51
		c0.56-1.96,0.84-4.07,0.84-6.31C277.46,320.29,277.32,318.46,276.9,316.64"/>
	<path id="XMLID_22_" class="st1" d="M415.77,232.47c-3.65-6.87-13.19-10.8-27.63-11.22c-10.66-0.42-18.94,0.14-25.53,1.96
		l-174.22,0.14l8.98-16.55h-42.92l-29.46,55.41c-2.38,3.51-2.67,3.65-5.19,3.51c-0.7,0-1.12-0.14-1.54-0.28
		c0.42-1.54,2.24-4.49,2.81-5.47l10.24-16.97H91.32l-1.26,1.68c-11.92,15.15-15.01,27.77-10.52,36.19
		c4.35,8.56,15.29,12.91,32.12,12.76c17.11-0.14,27.77-0.84,36.33-6.45h86.69l22.44-41.8h19.22l-22.16,41.52h44.33l13.89-26.09h18.8
		l-0.98,2.38c-3.37,8.42-1.54,14.03,0.56,17.11c4.21,6.31,13.19,9.4,26.79,9.4c22.86,0,37.45-2.1,44.47-12.76
		c5.75-8.7,6.59-16.83,2.38-22.58c-1.12-1.68-2.95-3.09-5.19-4.21h12.62l1.12-1.96c4.49-7.15,3.37-12.48,1.54-15.71H415.77"/>
	<polyline id="XMLID_23_" class="st1" points="405.67,254.36 405.67,254.5 405.67,254.5 405.67,254.36 	"/>
	<path id="XMLID_24_" class="st0" d="M123.72,246.78H92.86c-20.76,28.48-10.52,42.78,19.22,42.64c27.07-0.14,36.61-1.96,47.83-22.58
		l30.16-56.39h-33.81l-28.48,53.58c-2.67,3.93-4.21,5.89-8.98,5.33c-7.72-0.84-5.61-5.33-1.68-11.92L123.72,246.78"/>
	<polyline id="XMLID_25_" class="st0" points="261.75,282.97 297.1,282.97 319.26,241.73 335.54,241.73 343.25,227.28 
		271.99,227.28 264.42,241.31 284.05,241.31 261.89,282.97 	"/>
	<path id="XMLID_26_" class="st0" d="M334.97,264.46c-5.33,13.19,2.81,21.18,23.71,21.18c22.58,0,35.35-2.1,41.1-11.08
		c3.93-6.03,6.17-12.91,2.52-17.96c-2.52-3.65-11.64-6.73-20.34-8.42c-5.47-1.12-7.43-2.38-7.01-5.61c0.42-2.95,4.07-3.65,6.73-2.81
		c2.24,0.7,3.23,3.37,2.81,6.31h26.23c7.15-11.5-1.12-20.06-22.86-20.9c-26.79-0.84-37.17,4.07-42.5,17.81
		c-2.67,6.31-2.24,11.22,1.68,13.75c4.91,3.23,18.52,5.33,22.58,6.73c2.52,0.84,2.81,3.93,1.4,5.75c-1.54,2.1-5.47,2.95-7.86,1.12
		c-1.68-1.26-1.4-2.95-1.96-5.75L334.97,264.46"/>
	<polyline id="XMLID_27_" class="st0" points="165.8,282.97 233.28,282.97 240.85,268.95 203.96,268.95 207.47,262.21 
		240.15,262.21 247.86,247.76 217.14,247.76 220.23,241.31 253.62,241.31 261.05,227.28 195.68,227.28 165.8,283.11 	"/>
</g>
</svg>
