<?xml version="1.0" encoding="utf-8"?>
<!-- Generator: Adobe Illustrator 26.5.0, SVG Export Plug-In . SVG Version: 6.00 Build 0)  -->
<svg version="1.1" id="Layer_1" xmlns="http://www.w3.org/2000/svg" xmlns:xlink="http://www.w3.org/1999/xlink" x="0px" y="0px"
	 viewBox="0 0 512 512" style="enable-background:new 0 0 512 512;" xml:space="preserve">
<style type="text/css">
	.st0{fill:#BACAD3;}
	.st1{fill:#004D55;}
	.st2{fill:#000114;}
	.st3{fill:#FFFFFF;}
</style>
<g id="XMLID_1_">
	<path id="XMLID_17_" class="st0" d="M297.79,111.36l-24.91,26.57c40.96-18.54,130.21-51.34,130.21-51.34l-28.51,28.64
		C452.77,88.8,512,75.1,512,75.1s-16.88,39.71-42.34,79.84c4.98-0.83,37.22-6.23,37.22-6.23s-28.92,48.43-62.41,84l18.82,3.6
		c0,0-29.06,42.62-67.94,78.05c-55.49,51.2-84.27,45.11-84.27,45.11c-41.38,31.27-74.59,18.13-74.59,18.13s13.98-35.84-0.69-38.61
		c-13.56-2.77-33.9,8.44-36.39,12.73c-2.49,8.99-13.56,31.97-24.91,46.22c-21.86,27.26-46.36,39.16-46.36,39.16
		s-19.37-15.08-19.79-41.93c0,0-13.01,14.11-34.59,19.65c-15.08,4.01-35.7,2.49-56.74-13.42C2.91,390.47,0,352,0,352
		s13.15-25.18,38.61-48.02c-5.81-4.43-9.27-10.24-10.24-13.84c67.81-32.24,67.81-59.78,121.63-95.9
		C203.14,158.82,236.63,141.8,297.79,111.36"/>
	<path id="XMLID_16_" class="st1" d="M264.72,136.26l-21.31,22.69c42.21-20.2,131.32-54.24,131.32-54.24l-25.88,25.88
		c91.47-32.1,149.59-44.28,149.59-44.28s-18.68,41.79-43.73,77.91c12.04-1.8,37.64-5.95,37.64-5.95s-25.32,42.62-62.69,79.57
		c4.15,0.42,21.31,3.18,21.31,3.18s-22.56,33.9-61.86,69.33c-50.09,45.25-72.65,41.38-72.65,41.38s0.55-1.66,0.42-4.29
		c0.14-1.38-0.28-2.77-0.28-2.91c-38.47,37.5-70.99,26.98-70.99,26.98s14.11-34.32-8.03-39.99c-17.02-4.43-43.04,10.38-45.11,17.71
		c-2.08,8.03-13.01,30.44-23.52,43.73c-18.54,23.25-39.16,34.46-39.16,34.46s-18.82-13.01-12.45-54.24
		c1.25-8.99-0.55-12.45-1.52-13.7c-3.18-4.43-27.12,1.66-32.93,14.94c-4.01,9.41,19.93,15.91,19.93,15.91s-10.93,12.32-30.17,17.3
		c-12.04,2.77-30.86,3.04-50.51-12.45C10.52,386.04,7.75,353.1,7.75,353.1S22,326.81,49.82,303.43c-5.54-3.32-9.82-8.99-10.79-11.21
		c56.32-26.29,63.79-60.06,127.31-100.46C195.67,173.21,226.8,154.53,264.72,136.26"/>
	<path id="XMLID_15_" class="st2" d="M415.41,243.37c2.21,0.28,11.49,1.38,16.74,3.32c-19.23,31.41-76.94,94.1-109.18,98.25
		c-0.42-5.4-2.49-9.69-5.12-12.45c-11.9,22.14-48.99,37.09-64.48,34.59c18.27-67.39-60.89-38.05-66.84-19.51
		c-15.22,48.16-55.35,72.23-55.35,72.23s-13.01-13.42-7.61-45.39c4.01-23.66-11.35-22-11.35-22c-6.23-0.14-29.34,3.87-36.67,19.79
		c-5.81,12.87,14.81,20.76,14.81,20.76s-29.61,24.49-64.35-2.21c-8.44-6.64-11.9-36.12-11.9-36.12
		c16.47-27.4,38.19-45.53,47.33-52.31c-9.69-3.18-12.59-7.75-12.59-7.75c46.22-22.97,64.07-58.12,103.37-85.52
		c43.31-30.17,76.52-45.8,76.52-45.8l-12.45,16.05c0,0,10.52-4.84,14.94-7.47c41.38-21.73,111.39-46.63,111.39-46.63l-21.73,21.59
		c0,0,36.12-13.84,81.78-25.6c24.22-6.23,75.14-19.23,75.14-19.23s-11.76,34.46-36.95,70.43c15.36-1.8,31.83-3.46,31.83-3.46
		S455.26,204.35,415.41,243.37"/>
	<path id="XMLID_14_" class="st2" d="M226.53,206.98c-0.55,0.28-0.97,0.42-1.52,0.69C225.56,207.39,225.97,207.11,226.53,206.98
		L226.53,206.98"/>
	<path id="XMLID_13_" class="st2" d="M224.73,207.67c0.28,0.14,0.28,0.14,0.42,0C225,207.67,225,207.67,224.73,207.67"/>
	<path id="XMLID_12_" class="st3" d="M280.08,284.33c0,0-22.28-9.41-57.29,3.46c0,0,48.02-30.17,109.18-21.59
		c-39.71-10.66-75.42-2.77-96.31,5.12c-12.32,5.26-19.79,9.27-19.79,9.27s3.04-2.35,8.99-5.95c14.11-10.93,33.76-22.83,53.14-31.69
		c13.42-5.95,40.27-14.39,51.2-15.5c0,0-28.09-3.18-53.69,4.29c0,0,40.41-17.44,79.84-20.2c13.28-0.83,43.45-0.83,43.45-0.83
		c-43.59-10.24-88.7-10.38-119.56-4.29c-17.44,4.98-31.41,9.96-31.41,9.96s2.49-1.25,7.2-3.46c10.93-6.92,56.46-33.07,141.01-50.09
		c0,0-10.79-0.69-23.94,0c-13.42,0.69-40.27,6.5-40.27,6.5c19.37-9.41,55.63-19.65,100.6-26.02c0,0-68.77-4.43-151.8,24.91
		c-0.83,0.28-1.11,0.55-1.11,0.55s8.58-6.5,18.68-13.28c7.2-5.12,17.71-13.01,17.71-13.01S273.3,154.39,215.73,184
		c-16.19,8.3-24.77,13.15-24.77,13.15c2.49-2.77,13.98-13.28,16.74-16.88c-42.76,22.56-58.26,36.67-83.44,64.07
		c-22.69,24.49-21.59,28.51-55.9,48.29c0,0,25.46,8.72,51.06-8.72c4.43-2.91,8.58-7.2,12.59-11.49
		c9.13-10.66,5.95-21.03,18.13-29.06c-1.8,4.01-4.57,8.99-4.84,14.11c5.81-8.03,17.16-18.82,29.75-26.98
		c32.52-20.34,53.97-24.63,53.97-24.63c-0.97,0.28-1.66,0.69-2.49,0.97c-44.14,20.06-51.34,43.87-51.48,46.36
		c-0.42,5.26,16.05-7.33,29.34-9.69c-14.25,5.54-26.15,17.85-31.97,31.69c-2.49,5.81-3.18,12.45-10.24,17.85
		c-1.94,1.94-4.57,3.74-8.03,5.4c-9.27,4.57-15.78,2.77-17.99,1.52c-1.38-0.69-2.08-2.21-2.08-2.21c4.57,1.11,10.66-0.42,16.19-4.01
		c4.15-2.77,7.2-6.23,8.72-9.69c0.83-1.94,2.63-5.54,0-9.96c-1.25-2.08-3.87-3.32-6.92-3.46c0.28-0.55,1.66-4.43,6.64-10.38
		c-6.64,4.98-10.79,10.79-13.01,13.42c3.04,0.14,5.81,1.38,7.33,3.74c3.04,4.7,0.28,11.9-6.09,15.64
		c-6.37,4.15-14.11,3.6-17.02-0.97c-0.42-0.69-0.69-1.11-0.97-1.8c-0.28,0.14-0.69,0.42-1.11,0.55c-1.94,1.11-5.95,2.91-5.95,2.91
		c1.8,0.42,4.43,0.42,6.09,0.14c0.55,6.78,5.12,17.57,29.89,10.1c-7.06,6.92-24.08,7.33-34.46,2.63c1.52,0.97,3.04,1.94,4.98,3.04
		c31.27,17.02,66.84-2.35,75.42-7.75c2.21-1.25,4.43-2.63,6.5-3.74c0,0-8.99,8.16-15.08,20.48
		C206.05,304.53,237.6,281.42,280.08,284.33"/>
	<path id="XMLID_11_" class="st0" d="M166.33,260.39c1.25,4.29,8.99-0.55,8.99-0.55s-10.66,9.27-14.81,18.96
		c-0.14,0.55-0.14,2.35-1.52,5.26c1.11,0.14,2.21,0.28,3.04,0.14c2.77-0.55,6.09-2.49,6.09-2.49s0.14,5.67-6.09,11.35
		c7.06-5.4,7.75-11.9,10.24-17.85c5.81-13.84,17.85-26.15,31.97-31.69c-13.42,2.35-29.75,14.94-29.34,9.69
		c0.28-2.49,7.33-26.29,51.48-46.36c-0.55,0.14-1.52,0.69-1.8,0.69C184.32,224.41,163.01,248.9,166.33,260.39"/>
	<path id="XMLID_10_" class="st1" d="M149.45,279.35c2.08,3.32,0.14,8.44-4.57,11.49c-4.7,2.91-10.24,2.63-12.32-0.69
		c-0.42-0.55-0.55-1.11-0.69-1.66c-0.97,0.69-1.94,1.25-2.91,1.94c0.28,0.69,0.55,1.11,0.97,1.8c2.91,4.57,10.66,5.12,17.02,0.97
		c6.37-3.87,9.13-11.07,6.09-15.64c-1.52-2.35-4.29-3.46-7.33-3.74c-0.69,0.83-1.66,1.8-2.49,2.91
		C145.99,276.58,148.34,277.41,149.45,279.35"/>
	<path id="XMLID_9_" class="st2" d="M144.88,290.69c4.7-3.04,6.78-8.03,4.57-11.49c-1.11-1.8-3.46-2.77-6.09-2.63
		c-1.66,2.21-3.74,4.84-6.37,7.2c0,2.08,0.42,4.43,2.91,6.09c0,0-2.91,0.28-4.7-0.83c-0.97-0.69-1.52-1.52-1.66-2.08
		c-0.55,0.42-1.11,1.11-1.52,1.38c0,0.55,0.28,1.25,0.69,1.66C134.64,293.46,140.18,293.6,144.88,290.69"/>
	<path id="XMLID_8_" class="st3" d="M135.2,289.03c1.8,1.11,4.7,0.83,4.7,0.83c-2.49-1.66-2.91-4.01-2.91-6.09
		c-1.11,1.11-2.21,2.21-3.46,3.18C133.67,287.51,134.23,288.34,135.2,289.03"/>
	<path id="XMLID_7_" class="st0" d="M398.81,210.85c0,0-30.17,0.14-43.45,0.83c-39.44,2.91-79.84,20.2-79.84,20.2
		c25.6-7.47,53.69-4.29,53.69-4.29c-10.93,1.11-37.78,9.55-51.2,15.5c-19.37,8.86-38.88,20.76-53.14,31.69
		c22.69-14.25,87.59-48.43,170.34-35.7c0,0,5.4-4.15,19.79-20.2c15.08-16.88,18.27-27.12,18.27-27.12s-70.16-3.74-120.94,6.37
		c-10.93,2.21-22.69,5.26-33.21,8.44C309.97,200.47,355.22,200.61,398.81,210.85"/>
	<path id="XMLID_6_" class="st0" d="M237.32,299.69c57.29-16.74,97.14-2.08,102.12,15.36c0,0,0.28-0.14,0.55-0.42
		c2.21-1.38,11.21-5.4,24.49-18.82c13.98-14.25,22.69-25.46,26.15-32.93c-58.81-25.46-123.43-4.98-155.12,8.44
		c20.9-8.03,56.74-15.78,96.31-5.12c-61.02-8.58-109.04,21.59-109.04,21.59c35.01-12.87,57.29-3.46,57.29-3.46
		c-42.48-2.77-74.03,20.2-84.69,34.32c-0.83,1.66-1.66,3.46-2.35,5.12C202.86,314.36,213.1,306.61,237.32,299.69"/>
	<path id="XMLID_5_" class="st0" d="M432.29,143.46c-44.97,6.37-81.23,16.61-100.6,26.02c0,0,26.71-5.81,40.27-6.5
		c13.28-0.69,23.94,0,23.94,0c-84.55,17.02-129.94,43.17-141.01,50.09c11.21-5.12,35.42-15.36,70.43-23.8
		c32.8-7.89,70.99-11.49,86.49-13.7c21.73-21.73,30.17-48.16,30.17-48.16s-38.05,4.98-81.5,14.94
		c-44.97,10.66-74.17,23.39-79.98,26.02C363.52,139.03,432.29,143.46,432.29,143.46"/>
	<path id="XMLID_4_" class="st0" d="M205.22,323.63c0,0,14.39-11.35,38.88-8.72c36.26,3.74,35.42,26.02,35.42,26.02
		s16.19-7.61,24.49-22c0,0-10.24-8.86-28.92-11.21C226.94,301.9,205.22,323.63,205.22,323.63"/>
	<path class="st0" d="M106.97,314.91c-7.47-0.28-10.1-1.66-12.87-3.46c-6.09,3.32-10.79,6.09-10.79,6.09
		c-3.6,5.54,4.15,4.15,7.61,2.91C93.96,319.34,106.97,314.91,106.97,314.91 M187.5,318.23c-2.21,4.01-3.18,8.3-4.84,13.56
		c-11.07,52.58-49.82,77.22-49.82,77.22c-7.33-15.36-3.32-30.58-2.21-36.12c2.77-13.01-3.74-22.28-3.74-22.28
		c25.6-0.14,0.69,32.1,10.38,44.97c17.02-10.66,27.26-45.25,29.75-57.57c0.14-0.42-2.49-2.21-4.57-2.77
		c-24.77-6.5-66.28,2.21-81.09,11.62c-46.91,30.03-2.77,46.63-2.77,46.63s-28.78,10.79-45.53-13.7c-4.29-6.5-5.26-18.68-6.37-28.23
		c17.02-29.06,44.14-41.65,51.62-47.05c6.5,1.38,18.4,1.52,27.68-1.66C106,303.01,137.69,339.82,187.5,318.23z"/>
	<path id="XMLID_2_" class="st2" d="M83.3,317.54c-3.6,5.54,4.15,4.15,7.61,2.91c2.91-0.97,16.05-5.4,16.05-5.4
		c-7.47-0.28-10.1-1.66-12.87-3.46C88.01,314.77,83.3,317.54,83.3,317.54"/>
</g>
</svg>
