<?xml version="1.0" encoding="utf-8"?>
<!-- Generator: Adobe Illustrator 26.5.0, SVG Export Plug-In . SVG Version: 6.00 Build 0)  -->
<svg version="1.1" id="Layer_1" xmlns="http://www.w3.org/2000/svg" xmlns:xlink="http://www.w3.org/1999/xlink" x="0px" y="0px"
	 viewBox="0 0 512 512" style="enable-background:new 0 0 512 512;" xml:space="preserve">
<style type="text/css">
	.st0{fill:#9BABB6;}
	.st1{fill:#FFFFFF;}
	.st2{fill:#231F20;}
	.st3{fill:#F1C817;}
	.st4{fill:#204182;}
	.st5{fill:#BF2026;}
</style>
<g id="PITTSBURGH_STEELERS">
	<path class="st0" d="M256,0C114.54,0,0,114.54,0,256s114.69,256,256,256s256-114.69,256-256C512,114.54,397.31,0,256,0z
		 M256.15,472.8c-119.81,0-216.94-97.13-216.94-216.94S136.34,38.91,256.15,38.91s216.94,97.13,216.94,216.94
		S375.95,472.8,256.15,472.8z"/>
	<path id="XMLID_29_" class="st1" d="M144.24,251.03c0-3.36-0.73-4.39-3.36-4.39c-3.22,0-3.07,2.93-3.07,6v1.32h6.44V251.03
		L144.24,251.03z"/>
	<path id="XMLID_28_" class="st1" d="M115.86,246.64c-3.22,0-3.07,2.93-3.07,6v1.32h6.44v-2.93
		C119.22,247.66,118.49,246.64,115.86,246.64z"/>
	<path id="XMLID_27_" class="st1" d="M183.15,251.03c0-3.36-0.73-4.39-3.36-4.39c-3.22,0-3.07,2.93-3.07,6v1.32h6.58L183.15,251.03
		L183.15,251.03z"/>
	<path class="st1" d="M256.15,38.91c-119.81,0-216.94,97.13-216.94,216.94S136.34,472.8,256.15,472.8s216.94-97.13,216.94-216.94
		S375.95,38.91,256.15,38.91z M75.78,275.89c-8.34,0-11.41-5.56-11.41-13.46v-3.22h7.02v2.63c-0.15,4.24,1.02,7.46,4.39,7.46
		c2.93,0,4.39-1.9,4.39-5.12c0-2.63-1.02-4.39-2.78-5.85c-3.66-3.36-8.19-5.71-11.12-10.24c-1.17-2.05-1.76-4.39-1.76-6.73
		c0-7.61,3.66-11.7,10.97-11.7c11.12,0,10.83,10.09,10.97,14.48h-6.73c0-3.95-0.29-7.9-4.1-7.9c-2.34,0-3.8,1.17-3.8,4.1
		c0,3.36,1.76,4.68,3.95,6.29c2.34,1.76,6.58,4.97,8.48,7.31c2.34,2.78,3.22,5.41,3.22,9.22C87.33,271.51,82.65,275.89,75.78,275.89
		z M102.4,247.22h-2.78v20.63c0.15,1.46,1.9,1.32,2.78,1.17v6c-3.8,0.59-9.22,0.88-9.22-5.27v-22.53h-2.63v-5.56h2.63v-2.78
		l6.58-6.44v9.07h2.78L102.4,247.22L102.4,247.22z M125.81,259.8h-13.02v4.83c0,4.39,1.46,5.27,3.36,5.27
		c2.34,0,3.07-2.05,3.07-6.29h6.58c0.29,7.46-2.34,12.14-9.07,12.14c-7.46,0-10.53-4.24-10.39-13.9v-8.78
		c-0.29-7.9,3.07-12.29,9.51-12.29c9.07,0,9.95,5.56,9.95,14.63L125.81,259.8L125.81,259.8z M131.22,261.71v-8.78
		c-0.29-7.9,3.07-12.29,9.51-12.29c9.07,0,9.95,5.56,9.95,14.63v4.53h-13.02v4.83c0,4.39,1.46,5.27,3.36,5.27
		c2.34,0,3.07-2.05,3.07-6.29h6.44c0.29,7.46-2.34,12.14-9.07,12.14C134.14,275.75,131.07,271.51,131.22,261.71z M253.81,472.5
		c-11.56-61.15-32.77-95.23-109.57-108.25c76.8-13.02,98.16-47.1,109.57-108.25c-11.56-61.15-32.77-95.23-109.57-108.25
		c76.8-13.02,98.16-47.1,109.57-108.25c11.56,61.15,32.77,95.23,109.57,108.25c-76.8,13.02-98.16,47.1-109.57,108.25
		c11.56,61.15,32.77,95.23,109.57,108.25C286.57,377.27,265.22,411.21,253.81,472.5z M157.4,274.87v-44.18h6.44v44.18H157.4z
		 M180.08,269.75c2.34,0,3.07-2.05,3.07-6.29h6.58c0.29,7.46-2.34,12.14-9.07,12.14c-7.46,0-10.53-4.24-10.39-13.9v-8.78
		c-0.29-7.9,3.07-12.29,9.51-12.29c9.07,0,9.95,5.56,9.95,14.63v4.53h-13.02v4.83C176.71,269.02,178.18,269.75,180.08,269.75z
		 M202.02,247.52c0.73-2.34,1.61-3.8,2.49-4.68c1.9-1.76,3.07-1.76,4.1-1.76v9.07c-3.66-0.44-6.29,0.59-6.44,5.56v19.16h-6.44
		v-33.21h6.29V247.52L202.02,247.52L202.02,247.52z M220.16,269.75c1.9,0,3.22-1.61,2.78-3.66c-0.15-1.9-1.9-2.93-3.22-3.95
		l-3.51-2.93c-3.22-2.63-5.41-5.71-5.41-10.53c0-5.12,3.51-8.05,9.65-8.05c6.29,0,9.22,3.95,9.07,10.97h-6.44
		c0.15-3.66-0.73-5.12-3.07-5.12c-1.61,0-2.78,0.88-2.78,2.78c0,1.9,1.17,2.78,2.49,3.8l5.27,4.24c1.61,1.17,4.24,4.24,4.39,6.58
		c0.59,5.71-0.59,11.85-9.65,11.85c-3.51,0-9.95-1.76-9.22-11.85h6.44C216.65,269.9,218.7,269.75,220.16,269.75z M363.37,363.96
		c-11.56-61.15-32.77-95.23-109.57-108.25c76.8-13.02,98.16-47.1,109.57-108.25c11.56,61.15,32.77,95.23,109.57,108.25
		C396.29,268.73,374.93,302.67,363.37,363.96z"/>
	<path id="XMLID_15_" class="st2" d="M75.63,246.64c-2.19-1.61-3.95-2.93-3.95-6.29c0-3.07,1.46-4.1,3.8-4.1c3.8,0,4.1,3.95,4.1,7.9
		h6.73c0-4.39,0.29-14.48-10.97-14.48c-7.46,0-10.97,4.1-10.97,11.7c0,2.34,0.73,4.83,1.76,6.73c2.93,4.39,7.46,6.88,11.12,10.24
		c1.76,1.46,2.78,3.22,2.78,5.85c0,3.36-1.46,5.12-4.39,5.12c-3.51,0-4.53-3.07-4.39-7.46v-2.63h-6.88v3.22
		c0,7.9,3.07,13.46,11.41,13.46c6.88,0,11.56-4.39,11.56-12.73c0-3.8-0.73-6.44-3.22-9.22C82.21,251.61,77.97,248.39,75.63,246.64z"
		/>
	<path id="XMLID_14_" class="st2" d="M99.62,232.45l-6.58,6.44v2.78H90.4v5.56h2.63v22.53c0,6.14,5.41,5.71,9.22,5.27v-6
		c-0.73,0.15-2.63,0.29-2.78-1.17v-20.63h2.78v-5.56h-2.78L99.62,232.45L99.62,232.45z"/>
	<path class="st2" d="M115.71,240.64c-6.44,0-9.8,4.53-9.51,12.29v8.78c-0.15,9.8,2.93,13.9,10.39,13.9c6.58,0,9.22-4.68,9.07-12.14
		h-6.58c0.15,4.24-0.59,6.29-3.07,6.29c-1.9,0-3.36-0.88-3.36-5.27v-4.83h13.02v-4.53C125.81,246.2,124.78,240.64,115.71,240.64z
		 M119.22,253.95h-6.44v-1.32c0-3.07-0.15-6,3.07-6c2.63,0,3.36,1.02,3.36,4.39V253.95L119.22,253.95z"/>
	<path class="st2" d="M150.67,263.61h-6.44c0.15,4.24-0.59,6.29-3.07,6.29c-1.9,0-3.36-0.88-3.36-5.27v-4.83h13.02v-4.53
		c0-9.07-1.02-14.63-9.95-14.63c-6.44,0-9.8,4.53-9.51,12.29v8.78c-0.15,9.8,2.93,13.9,10.39,13.9
		C148.33,275.75,150.97,270.92,150.67,263.61z M137.8,252.49c0-3.07-0.15-6,3.07-6c2.63,0,3.36,1.02,3.36,4.39v2.93h-6.44
		L137.8,252.49L137.8,252.49z"/>
	<g id="XMLID_2_">
		<rect id="XMLID_9_" x="157.4" y="230.55" class="st2" width="6.44" height="44.18"/>
		<path id="XMLID_8_" class="st2" d="M160.62,252.64"/>
	</g>
	<path class="st2" d="M189.73,259.8v-4.53c0-9.07-0.88-14.63-9.95-14.63c-6.44,0-9.8,4.53-9.51,12.29v8.78
		c-0.15,9.8,2.93,13.9,10.39,13.9c6.73,0,9.22-4.68,9.07-12.14h-6.44c0.15,4.24-0.59,6.29-3.07,6.29c-1.9,0-3.36-0.88-3.36-5.27
		v-4.83L189.73,259.8L189.73,259.8z M176.71,252.49c0-3.07-0.15-6,3.07-6c2.63,0,3.36,1.02,3.36,4.39v2.93h-6.58L176.71,252.49
		L176.71,252.49z"/>
	<path id="XMLID_5_" class="st2" d="M195.58,241.52v33.21h6.44v-19.16c0.15-4.83,2.93-6,6.44-5.56v-9.07c-1.02,0-2.19,0-4.1,1.76
		c-1.02,0.88-1.76,2.34-2.49,4.68l0,0v-5.85L195.58,241.52L195.58,241.52z"/>
	<path id="XMLID_4_" class="st2" d="M210.65,263.9c-0.73,10.09,5.71,11.85,9.22,11.85c9.07,0,10.24-6,9.65-11.85
		c-0.15-2.19-2.78-5.41-4.39-6.58l-5.27-4.24c-1.32-1.02-2.49-1.9-2.49-3.8c0-1.9,1.17-2.78,2.78-2.78c2.19,0,3.22,1.46,3.07,5.12
		h6.44c0.15-7.17-2.78-10.97-9.07-10.97s-9.65,2.93-9.65,8.05c0,4.83,2.05,7.9,5.41,10.53l3.51,2.93c1.32,1.02,3.07,2.05,3.22,3.95
		c0.44,2.05-0.88,3.66-2.78,3.66c-1.46,0-3.51,0.15-3.07-6L210.65,263.9L210.65,263.9z"/>
	<path id="XMLID_3_" class="st3" d="M253.81,255.85c11.56-61.15,32.77-95.23,109.57-108.25c-76.8-13.02-98.16-47.1-109.57-108.25
		c-11.56,61.15-32.77,95.23-109.57,108.25C220.89,160.62,242.25,194.71,253.81,255.85L253.81,255.85L253.81,255.85z"/>
	<path id="XMLID_32_" class="st4" d="M253.81,255.85L253.81,255.85L253.81,255.85c-11.56,61.15-32.77,95.23-109.57,108.25
		c76.8,13.02,98.16,47.1,109.57,108.25c11.56-61.15,32.77-95.23,109.57-108.25C286.57,351.09,265.22,317.15,253.81,255.85z"/>
	<path id="XMLID_33_" class="st5" d="M363.37,147.31c-11.56,61.15-32.77,95.23-109.57,108.25c76.8,13.02,98.16,47.1,109.57,108.25
		c11.56-61.15,32.77-95.23,109.57-108.25C396.29,242.54,374.93,208.6,363.37,147.31z"/>
</g>
</svg>
