<?xml version="1.0" encoding="utf-8"?>
<!-- Generator: Adobe Illustrator 27.0.0, SVG Export Plug-In . SVG Version: 6.00 Build 0)  -->
<svg version="1.1" id="Layer_1" xmlns="http://www.w3.org/2000/svg" xmlns:xlink="http://www.w3.org/1999/xlink" x="0px" y="0px"
	 viewBox="0 0 512 512" style="enable-background:new 0 0 512 512;" xml:space="preserve">
<style type="text/css">
	.st0{fill:#FFFFFF;}
	.st1{fill:#0A0A09;}
	.st2{fill:#C6A463;}
	.st3{fill:#C81D3C;}
</style>
<g id="XMLID_1_">
	<ellipse id="XMLID_10_" class="st0" cx="256" cy="256" rx="256" ry="151.32"/>
	<ellipse id="XMLID_9_" class="st1" cx="255.43" cy="257.14" rx="248.18" ry="144.64"/>
	<ellipse id="XMLID_8_" class="st2" cx="256.57" cy="258.84" rx="216.46" ry="133.55"/>
	<ellipse id="XMLID_7_" class="st3" cx="257.14" cy="256.57" rx="199.25" ry="124.73"/>
	<path id="XMLID_6_" class="st1" d="M412.73,240.21h-0.57v-4.55h-3.98h-75.09c-1.71-8.96-6.83-17.21-14.08-23.61
		c-7.25-8.25-17.64-14.51-29.58-16.78l-4.98-1c-11.38-2.42-20.48-4.27-56.6-4.12c0,0-6.97-0.28-13.8-1.14
		c-1.71-0.43-3.27-1-4.55-1.56c0.57-2.99,5.97-7.11,12.23-7.96c0.71-0.14,39.82-7.4,80.21,18.77l1,0.57h26.6v-40.68h-4.55v-4.55
		h-36.41c0,0-4.27,3.27-6.12,4.69c-10.52-2.56-61.87-13.8-106.24,5.55c-18.63,7.68-30.15,22.19-29.44,36.98
		c0.43,7.4,3.98,13.94,10.1,18.92c4.55,5.69,11.66,10.1,20.91,12.8c13.08,3.84,24.18,5.4,34.99,5.97v1.28V257h4.55v4.55h13.8
		c5.69,0,7.25,3.13,7.54,4.41c-17.64-1.14-44.52-6.26-64.28-24.46l-0.71-0.85h-0.14c-1.14-1-2.13-2.13-3.27-3.27l-1.14-1.28h-19.91
		v57.74h4.55v4.55h16.21c2.42,0.14,9.96-0.71,15.08-15.93c8.39,2.99,29.3,9.24,54.9,9.96v35.98c-0.85,12.09-27.45,15.79-36.84,16.21
		l-3.84,0.14v17.92h4.55v4.55h116.76v-17.07l-2.99-0.85c-0.57-0.14-1-0.28-1.56-0.43v-3.98l-3.7-0.28
		c-6.54-0.57-11.66-1.71-15.5-3.13c-7.4-4.12-8.53-7.4-8.82-7.96v-19.2h34.28c3.56,0.57,6.68,2.13,9.39,4.12
		c4.98,6.12,7.11,12.94,7.25,13.08l0.85,2.84h2.99h0.14c0.43,1,0.57,1.71,0.57,1.71l0.85,2.84h2.99h15.5v-69.55h-3.98h-0.57v-4.55
		h-3.98h-14.36l-0.71,3.13c-4.84,23.04-31.57,22.76-55.32,19.34c4.69-1.28,9.39-2.84,13.94-4.69c12.66-5.12,22.33-11.95,28.16-20.05
		h51.34c3.56,0.14,6.68,1,9.24,2.7c5.4,7.96,4.84,19.48,4.84,19.63l-0.28,4.27h4.27h0.57c0,0.14,0,0.28,0,0.28l-0.28,4.27h4.27
		h16.78v-53.9L412.73,240.21L412.73,240.21z"/>
	<path id="XMLID_5_" class="st0" d="M330.95,254.58h42.52c24.32,0.71,22.47,31,22.47,31h12.23v-45.8h-73.39
		C334.79,239.79,334.65,250.03,330.95,254.58"/>
	<path id="XMLID_4_" class="st0" d="M244.48,293.69v35.27c-1.28,18.49-40.53,20.05-40.53,20.05v10.1h108.8v-10.1
		c-32.28-2.84-32.43-19.34-32.43-19.34V306.2H319c17.64,2.56,24.46,24.6,24.46,24.6h11.52v-61.58h-11.09
		c-7.68,37.12-64.57,20.34-68.69,21.33C274.92,290.56,260.98,293.97,244.48,293.69"/>
	<path id="XMLID_3_" class="st0" d="M278.33,233.1c14.79,4.27,16.21,15.64,7.54,26.17c-11.09,10.38-28.02,10.81-28.02,10.81
		s-56.89,6.12-90.17-29.72h-14.22v49.78h12.37c0,0,7.54,1.14,12.37-17.07c0,0,58.45,23.75,114.06,1.71
		c53.76-21.33,33.28-68.27-3.7-75.52c-14.22-2.84-19.91-5.26-60.73-4.98c0,0-7.4-0.28-14.51-1.14c-22.47-5.69-9.67-20.2,3.56-21.9
		c0,0,40.53-7.96,82.92,19.48h21.33v-32.85h-31l-6.54,4.98c0,0-57.6-16.07-105.53,4.84c-32.14,13.23-38.4,46.51-3.27,56.75
		c30.86,8.96,50.63,5.12,82.06,6.4C265.53,231.11,273.07,231.54,278.33,233.1"/>
	<path id="XMLID_2_" class="st0" d="M231.96,253.3h-14.79v-13.23c11.38,0,34.84,0.14,51.34,0c16.64,0,18.77,9.67,11.8,16.07
		c-6.54,6.12-20.48,10.52-36.84,7.54C243.48,263.68,242.2,253.3,231.96,253.3"/>
</g>
</svg>
