<?xml version="1.0" encoding="utf-8"?>
<!-- Generator: Adobe Illustrator 27.0.0, SVG Export Plug-In . SVG Version: 6.00 Build 0)  -->
<svg version="1.1" id="Layer_1" xmlns="http://www.w3.org/2000/svg" xmlns:xlink="http://www.w3.org/1999/xlink" x="0px" y="0px"
	 viewBox="0 0 512 512" style="enable-background:new 0 0 512 512;" xml:space="preserve">
<style type="text/css">
	.st0{fill:#12274B;}
	.st1{fill:#3997D3;}
	.st2{fill:#F0C818;}
</style>
<g id="XMLID_1_">
	<path id="XMLID_3_" class="st0" d="M231.7,117.39c5.55,5.69,16.35,20.48,16.35,20.48c-141.07-6.4-215.01,89.3-215.01,89.3
		l22.18,1.99c-72.24,96.27-52.9,164.96-52.9,164.96c53.33-72.67,88.31-117.32,179.6-151.87c0,0-8.82-13.79-14.22-19.91
		c130.26-11.8,252.7,66.84,252.7,66.84s-11.95-28.58-14.79-34.98c58.45,49.91,105.94,140.21,105.94,140.21
		C516.82,312.64,474.72,126.21,231.7,117.39z"/>
	<path id="XMLID_2_" class="st1" d="M502.17,360.7c-11.09-123.58-94.28-220.56-250.71-233.36l15.22,20.34
		c-147.89-10.95-212.6,72.38-212.6,72.38s9.95,1,18.63,1.71C5.02,301.69,9.29,368.95,9.29,368.95
		c51.05-67.97,89.16-100.96,158.84-130.83c0,0-8.25-12.23-19.48-22.33c130.83-19.34,253.69,53.75,253.69,53.75
		s-12.23-29.29-22.89-44.94C448.7,265.29,502.17,360.7,502.17,360.7z"/>
	<path id="XMLID_4_" class="st2" d="M266.82,136.16c3.98,5.4,8.25,10.95,14.65,19.77c-38.96-3.41-138.65-9.81-211.17,58.59
		c0,0,16.78,1.56,16.78,1.71c-25.03,26.59-61.57,82.76-69.25,130.83c55.18-73.95,107.22-97.27,139.5-111.63
		c-6.26-8.25-16.64-18.06-24.74-23.61c79.63-17.78,182.87,3.56,254.83,41.81c-7.25-16.07-18.91-32.56-27.59-46.93
		C430.36,236.84,477,308.8,491.79,331.55C483.82,291.74,447.56,156.93,266.82,136.16z"/>
</g>
</svg>
