<?xml version="1.0" encoding="utf-8"?>
<!-- Generator: Adobe Illustrator 27.0.0, SVG Export Plug-In . SVG Version: 6.00 Build 0)  -->
<svg version="1.1" id="Layer_1" xmlns="http://www.w3.org/2000/svg" xmlns:xlink="http://www.w3.org/1999/xlink" x="0px" y="0px"
	 viewBox="0 0 512 512" style="enable-background:new 0 0 512 512;" xml:space="preserve">
<style type="text/css">
	.st0{fill:#FFFFFF;}
	.st1{fill:#00295E;}
	.st2{fill:#4DBD38;}
	.st3{fill:#B2B7BB;}
</style>
<g id="XMLID_15_">
	<path id="XMLID_17_" class="st0" d="M429.06,328.54c-23.38-4.7-53.96-5.95-66.83-5.95H54.38c-19.09,0-39.02,0-49.12-15.63
		c-10.38-15.91-4.7-31.55,12.73-62.82c1.25-2.35,53.96-101.42,53.96-101.42s5.4,6.64,10.79,10.93c5.4,4.15,10.93,6.5,25.6,6.5
		c26.15,0,194.4-0.42,196.19-0.42c34.17,0,68.63,3.6,91.04,28.09c11.62,1.25,49.12,6.23,79.97,20.89
		c18.13,8.58,30.02,21.58,34.45,37.22c1.38,4.7,2.08,9.82,2.08,14.94c0,14.94-5.53,31.55-16.6,48.7
		c-23.24,36.39-44.55,49.12-45.52,49.81c-13.14,9.27-25.87,9.69-25.87,9.69s11.48-13.01,15.36-26.15
		C443.17,330.06,429.06,328.54,429.06,328.54z"/>
	<path id="XMLID_21_" class="st1" d="M471.54,216.74c-35.14-16.88-80.39-20.48-80.39-20.48c-19.79-24.07-53.13-27.67-86.75-27.67
		c0,0-169.77,0.42-196.19,0.42c-30.72,0-33.76-12.18-33.76-12.18L33.21,233.9c0,0,73.33,0,106.95,0s35.42-3.32,57.7-19.79
		c23.66-17.43,42.61-23.8,65.03-23.8s37.22,4.98,62.12,16.05c24.9,11.07,38.19,16.46,52.99,10.1c0,0-11.62,15.77-47.04,0.97
		c-35.28-14.8-44.83-17.99-66.27-17.99c-21.17,0-45.38,10.1-75.82,40.54l36.25,29.06c0,0-8.44,12.87-13.84,21.17
		c-5.53,8.3-4.98,13.84-2.08,17.85c2.91,4.01,6.64,5.81,20.06,5.81c13.42,0,120.79-0.28,132.83-0.28c10.52,0,43.17,0.97,68.63,6.09
		c33.9,6.78,12.04,35.28,12.04,35.28s22.69-14.94,45.11-50.09C512.91,265.86,506.82,233.62,471.54,216.74z"/>
	<path id="XMLID_22_" class="st0" d="M409.41,223.11c-16.05-3.87-2.35-13.14-2.35-13.14c-23.11,4.7-31.68,23.52-33.62,28.64
		c-0.42,0.69-0.69,1.38-1.11,2.21c-12.73,25.6-24.21,24.21-45.94,24.21c-8.86,0-22.14,0-37.22,0c-30.16,0-44.28,14.94-58.66,40.4
		h17.02c15.63-23.24,27.4-29.47,58.11-31.27c70.43,0,126.6,20.2,156.35,35.7C504.05,239.3,441.37,227.54,409.41,223.11z"/>
	<path id="XMLID_23_" class="st0" d="M278.25,305.43c7.89-11.9,23.94-15.91,49.67-14.53c63.78,3.74,100.45,16.05,128.81,26.7
		c-35.14-20.62-97.68-35.42-141.13-35.28c-21.31,0-39.85,3.74-50.78,22.97h13.42V305.43z"/>
	<path id="XMLID_24_" class="st0" d="M346.74,235.15c-8.3,11.62-19.23,15.5-50.22,13.42c-36.11-2.49-26.84-17.71-22.55-25.18h-0.14
		c1.11-2.08,3.18-5.67,5.12-9.27c-27.67-1.66-47.87,19.65-47.87,19.65c20.62,20.34,34.31,22.55,52.99,22.55c6.5,0,15.63,0,34.87,0
		c32.38,0,40.26-14.53,43.17-21.03C356.56,235.7,351.44,235.7,346.74,235.15L346.74,235.15z"/>
	<path id="XMLID_25_" class="st2" d="M330.96,231.69c-0.69-0.28-1.38-0.55-2.08-0.83c-3.18,3.32-8.72,5.26-13.97,4.57
		c-7.06-0.83-11.07-5.95-8.99-11.35c0.28-0.83,0.69-1.52,1.25-2.21c-3.6-1.38-7.19-2.77-10.65-4.01
		c-7.19,11.62-11.35,19.37,13.56,21.45c15.5,1.38,19.79-1.38,22.97-6.92C332.21,232.1,331.65,231.96,330.96,231.69z"/>
	<path id="XMLID_26_" class="st3" d="M205.75,275.82c-12.87,22.28-17.99,27.4-8.99,38.05c0,0-116.5,0-142.51,0
		c-21.03,0-34.73-0.83-41.65-11.62c-6.78-10.52-5.4-20.62,13.01-53.68c0,0,100.31,0,121.2,0s26.29,1.25,37.5,9.96
		C195.65,267.25,205.75,275.82,205.75,275.82z"/>
</g>
</svg>
