<?xml version="1.0" encoding="utf-8"?>
<!-- Generator: Adobe Illustrator 27.0.0, SVG Export Plug-In . SVG Version: 6.00 Build 0)  -->
<svg version="1.1" id="Layer_1" xmlns="http://www.w3.org/2000/svg" xmlns:xlink="http://www.w3.org/1999/xlink" x="0px" y="0px"
	 viewBox="0 0 512 512" style="enable-background:new 0 0 512 512;" xml:space="preserve">
<style type="text/css">
	.st0{fill:#B1BABF;}
	.st1{fill:#D50A0A;}
	.st2{fill:#FF7900;}
	.st3{fill:#FFFFFF;}
</style>
<g id="XMLID_1_">
	<path id="XMLID_3_" class="st0" d="M491.57,28.37c0,0,1.12,21.88-2.95,41.8c-3.93,19.36-6.17,26.65-6.17,26.65
		c-8.42,4.91-22.02,11.08-42.08,14.31c-37.17,6.17-70.97-3.79-107.86-18.23s-86.26-30.02-132.12-24.83
		c-44.46,5.05-76.16,23.14-93.13,34.78c-16.83,11.78-20.06,14.87-34.5,18.93c0,0,11.36,4.49,17.25,4.49c0,0-2.81,11.36-1.68,15.15
		c0,0,24.12-11.08,26.93-5.89s-8.56,8.7-16.55,10.66c-7.99,2.1-28.61,1.68-28.61,1.68s9.68,7.57,13.18,12.76
		c0,0-18.23,7.99-38.71,5.19c0,0-0.7,7.57,15.99,19.92c-3.51,1.26-8.14,3.37-10.8,6.31c0,0,17.53-3.65,28.47,8.7
		c2.95,3.65,3.79,6.87,3.51,10.94c-0.56,7.43-3.51,10.24-10.52,14.87c-4.07,1.68-8.28,3.65-12.34,6.17
		c-19.36,11.92-33.52,30.02-43.48,50.77c-4.35,8.98-7.71,19.36-10.24,28.89c-2.38,9.54-3.37,17.95-3.93,23.28
		c-0.56,5.19-1.4,21.88-1.4,21.88s8.7-12.2,12.76-17.95c4.07-5.75,29.73-38.15,67.18-47.55c11.92-3.09,23.84-4.35,35.35-4.35
		c27.35,0,51.9,7.43,66.34,14.45c21.04,10.24,55.54,34.22,100.85,41.66c10.66,1.82,22.16,2.66,34.08,2.66
		c11.5,0,23.28-0.84,35.06-2.38c-6.73,9.96-13.04,19.36-19.22,27.91c-6.17-5.89-14.59-6.45-14.59-6.45
		c-10.1-0.98-15.29,5.19-15.29,5.19c-2.1,2.24-3.65,5.05-4.21,8.56c-0.7,3.09,0.14,6.87,0.7,8.7c1.96,6.17,7.15,8.98,9.26,9.82
		c-14.87,19.78-19.22,42.5-19.22,42.5l-6.73,6.03l2.38,9.96c-3.79,12.2,2.1,21.32,9.82,25.11c7.85,3.79,15.15,1.54,15.15,1.54
		c4.63-1.26,8.7-4.21,11.5-8.42c0.42-0.7,0.84-1.26,1.12-1.96c1.54-0.84,2.95-1.82,4.07-2.81c2.1,0.28,7.57,0.42,7.57,0.42
		c11.22-0.14,22.16-3.23,30.58-10.38c6.59-5.89,13.89-15.99,14.17-29.73c0-2.52,0.42-13.04-8.14-22.02
		c54.28-79.67,89.49-131,111.93-183.18C542.62,86.57,491.85,28.79,491.57,28.37"/>
	<path id="XMLID_4_" d="M496.06,52.21c-0.56,28.89-8.56,48.95-8.56,48.95c-11.36,6.73-26.65,14.03-44.32,16.55
		c-36.75,5.47-54.84,0-88.92-10.94s-85.14-34.36-137.59-34.08c-52.46,0.28-89.91,23.14-123.43,48.95c0.56-0.14,8.7-2.66,11.78-3.65
		c0,0-7.85,9.26-10.24,14.31c0,0,15.57-11.64,37.03-10.38c0,0-7.43,1.82-10.52,6.59c0,0,8.7-1.82,10.24,1.54
		c1.54,3.37-3.79,11.22-13.32,15.57c-9.68,4.35-25.11,7.71-35.06,8.42c0,0,9.96,3.09,16.41,9.26c0,0-7.57,1.12-15.85,4.35
		c-6.87,2.66-19.22,4.35-24.55,3.79c0,0,7.29,6.73,15.85,12.06c25.25,15.71,14.59,38.85,6.45,46.43
		c-5.33,1.54-61.01,16.69-73.78,106.6c0,0,28.19-39.41,70.97-50.21c42.78-10.94,84.16,0,105.9,10.66
		c21.74,10.66,55.4,33.94,99.16,41.24c24.12,3.93,53.02,3.23,81.07-2.1c-0.42,0.7-21.88,32.54-31,45.3c0,0-6.87-8.56-16.13-9.4
		c0,0-3.93-0.84-7.01,0.84l0,0c-2.81,1.26-5.19,4.07-5.89,7.85c-0.84,3.79,0.56,6.87,2.38,8.98c1.68,1.96,3.93,3.09,5.61,3.51
		c1.54,0.42,3.79,1.4,4.21,3.37c-4.21,6.45-9.96,15.85-14.17,24.97c-3.23,7.15-4.77,13.32-6.17,17.39
		c-1.26,4.21-2.38,5.89-2.66,6.03l-4.49,3.93c0,0,1.68,6.87,2.24,7.99c-1.12,2.1-1.54,4.35-1.68,6.59v0.14
		c0,4.63,2.24,9.26,6.45,11.92c3.23,2.24,7.99,2.38,7.99,2.38c4.63,0,9.26-2.24,11.92-6.45c0.7-0.98,1.12-2.1,1.54-3.09
		c3.37-1.4,5.33-3.23,6.45-4.77c2.52,0.56,9.68,0.84,9.96,0.84c10.1-0.14,19.64-2.95,26.65-8.98c5.61-5.05,11.78-13.61,11.92-25.11
		c0-2.1,0.56-12.9-9.82-21.46c8.98-13.04,20.06-29.17,31.7-46.71c21.6-32.68,39.27-61.15,52.74-84.86
		c14.03-24.12,58.07-90.47,57.93-181.21C505.45,69.18,496.06,52.21,496.06,52.21L496.06,52.21z"/>
	<path id="XMLID_5_" class="st1" d="M422.7,127.39c-50.63-0.28-105.47-28.75-154.14-39.69c-102.53-22.86-152.18,30.72-152.18,30.72
		s16.55-6.03,24.97-0.56c9.12,5.89,1.12,21.18-1.82,24.26c-8.42,8.7-20.48,15.29-33.8,15.29c0,0,14.17,3.37,18.65,7.57
		c0,0-13.04,1.68-20.2,4.21c-7.15,2.52-21.18,6.59-24.26,6.59c0,0,36.75,16.83,14.03,52.74c0,0,15.99-2.38,29.31,3.93
		c0,0-72.93-11.78-97.62,68.73c9.26-7.71,38.43-28.33,84.02-28.47c54.84-0.28,78.4,12.34,100.29,25.53
		c33.24,20.2,58.35,26.09,77.42,29.73c54.84,10.24,109.96-8.28,133.81-19.36c69.29-106.18,77.28-166.21,78.4-208.99
		C477.26,122.06,439.67,127.53,422.7,127.39"/>
	<path id="XMLID_6_" class="st1" d="M422.7,126.97c-50.49-0.28-105.33-28.75-154-39.69c-18.09-4.07-34.5-5.75-49.37-5.75
		c-34.64,0-60.45,9.12-77.56,18.23c-8.56,4.49-15.01,9.12-19.22,12.48c-2.1,1.68-3.79,3.09-4.77,4.21
		c-0.56,0.56-0.98,0.84-1.26,1.12l-0.28,0.28l-0.14,0.14l0,0l0,0l0.14,0.14l-0.14-0.14l0,0l0.14,0.14l-0.14-0.14l0.28,0.28
		l-0.28-0.28l0,0l0.28,0.28l-0.28-0.28l0.28,0.28l-0.28-0.28l0,0l0.28,0.28l-0.28-0.28l0.28,0.28l0.28,0.28l-0.28-0.28l0.14,0.42
		l0.14-0.14l-0.28-0.28l0.14,0.42l-0.14-0.28l0.14,0.42l0,0l-0.14-0.28l0.14,0.42c0.14,0,7.99-2.81,15.43-2.81
		c3.37,0,6.73,0.56,9.26,2.24c2.95,1.96,4.07,4.91,4.07,8.14c0,6.31-4.07,13.61-5.89,15.43c-8.28,8.7-20.34,15.15-33.52,15.15
		l-0.14,0.84c0,0,0.84,0.14,2.24,0.56c4.21,1.12,13.04,3.93,16.27,6.87l0.28-0.28v-0.42c0,0-13.18,1.68-20.34,4.21
		c-3.51,1.26-8.84,2.81-13.61,4.21c-4.77,1.26-9.12,2.38-10.52,2.24l-0.14,0.84c0,0,0.28,0.14,0.84,0.42
		c1.96,1.12,7.15,4.07,11.64,8.98c4.63,4.91,8.56,11.78,8.56,20.62c0,6.31-1.96,13.61-7.43,22.16l-0.56,0.84l0.84-0.14
		c0,0,0.7-0.14,2.1-0.28c1.26-0.14,3.23-0.28,5.33-0.28c5.89,0,14.17,0.84,21.6,4.35l0.14-0.42v-0.42c0,0-3.79-0.56-9.82-0.56
		c-10.38,0-27.63,1.82-44.74,11.36c-17.11,9.54-33.94,27.07-43.48,58.21l-0.42,1.26l1.12-0.84c9.26-7.57,38.43-28.19,83.73-28.33
		c0.56,0,0.98,0,1.54,0c53.72,0,76.86,12.48,98.46,25.53c33.24,20.2,58.49,26.23,77.56,29.73c11.22,2.1,22.58,2.95,33.52,2.95
		c42.78,0,81.49-13.46,100.57-22.3h0.14v-0.14c69.29-106.18,77.42-166.35,78.55-209.27v-1.12l-0.7,0.7
		c-21.74,22.16-58.77,27.77-75.88,27.77H422.7v0.84h0.42c17.25,0,54.42-5.61,76.72-28.05l-0.28-0.28h-0.42
		c-1.12,42.78-9.12,102.67-78.4,208.85l0.28,0.28l-0.14-0.42c-18.93,8.84-57.65,22.3-100.15,22.3c-10.94,0-22.16-0.84-33.38-2.95
		c-19.08-3.51-44.18-9.54-77.28-29.59c-21.6-13.04-45.02-25.67-98.88-25.67c-0.56,0-0.98,0-1.54,0c-45.58,0.28-74.9,20.9-84.3,28.61
		l0.28,0.28l0.42,0.14c9.54-31,26.23-48.25,43.06-57.79s33.94-11.22,44.32-11.22c3.09,0,5.47,0.14,7.15,0.28
		c1.68,0.14,2.52,0.28,2.66,0.28l0.28-0.84c-7.57-3.65-16.13-4.49-22.02-4.49c-4.49,0-7.57,0.42-7.57,0.42v0.42l0.42,0.28
		c5.47-8.56,7.57-16.13,7.57-22.58c0-10.52-5.47-18.23-10.8-23.28c-5.47-5.05-10.8-7.57-10.8-7.57l-0.14,0.42v0.42
		c1.68,0,5.89-0.98,10.66-2.38c4.77-1.26,10.1-2.95,13.61-4.21c3.51-1.26,8.56-2.24,12.76-2.95s7.43-1.12,7.43-1.12l0.84-0.14
		l-0.7-0.56c-2.38-2.24-7.15-4.07-11.22-5.47c-4.07-1.4-7.71-2.24-7.71-2.24l-0.14,0.42v0.42c13.46,0,25.67-6.59,34.22-15.29
		c1.96-2.1,6.17-9.4,6.17-15.99c0-3.37-1.12-6.73-4.35-8.84c-2.66-1.82-6.17-2.38-9.68-2.38c-3.93,0-7.85,0.7-10.8,1.4
		c-1.54,0.42-2.66,0.7-3.65,0.98c-0.42,0.14-0.84,0.28-0.98,0.28l-0.28,0.14h-0.14l0,0l0,0l0,0l0,0l-0.14,0.14l0.56,0.56l0,0
		c0,0,33.66-36.19,102.67-36.19c14.73,0,31.14,1.68,49.09,5.61c48.53,10.8,103.37,39.27,154.14,39.69L422.7,126.97L422.7,126.97z"/>
	<path id="XMLID_7_" d="M346.12,238.61c-22.44,6.03-43.9,7.71-58.21,8.14l-0.7-0.56c3.51-0.7,6.73-2.1,9.54-4.35
		c7.15-5.75,15.01-10.1,20.34-14.31s10.24-16.97,10.24-16.97c8.84-3.37,15.01-15.57,15.01-15.57s-1.4-2.66-1.54-5.89
		c-0.14-3.23,4.91-8.84,10.24-18.51c5.33-9.82,6.45-23.14-2.24-37.87c-8.7-14.59-32.68-22.16-32.82-22.16
		c-0.28-0.14-23.84-8.56-39.55-2.1c-15.85,6.45-23,17.81-24.69,28.75c-1.68,10.94-0.98,18.37-3.09,21.04
		c-2.1,2.52-4.77,3.79-4.77,3.79s-2.52,13.32,2.52,21.32c0,0-3.79,13.18-2.1,19.64c1.68,6.59,5.33,14.73,7.57,23.7
		c0.84,3.65,2.66,6.73,5.19,9.4c-0.28,0-0.56,0-0.7,0c-11.22-8.98-27.35-23.28-41.66-41.8c-25.11-32.4-33.38-83.73-33.38-83.73
		c-11.08,30.16-13.89,40.82-4.77,69.43s36.47,56.1,36.47,56.1c-0.7,1.54,0.28,4.49,0.28,4.49s-4.07-1.26-16.13-1.26
		s-9.82,1.26-13.46,1.12c-3.65-0.14-4.77-1.68-4.77-1.68c-1.82,0.98-3.65,3.09-3.65,3.09c-1.82,0.14-10.38,1.12-9.54,9.68
		c0.98,8.56,9.82,7.99,9.82,7.99c1.54,1.82,3.93,2.66,3.93,2.66s5.19,13.89,20.34,14.45c13.18,0.56,17.39-7.43,18.23-9.54
		c0.28,0.84,0.7,1.68,1.12,2.52c2.66,5.47,6.73,11.5,12.34,16.97c5.47,5.47,12.48,10.38,21.04,13.18
		c12.9,4.35,25.81,2.95,35.91-0.28c3.79-1.12,7.43-2.66,10.8-4.63c-0.56,2.81-1.26,11.08,8.98,18.09c12.48,8.56,24.97,0.7,24.97,0.7
		s2.38,0.84,4.77,0.28c0,0,6.73,5.75,12.62-0.42c5.89-6.17-0.42-12.2-1.68-13.46c0,0-0.14-2.81-0.98-4.63c0,0-1.68,0.56-4.77-1.54
		c-3.09-2.1-0.42-1.68-10.1-8.98c-9.68-7.29-13.61-8.7-13.61-8.7s2.52-1.68,2.95-3.37c0,0,38.43-5.33,62.98-22.72
		c24.55-17.39,28.75-27.49,38.15-58.35C423.12,191.91,385.53,227.95,346.12,238.61"/>
	<path id="XMLID_8_" class="st2" d="M270.94,244.36c-20.9-7.01-43.62,3.37-48.53,9.68c-0.14,0.28-0.42,0.56-0.56,0.84v0.14
		c1.4-1.26,3.09-1.4,3.09-1.4c-2.52,1.26-2.52,3.79-1.96,4.77c3.79,9.26,15.57,24.41,33.24,30.3c18.09,6.03,36.75,1.12,45.16-4.07
		c0.98-0.7,2.24-2.38,0.98-4.77c0,0,0.98,0.98,1.54,2.66c0.28-1.54-0.14-3.79-0.98-6.45C299.41,265.82,288.19,250.12,270.94,244.36"
		/>
	<path id="XMLID_9_" class="st2" d="M271.08,243.94c-5.05-1.68-10.1-2.38-15.01-2.38c-7.99,0-15.43,1.82-21.46,4.21
		s-10.52,5.47-12.48,7.85c-0.28,0.28-0.42,0.56-0.56,0.84v0.14l0.7,0.56c0.7-0.56,1.4-0.84,1.96-1.12c0.28-0.14,0.56-0.14,0.7-0.14
		h0.28v-0.42l-0.14-0.42c-1.96,0.84-2.52,2.52-2.52,3.79c0,0.56,0.14,1.12,0.28,1.4l0.42-0.14l-0.42,0.14
		c3.79,9.4,15.57,24.55,33.52,30.58c6.03,1.96,12.06,2.81,17.81,2.81c11.64,0,22.02-3.37,27.77-7.01l0,0l0,0
		c0.7-0.56,1.68-1.68,1.68-3.23c0-0.7-0.14-1.4-0.56-2.1l-0.42,0.14l-0.28,0.28l0.14,0.14c0.28,0.28,0.84,1.12,1.26,2.24h0.84
		c0-0.28,0-0.7,0-1.12c0-1.54-0.42-3.37-1.12-5.47C299.69,265.54,288.47,249.83,271.08,243.94l-0.28,0.84
		c17.11,5.75,28.33,21.32,31.56,31.14c0.7,2.1,0.98,3.93,0.98,5.19c0,0.28,0,0.7,0,0.98h0.42l0.42-0.14
		c-0.56-1.68-1.54-2.81-1.54-2.81l-0.7,0.42c0.28,0.7,0.42,1.26,0.42,1.68c0,1.26-0.7,2.1-1.4,2.52l0.28,0.28l-0.28-0.42
		c-5.61,3.51-15.85,6.87-27.35,6.87c-5.61,0-11.64-0.84-17.53-2.81c-17.53-5.89-29.31-20.9-32.96-30.02l0,0l0,0
		c-0.14-0.28-0.14-0.7-0.14-1.12c0-0.98,0.42-2.24,2.1-3.09l-0.28-0.84c0,0-1.68,0.28-3.37,1.54l0.28,0.28l0.42,0.14v-0.14l0,0
		c0.14-0.28,0.28-0.56,0.56-0.7c1.82-2.24,6.31-5.33,12.2-7.71s13.32-4.21,21.18-4.21c4.77,0,9.82,0.7,14.73,2.38L271.08,243.94
		L271.08,243.94z"/>
	<path id="XMLID_22_" class="st3" d="M294.5,113.36c-23.28-0.28-28.05,18.65-28.05,23.56c-0.14,3.93,0.14,6.73,0,8.28
		c2.38-0.98,4.63-2.24,6.31-3.93c-0.42,0.42-7.01,7.99-14.03,8.7c0,0-1.54,6.73-3.37,10.1c-1.82,3.37-5.47,5.75-5.47,5.75
		c-0.28,4.77,2.24,11.78,5.19,13.32c2.95,1.4,10.66,4.07,13.61,7.43c2.95,3.37,3.09,7.01,2.38,9.68c-0.28,1.12-0.7,2.38-1.12,3.23
		h0.28c0.7,0.28,0.98,0.7,0.98,0.84c0,0-0.28,0.14-0.56,0.56c-0.28,0.42-0.7,1.4-0.84,1.68c-0.42,0.98-0.7,1.82-1.12,2.95v0.14
		c-0.28,0.98,0.7,1.4,0.7,1.4h0.14c0.84,0.14,1.68,0.28,2.52,0.56c0,0,1.26,0.28,1.68-0.84c0.42-1.12,0.7-2.1,1.12-3.23l0.14-0.14
		l0,0v-0.14c0,0,0.28-0.84,0.42-1.26c0.14-0.42,0.56-1.26,0.98-1.26c0.42,0,0.98,0.28,0.98,1.12c0,0.84-0.28,1.54-0.28,1.54v0.14
		c-0.42,1.4-1.26,4.35-1.26,4.35c-0.42,1.12,0.84,1.54,0.84,1.54c0.7,0.28,1.82,0.42,2.66,0.7h0.14c0,0,0.98,0.28,1.26,0.14
		c0.28-0.14,0.56-0.7,0.7-0.84c0-0.14,1.26-4.63,1.4-5.05c0.14-0.42,0-1.12-0.14-1.54c0,0,1.26,0.28,1.82,0.42
		c0.56,0.14,1.26,0.42,1.54,0.7c-0.56,0.28-0.84,1.12-0.98,1.26l0,0c-0.14,0.28-0.14,0.56-0.28,0.84c-0.42,1.26-0.98,2.81-1.4,3.93
		c0,0.28-0.14,1.12,0.84,1.54h0.14c0.84,0.28,1.82,0.7,2.52,0.98c0,0,0.28,0.14,0.56,0.14c0.42,0,0.84-0.14,0.98-0.7
		c0.14-0.56,0.56-1.82,0.98-3.09c0.42-1.12,0.7-2.24,0.7-2.38l0.42-0.84c0.42,0,0.7,0,0.98,0.14c0.28,0.14,0.7,0.56,0.84,0.7
		c-0.28,0.42-0.56,1.4-0.7,1.96c-0.14,0.42-0.56,2.52-0.84,3.51l-0.14,0.28v0.14v0.14c-0.14,0.98,0.84,1.54,0.84,1.54
		c0.84,0.42,1.68,0.84,2.38,1.12h0.14c0,0,0.98,0.28,1.4-0.7v-0.14c0.28-1.12,0.56-1.96,0.84-2.95c0.14-0.28,0.14-0.56,0.28-0.84
		v-0.28c0-0.14,0.14-0.56,0.14-0.98v-0.42c0,0,0.56,0.28,1.26,0.56c0.28-2.24,1.26-3.93,1.26-3.93c0.28-0.56,0.56-0.98,0.84-1.26
		l0,0c1.26-2.1,3.37-4.21,7.01-4.91c4.49-0.98,12.2,1.68,15.29,2.24c2.81,0.56,7.99-2.52,11.08-6.03c0.56-0.84,0.98-1.4,0.98-1.4
		s-1.54-4.07-0.98-7.85c0.56-3.79,3.37-10.24,3.37-10.24c-5.33-5.05-5.89-15.43-5.89-15.43c0.28,2.1,1.12,4.21,2.24,6.17
		c0.98-1.4,2.66-3.37,4.77-6.03c1.4-1.96,4.07-7.43,4.07-14.03c0-7.57-3.37-16.55-15.57-23.98l-0.14-0.14l-0.42-0.28
		c-1.54-0.98-3.09-1.82-4.63-2.52c-0.7-0.28-1.26-0.56-1.96-0.84c-0.7-0.28-1.26-0.56-1.82-0.7c-0.42-0.14-0.84-0.28-1.26-0.42
		c-0.28-0.14-0.56-0.28-0.84-0.28c-0.98-0.28-1.68-0.56-2.24-0.84l-0.28-0.14c-1.12-0.42-5.61-1.68-11.08-2.81
		C299.41,113.64,296.89,113.36,294.5,113.36L294.5,113.36z M179.77,132.72c0,0-3.37,21.04,12.9,50.77l1.12,2.1
		c0.7,1.26,1.68,2.95,2.95,4.91c5.89,9.4,13.75,19.64,24.26,30.16c0,0,13.04,12.9,18.65,17.81c2.1-0.56,4.35-1.12,6.73-1.4
		c-7.71-6.45-15.43-13.46-22.3-21.04C188.75,177.74,182.02,142.26,179.77,132.72L179.77,132.72z M253.83,196.54
		c-1.12,0-2.52,0.14-3.23,0.84c0,0,0.98,5.33,3.51,9.96c2.52,4.63,5.61,12.76,6.87,16.13c0.42,1.4,1.4,2.95,2.95,4.49
		c2.1-1.12,7.15-0.84,12.62,1.12c5.19,1.82,9.4,4.35,10.52,6.45c1.82-0.28,3.37-0.98,4.49-1.68c2.95-1.96,10.24-6.59,15.15-8.7
		c4.91-2.1,8.84-5.75,8.84-5.75c-0.42-1.68-2.81-3.23-3.51-3.65c-0.42,0.14-2.38,0.42-3.37,1.12c-1.12,0.84-5.05,6.73-10.38,8.98
		c0.56-2.95-1.4-4.49-1.96-4.49c-0.42,0-0.84,1.26-0.98,1.54c-0.14,0.28-1.12,2.24-1.4,3.23c-0.28,0.98-0.28,0.98-0.28,0.98
		c-0.84,0-1.68-0.14-2.52-0.14c0.84-1.54,1.54-3.09,2.24-4.49c0.42-1.26-0.84-1.54-0.84-1.54l0,0c-0.7-0.14-1.54-0.28-2.24-0.42
		h-0.14c-0.98-0.14-1.54,0.42-1.68,0.84l-0.28,0.7c-0.28,0.84-0.7,1.68-1.12,2.52v0.14c-0.42,0.98,0,1.96,0,1.96
		c-0.28,0-0.98,0-2.1-0.28c-0.56-0.14-1.26-0.42-1.26-0.42c0.42-0.28,0.7-0.98,0.7-0.98l0,0c0.7-1.82,1.96-4.63,1.96-4.63
		s0.42-1.26-0.28-1.4c-1.12-0.28-2.1-0.56-3.23-0.84c-0.84-0.14-1.12,0.56-1.26,0.7c-0.14,0.42-0.42,1.12-0.56,1.4
		c-0.42,1.12-0.84,2.38-1.26,3.51l0,0c-0.28,0.7,0,1.4,0,1.4s-0.98-0.28-1.54-0.42c-0.56-0.14-1.4-0.7-1.4-0.7
		c0.14-0.14,0.28-0.56,0.42-0.7c0.56-1.68,0.98-3.93,1.4-5.75c0-0.28,0-0.98-0.7-1.26c-0.84-0.28-1.82-0.7-2.66-0.98
		c-0.84-0.28-1.12,0.42-1.26,0.84c-0.42,1.68-0.84,3.65-0.98,5.05c-0.14,0.98,0.28,1.68,0.28,1.68c-0.42-0.14-1.26-0.42-1.96-0.7
		c-0.42-0.14-1.4-0.84-1.4-0.84c0.56,0,0.84-1.12,0.84-1.12c0.56-1.12,0.98-2.24,1.4-3.23v-0.14v-0.14
		c0.42-1.12-0.42-1.82-0.56-1.96c-1.12-0.56-2.52-1.26-2.52-1.26c-0.7-0.42-1.12,0.14-1.26,0.56c-0.42,1.26-1.26,2.52-1.4,3.93
		c-0.14,0.84,0,1.4,0,1.4c-1.54-0.7-2.24-1.96-2.24-1.96c0.42-0.42,0.84-2.1,0.84-3.65s0.14-2.95-0.56-3.37
		c-0.7-0.56-1.82,0.7-2.52,1.68c-0.56,0.84-0.7,1.4-0.7,1.4v0.14c-2.81-4.91-2.38-12.06-2.81-13.46c-0.42-1.26-2.1-3.09-2.1-3.09
		S254.95,196.54,253.83,196.54L253.83,196.54z M411.06,210.28c0,0.14-1.4,1.12-3.51,2.81c-0.84,0.7-1.82,1.54-2.95,2.38
		c-12.2,9.68-37.73,26.93-79.11,34.5c-10.1,1.82-20.34,2.81-30.3,3.23c1.68,1.68,3.09,3.37,4.49,5.19c0,0,4.35-0.28,4.91-0.42
		c7.57-0.7,15.01-1.54,22.44-2.95c18.37-3.37,32.26-7.99,38.85-10.52c1.54-0.56,3.09-1.26,4.49-1.82
		C403.06,228.8,410.78,210.84,411.06,210.28L411.06,210.28z M196.18,245.35c-2.38,0-4.77,0.28-7.15,0.56
		c-2.1,0.28-4.07,0.7-6.03,0.7c-0.56,0-1.26,0-1.82-0.14c-0.56-0.14-1.12-0.28-1.54-0.42c0,0.14,1.12,4.91,7.43,4.91l0.28-0.56
		c0.56-1.12,1.82-2.24,2.95-2.95l0,0c1.96-1.12,5.05-1.82,6.87-1.96C197.3,245.49,196.6,245.35,196.18,245.35L196.18,245.35z
		 M197.58,245.49c-1.68,0.28-3.65,0.98-5.05,1.82c-1.54,0.98-2.66,2.38-3.23,3.51c5.33-0.56,15.29-0.56,17.81,0l0,0
		c1.4-2.24,3.65-3.37,5.19-3.79c-2.66-0.42-5.61-0.7-8.28-0.98c-1.26-0.14-2.66-0.14-3.93-0.28
		C199.13,245.49,198.29,245.49,197.58,245.49L197.58,245.49z M252.15,250.26c-0.7,0.84-1.4,1.82-2.1,2.66
		c-0.7-0.14-1.4-0.14-2.1-0.28l-0.28,0.28c-0.56,0.84-1.26,1.54-1.82,2.38c-0.14,0.28-0.42,0.56-0.56,0.84
		c0.84,0.14,1.68,0.28,2.52,0.42c-0.84,1.54-1.54,3.09-1.96,4.77c1.26,0.14,2.66,0.42,3.93,0.56c0.56-1.54,1.12-3.09,1.96-4.49
		c1.4,0.28,2.66,0.56,4.07,0.98c-0.7,1.4-1.26,2.95-1.82,4.35c1.26,0.28,2.52,0.56,3.79,0.98c0.56-1.4,1.12-2.95,1.68-4.35
		c1.26,0.42,2.66,0.84,3.93,1.26c-0.56,1.4-0.98,2.81-1.54,4.35c1.26,0.42,2.52,0.84,3.79,1.26c0.42-1.4,0.98-2.95,1.4-4.35
		c1.26,0.42,2.66,0.98,3.93,1.4c-0.42,1.54-0.84,2.95-1.26,4.49c1.26,0.56,2.38,0.98,3.65,1.54c0.42-1.54,0.84-3.09,1.26-4.63
		c1.26,0.56,2.52,1.12,3.79,1.68c-0.28,1.68-0.7,3.23-1.26,4.77c1.12,0.56,2.38,1.26,3.51,1.96c0.56-1.68,0.98-3.37,1.26-5.05
		c0.7,0.42,1.54,0.7,2.24,1.12c0-0.28,0-0.56,0-0.84c0-0.98,0-1.96,0-2.95v-0.56c-0.56-0.42-1.26-0.7-1.96-1.12
		c0-1.12,0-2.24,0-3.37c-1.12-0.56-2.1-1.12-3.23-1.68c0,1.12-0.14,2.24-0.14,3.37c-1.12-0.56-2.38-1.12-3.65-1.68
		c0.14-1.12,0.28-2.24,0.42-3.23c-0.98-0.42-2.1-0.98-3.09-1.4c-0.14,1.12-0.42,2.1-0.7,3.23c-1.12-0.42-2.38-0.98-3.65-1.4
		c0.28-1.12,0.56-2.1,0.98-3.23c-0.98-0.42-2.1-0.7-3.09-0.98c-0.42,0.98-0.84,2.1-1.12,3.09c-1.26-0.42-2.52-0.7-3.79-1.12
		c0.42-0.98,0.98-1.96,1.4-2.95c-1.12-0.28-2.1-0.56-3.23-0.7c-0.56,0.98-1.12,1.96-1.68,2.95c-1.26-0.28-2.66-0.56-3.93-0.84
		c0.56-0.98,1.26-1.96,1.96-2.81C254.53,250.54,253.41,250.4,252.15,250.26L252.15,250.26z M316.24,281.67
		c0.98,1.4,2.1,3.51,1.82,6.31c2.24,1.12,10.24,7.01,14.17,10.8c0.28-1.26,0.14-2.95-0.42-4.63c-0.56-1.54-1.82-3.23-2.95-4.49
		l-0.42-0.28c-1.26-0.84-2.38-1.68-3.65-2.52c-1.68-1.12-3.51-2.24-5.33-3.23c-0.84-0.42-1.68-0.98-2.52-1.4L316.24,281.67
		L316.24,281.67z M329.01,289.67c0.14,0,3.65,3.79,4.35,5.75c0.42,1.12,0.7,2.52,0.7,3.79c0,0.28,0,0.7-0.14,0.98l0,0l0.7,0.42
		c0.42,0.28,0.7,0.42,1.12,0.7c0.56,0.28,1.26,0.56,1.82,0.7c0.42,0.14,0.98,0.14,1.4,0.14c1.4,0,2.66-0.56,3.79-1.4l0,0
		c-0.56-0.14-0.98-0.28-1.54-0.56s-0.98-0.56-1.54-0.98c-0.7-0.56-2.66-2.38-3.09-2.81c-0.7-0.7-1.26-1.26-1.96-1.96
		c-0.84-0.84-2.52-2.38-3.37-2.95L329.01,289.67L329.01,289.67z M391.84,329.08l-0.42,0.14c-4.77,1.54-9.54,2.81-14.31,3.93
		c-0.28,0.42-7.29,10.8-15.29,22.86l0,0c-8.14,11.92-17.39,25.53-22.16,32.26l7.01,5.89c1.26-1.82,11.5-16.27,21.88-31.14l0,0
		c5.19-7.43,10.52-15.01,14.73-21.18l0,0C387.36,335.67,390.58,330.9,391.84,329.08L391.84,329.08L391.84,329.08z M325.5,400.89
		l-0.28,0.42c-2.24,3.51-4.35,6.87-6.45,10.52c-1.96,3.37-5.89,10.94-6.03,11.22c0,0.14-0.98,5.75,0.14,10.24l0,0
		c0-0.14,0.14-0.28,0,0c6.45-14.31,13.75-23.84,13.75-23.84C325.22,405.52,325.5,401.59,325.5,400.89L325.5,400.89z M312.46,423.48
		c-0.28,0.56-0.56,1.12-0.84,1.82c-5.75,12.62-5.61,21.74-11.22,26.79c0,0,0.14,0,0.42,0.14c1.54,0.14,7.29,0,10.24-13.61l0,0
		c-0.14-0.7-0.42-1.54-0.42-2.38C309.93,432.03,311.19,426.7,312.46,423.48L312.46,423.48L312.46,423.48L312.46,423.48z"/>
	<path id="XMLID_23_" class="st1" d="M260.98,295.7c-12.9-2.38-24.41-10.24-32.68-22.44c-5.05-7.43-8.14-16.55-6.03-18.37
		c0.84-0.84,1.26-0.7,0.84,0.14c-0.7,1.4-0.42,3.37,1.12,6.17c8.14,14.87,22.58,25.95,38.01,29.17c12.2,2.52,26.51,0.7,36.89-4.49
		c2.95-1.4,3.93-2.66,4.07-4.21c0-0.56,0-0.56,0.42,0c0.84,1.4-1.82,4.77-5.89,7.29c-4.77,3.09-11.78,5.47-18.65,6.73
		C273.89,296.4,265.19,296.54,260.98,295.7L260.98,295.7z"/>
	<path id="XMLID_24_" class="st1" d="M260.98,295.7v-0.28c-12.76-2.24-24.26-10.24-32.54-22.3c-3.93-5.75-6.59-12.76-6.59-16.13
		c0-0.98,0.14-1.54,0.56-1.82l0.56-0.42l0.14-0.14l0,0l0,0l0,0l0,0l0,0l0,0v-0.28l-0.14,0.14l0.14,0.14v-0.28l-0.14,0.14l0.14-0.14
		h-0.14v0.14l0.14-0.14h-0.14l-0.14,0.42c-0.28,0.56-0.42,1.12-0.42,1.82c0,1.26,0.56,2.81,1.54,4.63
		c8.14,15.01,22.72,26.09,38.29,29.31c3.65,0.7,7.57,1.12,11.5,1.12c9.12,0,18.23-1.96,25.53-5.61c1.4-0.7,2.52-1.4,3.23-2.1
		s0.98-1.54,0.98-2.38v-0.28l0,0h-0.14l0.14,0.14l0,0h-0.14l0.14,0.14l-0.28-0.14v0.28l0.28-0.14l-0.28-0.14v0.28v-0.28l-0.14,0.14
		h0.14v-0.28l-0.14,0.14l0,0l0.14,0.28l0.14,0.42c0,0.7-0.56,1.68-1.54,2.95c-0.98,1.12-2.52,2.38-4.35,3.51
		c-4.77,2.95-11.64,5.47-18.51,6.59c-2.66,0.42-6.31,0.7-9.82,0.7c-3.09,0-6.03-0.14-7.99-0.56L260.98,295.7v0.28l0,0v-0.7V295.7
		v-0.28l0,0v0.7c1.96,0.42,4.91,0.56,7.99,0.56c3.51,0,7.29-0.28,9.96-0.7c6.87-1.12,13.89-3.65,18.65-6.73
		c1.82-1.12,3.37-2.38,4.49-3.65c1.12-1.26,1.82-2.38,1.82-3.37c0-0.28,0-0.56-0.14-0.84l-0.28-0.28l-0.14-0.14l-0.28-0.14
		l-0.28,0.28c0,0.14,0,0.28,0,0.56c0,0.7-0.28,1.4-0.84,1.96c-0.56,0.56-1.54,1.26-2.95,1.96c-7.15,3.65-16.27,5.61-25.25,5.61
		c-3.93,0-7.71-0.42-11.36-1.12c-15.29-3.09-29.73-14.17-37.87-28.89c-0.98-1.82-1.4-3.23-1.4-4.35c0-0.56,0.14-1.12,0.28-1.54
		c0.14-0.28,0.28-0.42,0.28-0.7l-0.14-0.28l-0.28-0.14l-0.56,0.14l-0.56,0.42c-0.56,0.56-0.7,1.26-0.7,2.38
		c0,3.79,2.81,10.66,6.73,16.55c8.28,12.2,19.92,20.2,32.96,22.58L260.98,295.7v-0.28V295.7z"/>
	<path id="XMLID_29_" d="M263.37,152.92c0,0-4.35,7.85-4.63,11.92c-0.42,4.07-0.7,7.99,3.79,10.94c-0.14-0.14-1.82-2.66,0.28-3.93
		l0.28-0.14l0.28-0.14c0,0,0.56,0.7,0.84,0.98c2.38,2.24,8.42,5.61,12.48,5.75h0.14c0,0,0.14,1.26-2.66,3.09c0,0,4.35,1.4,7.71-0.42
		c3.37-1.82,7.71-10.1,13.18-8.28c5.47,1.96,4.07,11.22,5.61,14.59c1.54,3.37,5.61,4.91,5.89,4.91c-1.12-3.09-0.28-4.07-0.28-4.07
		h0.14c3.37,2.24,10.24,3.37,13.46,2.95c0.42,0,1.26-0.28,1.26-0.28l0,0l0.14,0.56c0.98,2.52-2.1,3.37-2.1,3.37
		c5.47,0.28,7.43-2.95,9.68-6.45c2.24-3.51,3.51-12.34,3.51-12.34l0,0c0,0-4.21-1.12-8.98-0.56c-0.42,0-0.84,0.14-1.4,0.14
		c-5.33,0.98-10.24,1.82-13.75,0.56c-1.12-0.42-2.1-0.98-2.95-1.68l0,0l-0.56-0.56l0,0c-1.12-1.12-1.82-2.1-1.96-2.38v-0.14
		c-2.52,1.26-11.5-1.82-12.62-4.21c0,0-1.4,0.42-3.09,0.7l0,0c-0.28,0-0.56,0-0.84,0l0,0c-1.12,0-2.24,0-3.37-0.42
		c-3.37-1.12-6.87-4.77-10.52-8.84c-0.28-0.28-0.7-0.7-0.98-0.98C267.43,154.74,263.65,153.06,263.37,152.92L263.37,152.92
		L263.37,152.92L263.37,152.92z M290.86,178.58c-1.82,0.14-3.37,1.12-3.93,2.81c-0.42,1.4-1.26,2.24-2.24,3.23l0,0l0,0
		c-0.7,0.84-1.26,1.26-2.1,1.68c-0.7,0.42-1.68,1.12-2.1,2.38l-0.56,1.68c-0.7,2.24,0.7,4.77,3.23,5.61c0,0-1.12-1.4-0.56-3.09
		v-0.14c0.42,0.42,0.84,0.7,1.26,0.84c1.68,0.56,3.37-0.28,3.93-1.68c0.14-0.28,0.42-0.42,0.56-0.28c0.28,0.14,0.42,0.42,0.28,0.56
		c-0.56,1.54,0.42,3.09,2.1,3.65c0.56,0.14,1.12,0.14,1.54,0.14l0,0c-0.56,1.68-2.24,2.1-2.24,2.1l0,0
		c2.52,0.84,5.33-0.28,6.03-2.52l0.56-1.68c0.42-1.26,0.14-2.38-0.14-3.23c-0.28-0.84-0.56-1.4-0.56-2.52l0,0l0,0
		c-0.14-1.4-0.14-2.52,0.28-3.93c0.7-2.1-0.56-4.49-2.95-5.47l-0.28-0.14l-0.28-0.14C291.98,178.58,291.42,178.58,290.86,178.58
		L290.86,178.58z M234.75,252.36c-3.79,0.14-6.87,0.56-9.26,0.98c5.61,0,12.62,0.56,20.34,1.96c0.56-0.84,1.12-1.68,1.82-2.38
		C242.89,252.36,238.54,252.22,234.75,252.36L234.75,252.36z M284.12,265.26c0,0.98,0,1.96,0,2.95c6.73,3.51,12.48,7.01,16.97,10.38
		C298.01,274.94,292.12,269.89,284.12,265.26z"/>
	<path id="XMLID_56_" class="st0" d="M291,112.94c-24.26,0.14-31.28,18.23-32.26,22.3c-1.12,4.35-1.12,9.96-1.26,12.48
		c0,0,4.63-0.7,8.98-2.52c0.14-1.54-0.14-4.35,0-8.28c0.14-5.47,5.89-27.91,35.91-22.86h-0.14c-0.98-0.14-1.96-0.42-3.09-0.56
		C296.19,113.08,293.52,112.94,291,112.94L291,112.94z M321.85,120.38c1.4,0.7,3.09,1.54,4.63,2.52l0.42,0.28l0.14,0.14
		c12.2,7.43,15.57,16.55,15.57,23.98c0,6.59-2.52,12.06-4.07,14.03c-1.96,2.81-3.79,4.63-4.77,6.03c1.68,3.09,3.93,5.75,5.61,7.57
		c1.4-2.24,4.63-6.31,6.31-10.52l0,0c1.82-4.63,8.7-28.47-22.72-43.48L321.85,120.38L321.85,120.38z M179.77,132.72l-0.14,0.56
		c-1.4,4.07-1.82,8.42-2.1,12.62c-0.42,7.15,0.28,14.31,1.82,21.32c1.54,7.43,4.21,14.59,7.29,21.46
		c3.23,7.01,7.15,13.75,11.64,20.06c5.47,7.85,11.64,15.15,18.37,21.88c2.95,2.95,5.89,5.75,8.98,8.42
		c0.42,0.28,3.51,3.37,3.79,3.23c1.96-0.98,4.07-1.82,6.17-2.52c-31.14-27.21-42.92-56.38-42.92-56.38
		C176.41,153.62,179.63,132.72,179.77,132.72L179.77,132.72z M274.17,147.3c-0.42,0-0.7,0-0.98,0.14c0,0.14,7.01,4.35,10.94,8.42
		c3.65,4.21,9.54,9.54,13.04,10.66c3.51,1.26,11.36,0.42,16.83-0.7c5.61-0.84,13.75,0,13.75-0.14c-3.37-4.21-15.01-2.95-21.6-2.66
		c-5.61,0.42-7.29-0.42-7.71-0.56c-0.42-0.14-2.24-0.42-6.45-4.21C287.21,154.32,279.5,147.02,274.17,147.3L274.17,147.3z
		 M263.37,152.92c0,0-4.35,7.85-4.63,11.92c-0.42,4.07-0.7,7.85,3.79,10.94c-0.14-0.28-1.82-2.66,0.28-3.93l0.28-0.14l0.28-0.14
		l-0.84-1.54c-1.26-3.09-0.98-6.87-0.14-9.96c0.28-0.84,0.56-1.82,0.84-2.66c0,0,1.4-2.95,0.56-4.21L263.37,152.92L263.37,152.92
		L263.37,152.92L263.37,152.92z M249.9,166.1c0,0-0.28,2.66-0.28,5.33c0,1.12,0,2.24,0.14,3.09c0,0.42,0.14,0.84,0.28,1.26
		c0.84,2.81,0.98,4.63,7.15,7.43c2.1,0.98,4.21,1.96,6.17,3.09c2.95,1.68,6.31,3.79,7.57,7.15v0.14c0.28,0.84,0.42,1.96,0.14,2.81
		c0.7-2.52,0.56-6.17-2.38-9.54c-2.95-3.37-10.8-6.03-13.61-7.43C252.15,177.88,249.62,170.87,249.9,166.1L249.9,166.1z
		 M271.08,196.26l-0.14-0.42c-0.28-0.56-0.7-0.98-0.98-1.4l0,0c-0.7-0.7-1.4-1.54-2.24-2.1l0,0l0,0c0,0-0.7,2.24-1.68,3.93
		c-0.56,0.98-1.26,2.1-1.82,3.51l0,0c-1.26,3.37,0.28,6.87,0.56,6.87c0.42,0,1.26-0.42,2.95-5.05c0-0.14,0.14-0.28,0.14-0.56
		s0-0.56-0.14-0.98l0,0c0.14-0.7,1.12-0.7,1.82-0.56l0.56,0.14C270.38,198.78,270.94,197.52,271.08,196.26L271.08,196.26
		L271.08,196.26z M289.74,167.36c0,0-1.82,2.81-2.95,4.35c-1.12,1.54-6.31,7.15-10.1,6.73l0,0c0,0,0.14,1.26-2.66,3.09
		c0,0,4.35,1.4,7.71-0.42c3.37-1.82,7.71-10.1,13.32-8.28c5.47,1.96,4.07,11.22,5.61,14.59c1.54,3.37,5.61,4.91,5.89,4.91
		c-1.12-3.09-0.28-4.07-0.28-4.07l0,0c-3.37-1.96-3.93-9.54-3.93-11.5c0-1.96,0.28-5.19,0.28-5.19
		C299.97,172.83,290.86,169.89,289.74,167.36L289.74,167.36z M331.95,176.06h-0.42c-1.4,0.42-2.1,3.65-2.1,3.65
		c-0.28,0.98-0.56,1.96-0.98,2.81c-0.84,2.1-2.1,4.07-3.65,5.75c-1.12,1.26-2.52,1.82-3.93,2.66l0.14,0.56
		c0.98,2.52-2.1,3.37-2.1,3.37c5.33,0.28,7.43-2.95,9.68-6.45C330.83,184.89,332.09,176.06,331.95,176.06L331.95,176.06
		L331.95,176.06z M290.86,178.58c-1.82,0.14-3.37,1.12-3.93,2.81c-0.42,1.4-1.26,2.24-2.24,3.23l0,0l0,0
		c-0.7,0.84-1.26,1.26-2.1,1.68c-0.7,0.42-1.68,1.12-2.1,2.38l-0.56,1.68c-0.7,2.24,0.7,4.77,3.23,5.61c0,0-1.12-1.4-0.56-3.09
		v-0.14c-0.7-0.7-1.12-1.82-0.7-2.81l0.56-1.68c0.56-1.82,2.1-1.68,3.93-3.93c0.98-1.12,1.96-2.24,2.52-3.93
		c0.42-1.4,1.96-2.1,3.65-1.82C291.98,178.58,291.42,178.58,290.86,178.58L290.86,178.58z M293.24,179c1.4,0.7,2.24,2.24,1.82,3.65
		c-0.56,1.68-0.42,3.23-0.42,4.63c0.14,2.95,1.4,3.65,0.84,5.47l-0.56,1.68c-0.28,0.98-1.26,1.68-2.38,1.82l0,0
		c-0.56,1.68-2.24,2.1-2.24,2.1l0,0c2.52,0.84,5.33-0.28,6.03-2.52l0.56-1.68c0.42-1.26,0.14-2.38-0.14-3.23
		c-0.28-0.84-0.56-1.4-0.56-2.52l0,0l0,0c-0.14-1.4-0.28-2.52,0.28-3.93C296.89,182.37,295.63,179.99,293.24,179L293.24,179z
		 M192.68,183.49c0.42,0.7,0.7,1.4,1.12,2.1L192.68,183.49z M252.99,184.47L252.99,184.47c-0.28,0.98-1.96,8.14-2.38,11.64
		c0,0.42,0,0.84-0.14,1.26c1.68-1.4,5.33-0.7,5.33-0.7c0-0.28,0-0.56,0-0.98c0-2.81,0.84-8.42,0.84-9.26v-0.14
		C255.79,185.88,252.99,184.47,252.99,184.47L252.99,184.47z M250.46,197.38L250.46,197.38L250.46,197.38L250.46,197.38
		L250.46,197.38z M250.46,197.52c-0.14,2.81,0.28,4.49,0.98,6.31c0.7,2.1,3.93,11.5,4.77,14.03c0.14,0.28,0.28,0.7,0.28,1.12
		c0.84,3.23,2.38,9.4,5.47,12.76c3.51,3.79,6.73,5.47,10.94,6.73l0,0l0,0c2.1,0.7,4.07,1.26,6.03,1.4c2.1,0.28,4.21,0.14,6.73-0.28
		c5.05-0.84,10.8-6.03,13.04-7.57c2.24-1.54,10.38-7.01,12.2-8.28c1.82-1.26,3.37-2.38,5.33-5.61c1.96-3.23,5.19-10.8,5.19-10.8
		s-3.09-0.56-4.07-0.7v0.14c-0.42,0.84-4.21,7.29-5.47,8.7h-0.14c0.84,0.42,3.23,1.96,3.51,3.65c0,0-3.93,3.65-8.84,5.75
		c-4.91,2.1-12.2,6.73-15.15,8.7c-1.12,0.7-2.52,1.4-4.49,1.68c-1.12-2.1-5.33-4.63-10.52-6.45c-5.47-1.82-10.52-2.24-12.62-1.12
		c-1.54-1.54-2.38-3.09-2.95-4.49c-1.12-3.23-4.21-11.5-6.87-16.13C251.44,202.85,250.46,197.66,250.46,197.52L250.46,197.52z
		 M334.06,195.97c-2.95,3.51-8.28,6.59-11.08,6.03c-3.23-0.56-10.94-3.23-15.29-2.24c-3.65,0.7-5.89,2.81-7.15,4.91l0,0l0,0
		c2.52-2.81,6.87-2.66,10.38-2.24c2.66,0.28,5.33,0.84,7.85,1.54c6.59,1.54,7.71,0.14,10.1-1.54
		C331.11,200.74,332.65,198.36,334.06,195.97L334.06,195.97L334.06,195.97z M305.02,204.95c-3.37-0.14-5.19,1.12-5.19,1.12
		s-0.98,1.68-1.26,3.93c0,0,1.26,0.56,1.54,0.7l0.7,0.42c0.28,0.42,0.42,0.7,0.42,0.7c-0.28,0-0.56,0.14-0.98,0.14l-0.98,0.56
		c-1.54,4.77-0.98,5.61-0.7,5.75c0.28,0.14,3.65-1.68,4.63-5.05c0,0,0.56-2.81,0.7-3.93C304.18,207.2,304.88,205.09,305.02,204.95
		L305.02,204.95L305.02,204.95L305.02,204.95z M411.06,210.28c-0.14,0.42-7.99,18.37-40.53,32.54l-0.14,0.14
		c0,0-27.07,16.13-68.03,19.08c1.26,1.96,2.52,3.93,3.51,5.75c12.76-0.7,25.67-2.52,37.87-5.89c7.85-2.1,15.43-4.91,22.86-8.42
		c7.43-3.51,14.59-7.71,21.04-12.76c4.21-3.37,7.99-7.01,11.64-10.94c4.91-5.47,9.4-11.92,11.78-18.93L411.06,210.28L411.06,210.28z
		 M219.32,236.37c-0.28,0.14-0.56,0.42-0.42,0.98c0.14,0.56,0.7,2.1-0.14,4.63c-0.84,2.38-2.66,4.07-4.49,4.77
		c-1.82,0.84-4.07,2.52-4.63,5.47c-0.56,2.95-2.24,6.73-1.68,9.26c0.14,0.98,1.12,2.24,3.37,2.24c-1.54,1.26-2.95,1.12-4.07,0.56
		c-1.82,3.37-4.63,4.77-9.54,3.79c-5.05-0.98-11.64-5.89-12.9-14.17l2.66-0.14l0,0c-0.28-0.42-0.56-0.98-0.7-1.54
		c0-0.28,0.14-0.84,0.42-1.26c-6.31,0-7.43-4.77-7.43-4.91c0,0-1.96,1.68-2.1,4.35c-0.28-1.12-1.12-2.1-2.38-2.24
		c-1.54-0.28-2.95,0.84-3.23,2.38c-0.28,1.54,0.84,2.95,2.38,3.23c1.54,0.28,2.95-0.84,3.23-2.38v-0.14c0,0.28,0.14,0.7,0.14,0.98
		c0.28,0.98,0.7,1.68,0.98,2.24c0.84,1.26,1.82,1.4,1.82,1.4l0.14-0.14l0.7-0.56c-0.7-0.42-3.37-2.52-1.68-7.01
		c0,0-0.14,4.07,3.23,6.31c0.42,1.68,3.09,11.78,12.9,15.01c10.8,3.51,15.01-1.68,15.99-3.65c0.42-0.84,1.54-3.65,1.54-3.65
		c0.98-2.66,3.37-13.18,4.21-14.31c0.84-1.26,3.51-6.17,2.52-10.66C220.17,236.93,219.89,236.23,219.32,236.37L219.32,236.37z
		 M199.13,250.26c-3.51,0-7.29,0.14-9.96,0.42c-0.28,0.56-0.42,1.12-0.42,1.54c0,0.56,0.28,1.12,0.56,1.54c0,0,9.68,0.56,15.71,2.24
		c0.28-0.84,0.56-1.96,0.98-3.23c0.28-0.84,0.56-1.54,0.98-2.1l0,0C205.72,250.54,202.63,250.4,199.13,250.26L199.13,250.26z
		 M316.66,268.91c-0.28,0-0.7,0.14-0.7,0.14c-3.65,2.95-4.35,8.42-4.49,9.96c0,1.54-4.49,11.22-5.33,14.03
		c0,0.14-0.84,2.38-0.98,3.79c-0.28,2.1-0.14,8.84,10.52,12.62c9.82,3.51,17.95-3.09,19.36-4.21c2.81,0.14,4.77-1.26,5.75-2.24
		c0.42-0.42,0.7-0.84,0.7-0.84c-1.12,3.51-3.23,4.35-4.63,4.49c-0.42,0-0.84,0-0.98,0v0.28c0.14,0.56,0.14,0.98,0.14,0.98
		s0.28,0.14,0.84,0.14c0.84,0,1.96-0.14,3.65-1.4c0.28-0.28,0.42-0.42,0.7-0.7c-0.56,1.26-0.14,2.95,1.12,3.65
		c1.4,0.7,3.09,0.28,3.79-1.12s0.28-3.09-1.12-3.79c-0.98-0.56-2.1-0.42-2.95,0.28c0.84-1.4,0.84-2.66,0.84-3.65l-0.14-0.84l0,0
		c-1.12,0.84-2.38,1.4-3.79,1.4c-0.42,0-0.98-0.14-1.4-0.14l0,0c-0.7-0.14-1.26-0.42-1.82-0.7c-0.42-0.14-0.7-0.42-1.12-0.7
		l-0.7-0.42l0,0c-0.14,0.56-0.28,0.98-0.42,1.26c-0.42,0.42-0.98,0.7-1.4,0.84l0,0c0.7,0.56,1.4,1.12,2.1,1.68
		c-6.03,5.75-14.17,5.75-18.79,3.51c-4.63-2.24-5.89-5.05-5.33-8.84c-1.26-0.28-2.38-0.98-2.81-2.95l0.14,0.14
		c1.12,0.84,2.81,1.12,3.79,0.14c0.98-0.84,1.68-2.38,2.38-4.07c0.56-1.54,1.12-2.95,1.82-4.49c0.28-0.56,0.42-1.26,0.56-1.82
		c0.28-1.82,0-3.79-0.98-5.33c-0.98-1.68-1.4-4.07-0.7-6.59c0.84-2.38,2.24-3.37,2.66-3.79c0.42-0.42,0.42-0.7,0.14-0.98
		L316.66,268.91L316.66,268.91z M318.07,287.98c0,0-0.14,1.4-0.56,2.24c-0.42,1.26-0.84,2.24-1.12,3.09
		c5.33,2.38,10.52,5.47,13.89,7.71c0.42-0.14,0.98-0.42,1.4-0.84c0.28-0.28,0.42-0.84,0.56-1.4
		C328.45,295,320.31,289.11,318.07,287.98L318.07,287.98z M409.8,322.63c-3.37,1.4-6.87,2.81-10.38,4.07
		c-10.1,15.99-44.74,67.46-47.83,71.81c1.82,1.54,3.51,2.95,4.77,4.21l0.14,0.14C365.48,389.95,402.92,333.43,409.8,322.63
		L409.8,322.63z M315.82,381.26c0,0-1.26-0.14-1.54,0.84c-0.14,0.56,0.14,1.26,1.12,1.4c0.98,0.28,3.79,0.56,7.15,3.65
		c3.23,3.09,4.49,7.15,4.35,10.52c-0.14,3.37,1.12,8.28,5.33,11.36c4.21,3.09,9.12,8.42,13.32,9.54c0.28,0.14,0.56,0.14,0.84,0.14
		c2.81,0.28,5.61-2.38,5.19-3.79c0.98,3.09,0.14,5.33-1.26,7.01c4.77,4.77,7.15,10.1,5.61,14.87c-1.96,6.17-8.84,14.59-21.6,14.45
		c-8.98-0.14-14.31-2.66-16.69-4.07l0.84-1.82c-5.33,1.26-7.29-6.59-7.29-6.87c-2.95,13.61-8.7,13.89-10.24,13.61
		c-0.28,0-0.42-0.14-0.42-0.14s1.12,4.49,5.61,6.59c-1.96-0.56-4.21,0.14-5.47,1.96c-1.54,2.24-0.84,5.33,1.4,6.73
		c2.24,1.54,5.33,0.84,6.87-1.4c1.54-2.24,0.84-5.33-1.4-6.73l-0.28-0.14c0.56,0.28,1.26,0.42,1.96,0.56
		c5.89,0.98,7.85-1.82,7.85-1.82s-0.42-0.84-0.7-1.96c0,0-5.89,4.07-12.34-2.38c0.28,0.14,2.38,0.84,6.03,0.14
		c5.47-0.84,6.17-2.52,6.59-2.81v-0.14c4.77,2.52,9.96,3.79,17.39,3.93c8.42,0.14,16.27-2.52,21.04-6.59
		c4.63-4.07,10.24-12.76,8.14-21.88c-1.68-7.71-11.5-15.15-13.75-16.83c-4.77-4.21-17.25-14.03-18.51-16.13
		C329.43,390.65,323.68,382.8,315.82,381.26L315.82,381.26z M326.48,409.45c0,0-7.29,9.54-13.75,23.84c0.14,0.7,0.42,1.4,0.7,1.96
		c1.96,4.21,3.79,5.47,7.29,5.19c0,0,8.28-14.17,14.17-21.6c-1.26-0.98-2.66-2.24-4.35-3.93
		C328.59,413.24,327.32,411.41,326.48,409.45L326.48,409.45z M340.79,426.98c-2.24,2.95-4.91,7.01-7.01,10.38
		c-0.98,1.54-1.82,2.95-2.52,4.07c0.7,0.14,1.54,0.14,2.24,0.14c2.52,0,5.05-0.42,6.87-1.12c2.66-0.98,5.61-4.77,5.47-7.29
		c0-0.56-0.14-1.12-0.42-1.82C344.58,429.23,342.33,427.82,340.79,426.98L340.79,426.98z"/>
</g>
</svg>
