<?xml version="1.0" encoding="utf-8"?>
<!-- Generator: Adobe Illustrator 27.0.0, SVG Export Plug-In . SVG Version: 6.00 Build 0)  -->
<svg version="1.1" id="Layer_1" xmlns="http://www.w3.org/2000/svg" xmlns:xlink="http://www.w3.org/1999/xlink" x="0px" y="0px"
	 viewBox="0 0 512 512" style="enable-background:new 0 0 512 512;" xml:space="preserve">
<style type="text/css">
	.st0{fill:#FFFFFF;}
	.st1{fill:#002244;}
	.st2{fill:#4B92DB;}
	.st3{fill:#16243E;}
	.st4{fill:#A5ACAF;}
	.st5{fill:#C60C30;}
</style>
<g id="XMLID_1_">
	<path id="XMLID_3_" class="st0" d="M165.34,286.3c0.56,6.03,2.67,17.96,9.54,31.28c8.56,16.41,26.51,38.44,63.4,50.92
		c5.89,9.26,12.76,17.81,20.62,25.53c28.05,28.05,65.37,43.34,104.92,43.34c39.7,0,76.87-15.57,104.92-43.63
		c28.05-28.05,43.34-65.37,43.34-104.92c0-39.7-15.57-76.87-43.63-104.92c-22.3-22.16-50.08-36.47-80.8-41.38
		c-41.52-37.59-90.06-24.13-92.16-23.57c-0.7,0.14-1.68,0.56-3.09,0.84c-14.87,4.91-22.58-0.7-27.63-4.63
		c-5.47-4.35-11.64-8.7-17.39-12.06c-19.78-11.08-47.97-11.5-71.68-1.96c-15.57,5.33-23.57-1.54-28.2-4.77
		c-31-21.32-69.01-26.51-109.41-17.53C10.9,84.87,0.1,90.34,0.1,90.34s18.66,2.67,38.01,10.8c15.99,6.73,28.62,15.29,38.29,30.58
		c0,0,6.03,8.84,2.1,11.5c-4.35,2.95-8.98-4.21-8.98-4.21c-0.14,5.19-0.14,10.24,0.14,14.17c2.24,41.1,10.66,65.65,30.44,84.59
		c8.98,8.56,24.27,16.83,47.69,26.09C158.47,268.2,164.22,273.67,165.34,286.3"/>
	<path id="XMLID_4_" class="st1" d="M461.6,190.63c-21.46-21.46-48.82-35.07-78.41-39.14c-38.58-36.89-85.15-23.43-85.15-23.43
		c9.82,1.4,16.41,7.29,13.89,13.89c-1.68,4.35-8.84,4.49-12.2,4.63c-10.38,0.14-19.36-6.31-26.65-12.06
		c-7.43-6.03-19.64-16.83-30.58-23c-20.34-11.36-52.6-9.96-75.89,4.91c14.03,0.98,30.72,4.91,40.82,13.33
		c5.61,4.63,12.76,13.89,6.87,18.24c-5.19,3.79-17.67,1.82-24.13-1.82c-10.24-5.89-19.36-14.87-24.83-21.32
		C128.45,81.36,75.99,78.83,32.78,89.49c28.34,8,47.27,24.13,58.92,51.9s20.76,39.7,39.98,47.27c12.06,4.77,15.29,5.61,14.31,10.94
		c-1.4,7.86-15.71,4.07-26.51-0.14c-13.33-5.19-30.72-19.5-41.1-46.29c1.82,34.65,8.56,59.34,28.05,77.99
		c8.28,7.86,23.57,16.13,47.41,25.25c15.29,5.89,27.35,9.4,38.72,19.64c13.19,11.92,7.57,19.64-1.12,18.24
		c-9.96-1.68-16.97-11.78-16.97-11.78s0,56.53,69.86,78.27c5.75,9.68,12.91,18.66,21.04,26.79c26.23,26.23,61.16,40.54,98.33,40.54
		s71.96-14.59,98.19-40.82c26.23-26.23,40.68-61.16,40.54-98.33C502.42,251.65,487.97,216.72,461.6,190.63"/>
	<path id="XMLID_5_" class="st2" d="M454.31,197.65c-20.9-20.9-47.55-33.67-76.45-36.75c-24.83-24.83-49.66-23.57-49.66-23.57
		c10.94,6.87,5.33,22.02-18.94,25.39c-23.99,3.37-54.43-4.77-69.3-22.16c-15.29-17.81-26.79-18.66-26.79-18.66
		c13.33,8.28,14.17,18.24,22.3,33.39c8,15.15,24.69,20.62,39,21.6c15.15,0.98,15.57,7.86,3.37,15.15c-13.33,7.86-25.25,0.42-33.81-8
		c-13.61-13.47-27.07-15.99-45.87-15.71c-18.66,0.28-43.34,2.67-64.25-5.05c-20.9-7.86-34.65-35.21-34.65-35.21
		c10.38,36.47,33.24,53.72,54.57,57.93c28.05,5.47,47.55,12.2,59.48,21.88c11.64,9.4,17.81,18.8,22.16,31.7
		c3.37,9.96,3.93,23.29,0.7,23.99c-3.93,0.98-4.63-4.35-9.26-13.75c-5.05-10.24-11.08-18.38-23.15-24.83
		c-16.41-8.84-32.54-8.28-48.96-8c-13.05,0.14-20.62-1.26-20.62-1.26s0.56,1.82,21.74,6.45c23.57,5.33,46.43,18.66,61.72,51.06
		c12.91,27.63,6.17,46.99-22.44,38.29c0,0,13.33,29.74,57.09,40.4c5.61,9.96,12.62,19.08,20.9,27.49
		c24.27,24.27,56.39,37.59,90.76,37.59c34.23,0,66.49-13.33,90.76-37.59c24.27-24.27,37.59-56.39,37.59-90.76
		C491.76,254.04,478.43,221.77,454.31,197.65"/>
	<path id="XMLID_6_" class="st0" d="M363.55,166.36c32.54,0,63.26,12.62,86.27,35.77c23,23,35.77,53.72,35.77,86.27
		c0,67.33-54.71,122.04-122.04,122.04c-32.54,0-63.26-12.76-86.27-35.77c-23-23-35.77-53.72-35.77-86.27s12.62-63.26,35.77-86.27
		C300.29,178.99,331.01,166.36,363.55,166.36"/>
	<path id="XMLID_7_" class="st3" d="M363.69,399.78c-61.58,0.14-111.52-49.8-111.66-111.38c-0.14-61.58,49.8-111.52,111.38-111.66
		c61.58-0.14,111.52,49.8,111.66,111.38S425.27,399.78,363.69,399.78"/>
	<polyline id="XMLID_8_" class="st0" points="336.34,265.82 303.23,265.82 292.29,285.18 277.7,243.66 449.12,243.66 434.39,285.18 
		423.59,265.82 391.18,265.82 363.69,386.17 336.34,265.82 	"/>
	<polyline id="XMLID_9_" class="st4" points="449.12,243.66 277.7,243.66 280.51,251.51 362.15,251.51 336.34,265.82 363.69,386.17 
		363.69,251.51 446.31,251.51 449.12,243.66 	"/>
	<path id="XMLID_16_" class="st5" d="M82.44,91.32c-4.91,0-9.96,0.42-15.15,1.4c0,0,23.29-0.56,43.63,35.91
		c17.11,30.72,49.66,36.75,73.5,30.02c0,0-31.42-0.84-48.53-31.28C121.58,101.98,103.48,91.6,82.44,91.32L82.44,91.32z
		 M211.07,108.71c-8.56-0.28-16.41,1.54-21.88,4.77c0,0,20.9-4.21,39.84,10.94c15.43,12.34,25.53,22.3,50.36,23
		c-11.64-4.35-19.36-11.92-35.21-25.81C234.22,112.78,222.01,108.99,211.07,108.71L211.07,108.71z M363.27,181.79l-6.17,19.5
		l-20.62,0.28l16.83,11.92L347,233.14l16.55-12.34l16.69,12.06l-6.59-19.5l16.55-12.06h-20.62L363.27,181.79L363.27,181.79z
		 M92.54,190.35c0,0,0.28,36.47,42.22,47.69c29.18,7.86,50.64,12.34,64.25,31.14c0,0-3.23-33.95-51.62-43.77
		C98.71,215.6,92.54,190.35,92.54,190.35z M306.74,302.01l-13.61,15.43l-18.94-8.28l10.52,17.81l-13.75,15.43l20.06-4.49
		l10.38,17.81l1.96-20.48l20.2-4.35l-18.94-8.14L306.74,302.01L306.74,302.01z M419.8,302.29l2.38,20.48l-18.8,8.56l20.2,4.07
		l2.24,20.48l10.1-17.96l20.2,4.21l-13.89-15.15l10.24-17.96l-18.8,8.56L419.8,302.29L419.8,302.29z"/>
</g>
</svg>
