<?xml version="1.0" encoding="utf-8"?>
<!-- Generator: Adobe Illustrator 24.3.0, SVG Export Plug-In . SVG Version: 6.00 Build 0)  -->
<svg version="1.1" id="Layer_1" xmlns="http://www.w3.org/2000/svg" xmlns:xlink="http://www.w3.org/1999/xlink" x="0px" y="0px"
	 viewBox="0 0 512 512" style="enable-background:new 0 0 512 512;" xml:space="preserve">
<style type="text/css">
	.st0{fill:#FFFFFF;}
	.st1{fill:#FFC422;}
	.st2{fill:#231F20;}
</style>
<g id="XMLID_1_">
	<path id="XMLID_3_" class="st0" d="M256,488.71c-62.14,0-120.64-24.27-164.54-68.17C47.55,376.64,23.29,318.14,23.29,256
		S47.55,135.36,91.46,91.46S193.86,23.29,256,23.29s120.64,24.27,164.54,68.17s68.17,102.4,68.17,164.54s-24.27,120.64-68.17,164.54
		C376.64,464.45,318.14,488.71,256,488.71z"/>
	<path id="XMLID_6_" class="st1" d="M256,46.57c115.59,0,209.43,93.7,209.43,209.43c0,115.59-93.7,209.43-209.43,209.43
		c-115.59,0-209.43-93.7-209.43-209.43C46.57,140.41,140.41,46.57,256,46.57 M256,0c-34.51,0-68.03,6.73-99.59,20.2
		C125.97,33.1,98.47,51.48,75.05,75.05C51.62,98.47,33.1,125.97,20.2,156.41C6.87,187.97,0,221.49,0,256s6.73,68.03,20.2,99.59
		c12.91,30.44,31.28,57.93,54.85,81.36c23.43,23.57,50.92,41.94,81.36,54.85C187.97,505.13,221.49,512,256,512
		s68.03-6.73,99.59-20.2c30.44-12.91,57.79-31.28,81.36-54.85c23.57-23.43,41.94-50.92,54.85-81.36
		C505.13,324.03,512,290.51,512,256s-6.73-68.03-20.2-99.59c-12.91-30.44-31.28-57.79-54.85-81.36
		c-23.43-23.43-50.92-41.94-81.36-54.85C324.03,6.73,290.51,0,256,0z"/>
	<polygon id="XMLID_7_" class="st1" points="275.5,165.1 236.36,165.1 236.36,25.95 275.5,25.95 	"/>
	<path id="XMLID_10_" class="st2" d="M281.39,20.06v150.93h-50.78V20.06H281.39 M269.75,31.7h-27.49v127.65h27.49V31.7z"/>
	<rect id="XMLID_11_" x="236.36" y="347.6" class="st1" width="39.14" height="138.87"/>
	<path id="XMLID_14_" class="st2" d="M281.39,341.71v150.51h-50.78V341.71H281.39 M269.75,353.35h-27.49v127.23h27.49V353.35z"/>
	<path id="XMLID_20_" class="st1" d="M404.97,432.89l-95.81-95.81l7.86-7.86l1.68-1.68v-2.38v-33.81l113.9,113.9L404.97,432.89z
		 M107.03,432.89l-27.77-27.77L198.77,285.6l8.28-8.28v55.27L107.03,432.89z M486.19,275.78H317.3h-11.22l-5.61-5.61l-1.68-1.68
		h-2.38h-83.32h-5.89v5.89v1.54H194.7H25.67v-39.14H194.7h12.62v1.82v5.89h5.89h83.32h2.38l1.68-1.68l5.89-5.89h10.8h169.03v38.86
		H486.19z M207.18,235.1l-8.42-8.42L79.25,107.17l27.63-27.63l100.3,100.3V235.1z M318.84,220.93v-33.39v-2.38l-1.68-1.68
		l-8.14-8.14l95.95-95.95l27.63,27.63L318.84,220.93z"/>
	<path id="XMLID_27_" class="st2" d="M404.97,71.26l35.91,35.91L317.3,230.75h174.78v50.78H317.3l123.58,123.58l-35.91,35.91
		L300.89,337.08l12.06-12.06v-34.09l-16.69-16.69h-83.32v60.88L106.89,441.16l-35.91-35.91l123.58-123.58H19.92v-50.92H194.7
		L71.12,107.17l35.91-35.91l106.05,106.05v61.02h83.32l16.69-16.69v-34.09l-12.2-12.2L404.97,71.26 M404.97,87.81l-87.67,87.67
		l3.93,3.93l3.37,3.37v4.77v19.22l99.73-99.73L404.97,87.81z M107.03,87.81l-19.36,19.36l113.9,113.9v-38.86L107.03,87.81z
		 M480.44,242.39H317.3h-8.42l-4.21,4.21l-3.37,3.37h-4.77h-83.32h-11.64v-7.72h-6.73H31.56v27.49H194.7h6.59v-7.29h11.64h83.32
		h4.77l3.37,3.37l3.93,3.93h8.84h163.28V242.39L480.44,242.39z M201.29,291.49L87.53,405.25l19.36,19.36l94.4-94.26V291.49z
		 M324.59,305.38v19.64v4.77l-3.37,3.37l-3.79,3.79l87.53,87.53l19.36-19.36L324.59,305.38z"/>
	<path id="XMLID_31_" class="st2" d="M320.39,388.28h-4.07H158.09h-9.96v-9.96v-25.81v-4.35l3.09-2.95l15.29-14.45V181.94
		l-15.29-14.59l-3.09-2.95v-4.21v-25.81v-9.96h9.96h158.23h4.07l2.95,2.81l37.45,36.61l2.95,2.95v4.21v63.26v4.21l-3.09,2.95
		l-15.43,14.87l15.43,14.87l3.09,2.95v4.21v63.26v4.21l-2.95,2.95l-37.45,36.75L320.39,388.28z M222.9,331.75h69.16l10.8-10.8
		v-25.81l-10.8-10.8H222.9L222.9,331.75L222.9,331.75z M223.04,228.51h69.16l10.8-10.8v-25.81l-10.8-10.8h-69.16L223.04,228.51
		L223.04,228.51z"/>
	<path id="XMLID_38_" class="st2" d="M316.32,134.38l37.45,36.61v63.26l-22.86,22.02l22.86,22.16v63.26l-37.45,36.61H158.09v-25.81
		l18.38-17.39V177.59l-18.38-17.53v-25.81h158.23 M213.08,238.47h83.32l16.69-16.69v-34.09l-16.69-16.69h-83.32V238.47
		 M212.94,341.71h83.32l16.69-16.69v-34.09l-16.69-16.69h-83.32L212.94,341.71 M324.45,114.32h-8.14H158.09h-19.92v19.92v25.81v8.56
		l6.17,5.89l12.06,11.64v140.27l-12.06,11.5l-6.17,5.89v8.56v25.81v19.92h19.92h158.23h8.14l5.89-5.75l37.45-36.61l6.03-5.89v-8.42
		v-62.98v-8.56l-6.17-5.89l-8-7.72l8-7.57l6.17-5.89v-8.56v-63.26v-8.42l-6.03-5.89l-37.45-36.61L324.45,114.32z M233,218.41v-27.49
		h54.99l4.91,4.91v17.53l-4.91,4.91L233,218.41L233,218.41z M233,321.65v-27.49h54.99l4.91,4.91v17.53l-4.91,4.91L233,321.65
		L233,321.65z"/>
	<path id="XMLID_42_" class="st2" d="M318.14,382.95h-1.82H158.09h-4.49v-4.63v-25.81v-1.96l1.4-1.4l16.83-16.13V179.55L155,163.42
		l-1.4-1.4v-1.96v-25.81v-4.49h4.63h158.09h1.82l1.4,1.26L357,167.63l1.4,1.4v1.96v63.26v1.96l-1.4,1.4l-19.5,18.8l19.5,18.8
		l1.4,1.4v1.96v63.26v1.96l-1.4,1.4l-37.45,36.61L318.14,382.95z M217.56,337.08h76.87l14.03-14.03v-30.3l-13.89-13.89h-76.87
		L217.56,337.08L217.56,337.08z M217.56,233.84h76.87l14.03-14.03v-30.3l-13.89-13.89h-76.87v58.21H217.56z"/>
	<path id="XMLID_49_" class="st1" d="M316.32,134.38l37.45,36.61v63.26l-22.86,22.02l22.86,22.16v63.26l-37.45,36.61H158.09v-25.81
		l18.38-17.39V177.59l-18.38-17.53v-25.81h158.23 M213.08,238.47h83.32l16.69-16.69v-34.09l-16.69-16.69h-83.32V238.47
		 M212.94,341.71h83.32l16.69-16.69v-34.09l-16.69-16.69h-83.32L212.94,341.71 M320.11,125.12h-3.79H158.09h-9.12v9.12v25.81v3.93
		l2.81,2.67l15.43,14.73v149.53l-15.43,14.73l-2.81,2.67v3.93v25.81v9.12h9.12h158.23h3.79l2.67-2.67l37.45-36.61l2.81-2.67v-3.93
		v-62.84v-3.93l-2.81-2.67l-16.13-15.43l15.99-15.43l2.81-2.67v-3.93v-63.26v-3.79l-2.81-2.67l-37.45-36.61L320.11,125.12z
		 M222.19,229.35v-49.1h70.42l11.22,11.22v26.51l-11.36,11.36H222.19L222.19,229.35z M222.05,332.59v-49.1h70.42l11.22,11.22v26.51
		l-11.36,11.36H222.05L222.05,332.59z"/>
	<path id="XMLID_52_" class="st2" d="M256,46.57c115.59,0,209.43,93.7,209.43,209.43c0,115.59-93.7,209.43-209.43,209.43
		c-115.59,0-209.43-93.7-209.43-209.43C46.57,140.41,140.41,46.57,256,46.57 M256,9.96c-33.24,0-65.37,6.45-95.81,19.36
		c-29.32,12.34-55.55,30.16-78.13,52.74s-40.26,48.96-52.74,78.13C16.41,190.49,9.96,222.76,9.96,256s6.45,65.37,19.36,95.81
		c12.34,29.32,30.16,55.55,52.74,78.13s48.96,40.26,78.13,52.74c30.3,12.91,62.56,19.36,95.81,19.36s65.37-6.45,95.81-19.36
		c29.32-12.34,55.55-30.16,78.13-52.74s40.26-48.96,52.74-78.13c12.91-30.3,19.36-62.56,19.36-95.81s-6.45-65.37-19.36-95.81
		c-12.34-29.32-30.16-55.55-52.74-78.13s-48.96-40.26-78.13-52.74C321.37,16.55,289.24,9.96,256,9.96z"/>
</g>
</svg>
