<?xml version="1.0" encoding="utf-8"?>
<!-- Generator: Adobe Illustrator 24.3.0, SVG Export Plug-In . SVG Version: 6.00 Build 0)  -->
<svg version="1.1" id="Layer_1" xmlns="http://www.w3.org/2000/svg" xmlns:xlink="http://www.w3.org/1999/xlink" x="0px" y="0px"
	 viewBox="0 0 512 512" style="enable-background:new 0 0 512 512;" xml:space="preserve">
<style type="text/css">
	.st0{fill:#FFFFFF;}
	.st1{fill:#B0B7BB;}
	.st2{fill:#FDBB30;}
	.st3{fill:#E31837;}
	.st4{fill:#002D62;}
</style>
<g id="XMLID_1_">
	<path id="XMLID_3_" class="st0" d="M454.77,155.28c-0.42-2.52-2.24-0.56-2.24-0.56S377.48,238.04,256,329.64
		C134.52,238.04,59.48,154.58,59.48,154.58s-1.82-1.96-2.24,0.56c0,0-2.67,13.75,8,24.97c0,0,74.49,82.62,176.75,159.91
		c-9.54,7.01-19.36,14.17-29.46,21.18l3.23,17.25c13.75-9.12,27.21-18.52,40.26-28.05c13.05,9.54,26.51,18.94,40.26,28.05
		l3.23-17.25c-10.1-7.01-19.92-14.17-29.46-21.18c102.26-77.15,176.75-159.91,176.75-159.91
		C457.43,169.03,454.77,155.28,454.77,155.28"/>
	<path id="XMLID_9_" class="st0" d="M100.58,167.91c15.29,12.2,19.92,20.06,23.43,23.57c2.95,2.95,6.03,3.23,9.26,6.45
		c4.91,4.77,6.31,10.66,10.94,10.66c4.77,0,9.96-10.38,20.2-10.38c6.87,0-4.21,4.63-4.21,9.12c0,3.79,8.42-1.4,10.24-1.4
		c3.09,0,14.87,5.33,21.88-4.07c-3.09-3.23-12.48-1.82-12.48-14.17c0-3.37,2.95-10.1,10.38-10.1c5.89,0,10.52,5.19,8.56,11.22
		c-0.56,1.82,2.52,4.07,2.52,7.57c0,10.38-7.15,11.5-7.15,16.13c0,9.12,6.45,8.42,10.1,8.28c8.28,0,21.18,6.87,25.53,6.87
		c5.33,0,9.54-2.38,9.54-4.91c0-2.67-6.17-14.45-9.68-14.45c-1.96,0-4.07,3.79-7.15,3.79c-3.37,0-5.33-2.1-4.07-4.21
		c0.7-1.12-1.26-3.09-1.26-6.17c0-3.79,5.19-11.92,15.29-11.92c8.42,0,17.11,7.29,17.11,19.08c0,9.82-2.67,15.43-2.67,17.25
		c0,3.65,6.87,7.86,11.22,7.86c4.35,0,20.76-6.17,26.09-6.17c5.33,0,11.36,0.42,11.36-4.49s-3.37-14.17-6.87-14.17
		c-3.51,0-11.64,11.5-22.02,11.5c-1.26,0-2.67-0.28-2.67-1.96c0-1.68,2.81-5.75,4.21-6.59c1.4-0.84,9.12-4.07,9.12-6.87
		c0-1.54-7.01-3.51-7.01-6.59c0-3.09,7.01-0.56,7.01-3.65c0-2.81-6.31-5.33-6.31-12.62c0-5.33,3.65-10.8,10.52-10.8
		c13.19,0,21.46,9.82,33.95,9.82c10.52,0,22.16-5.61,27.21-5.61c15.43,0,15.01,17.39,30.3,17.39c7.15,0,9.68-2.67,9.68-11.08
		c0-4.63-2.24-4.07-4.91-4.07s-3.09-2.1-7.01-2.1c-5.75,0-12.2-2.95-12.2-5.89c0-3.09,21.6-9.96,24.83-9.96
		c11.08,0,12.06,22.02,29.88,22.02c4.49,0,7.86-0.98,7.86-8.84c0-7.86-1.26-7.15-2.67-6.87c-1.4,0.14-8.56,2.24-8.56,0
		c0-2.24,3.37-4.49-0.7-5.19c-18.94-3.09-13.33-20.76-20.76-20.76c-3.51,0-15.71,6.59-15.71-0.98c0-4.21,2.95-9.96,2.95-18.94
		c0-9.96-5.75-15.85-0.28-15.85c12.06,0,33.1,6.17,33.1,9.12c0,2.1-11.78,0.84-11.78,6.17c0,3.09,6.73,6.87,17.11,6.87
		c10.38,0,14.45-3.23,9.4-3.23c-5.19,0-13.05-0.14-13.05-3.79c0-3.51,9.12-1.96,9.12-5.75c0-5.47-9.4-5.05-26.37-9.96
		c-85.15-24.27-114.74-55.83-168.19-55.83c-65.79,0-55.27,44.89-95.25,54.99c-31.56,8-34.51,24.13-34.51,43.34
		C94.83,157.25,98.47,166.36,100.58,167.91 M130.74,184.6c-3.51,0-2.67-2.52-2.67-2.52c4.49-6.17,2.24-20.9,7.86-20.9
		c3.23,0-1.4,3.23-1.4,7.01c0,4.21,6.31,3.09,6.31,8C140.98,179.55,135.79,184.6,130.74,184.6 M144.34,205.5
		c0,0-2.67-1.96-2.67-3.23c0-3.09,5.33-4.07,5.33-3.09C147.01,201.85,144.34,205.5,144.34,205.5 M148.55,148.69
		c0,2.24-4.49,7.43-7.29,7.43c-2.1,0-5.61-8.28-5.61-9.12c0-0.7,0.98-2.1,4.07-2.1C143.08,144.9,148.55,146.45,148.55,148.69
		 M123.02,115.59c12.62,0,19.08,7.43,19.08,15.57s-6.87,14.03-14.45,14.03c-4.77,0-6.31-4.07-6.31-6.03c0-2.81,4.21-5.33,4.21-8.56
		c0-4.21-5.05-7.01-10.1-7.01c-8.56,0-14.31,7.29-14.31,3.65C101.28,123.02,109.83,115.59,123.02,115.59"/>
	<path id="XMLID_10_" class="st0" d="M275.78,251.37c-21.6,8-30.44,11.36-29.18,14.59c0.7,1.82,5.19,7.15,34.51-3.79
		c29.18-10.8,86.83-37.31,84.87-42.64C364.85,217,324.17,233.42,275.78,251.37"/>
	<path id="XMLID_11_" class="st0" d="M322.91,61.44c35.63,9.82,56.25,18.94,57.09,15.57c0.84-3.23-27.49-13.47-53.72-20.76
		c-26.23-7.15-53.3-10.8-52.46-9.96C276.62,48.96,287.28,51.62,322.91,61.44"/>
	<path id="XMLID_14_" class="st1" d="M256,0C114.88,0,0,114.88,0,256s114.88,256,256,256s256-114.88,256-256S397.12,0,256,0
		 M256,508.77C116.57,508.77,3.23,395.43,3.23,256S116.57,3.23,256,3.23S508.77,116.57,508.77,256S395.43,508.77,256,508.77"/>
	<path id="XMLID_27_" class="st1" d="M256,27.63C130.03,27.63,27.63,130.17,27.63,256c0,125.97,102.4,228.37,228.37,228.37
		S484.37,381.97,484.37,256S381.97,27.63,256,27.63 M318.28,374.81c1.96,0.28,3.37,1.82,4.21,4.07c0,0,3.65-1.4,5.61,3.93
		c0,0,3.79-1.26,5.61,3.79c0,0,3.79-1.26,5.61,3.93c0,0,3.51-1.4,5.61,3.79c0,0,3.79-1.26,5.61,3.93c0,0,3.65-1.26,5.61,3.93
		c0,0,3.79-1.26,5.61,3.79c0,0,3.65-1.26,5.61,3.79c0.42-0.14,0.84-0.28,1.4-0.14c3.79,0.7,5.75,5.47,4.77,11.22
		c0,0.28-0.14,0.56-0.14,0.98c6.03-6.31,11.22-11.22,18.1-7.01c5.75,3.65,6.87,11.64,2.67,18.38c-5.33,8.56-12.34,4.07-15.71,1.54
		c-6.87,5.19-24.69,26.37-57.37,5.61c-42.92-27.07-13.33-74.06-18.94-81.22c-1.54-1.82-5.19-4.49-3.37-7.57
		c1.54-2.52,6.31-3.37,10.66-0.56c8.28,5.19,7.43,14.03,5.47,24.55C315.76,374.95,317.02,374.53,318.28,374.81 M302.15,360.22
		l-4.07,22.3c-13.33-8.7-29.32-19.92-41.94-29.04c-12.62,9.26-28.76,20.34-41.94,29.04l-4.07-22.3c9.12-6.45,19.36-13.75,28.05-20.2
		C138.17,264,64.53,182.78,63.68,181.8c-11.5-11.92-8.7-26.51-8.7-26.93c0.42-3.09,3.79-4.77,6.45-1.96
		c0.84,0.98,75.61,83.46,194.7,173.66C375.23,236.5,450,153.88,450.84,152.9c2.67-2.81,6.03-1.26,6.45,1.96
		c0.14,0.56,2.95,15.01-8.7,26.93c-0.84,0.98-74.49,82.2-174.5,158.23C282.79,346.48,293.03,353.77,302.15,360.22 M118.11,433.17
		c-4.21-6.73-3.09-14.73,2.67-18.38c6.73-4.21,11.92,0.7,17.96,7.01c0-0.28-0.14-0.56-0.14-0.98c-0.98-5.75,0.98-10.66,4.77-11.22
		c0.42-0.14,0.84,0.14,1.4,0.14c1.96-5.05,5.61-3.79,5.61-3.79c1.82-5.05,5.61-3.79,5.61-3.79c1.96-5.05,5.61-3.93,5.61-3.93
		c1.82-5.05,5.61-3.93,5.61-3.93c2.1-5.19,5.61-3.79,5.61-3.79c1.82-5.05,5.61-3.93,5.61-3.93c1.82-5.05,5.61-3.79,5.61-3.79
		c1.96-5.19,5.61-3.93,5.61-3.93c0.84-2.24,2.24-3.65,4.21-4.07c1.26-0.28,2.52,0.14,3.65,0.84c-2.1-10.38-2.95-19.22,5.47-24.55
		c4.35-2.67,9.12-1.96,10.66,0.56c1.82,3.09-1.82,5.61-3.37,7.57c-5.61,7.15,23.85,54.15-19.08,81.22
		c-32.68,20.62-50.5-0.42-57.37-5.61C130.45,437.37,123.44,441.72,118.11,433.17 M279.99,194.7c0,2.95-2.24,3.93-6.31,4.35
		c2.24,1.96,6.31,2.95,6.31,5.89c0,3.51-4.21,6.03-10.24,8.98c-0.7,0.42-2.38,2.81-2.81,4.07c9.54,0,16.97-11.5,22.02-11.5
		c5.75,0,9.26,11.5,9.26,16.69c0,5.75-4.77,6.87-12.76,6.87c-7.43,0-21.6,6.17-27.21,6.17c-5.19,0-13.75-4.77-13.75-10.24
		c0-2.1,2.67-8.28,2.67-17.25c0-10.24-7.72-16.55-14.73-16.55c-8.84,0-12.91,7.29-12.91,9.54c0,3.09,2.52,4.77,0.84,7.29
		c0.14,0.14,0.7,0.56,1.96,0.56c1.82,0,4.07-3.79,7.15-3.79c5.47,0,12.06,13.47,12.06,16.83c0,4.21-5.19,7.43-11.92,7.43
		c-5.33,0-17.96-6.87-25.39-6.87c-4.63,0.42-12.62,0.14-12.62-10.66c0-5.89,7.15-6.59,7.15-15.99c0-2.52-3.51-4.91-2.52-8.28
		c1.54-5.33-2.95-8-6.31-8c-6.03,0-7.86,5.61-7.86,7.72c0,10.66,7.01,8.14,11.78,12.48c0.84,0.84,0.98,2.24,0.28,3.09
		c-3.93,4.77-9.12,8.84-23.71,5.05c-6.45,3.09-12.76,4.49-12.76-0.98c0-2.38,1.68-4.49,3.37-6.17c-7.43,2.1-11.5,9.82-16.97,9.82
		c-6.17,0-8.14-6.73-12.62-11.36c-2.24-2.24-7.43-4.49-9.12-6.45c-9.96-12.34-15.43-16.69-23.29-23.43
		c-3.09-2.52-6.59-13.05-6.59-23.43c0-19.22,2.81-37.17,36.33-45.73c38.01-9.68,29.46-54.99,95.81-54.99
		c54.57,0,89.07,33.95,168.89,55.83c17.81,4.91,28.2,4.49,28.2,12.34c0,4.63-5.61,4.77-8.7,5.89c0.98,0.56,3.37,1.12,10.24,1.12
		c6.45,0,8.42,8-9.4,8c-10.94,0-19.5-4.07-19.5-9.4c0-4.91,5.33-6.17,9.12-6.87c-5.89-2.52-18.8-5.89-27.77-5.89
		c0,0,2.52,7.15,2.52,13.47c0,9.54-2.95,15.29-2.95,18.94c0,3.51,9.68-1.4,13.33-1.4c10.38,0,3.37,18.1,21.18,20.76
		c4.21,0.84,4.77,3.37,3.37,6.17c0,0,2.52-0.28,5.47-0.98c3.79-0.56,5.19,1.82,5.19,9.4c0,9.96-5.19,11.22-10.24,11.22
		c-18.94,0-21.04-22.02-29.88-22.02c-2.95,0-18.66,5.33-22.02,7.86c0.98,1.26,4.91,3.23,9.4,3.23c3.93,0,5.61,1.96,7.01,1.96
		c3.51,0,7.29,0.14,7.29,6.59c0,9.54-3.51,13.47-12.06,13.47c-16.69,0-16.55-17.39-30.3-17.39c-4.49,0-16.27,5.61-27.21,5.61
		c-13.05,0-21.6-9.82-33.95-9.82c-5.33,0-8,4.21-8,8.28C273.53,188.53,279.99,190.49,279.99,194.7 M243.52,219.67
		c-1.82-5.75-7.43-16.41-13.89-16.41c-3.37,0-6.31,2.95-6.31,2.95c-0.14-1.82-1.26-3.51-1.26-4.77c0.14-1.26,3.09-7.01,10.52-7.01
		c5.89,0,12.34,5.47,12.34,14.17C244.78,213.36,244.08,217,243.52,219.67 M196.1,199.19c-4.35-5.75-11.5-1.96-11.5-11.5
		c0-1.26,1.26-5.33,5.47-5.33c2.1,0,4.21,1.4,4.21,3.65c0,0.84-0.56,1.82-0.56,3.09C193.72,193.58,197.65,195.26,196.1,199.19
		 M256,30.86c85.57,0,160.05,47.97,198.21,118.25c-1.68-0.14-3.65,0.56-5.19,2.24c-0.28,0.28-8.28,9.12-23,23.99
		c0-0.7,0.14-1.4,0.14-2.24c0-12.06-4.21-12.48-10.1-11.36c0,0,0.14-4.35-5.89-5.61c-15.99-1.96-8.7-20.9-21.6-20.9
		c-2.95,0-6.87,1.82-10.66,2.52c0.7-4.91,2.67-8.98,2.67-17.67c0-4.49-0.98-8.14-1.82-10.94c5.47,0.42,11.92,1.82,17.11,3.37
		c-2.24,1.4-4.07,3.51-4.07,6.87c0,6.73,9.26,11.78,22.02,11.78c22.44,0,18.66-13.61,8.28-12.91c1.12-1.12,1.96-2.52,1.96-4.63
		c0-9.54-11.64-9.96-30.02-14.59c-52.18-14.87-82.62-32.12-110.68-43.48c8.98,2.81,22.16,5.89,38.29,10.24
		c40.4,11.08,60.18,22.58,63.12,12.2c2.38-8.84-23.71-17.53-57.09-26.65c-55.13-15.15-57.51-9.68-58.35-6.73
		c-0.84,3.09,1.12,5.47,5.33,7.57c-15.71-5.75-31.28-9.26-50.22-9.26c-67.19,0-60.32,46.01-96.37,55.13
		c-35.21,8.98-38.15,28.62-38.15,48.11c0,10.52,3.37,22.02,7.43,25.25c14.59,11.64,18.8,18.94,23,23.29
		c2.52,2.81,7.43,4.63,9.26,6.45c4.63,4.35,6.59,12.06,14.31,12.06c4.77,0,8.28-4.21,11.08-6.31c0,2.81,1.82,10.24,15.43,3.65
		c0,0,10.94,3.51,18.94-0.7c-0.14,0.7-0.28,1.26-0.28,2.1c0,12.91,9.82,13.61,15.15,13.05c7.01,0,19.08,6.87,25.25,6.87
		c5.75,0,10.24-2.1,12.62-5.19c0.98,6.45,9.96,11.5,15.99,11.5c6.03,0,20.48-6.17,27.21-6.17c7.15,0,15.15-0.84,15.15-9.4
		c0-5.19-3.65-19.08-11.78-19.08c-2.52,0-4.77,1.4-7.29,3.37c0.42-0.84,0.7-1.68,0.7-2.67c0-2.38-1.4-3.93-3.09-5.05
		c2.24-1.4,3.09-3.37,3.09-5.19c0-5.61-6.31-7.43-6.31-12.62c0-1.96,1.12-5.89,5.61-5.89c11.64,0,20.34,9.82,33.95,9.82
		c10.8,0,23.43-5.61,27.21-5.61c12.06,0,12.48,17.39,30.3,17.39c13.05,0,14.45-9.12,14.45-15.85c0-6.87-4.21-9.54-9.68-8.98
		c-4.35-2.81-7.72-1.54-11.36-2.67c5.47-2.38,14.59-5.33,16.97-5.47c6.03,0,10.38,22.16,29.74,22.16c0.42,0,0.7,0,1.12,0
		c-32.82,32.4-87.81,83.18-158.37,136.77C137.61,233.56,63.54,151.78,62.7,150.79c-1.68-1.68-3.51-2.38-5.19-2.24
		C95.95,78.69,170.43,30.86,256,30.86 M271.71,45.59c0-1.82,14.73-2.81,55.41,8.28c29.74,8.14,56.95,17.67,55.41,23.71
		c-1.82,6.87-22.02-3.37-60.18-13.89C287.28,54.15,271.85,51.34,271.71,45.59 M30.86,256c0-34.09,7.57-66.49,21.32-95.39
		c0.14,5.75,1.96,14.87,9.68,22.86c0.84,0.98,73.22,80.94,172.26,156.55c-5.19,3.79-11.5,8.28-17.53,12.62
		c-0.14-0.7-0.42-1.54-0.84-2.24c-2.24-3.51-8.42-4.91-14.03-1.26c-8.7,5.47-8.98,13.75-7.29,23.29c-0.28,0-0.56,0-0.84,0.14
		c-2.24,0.42-3.93,1.82-5.19,3.93c0,0-2.95-0.28-5.61,3.93c0,0-3.09-0.28-5.61,3.93c0,0-2.95-0.42-5.61,3.93
		c0,0-3.09-0.28-5.61,3.93c0,0-3.09-0.28-5.61,3.93c0,0-2.95-0.28-5.61,3.93c0,0-3.09-0.28-5.61,3.79c0,0-2.95-0.28-5.61,3.93h-0.42
		c-3.79,0.7-6.31,4.07-6.87,8.7c-5.05-4.63-10.1-7.29-16.55-3.23c-4.49,2.95-8.56,9.82-5.33,17.96
		C63.4,389.54,30.86,326.42,30.86,256 M256,481.14c-47.83,0-92.3-15.01-128.91-40.68c2.52-0.42,4.91-1.68,6.59-2.81
		c6.59,5.33,26.37,25.25,58.77,4.63c26.51-16.69,26.51-40.12,23.43-58.21c12.48-8.42,28.9-19.64,39.98-27.77
		c11.08,8.14,27.49,19.36,39.98,27.77c-3.09,18.1-3.09,41.52,23.43,58.21c32.54,20.48,52.32,0.7,58.77-4.63
		c1.68,1.12,3.93,2.38,6.59,2.81C348.3,466.13,303.83,481.14,256,481.14 M397.82,430.78c3.23-8.28-0.84-15.15-5.33-17.96
		c-6.45-4.07-11.5-1.54-16.55,3.23c-0.56-4.63-3.09-8.14-6.87-8.7h-0.42c-2.67-4.21-5.61-3.93-5.61-3.93
		c-2.52-4.21-5.61-3.79-5.61-3.79c-2.52-4.21-5.61-3.93-5.61-3.93c-2.52-4.21-5.61-3.93-5.61-3.93c-2.52-4.07-5.61-3.93-5.61-3.93
		c-2.67-4.21-5.61-3.93-5.61-3.93c-2.52-4.07-5.61-3.93-5.61-3.93c-2.67-4.21-5.61-3.93-5.61-3.93c-1.26-2.1-2.95-3.51-5.19-3.93
		c-0.28,0-0.56,0-0.84-0.14c1.68-9.54,1.4-17.67-7.29-23.29c-5.61-3.51-11.78-2.24-14.03,1.26c-0.56,0.84-0.7,1.54-0.84,2.24
		c-6.03-4.35-12.34-8.84-17.53-12.62c99.03-75.19,171.41-155.14,172.26-156.13c7.72-8,9.4-17.11,9.68-22.86
		c13.61,29.04,21.32,61.3,21.32,95.39C481.14,326.42,448.6,389.54,397.82,430.78"/>
	<path id="XMLID_30_" class="st1" d="M311.41,392.91c-1.4,12.91,0.84,26.37,18.24,37.45c16.41,10.38,26.93,6.31,35.21-0.42
		c-1.82-0.42-3.23-1.82-3.93-3.93c0,0-3.65,1.4-5.61-3.93c0,0-3.79,1.26-5.61-3.93c0,0-3.65,1.26-5.61-3.93c0,0-3.65,1.26-5.61-3.93
		c0,0-3.79,1.26-5.61-3.93c0,0-3.65,1.26-5.61-3.93c0,0-3.79,1.26-5.61-3.93c0,0-3.65,1.26-5.61-3.79c-0.42,0-0.84,0.28-1.26,0.14
		C313.37,394.87,312.25,394.03,311.41,392.91 M313.51,397.26c0.28,0,0.56,0.14,0.84,0.14h0.42c2.67,4.21,5.61,3.79,5.61,3.79
		c2.52,4.21,5.61,3.93,5.61,3.93c2.67,4.21,5.61,3.93,5.61,3.93c2.52,4.21,5.61,3.93,5.61,3.93c2.52,4.07,5.61,3.79,5.61,3.79
		c2.67,4.21,5.61,3.93,5.61,3.93c2.52,4.21,5.61,3.79,5.61,3.79c2.67,4.21,5.61,3.93,5.61,3.93c0.42,0.56,0.84,1.12,1.26,1.68
		c-7.29,4.77-16.41,6.59-29.74-1.82C316.46,419,313.09,408.2,313.51,397.26"/>
	<path id="XMLID_33_" class="st1" d="M182.36,430.22c17.39-10.94,19.64-24.41,18.24-37.45c-0.84,1.12-1.96,1.96-3.23,2.24
		c-0.42,0.14-0.84-0.14-1.26-0.14c-1.96,5.05-5.61,3.79-5.61,3.79c-1.82,5.05-5.61,3.79-5.61,3.79c-1.96,5.05-5.61,3.93-5.61,3.93
		c-1.82,5.05-5.61,3.93-5.61,3.93c-1.96,5.19-5.61,3.93-5.61,3.93c-1.82,5.05-5.61,3.93-5.61,3.93c-1.82,5.05-5.61,3.93-5.61,3.93
		c-1.96,5.19-5.61,3.93-5.61,3.93c-0.84,2.1-2.1,3.51-3.93,3.93C155.28,436.67,165.8,440.6,182.36,430.22 M152.48,428.4
		c0,0,2.95,0.28,5.61-3.93c0,0,3.09,0.28,5.61-3.93c0,0,2.95,0.42,5.61-3.93c0,0,3.09,0.28,5.61-3.93c0,0,3.09,0.28,5.61-3.93
		c0,0,2.95,0.28,5.61-3.93c0,0,3.09,0.28,5.61-3.93c0,0,2.95,0.42,5.61-3.93h0.42c0.28,0,0.56-0.14,0.84-0.14
		c0.42,10.94-2.95,21.74-17.39,31c-13.19,8.42-22.44,6.59-29.74,1.82C151.78,429.52,152.2,428.96,152.48,428.4"/>
	<path id="XMLID_36_" class="st1" d="M282.65,266.8c55.27-20.48,91.18-39.56,87.81-48.82c-3.51-9.4-29.18,3.93-96.37,28.9
		c-32.4,11.92-34.23,15.01-32.12,20.9C243.66,272.27,249.55,279,282.65,266.8 M274.94,248.99c57.79-21.46,91.04-36.33,93.28-30.3
		c2.67,7.29-44.05,30.02-86.27,45.73c-31.28,11.5-36.33,5.61-37.59,2.38C242.53,262.17,247.86,259.09,274.94,248.99"/>
	<path id="XMLID_39_" class="st2" d="M256,6.45C118.11,6.45,6.45,118.11,6.45,256S118.25,505.55,256,505.55
		c137.89,0,249.55-111.8,249.55-249.55C505.55,118.11,393.89,6.45,256,6.45 M256,487.59C128.07,487.59,24.41,383.93,24.41,256
		S128.07,24.41,256,24.41S487.59,128.07,487.59,256S383.93,487.59,256,487.59"/>
	<path id="XMLID_40_" class="st2" d="M315.2,392.63c0.98,0.14,1.82-0.28,2.67-1.12c0.7,6.31,4.35,5.33,5.61,3.93
		c0.7,6.31,4.35,5.33,5.61,3.93c0.7,6.31,4.35,5.33,5.61,3.93c0.7,6.31,4.35,5.33,5.61,3.93c0.7,6.31,4.35,5.33,5.61,3.93
		c0.7,6.31,4.35,5.33,5.61,3.93c0.7,6.31,4.35,5.33,5.61,3.93c0.7,6.31,4.35,5.47,5.61,3.93c0.28,2.67,1.26,4.63,2.95,4.91
		c2.24,0.42,4.63-2.81,5.47-7.01c0.7-4.35-0.56-8.14-2.81-8.42c-0.84-0.14-1.82,0.28-2.67,1.12c-0.7-6.31-4.35-5.33-5.61-3.93
		c-0.7-6.31-4.21-5.33-5.61-3.93c-0.7-6.31-4.35-5.33-5.61-3.93c-0.7-6.31-4.35-5.33-5.61-3.93c-0.7-6.31-4.35-5.47-5.61-3.93
		c-0.7-6.31-4.35-5.33-5.61-3.79c-0.7-6.31-4.35-5.33-5.61-3.93c-0.7-6.31-4.35-5.33-5.61-3.79c-0.28-2.67-1.26-4.63-2.95-4.91
		c-2.24-0.42-4.63,2.81-5.47,7.01C311.55,388.7,312.95,392.35,315.2,392.63"/>
	<path id="XMLID_41_" class="st2" d="M146.45,427.56c1.54-0.28,2.67-2.24,2.95-4.91c1.26,1.54,4.91,2.38,5.61-3.79
		c1.26,1.54,4.91,2.38,5.61-3.93c1.26,1.54,4.91,2.38,5.61-3.79c1.26,1.54,4.91,2.38,5.61-3.93c1.26,1.54,4.91,2.38,5.61-3.93
		c1.26,1.54,4.91,2.38,5.61-3.79c1.26,1.54,4.91,2.38,5.61-3.93c1.26,1.54,4.91,2.38,5.61-3.93c0.84,0.84,1.82,1.26,2.67,1.12
		c2.24-0.42,3.51-4.21,2.81-8.42c-0.7-4.35-3.23-7.43-5.47-7.01c-1.68,0.28-2.67,2.24-2.95,4.91c-1.26-1.54-4.91-2.38-5.61,3.93
		c-1.26-1.54-4.91-2.38-5.61,3.93c-1.26-1.54-4.91-2.38-5.61,3.93c-1.26-1.54-4.91-2.38-5.61,3.93c-1.26-1.54-4.91-2.38-5.61,3.93
		c-1.26-1.54-4.91-2.38-5.61,3.93c-1.26-1.54-4.91-2.38-5.61,3.93c-1.26-1.54-4.91-2.38-5.61,3.93c-0.84-0.84-1.82-1.26-2.67-1.12
		c-2.24,0.42-3.51,4.21-2.81,8.42C141.82,424.75,144.2,427.98,146.45,427.56"/>
	<path id="XMLID_42_" class="st2" d="M389.82,416.89c-14.03-8.84-23.57,39.28-61.58,15.43c-41.8-26.37-0.84-66.77-20.48-79.11
		c-3.37-2.1-6.59-1.26-7.29-0.14c-0.7,1.12,1.4,2.52,3.09,4.77c7.29,9.26-23.71,54.15,18.38,80.66
		c36.05,22.72,53.58-8.14,56.53-6.31c2.38,1.54,8.28,7.72,13.19,0C396.13,425.03,393.33,419,389.82,416.89"/>
	<path id="XMLID_43_" class="st2" d="M208.31,357.7c1.68-2.1,3.93-3.51,3.23-4.77c-0.7-1.12-3.93-1.96-7.29,0.14
		c-19.64,12.34,21.32,52.74-20.48,79.11c-37.87,23.85-47.41-24.27-61.44-15.43c-3.37,2.1-6.31,8.14-1.96,15.01
		c4.91,7.72,10.8,1.54,13.19,0.14c2.95-1.82,20.48,29.04,56.53,6.31C232.01,411.84,201.01,366.96,208.31,357.7"/>
	<path id="XMLID_44_" class="st3" d="M134.8,174.92c-0.84,0-1.68,1.4-1.68,1.96s1.4,2.38,2.38,2.38c0.56,0,1.26-0.28,1.26-0.84
		C136.77,176.46,136.63,174.92,134.8,174.92"/>
	<path id="XMLID_47_" class="st4" d="M256,3.23C116.57,3.23,3.23,116.57,3.23,256S116.57,508.77,256,508.77
		S508.77,395.43,508.77,256S395.43,3.23,256,3.23 M256,505.55C118.11,505.55,6.45,393.75,6.45,256C6.45,118.11,118.25,6.45,256,6.45
		c137.89,0,249.55,111.66,249.55,249.55S393.89,505.55,256,505.55"/>
	<path id="XMLID_50_" class="st4" d="M256,24.41C128.07,24.41,24.41,128.07,24.41,256S128.07,487.59,256,487.59
		S487.59,383.93,487.59,256S383.93,24.41,256,24.41 M256,484.37c-125.97,0-228.37-102.4-228.37-228.37S130.03,27.63,256,27.63
		S484.37,130.17,484.37,256C484.37,381.97,381.97,484.37,256,484.37"/>
	<path id="XMLID_51_" class="st4" d="M459.96,160.61c-0.14,5.75-1.96,14.87-9.68,23c-0.84,0.98-73.36,80.94-172.26,156.55
		c5.19,3.79,11.5,8.28,17.53,12.62c0.14-0.7,0.42-1.54,0.84-2.24c2.24-3.51,8.42-4.91,14.03-1.26c8.7,5.47,8.98,13.75,7.29,23.29
		c0.28,0,0.56,0,0.84,0.14c2.24,0.42,3.93,1.82,5.19,3.93c0,0,2.95-0.28,5.61,3.93c0,0,3.09-0.28,5.61,3.93c0,0,2.95-0.42,5.61,3.93
		c0,0,3.09-0.28,5.61,3.93c0,0,3.09-0.28,5.61,3.93c0,0,2.95-0.28,5.61,3.93c0,0,3.09-0.28,5.61,3.93c0,0,2.95-0.28,5.61,3.79h0.42
		c3.79,0.7,6.31,4.07,6.87,8.7c5.05-4.63,10.1-7.29,16.55-3.23c4.63,2.81,8.56,9.82,5.33,17.96
		c50.78-41.38,83.46-104.36,83.46-174.78C481.14,221.91,473.56,189.51,459.96,160.61"/>
	<path id="XMLID_52_" class="st4" d="M232.43,194.42c-7.43,0-10.38,5.89-10.52,7.01c0,1.26,1.12,2.95,1.26,4.77
		c0,0,2.95-3.09,6.31-3.09c6.45,0,12.2,10.66,13.89,16.41c0.7-2.67,1.26-6.31,1.26-10.94C244.78,199.89,238.47,194.42,232.43,194.42
		"/>
	<path id="XMLID_53_" class="st4" d="M319.54,442.42c-26.51-16.69-26.51-40.12-23.43-58.21c-12.48-8.28-28.9-19.64-40.12-27.77
		c-11.08,8.14-27.49,19.5-39.98,27.77c3.09,18.1,3.09,41.52-23.43,58.21c-32.54,20.48-52.32,0.7-58.77-4.63
		c-1.68,1.12-3.93,2.38-6.59,2.81c36.61,25.53,81.08,40.68,128.91,40.68c47.97,0,92.3-15.01,128.91-40.68
		c-2.52-0.42-4.91-1.68-6.59-2.81C371.73,443.13,351.95,462.9,319.54,442.42"/>
	<path id="XMLID_54_" class="st4" d="M189.93,182.36c-4.21,0-5.47,4.07-5.47,5.33c0,9.4,7.29,5.61,11.5,11.5
		c1.54-3.93-2.38-5.61-2.38-9.96c0-1.26,0.56-2.24,0.56-3.09C194.14,183.76,192.18,182.36,189.93,182.36"/>
	<path id="XMLID_55_" class="st4" d="M119.51,412.83c6.45-4.07,11.5-1.54,16.55,3.23c0.56-4.63,3.09-8.14,6.87-8.7h0.42
		c2.67-4.21,5.61-3.79,5.61-3.79c2.52-4.21,5.61-3.93,5.61-3.93c2.52-4.21,5.61-3.93,5.61-3.93c2.52-4.21,5.61-3.93,5.61-3.93
		c2.52-4.07,5.61-3.93,5.61-3.93c2.67-4.35,5.61-3.93,5.61-3.93c2.52-4.07,5.61-3.93,5.61-3.93c2.67-4.21,5.61-3.93,5.61-3.93
		c1.26-2.1,2.95-3.51,5.19-3.93c0.28,0,0.56,0,0.84-0.14c-1.68-9.4-1.4-17.67,7.29-23.29c5.61-3.51,11.78-2.24,14.03,1.26
		c0.42,0.84,0.7,1.54,0.84,2.24c6.03-4.35,12.34-8.84,17.53-12.62C134.94,264.42,62.56,184.46,61.72,183.48
		c-7.72-8-9.4-17.11-9.68-23c-13.61,29.04-21.32,61.3-21.32,95.39c0,70.42,32.54,133.54,83.46,174.78
		C111.1,422.51,115.02,415.63,119.51,412.83"/>
	<path id="XMLID_58_" class="st4" d="M256,323.61c70.7-53.58,125.55-104.36,158.37-136.77c-0.42,0-0.7,0-1.12,0
		c-19.36,0-23.71-22.02-29.74-22.02c-2.38,0.14-11.5,3.09-16.97,5.47c3.65,1.26,7.01,0,11.36,2.81c5.47-0.56,9.68,2.1,9.68,8.98
		s-1.54,15.85-14.59,15.85c-17.67,0-18.24-17.39-30.3-17.39c-3.65,0-16.41,5.61-27.21,5.61c-13.61,0-22.44-9.82-33.95-9.82
		c-4.49,0-5.61,3.79-5.61,5.89c0,5.19,6.31,7.01,6.31,12.62c0,1.82-0.84,3.79-3.09,5.19c1.68,1.12,3.09,2.67,3.09,5.05
		c0,0.98-0.28,1.82-0.7,2.52c2.52-1.96,4.63-3.37,7.29-3.37c8.14,0,11.78,13.75,11.78,19.08c0,8.56-8,9.4-15.15,9.4
		c-6.59,0-21.18,6.17-27.21,6.17c-6.03,0-14.87-5.05-15.99-11.5c-2.38,3.09-6.87,5.19-12.62,5.19c-6.31,0-18.24-6.87-25.25-6.87
		c-5.47,0.56-15.15-0.14-15.15-13.05c0-0.84,0.14-1.4,0.28-2.1c-8,4.21-18.94,0.7-18.94,0.7c-13.47,6.59-15.43-0.84-15.43-3.65
		c-2.81,2.1-6.31,6.31-11.08,6.31c-7.86,0-9.82-7.72-14.31-12.06c-1.82-1.82-6.73-3.65-9.26-6.45c-4.35-4.35-8.42-11.5-23-23.29
		c-4.07-3.23-7.43-14.87-7.43-25.25c0-19.36,2.95-39.14,38.15-48.11c36.05-9.12,29.18-55.13,96.37-55.13
		c18.94,0,34.51,3.65,50.22,9.26c-4.21-2.1-6.17-4.49-5.33-7.57c0.84-2.95,3.09-8.42,58.35,6.73c33.24,9.12,59.48,17.81,57.09,26.65
		c-2.81,10.38-22.72-1.12-63.12-12.2c-16.13-4.49-29.32-7.43-38.29-10.24c28.05,11.36,58.63,28.48,110.82,43.48
		c18.24,4.63,29.88,5.19,29.88,14.59c0,2.1-0.84,3.51-1.96,4.63c10.38-0.7,14.17,12.91-8.28,12.91c-12.76,0-21.88-4.91-21.88-11.78
		c0-3.51,1.82-5.47,4.07-6.87c-5.19-1.4-11.64-2.81-17.11-3.23c0.84,2.81,1.82,6.31,1.82,10.94c0,8.7-1.96,12.76-2.67,17.67
		c3.79-0.7,7.72-2.52,10.66-2.52c12.91,0,5.61,18.94,21.46,20.9c6.17,1.12,6.03,5.61,6.03,5.61c6.03-1.12,10.1-0.7,10.1,11.36
		c0,0.84,0,1.54-0.14,2.24c14.73-14.87,22.72-23.71,23-24.13c1.54-1.68,3.51-2.38,5.19-2.24C416.05,78.69,341.57,30.86,256,30.86
		S95.95,78.83,57.79,149.11c1.68-0.14,3.65,0.56,5.19,2.24C63.82,152.34,137.89,234.12,256,323.61 M274.1,246.74
		c67.19-24.83,93-38.15,96.37-28.9c3.37,9.26-32.4,28.34-87.81,48.82c-33.1,12.2-39,5.61-40.68,0.84
		C239.73,261.75,241.69,258.81,274.1,246.74"/>
	<path id="XMLID_59_" class="st4" d="M353.91,424.47c0,0-3.09,0.28-5.61-3.93c0,0-2.95,0.42-5.61-3.93c0,0-3.09,0.28-5.61-3.93
		c0,0-3.09,0.28-5.61-3.93c0,0-2.95,0.28-5.61-3.93c0,0-3.09,0.28-5.61-3.93c0,0-2.95,0.28-5.61-3.93h-0.42
		c-0.28,0-0.56-0.14-0.84-0.14c-0.42,10.94,2.95,21.74,17.39,31c13.33,8.42,22.44,6.59,29.74,1.82c-0.42-0.56-0.84-0.98-1.26-1.68
		C359.38,428.4,356.58,428.68,353.91,424.47"/>
	<path id="XMLID_60_" class="st4" d="M191.75,401.32c-2.52,4.21-5.61,3.79-5.61,3.79c-2.67,4.21-5.61,3.93-5.61,3.93
		c-2.52,4.21-5.61,3.79-5.61,3.79c-2.52,4.07-5.61,3.93-5.61,3.93c-2.67,4.21-5.61,3.93-5.61,3.93c-2.52,4.21-5.61,3.79-5.61,3.79
		c-2.67,4.21-5.61,3.93-5.61,3.93c-0.42,0.56-0.7,1.12-1.26,1.68c7.29,4.77,16.41,6.59,29.74-1.82c14.45-9.12,17.81-20.06,17.39-31
		c-0.28,0-0.56,0.14-0.84,0.14h-0.42C194.56,401.6,191.75,401.32,191.75,401.32"/>
	<path id="XMLID_61_" class="st4" d="M139.85,144.9c-3.09,0-4.07,1.4-4.07,2.1s3.37,9.12,5.61,9.12c2.81,0,7.29-5.19,7.29-7.43
		C148.55,146.45,143.08,144.9,139.85,144.9"/>
	<path id="XMLID_62_" class="st4" d="M141.68,202.28c0,1.4,2.67,3.23,2.67,3.23s2.67-3.65,2.67-6.31
		C147.01,198.21,141.68,199.05,141.68,202.28"/>
	<path id="XMLID_63_" class="st4" d="M142.1,131.16c0-8.14-6.59-15.57-19.08-15.57c-13.19,0-21.74,7.29-21.74,11.64
		c0,3.65,5.75-3.79,14.31-3.79c5.05,0,10.1,2.81,10.1,7.01c0,3.37-4.21,5.75-4.21,8.56c0,1.96,1.4,6.03,6.31,6.03
		C135.22,145.18,142.1,139.29,142.1,131.16"/>
	<path id="XMLID_66_" class="st4" d="M281.53,173.8c12.34,0,21.04,9.82,33.95,9.82c10.94,0,22.72-5.61,27.21-5.61
		c13.75,0,13.61,17.39,30.3,17.39c8.56,0,12.06-3.93,12.06-13.47c0-6.45-3.79-6.59-7.29-6.59c-1.26,0-3.09-1.96-7.01-1.96
		c-4.49,0-8.42-1.96-9.4-3.23c3.37-2.52,19.08-7.86,22.02-7.86c8.98,0,10.94,22.02,29.88,22.02c5.05,0,10.24-1.4,10.24-11.22
		c0-7.57-1.4-9.96-5.19-9.4c-2.81,0.56-5.47,0.98-5.47,0.98c1.4-2.81,0.84-5.33-3.37-6.17c-17.81-2.81-10.8-20.9-21.18-20.9
		c-3.65,0-13.33,4.91-13.33,1.4c0-3.65,2.95-9.4,2.95-18.94c0-6.31-2.52-13.47-2.52-13.47c8.98,0,21.88,3.37,27.77,5.89
		c-3.79,0.7-9.12,1.96-9.12,6.87c0,5.19,8.56,9.4,19.5,9.4c17.81,0,15.85-8,9.4-8c-6.73,0-9.26-0.56-10.24-1.12
		c3.09-1.12,8.7-1.26,8.7-5.89c0-7.86-10.38-7.43-28.2-12.34C313.51,79.54,279,45.59,224.3,45.59c-66.35,0-57.79,45.45-95.81,54.99
		c-33.53,8.56-36.33,26.51-36.33,45.73c0,10.38,3.51,20.9,6.59,23.43c7.86,6.73,13.33,11.08,23.29,23.43
		c1.82,2.1,7.01,4.35,9.26,6.45c4.63,4.63,6.45,11.36,12.62,11.36c5.47,0,9.54-7.86,16.97-9.82c-1.82,1.68-3.37,3.79-3.37,6.17
		c0,5.47,6.31,4.07,12.76,0.98c14.59,3.79,19.78-0.28,23.71-5.05c0.7-0.98,0.56-2.24-0.28-3.23c-4.77-4.35-11.78-1.82-11.78-12.48
		c0-2.1,1.82-7.72,7.86-7.72c3.37,0,7.86,2.81,6.31,8.14c-0.98,3.37,2.52,5.75,2.52,8.28c0,9.4-7.15,10.1-7.15,16.13
		c0,10.8,8,11.08,12.62,10.66c7.43,0,20.06,6.87,25.39,6.87c6.87,0,11.92-3.23,11.92-7.29c0-3.23-6.59-16.83-12.06-16.83
		c-3.09,0-5.33,3.79-7.15,3.79c-1.26,0-1.96-0.42-1.96-0.56c1.68-2.67-0.84-4.35-0.84-7.43c0-2.24,4.07-9.54,12.91-9.54
		c7.15,0,14.73,6.31,14.73,16.55c0,9.12-2.67,15.15-2.67,17.25c0,5.47,8.56,10.24,13.75,10.24c5.61,0,19.64-6.17,27.21-6.17
		c8,0,12.76-1.26,12.76-6.87c0-5.05-3.51-16.55-9.26-16.55c-5.05,0-12.48,11.5-22.02,11.5c0.42-1.26,2.1-3.65,2.81-4.07
		c6.03-3.09,10.24-5.61,10.24-8.98c0-2.95-4.07-4.07-6.31-6.03c4.21-0.42,6.31-1.26,6.31-4.35c0-4.35-6.31-6.17-6.31-12.62
		C273.53,177.87,276.34,173.8,281.53,173.8 M271.15,182.08c0,7.29,6.31,9.82,6.31,12.62c0,3.09-7.01,0.56-7.01,3.65
		c0,3.09,7.01,5.05,7.01,6.59c0,2.81-7.57,6.03-9.12,6.87c-1.4,0.84-4.21,4.91-4.21,6.59s1.4,1.96,2.67,1.96
		c10.38,0,18.52-11.5,22.02-11.5c3.51,0,6.87,9.4,6.87,14.17c0,4.91-6.03,4.49-11.36,4.49s-21.74,6.17-26.09,6.17
		s-11.22-4.21-11.22-7.86c0-1.96,2.67-7.57,2.67-17.25c0-11.78-8.84-19.08-17.25-19.08c-10.1,0-15.29,8.14-15.29,11.92
		c0,3.09,1.96,5.05,1.26,6.17c-1.26,2.1,0.7,4.21,4.07,4.21c2.95,0,5.19-3.79,7.15-3.79c3.51,0,9.68,11.78,9.68,14.31
		c0,2.67-4.21,4.91-9.54,4.91c-4.35,0-17.25-6.87-25.67-6.87c-3.51,0.28-10.1,0.98-10.1-8.28c0-4.49,7.15-5.75,7.15-16.13
		c0-3.51-3.23-5.61-2.67-7.57c1.96-6.03-2.67-11.22-8.56-11.22c-7.43,0-10.24,6.73-10.24,10.1c0,12.34,9.4,11.08,12.48,14.17
		c-7.01,9.4-18.8,4.07-21.88,4.07c-1.82,0-10.24,5.19-10.24,1.4c0-4.49,11.08-9.12,4.21-9.12c-10.24,0-15.43,10.38-20.2,10.38
		c-4.63,0-6.03-5.75-10.94-10.66c-3.23-3.23-6.17-3.51-9.12-6.59c-3.51-3.51-8.14-11.36-23.43-23.57
		c-1.96-1.54-5.61-10.66-5.61-21.46c0-19.22,2.95-35.35,34.51-43.34c39.98-10.1,29.46-54.99,95.11-54.99
		c53.44,0,83.04,31.56,168.19,55.83c17.11,4.91,26.51,4.49,26.51,9.96c0,3.79-9.12,2.24-9.12,5.75c0,3.51,7.86,3.79,13.05,3.79
		c5.19,0,0.98,3.23-9.4,3.23c-10.38,0-17.11-3.79-17.11-6.87c0-5.33,11.78-4.07,11.78-6.17c0-2.95-21.04-8.98-33.1-8.98
		c-5.47,0,0.14,5.89,0.14,15.99c0,8.98-2.95,14.73-2.95,18.94c0,7.57,12.2,0.98,15.71,0.98c7.29,0,1.82,17.67,20.76,20.76
		c4.07,0.7,0.7,2.95,0.7,5.19c0,2.24,7.15,0.28,8.56,0c1.4-0.14,2.67-0.98,2.67,6.87c0,7.86-3.37,8.84-7.86,8.84
		c-17.81,0-18.8-22.02-29.88-22.02c-3.09,0-24.83,6.87-24.83,9.96c0,2.95,6.45,5.89,12.2,5.89c3.93,0,4.35,1.96,7.01,1.96
		s4.91-0.42,4.91,4.07c0,8.28-2.52,11.08-9.68,11.08c-15.29,0-14.87-17.39-30.3-17.39c-5.05,0-16.69,5.61-27.21,5.61
		c-12.48,0-20.76-9.82-33.95-9.82C274.8,171.27,271.15,176.75,271.15,182.08"/>
	<path id="XMLID_69_" class="st4" d="M134.66,168.33c0-3.79,4.63-7.01,1.4-7.01c-5.75,0-3.37,14.73-7.86,20.9
		c0,0-0.84,2.52,2.67,2.52c5.05,0,10.24-5.05,10.24-8.28C140.98,171.41,134.66,172.68,134.66,168.33 M135.5,179.27
		c-0.98,0-2.38-1.82-2.38-2.38c0-0.56,0.84-1.96,1.68-1.96c1.96,0,1.96,1.54,1.96,3.51C136.77,178.99,136.07,179.27,135.5,179.27"/>
	<path id="XMLID_74_" class="st4" d="M391.22,414.79c-6.73-4.35-11.92,0.7-18.1,6.87c0.14-0.28,0.14-0.56,0.14-0.84
		c0.98-5.75-0.98-10.66-4.77-11.22c-0.42-0.14-0.84,0.14-1.4,0.14c-1.96-5.05-5.61-3.79-5.61-3.79c-1.82-5.05-5.61-3.93-5.61-3.93
		c-1.96-5.05-5.61-3.93-5.61-3.93c-1.82-5.05-5.61-3.93-5.61-3.93c-1.96-5.19-5.61-3.93-5.61-3.93c-1.96-5.05-5.61-3.93-5.61-3.93
		c-1.82-5.05-5.61-3.93-5.61-3.93c-1.96-5.19-5.61-3.93-5.61-3.93c-0.84-2.24-2.24-3.79-4.21-4.07c-1.26-0.14-2.52,0.14-3.65,0.84
		c2.1-10.38,2.95-19.22-5.47-24.55c-4.35-2.67-9.12-1.96-10.66,0.56c-1.96,3.09,1.82,5.61,3.23,7.57
		c5.61,7.15-23.85,54.15,19.08,81.22c32.68,20.62,50.5-0.42,57.37-5.75c3.37,2.67,10.24,7.01,15.57-1.54
		C398.1,426.57,396.98,418.58,391.22,414.79 M317.86,377.2c1.54,0.28,2.67,2.24,2.95,4.91c1.26-1.54,4.91-2.38,5.61,3.93
		c1.26-1.54,4.91-2.38,5.61,3.93c1.26-1.54,4.91-2.38,5.61,3.93c1.26-1.54,4.91-2.38,5.61,3.93c1.26-1.54,4.91-2.38,5.61,3.93
		c1.26-1.54,4.91-2.38,5.61,3.93c1.26-1.54,4.91-2.38,5.61,3.79c1.26-1.54,4.91-2.38,5.61,3.93c0.84-0.84,1.82-1.26,2.67-1.12
		c2.24,0.42,3.51,4.21,2.81,8.42c-0.7,4.21-3.23,7.43-5.47,7.01c-1.68-0.28-2.67-2.24-2.95-4.91c-1.26,1.54-4.91,2.38-5.61-3.93
		c-1.26,1.54-4.91,2.38-5.61-3.93c-1.26,1.54-4.91,2.38-5.61-3.93c-1.26,1.54-4.91,2.38-5.61-3.79c-1.26,1.54-4.91,2.38-5.61-3.93
		c-1.26,1.54-4.91,2.38-5.61-3.79c-1.26,1.54-4.91,2.38-5.61-3.93c-1.26,1.54-4.91,2.38-5.61-3.93c-0.84,0.84-1.68,1.26-2.67,1.12
		c-2.24-0.42-3.51-4.21-2.81-8.42C313.09,380,315.48,376.78,317.86,377.2 M364.85,429.8c-8.14,6.73-18.66,10.8-35.21,0.42
		c-17.39-10.94-19.64-24.41-18.24-37.45c0.84,1.12,1.96,1.96,3.23,2.24c0.42,0.14,0.84-0.14,1.4-0.14c1.96,5.05,5.61,3.79,5.61,3.79
		c1.82,5.05,5.61,3.93,5.61,3.93c1.96,5.05,5.61,3.93,5.61,3.93c1.82,5.05,5.61,3.93,5.61,3.93c2.1,5.19,5.61,3.93,5.61,3.93
		c1.96,5.05,5.61,3.93,5.61,3.93c1.82,5.05,5.61,3.93,5.61,3.93c1.96,5.19,5.61,3.93,5.61,3.93
		C361.63,427.98,363.03,429.38,364.85,429.8 M391.79,431.9c-4.91,7.72-10.8,1.54-13.19,0.14c-2.95-1.82-20.48,29.04-56.53,6.31
		c-42.08-26.51-11.08-71.4-18.38-80.66c-1.68-2.1-3.93-3.51-3.23-4.77c0.7-1.12,3.93-1.96,7.29,0.14
		c19.64,12.34-21.32,52.74,20.48,79.11c37.87,23.85,47.41-24.27,61.58-15.43C393.19,419,396.13,425.03,391.79,431.9"/>
	<path id="XMLID_79_" class="st4" d="M191.19,440.46c42.92-27.07,13.47-74.06,19.08-81.22c1.54-1.82,5.19-4.49,3.37-7.57
		c-1.54-2.52-6.31-3.23-10.66-0.56c-8.28,5.19-7.43,14.03-5.47,24.55c-1.12-0.7-2.38-0.98-3.65-0.84c-1.96,0.28-3.37,1.82-4.21,4.07
		c0,0-3.65-1.4-5.61,3.79c0,0-3.79-1.12-5.61,3.93c0,0-3.79-1.26-5.61,3.93c0,0-3.51-1.4-5.61,3.93c0,0-3.79-1.26-5.61,3.93
		c0,0-3.65-1.26-5.61,3.93c0,0-3.79-1.26-5.61,3.79c0,0-3.65-1.26-5.61,3.79c-0.42,0-0.84-0.28-1.4-0.14
		c-3.65,0.7-5.75,5.47-4.77,11.22c0,0.28,0.14,0.56,0.14,0.84c-6.03-6.31-11.22-11.22-17.96-6.87c-5.75,3.65-6.87,11.64-2.67,18.38
		c5.33,8.56,12.34,4.07,15.71,1.54C140.69,439.9,158.51,461.08,191.19,440.46 M143.78,411.98c0.84-0.14,1.82,0.28,2.67,1.12
		c0.7-6.31,4.35-5.47,5.61-3.93c0.7-6.31,4.35-5.33,5.61-3.93c0.7-6.31,4.35-5.33,5.61-3.93c0.7-6.31,4.35-5.33,5.61-3.93
		c0.7-6.31,4.35-5.33,5.61-3.93c0.7-6.31,4.35-5.33,5.61-3.93c0.7-6.31,4.35-5.47,5.61-3.93c0.7-6.31,4.35-5.47,5.61-3.93
		c0.28-2.67,1.26-4.63,2.95-4.91c2.24-0.42,4.77,2.81,5.47,7.01s-0.56,8-2.81,8.42c-0.98,0.14-1.82-0.28-2.67-1.12
		c-0.7,6.31-4.35,5.33-5.61,3.93c-0.7,6.31-4.35,5.33-5.61,3.93c-0.7,6.31-4.35,5.33-5.61,3.79c-0.7,6.31-4.35,5.33-5.61,3.93
		c-0.7,6.31-4.35,5.33-5.61,3.93c-0.7,6.31-4.35,5.33-5.61,3.79c-0.7,6.31-4.35,5.33-5.61,3.93c-0.7,6.31-4.35,5.33-5.61,3.79
		c-0.28,2.67-1.26,4.63-2.95,4.91c-2.24,0.42-4.77-2.81-5.47-7.01C140.27,416.19,141.54,412.41,143.78,411.98 M200.59,392.91
		c1.4,12.91-0.84,26.37-18.24,37.45c-16.55,10.38-26.93,6.31-35.21-0.42c1.82-0.42,3.23-1.82,3.93-3.93c0,0,3.65,1.4,5.61-3.93
		c0,0,3.79,1.26,5.61-3.93c0,0,3.79,1.26,5.61-3.93c0,0,3.51,1.26,5.61-3.93c0,0,3.79,1.26,5.61-3.93c0,0,3.65,1.26,5.61-3.93
		c0,0,3.79,1.26,5.61-3.79c0,0,3.65,1.26,5.61-3.79c0.42,0.14,0.84,0.28,1.26,0.14C198.63,394.87,199.75,394.03,200.59,392.91
		 M133.4,432.04c-2.38,1.54-8.28,7.72-13.19-0.14c-4.35-6.87-1.4-12.91,1.96-15.01c14.03-8.84,23.57,39.28,61.58,15.43
		c41.8-26.37,0.84-66.77,20.48-79.11c3.37-2.1,6.59-1.26,7.29-0.14c0.7,1.12-1.4,2.52-3.09,4.77c-7.29,9.26,23.71,54.01-18.38,80.66
		C153.88,461.08,136.35,430.08,133.4,432.04"/>
	<path id="XMLID_82_" class="st4" d="M238.04,340.02c-8.7,6.45-18.94,13.75-28.05,20.2l4.07,22.3
		c13.33-8.84,29.32-19.92,41.94-29.04c12.62,9.26,28.76,20.34,41.94,29.04l4.21-22.3c-9.12-6.45-19.36-13.75-28.05-20.2
		C374.11,264,447.75,182.78,448.6,181.8c11.5-11.92,8.84-26.51,8.7-26.93c-0.42-3.09-3.65-4.77-6.45-1.82
		c-0.84,0.98-75.61,83.46-194.7,173.66C137.05,236.64,62.28,154.02,61.44,153.04c-2.67-2.81-6.03-1.26-6.45,1.82
		c-0.14,0.56-2.81,15.01,8.7,26.93C64.39,182.78,137.89,264,238.04,340.02 M57.23,155.28c0.42-2.52,2.24-0.56,2.24-0.56
		S134.52,238.19,256,329.78c121.48-91.6,196.52-175.06,196.52-175.06s1.82-1.96,2.24,0.56c0,0,2.67,13.75-8,24.97
		c0,0-74.49,82.62-176.75,159.91c9.54,7.01,19.36,14.17,29.46,21.18l-3.23,17.25c-13.75-9.12-27.21-18.52-40.26-28.05
		c-13.05,9.54-26.51,18.94-40.26,28.05l-3.23-17.25c10.1-7.01,19.92-14.17,29.46-21.18C139.71,263.01,65.23,180.25,65.23,180.25
		C54.57,169.03,57.23,155.28,57.23,155.28"/>
	<path id="XMLID_85_" class="st4" d="M281.81,264.56c42.22-15.71,89.07-38.44,86.27-45.73c-2.24-6.03-35.49,8.84-93.28,30.3
		c-26.93,9.96-32.4,13.19-30.58,17.81C245.48,270.03,250.53,276.06,281.81,264.56 M275.78,251.37c48.39-17.96,89.21-34.37,90.2-31.7
		c1.96,5.33-55.55,31.84-84.87,42.64c-29.32,10.8-33.81,5.61-34.51,3.79C245.34,262.73,254.18,259.37,275.78,251.37"/>
	<path id="XMLID_88_" class="st4" d="M382.39,77.71c1.68-6.03-25.53-15.57-55.41-23.71c-40.68-11.22-55.41-10.24-55.41-8.28
		c0.14,5.75,15.57,8.56,50.64,18.1C360.36,74.2,380.56,84.44,382.39,77.71 M326.42,56.25c26.23,7.15,54.57,17.39,53.72,20.76
		c-0.98,3.23-21.46-5.75-57.09-15.57c-35.63-9.82-46.29-12.48-48.96-15.01C273.11,45.45,300.19,49.1,326.42,56.25"/>
</g>
</svg>
