<?xml version="1.0" encoding="utf-8"?>
<!-- Generator: Adobe Illustrator 24.3.0, SVG Export Plug-In . SVG Version: 6.00 Build 0)  -->
<svg version="1.1" id="Layer_1" xmlns="http://www.w3.org/2000/svg" xmlns:xlink="http://www.w3.org/1999/xlink" x="0px" y="0px"
	 viewBox="0 0 512 512" style="enable-background:new 0 0 512 512;" xml:space="preserve">
<style type="text/css">
	.st0{fill:#FFC758;}
	.st1{fill:#E03A3E;}
</style>
<g id="XMLID_1_">
	<path id="XMLID_5_" d="M106.04,307.76c-9.82-2.81-14.17-9.82-14.17-9.82c5.33-1.54,7.86-9.12,11.78-10.1
		c6.17-1.4,3.65,4.63,20.06,12.77c6.03,2.81,6.87,3.09,11.5,3.93C123.86,310.15,116.98,310.85,106.04,307.76 M506.13,220.23
		C531.8,128.2,471.34,37.86,360.65,37.86c-66.77,0-114.33,45.31-142.81,45.31c-11.64,0-25.25-23.29-25.25-23.29
		c-19.78,11.36-15.43,31.98-15.43,31.98c-15.43-9.12-40.82-8.98-40.82-8.98C114.18,83.03,94.4,97.34,94.4,97.34
		c-13.05,9.54-17.82,21.46-17.82,21.46c-14.73,4.21-30.72,19.22-30.72,19.22c-3.93,3.93-5.47,5.19-5.47,5.19
		c-9.82,7.43-22.87,7.86-22.87,7.86c0.98,10.52,6.87,20.9,6.87,20.9c9.82,14.87,27.92,17.82,27.92,17.82s-9.26,9.68-24.69,14.45
		c-11.5,3.51-27.64,6.03-27.64,6.03c0.42,3.79,2.1,6.73,2.1,6.73c16.27,26.51,53.59,25.11,53.59,25.11
		c6.31,0.7,17.11-1.12,17.11-1.12c-4.49,6.31-9.82,25.67-9.82,25.67c-2.24,9.54-7.15,13.19-7.15,13.19
		c-5.05,4.07-18.52,12.2-18.52,12.2c5.89,7.72,21.46,11.22,21.46,11.22c0.28,12.63,4.91,30.44,4.91,30.44
		c-21.04-4.49-31.98,2.24-31.98,2.24c6.03,5.33,10.66,12.49,10.66,12.49c7.29,8.84,8.84,26.09,8.84,26.09
		c1.54,20.62,7.86,35.21,12.91,42.79s15.01,15.01,15.01,15.01c6.87,5.75,19.64,8.7,19.64,8.7c8.84,2.38,17.25,0.56,17.25,0.56
		c-5.61,4.77-21.46,10.8-21.46,10.8c4.35,9.54,17.25,15.01,17.25,15.01c10.52,5.89,28.2,6.73,28.2,6.73
		c19.64-0.14,35.63-15.99,35.63-15.99c17.25-15.71,27.92-20.76,45.03-19.5c25.11,1.96,42.65,22.87,90.62,22.87
		c96.93,0,175.35-92.87,187.42-173.67H369.07c0,0-13.61,47.42-46.71,47.42c-25.25,0-42.08-20.48-42.08-53.59
		c0-43.35,36.19-119.24,88.38-119.24c24.41,0,24.27,29.6,14.73,57.8L506.13,220.23L506.13,220.23z"/>
	<path id="XMLID_8_" class="st0" d="M105.62,313.09c-9.54-1.96-14.31-7.86-20.34-15.43l-0.7-1.26c7.15-2.24,11.22-10.38,17.39-14.31
		c9.82-3.09,12.77,10.8,31.42,16.69c5.33,2.67,8.42,3.09,14.03,5.75C134.38,312.53,122.46,317.86,105.62,313.09 M501.92,214.9
		c22.45-96.51-43.63-171.99-140.98-171.99c-62.14,0-111.8,44.61-141.82,45.87c-12.49,0.56-27.64-20.62-27.64-20.62
		c-16.97,12.77-4.49,36.19-4.49,36.19c-25.11-18.52-53.45-15.57-53.45-15.57c-42.22,4.07-52.47,34.51-52.47,34.51
		c-24.55,9.12-33.11,22.16-33.11,22.16c-15.15,10.94-23.99,9.82-23.99,9.82c5.75,31.7,38.86,30.16,38.86,30.16
		c-13.05,25.25-55.55,29.18-55.55,29.18c15.15,24.27,51.34,22.16,51.34,22.16c12.34,1.26,29.18-5.33,37.46-9.12
		c-5.61,2.95-8.14,5.19-8.14,5.19c-15.99,11.22-15.57,31.7-23.85,46.29c-3.23,6.59-12.34,9.68-17.39,13.75
		c5.47,2.81,11.78,5.05,17.68,6.17c-0.14,10.1,4.77,34.79,8,44.61c-11.78-8.84-30.16-4.77-30.16-4.77
		c20.34,25.25,10.8,40.96,21.04,64.53c3.51,11.64,14.03,21.6,24.83,28.76c27.78,12.49,46.85-3.93,46.85-3.93
		c-3.23,15.29-31.98,26.93-31.98,26.93c6.73,7.43,23.29,12.91,33.25,13.61c39.14,2.53,41.1-39.98,84.59-35.63
		c24.83,2.24,47.84,23.43,89.92,23.43c105.07,0,173.39-106.33,181.52-163.57h-119.1c0,0-14.59,47.7-49.94,47.7
		c-36.61,0-48.26-31.42-48.26-59.76c0-43.07,35.77-124.43,94.13-124.43c27.5,0,31.7,30.16,22.02,58.5L501.92,214.9L501.92,214.9z"/>
	<path id="XMLID_9_" class="st1" d="M142.52,154.44c-6.59-1.12-14.17-4.21-21.74-2.38c-13.47,1.96-22.16,15.15-35.21,17.68
		c-14.59,5.47-36.05,6.31-47.56-6.73c0-0.56-0.98-1.12-0.84-1.68c18.52-2.1,28.34-23.01,46.43-26.37c21.74-8,43.91,1.68,57.8,17.96
		C141.53,153.59,142.38,153.73,142.52,154.44"/>
	<path id="XMLID_10_" class="st1" d="M101.97,390.95c22.3,12.91,39-12.06,61.86-3.65v0.84c-17.68,6.59-25.53,25.95-41.8,34.37
		c-8.42,4.07-20.2,4.07-28.48-0.42c-19.78-10.8-25.81-34.65-26.79-56.53c-0.84-5.33-3.23-9.96-4.91-15.01
		C81.91,357.28,82.19,384.5,101.97,390.95"/>
	<path id="XMLID_11_" class="st1" d="M491.68,202.97c15.57-69.58-35.77-148-130.6-148.42c-57.94-0.28-105.63,46.01-143.37,46.01
		c-9.54,0-17.68-5.89-23.29-13.05c1.68,20.62,20.9,38.02,39.28,45.03c-9.26,0.56-17.25-2.95-25.53-4.91
		c-24.69-6.73-42.22-30.44-70.56-28.06c-19.78-0.7-37.31,11.36-47.13,27.92c4.91-4.49,10.52-7.15,16.69-8.42
		c14.59-2.53,27.21,4.07,36.75,13.89c11.78,18.8,24.97,36.89,44.33,50.08c-13.89,0-26.23-5.33-38.44-9.54
		c-25.11-7.15-54.85-4.07-73.93,13.89c-9.68,15.85-25.95,28.76-43.91,32.55v0.7l5.33,2.24c20.76,8.84,43.49,0.14,60.74-10.52
		c12.06-3.79,26.37-1.68,34.79,7.86c5.89,10.1,16.83,20.2,26.65,27.64c-2.53,1.12-5.05-1.12-8-1.12
		c-16.69-8.28-41.8-19.36-58.64-4.07C77,254.74,85,277.88,68.17,289.25c11.78,1.12,18.52-7.58,25.39-15.99
		c16.83-12.49,27.64,9.96,41.1,15.15c14.31,7.01,33.39,4.63,43.63,19.36c-10.94,2.1-22.16,4.07-31.7,9.68
		c-14.59,9.12-35.91,10.52-51.76,2.95c-8.28-4.49-13.89-10.52-19.36-18.1l-0.28,0.84c1.12,31.28,12.63,65.23,45.03,76.17
		c21.88,10.1,45.59-6.31,67.05,4.21c-11.36,2.53-21.88,8.7-28.76,18.52c-11.22,14.59-10.94,34.65-24.83,47.13
		c-2.53,2.38-6.31,3.65-8.84,5.47c2.81,1.26,5.47,1.96,8.7,2.38c15.43,2.53,28.48-7.43,37.17-18.94
		c12.49-12.06,31.42-19.36,46.43-18.38c30.44,2.1,53.03,24.13,93.29,24.27c79.96,0.28,150.52-75.89,165.53-138.32h-94.41
		c0,0-17.11,47.84-58.78,47.84c-51.9,0-60.88-48.4-60.88-72.53c0-56.53,44.33-137.2,106.89-137.2c29.74,0,47.13,30.3,37.46,59.2
		L491.68,202.97"/>
</g>
</svg>
