<?xml version="1.0" encoding="utf-8"?>
<!-- Generator: Adobe Illustrator 24.3.0, SVG Export Plug-In . SVG Version: 6.00 Build 0)  -->
<svg version="1.1" id="Layer_1" xmlns="http://www.w3.org/2000/svg" xmlns:xlink="http://www.w3.org/1999/xlink" x="0px" y="0px"
	 viewBox="0 0 512 512" style="enable-background:new 0 0 512 512;" xml:space="preserve">
<style type="text/css">
	.st0{fill:#FFFFFF;}
	.st1{fill:#8E8E91;}
	.st2{fill:#231F20;}
	.st3{fill:#E13A3E;}
</style>
<g id="XMLID_1_">
	<path id="XMLID_3_" class="st0" d="M132.01,406.73c-22.02,0-41.65-1.54-58.48-4.49l-8.13-1.4l6.87-4.49l15.43-10.1
		c-8.98-0.98-22.86-3.51-36.88-9.82c-21.74-9.68-47.54-30.15-47.54-73.06c0-30.85,13.04-59.88,38.56-86.24
		c22.58-23.28,54.55-44.03,94.8-61.7c70.54-30.99,163.09-50.2,241.77-50.2c22.86,0,43.19,1.68,60.58,4.91l8.13,1.54l-6.87,4.49
		l-15.43,9.96c8.83,1.12,22.72,3.93,36.6,10.38c21.46,9.82,46.98,30.57,46.98,73.06c-0.14,31.13-13.32,60.16-39.27,86.53
		c-22.86,23.14-54.97,43.89-95.64,61.42C303.24,387.94,210.54,406.73,132.01,406.73z"/>
	<path id="XMLID_6_" class="st1" d="M378.69,108.45c22.3,0,42.63,1.54,60.02,4.91l-23.42,15.01c0,0,90.03,2.1,90.03,81.06
		c-0.42,127.75-229.71,194.09-373.31,194.09c-21.6,0-41.23-1.54-57.92-4.49l23.56-15.43c0,0-91.15-0.42-91.15-80.35
		C6.64,176.61,233.4,108.45,378.69,108.45 M378.69,101.86c-79.09,0-172.21,19.35-243.17,50.48c-40.67,17.95-73.06,38.99-95.92,62.55
		c-26.22,27.07-39.55,56.8-39.55,88.49c0,35.48,17.11,61.7,49.5,76.15c10.38,4.63,20.75,7.29,29.17,8.83l-8.13,5.33l-13.88,8.98
		l16.27,2.94c16.97,3.09,36.74,4.63,59.04,4.63c78.95,0,172.07-19.07,243.03-49.64c41.09-17.81,73.62-38.71,96.76-62.12
		c26.5-27.07,40.11-56.94,40.25-88.77c0-35.06-16.83-61.28-48.8-76.01c-10.38-4.77-20.61-7.57-29.03-9.26l8.27-5.33l13.88-8.98
		l-16.27-3.09C422.3,103.54,401.68,101.86,378.69,101.86z"/>
	<path id="XMLID_7_" class="st2" d="M405.75,120.23c0,0-11.64-1.82-33.8-1.82c-117.66,0-352.69,61.28-352.69,182.73
		c0,66.19,65.21,74.18,100.97,74.18c61.7,0,135.19-23.28,164.78-39.97c0,0-110.37,43.89-203.62,12.2
		c18.37,2.94,60.44-2.8,76.99-9.82c0,0-46.42-7.71-46.42-55.39C112.1,163,376.16,120.23,405.75,120.23z"/>
	<path id="XMLID_8_" class="st2" d="M145.89,286.13c12.34-22.3,12.62-36.46,26.64-53.01c24.4-27.63,101.81-48.66,143.74-48.66
		c42.49,0,57.36,27.35,57.5,44.59c0,48.94-102.23,88.91-101.95,88.91c98.59-66.33,95.08-104.2,38.28-104.2
		C263.13,213.77,176.19,244.62,145.89,286.13z"/>
	<path id="XMLID_9_" class="st3" d="M106.35,392.15c0,0,11.64,1.82,33.8,1.82c117.66,0,352.69-61.28,352.69-182.73
		c0-66.19-65.21-74.18-100.97-74.18c-61.7,0-135.19,23.28-164.78,39.97c0,0,110.37-43.89,203.62-12.2
		c-18.37-2.94-60.44,2.8-76.99,9.82c0,0,46.42,7.71,46.42,55.39C400,349.24,135.94,392.15,106.35,392.15z"/>
	<path id="XMLID_10_" class="st3" d="M350.92,231.16c-7.01-19.63-61.84-17.11-113.17,0.56c-55.11,19.77-94.1,51.19-87.09,70.82
		c7.01,19.63,61.84,18.09,112.47-0.42C318.38,282.34,357.93,250.65,350.92,231.16z"/>
	
		<ellipse id="XMLID_11_" transform="matrix(0.9486 -0.3164 0.3164 0.9486 -71.7527 92.612)" class="st2" cx="249.3" cy="267.25" rx="44.17" ry="14.58"/>
</g>
</svg>
