<?xml version="1.0" encoding="utf-8"?>
<!-- Generator: Adobe Illustrator 24.3.0, SVG Export Plug-In . SVG Version: 6.00 Build 0)  -->
<svg version="1.1" id="Layer_1" xmlns="http://www.w3.org/2000/svg" xmlns:xlink="http://www.w3.org/1999/xlink" x="0px" y="0px"
	 viewBox="0 0 512 512" style="enable-background:new 0 0 512 512;" xml:space="preserve">
<style type="text/css">
	.st0{fill:#FFFFFF;}
	.st1{fill:#FEE011;}
	.st2{fill:#E7A908;}
	.st3{fill:#F57215;}
	.st4{fill:#007F55;}
	.st5{fill:#E32739;}
	.st6{fill:#1C418C;}
	.st7{fill:#231F20;}
</style>
<g id="XMLID_1_">
	<path id="XMLID_3_" class="st0" d="M104.97,201.88c4.91-1.68,4.91-1.12,0.56-3.37c-4.35-2.24-21.32-7.86-21.32-7.86
		s-1.12,5.05-0.56,6.73c0.56,1.68,0.56,5.75,0,8C83.65,205.39,100.06,203.57,104.97,201.88"/>
	<path id="XMLID_4_" class="st0" d="M119.42,229.8c-6.45,4.21-12.76,5.33-24.27,6.03c0.98,2.24,3.79,4.21,7.71,4.07
		c-4.07,3.65-5.89,6.59-6.45,8.84c9.26-4.35,15.99-6.45,28.48-5.75c20.34,1.12,20.62-8.14,15.71-15.99
		C135.83,218.86,124.75,226.43,119.42,229.8"/>
	<path id="XMLID_5_" class="st0" d="M289.15,216.47l-18.1,8.7c-1.26,2.1-2.52,4.21-3.79,6.17l19.78-9.68
		c-4.07,10.52-8.14,21.6-11.64,31.98c-6.31,4.35-20.2,9.54-25.25,11.36c-0.56,1.4-1.12,2.81-1.68,4.21
		c5.33-1.82,19.08-6.59,25.39-10.94c-5.75,16.97-9.96,31.42-11.36,37.03c-0.28,0.84,0.28,1.82,1.26,2.1
		c0.98,0.28,1.82-0.28,1.96-1.26c1.26-5.33,5.33-18.38,10.52-33.81c2.52,7.15,7.86,15.99,12.9,21.6c0.98-0.98,1.82-1.68,2.38-2.1
		c0-0.14,0-0.14,0-0.28c-5.33-5.89-10.8-17.53-13.19-25.53c3.23-9.4,6.87-19.36,10.38-28.76c1.96,5.05,7.57,14.03,9.82,17.81
		c0.42-1.82,0.84-3.65,1.26-5.61c-2.38-3.51-8-12.2-9.12-17.25c5.89-15.29,11.64-28.62,15.85-35.07c1.26-1.96,3.23-7.15,1.68-7.86
		C302.47,186.31,295.74,200.34,289.15,216.47"/>
	<path id="XMLID_13_" class="st0" d="M491.14,321.95c-0.98-0.28-1.82-0.42-2.81-0.7c-8.42-1.82-18.38-4.07-32.4-22.44l7.43-22.86
		c5.33,9.4,9.4,16.55,10.8,19.92c0.42,0.84,1.4,1.26,2.24,0.84c0.84-0.42,1.12-1.4,0.84-2.24c-1.54-3.51-5.75-11.08-11.36-20.76
		l20.76,3.93C490.58,291.8,492.4,306.52,491.14,321.95 M428.15,250.84l7.71-21.6c9.12,15.29,18.1,30.58,25.25,42.78l-7.57,23.43
		C446.25,285.48,437.83,271.32,428.15,250.84 M407.68,203.85l2.95-16.41c6.73,11.08,14.87,24.55,23,38.29l-7.57,21.04
		C420.44,234.57,414.27,220.4,407.68,203.85 M384.53,142.69c-0.14-0.98,0.28-1.82,1.4-0.84c2.95,2.81,6.17,6.03,9.82,9.54
		c9.82,9.26,21.74,20.76,33.95,33.95l-19.64-4.91c-7.01-11.5-11.92-19.5-12.76-20.76c-0.56-0.84-1.54-0.98-2.24-0.42
		c-0.7,0.56-0.98,1.54-0.42,2.38c1.26,1.96,6.31,10.1,13.19,21.46l-2.67,14.87C398.84,181.82,391.96,163.59,384.53,142.69
		 M466.31,232.6l-30.16-9.12c-8.42-14.03-16.69-27.77-23.43-38.86l21.18,5.33C445.41,202.72,456.77,217.03,466.31,232.6
		 M468.83,236.95c6.87,11.64,12.62,24.13,16.69,37.03l-22.02-4.07c-7.01-12.2-15.85-27.07-24.83-41.94l29.74,9.12
		C468.69,236.95,468.83,236.95,468.83,236.95 M398.14,148.86c-7.15-6.73-12.76-12.2-16.69-16.41c-0.7,1.4-1.68,2.67-2.67,3.65
		c62.84,178.14,88.37,183.76,108.85,188.38c1.54,0.28,3.09,0.7,4.49,1.12l1.82,0.56l0.14-1.96
		C502.08,247.89,434.47,183.51,398.14,148.86"/>
	<path id="XMLID_14_" class="st0" d="M61.2,352.81c-0.84-0.42-2.1-0.14-1.68,1.12c0,0,1.96,9.26,1.96,13.19
		c0,1.68-0.14,3.23-0.42,4.63c7.15,24.13,29.6,10.8,13.33-8.14C68.78,361.23,64.57,354.22,61.2,352.81"/>
	<path id="XMLID_15_" class="st1" d="M397.58,335.84c-1.96-4.49-4.63-16.69-7.57-33.24l-11.22,14.45c3.37,10.8,7.43,21.18,12.2,31
		L397.58,335.84z"/>
	<path id="XMLID_16_" class="st1" d="M387.34,266.27c1.82,11.5,3.65,22.44,5.19,32.12l22.58,12.62c-0.28-8.84-1.26-18.8-2.95-29.88
		L387.34,266.27z"/>
	<path id="XMLID_17_" class="st1" d="M365.59,247.05c0.84,9.82,2.1,19.78,3.79,29.74l14.03-14.45c-1.4-9.12-2.81-18.66-4.35-28.19
		L365.59,247.05z"/>
	<path id="XMLID_18_" class="st1" d="M374.85,139.18c-1.54,0.98-3.23,1.54-4.91,1.96c5.75,12.76,10.94,24.97,15.43,36.47
		C381.87,165.83,378.36,153.07,374.85,139.18"/>
	<path id="XMLID_19_" class="st1" d="M371.91,165.55c2.52,15.57,5.33,34.23,8.28,53.44c0.56,3.79,1.12,7.71,1.82,11.64l22.16,12.76
		c-6.03-22.58-15.15-48.95-28.05-79.81C374.29,159.52,371.06,161.34,371.91,165.55"/>
	<path id="XMLID_20_" class="st1" d="M382.57,234.85c1.4,9.12,2.81,18.24,4.21,27.07l24.83,14.73c-1.54-8.84-3.51-18.38-6.17-28.62
		L382.57,234.85z"/>
	<path id="XMLID_21_" class="st1" d="M378.5,230.08c-0.56-3.51-1.12-7.01-1.54-10.66c-2.95-19.22-5.75-37.87-8.28-53.44
		c-0.56-3.51-4.21-3.79-4.49,1.26c-0.84,20.2-1.26,46.99,1.12,75.47L378.5,230.08z"/>
	<path id="XMLID_22_" class="st1" d="M389.3,298.25c-1.68-9.54-3.37-20.34-5.19-31.7L370.22,281c1.96,10.94,4.35,21.74,7.43,32.26
		L389.3,298.25z"/>
	<path id="XMLID_23_" class="st1" d="M429.28,291.66c-6.17-9.54-13.47-23.71-18.66-35.91c16.41,70,3.65,101.42-2.38,116.14
		l-1.26,3.09l-1.12,2.67l-1.68-2.24c-52.32-66.63-44.61-190.49-42.08-231.17c0-0.98,0.14-1.96,0.14-2.81
		c-0.42-0.14-0.84-0.14-1.12-0.28l-3.37,0.98c-1.68,8.42-1.68,92.72,0.56,118.11c2.24,25.39,8.28,58.21,8.84,71.82
		c1.12,2.81,14.59,25.11,19.78,35.07c4.91,9.54,12.06,21.46,13.75,32.82C429,372.59,434.33,328.83,429.28,291.66"/>
	<path id="XMLID_24_" class="st1" d="M415.25,314.8l-21.88-12.2c2.95,16.55,5.47,28.76,7.43,32.26l12.06,10.94
		C414.41,337.38,415.53,327.28,415.25,314.8"/>
	<path id="XMLID_25_" class="st1" d="M405.15,370.49c1.96-4.91,4.77-11.64,6.87-21.04l-12.2-11.08l-7.01,13.05
		c3.65,6.87,7.71,13.33,12.2,19.36L405.15,370.49z"/>
	<path id="XMLID_34_" class="st1" d="M351.01,371.19c-7.01-3.37-14.45-8.14-19.08-12.9c-0.98-9.4-1.26-23.85-1.26-40.82
		c6.03,5.47,17.25,12.62,21.32,15.15C352.69,347.06,352.13,359.97,351.01,371.19 M347.36,392.79c-3.93,4.21-12.06-5.05-15.43-11.36
		l-1.12,3.37c-5.05,10.38-8.84,8.98-11.5,5.61c-1.54-6.59-2.81-13.47-3.93-20.34c3.37-1.82,11.08-6.31,14.59-9.12
		c4.35,4.91,17.25,12.2,20.48,13.89C349.74,381.43,348.62,387.46,347.36,392.79 M312.15,325.46l14.59-10.38
		c0,16.97,0.42,31.7,1.68,42.08c-3.65,3.51-10.38,7.43-13.47,9.12C313.13,353.09,312.15,339.49,312.15,325.46 M314.68,279.87
		c2.81-1.96,10.38-7.43,13.47-11.22c-0.84,14.59-1.26,29.04-1.4,42.22c-3.37,3.09-10.8,8.42-14.73,11.08
		C312.15,308.35,312.99,294.32,314.68,279.87 M316.92,263.18c3.09-20.34,7.15-37.59,12.76-55.83c1.12-4.77,4.91-5.33,4.35-0.28
		c-2.38,17.39-4.21,37.03-5.47,56.39c-1.96,3.09-10.1,9.54-13.33,12.06C315.66,271.46,316.22,267.25,316.92,263.18 M342.45,208.62
		c0.98,23.57,2.67,50.5,4.21,69.86c-3.93-2.38-10.24-7.15-14.45-11.22c1.12-21.04,2.81-42.22,5.19-60.46
		C338.52,200.9,341.89,202.72,342.45,208.62 M349.04,302.74c1.4,9.12,2.24,17.67,2.67,25.81c-5.61-3.23-15.71-10.38-21.04-15.99
		c0.14-12.76,0.56-26.79,1.26-40.96c4.35,4.07,11.08,8.98,15.01,11.5C347.78,292.36,348.48,299.37,349.04,302.74 M345.68,151.52
		c-14.59,37.31-26.37,74.34-32.12,111.09c-9.96,64.67-4.63,121.48,15.57,169.17c0,0.98,1.68,2.52,3.23,2.95
		c1.96,0.56,2.24-1.12,3.51-2.95c2.95-4.35,28.62-45.17,16.13-129.47C349.74,285.62,342.45,166.11,345.68,151.52"/>
	<path id="XMLID_37_" class="st1" d="M259.13,374.7c-0.14-3.23,0.56-4.49,0.84-4.77c3.65-1.26,6.31,3.23,8.42,9.54
		c0.7,4.49,0.98,8.42,0.84,11.92C264.32,387.18,259.41,381.43,259.13,374.7 M312.99,134.97v0.56c1.82-0.14,3.23-1.68,3.23-3.51
		c-0.14-1.82-1.54-3.37-3.37-3.23c-31.7-0.84-79.39,3.65-107.73,9.82c-1.4-14.31-5.75-22.86-10.8-32.68
		c-2.95-5.75-6.03-11.78-8.84-19.78c-3.37-9.82-3.37-16.83,0.28-19.78c4.35-3.65,14.03-1.96,20.2,1.82c1.12,0.7,2.24,1.4,3.51,2.24
		c11.92,7.86,31.84,20.9,53.3,3.65c6.03-4.77,10.94-6.73,14.59-5.47c6.73,2.1,10.38,14.45,14.03,26.23l0.28,0.7
		c2.38,7.71,6.73,13.19,12.9,16.41c8.42,4.35,19.78,1.54,25.25-1.68c1.54-0.98,2.1-2.52,1.26-4.07c-0.84-1.68-2.95-2.24-4.49-1.26
		c-3.51,2.1-12.2,5.05-19.08,1.54c-4.49-2.38-7.71-7.01-9.54-12.9l-0.28-0.7c-4.07-13.47-8.42-26.93-18.38-30.16
		c-5.89-1.96-12.62,0.28-20.62,6.59c-17.81,14.31-34.65,3.23-45.73-4.07c-1.26-0.84-2.52-1.68-3.79-2.38
		c-6.59-4.07-19.78-8.56-27.77-1.82c-6.03,5.05-6.73,14.31-2.24,27.35c2.95,8.42,6.31,15.01,9.12,20.76
		c8.14,16.13,14.73,28.76,7.15,73.64c-10.8,64.1-12.48,89.49,9.82,122.32c4.77,6.87,8.7,12.34,12.34,17.11
		c12.62,17.11,17.95,24.13,19.5,54c1.12,20.62,7.29,35.63,16.83,40.12c4.49,2.1,9.26,1.54,13.19-1.4c3.23-2.52,5.61-6.73,7.01-11.78
		c0.42,0.28,0.84,0.56,1.26,0.7c3.79,2.1,10.38-0.28,14.31-5.19c4.07-5.05,11.08-19.78-11.36-47.41
		c-5.33-6.59-11.36-12.9-16.97-18.8c-6.45-6.73-12.62-13.19-17.95-20.2c-10.1-13.19-22.72-29.74-19.08-73.36l2.24-26.37
		c1.54-18.66,1.68-19.78,3.23-26.23c2.1-8.7,5.05-12.76,6.45-13.05c0.7-0.14,2.52,0.98,5.05,5.47c5.19,9.12,10.1,13.33,14.59,12.2
		c5.33-1.26,6.45-8.7,6.87-14.17c1.54-19.78,4.63-20.76,4.77-20.76c0,0,1.68,0,5.75,5.61c5.19,7.15,8.56,11.64,12.76,10.8
		c4.49-0.84,5.75-5.89,9.26-19.5l0.84-3.09c0.42-1.82-0.56-3.65-2.38-4.21c-1.68-0.42-3.51,1.12-4.07,2.95l-0.84,3.09
		c-1.54,6.17-3.09,11.92-4.21,14.17c-1.68-1.54-4.91-5.89-6.17-7.71c-2.95-4.21-7.57-9.54-12.9-8s-8.14,9.26-9.54,26.79
		c-0.42,5.89-1.54,7.71-1.82,8.14c-0.98-0.28-3.79-2.81-7.29-8.98c-1.4-2.38-5.47-10.1-11.64-9.26c-6.45,0.98-10.1,10.38-11.92,18.1
		c-1.68,7.01-1.82,8.56-3.37,27.21l-2.24,26.37c-3.93,46.29,10.1,64.67,20.48,78.13c5.61,7.29,12.2,14.17,18.52,20.76
		c5.61,5.89,11.5,11.92,16.69,18.38c12.62,15.71,17.11,29.32,12.2,37.45c-2.38,3.93-6.17,5.05-7.01,4.77
		c-0.84-0.42-1.82-1.12-2.95-1.82c0.56-5.33,0.28-11.22-0.7-17.81c-1.26-7.71-8.56-15.71-15.99-15.01
		c-2.95,0.28-6.73,2.52-6.31,11.64c0.42,10.52,8.42,18.8,15.99,24.27c-1.12,5.19-3.09,8.56-5.19,10.24
		c-1.96,1.54-4.21,1.82-6.45,0.7c-5.33-2.52-11.92-13.05-13.05-34.37c-1.68-31.98-7.57-39.98-20.76-57.79
		c-3.51-4.77-7.57-10.1-12.2-16.97c-20.9-30.72-19.22-55.27-8.84-117.27c2.81-16.69,3.65-29.04,3.37-39
		C233.88,137.92,276.94,133.85,312.99,134.97"/>
	<path id="XMLID_45_" class="st2" d="M193.2,382.13c-7.86-2.24-11.36-14.31-8-27.07c3.37-12.76,12.48-21.32,20.2-19.08
		c7.86,2.24,11.36,14.31,8,27.07C210.17,375.82,201.06,384.24,193.2,382.13 M162.06,314.94c-38.86-11.92-14.17-61.44,3.79-56.53
		C142.28,280.43,154.2,306.1,162.06,314.94 M116.61,250c13.89-6.59,18.1,7.29,4.91,11.36c-37.45,11.22-40.54-8.42-31.84-16.97
		c-23-14.17,6.59-25.95,19.22-30.02c12.62-3.93,12.06,8.42,4.91,10.24c-7.15,1.68-9.82,3.37-15.85,5.05
		c-3.09,0.84-3.93,3.65-2.81,6.17c11.5-0.7,17.81-1.82,24.27-6.03c5.33-3.37,16.27-10.94,21.18-2.95
		c4.91,7.86,4.63,17.11-15.71,15.99c-12.48-0.7-19.22,1.4-28.48,5.75C95.29,254.76,106.09,254.9,116.61,250 M72.43,223.9
		c-4.21,0.84-1.26-9.4-1.68-12.06c-4.77,0.98-13.47-0.42-14.45-2.38c-1.12-2.38,4.35-3.79,15.15-4.35
		c-0.84-5.33-2.67-15.01,0.56-20.2c-8.14-2.95-17.39-4.77-9.96-10.52c6.31-4.91,4.91-7.86,4.91-7.86
		c-4.07-3.37-8.98-10.38,1.54-14.87c10.52-4.49,24.83-2.1,32.26,4.07c8.7,7.15,20.76,15.15,30.3,13.75
		c15.15-2.1,11.78,5.33,2.67,9.12c-10.66,4.35-26.51-3.79-30.02-6.03c-3.51-2.24-14.31-8-15.99-3.37c-1.68,4.77-4.77,8.14-0.98,10.8
		c8,5.33,20.76,13.33,28.05,16.97c5.33,2.67,4.77,6.45-4.91,8.84c-11.22,2.81-28.05,5.47-28.05,5.47
		C80.42,217.73,76.77,223.06,72.43,223.9 M115.21,115.19c8.84-6.17,13.75-10.24,13.75-10.24c6.03-3.93,5.75-1.82,9.82,1.12
		c4.91,3.51,13.61,12.06,16.69,15.15c5.47,5.61,0.7,9.96-3.37,4.35c-7.57-10.38-18.1-16.55-18.1-16.55l-5.05,3.51
		c8.28,7.29,26.79,23.57,34.09,35.63c2.1,3.51-2.1,6.03-5.05,2.24c-10.1-13.47-34.09-33.95-34.09-33.95l-5.05,3.51
		c6.03,6.17,14.73,12.62,18.1,18.24c3.23,5.47,0.84,9.96-3.93,3.79c-5.75-7.71-13.33-13.33-13.33-13.33
		C114.23,124.17,106.51,121.37,115.21,115.19 M76.21,364.32c-0.7-0.14-1.26-0.42-1.96-0.7c16.27,18.94-6.17,32.26-13.33,8.14
		c-2.38,12.76-15.01,8.28-13.33-0.56c0.98-5.05,1.26-14.17,1.26-18.8c0-1.82-2.52-5.75,0.98-7.01c3.65-1.26,5.89-1.68,8.28-3.37
		c3.51-2.24,5.05,1.12,6.31,1.96c4.63,3.09,9.82,4.77,15.15,6.87C93.47,356.04,84.49,366.14,76.21,364.32 M213.82,374.84
		c15.43-38.29-9.82-47.55-17.25-42.08c-39.42-63.54-24.41-112.92-21.32-135.92c11.5-86.41-26.37-98.19-39.56-108.29
		c-15.57,7.57-53.44,39.28-74.76,58.77s-14.87,27.35-13.19,38.29c1.68,11.08-4.91,21.32-8.98,27.35
		c-4.07,5.89-5.61,9.96-22.02,36.19s-0.98,32.82,8,32.82c8.98,0,26.09-3.23,41.38-4.49c5.05-0.42,10.38-5.47,6.17-11.64
		c-4.07-6.17-9.26-9.68-15.43-9.4c-5.33,0.28-7.29,7.15,0.56,9.12c6.73-1.4,7.71,8-4.21,4.21c-8.28-2.67-11.08-20.48,5.61-18.38
		c15.29,1.96,22.72,15.29,20.62,25.25c2.52,0.84,13.89,7.86,16.69,15.71c5.05,13.75-2.1,12.62-5.33,4.35
		c-7.57-19.64-32.68-12.34-48.25-11.08c-9.12,0.84-7.01,1.96-8.56,7.15c-4.07,13.61-6.59,26.93,2.38,29.46
		c7.29,2.1,24.27-1.4,30.86-3.09c6.59-1.68,5.75-6.73-0.84-5.89c-6.59,0.84-9.82-5.89,0-7.57c9.82-1.68,15.57,3.37,14.87,7.57
		c-0.7,4.21,1.68,7.57,4.07,8.42c2.52,0.84,4.49,6.87,4.91,10.24c1.68,11.08-7.43,9.26-6.59,1.68c0.42-3.37-4.91-8.42-9.82-5.89
		c-4.91,2.52-28.9,5.05-39.7,3.37c-7.43,7.57-2.95,15.29-0.42,18.66c2.52,3.37,3.65,15.15,0.42,22.44
		c-10.66,24.41,13.89,33.38,23.99,34.09c35.21,2.24,62.98-3.93,88.23-13.33c12.76-5.61,21.32-16.13,28.62-26.37
		c-2.38,10.66-7.71,20.34-16.27,26.79c-12.06,8.56-33.1,14.73-45.73,17.95c0,0,1.96,15.43,5.33,26.09
		c2.95,9.26,8.56,16.27,10.8,22.58c3.09,8.42,5.05,17.53,15.15,14.73c40.82-11.78,76.59-30.3,95.52-42.08
		C238.23,429.82,218.87,385.92,213.82,374.84"/>
	<path id="XMLID_46_" class="st2" d="M203.3,344.4c-4.91-1.4-9.82,3.65-11.92,11.64c-2.1,8.14-0.84,16.27,4.07,17.53
		c4.91,1.4,9.26-4.77,11.5-12.76C209.05,352.81,208.21,345.8,203.3,344.4"/>
	<path id="XMLID_47_" class="st2" d="M81.54,165.55c-5.19,0.84-11.36,2.81-12.48,4.49c-0.84,1.26,6.87,5.05,9.4,6.17
		c2.52,1.12,2.81-1.54,3.93-4.21C83.51,169.34,86.73,164.57,81.54,165.55"/>
	<polygon id="XMLID_48_" class="st3" points="375.83,82.23 347.22,82.23 365.59,102.57 375.83,102.57 	"/>
	<path id="XMLID_49_" class="st3" d="M461.12,272.16c-7.01-12.2-16.13-27.49-25.25-42.78l-7.71,21.6
		c9.82,20.48,18.1,34.65,25.39,44.75L461.12,272.16z"/>
	<path id="XMLID_50_" class="st3" d="M407.68,203.85c6.73,16.55,12.76,30.72,18.52,42.78l7.57-21.04
		c-8.28-13.75-16.41-27.21-23.14-38.29L407.68,203.85z"/>
	<path id="XMLID_51_" class="st3" d="M468.55,236.95l-29.74-9.12c8.98,14.87,17.81,29.88,24.83,41.94l22.02,4.07
		c-4.07-12.9-9.82-25.25-16.69-37.03C468.83,236.95,468.69,236.95,468.55,236.95"/>
	<path id="XMLID_52_" class="st3" d="M504.6,290.11C491.42,203,395.47,136.38,383.97,124.45l-0.28,0.56
		c-0.28,2.67-0.98,5.19-2.24,7.43c3.79,4.21,9.54,9.68,16.69,16.41c36.33,34.51,103.94,98.89,96.09,175.2l-0.14,1.96l-1.82-0.56
		c-1.54-0.42-2.95-0.7-4.49-1.12c-20.48-4.49-46.01-10.24-108.85-188.38c-1.12,1.12-2.38,2.24-3.79,3.09
		c3.51,13.75,7.01,26.51,10.52,38.43c8.28,20.9,14.73,39.7,19.5,56.53c44.75,110.25,90.62,104.92,101.42,104.5
		C503.06,330.79,507.55,308.77,504.6,290.11"/>
	<path id="XMLID_53_" class="st3" d="M395.89,151.38c-3.65-3.51-7.01-6.73-9.82-9.54c-1.12-0.98-1.68-0.14-1.4,0.84
		c7.43,20.9,14.31,39.14,20.76,55.41l2.67-14.87c-6.87-11.36-11.92-19.5-13.19-21.46c-0.56-0.84-0.28-1.82,0.42-2.38
		s1.82-0.28,2.24,0.42c0.84,1.26,5.75,9.26,12.76,20.76l19.64,4.91C417.63,172.14,405.57,160.64,395.89,151.38"/>
	<path id="XMLID_54_" class="st3" d="M412.72,184.63c6.73,11.08,15.01,24.83,23.43,38.86l30.16,9.12
		c-9.54-15.57-20.9-29.88-32.4-42.78L412.72,184.63z"/>
	<path id="XMLID_55_" class="st3" d="M488.33,321.25c0.98,0.28,1.82,0.42,2.81,0.7c1.26-15.29-0.56-30.16-4.49-44.33l-20.76-3.93
		c5.61,9.68,9.68,17.25,11.36,20.76c0.42,0.84,0,1.82-0.84,2.24c-0.84,0.42-1.82,0-2.24-0.84c-1.54-3.37-5.47-10.52-10.8-19.92
		l-7.43,22.86C469.96,317.19,479.91,319.29,488.33,321.25"/>
	<path id="XMLID_56_" class="st4" d="M330.67,312.56c5.33,5.61,15.43,12.76,21.04,15.99c-0.56-8.14-1.4-16.69-2.67-25.81
		c-0.56-3.37-1.26-10.52-1.96-19.78c-3.93-2.38-10.66-7.29-15.01-11.5C331.37,285.76,330.81,299.79,330.67,312.56"/>
	<path id="XMLID_57_" class="st4" d="M330.67,317.33c-0.14,17.11,0.28,31.56,1.26,40.82c4.63,4.77,12.06,9.54,19.08,12.9
		c1.26-11.22,1.68-24.13,0.98-38.57C347.92,330.09,336.56,322.8,330.67,317.33"/>
	<path id="XMLID_60_" class="st4" d="M336.14,431.79c-1.26,1.82-1.68,3.65-3.51,2.95c-1.54-0.56-3.23-2.1-3.23-2.95
		c-20.34-47.55-25.53-104.5-15.57-169.17c5.61-36.75,17.53-73.78,32.12-111.09c-3.23,14.59,4.07,134.1,6.45,150.79
		C364.75,386.62,339.08,427.44,336.14,431.79 M352.27,143.11c0.84-2.67,1.4-4.63,1.96-6.03c-1.26-1.12-2.38-2.52-3.37-4.07
		c-20.76,29.18-80.94,206.62-22.44,305.51c2.24,4.35,6.59,4.77,8.7,2.24c10.66-10.38,31-64.24,23.43-107.87
		C352.41,286.89,347.92,157.84,352.27,143.11"/>
	<path id="XMLID_61_" class="st4" d="M346.66,278.47c-1.54-19.36-3.23-46.29-4.21-69.86c-0.56-5.89-3.79-7.71-5.05-1.82
		c-2.38,18.24-4.07,39.42-5.19,60.46C336.42,271.32,342.73,276.09,346.66,278.47"/>
	<path id="XMLID_62_" class="st4" d="M326.74,315.08l-14.59,10.38c0.14,14.17,0.98,27.77,2.81,40.82c3.09-1.68,9.82-5.61,13.47-9.12
		C327.16,346.78,326.74,332.05,326.74,315.08"/>
	<path id="XMLID_63_" class="st4" d="M315.52,370.07c0.98,7.01,2.38,13.75,3.93,20.34c2.67,3.23,6.45,4.77,11.5-5.61l1.12-3.37
		c3.23,6.31,11.36,15.71,15.43,11.36c1.26-5.33,2.24-11.36,3.09-17.95c-3.23-1.82-15.99-9.12-20.48-13.89
		C326.6,363.76,318.74,368.24,315.52,370.07"/>
	<path id="XMLID_64_" class="st4" d="M328.56,263.46c1.26-19.36,3.09-39,5.47-56.39c0.56-5.05-3.23-4.49-4.35,0.28
		c-5.47,18.1-9.54,35.49-12.76,55.83c-0.7,4.21-1.26,8.28-1.68,12.34C318.32,273,326.6,266.55,328.56,263.46"/>
	<path id="XMLID_65_" class="st4" d="M328.28,268.65c-3.23,3.79-10.66,9.12-13.47,11.22c-1.68,14.45-2.52,28.48-2.67,42.22
		c3.93-2.81,11.36-8.14,14.73-11.08C326.88,297.69,327.44,283.24,328.28,268.65"/>
	<path id="XMLID_68_" class="st4" d="M366.01,132.31c-4.77,0-8.7-4.07-8.7-8.98s3.93-8.98,8.7-8.98c4.77,0,8.7,4.07,8.7,8.98
		C374.71,128.24,370.78,132.31,366.01,132.31 M366.01,109.3c-7.43,0-13.61,6.31-13.61,14.03s6.03,14.03,13.61,14.03
		c7.57,0,13.61-6.31,13.61-14.03C379.48,115.62,373.45,109.3,366.01,109.3"/>
	<path id="XMLID_69_" class="st4" d="M402.34,95.14c-6.31,2.81-13.33,7.86-17.53,13.61l4.21,12.34l19.22-4.63L402.34,95.14z"/>
	<path id="XMLID_72_" class="st4" d="M298.68,244.95c-3.51,15.99-6.03,29.32-7.01,36.47c0,0.14,0,0.14,0,0.28
		c-0.56,0.42-1.26,1.12-2.38,2.1c-1.26,1.26-2.95,2.95-5.47,5.47c-6.59,6.73-15.57,15.85-21.46,20.2
		c-3.23-6.03-14.17-27.49-15.85-35.21c0.56-1.68,1.26-3.37,1.82-5.05c0.56-1.4,1.12-2.81,1.68-4.21
		c4.63-11.22,10.52-22.58,17.11-33.67c1.26-2.1,2.52-4.21,3.79-6.17c19.08-30.86,42.64-59.19,57.51-76.17
		c-11.36,23.57-21.74,60.6-28.62,90.48C299.53,241.3,299.1,243.26,298.68,244.95 M243.28,273.7l-0.14,0.42l0.14,0.42
		c1.68,9.26,16.55,37.17,17.11,38.43l0.84,1.54l1.54-0.98c6.03-4.07,16.13-14.31,23.43-21.74c3.37-3.51,7.01-7.15,7.71-7.57
		l0.7-0.42l0.14-0.84c2.95-22.02,24.27-120.91,45.03-150.09C324.63,148.44,262.91,217.17,243.28,273.7"/>
	<path id="XMLID_75_" class="st5" d="M206.95,360.81c-2.1,8.14-6.45,14.17-11.5,12.76c-4.91-1.4-6.31-9.54-4.07-17.53
		c2.1-8.14,7.01-13.05,11.92-11.64C208.21,345.8,209.05,352.81,206.95,360.81 M205.4,335.98c-7.86-2.24-16.83,6.31-20.2,19.08
		s0.28,24.83,8,27.07c7.86,2.24,16.83-6.31,20.2-19.08C216.91,350.29,213.26,338.23,205.4,335.98"/>
	<path id="XMLID_76_" class="st5" d="M116.61,250c-10.52,5.05-21.32,4.77-20.06-1.4c0.42-2.24,2.38-5.05,6.45-8.84
		c-3.93,0.28-6.59-1.68-7.71-4.07c-1.12-2.52-0.42-5.33,2.81-6.17c6.03-1.68,8.84-3.37,15.85-5.05c7.15-1.68,7.71-14.17-4.91-10.24
		c-12.62,3.93-42.22,15.85-19.22,30.02c-8.84,8.42-5.75,28.19,31.84,16.97C134.71,257.29,130.5,243.4,116.61,250"/>
	<path id="XMLID_77_" class="st5" d="M287.04,221.66l-19.78,9.68c-6.59,11.08-12.48,22.58-17.11,33.67
		c5.19-1.82,18.94-7.01,25.25-11.36C279.05,243.26,282.97,232.18,287.04,221.66"/>
	<path id="XMLID_78_" class="st5" d="M308.22,179.3c1.54,0.7-0.42,5.89-1.68,7.86c-4.21,6.45-9.96,19.92-15.85,35.07
		c1.26,5.05,6.87,13.75,9.12,17.25c6.87-29.88,17.11-66.91,28.62-90.48c-14.87,16.83-38.43,45.31-57.51,76.17l18.1-8.7
		C295.74,200.34,302.47,186.31,308.22,179.3"/>
	<path id="XMLID_81_" class="st5" d="M294.76,282.96l-0.14,0.84l-0.7,0.42c-0.7,0.42-4.35,4.07-7.71,7.57
		c-7.29,7.43-17.39,17.67-23.43,21.74l-1.54,0.98l-0.84-1.54c-0.7-1.12-15.43-29.18-17.11-38.43l-0.14-0.42l0.14-0.42
		c19.64-56.53,81.36-125.26,96.51-140.83C318.88,162.05,297.56,260.94,294.76,282.96 M348.2,122.91c-0.98-0.14-2.38,0.42-4.63,2.24
		c-4.91,3.93-65.37,52.32-103.1,141.25c-4.07,9.54-4.35,5.61-0.56,16.41c3.79,10.8,14.31,29.32,16.97,33.95
		c2.81,4.49,2.38,6.31,6.17,3.37c13.75-11.92,24.69-23.85,29.04-27.21c4.77-3.65,8.42-9.26,8.84-15.57
		c0.7-12.48,24.55-123.3,48.11-147.71l0.14-0.14c-0.7-1.82-0.98-3.93-0.98-6.03C348.2,123.19,348.2,123.05,348.2,122.91"/>
	<path id="XMLID_82_" class="st5" d="M278.49,256.03c2.24,8,7.71,19.64,13.19,25.53c0.98-7.15,3.51-20.48,7.01-36.47
		c-2.24-3.65-7.86-12.76-9.82-17.81C285.22,236.67,281.71,246.63,278.49,256.03"/>
	<path id="XMLID_83_" class="st5" d="M283.82,289.41c2.38-2.52,4.07-4.21,5.47-5.47c-5.05-5.47-10.38-14.45-12.9-21.6
		c-5.19,15.43-9.26,28.48-10.52,33.81c-0.28,0.84-1.12,1.4-1.96,1.26c-0.84-0.28-1.4-1.12-1.26-2.1c1.4-5.61,5.61-20.06,11.36-37.03
		c-6.31,4.35-20.06,9.12-25.39,10.94c-0.7,1.68-1.26,3.37-1.82,5.05c1.68,7.86,12.62,29.18,15.85,35.21
		C268.25,305.26,277.08,296.14,283.82,289.41"/>
	<path id="XMLID_84_" class="st5" d="M366.01,114.35c-4.77,0-8.7,4.07-8.7,8.98c0,4.91,3.93,8.98,8.7,8.98c4.77,0,8.7-4.07,8.7-8.98
		C374.71,118.42,370.78,114.35,366.01,114.35"/>
	<path id="XMLID_85_" class="st5" d="M79.58,350.85c-5.33-1.96-10.52-3.79-15.15-6.87c-1.26-0.84-2.81-4.21-6.31-1.96
		c-2.38,1.82-4.63,2.1-8.28,3.37c-3.51,1.26-0.98,5.19-0.98,7.01c0,4.49-0.28,13.75-1.26,18.8c-1.68,8.84,10.94,13.33,13.33,0.56
		c0.28-1.4,0.42-2.81,0.42-4.63c0-3.93-1.82-13.19-1.82-13.19c-0.28-1.26,0.84-1.54,1.68-1.12c3.23,1.4,7.57,8.42,13.05,10.8
		c0.7,0.28,1.26,0.56,1.96,0.7C84.49,366.14,93.47,356.04,79.58,350.85"/>
	<path id="XMLID_96_" class="st6" d="M400.8,334.86c-1.82-3.51-4.49-15.57-7.43-32.26l21.88,12.2c0.14,12.48-0.84,22.58-2.52,31
		L400.8,334.86z M405.15,370.49l-0.14,0.42c-4.49-6.03-8.56-12.48-12.2-19.36l7.01-13.05l12.2,11.08
		C409.92,358.99,407.11,365.72,405.15,370.49 M378.78,317.05L390,302.6c2.95,16.41,5.47,28.62,7.57,33.24l-6.59,12.06
		C386.21,338.23,382.15,327.85,378.78,317.05 M370.08,280.86l13.89-14.45c1.82,11.36,3.51,22.16,5.19,31.7l-11.64,14.87
		C374.43,302.6,372.05,291.8,370.08,280.86 M365.59,247.05l13.47-12.9c1.4,9.54,2.95,19.08,4.35,28.19l-14.03,14.45
		C367.7,266.83,366.58,256.87,365.59,247.05 M364.19,167.38c0.28-5.05,3.93-4.77,4.49-1.26c2.52,15.57,5.33,34.23,8.28,53.44
		c0.56,3.51,1.12,7.01,1.54,10.66l-13.19,12.62C362.93,214.37,363.35,187.57,364.19,167.38 M375.97,163.59
		c12.9,30.72,21.88,57.09,28.05,79.81l-22.16-12.76c-0.56-3.93-1.12-7.71-1.82-11.64c-2.95-19.22-5.75-37.87-8.28-53.44
		C371.06,161.34,374.29,159.52,375.97,163.59 M405.29,248.03c2.67,10.38,4.77,19.92,6.17,28.62l-24.83-14.73
		c-1.4-8.84-2.81-17.95-4.21-27.07L405.29,248.03z M415.25,310.87l-22.58-12.62c-1.68-9.68-3.51-20.62-5.19-32.12l24.83,14.73
		C413.99,292.08,414.83,302.04,415.25,310.87 M410.62,255.75c-1.54-6.87-3.51-14.03-5.61-21.6c-4.91-16.83-11.22-35.63-19.5-56.53
		c-4.63-11.5-9.68-23.57-15.43-36.47c-1.26,0.28-2.52,0.42-3.93,0.42c-1.26,0-2.52-0.14-3.79-0.42c0,0.84-0.14,1.82-0.14,2.81
		c-2.52,40.68-10.24,164.54,42.08,231.17l1.68,2.24l1.12-2.67l1.26-3.09C414.27,357.16,427.03,325.74,410.62,255.75"/>
	<path id="XMLID_107_" d="M405.01,234.14c2.24,7.57,4.07,14.73,5.61,21.6c5.19,12.2,12.48,26.37,18.66,35.91
		c5.05,37.17-0.14,80.94-28.76,108.15c-1.68-11.36-8.84-23.14-13.75-32.82c-5.05-9.96-18.66-32.26-19.78-35.07
		c-0.56-13.61-6.59-46.29-8.84-71.82c-2.24-25.39-2.24-109.69-0.56-118.11l3.37-0.98c0.42,0.14,0.84,0.28,1.12,0.28
		c1.26,0.28,2.38,0.42,3.79,0.42c1.4,0,2.67-0.14,3.93-0.42c1.82-0.42,3.51-1.12,5.05-1.96c1.4-0.84,2.67-1.82,3.79-3.09
		c0.98-1.12,1.96-2.38,2.67-3.65c1.26-2.24,2.1-4.77,2.24-7.43l0.28-0.56c11.5,11.92,107.45,78.55,120.63,165.66
		c2.81,18.66-1.68,40.68,1.68,48.53C495.63,339.21,449.76,344.4,405.01,234.14 M337.12,440.9c-1.96,2.67-6.45,2.1-8.7-2.24
		c-58.49-98.89,1.68-276.33,22.44-305.51c0.84,1.54,1.96,2.81,3.23,4.07c-0.42,1.4-1.12,3.37-1.96,6.03
		c-4.35,14.73,0.14,143.78,8.28,189.93C368.12,376.52,347.78,430.38,337.12,440.9 M292.09,292.78
		c-4.35,3.37-15.29,15.43-29.04,27.21c-3.79,2.81-3.37,1.12-6.17-3.37c-2.81-4.49-13.19-23.14-16.97-33.95
		c-3.79-10.8-3.51-6.87,0.56-16.41c37.73-88.93,98.05-137.33,103.1-141.25c2.24-1.82,3.65-2.38,4.63-2.24c0,0.14,0,0.28,0,0.42
		c0,2.1,0.42,4.21,0.98,6.03l-0.14,0.14c-23.57,24.27-47.41,135.22-48.11,147.71C300.51,283.52,296.86,289.13,292.09,292.78
		 M289.85,398.54c-4.07,5.05-10.52,7.43-14.31,5.19c-0.42-0.28-0.84-0.42-1.26-0.7c-1.4,5.19-3.79,9.26-7.01,11.78
		c-3.93,3.09-8.7,3.65-13.19,1.4c-9.54-4.49-15.85-19.5-16.83-40.12c-1.54-29.88-6.73-36.89-19.5-54
		c-3.51-4.77-7.57-10.24-12.34-17.11c-22.3-32.82-20.62-58.21-9.82-122.32c7.57-44.89,1.12-57.65-7.15-73.64
		c-2.95-5.75-6.31-12.2-9.12-20.62c-4.49-13.05-3.79-22.3,2.24-27.35c7.86-6.73,21.18-2.24,27.77,1.82c1.12,0.7,2.38,1.54,3.79,2.38
		c11.08,7.29,27.91,18.38,45.73,4.07c8-6.31,14.73-8.56,20.62-6.59c9.96,3.23,14.17,16.69,18.38,30.16l0.28,0.7
		c1.82,5.89,5.05,10.52,9.54,12.9c7.01,3.51,15.57,0.56,19.08-1.54c1.54-0.98,3.65-0.42,4.49,1.26s0.28,3.23-1.26,4.07
		c-5.47,3.23-16.97,6.03-25.25,1.68c-6.17-3.23-10.52-8.7-12.9-16.41l-0.28-0.7c-3.65-11.92-7.29-24.13-14.03-26.23
		c-3.65-1.12-8.56,0.7-14.59,5.47c-21.46,17.25-41.38,4.07-53.3-3.65c-1.26-0.84-2.52-1.68-3.65-2.24
		c-6.17-3.93-15.85-5.47-20.2-1.82c-3.51,2.95-3.65,10.1-0.28,19.78c2.81,8,5.89,14.03,8.84,19.78c5.05,9.82,9.4,18.38,10.8,32.68
		c28.33-6.31,76.03-10.66,107.73-9.82c1.82-0.14,3.37,1.4,3.37,3.23c0.14,1.82-1.4,3.51-3.23,3.51v-0.56
		c-36.05-1.12-79.11,3.09-107.59,9.96c0.28,9.96-0.56,22.3-3.37,39c-10.38,62-12.2,86.55,8.84,117.27c4.63,6.73,8.7,12.2,12.2,16.97
		c13.19,17.67,19.08,25.81,20.76,57.79c1.12,21.32,7.71,31.84,13.05,34.37c2.24,1.12,4.49,0.84,6.45-0.7
		c2.1-1.68,4.07-5.05,5.19-10.24c-7.43-5.47-15.57-13.61-15.99-24.27c-0.42-9.12,3.51-11.36,6.31-11.64
		c7.43-0.84,14.73,7.29,15.99,15.01c0.98,6.45,1.26,12.48,0.7,17.81c1.12,0.7,2.1,1.26,2.95,1.82c0.84,0.14,4.63-0.84,7.01-4.77
		c4.91-8.14,0.56-21.74-12.2-37.45c-5.19-6.45-11.08-12.48-16.69-18.38c-6.31-6.59-12.9-13.47-18.52-20.76
		c-10.24-13.47-24.41-31.84-20.48-78.13l2.24-26.37c1.54-18.8,1.68-20.34,3.37-27.21c1.82-7.71,5.47-17.11,11.92-18.1
		c6.17-0.98,10.24,6.87,11.64,9.26c3.51,6.17,6.45,8.7,7.43,8.98c0.28-0.42,1.4-2.24,1.82-8.14c1.4-17.39,4.21-25.11,9.54-26.79
		c5.19-1.54,9.82,3.79,12.9,8c1.26,1.82,4.49,6.17,6.17,7.71c1.12-2.1,2.67-8,4.21-14.17l0.84-3.09c0.42-1.82,2.24-3.37,4.07-2.95
		c1.68,0.42,2.81,2.38,2.38,4.21l-0.84,3.09c-3.51,13.61-4.77,18.66-9.26,19.5c-4.21,0.84-7.57-3.51-12.76-10.8
		c-4.07-5.61-5.75-5.61-5.75-5.61c-0.14,0-3.09,0.98-4.77,20.76c-0.42,5.47-1.68,12.9-6.87,14.17c-4.49,0.98-9.4-3.09-14.59-12.2
		c-2.52-4.49-4.35-5.47-5.05-5.47c-1.4,0.28-4.35,4.35-6.45,13.05c-1.54,6.45-1.68,7.57-3.23,26.23l-2.24,26.37
		c-3.79,43.62,8.84,60.18,19.08,73.36c5.33,7.01,11.5,13.33,17.95,20.2c5.75,6.03,11.64,12.2,16.97,18.8
		C300.93,378.9,293.91,393.49,289.85,398.54 M144.53,474.43c-10.1,2.95-12.06-6.31-15.15-14.73c-2.38-6.31-7.86-13.33-10.8-22.58
		c-3.51-10.66-5.33-26.09-5.33-26.09c12.76-3.23,33.67-9.4,45.73-17.95c8.7-6.59,14.03-16.27,16.27-26.79
		c-7.43,10.1-15.85,20.62-28.62,26.37c-25.11,9.54-52.88,15.71-88.23,13.33c-9.96-0.7-34.65-9.68-23.99-34.09
		c3.23-7.29,1.96-19.08-0.42-22.44c-2.52-3.37-7.01-11.08,0.42-18.66c10.66,1.68,34.65-0.84,39.7-3.37
		c4.91-2.52,10.24,2.52,9.82,5.89c-0.84,7.57,8.28,9.26,6.59-1.68c-0.56-3.37-2.52-9.26-4.91-10.24c-2.52-0.84-4.91-4.21-4.07-8.42
		c0.84-4.21-4.91-9.26-14.87-7.57c-9.82,1.68-6.59,8.42,0,7.57c6.59-0.84,7.43,4.21,0.84,5.89c-6.59,1.68-23.57,5.19-30.86,3.09
		c-9.12-2.52-6.45-15.85-2.38-29.46c1.54-5.05-0.56-6.31,8.56-7.15c15.57-1.4,40.68-8.7,48.25,11.08c3.23,8.28,10.38,9.4,5.33-4.35
		c-2.95-7.86-14.31-14.87-16.69-15.71c2.1-9.96-5.33-23.29-20.62-25.25c-16.69-2.1-13.75,15.71-5.61,18.38
		c11.78,3.79,10.94-5.61,4.07-4.21c-7.86-1.82-5.89-8.7-0.56-9.12c6.03-0.42,11.22,3.23,15.43,9.4c4.07,6.17-1.12,11.22-6.31,11.64
		c-15.29,1.26-32.4,4.49-41.38,4.49c-9.12,0-24.55-6.59-8-32.82c16.27-26.09,17.81-30.02,21.88-35.91
		c4.07-5.89,10.66-16.27,8.98-27.35s-8.28-18.8,13.19-38.29c21.32-19.5,59.19-51.2,74.76-58.77
		c13.19,10.24,51.06,21.88,39.56,108.29c-3.09,23-18.1,72.38,21.32,135.92c7.57-5.47,32.68,3.79,17.25,42.08
		c4.91,11.08,24.41,54.99,26.09,57.51C220.97,444.13,185.34,462.65,144.53,474.43 M379.48,123.33c0,7.71-6.03,14.03-13.61,14.03
		c-7.43,0-13.61-6.31-13.61-14.03s6.03-14.03,13.61-14.03C373.45,109.3,379.48,115.62,379.48,123.33 M375.83,82.23v20.34h-10.38
		l-18.24-20.34C347.22,82.23,375.83,82.23,375.83,82.23z M402.34,95.14l5.89,21.32l-19.22,4.63l-4.21-12.34
		C389.02,102.99,396.03,97.8,402.34,95.14 M509.51,324.06C519.89,227.13,429,158.12,394.63,127.4l22.3-5.19l-11.5-39.14
		c0,0-14.73,10.24-22.16,15.29V74.66h-43.62c0,0-15.57-14.45-42.78-35.63c-27.07-21.18-75.19-9.12-85.29-8.7
		c-5.89,0.42-17.81-3.37-40.12-1.68c-37.73,2.95-45.31,35.21-38.86,50.5c-25.53,17.81-100.15,73.5-96.09,92.16
		c2.81,12.48,4.49,23-1.96,30.58c-2.38,2.81-5.75,13.61-25.53,43.2c-23.57,35.35,4.63,46.43,15.99,46.29c0,0,0.42,3.37-0.42,5.47
		c-2.81,6.73-4.07,24.55-0.84,28.76c0.7,0.98,1.26,1.4,1.68,1.68c-0.28,0.14-0.56,0.28-0.84,0.84c-1.68,2.52-7.86,8.7-0.84,19.5
		c8.28,12.76,0,19.08-0.84,26.79c-6.17,57.65,66.91,36.75,80.94,38.43c0.7,6.59,2.38,17.53,6.17,27.91
		c4.49,12.34,10.8,18.24,12.62,26.37c2.24,9.96,7.29,20.34,17.25,17.81c38.71-9.4,87.11-32.26,110.11-47.55
		c8.28,4.21,40.26,7.57,56.67,5.89c16.41-1.68,20.34,8.14,28.76,6.73c2.81-1.96,4.63-6.87,7.01-9.96
		c18.1-22.72,25.95-76.17,23.57-101.28c9.54,18.8,29.74,48.53,31.42,67.05c32.12-14.17,43.48-79.53,36.33-107.45
		c27.07,38.86,51.9,46.99,78.13,44.33C511.62,342.01,508.81,329.95,509.51,324.06"/>
	<path id="XMLID_108_" class="st7" d="M259.97,369.93c-0.28,0.42-0.98,1.54-0.84,4.77c0.28,6.73,5.19,12.48,10.24,16.69
		c0.14-3.51-0.14-7.43-0.84-11.92C266.42,373.15,263.62,368.67,259.97,369.93"/>
	<path id="XMLID_112_" d="M162.06,314.94c-7.86-8.84-19.78-34.51,3.79-56.53C147.89,253.5,123.2,303.02,162.06,314.94"/>
	<path id="XMLID_113_" d="M119.7,128.66c0,0,7.57,5.61,13.33,13.33c4.77,6.17,7.15,1.68,3.93-3.79
		c-3.37-5.61-12.06-12.06-18.1-18.24l5.05-3.51c0,0,23.99,20.48,34.09,33.95c2.95,3.93,7.15,1.26,5.05-2.24
		c-7.29-12.06-25.95-28.33-34.09-35.63l5.05-3.51c0,0,10.52,6.03,18.1,16.55c4.07,5.61,8.84,1.26,3.37-4.35
		c-3.09-3.09-11.78-11.78-16.69-15.15c-4.21-2.95-3.79-5.05-9.82-1.12c0,0-4.91,3.93-13.75,10.24S114.23,124.17,119.7,128.66"/>
	<path id="XMLID_117_" d="M105.53,198.52c4.35,2.24,4.35,1.68-0.56,3.37c-4.91,1.68-21.32,3.51-21.32,3.51c0.56-2.24,0.56-6.31,0-8
		c-0.56-1.68,0.56-6.73,0.56-6.73S101.18,196.27,105.53,198.52 M78.46,176.07c-2.52-1.12-10.24-4.91-9.4-6.17
		c1.12-1.54,7.29-3.51,12.48-4.49c5.19-0.84,1.96,3.79,0.84,6.45C81.26,174.53,80.98,177.19,78.46,176.07 M130.92,169.62
		c-9.4,1.4-21.6-6.73-30.3-13.75c-7.43-6.03-21.74-8.42-32.26-4.07c-10.52,4.49-5.47,11.5-1.54,14.87c0,0,1.4,2.95-4.91,7.86
		c-7.43,5.61,1.82,7.57,9.96,10.52c-3.23,5.19-1.54,14.87-0.56,20.2c-10.8,0.56-16.27,1.82-15.15,4.35
		c0.84,1.96,9.68,3.37,14.45,2.38c0.42,2.67-2.52,12.9,1.68,12.06c4.35-0.84,8-6.17,9.12-12.48c0,0,16.83-2.67,28.05-5.47
		c9.82-2.38,10.24-6.31,4.91-8.84c-7.29-3.65-20.06-11.5-28.05-16.97c-3.79-2.52-0.7-6.03,0.98-10.8
		c1.68-4.77,12.48,1.12,15.99,3.37c3.51,2.24,19.36,10.52,30.02,6.03C142.7,174.95,146.07,167.38,130.92,169.62"/>
</g>
</svg>
