<?xml version="1.0" encoding="utf-8"?>
<!-- Generator: Adobe Illustrator 24.3.0, SVG Export Plug-In . SVG Version: 6.00 Build 0)  -->
<svg version="1.1" id="Layer_1" xmlns="http://www.w3.org/2000/svg" xmlns:xlink="http://www.w3.org/1999/xlink" x="0px" y="0px"
	 viewBox="0 0 512 512" style="enable-background:new 0 0 512 512;" xml:space="preserve">
<style type="text/css">
	.st0{fill:#005488;}
	.st1{fill:#A7B1B7;}
	.st2{fill:#FFFFFF;}
	.st3{fill:#8B2942;}
</style>
<g id="XMLID_1_">
	<path id="XMLID_3_" class="st0" d="M507.48,350.82c-1.12-2.52-14.59-32.12-24.83-42.64c-13.18-18.94-13.75-18.23-13.18-18.94
		c22.58-31.84,31.42-65.22,21.88-95.38c-16.27-51.34-81.35-79.67-163.55-78.83c-2.81-4.63-6.59-9.12-10.94-13.18
		c-10.94-10.24-23.98-15.57-35.07-15.57l-24.83-40.26l-56.53,91.59C71.83,180.82-12.89,273.12,10.25,346.19
		c6.03,19.08,32.26,46.57,32.26,46.57l-42.5,71.11c104.36-12.62,191.6-17.25,191.6-17.25l5.61-22.58
		c30.72-2.38,63.26-8.56,96.22-18.94c8.98-2.81,17.81-5.89,26.37-9.26c4.07,13.04,8.84,28.05,9.82,30.3
		c15.85,37.45,68.45,50.77,117.54,30.02C496.26,435.4,523.33,388.27,507.48,350.82z"/>
	<path id="XMLID_4_" class="st1" d="M330.61,371.02c-55.12-25.81-99.73-6.87-111.79-5.19c-3.23,1.26-6.31,2.38-9.4,3.51
		c-2.24,0.84-4.35,1.54-6.59,2.24c-59.89,19.78-100.99,7.99-121.33-18.65c-1.4-1.82-2.66-3.65-3.79-5.47
		c-25.11-40.68-8.56-109.54,55.12-160.32C15.16,276.34,67.62,348.02,72.53,353.77c0.14,0.28,0.42,0.7,0.56,0.98
		c-32.68,53.58-57.23,94.12-59.05,98.74c70.55-7.71,171.12-15.43,171.12-15.43l21.74-61.72c46.57-18.65,99.03-18.51,146.01,11.78
		C352.92,388.13,351.23,378.73,330.61,371.02z"/>
	<path id="XMLID_5_" class="st2" d="M460.5,279.43c3.51,1.12,15.43-31,14.73-48.11c-2.38-54.42-65.36-96.08-141.66-94.4
		c-0.84,7.43-2.24,13.75-3.93,18.23l66.06,102.81C395.55,257.97,431.18,260.07,460.5,279.43z"/>
	<path id="XMLID_6_" class="st2" d="M68.04,345.77c-34.79-54.98,13.04-133.95,108.14-186.13C-59.6,265.12,56.96,362.74,56.96,362.74
		l11.64-16.13C68.32,346.33,68.18,346.05,68.04,345.77z"/>
	<path id="XMLID_7_" class="st2" d="M206.9,398.93l6.03-15.43c74.9-24.97,100.71-5.19,100.71-5.19
		C260.2,398.93,206.9,398.93,206.9,398.93z"/>
	<path id="XMLID_8_" class="st1" d="M132.84,187.14c6.87-5.19,14.31-10.38,22.3-15.71C147.15,176.34,139.72,181.67,132.84,187.14z"
		/>
	<path id="XMLID_9_" class="st2" d="M163.7,178.3c-75.74,43.06-80.93,123.85-80.93,123.85s5.19-1.68,5.19,0
		c-0.56,13.61,1.4,23.7,5.19,31.28l24.27-40.26C105.77,271.43,106.9,233.56,163.7,178.3z"/>
	<path id="XMLID_10_" class="st3" d="M76.88,360.5l-52.46,86.68l157.09-14.31l18.8-54C184.6,384.34,110.26,406.37,76.88,360.5z"/>
	<path id="XMLID_11_" d="M505.24,396.13c-15.57,41.1-91.31,84.16-145.87,55.4c-14.31-8.28-21.18-19.36-31.84-42.78
		c42.5,48.25,129.88-18.09,129.88-18.09s14.45-3.65,14.45-14.73c7.43-5.47,11.08-12.9,16.69-20.34
		C494.16,366.53,505.24,396.13,505.24,396.13z"/>
	<path id="XMLID_14_" class="st1" d="M292.32,257.27c0,0-8.28,3.09-13.18,5.05c-2.24,0.84-21.32-50.07-21.32-50.07
		s-20.06,57.09-23.98,68.59c-0.28,0.84-13.47,5.19-13.47,5.19s-31,13.75-43.06,15.43c7.71,0,17.95-2.52,26.93-5.19
		c11.22-2.66,21.32-7.71,32.4-10.24c18.51-6.45,36.47-14.87,54.98-21.88v0.14c1.12-0.42,2.24-0.98,3.37-1.4
		c14.87-5.47,24.13-9.12,24.13-9.12s25.67-7.43,39.27-8.7C334.4,245.06,292.32,257.27,292.32,257.27z M244.21,275.5l14.03-40.96
		l10.8,31.42C263.71,266.52,244.21,275.5,244.21,275.5z"/>
	<path id="XMLID_15_" class="st1" d="M384.75,257.41L256.55,56.97c0,0-129.04,211.94-129.04,209.13
		c-2.52,5.75-3.65,11.08-3.23,15.85l6.03-10.1L256.84,66.93l119.5,185.71c1.54,2.38,2.66,4.21,3.37,5.89
		C391.21,259.37,384.75,257.41,384.75,257.41z"/>
	<path id="XMLID_18_" class="st3" d="M376.48,252.78L256.98,67.07L130.46,271.99l-6.03,10.1c1.96,30.58,59.75,40.68,163.27-8.56
		c17.81-8.42,41.8-14.17,73.92-15.15c4.63-0.14,9.54-0.14,14.59-0.14c1.4,0.14,2.66,0.28,3.65,0.28
		C379.14,256.99,378.02,255.02,376.48,252.78z M319.25,253.76c0,0-9.12,3.65-24.13,9.12c-1.12,0.42-2.24,0.98-3.37,1.4v-0.14
		c-18.51,7.01-36.47,15.43-54.98,21.88c-11.08,2.52-21.32,7.57-32.4,10.24c-8.84,2.66-19.08,5.19-26.93,5.19
		c12.06-1.68,43.06-15.43,43.06-15.43s13.18-4.35,13.47-5.19c3.79-11.5,23.98-68.59,23.98-68.59s19.22,50.92,21.32,50.07
		c4.91-1.96,13.18-5.05,13.18-5.05s42.08-12.06,66.06-12.06C344.78,246.33,319.25,253.76,319.25,253.76z"/>
	<path id="XMLID_19_" class="st2" d="M324.86,149.41c11.78-64.1-65.92-59.19-65.92-59.19l-3.23,15.99l-11.92,4.63l-9.12,28.05
		l-7.85,4.91l-13.89,23.84C213.07,167.5,300.18,102.7,324.86,149.41z"/>
	<path id="XMLID_20_" class="st0" d="M251.51,120.93c-2.24,6.87-2.24,6.87-2.24,6.87s42.5-14.87,66.48-2.24
		C315.75,125.56,305.37,108.31,251.51,120.93z"/>
	<path id="XMLID_21_" class="st1" d="M230.75,150.81c0,0,0,0,3.51-7.71c63.68-34.36,83.46-10.38,83.46-10.38
		C283.35,115.46,230.75,150.81,230.75,150.81z"/>
	<path id="XMLID_22_" class="st2" d="M445.91,283.22c-44.88-21.74-88.51-18.51-116.98-12.2c-20.2,4.49-32.68,10.52-32.68,10.52
		c-79.95,33.52-117.82,39.55-146.29,31c-1.68,1.68-1.68,3.51-5.19,3.51c-7.01-1.4-19.78-8.7-27.21-22.58l-24.27,39.97
		c6.73,13.47,18.8,19.36,30.86,23.7c29.31,11.5,56.53,7.43,83.6,0.28c39.55-10.52,79.25-27.63,126.24-12.34
		c29.31,10.38,73.92,37.03,73.92,58.49c-44.74,23.28-72.24-1.68-75.74-5.19c15.43,24.13,50.77,23.28,73.92,10.38l12.76-6.31
		l-5.89-12.62l3.51-3.51l10.38,8.56l-6.87-20.62c0-1.68,18.94,17.25,18.94,17.25c5.19,0-17.25-31-17.25-31s-8.56,5.19-12.06,6.87
		c-10.38-18.94-42.22-35.21-48.11-37.87c-12.06-5.19-52.46-17.25-91.17-12.06c24.97-9.4,46.43-12.06,67.05-10.38
		c51.62,3.51,79.11,41.24,79.11,41.24l8.56-6.87c0,0,36.19,37.87,41.24,62c0-17.25,0-34.36,0-51.62c1.68-1.68,1.68-1.68,3.51-3.51
		c3.51,1.68,6.87,8.56,6.87,8.56l1.68-22.44c13.75,13.75,22.3,32.68,25.81,51.62C506.08,345.21,480.27,305.66,445.91,283.22z"/>
	<path id="XMLID_23_" class="st0" d="M406.36,271.99c0,0,45.73,29.74,46.99,38.57l-8.42,9.96l-2.81,13.61l-8.28-9.82
		c0,0-2.81,0.42-4.21,2.24c-10.38-13.75-27.49-22.3-43.06-31c-36.19-12.06-75.74-12.06-111.79,0
		c-37.87,17.25-75.74,34.36-116.98,34.36c-50.77-4.35-52.04-39.97-52.32-60.87l5.89-33.38c0,0-44.74,85.98,20.62,101.13
		c48.11,8.56,92.85-12.06,134.23-31c21.46-8.14,91.17-32.26,149.66,20.62c5.19,1.68,6.87,6.87,12.06,10.38
		c1.68-1.68,6.87-3.51,6.87-3.51l12.06,13.75c0,0,1.68-13.75,3.51-20.62c1.68-1.68,3.37-3.51,3.37-3.51l5.19-8.56c0,0,0-1.68,0-3.51
		c0-1.68,0-1.68,0-3.51C441.84,282.09,406.36,271.99,406.36,271.99z"/>
	<path id="XMLID_24_" class="st1" d="M420.66,426l-3.51,6.87c-50.49,17.81-71.67-2.24-73.92-5.75
		C379.85,445.5,420.66,426,420.66,426z"/>
	<path id="XMLID_25_" class="st1" d="M459.09,426.56l-1.12,6.31c-74.48,41.24-104.36,7.43-104.36,7.43S391.91,466.12,459.09,426.56z
		"/>
</g>
</svg>
