<?xml version="1.0" encoding="utf-8"?>
<!-- Generator: Adobe Illustrator 24.3.0, SVG Export Plug-In . SVG Version: 6.00 Build 0)  -->
<svg version="1.1" id="Layer_1" xmlns="http://www.w3.org/2000/svg" xmlns:xlink="http://www.w3.org/1999/xlink" x="0px" y="0px"
	 viewBox="0 0 512 512" style="enable-background:new 0 0 512 512;" xml:space="preserve">
<style type="text/css">
	.st0{fill:#A7B1B7;}
	.st1{fill:#00285D;}
	.st2{fill:#E13A3E;}
	.st3{fill:#FFFFFF;}
</style>
<g id="XMLID_1_">
	<path id="XMLID_3_" class="st0" d="M254.74,34.65L232.01,82.2c-33.81,3.09-82.76,15.57-126.39,38.72
		C48.68,151.08,0,200.17,0,259.37c0,84.3,80.8,107.59,89.07,112.08L51.9,463.18l98.19-77.71c52.88,7.57,120.92,3.79,155.84-2.38
		l107.31,94.26L376.64,367.1c0,0,26.51-8.98,35.77-14.17L512,123.72c-81.22,47.41-154.3,75.47-154.3,75.47L499.24,93.84
		l-89.35,15.15c0,0-50.08-32.82-139.99-30.16L254.74,34.65z"/>
	<path id="XMLID_6_" class="st1" d="M493.62,144.34c-74.06,41.24-125.12,62.28-177.59,81.36l-3.09-9.12L473,105.35l-177.73,45.59
		l99.31-40.12c0,0-47.83-27.35-131.02-23.15l-10.24-30.3L197.93,172.4l-84.02,23.85l77.71-31.84l35.91-73.22
		c-9.96,1.54-20.62,3.37-31.42,5.89C90.34,121.2,8.42,188.25,8.42,258.81c0,74.63,65.79,98.33,92.3,107.45l-34.79,76.31l81.5-66.21
		c56.11,8.42,124,5.33,161.32-2.24l90.34,80.38l-33.81-93.28c0,0,20.06-5.05,40.54-14.73L493.62,144.34L493.62,144.34z
		 M153.46,252.07c-27.07-3.65-35.35-12.91-35.35-20.48c0-2.81,1.26-6.03,1.26-6.03l40.96,11.36L153.46,252.07z"/>
	<path id="XMLID_7_" class="st2" d="M404.97,200.59c-92.3,47.97-173.1,66.91-224.86,66.91c-68.45,0-99.17-32.68-99.17-53.16
		c0-48.96,73.22-87.25,136.49-102.54l5.19-10.66c-53.02,9.68-112.78,31.7-147.01,62.98c-33.39,22.44-54.29,55.97-54.29,94.4
		c0,56.81,47.13,109.97,192.74,109.97c92.72,0,156.97-19.78,178.71-30.58c-91.32-0.56-184.6-27.77-184.6-27.77
		S326.98,264.42,404.97,200.59z"/>
	<path id="XMLID_8_" class="st2" d="M269.47,104.5L269.47,104.5c9.54-0.84,19.08-1.12,28.62-1.12c40.4,0,67.33,6.59,67.33,6.59
		s-28.76-14.31-87.39-14.31c-3.65,0-7.29,0.14-11.22,0.28L269.47,104.5z"/>
	<path id="XMLID_9_" class="st3" d="M270.03,324.59L270.03,324.59c0,0-32.82,5.19-73.22,5.19c-159.21,0-170.29-80.1-170.29-103.94
		c-3.37,10.24-5.19,21.18-5.33,32.54c0.14,1.68,6.17,93,182.22,93c72.24,0,132.56-16.83,132.56-16.83
		C311.97,332.03,289.39,328.24,270.03,324.59z"/>
	<path id="XMLID_10_" class="st3" d="M335.54,248c-0.42,0.14-96.93,38.29-163.84,38.29c-77.01,0-111.94-43.91-111.94-78.41
		c0-23.99,15.85-43.77,15.85-43.77c-0.56,0.28-0.98,0.7-1.54,0.98c-0.28,0.14-28.05,21.18-28.05,54.43
		c0,53.87,53.16,83.46,115.02,83.46c35.07,0,70.56-6.17,91.32-11.92C275.64,280.41,305.38,265.68,335.54,248z"/>
	<path id="XMLID_11_" class="st0" d="M337.64,386.74L337.64,386.74l30.16,23.71l-15.29-40.68
		C337.36,373.55,337.64,386.74,337.64,386.74L337.64,386.74z"/>
	<path id="XMLID_12_" class="st0" d="M170.85,253.33c2.67,0.14,5.47,0.14,8.42,0.14c43.91,0,95.39-14.31,120.78-22.44l-7.57-20.06
		l110.82-72.8l-130.17,31.56l-22.86-71.82l-36.47,86.83l-99.03,24.97l69.44,16.83L170.85,253.33L170.85,253.33z"/>
	<path id="XMLID_13_" class="st0" d="M112.22,370.46L112.22,370.46l-16.41,32.82l30.72-23
		C126.53,380.42,123.44,370.46,112.22,370.46z"/>
	<polygon id="XMLID_14_" class="st3" points="250.25,110.4 268.06,171.41 231.45,195.12 	"/>
	<polygon id="XMLID_15_" class="st3" points="135.08,208.31 215.74,186.42 231.45,195.12 	"/>
	<path id="XMLID_16_" class="st3" d="M114.74,370.74l-12.34,24.27l15.15-23.57C116.71,371.02,115.87,370.88,114.74,370.74z"/>
	<path id="XMLID_17_" class="st3" d="M179.41,253.48c4.77,0,9.68-0.14,14.73-0.56l37.45-57.93l-43.48,32.26l-13.33,26.23
		C176.18,253.48,177.73,253.48,179.41,253.48z"/>
	<path id="XMLID_18_" class="st3" d="M358.68,397.96l-15.01-23.99c-2.95,2.52-4.35,5.33-5.19,7.86L358.68,397.96z"/>
	<path id="XMLID_19_" class="st3" d="M260.91,242.11l-29.46-46.99v53.3C241.69,246.46,251.65,244.36,260.91,242.11z"/>
	<polygon id="XMLID_20_" class="st3" points="231.45,195.12 289.67,207.47 383.37,149.11 	"/>
	<polygon id="XMLID_21_" class="st3" points="259.51,298.08 256,302.29 250.53,302.99 254.18,304.68 250.81,309.16 256.56,306.22 
		260.49,309.02 259.79,304.39 264.84,301.45 259.65,302.01 	"/>
	<polygon id="XMLID_22_" class="st3" points="288.96,304.53 285.88,308.18 280.69,308.74 283.91,310.57 280.69,314.63 
		286.02,312.11 289.67,314.77 289.24,310.29 294.15,307.62 288.96,307.9 	"/>
	<polygon id="XMLID_23_" class="st3" points="300.19,278.58 296.54,283.07 291.21,283.63 294.72,285.6 291.35,290.09 297.1,287 
		301.17,289.95 300.33,285.18 305.52,282.23 300.33,282.65 	"/>
	<polygon id="XMLID_24_" class="st3" points="329.92,281.95 326.56,286.16 321.51,286.72 324.73,288.54 321.65,292.61 
		326.98,289.81 330.77,292.61 330.06,288.12 334.83,285.32 329.92,285.74 	"/>
	<polygon id="XMLID_25_" class="st3" points="318.28,308.74 314.92,312.53 310.15,312.81 313.09,314.77 309.87,318.7 315.2,315.9 
		318.98,318.84 318.28,314.49 323.05,311.83 318.42,312.11 	"/>
	<polygon id="XMLID_26_" class="st3" points="355.45,311.69 351.53,316.18 345.92,316.74 349.42,318.84 345.78,323.19 
		351.95,320.11 356.16,323.33 355.45,318.42 361.07,315.34 355.31,315.62 	"/>
	<polygon id="XMLID_27_" class="st3" points="342.27,252.91 338.48,257.68 332.03,258.52 335.96,260.63 332.03,265.68 
		338.76,262.03 343.53,265.54 342.55,260.07 348.72,256.42 342.41,257.12 	"/>
	<polygon id="XMLID_28_" class="st3" points="396.41,310.15 391.22,316.18 383.37,317.02 388.28,319.4 383.37,325.72 391.5,321.37 
		397.26,325.86 396.27,319.12 403.99,315.06 396.27,315.34 	"/>
	<polygon id="XMLID_29_" class="st3" points="411,274.1 406.51,279.85 399.22,280.69 403.71,283.07 399.22,288.96 406.79,284.76 
		411.98,288.54 411,282.51 418.44,278.3 411,279.29 	"/>
	<polygon id="XMLID_30_" class="st3" points="423.35,238.04 418.72,244.08 410.86,245.06 415.63,247.58 410.86,253.9 419.14,249.41 
		424.89,253.62 423.63,246.88 431.2,242.67 423.63,243.38 	"/>
	<polygon id="XMLID_31_" class="st3" points="388.56,223.04 384.91,229.63 376.92,231.31 382.39,233.7 378.74,240.29 386.45,234.96 
		393.47,238.89 390.94,232.15 397.54,226.96 389.82,228.51 	"/>
	<polygon id="XMLID_32_" class="st3" points="435.83,194.84 430.36,202.56 420.54,203.68 427.27,207.04 421.66,215.18 
		431.62,209.43 439.06,214.62 437.23,206.2 446.35,200.73 436.67,201.85 	"/>
	<path id="XMLID_33_" class="st3" d="M344.23,284.62c0,4.35,3.23,17.11,18.52,17.11c16.69,0,34.23-16.13,34.23-32.26
		c0-9.96-7.01-17.96-18.1-17.96C357.56,251.51,344.23,271.99,344.23,284.62z"/>
	<path id="XMLID_34_" class="st2" d="M349.28,282.51c0,7.43,4.91,14.59,14.17,14.59c14.73,0,28.2-13.89,28.2-27.21
		c0-7.01-5.47-14.17-14.31-14.17C361.63,255.58,349.28,271.99,349.28,282.51L349.28,282.51z"/>
</g>
</svg>
