<?xml version="1.0" encoding="utf-8"?>
<!-- Generator: Adobe Illustrator 24.3.0, SVG Export Plug-In . SVG Version: 6.00 Build 0)  -->
<svg version="1.1" id="Layer_1" xmlns="http://www.w3.org/2000/svg" xmlns:xlink="http://www.w3.org/1999/xlink" x="0px" y="0px"
	 viewBox="0 0 512 512" style="enable-background:new 0 0 512 512;" xml:space="preserve">
<style type="text/css">
	.st0{fill:#FFFFFF;}
	.st1{fill:#EC2024;}
</style>
<g id="XMLID_1_">
	<path id="XMLID_54_" class="st0" d="M471.18,193.55c-17.11,15.01-36.46,24.54-57.64,31.55c-20.19,6.73-40.95,9.82-61.7,8.98
		c-2.66-0.14-4.35-4.63-7.01-6.17c-2.24-1.26-5.47-0.84-8.27-1.26c-1.12-0.14-1.26-2.24-0.56-2.52c4.49-1.4,9.26-0.84,14.02-1.68
		c2.1-0.42,2.24-3.09,3.79-3.79c6.31-2.8,13.32-1.82,20.05-2.52c1.68-0.14,0.84-3.23,1.96-3.65c2.52-1.12,5.19,0.84,7.85,1.54
		c2.38,0.56,2.38-3.09,3.65-2.66c4.91,1.4,6.87,0.28,10.38-2.52c0.56-0.56,2.1,0,3.23,0.28c1.12,0.28,2.8,0.98,3.51-0.42
		c3.65-9.12,13.46-0.28,19.07-2.1c1.54-0.42-0.84-2.94,0.28-3.65c3.93-2.52,8.55,0.84,12.62-0.98c1.54-0.7,0-2.94,0.84-3.93
		c1.26-1.4,3.65,0.56,5.19-0.28c1.26-0.56,3.37-1.26,4.35-1.26c4.63-0.14,7.85-2.24,12.34-3.09c0.7-0.14,1.12-1.26,1.96-1.54
		c3.51-0.84,9.82,0.28,10.24,0.56C471.6,192.15,472.16,192.57,471.18,193.55 M441.03,231.27c2.24,0.56,6.31,1.4,5.61,1.96
		c-34.92,28.61-79.93,34.08-121.86,34.5c-4.07-5.47-11.08-7.85-16.97-11.22c-0.42-0.14-0.28-1.82,0-1.96
		c4.91-2.38,10.38-1.4,15.85-2.24c1.96-0.28,2.52-3.23,4.35-3.79c6.31-1.96,12.34-4.35,18.93-4.07c5.61,0.28,10.94,0.7,16.55,0.42
		c1.68-0.14,0.98-3.37,2.52-3.79c6.17-1.12,12.06,1.26,18.23,0c1.26-0.28,1.54-2.8,2.1-2.94c6.73-2.8,14.72-0.42,21.88-2.94
		c-0.7-0.7-1.82-1.68-1.12-2.24c1.26-0.98,3.37-0.42,4.77-0.28c2.8,0.28,6.17,0.7,8.83-1.4c1.82-1.4,4.91,0.7,7.01,0
		c2.24-0.7,4.49-2.1,6.87-1.4C437.1,230.85,438.79,230.85,441.03,231.27z M349.88,290.45c-23.84,4.49-46.14,3.79-69.14-1.96
		c-1.12-0.28,1.96-2.66,3.65-3.23c5.47-1.96,11.5-2.38,16.97-4.35c1.12-0.42,2.1-2.24,2.94-3.09c2.24-2.24,6.17-2.94,8.98-3.93
		c8.98-2.66,18.37,0.42,27.91,1.82c3.79,0.56,7.43,0.98,11.08,2.1c0.42,0.14,2.1-0.42,2.24-1.54c0.14-1.26,0.28-2.8,1.4-2.8
		c3.09,0,6.31,1.12,9.12,0.14c3.51-1.4,7.43-0.42,11.08-0.98c0.98-0.14,0.28-1.54,1.26-1.82c3.79-0.84,7.85,0.84,11.22-0.7
		c2.66-1.26,8.41,2.38,9.54,3.79C383.25,282.32,367.27,287.23,349.88,290.45z M349.88,310.65c-15.15,4.63-30.57,4.63-46,4.63
		c-15.71,0-30.43-4.63-46-8.83c-0.98-0.28-0.84-1.4-0.56-1.54c2.24-1.26,4.91-0.56,7.15-1.54c1.26-0.56,1.54-2.1,2.52-2.8
		c1.4-0.84,4.63-0.7,6.03-1.54c1.96-1.12,2.52-2.66,4.49-3.79c1.82-1.12,4.07,0.7,6.73,0.14c5.33-1.12,9.12,3.51,14.02,5.05
		c1.96,0.56,3.79-1.12,5.47-0.84c1.96,0.28,3.51,2.1,5.61,2.8c1.54,0.42,2.8,0.56,4.35-0.28c2.38-1.12,4.63,1.96,7.15,1.4
		c0.84-0.14,0.84-2.1,1.96-2.1c4.21-0.28,6.87,4.07,10.94,4.07c0.42,0,0.84-0.84,1.26-0.98c2.24-0.84,4.21,1.12,6.87,0.28
		c3.23-0.98,6.17,1.54,8.27,4.07C351.28,309.53,351,310.23,349.88,310.65z M302.06,332.66c1.4,1.12,2.24,2.94,1.68,3.09
		c-9.54,2.8-25.1,1.26-36.6,0.14c-10.24-0.98-19.91-3.79-29.31-7.57c-6.31-2.52-12.34-5.05-18.37-8.55
		c-1.54-0.98-4.07-1.26-4.21-3.51c0-0.28,0.42-0.98,0.56-0.98c3.51-1.68,7.43,0.7,10.94-0.42c1.26-0.42,2.1-2.52,3.09-2.52
		c2.52,0,5.33,0.98,7.71-0.84c1.68-1.26,4.35-0.42,6.17,0.42c2.38,1.12,6.31,6.45,9.4,5.89c0.84-0.14,5.89-1.26,6.87-0.7
		c4.77,2.8,12.48,8.55,17.81,8.83c0.98,0.14,1.68-3.09,3.09-2.38c3.23,1.68,5.33,4.07,7.99,4.63c0.84,0.14,2.38-1.12,3.37-0.98
		c1.96,0.28,3.09,1.68,5.19,3.23C298.41,331.12,300.52,331.54,302.06,332.66z M262.79,352.72c-34.36,0.84-65.63-19.21-88.07-45.86
		c-0.28-0.42-0.42-1.68,0.42-1.54c3.93,0.28,7.01,2.8,10.52,4.49c3.79,1.82,8.13,7.01,12.06,3.93c0.84-0.7,0.28-1.96,1.26-1.68
		c5.19,1.4,8.69,5.75,12.48,9.4c3.23,3.23,4.91,7.71,9.12,9.82c1.82,0.84,3.23-3.23,4.63-1.96c3.09,2.66,5.33,5.47,8.69,7.99
		c1.4,0.98,2.24-2.1,2.8-2.38c1.54-0.7,4.91,2.66,6.59,4.07c2.1,1.68,4.49,4.07,7.15,5.61c1.26,0.84,2.52-1.12,3.79-0.56
		c1.96,0.84,3.93,1.96,6.03,2.66c1.4,0.42,2.52,3.23,3.65,4.63C265.18,352.86,263.63,352.72,262.79,352.72z M189.73,416.53
		c-15.57,9.12-31.83,13.74-49.5,15.43c-8.27,0.7-16.27,0.14-24.4-0.98C59.31,422.7,14.29,371.37,15.14,315
		c0-0.14,0.84,1.96,1.96,2.38c1.26,0.42,1.82-0.56,2.66-1.54c1.12-1.26,2.52,1.54,4.07,0.98c0.42-0.14,0.84-1.12,1.26-0.98
		c3.09,0.7,3.09-2.94,5.47-2.38c1.4,0.42,0.98,2.66,1.96,4.07c0.84,1.4,2.38,1.68,3.65,1.12c4.49-1.96,2.94-7.43,5.61-10.94
		c1.26,6.31,0,12.62,1.4,18.93c2.1,9.54,4.35,18.37,8.55,26.93c7.29,15.43,18.79,27.49,33.66,36.74
		c41.37,26.08,96.62,12.2,122.57-26.93c3.79,0.84,8.41,2.38,12.9,2.94c2.38,0.28,4.91,0.28,7.29,0c0.42-0.14,1.96-0.56,1.82-0.7
		c-3.79-5.33-11.5-11.5-12.2-19.35c7.71,2.94,16.97,6.03,26.36,9.26C231.52,380.06,214.41,402.36,189.73,416.53z M22.71,263.53
		c7.57-14.58,17.67-26.79,29.87-38c15.85-14.44,33.52-23.84,54.55-28.61c25.24-5.61,48.8-4.35,73.48,6.45
		c1.12,0.42-1.96,6.87-2.8,6.59c-41.65-15.85-90.45-9.26-122,23c-12.06,12.34-25.24,25.24-27.77,42.63c-2.1-2.8,0.14-6.73-2.52-9.12
		c-1.26-0.98-2.38,1.96-3.37,0.84C21.17,266.61,22.15,264.79,22.71,263.53z M265.6,132.41c47.96-0.98,107.42,1.4,140.38-7.71
		c28.19-7.71,47.96-15.15,69.84-36.04c3.37-3.23,4.49-2.66,2.38,0.84c-13.46,22.3-36.6,38.56-68.58,47.54
		c-35.9,10.1-104.62,6.17-143.88,7.71c-43.89,1.68-76.57,18.37-90.45,47.96l-10.38-4.07C177.39,152.04,218.62,133.39,265.6,132.41z
		 M162.52,327.06c-2.94-3.23-3.09-8.13-1.12-11.92c1.12-2.38,5.05-5.05,6.59-3.37c1.54,1.68,2.24,4.63,3.51,6.31
		c0.98,1.4,2.52,1.54,3.51,3.09s2.1,4.35,3.37,5.47c0.98,0.84,2.38,1.12,3.23,2.24c0.7,0.7,0.84,1.96,1.54,2.52
		c0.7,0.56,1.82,0.7,2.52,1.4c1.26,1.12,2.24,3.79,3.79,4.21c0.84,0.28,2.24-0.7,3.09-0.28c1.4,0.84,2.52,1.96,3.51,3.09
		c1.12,1.26,2.24,2.66,3.37,3.93c0.98,1.12,2.1,2.8,3.37,3.65c0.98,0.56,2.8-0.84,3.51-0.28c0.98,0.84,1.4,2.8,2.52,3.51
		c1.4,0.84,3.37,0,4.07,1.4c0.98,1.68,2.66,5.75,4.21,8.13C195.62,356.5,176.97,343.18,162.52,327.06z M133.07,236.18
		c-42.07,0-76.29,34.08-76.29,76.29c0,42.07,34.08,76.29,76.29,76.29c25.38,0,47.82-12.34,61.7-31.41l10.24,3.65
		c-15.57,23-41.93,38.14-71.94,38.14c-47.82,0-86.67-38.85-86.67-86.67s38.85-86.67,86.67-86.67c12.62,0,26.5,3.23,38.56,8.83v12.06
		C160.42,240.11,147.24,236.18,133.07,236.18z M164.77,280.78c-3.23-3.23-6.87-5.89-10.94-7.99l18.37-15.71
		c0.14,7.99-1.96,17.95-5.47,25.8L164.77,280.78z M133.21,356.79c6.73,0,13.32-1.54,19.21-4.49l1.96,26.79
		c-6.73,2.1-13.74,3.23-21.18,3.23c-1.26,0-2.66,0-3.93-0.14l-4.07-26.22C127.89,356.5,130.55,356.79,133.21,356.79z M124.1,347.81
		l-1.68-10.94c2.8,1.26,5.89,2.1,9.26,2.24L124.1,347.81z M121.29,357.35l3.79,24.54c-7.15-0.84-13.88-2.66-20.19-5.61
		L121.29,357.35z M97.59,338.7c1.26,1.68,2.66,3.51,4.21,5.05c4.77,4.77,10.52,8.27,16.69,10.52l-17.67,20.33
		c-6.87-3.51-12.9-8.27-18.23-13.74L97.59,338.7z M94.65,335.47l-14.86,22.02c-5.05-5.89-9.12-12.76-11.92-20.19L94.65,335.47z
		 M89.32,305.32c-0.28,2.24-0.56,4.63-0.56,6.87c0,6.73,1.54,13.32,4.35,19.21l-26.78,1.82c-2.1-6.59-3.23-13.6-3.23-20.9
		c0-0.7,0-1.4,0-1.96L89.32,305.32z M89.18,300.97l-25.66,4.91c0.7-7.85,2.66-15.43,5.75-22.3L89.18,300.97z M108.11,275.59
		c-7.71,5.33-13.6,12.9-16.83,21.88L71.23,279.8c3.93-7.57,9.26-14.16,15.43-19.77L108.11,275.59z M113.16,272.5
		c-0.42,0.14-0.7,0.42-1.12,0.56l-22.02-15.85c6.87-5.47,14.72-9.54,23.28-12.06L113.16,272.5z M106.71,316.4
		c0,0.28,0.14,0.7,0.14,0.98l-8.98,13.32c-2.94-5.61-4.49-11.92-4.49-18.37c0-2.38,0.28-4.63,0.56-6.87L106.71,316.4z M112.88,294.8
		c-0.56,0.7-1.12,1.26-1.54,1.96l-15.85,3.09c1.96-5.89,5.19-11.22,9.68-15.71c2.1-2.1,4.49-4.07,7.15-5.61l0.84,0.56L112.88,294.8z
		 M106.43,310.51l-7.99-7.01l10.24-1.96C107.41,304.34,106.71,307.42,106.43,310.51z M113.02,330l-10.24,0.7l5.61-8.27
		C109.51,325.23,111.06,327.76,113.02,330z M117.37,333.93l0.42,0.28l2.38,15.57c-5.61-1.96-10.66-5.05-15.01-9.4
		c-1.68-1.68-3.09-3.37-4.49-5.33L117.37,333.93z M124.1,287.09c-2.52,0.84-4.91,2.24-7.01,3.79l0.14-8.69L124.1,287.09z
		 M145.84,288.49c-2.24-1.26-4.77-2.1-7.43-2.66l6.59-5.61L145.84,288.49z M145.13,243.33c9.26,1.54,17.81,4.91,25.38,9.68
		l-20.9,17.81c-0.56-0.14-0.98-0.42-1.54-0.56L145.13,243.33z M142.47,337.57c3.23-1.12,6.17-2.94,8.69-5.19l0.84,11.36
		L142.47,337.57z M133.21,326.63c-7.99,0-14.44-6.45-14.44-14.44c0-7.99,6.45-14.44,14.44-14.44s14.44,6.45,14.44,14.44
		C147.8,320.18,141.21,326.63,133.21,326.63z M137.14,339.12l13.6,8.83c-5.33,2.66-11.22,4.07-17.53,4.07
		c-2.24,0-4.63-0.28-6.87-0.56L137.14,339.12z M117.37,270.68l0.28-26.64c5.05-1.12,10.38-1.82,15.71-1.82
		c2.52,0,5.19,0.14,7.57,0.42l2.8,26.36c-3.37-0.84-6.87-1.26-10.52-1.26C127.6,267.74,122.28,268.72,117.37,270.68z M133.21,272.36
		c3.79,0,7.43,0.56,10.94,1.54l0.14,1.26l-11.92,10.1c-0.98,0-2.1,0.14-3.09,0.28l-12.06-8.55v-1.26
		C122.28,273.63,127.6,272.36,133.21,272.36z M152.85,293.82c-0.7-0.84-1.54-1.54-2.52-2.38l-1.54-14.58l1.12-0.98
		c4.21,1.96,8.13,4.63,11.5,7.99l3.51,3.51l-2.66,5.61L152.85,293.82z M154.67,296.48l6.31-0.14l-2.66,6.17
		C157.47,299.99,156.07,298.45,154.67,296.48z M156.21,344.73l-1.26-16.69c2.24,3.23,5.19,7.71,7.85,9.96
		C160.56,340.94,159.16,342.62,156.21,344.73z M178.37,365.9c-5.89,4.91-12.48,8.98-19.77,11.78l-1.82-25.8L178.37,365.9z
		 M159.16,348.37c1.96-1.4,3.79-2.94,5.61-4.63l2.8-2.52l20.61,14.58c-1.68,2.1-3.65,4.49-6.45,7.15L159.16,348.37z M441.03,155.55
		c21.18-5.19,38.99-16.27,53.01-31.83c0.98-1.4,4.49-5.61,5.19-7.01c0.7-1.4,1.4-1.4,0.84,0.14c-0.56,1.54-3.93,7.15-4.91,8.83
		c-8.83,14.44-22.86,23.42-37.16,30.71c-20.9,10.66-43.47,16.97-66.61,18.23c-41.37,2.38-82.46,0.7-123.83,0.98
		c-15.15,0-29.45,4.77-42.77,13.18c-14.16,8.98-24.26,21.32-30.99,36.18c-5.75,12.48-5.33,26.36-6.45,40.25
		c-1.54,18.37-10.8,34.64-23.98,42.07c5.89-10.8,12.06-23.14,14.02-35.76c1.96-12.76,0-22.72,0.56-33.94
		c1.12-25.94,17.67-48.24,40.25-61c15.99-8.98,32.82-14.58,50.77-15.29c14.16-0.56,28.19,0.7,42.35,1.68
		c17.25,1.12,34.36,1.12,51.47,0.56c2.1,0,4.77,0,6.73,0C393.63,162.7,417.05,161.44,441.03,155.55z M295.47,185.42
		c3.09-1.12,7.29,3.23,10.8,0.14c1.96-1.68,5.89,0.98,8.83,2.38c3.09,1.4,5.19-0.7,7.71-2.24c1.68-1.12,4.21,2.1,7.15,1.4
		c0.98-0.28,0.7-2.38,1.68-2.52c3.37-0.42,6.31,2.8,9.4,1.4c1.12-0.56,2.38-2.38,3.51-3.09c1.54-0.84,3.51,1.26,4.63,0.28
		c3.23-2.94,6.45-1.68,9.4-1.26c0.56,0.14,1.26,2.52,0.42,3.09c-12.48,7.71-24.96,9.82-39.27,11.5c-6.87,0.84-20.61-0.56-29.03-5.33
		C285.93,188.08,292.94,186.4,295.47,185.42z M301.5,250.07c-13.18,3.09-25.66,2.24-38.56-0.84c-2.66-0.7-4.21-3.23-6.31-5.05
		c-0.42-0.42-2.66-0.14-2.8-0.42c-0.84-2.66-1.54-3.65-3.65-5.47c-0.28-0.28-0.56-1.96,0.42-2.1c3.23-0.28,6.45-0.7,9.82-1.12
		c1.68-0.14,1.68-3.09,3.23-3.79c3.37-1.4,7.15-1.54,10.94-1.96c9.68-0.98,19.07-2.52,28.75-1.82c9.68,0.7,18.79,3.93,28.19,6.73
		c1.26,0.42,3.37,1.12,2.24,2.8c-1.26,1.96-4.07,2.1-6.17,3.51c-2.8,1.96-6.87,1.12-9.4,3.65c-3.65,3.37-8.41,3.65-13.04,4.35
		C303.88,248.52,302.9,249.65,301.5,250.07z M248.35,281.06c-4.35-1.12-10.94-2.52-11.92-5.19c0.56,0.14,1.68-1.4,1.82-1.96
		c0.14-2.1-3.93-2.52-5.33-3.79c-0.42-0.28-0.7-2.1,0.42-2.1c2.1,0,6.73,1.82,9.82,0.28c0.84-0.42,0.84-1.68,2.24-2.24
		c1.26-0.56,2.94,0.14,3.79-0.28c0.84-0.42,2.1-0.56,2.66-1.4c0.42-0.56-0.28-2.24,0.42-2.94c1.12-1.12,2.52-0.56,4.21-1.54
		c0.98-0.7,1.96-2.38,2.8-2.8c1.54-0.84,3.65-0.98,5.47-1.12c5.05-0.42,10.1-0.14,15.29,0.56c4.35,0.56,8.55,0.98,12.9,2.24
		c7.01,2.1,14.02,3.51,20.19,7.43c-3.79,5.19-10.1,5.47-15.29,8.13c-4.21,2.24-8.69,2.38-13.04,3.79
		C272.75,281.34,260.41,284,248.35,281.06z M189.17,296.2c1.82,0.28,3.37-0.7,4.91-0.42c2.1,0.56,2.94,0.7,4.49,1.54
		c0.98-0.7,2.52-0.84,3.09-0.98c2.8-0.84,6.17,0.84,9.12,0.7c1.4-0.14,1.4-3.23,2.52-3.79c4.21-1.82,9.54,0.84,14.02-0.28
		c0.56-0.14,0.14-2.38,2.1-3.79c0.84-0.56,4.21-0.7,5.33-1.12c0.14-0.42,0.28-1.4,1.26-1.96c3.37-1.68,7.99,1.12,12.76,1.82
		c3.23,0.56,6.59,1.68,9.82,2.8c2.52,0.84,6.31,3.23,5.61,4.07c-13.18,13.46-33.8,15.01-52.03,13.74
		c-10.66-0.84-22.3-0.84-30.99-7.99c-1.96-1.54,0.56-4.91,2.8-6.17C185.52,293.54,187.49,295.78,189.17,296.2z M213.85,272.64
		c5.19,2.38,10.66,4.49,14.72,8.55c-8.98,5.47-19.07,7.15-29.45,8.83c-3.79,0.56-7.71,1.26-11.64-0.28
		c2.24-7.99,5.19-15.57,7.99-23.28C201.93,267.6,207.82,269.84,213.85,272.64z M231.1,200c2.94-0.98,6.73-1.82,6.17-5.89
		c-0.14-0.98,1.4-1.54,2.24-1.54c2.24-0.28,4.49-0.42,6.73-0.98c1.82-0.42,2.52-2.38,3.93-3.37c4.77-3.51,10.8,0,15.57-2.1
		c2.1-0.98,4.35-1.4,6.17-0.28c4.63,2.8,11.64,3.79,13.04,9.54c-16.83,9.82-36.6,12.48-55.81,12.2
		C229.14,204.91,228.15,201.12,231.1,200z M240.77,214.17c6.17,1.26,10.94,4.49,16.41,6.73c2.1,0.84,6.73,3.23,4.63,4.49
		c-17.39,9.96-37.58,11.22-57.22,11.08c0.14-2.94,1.68-5.05,2.38-7.85c0.84-3.51,6.31-4.49,6.31-9.4c0-2.66,5.33-2.24,7.01-4.49
		c0.7-0.98,1.4-2.38,2.24-2.52C228.57,211.22,234.6,212.9,240.77,214.17z M199.83,248.24c1.26-1.82,2.1-4.49,3.23-5.05
		c7.85-4.49,18.37-2.52,27.21,0c7.71,2.1,15.71,3.93,21.32,9.96c0.28,0.28,0.28,1.54,0,1.54c-17.11,7.85-35.9,11.08-54.41,9.12
		c-0.56,0,0.14-3.93-0.14-6.59c-0.28-1.82,1.54-2.8,2.8-4.49C200.81,251.89,198.98,249.65,199.83,248.24z M351.14,214.45
		c-25.24,9.82-52.45,9.82-79.09,8.27c-1.12,0-1.4-2.1-2.1-3.23c-0.98-1.4-3.23-1.68-4.35-2.52c-0.98-0.7-0.84-1.96-1.82-2.66
		c-0.98-0.84-3.51-0.56-5.05-1.26c-0.56-0.28-1.26-2.1-0.56-2.52c3.37-1.96,8.41,1.4,10.52-1.26c3.51-4.49,7.99-1.12,12.06-2.66
		c1.26-0.42,0.98-2.1,1.54-2.8c3.51-4.21,9.96-4.77,15.43-4.91c4.63-0.14,9.96,0,14.02,0.56c11.08,1.68,21.04,3.51,30.85,8.13
		c2.8,1.26,5.89,1.96,8.27,4.35C351.56,212.76,350.72,213.6,351.14,214.45z M503.02,118.95c-0.7,2.66-1.54,5.19-2.52,8.13
		c-7.57,21.32-23.84,34.92-41.65,47.82c-16.69,12.2-33.38,19.77-53.15,24.4c-15.01,3.51-29.45,6.59-44.59,5.47
		c-3.51-0.28-6.17-2.52-9.4-4.21c-1.4-0.7-3.79-0.42-5.19-1.26c-1.54-0.84-0.84-2.94,1.12-3.23c2.24-0.42,4.77,0.56,6.59-0.42
		c4.35-2.52,9.26-1.54,13.6-2.94c2.52-0.84,0-4.49,1.96-5.05c2.52-0.84,5.19-1.12,7.85-1.82c1.26-0.28,1.4-3.37,2.1-3.51
		c3.51-0.98,9.68,0.42,14.44,0.42c1.54,0,0.42-2.8,2.38-2.8c6.03,0,5.47,0.7,9.54-1.96c3.65-2.52,12.62,0.98,12.48-4.63
		c7.57-1.26,15.57,0.98,22.44-4.07c1.12-0.84,3.09,0,4.63-0.98c0.84-0.56,0.84-1.96,1.96-2.24c2.8-0.84,5.89-0.84,8.55-2.1
		c1.54-0.7,1.26-3.37,2.1-3.79c16.55-7.43,30.15-17.53,39.69-33.24c1.82-3.09,3.93-7.29,4.49-8.69
		C502.59,117.12,503.44,117.26,503.02,118.95z M481.7,185.84c-6.73-0.56-13.46,0.14-20.19-0.42c-1.12-0.14-0.84-1.82-0.42-2.1
		c26.64-21.32,46.56-49.78,46.98-83.58c0-0.42-0.7-0.98-0.98-0.56c-18.51,24.4-40.39,46.7-71.24,50.48
		c-1.4,0.14-1.54-2.38-0.42-3.09c28.05-18.23,48.66-42.77,55.53-75.59c0.14-0.42-0.7-0.84-0.98-0.56
		c-20.05,21.04-44.17,35.76-71.94,43.75c-49.92,14.58-100.83,9.68-151.31,9.82c-20.05,0-40.25,1.82-58.62,10.38
		c-22.86,10.66-42.35,27.91-52.87,51.05l-0.28,0.56c-7.15-1.26-14.44-1.82-21.88-1.82c-70.96,0-128.6,57.5-128.6,128.6
		c0,70.96,57.64,128.6,128.6,128.6c54.41,0,100.97-33.8,119.76-81.76h1.82c6.31,0.28,13.32,0.42,19.49-1.96
		c0.7-0.28,2.94-1.68,2.1-3.37c-0.98-1.96-4.07-5.75-5.05-8.41c-0.28-0.56-0.42-1.68,0.56-1.68c15.57-0.14,32.39,0.84,46.7-4.77
		c-3.65-6.03-11.92-10.38-16.55-16.27c-0.98-1.4,0.98-2.1,1.68-2.1c21.74-0.14,42.07-0.14,61.28-9.82c0.7-0.42,0.7-1.12,0.28-1.54
		c-4.21-4.49-9.54-8.55-14.44-12.06c24.26-4.91,51.05-16.97,58.62-23.84c0.84-0.7,0.28-1.4-0.14-1.96c-2.1-2.38-7.43-6.03-8.55-7.15
		c-0.28-0.28-0.28-1.54,0-1.54c21.6-8.27,42.91-17.67,58.34-36.04c0.7-0.84-0.28-1.96-1.12-2.24c-6.31-1.26-12.2-1.54-18.37-1.4
		c0-0.84-0.28-1.96,0.14-2.24c16.13-9.4,30.43-19.21,42.63-33.52C482.54,187.52,482.68,185.84,481.7,185.84z"/>
	<path id="XMLID_57_" class="st1" d="M482.12,187.94c-12.2,14.16-26.5,24.12-42.63,33.52c-0.42,0.28-0.14,1.4-0.14,2.24
		c6.17-0.14,12.06,0.14,18.37,1.4c0.84,0.14,1.82,1.26,1.12,2.24c-15.57,18.37-36.88,27.77-58.34,36.04c-0.14,0.14-0.28,1.26,0,1.54
		c0.98,0.98,6.45,4.63,8.55,7.15c0.42,0.42,0.98,1.26,0.14,1.96c-7.71,6.87-34.36,19.07-58.62,23.84
		c4.91,3.51,10.1,7.71,14.44,12.06c0.42,0.42,0.42,1.26-0.28,1.54c-19.21,9.82-39.55,9.82-61.28,9.82c-0.7,0-2.66,0.7-1.68,2.1
		c4.63,5.89,12.9,10.38,16.55,16.27c-14.3,5.61-31.13,4.63-46.7,4.77c-0.84,0-0.7,1.12-0.56,1.68c0.98,2.52,4.07,6.45,5.05,8.41
		c0.84,1.54-1.4,2.94-2.1,3.37c-6.17,2.52-13.18,2.24-19.49,1.96h-1.82c-18.79,47.82-65.35,81.76-119.76,81.76
		c-70.96,0-128.6-57.64-128.6-128.6s57.64-128.6,128.6-128.6c7.43,0,14.72,0.56,21.88,1.82l0.28-0.56
		c10.52-23.14,30.15-40.39,52.87-51.05c18.51-8.69,38.56-10.38,58.62-10.38c50.63-0.14,101.39,4.77,151.31-9.82
		c27.63-8.13,51.75-22.86,71.94-43.75c0.42-0.42,1.12,0.14,0.98,0.56c-6.87,32.96-27.35,57.36-55.53,75.59
		c-1.12,0.7-0.98,3.23,0.42,3.09c30.85-3.79,52.73-26.08,71.24-50.48c0.28-0.42,0.98,0.14,0.98,0.56
		c-0.28,33.8-20.19,62.26-46.98,83.58c-0.28,0.28-0.56,1.96,0.42,2.1c6.73,0.56,13.46-0.14,20.19,0.42
		C482.68,185.84,482.54,187.52,482.12,187.94 M481.98,181.77c-3.51-0.28-7.01-0.28-10.52-0.14c-0.7,0-1.4,0-2.1,0
		c20.47-17.81,42.21-45.3,42.49-81.76c0-1.96-1.4-3.79-3.37-4.49c-1.82-0.56-3.79,0-5.05,1.54c-14.44,19.07-32.11,38.71-56.37,46.28
		c25.66-19.35,41.51-43.33,47.4-71.24c0.42-1.96-0.56-3.93-2.52-5.05c-1.82-0.98-4.07-0.56-5.47,0.84
		c-19.63,20.47-43.19,34.92-70.12,42.77c-38.99,11.36-79.51,10.66-118.64,9.96c-10.38-0.14-21.04-0.42-31.55-0.28
		c-18.51,0-40.25,1.4-60.3,10.8c-24.4,11.36-43.33,29.45-53.85,50.91c-6.45-0.98-13.04-1.4-19.49-1.4
		c-73.2,0-132.66,59.46-132.66,132.66s59.46,132.66,132.66,132.66c27.21,0,53.29-8.13,75.59-23.7
		c21.04-14.58,37.16-34.64,46.84-58.06c6.03,0.28,13.32,0.42,20.05-2.38c0.42-0.14,3.37-1.4,4.49-4.35
		c0.56-1.54,0.42-3.09-0.28-4.49c-0.42-0.98-1.26-1.96-2.1-3.23c-0.14-0.28-0.42-0.56-0.56-0.84c0.84,0,1.4,0,1.4,0
		c14.02,0,28.33,0.14,41.37-5.05c1.12-0.42,1.96-1.4,2.38-2.52c0.42-1.12,0.28-2.38-0.42-3.37c-2.38-3.79-6.03-6.87-9.54-9.82
		c-0.98-0.84-1.96-1.54-2.8-2.38c19.91-0.14,38.99-0.98,57.22-10.24c1.4-0.7,2.52-2.1,2.66-3.65c0.28-1.54-0.28-3.23-1.26-4.35
		c-2.24-2.38-4.91-4.77-7.99-7.29c21.88-5.61,44.45-15.99,52.03-22.86c1.82-1.68,2.66-4.63,0.28-7.57c-1.12-1.4-3.09-2.94-4.91-4.35
		c19.63-7.85,39.69-17.39,54.69-35.2c1.12-1.4,1.54-3.23,0.84-5.05c-0.7-1.82-2.38-3.37-4.35-3.79c-2.8-0.56-5.61-0.84-8.55-1.12
		c12.2-7.57,24.4-16.55,35.34-29.31c1.26-1.54,1.68-3.93,0.84-5.89C485.35,183.03,483.8,181.91,481.98,181.77z"/>
	<path id="XMLID_58_" class="st1" d="M458,160.32c-0.84,0.42-0.56,3.09-2.1,3.79c-2.66,1.26-5.61,1.26-8.55,2.1
		c-1.12,0.28-0.98,1.68-1.96,2.24c-1.54,0.98-3.51,0.14-4.63,0.98c-6.73,5.05-14.86,2.8-22.44,4.07c0.14,5.75-8.83,2.24-12.48,4.63
		c-4.07,2.66-3.51,1.96-9.54,1.96c-1.82,0-0.84,2.8-2.38,2.8c-4.77,0.14-10.94-1.4-14.44-0.42c-0.56,0.14-0.84,3.23-2.1,3.51
		c-2.66,0.7-5.33,0.98-7.85,1.82c-1.96,0.56,0.56,4.21-1.96,5.05c-4.35,1.4-9.26,0.42-13.6,2.94c-1.68,0.98-4.21,0-6.59,0.42
		c-1.96,0.28-2.66,2.38-1.12,3.23c1.4,0.84,3.79,0.56,5.19,1.26c3.23,1.54,5.89,3.93,9.4,4.21c15.15,1.12,29.59-2.1,44.59-5.47
		c19.77-4.63,36.6-12.2,53.15-24.4c17.81-12.9,34.22-26.64,41.65-47.82c0.98-2.94,1.82-5.47,2.52-8.13
		c0.42-1.68-0.42-1.82-0.84-0.56c-0.56,1.4-2.66,5.61-4.49,8.69C488.01,142.79,474.41,152.88,458,160.32"/>
	<path id="XMLID_59_" class="st1" d="M350.58,211.92c-2.38-2.38-5.61-3.09-8.27-4.35c-9.82-4.77-19.63-6.45-30.85-8.13
		c-4.07-0.56-9.4-0.7-14.02-0.56c-5.61,0.14-11.92,0.7-15.43,4.91c-0.56,0.7-0.28,2.24-1.54,2.8c-4.07,1.54-8.55-1.82-12.06,2.66
		c-2.1,2.66-7.15-0.56-10.52,1.26c-0.7,0.42,0,2.38,0.56,2.52c1.54,0.7,4.07,0.42,5.05,1.26c0.98,0.84,0.98,1.96,1.82,2.66
		c1.12,0.84,3.37,1.26,4.35,2.52c0.7,0.98,0.98,3.09,2.1,3.23c26.64,1.54,53.85,1.54,79.09-8.27
		C350.72,213.6,351.56,212.76,350.58,211.92"/>
	<path id="XMLID_60_" class="st1" d="M197.16,257.36c0.28,2.52-0.28,6.45,0.14,6.59c18.51,1.96,37.3-1.26,54.41-9.12
		c0.28-0.14,0.28-1.26,0-1.54c-5.61-6.03-13.6-7.85-21.32-9.96c-8.98-2.52-19.35-4.49-27.21,0c-1.12,0.56-1.96,3.23-3.23,5.05
		c-0.98,1.4,0.84,3.65,0.14,4.49C198.56,254.41,196.88,255.54,197.16,257.36"/>
	<path id="XMLID_61_" class="st1" d="M284.95,195.51c-1.4-5.75-8.27-6.73-13.04-9.54c-1.82-1.12-4.07-0.56-6.17,0.28
		c-4.63,1.96-10.66-1.4-15.57,2.1c-1.4,0.98-2.1,2.8-3.93,3.37c-2.24,0.56-4.49,0.7-6.73,0.98c-0.84,0.14-2.38,0.7-2.24,1.54
		c0.42,4.07-3.23,4.91-6.17,5.89c-2.94,0.98-1.82,4.77-1.96,7.71C248.21,208,268.12,205.19,284.95,195.51"/>
	<path id="XMLID_62_" class="st1" d="M222.4,212.2c-0.84,0.14-1.54,1.54-2.24,2.52c-1.68,2.38-7.01,1.82-7.01,4.49
		c0.14,4.91-5.47,5.75-6.31,9.4c-0.7,2.8-2.1,4.91-2.38,7.85c19.63,0.14,39.83-1.12,57.22-11.08c2.1-1.26-2.52-3.65-4.63-4.49
		c-5.47-2.1-10.24-5.33-16.41-6.73C234.6,212.9,228.57,211.22,222.4,212.2"/>
	<path id="XMLID_63_" class="st1" d="M187.49,289.89c3.79,1.54,7.85,0.84,11.64,0.28c10.38-1.68,20.47-3.37,29.45-8.83
		c-4.07-4.07-9.54-6.17-14.72-8.55c-5.89-2.8-11.92-5.05-18.37-6.17C192.53,274.33,189.59,281.9,187.49,289.89"/>
	<path id="XMLID_64_" class="st1" d="M183.84,294.38c-2.38,1.26-4.91,4.49-2.8,6.17c8.69,7.01,20.33,7.15,30.99,7.99
		c18.23,1.26,38.85-0.28,52.03-13.74c0.84-0.84-2.94-3.23-5.61-4.07c-3.23-1.12-6.45-2.24-9.82-2.8c-4.63-0.7-9.4-3.51-12.76-1.82
		c-0.98,0.56-1.12,1.54-1.26,1.96c-1.12,0.42-4.49,0.42-5.33,1.12c-1.96,1.4-1.54,3.65-2.1,3.79c-4.35,1.12-9.82-1.68-14.02,0.28
		c-1.12,0.56-0.98,3.65-2.52,3.79c-2.94,0.28-6.31-1.54-9.12-0.7c-0.56,0.14-2.1,0.42-3.09,0.98c-1.54-0.84-2.38-0.98-4.49-1.54
		c-1.54-0.42-2.94,0.7-4.91,0.42C187.49,295.78,185.52,293.54,183.84,294.38"/>
	<path id="XMLID_65_" class="st1" d="M297.85,274.05c5.19-2.66,11.5-2.94,15.29-8.13c-6.31-3.79-13.18-5.33-20.19-7.43
		c-4.35-1.26-8.55-1.68-12.9-2.24c-5.19-0.7-10.24-0.84-15.29-0.56c-1.82,0.14-3.79,0.28-5.47,1.12c-0.84,0.42-1.82,2.24-2.8,2.8
		c-1.68,0.98-3.09,0.56-4.21,1.54c-0.7,0.56,0,2.38-0.42,2.94c-0.56,0.84-1.82,0.98-2.66,1.4c-0.84,0.42-2.52-0.28-3.79,0.28
		c-1.26,0.56-1.26,1.82-2.24,2.24c-3.09,1.54-7.71-0.28-9.82-0.28c-1.12,0-0.84,1.82-0.42,2.1c1.4,1.4,5.47,1.82,5.33,3.79
		c0,0.42-1.12,2.1-1.82,1.96c0.98,2.66,7.57,4.07,11.92,5.19c12.06,3.09,24.4,0.42,36.46-3.23
		C289.16,276.43,293.64,276.29,297.85,274.05"/>
	<path id="XMLID_66_" class="st1" d="M327.58,240.53c2.1-1.4,4.91-1.4,6.17-3.51c0.98-1.68-1.12-2.38-2.24-2.8
		c-9.4-2.8-18.37-6.03-28.19-6.73c-9.68-0.7-19.07,0.84-28.75,1.82c-3.79,0.42-7.57,0.56-10.94,1.96c-1.4,0.56-1.54,3.51-3.23,3.79
		c-3.23,0.42-6.45,0.84-9.82,1.12c-1.12,0.14-0.84,1.82-0.42,2.1c2.1,1.68,2.8,2.8,3.65,5.47c0.14,0.28,2.24,0,2.8,0.42
		c2.1,1.82,3.65,4.49,6.31,5.05c12.9,3.09,25.38,3.93,38.56,0.84c1.4-0.28,2.38-1.54,3.65-1.68c4.63-0.56,9.4-0.84,13.04-4.35
		C320.71,241.65,324.78,242.35,327.58,240.53"/>
	<path id="XMLID_67_" class="st1" d="M319.73,196.22c14.3-1.54,26.64-3.65,39.27-11.5c0.7-0.42,0.14-2.94-0.42-3.09
		c-2.94-0.42-6.17-1.68-9.4,1.26c-1.12,0.98-3.09-1.12-4.63-0.28c-1.26,0.7-2.38,2.66-3.51,3.09c-3.09,1.4-6.03-1.82-9.4-1.4
		c-0.98,0.14-0.7,2.38-1.68,2.52c-2.94,0.7-5.47-2.52-7.15-1.4c-2.52,1.68-4.63,3.65-7.71,2.24c-2.94-1.26-6.73-4.07-8.83-2.38
		c-3.51,3.09-7.71-1.4-10.8-0.14c-2.52,0.98-9.54,2.66-4.77,5.33C299.11,195.65,312.72,196.92,319.73,196.22"/>
	<path id="XMLID_68_" class="st1" d="M362.78,163.54c-17.11,0.42-34.22,0.56-51.47-0.56c-14.16-0.98-28.19-2.1-42.35-1.68
		c-17.95,0.7-34.78,6.31-50.77,15.29c-22.58,12.76-38.99,35.06-40.25,61c-0.56,11.22,1.54,21.32-0.56,33.94
		c-1.96,12.62-8.13,24.96-14.02,35.76c13.32-7.43,22.44-23.7,23.98-42.07c1.12-13.88,0.7-27.77,6.45-40.25
		c6.73-14.72,16.83-27.21,30.99-36.18c13.46-8.41,27.63-13.18,42.77-13.18c41.37-0.14,82.46,1.4,123.83-0.98
		c23.14-1.26,45.72-7.57,66.61-18.23c14.3-7.29,28.33-16.27,37.16-30.71c0.84-1.68,4.35-7.29,4.91-8.83
		c0.56-1.54-0.14-1.54-0.84-0.14c-0.7,1.4-4.21,5.61-5.19,7.01c-14.16,15.57-31.83,26.64-53.01,31.83
		c-23.98,5.89-47.54,7.15-71.52,7.99C367.41,163.68,364.74,163.54,362.78,163.54"/>
	<path id="XMLID_69_" class="st1" d="M188.19,355.8l-20.61-14.58l-2.8,2.52c-1.68,1.68-3.65,3.23-5.61,4.63l22.44,14.58
		C184.4,360.29,186.36,357.91,188.19,355.8"/>
	<path id="XMLID_70_" class="st1" d="M158.6,377.68c7.29-2.8,14.02-6.87,19.77-11.78l-21.74-14.02L158.6,377.68"/>
	<path id="XMLID_71_" class="st1" d="M155.09,328.18l1.26,16.69c2.94-2.1,4.35-3.79,6.73-6.59
		C160.14,335.75,157.33,331.26,155.09,328.18"/>
	<path id="XMLID_72_" class="st1" d="M154.67,296.48c1.4,2.1,2.8,3.51,3.65,6.03l2.66-6.17L154.67,296.48"/>
	<path id="XMLID_73_" class="st1" d="M164.91,287.51L161.4,284c-3.37-3.37-7.29-6.03-11.5-7.99l-1.12,0.98l1.54,14.58
		c0.84,0.7,1.68,1.54,2.52,2.38l9.4-0.7L164.91,287.51"/>
	<path id="XMLID_74_" class="st1" d="M117.23,276.99l12.2,8.83c0.98-0.14,2.1-0.28,3.09-0.28l11.92-10.1l-0.14-1.26
		c-3.51-0.98-7.15-1.54-10.94-1.54c-5.61,0-11.08,1.12-15.99,3.37v0.98"/>
	<path id="XMLID_75_" class="st1" d="M143.73,269l-2.8-26.36c-2.52-0.28-5.05-0.42-7.57-0.42c-5.33,0-10.66,0.7-15.71,1.82
		l-0.28,26.64c4.91-1.96,10.38-2.94,15.99-2.94C136.86,267.74,140.37,268.16,143.73,269"/>
	<path id="XMLID_76_" class="st1" d="M133.21,352.02c6.31,0,12.2-1.54,17.53-4.07l-13.6-8.83l-10.66,12.34
		C128.73,351.88,130.97,352.02,133.21,352.02"/>
	<path id="XMLID_77_" class="st1" d="M147.8,312.19c0-7.99-6.45-14.44-14.44-14.44s-14.44,6.45-14.44,14.44
		c0,7.99,6.45,14.44,14.44,14.44C141.21,326.63,147.8,320.18,147.8,312.19"/>
	<path id="XMLID_78_" class="st1" d="M151.16,332.38c-2.52,2.24-5.47,3.93-8.69,5.19l9.54,6.17L151.16,332.38"/>
	<path id="XMLID_79_" class="st1" d="M170.52,253.01c-7.57-4.77-16.27-8.13-25.38-9.68l2.94,27.07c0.56,0.14,0.98,0.28,1.54,0.56
		L170.52,253.01"/>
	<path id="XMLID_80_" class="st1" d="M138.4,285.83c2.66,0.56,5.19,1.4,7.43,2.66l-0.84-8.27L138.4,285.83"/>
	<path id="XMLID_81_" class="st1" d="M117.09,290.73c2.1-1.54,4.49-2.8,7.01-3.79l-6.87-5.05L117.09,290.73"/>
	<path id="XMLID_82_" class="st1" d="M105.17,340.38c4.35,4.35,9.4,7.43,15.01,9.4l-2.38-15.57l-0.42-0.28l-16.69,1.12
		C101.94,337.01,103.48,338.7,105.17,340.38"/>
	<path id="XMLID_83_" class="st1" d="M113.02,330c-1.96-2.24-3.51-4.77-4.63-7.57l-5.61,8.27L113.02,330"/>
	<path id="XMLID_84_" class="st1" d="M106.43,310.51c0.28-3.23,0.98-6.17,2.24-8.98l-10.24,1.96L106.43,310.51"/>
	<path id="XMLID_85_" class="st1" d="M105.17,284c-4.49,4.49-7.71,9.96-9.68,15.71l15.85-3.09c0.56-0.7,0.98-1.4,1.54-1.96
		l0.14-15.71l-0.84-0.56C109.65,280.08,107.27,281.9,105.17,284"/>
	<path id="XMLID_86_" class="st1" d="M93.39,312.19c0,6.45,1.54,12.76,4.49,18.37l8.98-13.32c0-0.28-0.14-0.56-0.14-0.98
		l-12.62-11.08C93.67,307.56,93.39,309.95,93.39,312.19"/>
	<path id="XMLID_87_" class="st1" d="M112.04,273.06c0.42-0.14,0.7-0.42,1.12-0.56l0.28-27.49c-8.55,2.52-16.41,6.73-23.28,12.06
		L112.04,273.06"/>
	<path id="XMLID_88_" class="st1" d="M71.23,279.8l20.19,17.53c3.23-8.98,9.12-16.55,16.83-21.88L86.8,259.88
		C80.35,265.63,75.16,272.22,71.23,279.8"/>
	<path id="XMLID_89_" class="st1" d="M63.52,306.02l25.66-4.91l-19.91-17.39C66.18,290.59,64.22,298.17,63.52,306.02"/>
	<path id="XMLID_90_" class="st1" d="M63.24,312.33c0,7.29,1.12,14.3,3.23,20.9l26.79-1.82c-2.8-5.89-4.35-12.48-4.35-19.21
		c0-2.38,0.14-4.63,0.56-6.87l-26.08,5.05C63.24,310.93,63.24,311.63,63.24,312.33"/>
	<path id="XMLID_91_" class="st1" d="M94.65,335.47l-26.78,1.82c2.8,7.43,6.87,14.16,11.92,20.19L94.65,335.47"/>
	<path id="XMLID_92_" class="st1" d="M118.49,354.12c-6.17-2.24-11.92-5.75-16.69-10.52c-1.54-1.54-2.94-3.23-4.21-5.05
		l-14.86,22.02c5.33,5.47,11.36,10.1,18.23,13.74L118.49,354.12"/>
	<path id="XMLID_93_" class="st1" d="M121.29,357.35l-16.41,18.93c6.31,2.8,13.04,4.63,20.19,5.61L121.29,357.35"/>
	<path id="XMLID_94_" class="st1" d="M122.42,336.87l1.68,10.94l7.57-8.69C128.31,338.98,125.22,338.13,122.42,336.87"/>
	<path id="XMLID_95_" class="st1" d="M133.21,382.31c7.43,0,14.58-1.12,21.18-3.23l-1.96-26.79c-5.89,2.8-12.48,4.49-19.21,4.49
		c-2.66,0-5.33-0.28-7.99-0.7l4.07,26.22C130.69,382.31,131.95,382.31,133.21,382.31"/>
	<path id="XMLID_96_" class="st1" d="M172.2,257.08l-18.37,15.71c3.93,2.1,7.71,4.77,10.94,7.99l2.1,1.96
		C170.24,274.89,172.34,265.07,172.2,257.08"/>
	<path id="XMLID_97_" class="st1" d="M133.07,225.81c-47.82,0-86.67,38.85-86.67,86.67c0,47.82,38.85,86.67,86.67,86.67
		c29.87,0,56.23-15.15,71.94-38.14l-10.24-3.65c-13.88,19.07-36.32,31.41-61.7,31.41c-42.07,0-76.29-34.08-76.29-76.29
		c0-42.07,34.08-76.29,76.29-76.29c14.02,0,27.21,3.79,38.56,10.38V234.5C159.58,229.03,145.84,225.81,133.07,225.81"/>
	<path id="XMLID_98_" class="st1" d="M212.87,352.02c-0.7-1.4-2.8-0.7-4.07-1.4c-0.98-0.56-1.54-2.66-2.52-3.51
		c-0.7-0.56-2.52,0.84-3.51,0.28c-1.26-0.84-2.38-2.52-3.37-3.65c-1.12-1.26-2.24-2.66-3.37-3.93c-1.12-1.26-2.24-2.24-3.51-3.09
		c-0.7-0.42-2.1,0.56-3.09,0.28c-1.54-0.42-2.52-3.09-3.79-4.21c-0.7-0.7-1.96-0.7-2.52-1.4c-0.7-0.7-0.84-1.82-1.54-2.52
		c-0.84-0.98-2.24-1.4-3.23-2.24c-1.4-1.12-2.38-3.93-3.37-5.47s-2.52-1.68-3.51-3.09c-1.26-1.68-1.96-4.49-3.51-6.31
		c-1.54-1.68-5.33,0.98-6.59,3.37c-1.96,3.79-1.82,8.69,1.12,11.92c14.44,16.13,33.1,29.45,54.55,32.96
		C215.53,357.77,213.85,353.7,212.87,352.02"/>
	<path id="XMLID_99_" class="st1" d="M265.6,144.61c39.41-1.54,107.98,2.38,143.88-7.71c31.97-8.98,55.11-25.24,68.58-47.54
		c2.1-3.51,0.98-4.07-2.38-0.84c-21.74,20.9-41.65,28.33-69.84,36.04c-32.96,8.98-92.27,6.59-140.38,7.71
		c-46.98,0.98-88.21,19.63-100.69,56.23l10.24,4.07C189.03,163.12,221.7,146.43,265.6,144.61"/>
	<path id="XMLID_100_" class="st1" d="M25.51,266.75c2.8,2.24,0.56,6.31,2.52,9.12c2.52-17.39,15.85-30.29,27.77-42.63
		c31.55-32.39,80.35-38.85,122-23c0.7,0.28,3.79-6.17,2.8-6.59c-24.68-10.8-48.1-12.06-73.48-6.45
		c-21.04,4.63-38.71,14.16-54.55,28.61c-12.34,11.22-22.3,23.42-29.87,38c-0.56,1.12-1.54,2.94-0.56,4.07
		C23.13,268.72,24.25,265.77,25.51,266.75"/>
	<path id="XMLID_101_" class="st1" d="M229.7,365.62c0.14,0.14-1.26,0.56-1.82,0.7c-2.38,0.28-4.91,0.28-7.29,0
		c-4.49-0.56-9.12-2.1-12.9-2.94c-25.94,39.13-81.2,53.01-122.57,26.93c-14.86-9.4-26.36-21.46-33.66-36.74
		c-4.07-8.69-6.31-17.39-8.55-26.93c-1.4-6.45-0.28-12.62-1.4-18.93c-2.66,3.51-0.98,8.83-5.61,10.94c-1.26,0.56-2.8,0.42-3.65-1.12
		c-0.84-1.4-0.42-3.65-1.96-4.07c-2.38-0.56-2.52,3.09-5.47,2.38c-0.28-0.14-0.7,0.84-1.26,0.98c-1.54,0.56-2.94-2.24-4.07-0.98
		c-0.84,0.98-1.4,1.96-2.66,1.54c-1.12-0.42-1.96-2.38-1.96-2.38c-0.84,56.37,44.17,107.56,100.69,115.97
		c8.13,1.26,16.27,1.82,24.4,0.98c17.67-1.68,33.94-6.31,49.5-15.43c24.54-14.3,41.65-36.46,54.13-61.14
		c-9.4-3.23-18.65-6.31-26.36-9.26C218.06,354.26,225.91,360.43,229.7,365.62"/>
	<path id="XMLID_102_" class="st1" d="M260.27,346.55c-2.24-0.56-4.07-1.82-6.03-2.66c-1.26-0.56-2.38,1.4-3.79,0.56
		c-2.66-1.68-5.05-3.93-7.15-5.61c-1.68-1.4-5.05-4.77-6.59-4.07c-0.56,0.28-1.4,3.37-2.8,2.38c-3.37-2.52-5.47-5.19-8.69-7.99
		c-1.4-1.26-2.8,2.94-4.63,1.96c-4.21-2.1-5.89-6.59-9.12-9.82c-3.79-3.79-7.29-8.13-12.48-9.4c-0.84-0.28-0.42,0.98-1.26,1.68
		c-3.93,3.09-8.27-2.24-12.06-3.93c-3.51-1.68-6.59-4.21-10.52-4.49c-0.84,0-0.84,1.26-0.42,1.54
		c22.58,26.64,53.85,46.7,88.07,45.86c0.84,0,2.38,0,1.12-1.54C262.79,349.91,261.67,346.97,260.27,346.55"/>
	<path id="XMLID_103_" class="st1" d="M292.24,327.2c-0.98-0.14-2.52,1.26-3.37,0.98c-2.66-0.42-4.77-2.94-7.99-4.63
		c-1.4-0.7-1.96,2.52-3.09,2.38c-5.33-0.28-13.04-6.03-17.81-8.83c-0.84-0.56-6.03,0.56-6.87,0.7c-3.09,0.56-7.01-4.77-9.4-5.89
		c-1.82-0.84-4.35-1.82-6.17-0.42c-2.38,1.68-5.19,0.84-7.71,0.84c-0.98,0-1.96,2.1-3.09,2.52c-3.51,1.12-7.43-1.26-10.94,0.42
		c-0.14,0-0.56,0.84-0.56,0.98c0.28,2.24,2.66,2.52,4.21,3.51c5.89,3.65,12.06,6.03,18.37,8.55c9.4,3.79,19.07,6.73,29.31,7.57
		c11.5,0.98,27.07,2.66,36.6-0.14c0.42-0.14-0.28-1.96-1.68-3.09c-1.54-1.12-3.65-1.54-4.63-2.24
		C295.33,328.88,294.2,327.48,292.24,327.2"/>
	<path id="XMLID_104_" class="st1" d="M342.02,304.34c-2.66,0.7-4.63-1.12-6.87-0.28c-0.56,0.14-0.84,0.98-1.26,0.98
		c-4.07,0-6.87-4.35-10.94-4.07c-0.98,0.14-0.98,1.96-1.96,2.1c-2.52,0.56-4.91-2.52-7.15-1.4c-1.68,0.84-2.8,0.7-4.35,0.28
		c-2.1-0.56-3.65-2.38-5.61-2.8c-1.68-0.28-3.51,1.4-5.47,0.84c-4.91-1.4-8.69-6.17-14.02-5.05c-2.66,0.56-4.91-1.26-6.73-0.14
		c-1.96,1.12-2.52,2.66-4.49,3.79c-1.4,0.84-4.49,0.7-6.03,1.54c-1.12,0.7-1.4,2.38-2.52,2.8c-2.24,0.98-5.05,0.28-7.15,1.54
		c-0.28,0.14-0.42,1.4,0.56,1.54c15.43,4.21,30.15,8.98,46,8.83c15.43,0,30.71,0,46-4.63c1.26-0.42,1.4-1.12,0.42-2.24
		C348.2,305.88,345.25,303.36,342.02,304.34"/>
	<path id="XMLID_106_" class="st1" d="M388.72,270.12c-3.51,1.54-7.43-0.14-11.22,0.7c-0.98,0.28-0.28,1.68-1.26,1.82
		c-3.79,0.56-7.57-0.42-11.08,0.98c-2.8,1.12-6.03-0.14-9.12-0.14c-1.12,0-1.12,1.54-1.4,2.8c-0.14,1.12-1.82,1.68-2.24,1.54
		c-3.79-1.12-7.29-1.54-11.08-2.1c-9.54-1.4-18.93-4.49-27.91-1.82c-2.94,0.84-6.73,1.54-8.98,3.93c-0.84,0.84-1.82,2.66-2.94,3.09
		c-5.47,1.96-11.5,2.38-16.97,4.35c-1.68,0.56-4.77,2.94-3.65,3.23c22.86,5.89,45.3,6.45,69.14,1.96
		c17.39-3.23,33.38-8.13,48.38-16.55C397.14,272.5,391.39,268.86,388.72,270.12"/>
	<path id="XMLID_107_" class="st1" d="M427.57,231.27c-2.1,0.7-5.19-1.26-7.01,0c-2.8,2.1-6.03,1.68-8.83,1.4
		c-1.4-0.14-3.51-0.56-4.77,0.28c-0.7,0.56,0.28,1.54,1.12,2.24c-7.15,2.52-15.15,0.14-21.88,2.94c-0.56,0.28-0.84,2.66-2.1,2.94
		c-6.31,1.26-12.06-1.12-18.23,0c-1.54,0.28-0.84,3.65-2.52,3.79c-5.61,0.28-10.94-0.14-16.55-0.42c-6.59-0.28-12.62,2.1-18.93,4.07
		c-1.82,0.56-2.38,3.51-4.35,3.79c-5.33,0.84-10.8-0.14-15.85,2.24c-0.28,0.14-0.42,1.82,0,1.96c6.03,3.37,12.9,5.75,16.97,11.22
		c41.93-0.42,87.09-5.89,121.86-34.5c0.7-0.56-3.51-1.4-5.61-1.96c-2.1-0.56-3.93-0.56-6.59-1.4
		C432.06,229.17,429.95,230.57,427.57,231.27"/>
	<path id="XMLID_108_" class="st1" d="M471.18,191.87c-0.42-0.28-6.73-1.4-10.24-0.56c-0.7,0.14-1.12,1.4-1.96,1.54
		c-4.49,0.7-7.71,2.94-12.34,3.09c-0.98,0-3.09,0.7-4.35,1.26c-1.68,0.84-3.93-1.12-5.19,0.28c-0.84,0.98,0.56,3.23-0.84,3.93
		c-4.07,1.82-8.69-1.54-12.62,0.98c-1.12,0.7,1.26,3.23-0.28,3.65c-5.61,1.82-15.43-7.01-19.07,2.1c-0.56,1.4-2.38,0.7-3.51,0.42
		c-1.12-0.28-2.52-0.7-3.23-0.28c-3.51,2.8-5.47,3.93-10.38,2.52c-1.26-0.42-1.26,3.37-3.65,2.66c-2.8-0.7-5.33-2.66-7.85-1.54
		c-1.12,0.56-0.28,3.51-1.96,3.65c-6.73,0.7-13.74-0.28-20.05,2.52c-1.54,0.7-1.68,3.51-3.79,3.79c-4.77,0.84-9.54,0.28-14.02,1.68
		c-0.7,0.28-0.56,2.38,0.56,2.52c2.8,0.42,6.03,0,8.27,1.26c2.66,1.54,4.35,6.17,7.01,6.17c20.9,0.84,41.65-2.24,61.7-8.98
		c21.18-7.01,40.53-16.69,57.64-31.55C472.16,192.57,471.6,192.15,471.18,191.87"/>
	<path id="XMLID_114_" class="st1" d="M269.94,395.21c-5.19,0-9.4-4.21-9.4-9.4c0-5.19,4.21-9.4,9.4-9.4c5.19,0,9.4,4.21,9.4,9.4
		C279.34,391,275.13,395.21,269.94,395.21 M269.94,373.75c-6.59,0-12.06,5.33-12.06,12.06c0,6.59,5.33,12.06,12.06,12.06
		c6.59,0,12.06-5.33,12.06-12.06C281.86,379.08,276.53,373.75,269.94,373.75z"/>
	<path id="XMLID_117_" class="st1" d="M270.79,384.41h-3.23v-2.94h3.23c0.84,0,1.54,0.7,1.54,1.54
		C272.19,383.85,271.49,384.41,270.79,384.41 M274.85,383.01c0-2.24-1.82-4.07-4.07-4.07h-5.75v13.74h2.52v-5.61h1.82l2.66,5.61h2.8
		l-2.66-5.75C273.73,386.23,274.85,384.69,274.85,383.01z"/>
</g>
</svg>
