<?xml version="1.0" encoding="utf-8"?>
<!-- Generator: Adobe Illustrator 24.3.0, SVG Export Plug-In . SVG Version: 6.00 Build 0)  -->
<svg version="1.1" id="Layer_1" xmlns="http://www.w3.org/2000/svg" xmlns:xlink="http://www.w3.org/1999/xlink" x="0px" y="0px"
	 viewBox="0 0 512 512" style="enable-background:new 0 0 512 512;" xml:space="preserve">
<style type="text/css">
	.st0{fill:#FFFFFF;}
	.st1{fill:#E56B1F;}
	.st2{fill:#003876;}
</style>
<g id="XMLID_1_">
	<path id="XMLID_6_" class="st0" d="M256,7.29C118.81,7.29,7.29,118.81,7.29,256S118.81,504.71,256,504.71S504.71,393.19,504.71,256
		S393.19,7.29,256,7.29L256,7.29z M296.12,105.77c0,19.22-15.85,37.87-40.12,37.87c-24.27,0-40.12-18.66-40.12-37.87
		c0-28.05,24.41-43.06,40.12-82.34C271.71,62.7,296.12,77.71,296.12,105.77L296.12,105.77z M256,493.2
		C124.98,493.2,18.8,387.02,18.8,256c0-126.39,98.75-229.63,223.32-236.78l-27.49,43.34c-11.78,18.52-13.75,33.95-13.75,42.5
		c0,32.68,28.9,54.15,54.99,54.15s54.99-21.46,54.99-54.15c0-8.42-1.96-23.99-13.75-42.5l-27.49-43.34
		C394.17,26.37,492.92,129.61,492.92,256C493.2,387.02,387.02,493.2,256,493.2L256,493.2z"/>
	<path id="XMLID_14_" class="st0" d="M311.55,47.69c9.12,12.62,20.9,31,20.9,56.53c0,39.84-33.67,77.01-76.45,77.01
		s-76.45-37.17-76.45-77.01c0-25.53,11.78-43.91,20.9-56.53C108.29,72.1,40.4,156.12,40.4,256c0,119.09,96.51,215.6,215.6,215.6
		S471.6,375.09,471.6,256C471.6,156.12,403.71,72.1,311.55,47.69L311.55,47.69z M119.37,401.18
		c-23.85-27.35-39.14-60.32-42.08-101.56v-80.24c0-11.64,4.49-27.21,21.32-27.21c13.05,0,16.27,0,16.27,0
		c8.14,0,21.46,2.38,21.46,20.34s0,179.13,0,179.13C136.49,406.37,127.23,410.3,119.37,401.18L119.37,401.18z M161.74,438.92
		c-13.19-7.57-24.83-16.83-35.21-28.2c0,0,3.93,1.4,8.28-1.26c4.63-2.67,6.17-9.12,6.17-12.62c0-3.79,0-77.57,0-81.92
		c4.49,0,8-4.91,8-9.4c0,0,0-66.77,0-71.68c0-6.59-3.93-9.54-7.86-9.54c0-0.56,0-31.98,0-31.98h33.67c0,0,0,29.6,0,31.98
		c-3.79,0-7.86,3.79-7.86,9.54c0,2.95,0,68.73,0,71.4c0,5.05,2.95,9.54,6.45,9.54c0,2.1,0,112.5,0,115.02
		C173.38,437.65,167.35,442.14,161.74,438.92L161.74,438.92z M219.11,460.8c-18.8-2.95-33.81-9.26-49.8-17.81c0,0,8-1.4,8-9.68
		c0-3.79,0-113.9,0-118.25c4.49,0,9.26-4.35,9.26-9.54c0,0,0-66.63,0-71.4c0-6.31-3.93-9.54-7.57-9.54c0-0.56,0-31.98,0-31.98h36.33
		c0,0,0,29.6,0,31.98c-3.93,0-10.52,3.23-10.52,9.54c0,2.95,0,67.75,0,70.42c0.14,6.31,0.28,10.52,7.01,10.52
		c6.45,0,7.43-3.09,7.43-10.1c0-10.24,0-23.29,0-23.29h15.43v165.8C234.68,456.59,227.8,462.2,219.11,460.8L219.11,460.8z
		 M281.39,462.48c-9.12,1.54-17.11,1.82-25.81,1.82c-7.72,0-18.66-0.42-26.09-1.26c0,0,9.26-2.24,9.26-14.59
		c0-3.79,0-129.05,0-133.4c3.93,0,6.03-4.07,6.03-9.54c0,0,0.14-66.63,0-71.4c0-5.61-3.79-9.54-13.05-9.54c0-0.56,0-31.84,0-31.84
		h67.05c0,0,0,49.66,0,52.04h-16.97c0,0,0-5.89,0-10.52c0-4.63-0.84-10.1-6.73-10.1c-7.29,0-8.42,4.77-8.42,11.08
		c0,0.98,0,8.14,0,16.41h16.83v23.29h-16.97c0,12.2,0,28.05,0,29.18c0.14,6.87,0.28,11.36,7.01,11.36c6.45,0,7.29-3.23,7.43-11.36
		c0-10.38,0-22.16,0-22.16h17.67v162.02C298.36,454.07,290.93,460.94,281.39,462.48L281.39,462.48z M374.95,402.31
		c-0.28,13.61-1.26,17.53-4.21,20.2c-8.98,8.14-15.43,12.34-26.79,18.8c0.56-0.42,2.24-2.95,1.96-15.99c0,0,0-137.89,0-144.06
		c0-6.17-2.67-10.52-7.29-10.52c-5.75,0-7.29,4.91-7.29,9.54c0,2.95,0,22.58,0,25.39c0,5.75,5.47,9.68,9.96,9.68
		c0,2.1,0,110.96,0,113.34c0,8.42-2.24,15.85-7.86,18.24c-10.8,4.63-25.39,10.1-37.03,12.76c0,0,6.31-4.07,6.17-22.02
		c0-3.79,0-118.25,0-122.6c4.35,0,8.7-4.07,8.7-9.54c0,0,0-66.35,0-71.12c0-5.61-4.91-9.82-7.86-9.82c0-0.56,0-31.98,0-31.98h47.83
		c9.82,1.12,16.69,4.63,16.69,18.66c0,10.38,0,26.37,0,29.88s1.12,12.76-3.51,16.55c-4.63,3.79-3.79,3.51-3.79,3.51
		s6.73,3.23,6.73,11.08s0,29.04,0,33.1c0,5.33,3.09,9.54,7.57,9.54L374.95,402.31L374.95,402.31z M398.8,232.43
		c0,3.23,0,13.89,0,16.55c0,2.67,1.68,4.35,4.07,6.17c3.79,2.95,23.29,18.8,23.29,18.8c2.1,2.38,7.01,4.91,7.01,14.17
		c0,7.57,1.26,32.26-9.54,57.79c-10.52,25.25-22.72,45.03-44.75,69.44V282.93h17.96v25.53c0.28,9.54,15.15,8.42,15.15,1.4
		s0-14.87,0-17.96c0-2.95,0-3.79-1.68-5.19c-1.68-1.4-25.25-20.34-27.07-21.74c-1.96-1.4-2.95-3.51-2.95-8.98
		c0-5.47,0-49.94,0-49.94c0.28-6.45,3.65-13.61,14.03-13.61h25.25c9.82,1.12,15.01,4.35,15.01,16.55c0,10.38,0,32.82,0,36.33h-20.9
		v-12.76C413.81,222.19,398.8,221.91,398.8,232.43L398.8,232.43z"/>
	<path id="XMLID_15_" class="st0" d="M97.91,233.14c0,0,0,62.56,0,73.92c0,11.92,16.83,11.36,16.83-0.56v-73.92
		C113.9,221.21,97.91,221.63,97.91,233.14L97.91,233.14z"/>
	<path id="XMLID_16_" class="st0" d="M332.31,232.57c0,0,0,4.35,0,13.47c0,9.54,13.47,9.12,13.47-0.42c0-8.7,0.42-7.72,0-13.47
		C345.21,222.05,332.31,222.47,332.31,232.57L332.31,232.57z"/>
	<path id="XMLID_17_" class="st1" d="M256,23.57c-15.71,39.28-40.12,54.29-40.12,82.34c0,19.22,15.85,37.87,40.12,37.87
		s40.12-18.66,40.12-37.87C296.12,77.71,271.71,62.7,256,23.57L256,23.57z"/>
	<path id="XMLID_20_" class="st0" d="M256,0C114.88,0,0,114.88,0,256s114.88,256,256,256s256-114.88,256-256S397.12,0,256,0z
		 M256,504.71C118.81,504.71,7.29,393.19,7.29,256S118.81,7.29,256,7.29S504.71,118.81,504.71,256S393.19,504.71,256,504.71z"/>
	<path id="XMLID_23_" class="st2" d="M269.89,19.22l27.49,43.34c11.78,18.52,13.75,33.95,13.75,42.5c0,32.68-28.9,54.15-54.99,54.15
		s-54.99-21.46-54.99-54.15c0-8.42,1.96-23.99,13.75-42.5l27.49-43.34C117.55,26.37,18.8,129.61,18.8,256
		c0,131.02,106.19,237.2,237.2,237.2S493.2,387.02,493.2,256C493.2,129.61,394.45,26.37,269.89,19.22L269.89,19.22z M256,471.6
		c-119.09,0-215.6-96.51-215.6-215.6c0-99.88,67.89-183.9,160.05-208.31c-9.12,12.62-20.9,31-20.9,56.53
		c0,39.84,33.67,77.01,76.45,77.01s76.45-37.17,76.45-77.01c0-25.53-11.78-43.91-20.9-56.53C403.71,72.24,471.6,156.12,471.6,256
		C471.6,375.09,375.09,471.6,256,471.6L256,471.6z"/>
	<path id="XMLID_24_" class="st2" d="M173.38,430.08c0-2.38,0-112.78,0-115.02c-3.51,0-6.45-4.35-6.45-9.54c0-2.67,0-68.45,0-71.4
		c0-5.75,4.21-9.54,7.86-9.54c0-2.38,0-31.98,0-31.98h-33.67c0,0,0,31.42,0,31.98c3.93,0,7.86,2.95,7.86,9.54
		c0,4.91,0,71.68,0,71.68c0,4.35-3.51,9.4-8,9.4c0,4.35,0,78.13,0,81.92c0,3.51-1.54,9.82-6.17,12.62
		c-4.35,2.52-8.28,1.26-8.28,1.26c10.38,11.36,22.02,20.76,35.21,28.2C167.35,442.14,173.38,437.65,173.38,430.08L173.38,430.08z"/>
	<path id="XMLID_25_" class="st2" d="M234.68,447.61v-165.8h-15.43c0,0,0,12.91,0,23.29c0,7.01-0.84,10.1-7.43,10.1
		c-6.73,0-6.87-4.21-7.01-10.52c0-2.67,0-67.47,0-70.42c0-6.31,6.59-9.54,10.52-9.54c0-2.38,0-31.98,0-31.98h-36.33
		c0,0,0,31.42,0,31.98c3.65,0,7.57,3.23,7.57,9.54c0,4.91,0,71.4,0,71.4c0,5.19-4.77,9.54-9.26,9.54c0,4.35,0,114.46,0,118.25
		c0,8.28-8,9.68-8,9.68c15.99,8.56,31,14.87,49.8,17.81C227.8,462.2,234.68,456.59,234.68,447.61L234.68,447.61z"/>
	<path id="XMLID_26_" class="st2" d="M298.36,282.09h-17.67c0,0,0,11.78,0,22.16c0,8.14-0.84,11.36-7.43,11.36
		c-6.73,0-6.87-4.49-7.01-11.36c0-1.12,0-16.97,0-29.18h16.97v-23.29h-16.83c0-8.14,0-15.43,0-16.41c0-6.31,1.12-11.08,8.56-11.08
		c6.03,0,6.73,5.47,6.73,10.1s0,10.52,0,10.52h16.97c0-2.38,0-52.04,0-52.04h-67.05c0,0,0,31.28,0,31.84
		c9.26,0,13.05,3.79,13.05,9.54c0.14,4.91,0,71.4,0,71.4c0,5.47-2.1,9.54-6.03,9.54c0,4.35,0,129.61,0,133.4
		c0,12.34-9.26,14.59-9.26,14.59c7.43,0.84,18.38,1.26,26.09,1.26c8.7,0,16.69-0.42,25.81-1.82c9.54-1.54,16.97-8.42,16.97-18.38
		L298.36,282.09L298.36,282.09z"/>
	<path id="XMLID_27_" class="st2" d="M434.71,245.48c0-3.51,0-26.09,0-36.33c0-12.2-5.33-15.43-15.01-16.55h-25.25
		c-10.24,0-13.75,7.01-14.03,13.61c0,0,0,44.47,0,49.94c0,5.47,1.12,7.57,2.95,8.98c1.96,1.4,25.53,20.34,27.07,21.74
		c1.68,1.4,1.68,2.1,1.68,5.19c0,2.95,0,10.8,0,17.96c0,7.01-14.87,8.14-15.15-1.4v-25.53h-17.96v132.42
		c22.02-24.41,34.23-44.19,44.75-69.44c10.66-25.53,9.54-50.22,9.54-57.79c0-9.26-4.91-11.64-7.01-14.17c0,0-19.5-15.71-23.29-18.8
		c-2.38-1.82-4.07-3.51-4.07-6.17s0-13.33,0-16.55c0-10.66,14.87-10.38,14.87,0.28v12.76L434.71,245.48L434.71,245.48z"/>
	<path id="XMLID_30_" class="st2" d="M136.49,391.79c0,0,0-161.17,0-179.13s-13.33-20.34-21.46-20.34c0,0-3.23,0-16.27,0
		c-16.83,0-21.32,15.43-21.32,27.21v80.24c2.95,41.1,18.24,74.06,42.08,101.56C127.23,410.3,136.49,406.37,136.49,391.79
		L136.49,391.79z M114.74,306.5c0,11.92-16.83,12.48-16.83,0.56c0-11.36,0-73.92,0-73.92c0-11.36,16.13-11.92,16.83-0.56V306.5z"/>
	<path id="XMLID_33_" class="st2" d="M367.38,305.52c0-4.07,0-25.25,0-33.1c0-7.86-6.73-11.08-6.73-11.08s-0.84,0.28,3.79-3.51
		c4.63-3.79,3.51-13.05,3.51-16.55s0-19.5,0-29.88c0-14.17-6.87-17.67-16.69-18.66h-47.83c0,0,0,31.42,0,31.98
		c3.09,0,7.86,4.21,7.86,9.82c0,4.91,0,71.12,0,71.12c0,5.47-4.35,9.54-8.7,9.54c0,4.35,0,118.81,0,122.6
		c0.14,17.96-6.17,22.02-6.17,22.02c11.64-2.67,26.37-8.14,37.03-12.76c5.75-2.38,7.86-9.82,7.86-18.24c0-2.38,0-111.24,0-113.34
		c-4.49,0-9.96-4.07-9.96-9.68c0-2.67,0-22.3,0-25.39c0-4.63,1.54-9.54,7.29-9.54c4.63,0,7.29,4.35,7.29,10.52
		c0,6.31,0,144.06,0,144.06c0.28,13.05-1.4,15.57-1.96,15.99c11.36-6.59,17.81-10.66,26.79-18.8c2.95-2.67,3.93-6.59,4.21-20.2
		V315.2C370.32,315.06,367.38,310.71,367.38,305.52L367.38,305.52z M345.78,245.48c0,9.54-13.47,9.96-13.47,0.42
		c0-9.12,0-13.47,0-13.47c0-9.96,12.76-10.38,13.47-0.42C346.2,237.76,345.78,236.78,345.78,245.48L345.78,245.48z"/>
</g>
</svg>
