<?xml version="1.0" encoding="utf-8"?>
<!-- Generator: Adobe Illustrator 26.5.0, SVG Export Plug-In . SVG Version: 6.00 Build 0)  -->
<svg version="1.1" id="Layer_1" xmlns="http://www.w3.org/2000/svg" xmlns:xlink="http://www.w3.org/1999/xlink" x="0px" y="0px"
	 viewBox="0 0 512 512" style="enable-background:new 0 0 512 512;" xml:space="preserve">
<style type="text/css">
	.st0{fill:#FFFFFF;}
	.st1{fill:#041E42;}
	.st2{fill:#B99758;}
	.st3{fill:#C8102E;}
</style>
<g id="XMLID_76_">
	<path id="XMLID_83_" class="st0" d="M478.49,151.5c0,25.81-3.79,93.7-37.73,167.63c-41.8,90.62-103.38,143.5-184.6,185.58
		C174.1,462.06,112.8,409.18,71.28,319.12C37.19,245.2,33.55,177.45,33.55,151.5v-94.4C102.7,21.04,181.67,6.45,256.16,6.45
		c75.05,0,153.74,14.73,222.47,50.64v94.4H478.49z M481.44,51.48C416.77,17.81,338.92,0,256.02,0C172.98,0,95.13,17.81,30.46,51.48
		l-3.51,1.68v98.33c0,26.23,3.93,95.25,38.44,170.29c38.86,84.16,94.97,140.69,187.55,188.67l3.09,1.54l2.95-1.54
		c92.58-47.97,148.69-104.5,187.55-188.67c34.65-75.05,38.44-144.06,38.44-170.29V53.16L481.44,51.48z"/>
	<path id="XMLID_87_" d="M250.41,196.38c-0.98,0-1.82,0.14-2.81,0.28C248.45,196.52,249.43,196.52,250.41,196.38z M204.82,206.76
		l1.4,2.81L204.82,206.76z M246.06,196.94c-1.26,0.14-2.67,0.42-4.21,0.84C243.4,197.37,244.8,197.08,246.06,196.94L246.06,196.94z"
		/>
	<path id="XMLID_102_" class="st1" d="M466.43,151.5c0,24.97-3.51,90.76-36.61,162.58c-38.58,83.46-96.93,137.19-173.8,177.17
		c-76.59-39.84-135.22-93.42-173.8-177.17c-33.1-71.68-36.75-137.61-36.75-162.58V64.39c60.88-31.7,140.55-45.87,210.55-45.87
		c69.72,0,149.53,14.03,210.41,45.87V151.5z M33.55,57.23v94.4c0,25.81,3.79,93.7,37.73,167.63
		c41.52,90.06,102.68,142.94,184.88,185.58c81.36-42.08,142.8-94.97,184.6-185.58c34.09-73.92,37.73-141.82,37.73-167.63v-94.4
		C409.76,21.32,331.07,6.59,256.02,6.59C181.67,6.45,102.7,21.04,33.55,57.23z M222.63,221.35c-6.03,3.09-13.19,3.51-19.5,0.98
		c0,0,1.26-2.1,2.52-4.21c2.38,2.24,5.89,3.09,8.98,1.96c2.38-1.26,4.21-3.37,4.77-6.03c3.79-0.84,7.57-1.26,11.36-1.54
		C229.37,216.44,226.42,219.67,222.63,221.35z M263.74,201.71c-1.54-0.56-3.23-1.26-4.77-1.82c-4.49-1.82-8.56-3.37-8.56-3.37
		c-0.98,0-1.82,0.14-2.81,0.28c-0.42,0-1.12,0.14-1.54,0.14c-1.26,0.14-2.67,0.42-4.21,0.84c-12.34,2.67-24.27,6.59-35.63,11.92
		l-1.4-2.81l-1.82-3.93l-18.8,25.67c6.31,1.12,12.62,1.68,19.08,1.54c8,0,16.13-0.7,23.99-2.1c6.17-5.19,11.92-10.8,17.39-16.69
		c1.4-1.54,2.67-2.95,3.51-4.07c1.26-1.4,1.96-2.38,2.38-2.67C254.9,203.4,258.26,202.84,263.74,201.71z M256.16,474.55
		c10.8-5.61,21.04-11.64,30.86-17.81C277.2,462.9,266.96,468.94,256.16,474.55z M121.5,259.79c1.26,1.82,2.81,4.21,4.49,6.59
		c1.96,2.52,4.21,4.91,6.59,7.01l6.31,18.24c-3.93,4.35-7.57,8.98-10.66,13.89c-5.19-9.4-9.68-19.22-13.33-29.32L121.5,259.79z
		 M147.45,266.8c1.68-1.26,3.93-3.09,5.47-4.21c0,0,8.84-1.26,18.38-1.82c4.77-0.42,9.54-0.42,14.31-0.28l6.17,7.29
		c-4.63,0.42-9.26,1.4-13.75,2.95c7.29,2.1,14.17,5.19,20.62,9.12l-0.42,3.23c-6.03-0.56-12.06-0.42-18.1,0.28
		c5.47,2.67,10.8,5.89,15.71,9.54c-0.42,1.26-0.98,2.52-1.4,3.51c-5.33-0.98-10.66-1.4-16.13-1.4c4.49,2.81,8.7,6.03,12.48,9.54
		c-1.54,2.95-2.67,4.63-2.67,4.63c-18.1-5.47-40.4-15.71-46.15-18.24l-0.28-17.81C143.38,270.87,145.34,268.76,147.45,266.8
		L147.45,266.8z M151.94,336.94c-6.87-5.75-12.06-13.19-14.87-21.74c0.14-5.19,1.68-10.24,4.63-14.59
		c20.2,14.31,51.34,26.93,51.34,26.93C179.01,328.94,165.26,332.03,151.94,336.94z M60.76,167.07
		c3.51,70.98,32.96,199.19,154.3,282.93c16.13-8.7,26.93-23.29,33.53-34.65c12.76,15.43,14.03,37.03,14.03,37.03
		c13.61-63.96-46.29-113.34-46.29-113.34s43.2,21.04,73.08,55.27c0.42-5.05,0.14-10.24-0.98-15.15c-1.26-6.31-3.09-12.62-5.47-18.66
		c0,0,31.14,25.25,47.97,62.84c0.28-0.28,0.84-0.56,1.12-0.98c42.78-44.33,44.05-110.68,44.05-110.68
		c-9.26-38.58-25.67-52.04-25.67-52.04c3.23,17.67,5.33,37.17,5.33,37.17c-7.01,14.59-16.83,27.63-29.04,38.29
		c-16.69,1.82-30.02,0.14-53.44-7.57c-12.34-4.35-24.27-10.24-35.21-17.53c-5.47-0.28-10.94-0.14-16.41,0.42
		c-7.57,0.84-16.55,2.81-16.55,2.81c10.1-17.67,15.99-35.77,16.97-43.91c-6.59-7.15-13.89-13.75-21.74-19.5
		c-16.69,0.84-29.88,1.68-29.88,1.68l5.61-22.58c0,0-3.79,3.09-8,7.43c-4.49,4.49-9.54,10.24-9.54,10.24
		c-7.72,2.81-15.71,4.91-23.85,6.17c-5.05-1.54-9.68-3.65-14.03-6.45c16.83-24.97,44.19-34.79,44.19-34.79
		c-4.91-5.89-4.63-10.52-4.63-10.52c7.01-4.63,13.33-8.42,19.08-11.5c-0.84,1.96-1.4,4.07-1.68,6.17
		c4.91-4.07,10.1-7.72,15.43-11.22c6.45-4.07,12.91-7.29,12.91-7.29c4.21-13.61,11.5-24.69,13.33-26.23
		c1.82-0.28,3.79-0.42,5.75-0.42c0.42,4.49,5.47,11.64,7.57,14.31c-7.01,2.52-13.61,6.03-19.64,10.38c0,0,23.15-6.17,43.63-6.87
		c27.77-0.98,44.89,5.33,44.89,5.33c-3.09,4.35-6.45,8.42-9.96,12.34c46.01-15.71,50.78-27.63,75.75-32.82
		c5.89,0.98,11.64,2.38,17.39,4.35c3.51,3.51,6.03,7.86,7.29,12.76c-3.37,26.51-14.03,56.39-14.03,56.39
		c-8.42,10.24-22.86,19.5-22.86,19.5c14.59-1.82,35.91-8.42,35.91-8.42c13.33,9.54,30.86,30.86,38.15,39.98
		c12.76-35.63,20.34-72.94,22.44-110.82c-6.03-3.09-81.5-39.98-195.26-39.98C142.26,127.09,66.79,163.84,60.76,167.07z
		 M346.78,240.99c9.96-5.61,23.43-18.1,23.43-18.1c7.15-21.04,13.19-49.38,13.19-49.38c0-2.81-3.23-7.29-3.23-7.29
		c-3.65-1.4-7.43-2.38-11.36-2.95c-11.5,1.82-26.51,13.19-38.44,22.58c5.75-0.28,11.36-0.98,16.97-1.96
		c-2.1,5.61-9.96,20.2-9.96,20.2c4.91-0.14,9.82-0.7,14.59-1.82c-3.09,8.7-6.73,17.25-10.8,25.53L346.78,240.99z"/>
	<path id="XMLID_107_" class="st2" d="M244.66,211.25c-5.47,5.89-11.22,11.5-17.39,16.69c-7.86,1.4-15.99,2.1-23.99,2.1
		c8,0,16.13-0.7,23.99-2.1C233.44,222.9,239.19,217.28,244.66,211.25z"/>
	<path id="XMLID_114_" class="st2" d="M451.7,73.36v77.71c-58.77-26.79-131.44-38.86-195.68-38.86
		c-64.67,0-137.05,12.06-195.82,38.86V73.36c0,0,77.15-40.12,195.82-40.12C374.83,33.24,451.7,73.36,451.7,73.36z M274.54,223.88
		c0.98-3.93,0.28-15.85,0.28-15.85s6.87,2.38,17.39,10.66c0,0-1.4,7.72-3.37,15.71l-36.75,16.69
		C260.09,242.39,267.52,233.28,274.54,223.88z M250.55,204.66c0.14,1.68,0.14,3.37,0,4.91c-4.77,8-13.61,17.67-19.22,23.15
		c-10.94,2.38-22.16,3.23-33.24,2.52l-13.75-6.45l18.8-25.67c0,0,25.67-10.24,47.41-6.31c0,0,4.07,1.4,8.56,3.23
		c1.54,0.56,3.23,1.26,4.77,1.82C258.26,202.84,254.9,203.4,250.55,204.66c-0.28,0.28-1.12,1.26-2.38,2.67
		C249.43,205.92,250.27,204.94,250.55,204.66L250.55,204.66z M337.38,203.96c0,0,7.72-14.59,9.96-20.2
		c-5.61,1.12-11.36,1.68-16.97,1.96c11.92-9.4,26.93-20.76,38.44-22.58c3.93,0.56,7.72,1.54,11.36,2.95c0,0,3.23,4.49,3.23,7.29
		c0,0-6.03,28.34-13.19,49.38c0,0-13.47,12.48-23.43,18.1l-5.61-13.47c4.21-8.28,7.86-16.69,10.8-25.39
		C347.2,203.26,342.29,203.96,337.38,203.96L337.38,203.96z M428.84,277.74c-7.29-9.12-24.83-30.3-38.15-39.98
		c0,0-21.32,6.45-35.91,8.42c0,0,14.59-9.26,22.86-19.5c0,0,10.66-29.88,14.03-56.53c-1.4-4.77-3.79-8.98-7.29-12.48
		c-5.61-1.96-11.5-3.37-17.39-4.35c-24.97,5.33-29.74,17.25-75.75,32.82c3.51-3.93,6.87-8.14,9.96-12.34c0,0-17.25-6.31-44.89-5.47
		c-20.62,0.84-43.63,7.01-43.63,7.01c6.03-4.35,12.62-7.86,19.64-10.38c-2.1-2.67-7.15-9.82-7.57-14.31c-1.96,0-3.79,0.14-5.75,0.42
		c-1.82,1.54-9.12,12.48-13.33,26.23c0,0-6.31,3.23-12.91,7.29c-5.33,3.37-10.52,7.15-15.43,11.22c0.28-2.1,0.84-4.21,1.54-6.17
		c-5.61,3.09-11.92,6.87-18.94,11.5c0,0-0.28,4.63,4.63,10.52c0,0-27.21,9.96-44.19,34.79c4.35,2.81,9.12,5.05,14.03,6.45
		c8.14-1.26,16.13-3.37,23.85-6.17c0,0,5.05-5.75,9.54-10.24c4.35-4.35,8-7.57,8-7.57l-5.61,22.72c0,0,13.19-0.98,29.74-1.68
		c7.86,5.75,15.15,12.34,21.88,19.5c-1.12,8-7.15,26.23-16.97,43.91c0,0,8.98-1.96,16.55-2.81c5.47-0.56,10.94-0.7,16.41-0.42
		c10.94,7.29,22.72,13.19,35.21,17.53c23.43,7.72,36.75,9.4,53.44,7.57c12.2-10.66,22.02-23.71,29.04-38.44
		c0,0-1.96-19.36-5.33-37.03c0,0,16.41,13.47,25.67,52.04c0,0-1.26,66.35-44.05,110.68c-0.28,0.28-0.84,0.56-1.12,0.98
		c-13.89,12.2-28.62,23.43-44.19,33.53c-9.82,6.17-19.92,12.2-30.86,17.81c0,0,5.61-11.78,6.45-22.3c0,0-1.4-21.6-14.03-37.03
		c-6.45,11.5-17.39,26.09-33.53,34.65C93.16,366.4,63.7,238.19,60.2,167.21c6.03-3.09,81.64-39.98,195.4-39.98
		s189.09,36.89,195.26,39.98C449.18,204.8,441.6,242.11,428.84,277.74z M45.61,64.39v87.11c0,24.97,3.51,90.76,36.75,162.58
		c38.58,83.74,97.35,137.47,173.8,177.17c76.87-39.98,135.22-93.7,173.8-177.17c32.96-71.68,36.61-137.61,36.61-162.58V64.39
		c-60.88-31.7-140.69-45.87-210.41-45.87C186.02,18.66,106.49,32.68,45.61,64.39z"/>
	<path id="XMLID_128_" class="st3" d="M211.27,59.62c-3.93,0.28-7.57,0.84-11.36,1.26v30.16c3.79-0.42,7.43-0.84,11.36-1.12V59.62z
		 M413.55,83.32c-3.79-1.26-7.29-2.38-10.94-3.51v10.1c3.79,1.12,7.29,2.38,10.94,3.51V83.32z M88.67,76.59
		c8.7-3.09,17.53-5.89,26.37-8.56v10.24c-5.47,1.54-10.8,3.23-16.27,5.05v10.1c3.93-1.4,7.72-2.67,11.64-3.79v10.24
		c-3.93,1.12-7.72,2.52-11.64,3.79V124c-3.37,1.12-6.59,2.1-10.1,3.37V76.59z M138.61,61.44c3.37-0.84,6.87-1.54,10.24-2.38v40.4
		c5.61-1.26,10.94-2.38,16.55-3.37v10.38c-8.98,1.54-17.81,3.51-26.79,5.75V61.44z M189.67,60.6c1.54-3.09,3.23-6.17,4.77-9.26
		c7.43-0.98,14.87-1.68,22.44-2.38c1.54,2.81,3.09,5.61,4.77,8.42v33.24c-1.68,2.95-3.23,6.03-4.77,9.12
		c-7.57,0.56-15.01,1.26-22.44,2.38c-1.54-2.81-3.23-5.61-4.77-8.28V60.6z M246.06,47.55c9.12-0.28,18.1-0.14,27.21,0.14
		c1.68,2.95,3.23,5.89,4.77,8.98v12.91c-1.54,2.95-3.09,5.75-4.77,8.7c-1.12-0.14-2.24-0.14-3.37-0.14
		c2.81,6.87,5.61,13.61,8.28,20.62c-3.51-0.14-7.29-0.28-10.94-0.42c-2.81-6.87-5.47-13.47-8.28-20.34h-2.52v20.34h-10.38
		L246.06,47.55L246.06,47.55z M302.45,49.52c3.51,0.28,7.01,0.56,10.38,1.12v50.78c-3.37-0.42-6.87-0.84-10.38-1.12V49.52z
		 M336.96,54.01c8.98,1.54,17.96,3.23,26.93,5.33c1.54,3.23,3.23,6.45,4.77,9.82v33.24c-1.54,2.52-3.23,5.05-4.77,7.72
		c-8.98-1.96-17.96-3.93-26.93-5.33V54.01z M392.37,75.33c1.54-2.52,3.09-4.77,4.63-7.29c7.29,2.1,14.59,4.49,21.74,7.01
		c1.54,3.37,3.09,7.01,4.63,10.38v41.94c-3.23-1.26-6.59-2.38-9.96-3.37v-20.34c-3.79-1.26-7.29-2.52-10.94-3.51v20.34
		c-3.23-1.12-6.59-1.96-10.1-2.95L392.37,75.33L392.37,75.33z M60.34,151.22c58.77-26.79,131.16-38.86,195.82-38.86
		c64.25,0,136.91,12.06,195.68,38.86V73.5c0,0-77.01-40.12-195.68-40.12S60.34,73.5,60.34,73.5V151.22z M347.34,96.37l11.22,2.38
		v-30.3c-3.79-0.84-7.43-1.54-11.22-2.1V96.37z M267.66,57.79c-3.79-0.14-7.57-0.14-11.36-0.14v10.1c3.79,0,7.57,0,11.36,0.14V57.79
		z M214.64,220.09c-3.09,0.98-6.59,0.28-8.98-1.96c-1.26,1.96-2.52,4.21-2.52,4.21c6.31,2.52,13.47,2.24,19.5-0.98
		c3.79-1.68,6.73-4.91,8-8.84c-3.79,0.28-7.57,0.84-11.36,1.54C218.71,216.72,217.02,218.97,214.64,220.09z"/>
	<path id="XMLID_144_" class="st0" d="M188.13,309.3c0,0,1.12-1.82,2.52-4.63c-3.79-3.51-8-6.73-12.34-9.54
		c5.47,0,10.8,0.42,16.13,1.4c0.42-1.12,0.98-2.38,1.4-3.51c-4.91-3.65-10.1-6.87-15.71-9.54c6.03-0.84,12.06-0.84,18.1-0.28
		l0.42-3.23c-6.45-3.93-13.33-7.01-20.62-9.12c4.49-1.54,9.12-2.52,13.75-2.95l-6.17-7.29c-4.77-0.14-9.54,0-14.31,0.28
		c-9.54,0.56-18.38,1.82-18.38,1.82c-1.54,1.12-3.79,2.95-5.47,4.21c-2.24,1.96-4.21,4.21-5.89,6.45l0.28,17.81
		C147.59,293.73,170.03,303.97,188.13,309.3z M227.26,228.09c-7.86,1.4-15.99,2.1-23.99,2.1c-6.45,0.14-12.76-0.42-19.08-1.54
		l13.75,6.45c11.22,0.7,22.44-0.14,33.24-2.67c7.29-6.87,13.75-14.59,19.22-22.86c0.14-1.68,0.14-3.37,0-4.91
		c-0.28,0.28-1.12,1.26-2.38,2.67c-0.98,1.12-2.1,2.52-3.51,3.93C239.33,217.14,233.44,222.9,227.26,228.09z M137.07,315.2
		c2.81,8.42,8,15.99,14.87,21.74c13.19-4.91,27.07-8.14,41.1-9.26c0,0-31.14-12.76-51.34-26.93
		C138.89,304.96,137.21,310.01,137.07,315.2z M128.51,305.66c3.09-4.91,6.59-9.68,10.52-13.89l-6.31-18.24
		c-2.38-2.1-4.63-4.49-6.45-7.01c-1.82-2.52-3.37-4.77-4.63-6.59l-6.45,16.55C118.69,286.44,123.18,296.26,128.51,305.66z
		 M358.56,98.61l-11.22-2.38V66.07c3.79,0.56,7.43,1.4,11.22,2.1V98.61z M368.66,102.4V69.16c-1.54-3.23-3.23-6.45-4.77-9.82
		c-8.98-1.96-17.96-3.79-26.93-5.33v50.78c8.98,1.4,17.96,3.23,26.93,5.33C365.43,107.45,367.12,104.92,368.66,102.4L368.66,102.4z
		 M312.83,50.64c-3.37-0.42-6.87-0.84-10.38-1.12v50.78c3.51,0.28,7.01,0.56,10.38,1.12V50.64z M200.05,60.88
		c3.79-0.42,7.43-0.98,11.36-1.26v30.3c-3.93,0.28-7.57,0.56-11.36,1.12V60.88z M216.88,99.73c1.54-3.09,3.09-6.17,4.77-9.12V57.37
		c-1.68-2.81-3.23-5.61-4.77-8.42c-7.57,0.56-15.01,1.4-22.44,2.38c-1.54,3.09-3.23,6.17-4.77,9.26v33.24
		c1.54,2.67,3.23,5.47,4.77,8C201.87,101,209.31,100.3,216.88,99.73L216.88,99.73z M402.47,79.82c3.79,1.26,7.29,2.38,10.94,3.51
		v10.1c-3.79-1.26-7.29-2.52-10.94-3.51V79.82z M402.47,100.02c3.79,1.26,7.29,2.38,10.94,3.51v20.34c3.23,1.12,6.59,2.1,9.96,3.37
		V85.29c-1.54-3.37-3.09-7.01-4.63-10.38c-7.15-2.52-14.45-4.77-21.74-7.01c-1.54,2.52-3.09,4.77-4.63,7.29v42.08
		c3.37,0.98,6.59,1.82,10.1,2.95L402.47,100.02L402.47,100.02z M98.63,103.66c3.93-1.26,7.72-2.67,11.64-3.79V89.64
		c-3.93,1.12-7.72,2.38-11.64,3.79v-10.1c5.47-1.82,10.8-3.51,16.27-5.05V68.03c-8.84,2.67-17.67,5.47-26.37,8.56v50.78
		c3.37-1.26,6.59-2.38,10.1-3.37V103.66z M256.44,57.65c3.79,0,7.57,0,11.36,0.14v10.1c-3.79-0.14-7.57-0.14-11.36-0.14V57.65
		L256.44,57.65z M256.44,77.99h2.52c2.81,6.87,5.47,13.47,8.28,20.34c3.79,0.14,7.43,0.28,10.94,0.42
		c-2.67-7.01-5.47-13.75-8.28-20.62c1.12,0,2.24,0,3.37,0.14c1.68-2.95,3.23-5.75,4.77-8.7V56.67c-1.54-3.09-3.09-6.03-4.77-8.98
		c-9.12-0.28-18.1-0.42-27.21-0.28v50.78h10.38V77.99L256.44,77.99z M165.4,96.23c-5.61,1.12-10.94,2.1-16.55,3.37V59.2l-10.24,2.38
		v50.78c8.98-2.1,17.81-4.21,26.79-5.75V96.23z"/>
	<path id="XMLID_145_" class="st1" d="M292.21,218.69c-10.52-8.42-17.39-10.66-17.39-10.66s0.56,11.92-0.28,15.85
		c-7.01,9.54-14.45,18.52-22.44,27.21l36.75-16.69C290.81,226.54,292.21,218.69,292.21,218.69z"/>
	<path id="XMLID_148_" class="st0" d="M206.22,209.57c11.36-5.33,23.29-9.26,35.63-11.92c1.54-0.28,2.95-0.56,4.21-0.84
		c0.42,0,1.12-0.14,1.54-0.14c0.98-0.14,1.82-0.28,2.81-0.28c-21.74-3.79-47.41,6.45-47.41,6.45l1.82,3.93L206.22,209.57z
		 M283.09,360.36c2.38,6.03,4.21,12.2,5.47,18.66c0.98,5.05,1.4,10.1,0.98,15.15c-30.02-34.37-73.22-55.41-73.22-55.41
		s59.9,49.38,46.29,113.34c-0.98,10.52-6.45,22.3-6.45,22.3c10.8-5.61,21.04-11.64,30.86-17.81c15.57-9.96,30.3-21.18,44.19-33.53
		C314.23,385.61,283.09,360.36,283.09,360.36z"/>
</g>
</svg>
