<?xml version="1.0" encoding="utf-8"?>
<!-- Generator: Adobe Illustrator 13.0.0, SVG Export Plug-In . SVG Version: 6.00 Build 14948)  -->
<!DOCTYPE svg PUBLIC "-//W3C//DTD SVG 1.1//EN" "http://www.w3.org/Graphics/SVG/1.1/DTD/svg11.dtd">
<svg version="1.1" id="Layer_1" xmlns="http://www.w3.org/2000/svg" xmlns:xlink="http://www.w3.org/1999/xlink" x="0px" y="0px"
	 width="225px" height="148px" viewBox="-5.5 -7.291 225 148" enable-background="new -5.5 -7.291 225 148" xml:space="preserve">
<path fill="#FFFFFF" d="M215.7,22.501c-0.382-0.64-1.072-1.031-1.817-1.031h-62.384V2.117c0-1.169-0.948-2.117-2.118-2.117H65.5
	c-1.169,0-2.118,0.948-2.118,2.117V21.47H38.585c-0.78,0-1.497,0.429-1.866,1.115L0.252,90.458C-0.1,91.114-0.082,91.907,0.3,92.547
	c0.382,0.641,1.073,1.031,1.818,1.031h61.265v10.367c0,5.279,3.258,8.496,5.184,9.565c0.006,0.003,0.01,0.007,0.015,0.009
	l37.844,20.641c0.632,0.344,1.396,0.344,2.028,0l37.828-20.633c2.413-1.338,5.217-4.646,5.217-9.582V93.578h25.918
	c0.78,0,1.496-0.43,1.865-1.115l36.467-67.873C216.102,23.934,216.083,23.14,215.7,22.501z"/>
<path d="M149.38,23.587V2.117H65.5v21.47H38.585L2.118,91.46H65.5v12.485c0,4.294,2.572,6.869,4.096,7.716l37.843,20.64
	l37.829-20.632c1.539-0.854,4.112-3.43,4.112-7.724V91.46h28.036l36.466-67.873H149.38z"/>
<path fill="#9FA4AB" d="M146.759,26.208V4.74H68.122v21.468h-27.97L6.503,88.839h61.619v15.106c0,3.896,2.745,5.424,2.745,5.424
	l36.572,19.945l36.573-19.945c0,0,2.747-1.526,2.747-5.424V88.839h29.091l33.647-62.631H146.759z"/>
<path d="M144.139,28.83V7.36H70.744v21.47H41.719L10.887,86.218h59.857v16.011c0,4.063,4.413,6.494,4.413,6.494l32.282,17.605
	l32.286-17.605c0,0,4.414-2.432,4.414-6.494V86.218h30.143l30.834-57.388H144.139z"/>
<path fill="#9FA4AB" d="M141.516,31.45V9.982h-68.15V31.45H43.287L15.272,83.594h58.093v18.635c0,2.373,2.976,4.149,3.065,4.203
	l31.009,16.911l31.011-16.911c0.089-0.054,3.065-1.83,3.065-4.203V83.594h31.197L200.73,31.45H141.516z"/>
<path d="M84.682,25.196h-0.205c-0.102,1.044-0.403,1.339-1.441,1.339h-2.139v-5.948c0-0.258,0.146-0.426,0.722-0.474v-0.158
	c-0.384,0-0.845,0.065-1.275,0.065c-0.427,0-0.888-0.065-1.126-0.065v0.158c0.438,0.067,0.574,0.157,0.574,0.474v5.948
	c0,0.315-0.136,0.403-0.574,0.472v0.156h5.372C84.601,26.513,84.625,25.847,84.682,25.196z"/>
<path d="M87.622,27.347c1.553,0,2.737-0.993,2.737-2.774c0-1.396-0.958-2.771-2.659-2.771c-1.577,0-2.725,1.17-2.725,2.737
	C84.975,26.173,86.045,27.347,87.622,27.347z M87.655,22.434c1.284,0,1.735,1.363,1.735,2.354c0,0.968-0.519,1.926-1.61,1.926
	c-1.252,0-1.836-1.226-1.836-2.375C85.944,22.931,86.911,22.434,87.655,22.434z"/>
<path d="M92.567,24.97c1.329,0.271,1.611,0.371,1.611,0.957c0,0.495-0.451,0.855-1.306,0.855c-0.723,0-1.399-0.159-1.792-1.003
	h-0.136l0.088,1.173c0.497,0.26,1.072,0.395,1.635,0.395c1.479,0,2.342-0.621,2.342-1.679c0-0.992-0.551-1.297-1.733-1.521
	c-0.98-0.182-1.464-0.316-1.464-0.847c0-0.595,0.542-0.935,1.352-0.935c0.642,0,1.183,0.305,1.384,0.914h0.158v-1.26
	c-0.482-0.081-0.979-0.217-1.473-0.217c-1.456,0-2.323,0.7-2.323,1.702C90.91,24.306,91.506,24.756,92.567,24.97z"/>
<path d="M99.917,27.406v-0.157c-0.473-0.012-0.586-0.113-0.586-0.281c0-0.158,0.068-0.451,0.181-0.756l0.552-1.552h2.423
	l0.461,1.236c0.235,0.62,0.304,0.813,0.304,1.013c0,0.218-0.123,0.305-0.518,0.34v0.157c0.44,0,0.878-0.065,1.317-0.065
	c0.293,0,0.574,0.065,0.869,0.065v-0.157c-0.408-0.081-0.464-0.155-0.757-0.914l-1.903-4.968c-0.204-0.525-0.339-0.92-0.384-1.238
	c-0.19,0.035-0.394,0.068-0.584,0.068c-0.281,0-0.576-0.033-0.856-0.068v0.158c0.247,0.057,0.359,0.089,0.359,0.351
	c0,0.137-0.032,0.258-0.067,0.37l-2.004,5.498c-0.227,0.621-0.326,0.731-0.711,0.743v0.157c0.338,0,0.677-0.065,1.016-0.065
	C99.322,27.341,99.624,27.406,99.917,27.406z M101.257,21.3h0.023l1.002,2.794h-2.026L101.257,21.3z"/>
<path d="M107.273,27.406v-0.157c-0.316-0.035-0.608-0.155-0.608-0.428v-2.536c0-0.958,0.597-1.608,1.343-1.608
	c0.527,0,0.958,0.269,0.958,1.104v2.896c0,0.246-0.049,0.506-0.065,0.73c0.199-0.021,0.582-0.065,0.775-0.065
	c0.258,0,0.559,0.044,0.775,0.065V27.25c-0.428-0.046-0.52-0.19-0.52-0.53v-2.76c0-1.352-0.724-1.984-1.801-1.984
	c-0.608,0-1.149,0.35-1.444,0.901h-0.022c0-0.269,0.012-0.651,0.033-0.901c-0.404,0.148-1.025,0.361-1.519,0.508v0.092
	c0.383,0.021,0.516,0.125,0.516,0.507v3.739c0,0.271-0.29,0.393-0.605,0.428v0.157c0.382-0.033,0.688-0.065,1.091-0.065
	C106.585,27.341,106.891,27.373,107.273,27.406z"/>
<path d="M112.668,27.361h1.734c0.521,0,0.838,0.067,0.838,0.598c0,0.777-0.948,1.06-1.566,1.06c-0.642,0-1.251-0.384-1.251-1.05
	c0-0.167,0.042-0.325,0.103-0.472l-0.732,0.328c-0.1,0.212-0.137,0.326-0.137,0.518c0,1.003,1.193,1.169,1.984,1.169
	c1.43,0,2.5-0.764,2.5-1.744c0-0.641-0.383-1.308-1.824-1.308h-1.86c-0.448,0-0.663-0.248-0.663-0.427c0-0.214,0.1-0.34,0.55-0.656
	c0.326,0.183,0.677,0.282,1.05,0.282c1.566,0,2.186-0.899,2.186-1.801c0-0.473-0.191-0.913-0.527-1.216l0.021-0.025
	c0.171,0.06,0.357,0.083,0.564,0.083c0.143,0,0.301-0.023,0.449-0.069l0.135-0.563c-0.865,0.186-1.72-0.092-2.625-0.092
	c-1.476,0-2.096,1.025-2.096,1.858c0,0.485,0.202,0.936,0.52,1.297l-0.98,0.611c-0.068,0.143-0.079,0.326-0.079,0.492
	C111.001,27.114,111.71,27.361,112.668,27.361z M113.4,22.542c0.824,0,1.141,0.774,1.141,1.427c0,0.574-0.257,1.13-0.938,1.13
	c-0.811,0-1.139-0.856-1.139-1.544C112.465,23.013,112.816,22.542,113.4,22.542z"/>
<path d="M119.218,27.52c0.968,0,1.767-0.292,2.308-0.777l0.076-0.732c-0.908,0.645-1.25,0.744-1.826,0.744
	c-1.305,0-2.183-0.924-2.172-2.211h4.26c0-1.551-0.858-2.567-2.569-2.567c-1.575,0-2.726,1.174-2.726,2.739
	C116.568,26.347,117.637,27.52,119.218,27.52z M119.305,22.542c0.891,0,1.454,0.572,1.454,1.441h-3.09
	C117.76,23.159,118.459,22.542,119.305,22.542z"/>
<path d="M123.248,20.176v6.646c0,0.271-0.294,0.393-0.605,0.428v0.157c0.379-0.033,0.685-0.065,1.094-0.065
	c0.4,0,0.707,0.032,1.092,0.065V27.25c-0.313-0.035-0.607-0.155-0.607-0.428v-6.116c0-0.529,0.033-1.06,0.055-1.588
	c-0.404,0.157-1.162,0.359-1.688,0.508v0.088c0.1,0.021,0.174,0.036,0.258,0.054C123.145,19.859,123.248,19.915,123.248,20.176z"/>
<path d="M128.162,27.52c0.968,0,1.77-0.292,2.311-0.777l0.074-0.732c-0.908,0.645-1.248,0.744-1.826,0.744
	c-1.308,0-2.184-0.924-2.174-2.211h4.26c0-1.551-0.858-2.567-2.568-2.567c-1.574,0-2.725,1.174-2.725,2.739
	C125.514,26.347,126.58,27.52,128.162,27.52z M128.249,22.542c0.89,0,1.455,0.572,1.455,1.441h-3.091
	C126.705,23.159,127.404,22.542,128.249,22.542z"/>
<path d="M133.215,25.145c1.331,0.268,1.613,0.369,1.613,0.956c0,0.493-0.451,0.856-1.307,0.856c-0.725,0-1.4-0.155-1.795-1.004
	h-0.131l0.09,1.174c0.494,0.258,1.068,0.393,1.633,0.393c1.477,0,2.343-0.619,2.343-1.677c0-0.992-0.554-1.3-1.734-1.523
	c-0.979-0.181-1.464-0.317-1.464-0.842c0-0.601,0.541-0.936,1.352-0.936c0.642,0,1.185,0.302,1.385,0.909h0.158v-1.26
	c-0.483-0.081-0.979-0.216-1.478-0.216c-1.45,0-2.317,0.701-2.317,1.702C131.563,24.476,132.158,24.927,133.215,25.145z"/>
<path d="M90.293,77.775c0,0-3.969,0-1.739-4.078l15.709-28.979l-0.041,7.349h-1.952v0.675h1.949l-0.022,4.091h-5.009v0.677h5.006
	l-0.014,2.313h-7.787v0.676h7.783l-0.032,5.972h-4.38v0.672h4.376l-0.005,0.771H94.66v0.677h9.472l-0.021,3.611h-3.864v0.676h3.861
	l-0.017,3.129H93.213v0.675h10.874l-0.021,3.799h3.713l20.435-38.546c2.229-4.08,5.822-4.08,5.822-4.08l0.981-1.796h-12.154
	l-0.98,1.796c0,0,3.896,0,3.098,2.941h-8.737v0.677h8.489c-0.066,0.147-0.142,0.302-0.23,0.462l-1.195,2.234h-5.232v0.676h4.871
	l-3.094,5.777h-5.341v0.676h4.978l-7.411,13.837l0.64-29.076H100.94l-0.979,1.796c0,0,2.433,0.002,2.813,1.642h-4.931v0.673h4.97
	c-0.043,0.482-0.225,1.062-0.609,1.766l-0.432,0.789H93.02V43.4h8.38l-3.104,5.681H91.67v0.675h6.256L96.24,52.84h-9v0.676h8.63
	l-3.578,6.548h-4.955v0.677h4.586l-2.159,3.95H81.17v0.672h8.227l-0.264,0.485h-4.591v0.673h4.224l-2.107,3.854h-7.317v0.676h6.95
	l-1.45,2.651c-2.229,4.079-5.822,4.079-5.822,4.079l-1.476,2.701h11.273L90.293,77.775z"/>
<path d="M91.852,41.932c2.229-4.08,5.822-4.08,5.822-4.08l0.981-1.796H82.532l-0.982,1.796c0,0,3.482,0,3.552,2.219h-7.493v0.676
	h7.418c-0.083,0.352-0.236,0.745-0.478,1.186l-1.247,2.282h-7.717v0.675h7.348l-2.188,4.003H67.877v0.759H80.33l-2.662,4.872h-9.984
	v0.673h9.617l-0.212,0.387h-7.284v0.675h6.916l-1.106,2.022H64.503v0.676h10.742l-4.525,8.282h-5.637v0.675h5.269l-2.844,5.204
	h-4.641v0.675h4.271c-2.226,3.982-5.266,3.984-5.266,3.984l-1.476,2.701h13.986l1.477-2.701c0,0-3.594,0-1.363-4.078L91.852,41.932z
	"/>
<path d="M59.15,74.036l-0.367-21.313l13.32-11.428c1.929-1.643,4.139-3.443,6.49-3.443l0.981-1.796H68.3l-0.98,1.796
	c0.747,0,2.712,0.432,2.517,1.689h-2.923v0.673h2.648c-0.149,0.234-0.364,0.491-0.653,0.771h-5.464v0.674h4.699l-1.796,1.544h-7.046
	v0.673h6.261l-7.409,6.358H54.87v0.678h2.497L47.245,59.6L56.9,41.931c2.229-4.08,7.331-4.08,7.331-4.08l0.981-1.796H48.585
	l-0.981,1.796c0,0,2.563,0,2.64,1.932h-8.956v0.672h8.889c-0.088,0.422-0.269,0.909-0.581,1.477l-0.668,1.225h-7.449v0.672h7.08
	l-2.421,4.434h-8.32v0.671h7.952l-4.476,8.191h-8.582v0.674h8.213l-1.314,2.407h-5.647v0.675h5.277l-0.578,1.061h-3.06v0.674h2.691
	l-2.214,4.049h-7.896v0.67h7.531l-3.477,6.364c-2.229,4.078-5.822,4.078-5.822,4.078l-1.475,2.701h16.241l1.477-2.701
	c0,0-3.969,0-1.741-4.078l9.737-12.827l0.133,8.101h-5.455v0.676H50.8l0.031,1.927h-2.994v0.675h3.005l0.019,1.156h-4.757v0.675
	h4.766c0.014,3.114-2.75,3.698-3.957,3.698l-1.477,2.701h13.33l1.477-2.701C59.214,77.775,59.131,76.456,59.15,74.036z"/>
<path d="M148.875,62.19c2.229-4.082,5.82-4.082,5.82-4.082l0.98-1.796h-16.115l-0.98,1.796c0,0,3.893,0.001,3.518,2.628h-10.731
	v0.677h10.56c-0.088,0.24-0.203,0.498-0.355,0.777l-1.521,2.784h-4.925v0.676h4.558l-0.947,1.732h-6.211v0.673h5.844l-0.527,0.965
	h-9.749v0.676h9.382l-1.396,2.552c-0.026,0.05-0.056,0.098-0.08,0.146h-5.884v0.676h5.496c-1.697,2.845-3.537,4.401-7.018,4.401
	c-4.324,0-6.766-4.407,1.318-19.204c9.191-16.821,16.381-19.98,19.832-19.98c2.734,0,4.177,1.147,4.906,2.603h-8.35v0.676h8.635
	c0.33,0.961,0.416,1.992,0.397,2.889h-12.5v0.676h12.466c-0.078,1.026-0.263,1.748-0.263,1.748h2.207l5.913-10.821h-3.338
	c0,0-0.933,1.707-1.953,1.707c-2.221,0-4.645-2.484-10.17-2.484c-3.688,0-8.826,2.034-14.209,6.672h-4.526v0.674h3.767
	c-0.603,0.544-1.209,1.123-1.813,1.733h-3.013v0.677h2.355c-3.242,3.401-6.486,7.771-9.47,13.232
	c-2.583,4.725-3.654,9.121-3.442,12.779h-2.934v0.676h2.99c0.117,1.104,0.354,2.137,0.707,3.08h-5.526v0.676h5.808
	c0.198,0.438,0.426,0.855,0.676,1.25h-4.268v0.676h4.742c1.868,2.434,4.859,3.854,8.758,3.854c8.219,0,13.335-5.808,15.945-10.584
	L148.875,62.19z"/>
<path d="M189.07,36.616c0,0-0.902,1.651-2.08,1.651c-1.893,0-3.412-2.989-9.473-2.989c-5.496,0-12.261,2.716-15.938,9.444
	c-1.109,2.03-1.766,3.819-2.068,5.418h-14.947v0.676h14.84c-0.115,0.856-0.125,1.656-0.047,2.405h-6.313v0.673h6.408
	c0.034,0.197,0.075,0.392,0.123,0.581h-3.644v0.675h3.836c1.274,3.856,4.918,6.298,7.551,8.862h-9.36v0.674h10.022
	c0.555,0.592,1.037,1.194,1.418,1.83h-12.211v0.676h12.564c0.573,1.262,0.703,2.666,0.112,4.332h-8.15V72.2h7.877
	c-0.104,0.229-0.22,0.463-0.352,0.702c-0.011,0.021-0.025,0.046-0.038,0.07h-5.657v0.674h5.216
	c-1.281,1.752-4.636,4.894-11.597,4.894c-8.127,0-5.038-10.167-5.038-10.167h-1.994l-6.715,12.285h3.273l1.463-2.678
	c0,0,4.443,3.274,10.914,3.274c4.486,0,12.273-0.663,16.477-8.353c9.75-17.845-12.797-17.375-6.463-28.968
	c1.936-3.539,5.766-5.592,8.518-5.592c2.688,0,4.694,1.387,5.83,3.221h-3.791v0.675h4.16c0.194,0.405,0.35,0.826,0.463,1.251h-7.996
	v0.676h8.143c0.172,1.064,0.089,2.139-0.281,3.089h2.176l5.813-10.639L189.07,36.616L189.07,36.616z"/>
<path d="M97.998,111.861c0.693,0,1.259-0.564,1.259-1.266c0-0.693-0.565-1.254-1.259-1.254c-0.697,0-1.26,0.561-1.26,1.254
	C96.738,111.297,97.3,111.861,97.998,111.861z"/>
<path d="M102.719,111.861c0.695,0,1.257-0.564,1.257-1.266c0-0.693-0.562-1.254-1.257-1.254c-0.697,0-1.259,0.561-1.259,1.254
	C101.46,111.297,102.022,111.861,102.719,111.861z"/>
<path d="M107.441,111.861c0.695,0,1.258-0.564,1.258-1.266c0-0.693-0.563-1.254-1.258-1.254c-0.696,0-1.261,0.561-1.261,1.254
	C106.18,111.297,106.745,111.861,107.441,111.861z"/>
<path d="M112.162,111.861c0.695,0,1.261-0.564,1.261-1.266c0-0.693-0.565-1.254-1.261-1.254c-0.696,0-1.26,0.561-1.26,1.254
	C110.902,111.297,111.465,111.861,112.162,111.861z"/>
<path d="M116.885,111.861c0.694,0,1.258-0.564,1.258-1.266c0-0.693-0.563-1.254-1.258-1.254c-0.697,0-1.26,0.561-1.26,1.254
	C115.625,111.297,116.188,111.861,116.885,111.861z"/>
<path d="M125.023,99.634c0.01-0.629-0.078-1.243-0.248-1.837c0.398-0.211,0.67-0.632,0.67-1.117c0-0.693-0.563-1.259-1.262-1.259
	c-0.17,0-0.332,0.033-0.48,0.095c-0.229-0.341-0.479-0.672-0.747-0.985c0.288-0.231,0.472-0.587,0.472-0.98
	c0-0.7-0.564-1.261-1.259-1.261c-0.42,0-0.792,0.203-1.021,0.52c-0.439-0.345-0.893-0.65-1.342-0.914
	c0.062-0.146,0.092-0.309,0.092-0.479c0-0.693-0.563-1.26-1.26-1.26c-0.518,0-0.961,0.313-1.154,0.758
	c-0.521-0.119-1.063-0.186-1.604-0.21c-0.143-0.543-0.636-0.94-1.218-0.94c-0.628,0-1.147,0.463-1.244,1.064
	c-0.41,0.055-0.792,0.122-1.135,0.189c-0.195-0.439-0.638-0.746-1.15-0.746c-0.521,0-0.969,0.313-1.159,0.766v-4.332
	c0.344-0.225,0.57-0.612,0.57-1.059c0-0.555-0.359-1.027-0.861-1.192c-0.334-0.922-1.004-1.612-2.245-1.612
	c-1.238,0-1.909,0.69-2.243,1.612c-0.502,0.165-0.861,0.639-0.861,1.192c0,0.445,0.226,0.834,0.57,1.059v4.332
	c-0.191-0.451-0.639-0.766-1.159-0.766c-0.515,0-0.956,0.307-1.15,0.746c-0.343-0.067-0.726-0.136-1.135-0.189
	c-0.095-0.604-0.615-1.064-1.244-1.064c-0.583,0-1.075,0.397-1.219,0.94c-0.539,0.024-1.081,0.091-1.601,0.21
	c-0.194-0.445-0.639-0.758-1.156-0.758c-0.697,0-1.261,0.564-1.261,1.26c0,0.17,0.034,0.332,0.094,0.479
	c-0.449,0.264-0.901,0.569-1.342,0.914c-0.229-0.315-0.601-0.52-1.019-0.52c-0.697,0-1.261,0.561-1.261,1.261
	c0,0.396,0.184,0.749,0.471,0.98c-0.267,0.313-0.517,0.646-0.744,0.985c-0.149-0.062-0.312-0.095-0.484-0.095
	c-0.696,0-1.261,0.563-1.261,1.259c0,0.485,0.271,0.906,0.67,1.117c-0.168,0.594-0.258,1.208-0.248,1.837
	c-0.617,0.081-1.092,0.609-1.092,1.247c0,0.7,0.563,1.26,1.259,1.26c0.116,0,0.226-0.015,0.329-0.043
	c0.26,0.731,0.589,1.412,0.954,2.036c-0.558,0.132-0.978,0.632-0.978,1.232c0,0.694,0.566,1.26,1.264,1.26
	c0.445,0,0.837-0.231,1.061-0.581c0.95,1.145,1.887,1.941,2.366,2.32v4.828h24.842v-4.828c0.479-0.379,1.416-1.176,2.365-2.32
	c0.226,0.35,0.616,0.581,1.063,0.581c0.695,0,1.262-0.565,1.262-1.26c0-0.603-0.418-1.103-0.977-1.232
	c0.365-0.624,0.695-1.305,0.951-2.036c0.106,0.028,0.219,0.043,0.332,0.043c0.695,0,1.261-0.56,1.261-1.26
	C126.118,100.243,125.641,99.715,125.023,99.634z M110.738,93.107c3.781,1.639,2.347,4.93,2.347,4.93
	C110.424,96.393,110.738,93.107,110.738,93.107z M105.503,86.905c0.029,0.002,0.059,0.002,0.088,0.002
	c0.697,0,1.261-0.56,1.261-1.261c0-0.574-0.386-1.061-0.914-1.209c0.181-0.461,0.739-1.09,1.501-1.09
	c0.764,0,1.321,0.629,1.504,1.09c-0.529,0.148-0.916,0.635-0.916,1.209c0,0.701,0.563,1.261,1.26,1.261c0.03,0,0.06,0,0.09-0.002
	v0.565h-3.874L105.503,86.905L105.503,86.905z M107.901,87.962v0.925h-0.922v-0.925H107.901z M105.7,91.949h3.479
	c0,0,1.493,0.984,1.318,6.882h-6.117C104.206,92.934,105.7,91.949,105.7,91.949z M108.244,101.71c-0.17-0.265-0.465-0.44-0.803-0.44
	c0,0,0,0-0.002,0h-0.001c-0.338,0-0.633,0.178-0.801,0.44c-0.58-0.464-1.472-1.415-1.01-2.257h3.626
	C109.714,100.295,108.824,101.246,108.244,101.71z M104.141,93.107c0,0,0.313,3.283-2.345,4.93
	C101.796,98.037,100.362,94.746,104.141,93.107z M103.202,92.668c-1.619,1.334-3.67,3.742-3.67,5.486
	c0,1.595,1.528,1.943,1.528,1.943l-0.804,1.603c1.154-0.444,2.114-0.575,2.114,0.909c0,1.07-0.413,1.093-0.413,1.486
	c0,0.045,0.228,0.195,0.764,0.195c0.535,0,0.982-0.087,0.982-1.331c0-1.705,0.174-2.306,0.426-2.306c0.379,0,0.23,0.926,2.369,1.422
	c-0.003,0.016-0.005,0.031-0.006,0.049c-0.004,0.032-0.005,0.064-0.005,0.098c0,0.032,0.001,0.065,0.005,0.098
	c0.048,0.481,0.452,0.855,0.945,0.855h0.001c0.002,0,0.002,0,0.002,0c0.493,0,0.898-0.374,0.947-0.855
	c0.003-0.031,0.005-0.064,0.005-0.098s-0.002-0.064-0.005-0.098c-0.002-0.018-0.004-0.033-0.007-0.049
	c2.138-0.496,1.989-1.422,2.368-1.422c0.252,0,0.427,0.601,0.427,2.306c0,1.244,0.447,1.331,0.982,1.331
	c0.536,0,0.764-0.15,0.764-0.195c0-0.395-0.414-0.416-0.414-1.486c0-1.484,0.961-1.354,2.116-0.909l-0.807-1.603
	c0,0,1.529-0.35,1.529-1.943c0-1.744-2.05-4.152-3.67-5.486c0.037-0.018,0.073-0.038,0.107-0.059
	c3.244,2.115,5.943,3.979,5.943,6.185c0,1.229-0.746,2.286-1.105,2.726c-0.169-0.155-0.396-0.25-0.645-0.25
	c-0.525,0-0.951,0.429-0.951,0.955s0.426,0.952,0.951,0.952s0.955-0.426,0.955-0.952c0-0.25-0.097-0.477-0.254-0.646
	c0.442-0.277,1.369-0.817,1.836-0.817c0.698,0,0.801,0.858,0.801,1.573c0,1.572-0.772,3.086-1.959,2.788
	c0.566,1.276-0.744,1.573-0.744,1.573v1.313h-1.981c0.06-1.172,0.498-1.103,0.498-1.103v-1.238
	c-0.854,0.255-1.369-0.159-0.407-1.085c0,0-1.537-0.485-1.537,2.119c0,0.622,0.037,1.09,0.058,1.307h-2.353
	c-0.078-0.71,0.467-1.338,0.467-1.794c0-0.699-0.976-1.436-1.754-0.908c0,0,0.707,0.377,0.707,0.82c0,0.445-0.715,0.705-1.254,0.705
	c-0.132,0-0.539-0.152-0.539,0.665c0,0.231,0.012,0.397,0.027,0.512h-2.21c0.016-0.112,0.025-0.278,0.025-0.512
	c0-0.817-0.406-0.665-0.539-0.665c-0.536,0-1.251-0.26-1.251-0.705c0-0.443,0.706-0.82,0.706-0.82
	c-0.778-0.526-1.754,0.209-1.754,0.908c0,0.456,0.544,1.084,0.468,1.794h-2.354c0.021-0.217,0.058-0.685,0.058-1.307
	c0-2.604-1.536-2.119-1.536-2.119c0.961,0.926,0.443,1.34-0.408,1.085v1.238c0,0,0.439-0.069,0.498,1.103h-1.983v-1.313
	c0,0-1.311-0.297-0.743-1.573c-1.186,0.298-1.957-1.216-1.957-2.788c0-0.715,0.1-1.573,0.799-1.573c0.468,0,1.394,0.54,1.837,0.817
	c-0.158,0.17-0.253,0.396-0.253,0.646c0,0.526,0.428,0.952,0.954,0.952c0.524,0,0.951-0.426,0.951-0.952s-0.427-0.955-0.951-0.955
	c-0.247,0-0.475,0.095-0.645,0.25c-0.359-0.438-1.107-1.496-1.107-2.726c0-2.204,2.701-4.069,5.944-6.185
	C103.129,92.63,103.165,92.65,103.202,92.668z M90.344,99.661c-0.01-0.583,0.076-1.16,0.236-1.72
	c0.039,0.002,0.077,0.004,0.114,0.004c0.698,0,1.261-0.565,1.261-1.268c0-0.342-0.137-0.65-0.359-0.881
	c0.237-0.357,0.501-0.705,0.785-1.033c0.105,0.027,0.217,0.043,0.332,0.043c0.695,0,1.26-0.564,1.26-1.259
	c0-0.101-0.013-0.194-0.032-0.286c0.453-0.365,0.925-0.688,1.396-0.968c0.229,0.233,0.549,0.379,0.904,0.379
	c0.696,0,1.26-0.56,1.26-1.259c0-0.01,0-0.021,0-0.03c0.473-0.11,0.97-0.171,1.467-0.194c0.079,0.619,0.609,1.099,1.249,1.099
	c0.597,0,1.096-0.415,1.228-0.972c0.374,0.052,0.727,0.113,1.043,0.177c0,0.011,0,0.024,0,0.037c0,0.317,0.117,0.608,0.313,0.833
	c-3.522,0.726-7.847,2.168-8.022,7.787h-3.728C90.881,99.915,90.633,99.738,90.344,99.661z M92.573,104.574
	c-0.177-0.221-0.426-0.381-0.711-0.442c-0.417-0.679-0.791-1.431-1.074-2.247c0.244-0.185,0.418-0.457,0.475-0.771h3.521
	c0.055,1.319,0.29,2.48,0.59,3.461L92.573,104.574L92.573,104.574z M92.853,105.536h2.855c0.522,1.33,1.106,2.187,1.317,2.473
	h-1.684C94.866,107.637,93.851,106.78,92.853,105.536z M119.38,112.714H95.5v-4.224h23.881L119.38,112.714L119.38,112.714z
	 M119.538,108.009h-1.685c0.211-0.286,0.795-1.143,1.316-2.473h2.855C121.029,106.78,120.014,107.637,119.538,108.009z
	 M123.018,104.132c-0.285,0.062-0.535,0.222-0.711,0.442h-2.801c0.301-0.979,0.535-2.143,0.592-3.461h3.521
	c0.059,0.313,0.229,0.587,0.476,0.771C123.811,102.701,123.436,103.453,123.018,104.132z M123.831,100.15h-3.728
	c-0.177-5.619-4.5-7.063-8.023-7.787c0.195-0.225,0.314-0.516,0.314-0.833c0-0.013-0.002-0.026-0.002-0.037
	c0.316-0.063,0.668-0.125,1.045-0.177c0.131,0.557,0.629,0.972,1.227,0.972c0.641,0,1.17-0.479,1.25-1.099
	c0.496,0.023,0.992,0.084,1.467,0.194c0,0.011-0.001,0.021-0.001,0.03c0,0.699,0.563,1.259,1.261,1.259
	c0.354,0,0.674-0.146,0.902-0.379c0.473,0.278,0.943,0.603,1.396,0.968c-0.021,0.092-0.032,0.187-0.032,0.286
	c0,0.693,0.563,1.259,1.262,1.259c0.113,0,0.224-0.016,0.33-0.043c0.283,0.328,0.549,0.676,0.785,1.033
	c-0.222,0.229-0.36,0.539-0.36,0.881c0,0.701,0.565,1.268,1.262,1.268c0.039,0,0.076-0.002,0.113-0.004
	c0.163,0.56,0.247,1.137,0.24,1.72C124.249,99.738,123.998,99.915,123.831,100.15z"/>
<circle cx="107.439" cy="93.485" r="0.952"/>
<circle cx="107.439" cy="96.786" r="0.953"/>
</svg>
