<?xml version="1.0" encoding="utf-8"?>
<!-- Generator: Adobe Illustrator 26.5.0, SVG Export Plug-In . SVG Version: 6.00 Build 0)  -->
<svg version="1.1" id="Layer_1" xmlns="http://www.w3.org/2000/svg" xmlns:xlink="http://www.w3.org/1999/xlink" x="0px" y="0px"
	 viewBox="0 0 512 512" style="enable-background:new 0 0 512 512;" xml:space="preserve">
<style type="text/css">
	.st0{fill:#EEE3C6;}
	.st1{fill:#015836;}
	.st2{fill:#BF2B37;}
	.st3{fill:#EFB410;}
	.st4{fill:#FFFFFF;}
</style>
<g id="XMLID_1_">
	<path id="XMLID_3_" class="st0" d="M291.81,421.24l139.71-137.33l-29.6-0.14L511.9,166.51c0,0-25.67-7.57-33.95-9.12l17.53-14.03
		c-29.18-7.57-89.78-17.11-154.02-12.91c0,0-13.75-39.7-66.63-39.7c-60.46,0-74.91,46.57-74.91,46.57s-72.52,15.15-139.01,58.21
		l14.31,10.8c0,0-29.88,15.29-75.33,51.34c4.91,20.34,24.69,46.57,26.65,48.96c7.86,5.33,34.79,19.64,55.55,26.79
		c3.79-0.98,11.36-4.07,11.36-4.07c2.38,0.98,13.75,4.07,16.83,4.49c-2.24,13.33,7.72,20.9,7.72,20.9l-6.87,3.79
		c0,0,9.26,20.9,54.85,31.7C269.09,367.38,291.81,421.24,291.81,421.24"/>
	<path id="XMLID_4_" class="st1" d="M10.56,261.19c4.77,12.76,13.75,27.21,22.16,38.86c2.67,2.38,29.04,16.13,49.8,23.99
		c2.24-0.28,9.12-3.37,10.24-4.21c1.26,0,16.41,6.73,36.19,6.73c7.01,0,12.34-0.7,12.34-2.1c0-1.26-2.95-2.67-4.21-3.37
		c-4.07-1.82-9.4-3.37-9.4-7.72c0-4.35,8-10.1,43.91-10.1c22.58,0,37.59,1.26,37.59,1.26v2.52c-11.64,0-23.57,1.68-31.56,3.65
		c-5.05,1.26-13.05,3.65-13.05,6.17c0,4.63,20.76,4.63,20.76,14.03c0,7.57-7.72,15.71-36.33,15.71c-15.43,0-27.91-5.05-28.9-5.05
		c-1.12,0-1.26,0.42-1.26,0.7c0,0.56,0.84,2.24,2.52,4.49c2.24,3.09,6.17,6.87,13.05,9.26l-9.26,5.19
		c10.52,10.66,35.91,18.1,41.1,19.5c0,0,87.11-22.86,127.51,26.51l110.54-114.88l-26.23-0.14L483,172.82c0,0-20.06-7.29-40.4-11.22
		l13.89-10.8c0,0-69.86-14.59-126.53-9.96c0,0-10.66-39.98-60.18-39.98c-47.97,0-63.54,44.19-63.54,44.19s-57.09,9.26-129.19,50.92
		l15.43,11.78C92.48,208.17,59.38,223.6,10.56,261.19"/>
	<path id="XMLID_5_" class="st2" d="M65.97,292.19c0,0,9.54,2.95,35.07,1.26l29.32-17.96l22.44,7.29l6.87-9.54h-7.29l14.87-24.13
		l12.62,24.13h-5.75l3.79,8.42l15.99-2.95l6.59-8.56h-5.89l8.98-13.61h-6.87l14.03-24.13l12.2,24.69h-5.61l8.7,14.59h-6.73
		l13.19,23.99l12.76-18.38h-8.84l13.33-20.34h-8.56l19.5-33.81l16.83,33.81h-7.01l11.36,20.34H274l11.08,24.55l19.08-30.72h-10.52
		l15.43-25.39h-9.54l20.9-41.94l21.6,44.19h-7.57l13.89,23.15h-9.54l10.94,22.58L367,267.22h-9.26l20.34-29.32h-10.94l32.54-44.75
		l17.39,31l36.19-44.61c0,0-62.98-26.51-155.98-26.51c-123.44,0-193.44,43.34-193.44,43.34s81.08-28.34,170.01-28.34
		c64.95,0,103.52,14.73,103.52,14.73s-83.18-0.42-216.72,35.77c21.74,0,34.65,6.31,34.65,6.31s-54.29,9.68-130.17,42.22l9.68,14.45
		L65.97,292.19z"/>
	<path id="XMLID_6_" class="st3" d="M238.23,200.31c8.28,7.15,19.08,11.5,30.86,11.5c17.39,0,32.54-9.4,40.82-23.43
		C289.85,190.91,265.86,194.7,238.23,200.31"/>
	<path id="XMLID_7_" class="st3" d="M222.09,158.65c-0.28,1.96-0.42,3.93-0.42,5.89c0,2.24,0.14,4.35,0.42,6.59
		c16.41-1.82,33.81-2.95,51.48-2.95c15.71,0,29.74,0.84,42.22,2.1c0.28-1.96,0.42-3.79,0.42-5.75c0-3.79-0.42-7.57-1.26-11.22
		c-5.75-0.14-11.78-0.28-17.81-0.28C269.37,153.04,244.4,155.14,222.09,158.65"/>
	<path id="XMLID_8_" class="st3" d="M310.47,141.68c-8-14.59-23.57-24.41-41.38-24.41c-24.13,0-44.05,18.1-46.85,41.38
		C243.14,150.79,278.2,144.2,310.47,141.68"/>
	<path id="XMLID_9_" class="st4" d="M273.57,181.94c-20.06,0.7-56.81,2.38-116.43,17.25l0,0c-0.7-4.63-1.26-8.28-1.26-8.28
		s-2.38,3.93-5.47,9.4c-15.15,5.47-33.81,13.33-46.15,19.92c7.57-2.67,22.72-7.57,42.64-13.19c-2.1,3.93-4.07,8.28-5.75,12.2
		l10.38-9.4c0,0,7.15,4.07,7.57,3.93c-0.14-2.52-0.56-5.61-0.98-8.84C189.97,196.52,231.21,186.84,273.57,181.94"/>
</g>
</svg>
