<?xml version="1.0" encoding="utf-8"?>
<!-- Generator: Adobe Illustrator 26.5.0, SVG Export Plug-In . SVG Version: 6.00 Build 0)  -->
<svg version="1.1" id="Layer_1" xmlns="http://www.w3.org/2000/svg" xmlns:xlink="http://www.w3.org/1999/xlink" x="0px" y="0px"
	 viewBox="0 0 512 512" style="enable-background:new 0 0 512 512;" xml:space="preserve">
<style type="text/css">
	.st0{fill:#21386F;}
	.st1{fill:#FFFFFF;}
	.st2{fill:#BE2F37;}
</style>
<g id="XMLID_1_">
	<path id="XMLID_8_" class="st0" d="M453.75,252.27l40.12-42.92l-19.08-88.79l-85.85-25.81l-8.56,8.56c0,0-70.28-20.9-132-20.9
		C119.89,82.4,0.1,151.28,0.1,255.5c0,99.03,94.83,173.8,248.28,173.8c141.26,0,263.72-90.34,263.72-90.34L453.75,252.27z
		 M176,297.02c0,0-49.1-17.96-49.1-40.4c0-28.34,49.1-41.1,49.1-41.1V297.02z M264.94,306.14c-9.82,1.4-22.86,0.84-22.86,0.84
		v-21.32h22.86V306.14z M264.94,225.62h-22.86V204.3c20.48,0,20.06,0.42,22.86,0.84V225.62z M329.18,292.95v-73.92
		c50.08,14.73,77.71,41.1,77.71,41.1S368.74,282.43,329.18,292.95z"/>
	<path id="XMLID_13_" class="st1" d="M438.04,261.39c-42.5,28.48-83.04,46.29-127.37,54.57V196.86
		c83.88,15.85,116.43,57.37,116.43,57.37l47.69-49.66l-16.27-70.56l-64.95-18.24l-8.56,8.56c0,0-60.6-24.27-143.08-24.27
		c-131.3,0-223.88,75.89-223.88,155.98c0,87.25,91.6,155.42,221.77,155.42c138.45,0,247.72-76.73,247.72-76.73L438.04,261.39z
		 M242.49,190.83c12.48,0,24.27,0.56,35.49,1.54v47.55h-49.1v-48.82C233.24,190.97,237.72,190.83,242.49,190.83z M108.95,256.34
		c0-17.11,11.5-51.9,85.15-62.42v123.86C107.69,303.89,108.95,256.34,108.95,256.34z M228.75,321.29v-50.08h49.1v49.24
		c-10.1,0.84-20.34,1.26-31,1.26C240.53,321.57,234.5,321.43,228.75,321.29z"/>
	<path id="XMLID_14_" class="st2" d="M387.96,139.77l9.54-10.52l51.48,15.29l11.5,57.23l-35.35,35.35c0,0-57.23-59.2-185.44-59.2
		c-100.86,0-143.36,43.06-143.36,76.31s38.15,80.1,148.13,80.1c112.92,0,190.21-55.41,190.21-55.41l34.37,51.48
		c0,0-93.56,68.45-232.85,68.45c-110.26,0-204.8-54.99-204.8-144.2c0-81.08,96.51-141.54,210.41-141.54
		C337.32,113.12,387.96,139.77,387.96,139.77z"/>
</g>
</svg>
