<?xml version="1.0" encoding="utf-8"?>
<!-- Generator: Adobe Illustrator 26.5.0, SVG Export Plug-In . SVG Version: 6.00 Build 0)  -->
<svg version="1.1" id="Layer_1" xmlns="http://www.w3.org/2000/svg" xmlns:xlink="http://www.w3.org/1999/xlink" x="0px" y="0px"
	 viewBox="0 0 512 512" style="enable-background:new 0 0 512 512;" xml:space="preserve">
<style type="text/css">
	.st0{fill:#FFFFFF;}
	.st1{fill:#FDBB30;}
	.st2{fill:#002D62;}
</style>
<g id="XMLID_1_">
	<path id="XMLID_3_" class="st0" d="M162.3,182.55c0,0-19.78,7.99-33.38,28.61c6.17-1.68,13.04-3.37,20.48-5.19
		C155.29,191.8,162.3,182.55,162.3,182.55"/>
	<path id="XMLID_4_" class="st0" d="M443.36,225.32c12.34,3.37,22.02,7.71,22.02,7.71s16.69,10.52,24.26-2.95l-25.53-12.06
		C456.82,222.24,449.81,224.34,443.36,225.32"/>
	<path id="XMLID_5_" class="st0" d="M96.94,181.85l90.74-20.34c0,0,3.65,11.64,19.07,21.04l-0.28,2.8
		c-7.15,1.4-18.51,6.03-29.17,14.45c16.27-3.09,34.22-5.75,53.57-7.57l4.63-10.8c-28.47,4.21-41.23-20.06-41.23-20.06l-2.24-7.43
		L26.82,191.24c17.81,1.26,37.45,6.87,55.4,15.99C86.42,192.93,96.94,181.85,96.94,181.85"/>
	<path id="XMLID_6_" class="st0" d="M373.51,227.15c-7.57,3.79-14.17,8.98-21.6,15.29l8.56-16.13c0,0-22.58-0.98-44.32-0.56
		l-14.17,15.57c-5.33-1.54-10.8-2.52-16.55-2.66c-0.28-7.85,2.8-16.83,9.68-25.39c-9.12,6.87-14.73,15.71-15.85,25.53
		c-4.07,0.28-7.99,0.98-11.78,2.1c-1.96-6.59-1.82-14.59,1.26-23.28c-5.33,8.13-7.57,16.69-6.45,24.96
		c-3.79,1.4-7.43,3.23-10.8,5.33c-3.37-5.05-5.33-11.78-5.47-19.92c-1.96,8.27-1.4,15.99,1.54,22.58
		c-12.06,8.98-17.53,19.92-17.53,19.92c-38.43-6.87-61.57,25.24-62.41,47.68c-2.38-15.71,2.52-43.34,33.52-56.52l10.24-23.98
		c0.7-1.54,1.54-2.8,2.52-4.07c-34.5,6.45-55.82,20.06-55.82,20.06s-9.26,16.69-5.33,33.66c0,0-6.03-8.27-9.68-22.3
		c-1.54,1.54-2.95,2.8-3.93,3.93c1.26,4.91,1.96,10.1,1.96,15.43c0,25.1-10.52,40.95-10.52,40.95l35.2,7.15
		c0,0,13.32,19.35,41.79,19.35c8.98,0,20.9-0.98,20.9-6.73c0-4.35-10.66-10.24-10.66-22.86c0-20.48,25.67-41.65,53.29-50.77
		c32.26-10.66,81.48-23,106.17-23c70.26,0,67.88,46.42,67.88,46.42l3.37-0.14c15.57-8.84,29.45-10.52,33.52-10.8
		C488.8,258.98,476.04,236.26,373.51,227.15"/>
	<path id="XMLID_9_" class="st0" d="M287.54,178.06c-14.87,0.56-26.51,6.03-35.48,12.76c11.64-0.7,23.7-1.12,36.04-1.12
		c6.03-7.99,9.68-16.69,9.68-25.81c0-15.71-8.13-24.96-8.13-24.96l39.13-8.7l12.2,6.03c0,0-28.75,11.08-28.75,42.21
		c0,4.49,0.7,8.41,1.68,12.06c20.62,0.98,42.07,3.37,63.67,7.29c0,0,7.01,16.97,26.37,16.97c9.4,0,16.55-5.19,16.55-5.19
		c20.9,15.85,40.11,7.15,40.11,7.15l-7.15-6.03l-6.87,3.65l4.21-6.45l-2.66-2.95l-9.26,4.77l5.75-8.84l-1.96-2.38l-7.85,3.51
		l4.49-7.57l-3.09-4.91c-2.95,12.9-14.45,14.45-24.26,13.6l-0.56-5.75c-2.1,1.4-4.63,2.1-7.43,2.1c-7.71,0-14.02-6.31-14.02-14.02
		c0-4.35-21.74-23.84-21.74-23.84l28.19,8.7c23.56,7.29,22.58,18.93,22.86,25.38c3.93,1.68,12.9,3.09,16.97-6.31l-2.95-15.43
		l-18.79-9.12l-12.9-12.06l-72.09-29.17l-70.97,15.71c16.69,4.07,30.57,12.76,30.57,12.76S294.55,164.45,287.54,178.06
		 M428.77,180.3l-3.51,13.6c0-10.24-6.03-16.13-23.98-26.79L428.77,180.3z"/>
	<path id="XMLID_10_" class="st0" d="M91.75,212.56c3.51,2.1,6.87,4.35,10.1,6.73c2.95-0.98,6.45-2.1,10.38-3.37
		c6.17-23.28,18.65-38.85,18.65-38.85C104.8,186.75,93.86,207.93,91.75,212.56"/>
	<path id="XMLID_11_" class="st0" d="M199.18,159.27c0,0,10.38,17.67,28.89,17.67l19.21-1.26L263,159.27l21.46-3.37
		c-7.99-4.77-16.97-8.27-26.09-10.8l-17.95,25.1l11.5-26.65c-3.37-0.7-6.73-1.4-9.96-1.82l-15.57,21.6l9.54-22.44
		c-4.07-0.56-7.99-0.84-11.78-1.12l-11.92,16.55l7.15-16.83c-16.69-0.7-29.03,0.7-29.03,0.7l4.07,3.51L199.18,159.27L199.18,159.27z
		"/>
	<path id="XMLID_12_" class="st0" d="M223.45,324.76c2.24,10.24,9.12,13.18,9.82,16.97c0,0,17.81-3.65,29.59-21.18
		C239.86,332.05,223.45,324.76,223.45,324.76"/>
	<path id="XMLID_13_" class="st0" d="M431.44,282.4c0-9.96-16.55-19.63-24.4-19.63c-32.26,0-31.7,68.44-145.3,126.36
		C358.51,375.11,431.44,309.33,431.44,282.4"/>
	<path id="XMLID_16_" class="st1" d="M497.49,224.34c-0.56-1.4-1.68-2.66-3.09-3.23l-26.93-13.04l-8.27-6.31l-12.06-15.01
		l-3.93-17.81c-0.42-1.68-1.54-3.23-3.09-4.07l-18.93-10.8l-11.92-11.92c-0.56-0.56-1.26-0.98-1.96-1.4l-74.05-32.26
		c-1.12-0.56-2.52-0.7-3.79-0.42l-100.84,20.2c-27.49-2.1-51.47,1.26-52.59,1.4c-6.17,0.98-6.17,7.71-4.07,9.82L21.07,169.64
		c-1.54,0.28-2.8,1.12-3.79,2.38L1.29,193.07c-2.8,3.79-0.7,9.4,4.21,10.1c1.12,0.14,110.38,15.15,110.38,81.34
		c0,24.4-16.69,48.39-16.97,48.67c-2.38,3.37-0.98,8.98,4.07,9.82l61.71,11.08c4.63,3.79,20.34,14.73,43.2,14.73
		c27.07,0,34.64-10.24,36.46-18.65c13.46-5.75,30.29-19.21,30.29-30.15c0-6.73-6.17-11.36-11.78-11.36c-0.7,0-1.26,0.28-1.82,0.28
		c0,0-2.95-5.33-9.82-5.33c-2.95,0-6.17,1.54-8.7,2.52c6.17-7.15,16.41-15.57,32.82-21.04c25.24-8.41,58.06-15.43,74.47-18.79
		c-24.96,72.79-110.66,110.94-111.64,111.36c-5.05,2.24-4.21,8.7-2.1,9.96l-9.4,4.21c-6.73,2.95-3.79,12.62,3.09,12.06
		c90.46-7.71,156.94-39.41,203.22-96.63h18.65c1.12,0,2.1-0.28,3.09-0.84c18.23-10.24,30.43-9.82,30.57-9.82
		c2.52,0.14,4.91-1.26,6.03-3.51c8.98-18.37,18.79-28.05,18.79-28.19c1.4-1.4,2.66-3.93,1.4-6.87L497.49,224.34z M485.57,290.68
		c0,0-13.6-0.84-33.94,10.52h-17.11l-3.23-1.68c-46.14,59.47-111.92,90.6-202.24,98.31c0,0,30.71-13.46,47.26-22.3l-35.76,8.13
		c0,0,97.19-42.07,118.37-125.38c0,0-50.07,9.26-85.83,21.04c-35.34,11.64-44.88,37.31-44.88,37.31
		c12.62-1.12,19.07-6.59,22.86-6.59c4.63,0,6.31,4.77,5.05,7.43c2.1-0.84,4.63-2.38,6.59-2.38c2.24,0,5.47,1.96,5.47,5.05
		c0,7.71-17.11,21.6-29.73,25.67c0,4.63-1.82,16.83-30.57,16.83c-24.68,0-40.53-14.45-40.53-14.45l-63.25-11.36
		c0,0,18.09-25.53,18.09-52.31c0-72.65-115.85-87.66-115.85-87.66l15.99-21.04l163.25-32.68l-8.56-7.29c0,0,24.54-3.65,52.03-1.4
		l101.68-20.34l74.05,32.26l12.48,12.62l19.63,11.22l4.35,19.35l13.46,16.69l9.4,7.29l27.49,13.32l13.88,34.08
		C505.63,260.81,495.25,271.04,485.57,290.68"/>
	<path id="XMLID_17_" class="st1" d="M465.38,233.04c0,0-9.68-4.35-22.02-7.71c-19.21,2.8-33.8-5.33-33.8-5.33
		c-15.85,0-26.79,2.52-36.04,7.15c102.52,8.98,115.42,31.7,108.55,56.94c0.84,0,1.12-0.14,1.12-0.14s6.87-12.9,15.01-22.3
		c0,0-10.38-21.88-47.12-23.7L465.38,233.04L465.38,233.04z"/>
	<path id="XMLID_18_" class="st1" d="M149.26,205.97c-7.43,1.68-14.31,3.51-20.48,5.19c-4.21,6.45-7.85,14.02-10.1,22.86
		c9.82,10.38,17.11,22.3,20.34,35.34c0.98-1.12,2.24-2.38,3.93-3.93c-1.54-5.89-2.52-12.76-2.52-20.48
		C140.42,230.51,144.49,216.77,149.26,205.97"/>
	<path id="XMLID_19_" class="st1" d="M377.72,197.55c-21.74-3.93-43.06-6.17-63.67-7.29c4.07,14.45,14.31,22.44,14.31,22.44
		l-12.06,13.18c21.6-0.42,44.32,0.56,44.32,0.56l-8.56,16.13l22.3-24.54L377.72,197.55z"/>
	<path id="XMLID_20_" class="st1" d="M229.06,219.57l-10.94,2.52l12.76-29.73c-19.35,1.82-37.31,4.63-53.57,7.57
		c-15.29,11.92-29.59,31.7-29.59,60.87c0,14.73,4.91,26.65,4.91,26.65c-3.93-16.97,5.33-33.66,5.33-33.66s21.32-13.6,55.82-20.06
		c2.38-2.95,5.89-4.91,11.08-6.17c24.68-6.45,50.07-20.34,63.39-38.01c-12.34,0-24.4,0.42-36.04,1.12
		C235.93,202.88,229.06,219.57,229.06,219.57"/>
	<path id="XMLID_21_" class="st1" d="M110.13,225.74c0.56-3.37,1.26-6.73,2.1-9.82c-3.93,1.26-7.43,2.38-10.38,3.37
		C104.66,221.26,107.46,223.5,110.13,225.74"/>
	<path id="XMLID_22_" class="st1" d="M406.05,195.17c2.95,0,5.05-1.4,5.05-1.4c-0.14-0.98-0.42-1.96-0.7-2.95
		c-0.7,0.42-1.68,0.84-2.95,0.84c-3.23,0-5.19-2.38-5.19-5.19c0-2.24,1.54-4.35,3.79-4.91c-2.8-3.93-5.61-5.61-5.61-5.61
		s-4.91,2.8-4.91,8.84C395.67,190.82,400.72,195.17,406.05,195.17"/>
	<path id="XMLID_29_" class="st2" d="M464.11,213.4l-9.4-7.29l-13.46-16.69l-4.35-19.35l-19.63-11.22l-12.48-12.62l-74.05-32.26
		L229.06,134.3c-27.49-2.24-52.03,1.4-52.03,1.4l8.56,7.29L22.33,175.81L6.34,196.85c0,0,115.85,15.01,115.85,87.66
		c0,26.79-18.09,52.31-18.09,52.31l63.25,11.36c0,0,15.71,14.31,40.53,14.31c28.75,0,30.57-12.06,30.57-16.83
		c12.62-4.07,29.73-17.95,29.73-25.67c0-3.09-3.23-5.05-5.47-5.05c-1.96,0-4.49,1.54-6.59,2.38c1.26-2.66-0.56-7.43-5.05-7.43
		c-3.79,0-10.38,5.47-22.86,6.59c0,0,9.68-25.67,44.88-37.31c35.62-11.78,85.83-21.04,85.83-21.04
		c-21.32,83.31-118.37,125.52-118.37,125.52l35.9-8.13c-16.55,8.84-47.26,22.3-47.26,22.3c90.32-7.71,156.1-38.85,202.24-98.31
		l3.09,1.68h17.11c20.34-11.36,33.94-10.52,33.94-10.52c9.68-19.78,20.06-29.87,20.06-29.87l-13.88-34.08L464.11,213.4z
		 M219.52,139.49l-7.15,16.83l11.92-16.55c3.79,0.28,7.71,0.56,11.78,1.12l-9.54,22.44l15.57-21.6c3.37,0.56,6.59,1.12,9.96,1.82
		l-11.5,26.79l17.95-25.1c9.12,2.52,18.23,5.89,26.09,10.8l-21.46,3.37l-15.71,16.41l-19.21,1.26c-18.51,0-28.89-17.67-28.89-17.67
		l-4.63-15.57l-4.07-3.51C190.49,140.05,202.69,138.79,219.52,139.49 M110.13,225.74c-2.66-2.24-5.47-4.49-8.27-6.59
		c-3.23-2.38-6.59-4.63-10.1-6.73c2.1-4.63,13.18-25.81,38.99-35.48c0,0-12.48,15.43-18.65,38.85
		C111.39,219.01,110.55,222.38,110.13,225.74 M262.72,320.55c-11.78,17.53-29.59,21.18-29.59,21.18c-0.7-3.79-7.43-6.73-9.82-16.97
		C223.45,324.76,239.86,332.05,262.72,320.55 M261.88,389.13c113.46-57.92,113.04-126.36,145.3-126.36c7.85,0,24.4,9.68,24.4,19.63
		C431.44,309.33,358.51,375.11,261.88,389.13 M498.19,261.79c-7.99,9.4-15.01,22.3-15.01,22.3s-0.42,0-1.12,0
		c-4.07,0.28-17.81,1.96-33.52,10.8l-3.37,0.14c0,0,2.24-46.42-67.88-46.42c-24.82,0-74.05,12.34-106.17,23
		c-27.63,9.12-53.29,30.29-53.29,50.77c0,12.62,10.66,18.51,10.66,22.86c0,5.75-11.92,6.73-20.9,6.73
		c-28.61,0-41.79-19.35-41.79-19.35l-35.2-7.15c0,0,10.52-15.85,10.52-40.95c0-5.33-0.7-10.38-1.96-15.43
		c-3.23-13.04-10.52-24.96-20.34-35.34c2.24-8.98,5.89-16.55,10.1-22.86c13.6-20.48,33.38-28.61,33.38-28.61s-7.01,9.26-13.04,23.42
		c-4.63,10.8-8.84,24.54-8.84,38.99c0,7.71,1.12,14.59,2.52,20.48c3.65,14.02,9.68,22.3,9.68,22.3s-4.91-12.06-4.91-26.65
		c0-29.31,14.31-48.95,29.59-60.87c10.8-8.41,22.02-13.04,29.17-14.45l0.28-2.8c-15.43-9.4-19.07-21.04-19.07-21.04l-90.74,20.34
		c0,0-10.52,11.08-14.87,25.24c-17.95-9.12-37.59-14.73-55.4-15.99l165.21-37.03l2.24,7.43c0,0,12.76,24.26,41.23,20.06l-4.63,10.8
		l-12.76,29.73l10.94-2.52c0,0,6.87-16.69,23.14-28.89c8.84-6.73,20.48-12.06,35.34-12.76c6.87-13.6,1.54-25.81,1.54-25.81
		s-13.88-8.7-30.57-12.76l70.97-15.71l72.09,29.17l12.9,12.06l18.79,9.12l2.95,15.43l3.09,4.77l-4.49,7.57l7.85-3.51l1.96,2.38
		l-5.75,8.84l9.26-4.77l2.66,2.95l-4.21,6.45l6.87-3.65l7.15,5.89c0,0-19.21,8.7-40.11-7.15c0,0-7.15,5.19-16.55,5.19
		c-19.35,0-26.37-16.97-26.37-16.97l-3.51,20.34l-22.3,24.54c7.43-6.31,14.02-11.5,21.6-15.29c9.26-4.63,20.2-7.15,36.04-7.15
		c0,0,14.59,7.99,33.8,5.33c6.45-0.98,13.46-3.09,20.62-7.29l25.53,12.06c-7.43,13.6-24.26,2.95-24.26,2.95l-14.17,4.91
		C487.82,239.91,498.19,261.79,498.19,261.79"/>
	<path id="XMLID_32_" class="st2" d="M419.37,195.73c-0.28-6.31,0.7-18.09-22.86-25.39l-28.19-8.7c0,0,21.74,19.49,21.74,23.84
		c0,7.71,6.31,14.02,14.02,14.02c2.66,0,5.19-0.84,7.43-2.1l0.56,5.75c9.82,0.84,21.32-0.7,24.26-13.6
		C432.28,198.82,423.3,197.41,419.37,195.73 M406.05,195.17c-5.33,0-10.38-4.35-10.38-10.38c0-6.03,4.91-8.84,4.91-8.84
		s2.8,1.68,5.61,5.61c-2.24,0.56-3.79,2.66-3.79,4.91c0,2.66,1.96,5.19,5.19,5.19c1.26,0,2.24-0.42,2.95-0.84
		c0.28,0.98,0.42,1.96,0.7,2.95C411.1,193.77,408.86,195.17,406.05,195.17"/>
	<path id="XMLID_33_" class="st2" d="M425.27,193.91l3.51-13.6l-27.49-13.18C419.23,177.78,425.27,183.67,425.27,193.91"/>
	<path id="XMLID_34_" class="st2" d="M340.98,136.12l-12.2-6.03l-39.13,8.7c0,0,8.13,9.26,8.13,24.96c0,9.12-3.65,17.95-9.68,25.81
		c-13.32,17.67-38.71,31.56-63.39,38.01c-5.05,1.26-8.56,3.37-11.08,6.17c-0.98,1.26-1.82,2.52-2.52,4.07l-10.24,23.98
		c-30.85,13.18-35.9,40.81-33.52,56.52c0.84-22.58,24.12-54.7,62.41-47.68c0,0,5.47-10.94,17.53-19.92
		c-2.95-6.59-3.51-14.31-1.54-22.58c0.14,8.13,2.24,14.87,5.47,19.92c3.37-2.1,7.01-3.93,10.8-5.33
		c-1.12-8.27,1.12-16.83,6.45-24.96c-2.95,8.7-3.23,16.83-1.26,23.28c3.79-0.98,7.71-1.68,11.78-2.1
		c1.12-9.82,6.73-18.65,15.85-25.53c-6.87,8.56-9.96,17.53-9.68,25.38c5.75,0.14,11.36,0.98,16.55,2.66l14.17-15.57l11.92-13.18
		c0,0-10.1-7.85-14.31-22.44c-0.98-3.65-1.68-7.71-1.68-12.06C312.36,147.06,340.98,136.12,340.98,136.12"/>
</g>
</svg>
