<?xml version="1.0" encoding="utf-8"?>
<!-- Generator: Adobe Illustrator 26.5.0, SVG Export Plug-In . SVG Version: 6.00 Build 0)  -->
<svg version="1.1" id="Layer_1" xmlns="http://www.w3.org/2000/svg" xmlns:xlink="http://www.w3.org/1999/xlink" x="0px" y="0px"
	 viewBox="0 0 512 512" style="enable-background:new 0 0 512 512;" xml:space="preserve">
<style type="text/css">
	.st0{fill:#FFFFFF;}
	.st1{fill:#F47D30;}
	.st2{fill:#00539B;}
</style>
<g id="XMLID_1_">
	<path id="XMLID_5_" class="st0" d="M256,8.98C114.6,8.98,0,119.65,0,256s114.6,247.02,256,247.02S512,392.49,512,256
		C512,119.65,397.4,8.98,256,8.98 M256,484.79c-131.3,0-237.76-102.4-237.76-228.79S124.7,27.21,256,27.21S493.76,129.61,493.76,256
		S387.3,484.79,256,484.79"/>
	<path id="XMLID_6_" class="st0" d="M263.15,327.54c-1.26,2.67-3.93,4.63-7.01,5.05L153.6,346.76c-0.84,0.14-1.68,0.56-2.24,1.4
		c-0.56,0.7-0.84,1.68-0.7,2.52l6.31,40.96c0.14,0.98,0.7,1.82,1.54,2.38c0.84,0.56,1.82,0.7,2.67,0.56l10.1-2.38l6.03-23.57
		c0.14-0.84,0.98-1.26,1.82-1.12l19.92,4.91c0.56,0.14,1.12,0.7,1.12,1.26l1.82,11.36l12.76-3.09v-5.19c0-0.56,0.28-1.12,0.7-1.4
		c0.42-0.42,0.98-0.56,1.54-0.42l15.85,1.82c0.42,0,0.84,0.28,1.12,0.56l30.44-7.29c2.67-0.7,4.91-2.52,6.17-5.05l18.94-40.26
		l-19.92-10.1L263.15,327.54L263.15,327.54z"/>
	<polygon id="XMLID_7_" class="st0" points="273.81,306.08 272.13,309.3 291.91,319.54 293.59,316.18 	"/>
	<polygon id="XMLID_8_" class="st0" points="280.97,291.49 280.27,292.75 299.77,302.71 301.45,299.34 281.95,289.39 	"/>
	<polygon id="XMLID_9_" class="st0" points="277.88,297.8 276.2,301.03 295.84,311.13 297.52,307.76 	"/>
	<path id="XMLID_10_" class="st0" d="M344.93,161.32L297.52,59.06c-0.56-1.26-1.82-1.96-3.09-1.96h-82.34
		c-1.96,0-3.37,1.54-3.37,3.37v66.91l-36.19-70c-21.6,8.42-41.52,19.92-59.2,33.95v124.56c0,1.82,1.54,3.37,3.37,3.37h46.71
		c1.82,0,3.37-1.54,3.37-3.37v-55.69l34.37,57.51c0.56,0.98,1.68,1.68,2.95,1.68h52.46c1.82,0,3.37-1.54,3.37-3.37V108.01
		l54.01,116.15l-6.45,13.05l-23.29,47.27l19.36,9.96l2.52-5.47l11.78-25.11l5.75-12.34l11.92-25.53L398.66,91.6
		c-4.63-3.79-9.54-7.29-14.45-10.66L344.93,161.32L344.93,161.32z"/>
	<path id="XMLID_11_" class="st0" d="M331.05,305.66c-17.39,0-31.42,4.77-31.42,10.66c0,5.89,14.03,10.52,31.42,10.52
		c17.25,0,31.42-4.77,31.42-10.52C362.33,310.43,348.3,305.66,331.05,305.66"/>
	<polygon id="XMLID_12_" class="st1" points="289.67,324.45 291.91,319.54 272.13,309.3 269.61,314.35 	"/>
	<path id="XMLID_13_" class="st1" d="M168.89,304.25c8.28-9.26,19.92,1.68,29.74-4.21c7.57-3.93,14.03,2.95,22.16,1.68
		c5.05-0.14,12.76-5.75,17.25,0.98c3.79,1.82,8.98,1.12,12.06-1.26c1.96-7.15,10.1-4.35,15.57-6.03c3.51-0.84,10.52-4.35,15.29-4.07
		l0.98-1.96l19.5,9.96l2.38-5.05l-19.36-9.96l23.29-47.27c-13.75-2.24-30.86,6.87-42.92,0.56c-13.89-0.42-30.02,0.42-42.22-6.03
		c-8-1.26-16.55-1.12-23.71-4.07c-3.93,7.29-8.28-2.38-12.91-0.98c-2.81,0.84-5.19,3.93-4.63,7.29c-1.4,7.57-10.66,3.09-15.29,6.31
		c-8.7,4.91-13.47-7.43-21.74-7.43c-5.61-1.54-12.34-0.84-15.43,4.91c-4.91,1.26-7.29-5.05-12.91-3.09
		c-3.79-2.38,1.68-4.07,0.28-6.87c-3.09-3.51-8.98-5.89-13.47-3.09c-0.84,5.89,5.47,10.94,2.1,17.25c-3.37,0.7-3.09-4.07-5.89-5.19
		c-3.23-1.54-3.37,2.38-5.05,3.79c-6.17-0.28-4.91-7.15-6.87-10.94c-7.15-1.12-12.91,3.23-18.8,5.89c-4.21,3.09-1.4,9.96-5.05,13.19
		c-2.81-2.1-2.52-6.03-5.19-8.56c-2.38-1.54-5.05-2.67-8-1.68c-2.67,0.7-3.37,2.81-3.93,5.19c0,1.4,1.4,2.52,2.95,2.1
		c1.82,0.42,3.09,2.52,2.38,4.21c-0.98,1.26-1.54,3.79-3.65,3.37c-2.38-2.24-5.61-5.33-8.98-4.07c-1.4,1.26,0,2.95,0,4.21
		c-1.54,5.05,2.24,8,4.91,11.64c0.98,3.93,1.26,9.82-1.68,12.62c-4.07,0.84-5.05,5.33-5.47,8.84c0.98,3.51,4.77,3.23,6.17,6.03
		c0.7,2.38-1.82,4.21-3.93,5.47c0.84,3.93,1.82,7.72,2.81,11.64c2.52-0.98,5.33-1.96,7.01-1.68c1.4,0.7,2.38,1.96,2.38,3.37
		c1.26,2.67,4.07,5.19,7.29,3.65c3.23-1.4,6.03-5.75,9.4-3.93v-28.9L82.48,295v14.87c5.47-0.14,11.78,0.42,16.83-1.54
		c10.1,0.7,22.02,3.51,30.72-2.24c7.72-1.4,14.87-3.93,23.15-3.93C158.65,302.15,163.56,304.68,168.89,304.25"/>
	<path id="XMLID_14_" class="st1" d="M340.73,241.97c5.47-7.29,19.64,1.4,21.46-9.82c2.24-5.89,8.84-3.65,12.91-6.59
		c1.26-2.24-0.98-3.65-1.4-5.61c5.47-5.89,12.76-9.96,18.52-15.99c4.21-4.07,10.66-3.23,15.99-3.23c2.52-1.54,6.03-3.65,6.59-6.59
		l-0.7-0.98c-7.57-1.12-15.85,0.28-22.86,2.52c-7.86,7.15-16.55,12.2-26.09,15.15c-6.45,8.14-19.78,12.06-29.46,15.29l-11.92,25.53
		C329.92,249.83,338.06,245.48,340.73,241.97"/>
	<polygon id="XMLID_15_" class="st1" points="297.52,307.76 299.77,302.71 280.27,292.75 277.88,297.8 	"/>
	<polygon id="XMLID_16_" class="st1" points="276.2,301.03 273.81,306.08 293.59,316.18 295.84,311.13 	"/>
	<path id="XMLID_19_" class="st1" d="M256,27.21C124.7,27.21,18.24,129.61,18.24,256S124.7,484.79,256,484.79
		S493.76,382.39,493.76,256S387.3,27.21,256,27.21 M256,470.06c-123.3,0-223.18-95.81-223.18-214.06
		c0-66.21,31.28-125.26,80.38-164.54c17.67-14.03,37.59-25.53,59.2-33.95c25.81-9.96,54.01-15.57,83.6-15.57
		c47.83,0,92.16,14.59,128.49,39.14c5.05,3.37,9.82,6.87,14.45,10.66c42.78,34.37,71.96,83.6,78.69,139.57l-4.77,1.54
		c-2.81,10.52-15.01,3.51-20.2,11.08c-6.59,0.42-13.75,0.98-17.11,7.57c-2.1,0.7-5.05,0.7-5.89-1.96c1.4-6.03-8.56-8.14-3.93-14.59
		c-0.28-2.81-3.65-3.09-5.75-2.24c-4.35,1.68-4.77,6.31-5.19,10.1c-6.03,1.12-6.45-9.4-12.91-6.87c-6.59,6.31-15.01,9.26-24.55,7.57
		c-16.83-1.26-22.44,20.76-36.89,25.39c-6.17,0.98-15.57-2.67-22.3-5.05l-11.78,25.11l6.87-1.68c4.63-1.12,8.14-4.07,12.34-6.31
		c6.73,5.05,7.86-4.77,13.19-5.19c3.51-0.84,6.31,2.24,8.56,4.77c8.14,3.51,17.96,1.12,24.55-4.35c7.15-3.09,16.13-1.82,23.43-4.91
		c4.77-3.23,9.54-7.01,16.27-5.89c20.2-6.87,46.29-15.57,67.19-22.86c0.28,4.49,0.42,8.98,0.42,13.61
		C479.18,374.25,379.3,470.06,256,470.06"/>
	<path id="XMLID_20_" class="st1" d="M122.32,337.22L101,318c-8.28-7.43-14.03-0.84-14.03,3.79v19.78c0,3.79,1.26,6.03,2.95,8.28
		l19.22,25.25c1.12,1.4,1.54,2.81,1.54,4.49v2.81c0,2.24-1.96,2.1-3.51,0.7l-4.21-3.51c-1.54-1.12-1.4-3.51-1.4-5.61v-2.52
		c0-1.4-1.4-3.79-2.95-5.05l-9.68-8.84c-1.4-1.4-2.24-0.28-2.24,3.51v11.5c0,2.95,1.96,8.98,6.45,13.05l22.02,19.92
		c5.33,4.77,9.96,0.14,9.96-10.94v-12.62c0-6.31-2.81-12.62-6.03-16.97l-16.27-21.18c0,0-1.4-1.96-1.4-4.35v-2.1
		c0,0,0.56-3.23,3.09-0.84l4.07,3.79c1.12,0.98,1.82,2.52,1.82,4.21v2.95c0,1.68,0.42,3.09,2.1,4.49l7.72,7.01
		c3.23,2.95,4.91,0.84,4.91-1.82v-11.92C125.55,341.01,123.72,338.34,122.32,337.22"/>
	<path id="XMLID_21_" class="st1" d="M158.37,419.28l-11.64-6.87v-58.21c0-0.7-0.42-1.26-0.98-1.68l-10.94-6.45
		c-0.56-0.28-1.26-0.42-1.96,0c-0.56,0.28-0.98,0.98-0.98,1.68v68.87c0,0.7,0.28,1.26,0.98,1.68l23.57,14.03
		c0.56,0.28,1.26,0.42,1.96,0c0.56-0.28,0.98-0.98,0.98-1.68v-9.54C159.35,420.26,158.93,419.7,158.37,419.28"/>
	<path id="XMLID_24_" class="st1" d="M202.13,384.63l-1.82-11.36c-0.14-0.56-0.56-1.12-1.12-1.26l-19.92-4.91
		c-0.84-0.14-1.68,0.28-1.82,1.12l-6.03,23.71l-10.52,40.96c-0.14,0.84,0.28,1.54,0.98,1.82l11.78,3.79
		c0.42,0.14,0.84,0.14,1.26-0.14c0.42-0.28,0.56-0.56,0.7-0.98l3.09-11.92l15.99,5.19l2.38,14.59c0.14,0.56,0.42,0.98,0.98,1.26
		l12.2,3.93c0.56,0.14,1.12,0,1.4-0.28c0.42-0.42,0.56-0.84,0.56-1.4L202.13,384.63L202.13,384.63z M181.94,412.55l6.03-23.99
		l4.35,27.49L181.94,412.55z"/>
	<path id="XMLID_25_" class="st1" d="M267.64,380.56l-10.94-1.26c-0.56,0-1.12,0.14-1.54,0.42c-0.42,0.42-0.7,0.84-0.7,1.4v38.29
		l-20.2-41.94c-0.14-0.14-0.28-0.28-0.42-0.42c-0.28-0.28-0.7-0.56-1.12-0.56l-15.85-1.82c-0.56-0.14-1.12,0.14-1.54,0.42
		c-0.42,0.42-0.7,0.84-0.7,1.4v5.19v67.89c0,0.98,0.7,1.82,1.68,1.82l10.94,1.54c0.56,0.14,1.12-0.14,1.54-0.42
		c0.42-0.42,0.7-0.84,0.7-1.4v-44.33l23.85,46.57c0.28,0.7,1.12,1.12,1.82,0.98l12.2-0.7c0.98,0,1.82-0.84,1.82-1.82v-69.16
		C269.33,381.4,268.62,380.7,267.64,380.56"/>
	<path id="XMLID_28_" class="st1" d="M309.87,373.69l-30.58,6.03c-0.84,0.14-1.54,0.98-1.54,1.82v68.87c0,0.56,0.28,1.12,0.7,1.4
		c0.42,0.42,0.98,0.56,1.54,0.42l29.88-5.33c14.73-2.67,14.73-11.5,14.73-13.47v-54.01C324.59,379.58,324.59,370.74,309.87,373.69
		 M309.87,427.84c0,0,0,6.45-5.75,7.57l-11.64,2.1v-46.29l10.94-2.24c6.45-1.26,6.45,4.77,6.45,4.77V427.84L309.87,427.84z"/>
	<path id="XMLID_29_" class="st1" d="M362.61,353.07c-0.42-0.28-0.98-0.28-1.54-0.14l-27.63,13.47c-0.56,0.28-0.84,0.84-0.84,1.4
		v69.3c0,0.56,0.28,0.98,0.7,1.26c0.42,0.28,0.98,0.28,1.4,0.14l27.63-12.48c0.56-0.28,0.84-0.84,0.84-1.4v-9.82
		c0-0.56-0.28-0.98-0.7-1.26c-0.42-0.28-0.98-0.28-1.4-0.14l-11.64,5.19c-0.42,0.14-0.98,0.14-1.4-0.14c-0.42-0.28-0.7-0.7-0.7-1.26
		v-13.05c0-0.56,0.42-1.12,0.84-1.4l14.17-6.31c0.56-0.28,0.84-0.84,0.84-1.4v-9.82c0-0.56-0.28-0.98-0.7-1.26
		c-0.42-0.28-0.98-0.28-1.54,0l-11.5,5.61c-0.42,0.28-0.98,0.14-1.54-0.14c-0.42-0.28-0.7-0.7-0.7-1.26v-14.03
		c0-0.56,0.28-1.12,0.84-1.4l14.17-6.87c0.56-0.28,0.84-0.84,0.84-1.4v-10.24C363.31,353.91,363.03,353.35,362.61,353.07"/>
	<path id="XMLID_32_" class="st1" d="M395.85,375.65c0,0,8.7-6.45,8.7-18.1v-18.1c0-9.68-6.17-10.52-13.19-5.75l-23.15,15.85
		c-0.42,0.28-0.7,0.7-0.7,1.26v68.45c0,0.56,0.28,1.12,0.84,1.4c0.56,0.28,1.12,0.28,1.54-0.14l11.64-8c0.42-0.28,0.7-0.7,0.7-1.26
		v-26.37l2.38-1.68l12.91,16.83c0.56,0.7,1.4,0.84,2.1,0.28l8.56-5.89c0.28-0.28,0.56-0.56,0.7-0.98c0-0.42,0-0.84-0.28-1.12
		L395.85,375.65L395.85,375.65z M391.36,359.94c0,2.52-1.4,5.33-3.23,6.59l-3.37,2.24c-0.42,0.28-1.12,0.42-1.54,0.14
		c-0.56-0.28-0.84-0.84-0.84-1.4v-12.2c0-0.56,0.28-0.98,0.7-1.26l4.77-3.37c1.96-1.26,3.51,0,3.51,1.96V359.94z"/>
	<path id="XMLID_33_" class="st1" d="M428.12,296.4l-14.87,16.41c-3.79,4.21-4.63,8.84-4.63,14.03v7.01c0,4.91,0.98,9.26,7.29,10.52
		l8.14,1.82c2.67,0.56,4.07,1.26,4.07,3.23v1.82c0,2.81-0.7,3.65-1.82,4.77c-1.26,1.12-3.93,4.07-3.93,0.42v-3.09
		c0-2.52-1.12-2.52-2.67-0.98l-9.4,9.68c-1.12,0.98-1.68,2.24-1.68,4.21v6.17c0,11.08,5.75,13.19,11.5,5.47l14.03-18.52
		c5.75-7.57,5.75-15.29,5.75-19.64c0-5.19-4.49-7.43-7.72-8l-6.87-1.12c-2.38-0.42-3.09-2.1-3.09-4.49v-3.79
		c0-1.12,0-4.07,1.96-6.17l1.4-1.4c1.4-1.54,2.52-1.54,2.52,1.26v5.33c0,1.12,0.56,1.82,1.54,0.7l8.56-8.84
		c1.4-1.54,1.68-3.79,1.68-5.47v-8.98C439.9,289.53,433.45,290.37,428.12,296.4"/>
	<path id="XMLID_34_" class="st1" d="M67.61,311.27v39.42l10.52,15.01c2.67,3.79,4.35,2.81,4.35-0.42v-54.99
		C77.71,311.69,72.1,310.01,67.61,311.27"/>
	<path id="XMLID_35_" class="st1" d="M362.33,333.71v-17.39c0,5.89-14.03,10.52-31.42,10.52c-17.39,0-31.42-4.77-31.42-10.52v17.39
		c0,5.89,14.03,10.52,31.42,10.52C348.3,344.23,362.33,339.6,362.33,333.71"/>
	<path id="XMLID_36_" class="st2" d="M82.34,310.29v-14.87l-14.73-12.91v28.76C72.1,310.01,77.71,311.69,82.34,310.29"/>
	<path id="XMLID_45_" class="st2" d="M478.61,242.39c-20.9,7.29-46.99,15.85-67.19,22.86c-6.87-1.12-11.5,2.67-16.27,5.89
		c-7.15,3.09-16.27,1.82-23.43,4.91c-6.59,5.47-16.41,7.72-24.55,4.35c-2.24-2.52-5.05-5.47-8.56-4.77
		c-5.47,0.56-6.59,10.38-13.19,5.19c-4.07,2.1-7.72,5.19-12.34,6.31l-6.87,1.68l-2.52,5.47l-2.38,5.05l-1.54,3.37l-2.38,5.05
		l-1.54,3.37l-2.38,5.05l-1.54,3.37l-2.38,5.05l-18.94,40.26c-1.26,2.52-3.51,4.35-6.17,5.05l-30.44,7.29
		c0.14,0.14,0.28,0.28,0.42,0.42l20.2,41.94v-38.29c0-0.56,0.28-1.12,0.7-1.4c0.42-0.42,0.98-0.56,1.54-0.42l10.94,1.26
		c0.98,0.14,1.68,0.98,1.68,1.82v69.16c0,0.98-0.84,1.82-1.82,1.96l-12.2,0.7c-0.7,0-1.4-0.42-1.82-0.98l-23.85-46.57v44.19
		c0,0.56-0.28,1.12-0.7,1.4c-0.42,0.42-0.98,0.56-1.54,0.42l-10.94-1.54c-0.98-0.14-1.68-0.98-1.68-1.82v-67.89l-12.76,3.09
		l10.1,64.11c0.14,0.56-0.14,1.12-0.56,1.4c-0.42,0.42-0.98,0.42-1.4,0.28l-12.2-3.93c-0.56-0.14-0.98-0.7-0.98-1.26l-2.24-14.59
		l-15.99-5.19l-3.09,11.92c-0.14,0.42-0.42,0.7-0.7,0.98c-0.42,0.14-0.84,0.28-1.26,0.14l-11.78-3.79c-0.7-0.28-1.26-0.98-0.98-1.82
		l10.52-40.96l-10.24,2.38c-0.98,0.28-1.96,0-2.67-0.56c-0.84-0.56-1.4-1.4-1.54-2.38l-6.31-40.96c-0.14-0.84,0.14-1.82,0.7-2.52
		c0.56-0.7,1.4-1.26,2.24-1.4l102.54-14.17c3.09-0.42,5.61-2.24,7.01-5.05l6.45-13.19l2.38-4.91l1.68-3.37l2.38-4.91l1.68-3.37
		l2.38-4.91l0.7-1.26c-4.77-0.28-11.78,3.23-15.29,4.07c-5.47,1.68-13.61-1.12-15.57,6.03c-3.23,2.38-8.42,3.09-12.06,1.26
		c-4.35-6.73-12.06-1.12-17.25-0.98c-8.14,1.26-14.59-5.47-22.16-1.68c-9.82,5.89-21.46-5.19-29.74,4.21
		c-5.19,0.42-10.24-2.1-15.85-1.68c-8.28,0-15.43,2.52-23.15,3.93c-8.7,5.75-20.62,2.95-30.72,2.24c-5.05,2.1-11.36,1.54-16.83,1.68
		v54.99c0,3.23-1.68,4.21-4.35,0.42l-10.52-15.01v-39.42c-3.37-1.82-6.31,2.52-9.4,3.93c-3.23,1.54-5.89-1.12-7.29-3.65
		c0-1.4-0.98-2.67-2.38-3.37c-1.68-0.28-4.49,0.7-7.01,1.68c-1.12-3.79-1.96-7.72-2.81-11.64c2.1-1.26,4.63-3.09,3.93-5.47
		c-1.4-2.95-5.19-2.67-6.17-6.03c0.42-3.51,1.4-8,5.47-8.84c3.09-2.81,2.67-8.7,1.68-12.62c-2.81-3.65-6.45-6.45-4.91-11.5
		c0-1.4-1.4-3.09,0-4.21c3.37-1.4,6.59,1.82,8.98,4.07c2.24,0.42,2.81-2.1,3.65-3.23c0.84-1.82-0.56-3.79-2.38-4.21
		c-1.54,0.42-2.95-0.7-2.95-2.1c0.56-2.38,1.26-4.49,3.93-5.19c2.81-0.98,5.61,0.14,8,1.68c2.67,2.52,2.38,6.45,5.19,8.56
		c3.51-3.37,0.84-10.1,5.05-13.19c5.89-2.67,11.64-7.01,18.8-5.89c1.96,3.79,0.7,10.66,6.87,10.94c1.68-1.54,1.82-5.33,5.05-3.79
		c2.81,1.12,2.52,5.89,5.89,5.19c3.37-6.17-2.95-11.22-2.24-17.25c4.49-2.95,10.38-0.42,13.47,3.09c1.4,2.95-4.07,4.49-0.28,6.87
		c5.47-2.1,8,4.35,12.91,3.09c3.09-5.75,9.82-6.45,15.43-4.91c8.28-0.14,13.05,12.34,21.74,7.43c4.77-3.23,13.89,1.26,15.29-6.31
		c-0.56-3.23,1.82-6.31,4.63-7.29c4.63-1.4,8.98,8.28,12.91,0.98c7.29,2.95,15.71,2.81,23.71,4.07c12.2,6.45,28.34,5.61,42.22,6.03
		c12.06,6.45,29.18-2.67,42.92-0.56l6.45-13.05l-54.01-116.15v108.01c0,1.82-1.54,3.37-3.37,3.37h-52.46c-1.26,0-2.38-0.7-2.95-1.68
		l-34.37-57.37v55.69c0,1.82-1.54,3.37-3.37,3.37h-46.71c-1.96,0-3.51-1.54-3.51-3.37V92.02c-49.1,39.28-80.38,98.47-80.38,164.54
		c0,118.25,99.88,214.06,223.18,214.06c123.16,0,223.18-95.81,223.18-214.06C479.18,251.37,478.9,246.88,478.61,242.39
		 M125.55,357.28c0,2.52-1.68,4.77-4.91,1.68l-7.72-7.01c-1.68-1.54-2.1-2.81-2.1-4.49v-2.95c0-1.82-0.7-3.23-1.82-4.35l-4.07-3.79
		c-2.52-2.24-3.09,0.84-3.09,0.84v2.24c0,2.52,1.4,4.49,1.4,4.49l16.27,21.18c3.23,4.35,6.03,10.66,6.03,16.97v12.62
		c0,11.08-4.63,15.71-9.96,10.94l-22.02-19.92c-4.49-4.07-6.45-10.1-6.45-13.05v-11.5c0-3.79,0.7-4.91,2.24-3.51l9.68,8.84
		c1.4,1.12,2.95,3.65,2.95,5.05v2.52c0,2.1-0.14,4.35,1.4,5.61l4.21,3.51c1.54,1.4,3.51,1.54,3.51-0.7v-2.81
		c0-1.68-0.42-3.09-1.54-4.49l-19.22-25.25c-1.68-2.24-2.95-4.49-2.95-8.28v-19.78c0-4.77,5.75-11.22,14.03-3.79l21.32,19.22
		c1.26,1.26,3.23,3.79,3.23,8.28L125.55,357.28L125.55,357.28z M159.35,430.5c0,0.7-0.42,1.26-0.98,1.68
		c-0.56,0.28-1.26,0.28-1.96,0l-23.57-14.03c-0.56-0.42-0.98-0.98-0.98-1.68V347.6c0-0.7,0.42-1.26,0.98-1.68
		c0.56-0.28,1.26-0.28,1.96,0l10.94,6.45c0.56,0.42,0.98,0.98,0.98,1.68v58.21l11.64,6.87c0.56,0.28,0.98,0.98,0.98,1.68V430.5z
		 M324.59,433.59c0,1.82,0,10.8-14.73,13.47l-29.88,5.33c-0.56,0.14-1.12,0-1.54-0.42c-0.42-0.42-0.7-0.84-0.7-1.4v-68.87
		c0-0.98,0.7-1.68,1.54-1.82l30.58-6.03c14.73-2.95,14.73,5.89,14.73,5.89V433.59L324.59,433.59z M299.63,333.71v-17.39
		c0-5.89,14.03-10.66,31.42-10.66c17.25,0,31.42,4.77,31.42,10.66v17.39c0,5.89-14.03,10.52-31.42,10.52
		C313.65,344.23,299.63,339.6,299.63,333.71 M363.31,364.57c0,0.56-0.28,1.12-0.84,1.4l-14.17,7.01c-0.56,0.28-0.84,0.7-0.84,1.4
		v14.03c0,0.56,0.28,0.98,0.7,1.26s0.98,0.28,1.54,0l11.5-5.61c0.42-0.28,0.98-0.28,1.54,0.14c0.42,0.28,0.7,0.7,0.7,1.26v9.82
		c0,0.56-0.28,1.12-0.84,1.4l-14.03,6.31c-0.56,0.28-0.84,0.84-0.84,1.4v13.19c0,0.42,0.28,0.98,0.7,1.26
		c0.42,0.28,0.98,0.28,1.4,0.14l11.64-5.19c0.42-0.28,0.98-0.14,1.4,0.14s0.7,0.7,0.7,1.26v9.82c0,0.56-0.28,1.12-0.84,1.4
		l-27.63,12.34c-0.42,0.28-0.98,0.14-1.4-0.14c-0.42-0.28-0.7-0.7-0.7-1.26v-69.3c0-0.56,0.28-1.12,0.84-1.4l27.63-13.47
		c0.42-0.28,0.98-0.14,1.54,0.14c0.42,0.28,0.7,0.7,0.7,1.26L363.31,364.57L363.31,364.57L363.31,364.57z M408.34,394.59l-8.56,5.89
		c-0.7,0.42-1.54,0.28-2.1-0.28l-12.91-16.83l-2.38,1.68v26.37c0,0.56-0.28,0.98-0.7,1.26l-11.78,8c-0.42,0.28-1.12,0.42-1.54,0.14
		c-0.56-0.28-0.84-0.84-0.84-1.4v-68.59c0-0.56,0.28-0.98,0.7-1.26l23-15.85c7.01-4.91,13.19-3.93,13.19,5.61v18.1
		c0,11.78-8.7,18.1-8.7,18.1l12.76,16.69c0.28,0.28,0.42,0.7,0.28,1.12C408.9,394.03,408.62,394.31,408.34,394.59 M439.9,307.9
		c0,1.54-0.14,3.93-1.68,5.47l-8.56,8.84c-0.98,0.98-1.68,0.42-1.68-0.7v-5.33c0-2.67-0.98-2.67-2.52-1.26l-1.4,1.4
		c-1.96,2.1-1.96,5.05-1.96,6.17v3.79c0,2.38,0.7,4.07,3.09,4.49l6.87,1.26c3.23,0.56,7.72,2.67,7.72,8c0,4.35,0,12.06-5.75,19.64
		l-13.89,18.38c-5.89,7.72-11.5,5.47-11.5-5.61v-6.17c0-1.96,0.56-3.23,1.68-4.21l9.4-9.68c1.54-1.68,2.67-1.68,2.67,0.98v3.09
		c0,3.51,2.81,0.7,3.93-0.56c1.26-1.26,1.82-1.96,1.82-4.77v-1.82c0-1.96-1.4-2.67-4.07-3.23l-8.14-1.82
		c-6.31-1.26-7.29-5.75-7.29-10.52v-7.01c0-5.19,0.84-9.82,4.63-14.03l14.87-16.41c5.47-6.03,11.78-6.87,11.78,2.38L439.9,307.9
		L439.9,307.9z"/>
	<polygon id="XMLID_46_" class="st2" points="192.32,416.05 187.97,388.56 181.94,412.55 	"/>
	<path id="XMLID_47_" class="st2" d="M208.73,60.6c0-1.82,1.54-3.37,3.37-3.37h82.34c1.4,0,2.52,0.84,3.09,1.96l47.41,102.26
		l39.56-80.24C348.16,56.53,303.83,42.08,256,42.08c-29.6,0-57.79,5.61-83.6,15.57l36.19,70L208.73,60.6z"/>
	<path id="XMLID_48_" class="st2" d="M365.27,210.69c9.4-2.95,18.1-8,26.09-15.01c7.01-2.38,15.29-3.65,22.86-2.52l0.7,0.98
		c-0.56,2.81-4.21,5.05-6.59,6.59c-5.33,0.14-11.78-0.84-15.99,3.23c-5.75,6.03-13.05,10.1-18.52,15.99
		c0.42,1.96,2.67,3.51,1.4,5.61c-4.07,2.95-10.8,0.7-12.91,6.59c-1.82,11.36-15.99,2.52-21.46,9.82c-2.67,3.51-10.66,7.86-16.83,9.4
		l-5.75,12.34c6.73,2.38,16.13,6.03,22.3,5.05c14.45-4.63,20.06-26.65,36.89-25.25c9.54,1.68,17.96-1.26,24.55-7.57
		c6.45-2.52,7.01,8,12.91,6.87c0.56-3.79,0.84-8.56,5.19-10.1c2.1-0.84,5.33-0.56,5.61,2.24c-4.63,6.45,5.33,8.56,3.93,14.59
		c0.84,2.67,3.79,2.67,5.89,1.96c3.51-6.59,10.66-7.15,17.25-7.57c5.19-7.57,17.39-0.56,20.2-11.08l4.77-1.54
		c-6.73-55.97-35.91-105.35-78.69-139.57l-63.12,134.24C345.49,222.61,358.82,218.83,365.27,210.69"/>
	<path id="XMLID_49_" class="st2" d="M387.86,350.83l-4.77,3.37c-0.42,0.28-0.7,0.7-0.7,1.26v12.2c0,0.56,0.28,1.12,0.84,1.4
		c0.56,0.28,1.12,0.28,1.54-0.14l3.37-2.24c1.82-1.26,3.23-4.07,3.23-6.59v-7.29C391.22,350.83,389.82,349.42,387.86,350.83"/>
	<path id="XMLID_50_" class="st2" d="M303.41,388.98l-10.94,2.24v46.29l11.64-2.1c5.75-0.98,5.75-7.57,5.75-7.57v-34.23
		C309.87,393.75,309.87,387.72,303.41,388.98"/>
</g>
</svg>
