<?xml version="1.0" encoding="utf-8"?>
<!-- Generator: Adobe Illustrator 26.5.0, SVG Export Plug-In . SVG Version: 6.00 Build 0)  -->
<svg version="1.1" id="Layer_1" xmlns="http://www.w3.org/2000/svg" xmlns:xlink="http://www.w3.org/1999/xlink" x="0px" y="0px"
	 viewBox="0 0 512 512" style="enable-background:new 0 0 512 512;" xml:space="preserve">
<style type="text/css">
	.st0{fill:#0161AB;}
	.st1{fill:#FFFFFF;}
	.st2{fill:#E3393F;}
</style>
<g id="XMLID_1_">
	<path id="XMLID_17_" class="st0" d="M480.66,10.91h-90.64h-7.44l-5.33,5.19l-12.49,12.07L350.45,14.7l-5.33-4.91h-1.54h-5.61h-81.8
		h-81.8h-7.16l-5.33,4.91l-14.31,13.47l-12.49-12.07l-5.33-5.19h-7.44H31.66H-0.05l38.73,68.33l0.14,331.84
		c0,3.23,0.42,8.14,1.82,14.03c2.1,8.7,6.74,19.5,16.14,28.06c9.4,8.56,23.71,14.73,44.2,14.73h42.09h58.51
		c10.38,0,18.8,2.67,25.54,6.17s11.79,7.86,15.01,11.08c3.37,3.37,5.89,6.45,7.72,8.7c0.84,1.12,1.54,2.1,1.96,2.67
		c0.28,0.28,0.42,0.56,0.56,0.7l0.14,0.14l0,0l3.09,4.63l3.37-4.49c0,0,0.42-0.56,1.26-1.54c1.12-1.4,2.95-3.65,4.63-5.89
		c1.68-2.1,3.51-4.21,4.49-5.19c1.4-1.4,6.17-5.75,13.33-9.68c7.16-3.93,16.84-7.58,27.92-7.58h100.74
		c10.24,0,19.22-1.26,26.94-3.79c11.65-3.65,20.49-10.1,26.38-18.52c5.89-8.28,8.7-18.38,8.7-29.18V78.97l23.15-40.69l15.43-27.36
		H480.66z"/>
	<path id="XMLID_20_" class="st1" d="M343.72,13.72h-5.61h-81.8h-81.8h-5.61l-4.07,3.79l-17.12,16l-15.43-14.59l-4.21-4.07h-5.75
		H31.66H6.83l35.92,63.42v332.96c0,11.51,5.61,52.76,58.09,52.76h100.74c22.17,0,36.48,11.51,43.36,18.52
		c6.88,6.88,10.94,13.05,10.94,13.05s7.58-9.96,10.66-13.05c3.09-3.09,20.06-18.52,44.06-18.52h100.74
		c39.57,0,58.09-20.49,58.09-47.57V77.84l23.71-41.67l12.07-21.33h-24.55h-90.64h-5.75l-4.21,4.07L364.9,33.65l-17.12-16
		L343.72,13.72z M337.96,28.03l27.08,25.26l24.98-24.13h90.64l-25.54,44.9v342.36c0,22.31-16.84,33.25-43.78,33.25h-100.6
		c-37.32,0-54.58,25.26-54.58,25.26s-17.26-25.26-54.58-25.26H100.83c-26.94,0-43.78-10.94-43.78-33.25V74.06l-25.54-44.9h90.64
		l24.98,24.13l27.08-25.26h81.8L337.96,28.03"/>
	<path id="XMLID_21_" class="st1" d="M67.86,237.66v175.11c0,15.01,10.94,25.96,35.22,25.96h95.83c39.71,0,57.39,22.73,57.39,22.73
		s18.24-22.73,53.74-22.73h37.46L67.86,237.66z"/>
	<rect id="XMLID_22_" x="67.86" y="152.63" class="st1" width="376.46" height="8.98"/>
	<polygon id="XMLID_23_" class="st1" points="444.32,363.38 444.32,354.26 193.3,175.36 180.53,175.36 	"/>
	<polygon id="XMLID_24_" class="st1" points="67.86,209.88 67.86,219.14 372.48,438.87 385.39,438.87 	"/>
	<polygon id="XMLID_25_" class="st2" points="444.32,335.74 444.32,175.36 219.4,175.36 	"/>
	<polygon id="XMLID_26_" class="st1" points="111.78,141.55 101.26,141.55 82.45,97.77 82.45,141.55 71.93,141.55 71.93,73.63 
		82.73,73.63 101.26,116.29 101.26,73.63 111.78,73.63 	"/>
	<polygon id="XMLID_27_" class="st1" points="153.87,84.58 137.46,84.58 137.46,101.7 153.73,101.7 153.73,112.36 137.46,112.36 
		137.46,130.46 153.87,130.46 153.87,141.26 126.51,141.26 126.51,73.63 153.87,73.63 	"/>
	<polygon id="XMLID_28_" class="st1" points="201.02,141.55 194.7,105.63 188.39,141.55 175.76,141.55 164.68,73.49 175.06,73.49 
		182.22,116.15 189.23,73.63 200.04,73.63 207.33,115.73 214.07,73.63 224.87,73.63 213.51,141.55 	"/>
	<polygon id="XMLID_29_" class="st1" points="278.47,141.41 267.25,141.41 267.25,113.34 252.65,73.63 263.6,73.63 273,98.61 
		281.98,73.63 293.2,73.63 278.47,113.62 	"/>
	<path id="XMLID_32_" class="st1" d="M310.18,118.67c0,4.91,0,6.74,0.84,8.7c0.98,2.1,3.23,3.09,5.61,3.09
		c2.39,0,4.49-1.12,5.47-3.09c0.84-1.96,0.84-3.65,0.84-8.7V96.36c0-5.05,0.14-6.59-0.84-8.56c-0.98-2.1-3.23-3.23-5.61-3.23
		c-2.39,0-4.63,1.12-5.61,3.23c-0.84,1.82-0.84,3.65-0.84,8.56v22.31H310.18z M333.61,119.52c0,9.26,0,11.22-2.53,15.01
		c-2.24,3.23-8.42,6.88-14.59,6.88c-6.03,0-11.51-2.39-14.31-6.59c-2.53-3.79-2.81-8-2.81-15.29V95.52c0-7.86,0.14-11.65,3.09-16
		c3.09-4.63,7.72-5.89,14.03-5.89c6.03,0,11.51,1.96,14.31,6.03c3.37,5.05,2.81,7.3,2.81,15.86L333.61,119.52L333.61,119.52z"/>
	<path id="XMLID_35_" class="st1" d="M360.55,97.91c5.19,0,8.28,0.28,10.1-0.84c1.96-1.12,2.1-3.51,2.1-6.03
		c0-2.39,0-4.63-1.96-5.75c-1.82-1.12-5.19-0.98-10.38-0.98h-4.49v13.61L360.55,97.91L360.55,97.91z M356.2,141.41h-10.94V73.63
		h17.54c9.68,0,12.07,0.42,15.57,3.23c4.07,3.23,5.19,6.74,5.19,10.52v8c0,3.37-1.82,7.3-3.93,9.26c-2.67,2.39-5.89,3.23-6.17,3.23
		l11.93,33.53H374.3l-11.65-33.39h-6.73v33.39H356.2z"/>
	<polygon id="XMLID_36_" class="st1" points="408.54,96.65 422.85,73.63 433.8,73.63 420.47,95.38 441.09,141.41 430.15,141.41 
		413.87,105.49 408.54,113.9 408.54,141.41 397.74,141.41 397.74,73.63 408.54,73.63 	"/>
	<path id="XMLID_39_" class="st1" d="M361.96,355.38c4.21,3.09,6.45,5.19,8.7,5.33c2.39,0.14,4.21-2.1,6.03-4.49
		c1.68-2.24,3.37-4.49,2.53-6.73c-0.7-2.1-3.51-4.07-7.72-7.02l-3.65-2.67l-9.54,13.05L361.96,355.38z M334.45,385.55l-8.84-6.45
		l40.13-54.58l14.17,10.38c7.72,5.75,9.54,7.44,10.66,11.79c1.4,4.91,0.28,8.56-1.96,11.51l-6.59,8.7c-1.96,2.81-5.75,4.91-8.7,5.05
		c-3.65,0.28-6.73-0.98-6.88-0.98l-8.28,31.85l-8.84-6.59l8.42-31.15l-5.47-3.93L334.45,385.55z"/>
	<path id="XMLID_42_" class="st1" d="M206.21,231.49l-21.19,17.96l10.66,7.58L206.21,231.49z M177.45,255.2l-11.79,8.98l-8.7-6.31
		l55.28-44.2l8.42,6.59l-24.41,66.09l-8.84-6.45l4.77-13.75L177.45,255.2z"/>
	<polygon id="XMLID_43_" class="st1" points="236.1,315.11 227.54,308.94 237.64,262.21 212.1,297.99 203.54,291.82 243.11,236.4 
		251.95,242.71 242.13,288.45 267.1,253.51 275.66,259.83 	"/>
	<path id="XMLID_46_" class="st1" d="M255.32,320.44c0-5.89,5.33-12.21,7.86-15.72l10.8-14.87 M299.52,316.66l-21.05,28.48
		l-4.91-3.51l0.28-2.95c-3.79-0.14-5.47-0.42-10.94-4.35c-5.33-3.79-7.86-10.52-7.58-13.75c0.7-6.88,5.33-12.21,7.86-15.72
		l10.8-14.87c7.44-10.38,8.98-12.77,15.29-14.31c5.05-1.4,8.84,0.42,14.59,4.49c7.02,5.05,8.56,9.54,8.56,13.89
		c0,6.03-2.95,8.7-8.56,16.42l-8.7-6.31c3.93-5.47,8.56-10.1,2.95-14.73c-2.39-1.96-3.37-2.67-4.91-2.67
		c-2.67,0-3.65,0.56-6.88,5.05L273,310.2c-2.95,4.07-6.31,8.56-6.31,10.1c0,3.09,1.68,4.21,4.77,6.31c5.05,3.65,7.3,0.42,12.77-7.16
		l1.54-2.24l-8.7-6.17l4.77-7.02L299.52,316.66z"/>
	<polygon id="XMLID_47_" class="st1" points="346.1,324.09 332.91,314.27 322.67,328.02 335.72,337.84 329.4,346.4 316.21,336.58 
		305.41,351.17 318.6,360.99 312.15,369.55 290.26,353.28 330.67,299.12 352.56,315.39 	"/>
	<path id="XMLID_50_" class="st1" d="M155.7,207.07c4.21,3.09,6.45,5.19,8.7,5.33c2.39,0.14,4.21-2.1,6.03-4.49
		c1.68-2.24,3.37-4.49,2.53-6.74c-0.7-2.1-3.51-4.07-7.72-7.02l-3.65-2.67l-9.54,13.05L155.7,207.07z M128.34,237.24l-8.84-6.45
		l40.13-54.58l14.17,10.38c7.72,5.75,9.54,7.44,10.66,11.79c1.4,5.05,0.28,8.56-1.96,11.65l-6.59,8.7c-1.96,2.81-5.75,4.91-8.7,5.05
		c-3.65,0.28-6.74-0.98-6.88-0.98l-8.28,31.85l-8.84-6.59l8.42-31.15l-5.47-3.93L128.34,237.24z"/>
	<path id="XMLID_51_" class="st1" d="M415.13,384.01c6.17-5.89,5.19-11.79,1.12-14.45c-3.79-2.53-8.42-3.37-12.07,1.26
		c-1.4,1.82-1.96,4.49-1.4,7.16c0.42,2.67-0.14,3.23,3.37,12.21c2.67,7.16,2.95,10.66,2.95,14.31c0,0.84-0.28,8.28-3.37,11.51
		c-8.42,8.84-16.84,10.24-28.48,0.84c-17.68-14.17-0.28-28.9,0.56-30.31l7.16,5.19c-3.65,5.47-10.1,12.91,0.7,18.94
		c2.95,1.68,8.14,3.37,11.65-0.98c2.1-2.67,2.53-6.73-1.26-16.7c-4.49-11.79-4.35-12.63-4.77-16.7c-0.42-4.07,0.84-8,3.37-11.23
		c6.88-8.7,19.08-11.65,29.75-2.39c13.19,11.51,4.49,20.77-0.14,28.06L415.13,384.01z"/>
</g>
</svg>
