<?xml version="1.0" encoding="utf-8"?>
<!-- Generator: Adobe Illustrator 26.5.0, SVG Export Plug-In . SVG Version: 6.00 Build 0)  -->
<svg version="1.1" id="Layer_1" xmlns="http://www.w3.org/2000/svg" xmlns:xlink="http://www.w3.org/1999/xlink" x="0px" y="0px"
	 viewBox="0 0 512 512" style="enable-background:new 0 0 512 512;" xml:space="preserve">
<style type="text/css">
	.st0{fill:#FFFFFF;}
	.st1{fill:#E13A3E;}
</style>
<g id="XMLID_1_">
	<path id="XMLID_3_" d="M260.07,473.18c123.9,0,224.22-100.46,224.22-224.22c0-123.9-100.46-224.36-224.22-224.36
		c-123.9,0-224.36,100.46-224.36,224.36S136.18,473.18,260.07,473.18L260.07,473.18z"/>
	<path id="XMLID_4_" class="st0" d="M260.07,449.61c110.85,0,200.65-89.8,200.65-200.65S370.92,48.32,260.07,48.32
		S59.43,138.12,59.43,248.96C59.43,359.81,149.23,449.61,260.07,449.61L260.07,449.61z"/>
	<path id="XMLID_5_" d="M76.82,472.2c-25.96,11.08-50.09,28.2-59.21,39.85C3.16,476.83,0.35,452.56,3.02,426.04
		c3.79-36.2,18.24-69.31,38.02-92.75c0.98,20.35,6.17,36.9,18.1,35.22c9.54-1.4,13.47-6.59,19.78-9.26
		c20.35-8.7,38.59-10.1,64.26-10.1c23.43,0,60.33,10.24,76.89-6.31c10.66-10.66,21.33-21.61,21.33-21.61l-23.15-42.23l-24.84,64.26
		c-19.5-5.61-43.64-6.73-54.02-6.73c-22.31,0-47.43,6.17-58.37,10.24l-3.79-6.31c-1.96-4.21-2.95-6.17-2.95-6.17l61.46-154.06
		c14.87-35.22,21.33-57.53,47.29-63c24.98-5.33,39.85,3.79,59.35,24.98c17.68,19.22,48.27,60.33,48.27,60.33l27.78-73.24
		c-29.04,0-56.83-19.5-56.83-49.11c0-22.31,7.3-42.09,30.87-57.95c9.96-6.73,22.45-12.07,34.1-15.29
		c16.56-4.63,31.01-5.47,31.01-5.47c-2.1,1.82-4.49,4.49-4.49,4.49c-4.21,4.21-15.29,15.43-16.14,22.45
		c-1.12,9.96,7.3,15.57,20.49,15.57c8,0,67.91,0.14,67.91,0.14c12.35,0,21.61-11.65,14.59-22.73c-5.47-8.84-7.58-10.66-11.51-16.7
		c0,0-2.25-2.81-3.79-4.63c0,0,6.73,0,10.24,0c8.56,0,36.9,2.24,53.6,18.1c15.57,14.87,18.38,20.2,21.05,40.13
		c1.82,13.61-4.21,36.34-18.52,49.39c-13.89,12.49-35.92,20.35-52.34,23.01l-76.47,202.19c-16.14,40.55-26.8,58.79-56.12,75.77
		c-28.76,16.7-57.95,20.35-74.65,20.35c-28.34,0-41.53-6.88-67.21-16.28c-25.12-9.12-39.29-7.44-45.74-3.23
		c-6.31,4.21-7.16,5.05-8.84,8.84c-2.39,5.47,1.68,14.31,7.72,19.08c16.28,12.91,33.53,20.49,36.76,21.89
		C150.49,459.15,103.62,460.84,76.82,472.2L76.82,472.2z"/>
	<path id="XMLID_6_" class="st1" d="M85.24,335.68c13.33-3.93,34.52-8.28,54.16-8.28c2.95,0,26.24,0.14,48.27,5.05l29.04-75.35
		l36.06,65.53l-4.49,4.91c-0.42,0.42-10.94,11.22-21.61,21.89c-17.82,17.82-48.27,9.26-73.52,8.98h-9.82l-13.89-0.14
		c-17.54-0.28-31.43,2.95-46.72,9.54c-1.4,0.56-2.95,1.54-4.63,2.67c-4.07,2.67-9.26,6.03-17.4,7.16
		c-5.75,0.84-11.08-0.7-15.43-4.35c-4.21-3.51-7.44-8.84-9.68-16.14c-12.35,20.35-20.49,44.9-23.15,69.74
		c-2.24,21.47-0.42,40.69,8.84,68.05c12.91-11.08,32.13-22.87,52.06-31.29c14.17-6.17,33.11-9.54,48.97-11.51
		c-3.51-2.39-7.16-4.91-10.8-7.72c-8.7-6.88-14.87-19.92-10.38-30.03c2.67-6.03,5.33-8.14,12.21-12.77
		c7.72-5.19,23.29-8.84,54.02,2.24l10.94,4.07c18.52,7.02,30.73,11.65,53.18,11.65c11.08,0,40.27-1.82,70.02-19.08
		c26.52-15.43,36.34-31.29,51.49-70.02l0.7-1.4l78.29-206.96l5.33-0.84c13.75-2.25,34.52-8.98,47.71-20.77
		c12.35-11.08,16.98-31.01,15.57-41.25c-2.39-17.68-4.35-21.19-18.24-34.66c-10.1-9.54-26.66-13.61-38.45-15.01
		c1.26,1.82,2.67,3.93,4.35,6.59c4.77,7.58,5.05,16.28,0.98,23.71c-4.49,8.14-13.47,13.19-23.43,13.19l-67.91-0.14
		c-10.94,0-19.36-3.09-24.7-8.98c-4.07-4.63-5.89-10.38-5.05-16.84c0.42-3.79,2.1-7.86,5.33-12.49c-1.26,0.28-2.67,0.7-3.93,0.98
		c-11.37,3.23-22.73,8.28-31.43,14.03c-18.52,12.49-26.8,27.92-26.8,50.23c0,9.68,3.79,18.52,10.8,25.54
		c8.98,8.98,22.73,14.31,36.76,14.31h13.47l-38.59,101.59l-10.1-13.61c-0.28-0.42-30.59-40.97-47.57-59.49
		c-19.36-21.19-31.29-26.38-50.51-22.31c-17.82,3.79-23.99,17.26-36.34,47.14l-4.35,10.38L83.7,336.1L85.24,335.68L85.24,335.68z"/>
	<polygon id="XMLID_7_" class="st1" points="144.31,183.86 144.31,183.86 144.31,183.72 	"/>
	<polygon id="XMLID_8_" class="st1" points="353.66,328.8 353.52,329.08 353.38,329.36 	"/>
</g>
</svg>
