<?xml version="1.0" encoding="utf-8"?>
<!-- Generator: Adobe Illustrator 26.5.0, SVG Export Plug-In . SVG Version: 6.00 Build 0)  -->
<svg version="1.1" id="Layer_1" xmlns="http://www.w3.org/2000/svg" xmlns:xlink="http://www.w3.org/1999/xlink" x="0px" y="0px"
	 viewBox="0 0 512 512" style="enable-background:new 0 0 512 512;" xml:space="preserve">
<style type="text/css">
	.st0{fill:#E4173E;}
	.st1{fill:#D69F0F;}
	.st2{fill:#FFFFFF;}
</style>
<g id="XMLID_1_">
	<path id="XMLID_3_" d="M352.51,186.14l-50.92-69.86l-16.69,7.86c0,0-6.17-3.51-30.3-6.87l11.92-12.06V77.57h-8.56
		c5.47-7.29,6.31-18.38,6.31-27.91S264.14,18.38,291.91,0H182.22c-64.39,21.74-67.89,118.53-62.14,184.04l15.85-6.17
		c0,0-10.52,23.71-5.61,36.61c-7.29,17.25-4.91,33.81,2.24,46.29l-8,11.22l1.82,50.78c0,0-0.98,1.4-1.96,2.67
		c-2.1,2.95-7.43,7.43-26.79,11.08c-21.32,3.93-26.09,8.28-28.34,17.25c-2.1,8.98-21.6,15.57-23.57,16.13c0,0-1.96,5.89-1.96,12.76
		c0,27.21,34.09,44.61,73.92,59.9c41.94,16.13,93.28,29.46,110.82,52.6c21.46,10.8,46.15,16.83,73.08,16.83
		c94.83,0,166.65-78.55,166.65-167.49C468.09,270.45,419.7,208.59,352.51,186.14z"/>
	<path id="XMLID_4_" class="st0" d="M131.58,161.46c0,0-8.28-119.79,50.08-144.06l8.42,53.87l1.82-56.67l71.96,0.14
		c-7.86,5.05-10.52,11.08-12.06,17.81c-3.23,14.31-0.7,32.96-6.59,43.06h-54.85L131.58,161.46z"/>
	<path id="XMLID_5_" class="st0" d="M77.85,368.92l5.05,9.4l-4.49,4.77l73.36,33.67c-49.8-31.84-71.4-44.61-71.4-57.79
		c0-12.34,29.32-8,45.73-19.64c4.35,26.09-32.82,26.93-32.82,26.93l61.3,33.81c29.74,28.48,64.11,37.73,64.11,37.73
		c7.43,8.56,8.84,16.27,8.84,16.27s-36.75-22.72-55.41-25.25c0,0,11.64,5.75,25.39,13.05c22.02,11.78,49.66,29.32,46.15,45.73
		c-31.14-44.05-184.6-57.79-184.6-102.68C58.92,372.71,75.61,372.71,77.85,368.92z"/>
	<path id="XMLID_6_" class="st0" d="M297.8,480.44c8.7-26.51,27.49-41.38,51.06-58.77c21.6-15.85,41.38-30.72,41.38-60.32
		c-0.84-3.09-24.69-12.62-27.35-13.47c0,0,15.15,12.48,15.15,17.67s-33.39,24.69-33.39,24.69s3.37-4.21,7.57-9.26
		c5.89-7.01,13.05-15.99,13.05-20.34c0-6.17-11.5-8.14-15.01-20.9c0,0-3.09,4.77-6.17,11.36c-3.23,7.01-6.31,15.99-6.31,20.2
		l5.89,40.68l-16.13-1.68C326,411.56,297.52,438.36,297.8,480.44z"/>
	<polygon id="XMLID_7_" class="st1" points="321.09,398.94 326.98,383.51 330.35,400.34 	"/>
	<path id="XMLID_8_" class="st1" d="M201.85,261.47l93.84-32.4l47.55,27.91l0.42,4.35c0,0-1.82-1.54-4.91-3.23
		c-4.91-2.67-13.19-6.03-22.02-6.03c-5.33,0-10.66,3.09-14.59,6.59c-4.63,4.21-7.43,9.12-7.43,9.12s-6.03-15.15-33.1-15.15
		C236.22,252.49,201.85,261.47,201.85,261.47z"/>
	<path id="XMLID_19_" class="st1" d="M175.48,246.18l4.63,14.31l124.14-49.94l48.96,42.78l-1.12-18.94
		c-0.56,0.28-1.26,0.42-1.96,0.42c-5.19,0-15.15-6.59-15.15-6.59l1.82-1.54c0,0,6.87,2.38,9.54,2.38c1.4,0,3.65-0.56,5.33-1.12
		l-1.12-18.8l-53.72-75.05l-11.92,4.35c0,0-27.21-10.94-51.76-10.94c-40.82,0-87.95,39.84-87.95,81.36l26.09,1.82l71.4-53.58
		l-72.1,70.84c0,0-5.61-12.48-15.99-12.48c-4.49,0.14-15.15,7.43-15.15,24.55c0,14.87,7.15,23,7.15,23l-8.28,11.5
		c3.51,69.86,2.38,102.82-21.74,95.67l35.07,17.11c0,0-0.7-45.03-0.7-57.65c0-23.15,1.82-25.53,4.77-25.53
		c7.72,0,9.82,40.54,10.66,66.49c0.56,15.01,1.12,26.65,1.12,26.65s28.05,30.86,78.13,35.21c-43.34-30.58-38.44-67.61-35.21-92.58
		c1.54-11.5,3.09-23.43,5.89-36.61c-39.84-0.42-40.12-22.58-40.12-28.2s0.84-8.7,0.84-8.7c-1.68,1.26-9.82,7.57-20.2,4.49
		C175.62,264.84,175.48,246.18,175.48,246.18z M197.08,182.08l-29.46,19.64l-16.41-0.56c0-3.79,1.82-36.47,46.57-57.51
		c-3.65,2.52-6.87,5.33-10.24,8.14c-8.14,6.59-20.2,18.38-20.2,24.55C167.35,183.9,177.17,186.7,197.08,182.08z M332.17,194.84
		c0.42,0,9.96,8.42,9.96,20.48c0,3.23,1.82,6.03,1.82,6.03l-0.56,1.26c0,0-2.24-1.26-3.09-1.26s-1.82,0.98-4.49,0.98
		c-2.52,0-7.57-3.23-13.05-9.26c0,0,0.7-0.56,1.54-0.56s5.19,4.21,8,4.21s2.1-1.54,6.03-1.26c0,0-0.98-2.95-0.98-5.05
		c0-8.7-5.61-13.61-5.61-14.59C331.89,195.12,332.17,194.84,332.17,194.84z M313.09,194.98c0.28,0,4.63,4.77,7.15,4.77
		c1.4,0,2.1-0.7,3.51-0.7c0,0-0.14-0.56-0.14-1.26c0.14-2.38,0.84-3.37,0.84-5.19c0.14-2.24-2.52-8.56-2.52-8.84
		c-0.28-0.84,0.14-3.09,0.42-2.67c1.26,1.54,6.31,9.54,6.31,15.01c0,2.52-0.28,3.93-0.28,6.03c-0.14,2.24,1.12,4.35,1.12,4.35
		l-0.42,1.12c0,0-1.82-2.38-4.77-2.38c-3.23,0-4.49-0.7-6.31-2.38c-1.82-1.68-6.03-7.29-6.03-7.57
		C312.25,195.12,312.53,194.98,313.09,194.98z M287.56,156.12c0,0-3.51,3.65-3.51,14.03c0,15.85,8.28,25.67,17.67,25.67
		c1.4,0,6.31-0.98,6.31-0.98s-2.52,6.45-10.24,6.45c-10.24,0-21.18-13.89-21.18-25.81C276.62,161.46,287.56,156.12,287.56,156.12z
		 M249.27,196.52c0-1.96-0.14-2.24-0.14-3.93c0-1.68,1.4-5.19,2.1-6.87c1.12-2.1,7.43-8.84,8.98-9.96c0.42-0.28,0.7,1.82,0.28,2.52
		c-0.14,0.14-1.26,1.26-2.24,2.95c-1.26,2.1-2.52,4.77-2.52,6.73c0,1.54,0.84,2.1,0.98,4.21c0,0.56-0.28,1.26-0.28,1.26
		c1.96,0,2.95,1.54,5.33,1.54c6.45,0,10.66-3.93,11.92-3.93c0.28,0,1.12,0.14,1.12,0.7c0,0.28-2.95,2.52-6.87,4.77
		c-3.37,1.96-7.57,3.93-10.94,3.93c-4.35,0-3.93-0.84-5.61-0.84c-1.68,0-3.79,1.68-3.79,1.68l-1.12-0.14
		C246.46,201.15,249.27,198.49,249.27,196.52z M228.79,211.67c0.28-0.7,0.56-4.63,1.4-7.57c0.56-2.24,1.54-3.09,2.38-4.77
		c2.1-4.07,9.96-9.54,11.78-10.8c0.42-0.28,0.56,0.7,0.14,1.4c-0.28,0.42-4.35,3.79-6.73,8.28c-0.98,2.1-1.4,4.49-1.4,6.87
		c0,1.82-0.42,3.23-0.42,3.23c2.95,0,5.05,2.67,7.01,2.67c6.45,0,13.47-3.93,14.73-3.93c0.28,0,1.82,0.28,1.82,0.84
		s-13.05,8.56-20.48,8.56c-4.35,0-7.15-1.68-8.84-1.68c-1.68,0-2.67,0.98-2.67,0.98l-0.7-0.98
		C226.68,214.76,228.23,212.8,228.79,211.67z M206.06,220.23c0.7-1.12,2.38-7.57,4.77-10.94c0.98-1.4,6.73-5.47,7.15-5.61
		c0.42-0.28,1.12,0.42,0.7,1.12c-0.56,0.56-2.1,1.68-3.23,4.21c-1.26,2.52-1.4,5.47-1.82,6.73c-0.56,1.26-1.26,2.24-1.26,2.24
		c5.47,0,3.93,5.47,14.87,5.47c2.1,0,12.48-1.68,12.48-1.68l3.23,2.1c0,0-10.8,4.91-20.76,4.91c-8.98,0-12.06-4.63-16.97-4.63
		c-0.7,0-3.51,0.56-3.51,0.56l-0.42-0.56C201.01,224.16,205.36,221.35,206.06,220.23z M179.27,232.29c0,0,2.52-0.7,3.09-3.79
		c1.54-7.86,6.03-8,8.42-10.38c0.56-0.42,0.84,0.28,0.56,0.56c-0.7,0.7-1.12,2.24-1.12,2.67s0.42,2.1,0.42,2.95
		c0,2.1-2.38,4.07-2.38,4.07c5.75,0,4.35,4.07,12.76,4.07c1.96,0,2.67-0.28,3.65-0.28c0.98,0,3.37,0.56,5.89,3.09
		c-5.89,0.7-7.86,2.67-14.31,2.67c-10.66,0-10.94-4.63-15.71-4.63c-0.42,0-0.56,0.28-0.98,0.28c-0.42,0-0.84-0.14-0.84-0.7
		C178.57,232.57,179.27,232.29,179.27,232.29z M156.41,266.1c-8,0-11.64-12.2-11.64-12.2s3.65,5.75,8.42,5.75
		c3.51,0,12.91-7.86,12.91-20.34c0-7.72-1.82-11.08-1.82-11.08s6.87,8.42,6.87,15.85C171.27,258.1,161.32,266.1,156.41,266.1z"/>
	<path id="XMLID_20_" class="st1" d="M149.95,153.6l2.38,11.08c4.63-7.57,33.39-46.71,88.37-46.43l7.86-8.28h-41.24l-35.21,28.2
		l31-36.47h50.36V87.11h-54.85L149.95,153.6z"/>
	<path id="XMLID_35_" class="st1" d="M368.64,208.59l-0.14,53.72c24.27,19.92,39.14,49.24,39.14,82.48
		c0,46.01-27.91,84.16-70.42,100.72c-9.12,15.01-16.83,35.91-9.96,49.66c74.35-15.43,125.69-75.47,125.69-150.37
		C452.94,285.04,419.56,234.54,368.64,208.59z M433.73,304.53c0,0,0.84,2.1,1.12,5.05c0.42,3.37,0.84,7.43-1.4,11.5
		c-0.56,0.98-1.54,1.82-2.24,2.95c-1.68,3.23-1.26,5.47-1.26,5.47s-0.98-2.81-2.24-3.79c-1.4-0.98-1.96-0.84-5.47-3.65
		c-4.35-3.65-6.03-14.03-6.03-14.03c3.51,0.28,6.17,6.45,10.52,5.89C430.22,313.37,430.36,305.66,433.73,304.53z M425.31,283.21
		c0,0,1.12,1.82,1.96,4.91c0.84,3.37,1.96,7.15,0.42,11.64c-0.42,0.98-1.26,2.1-1.68,3.23c-1.12,3.37-0.28,5.61-0.28,5.61
		s-1.4-2.67-2.81-3.37c-1.54-0.7-2.1-0.56-5.89-2.81c-4.91-2.95-8.28-12.91-8.28-12.91c3.51-0.28,7.15,5.47,11.36,4.21
		C423.21,292.61,422.22,284.9,425.31,283.21z M369.9,234.54c0,0,21.04,7.57,21.04,13.47c0,2.24-1.4,3.51-3.37,3.51
		C380.84,251.51,369.9,234.54,369.9,234.54z M384.63,257.54c3.23-1.54,8.56,2.81,12.06,0.14c2.81-2.1-0.7-8.98,1.68-11.64
		c0,0,1.68,1.4,3.37,3.93c1.96,2.81,4.21,6.17,4.21,10.8c0,1.12-0.56,2.38-0.56,3.51c0,3.65,1.54,5.47,1.54,5.47
		s-2.24-2.1-3.79-2.24c-1.68-0.14-2.1,0.28-6.59-0.7C391.08,265.82,384.63,257.54,384.63,257.54z M397.96,272.41
		c3.51-0.84,8,4.21,11.78,2.24c3.09-1.54,0.84-8.98,3.65-11.22c0,0,1.4,1.68,2.67,4.49c1.4,3.09,3.09,6.73,2.24,11.36
		c-0.14,1.12-0.98,2.24-1.12,3.37c-0.56,3.51,0.56,5.61,0.56,5.61s-1.82-2.38-3.37-2.95c-1.54-0.42-2.1-0.14-6.31-1.82
		C403.01,281.67,397.96,272.41,397.96,272.41z M352.37,466.83c-2.1,5.61-24.41,5.33-24.41,5.33s16.13-12.06,22.44-9.68
		C352.23,463.18,353.07,464.73,352.37,466.83z M369.9,457.43c-0.42,1.12-0.42,2.52-0.7,3.51c-1.68,4.49-4.91,6.73-7.86,8.7
		c-2.52,1.82-4.63,2.52-4.63,2.52c-1.4-3.23,4.35-8.56,2.52-11.5c-2.38-3.65-8.84-1.54-11.36-4.07c0,0,8.98-5.47,14.59-4.63
		c4.49,0.7,4.77,1.26,6.31,1.68c1.54,0.42,4.35-0.84,4.35-0.84S371.16,454.07,369.9,457.43z M390.24,442.56
		c-0.28,1.12,0.14,2.52-0.14,3.65c-0.84,4.63-3.65,7.43-6.17,9.96c-2.24,2.24-4.07,3.23-4.07,3.23c-1.96-2.95,2.81-9.26,0.42-11.78
		c-2.95-3.09-8.98,0-11.92-1.96c0,0,7.86-7.01,13.61-7.15c4.49-0.14,4.91,0.42,6.59,0.56c1.68,0.14,4.21-1.54,4.21-1.54
		S390.8,439.06,390.24,442.56z M406.23,428.82c0,4.77-2.24,8-4.21,10.94c-1.68,2.52-3.37,3.93-3.37,3.93
		c-2.38-2.67,0.98-9.54-1.82-11.64c-3.51-2.52-8.7,1.68-12.06,0.28c0,0,6.45-8.42,12.06-9.54c4.35-0.98,4.91-0.56,6.59-0.7
		c1.68-0.28,3.79-2.24,3.79-2.24s-1.54,1.82-1.54,5.47C405.67,426.43,406.23,427.84,406.23,428.82z M416.75,421.1
		c-1.26,2.81-2.67,4.49-2.67,4.49c-2.81-2.24-0.42-9.68-3.65-11.22c-3.79-1.96-8.42,3.09-11.78,2.1c0,0,5.05-9.26,10.38-11.36
		c4.21-1.54,4.77-1.26,6.31-1.68c1.54-0.42,3.37-2.81,3.37-2.81s-1.26,2.1-0.7,5.61c0.14,1.12,0.98,2.38,1.12,3.51
		C419.98,414.37,418.16,418.02,416.75,421.1z M428.12,399.64c-0.7,2.95-1.82,4.91-1.82,4.91c-3.23-1.54-2.38-9.4-5.75-10.38
		c-4.07-1.12-7.57,4.63-11.22,4.35c0,0,3.23-10.1,8-13.05c3.79-2.38,4.49-2.1,5.89-2.95c1.4-0.7,2.81-3.51,2.81-3.51
		s-0.84,2.24,0.42,5.61c0.42,1.12,1.4,2.1,1.82,3.23C429.94,392.49,428.96,396.27,428.12,399.64z M435.55,378.18
		c-0.28,3.09-0.98,5.19-0.98,5.19c-3.37-1.12-3.79-8.84-7.29-9.26c-4.21-0.56-6.87,5.75-10.38,6.17c0,0,1.54-10.52,5.89-14.17
		c3.37-2.95,4.07-2.81,5.33-3.79s2.24-3.79,2.24-3.79s-0.42,2.38,1.26,5.47c0.56,0.98,1.68,1.96,2.24,2.81
		C436.25,370.74,435.83,374.67,435.55,378.18z M430.36,352.93c-4.35,0-7.86-3.65-7.86-8c0-4.49,3.51-8,7.86-8s7.86,3.65,7.86,8
		C438.22,349.28,434.71,352.93,430.36,352.93z"/>
	<path id="XMLID_38_" class="st2" d="M331.05,277.18l8.56,3.79l-1.26-13.75c0,0-15.99-15.29-28.76-4.35
		c-4.07,3.51-16.55,19.22-16.55,19.22c-6.03-12.06-19.5-19.78-38.15-20.2c-8.84-0.14-19.5,1.26-31.98,4.21
		c-15.43,3.65-27.07,8.14-27.07,8.14s-2.52,2.81-2.52,7.15c0,13.75,22.86,13.89,26.51,13.89c3.65,0,9.4-0.28,9.4-0.28l-5.61,25.25
		l21.32,2.95c0,0-16.69,35.07-16.69,62.98c0,1.96,1.12,7.57,3.93,10.24c2.24,2.38,11.78,11.92,19.5,18.8
		c2.24,1.96,4.63,4.07,6.59,5.61c1.54,1.12,2.81,1.96,3.65,2.52c1.82,1.12,3.51,1.82,4.77,1.82c11.64,0,19.36-1.68,24.69-3.23
		c2.67-0.7,7.72-2.95,8.98-4.35c1.4-1.54,1.96-5.61,1.96-6.17c0-4.77-1.26-12.76-19.36-12.76c-18.1,0-25.53,6.73-25.53,6.73
		l4.07-13.05c0,0,0.98-1.68,4.63-2.95c3.09-1.12,8-1.82,15.85-1.82c6.87,0,18.94,1.4,18.94,1.4l-0.84-11.64l-7.29,1.4l-16.69-2.52
		l-36.19,0.98l-1.68-1.4l44.05-8.14l9.68,2.1l8-1.96l-4.35-4.21l-4.77,2.1l-0.84-9.82l-26.51-4.35l20.76-7.43l13.19,5.19l9.96-4.77
		l-10.94-42.78l4.21-13.05L331.05,277.18z M280.27,304.53l-17.53-2.38l9.26-7.29l-11.92-3.37c0,0-3.37,5.75-9.4,5.75
		c-8,0-10.38-8.84-10.38-8.84l-42.22-5.47l49.1-8l39.98,16.13L280.27,304.53z"/>
	<path id="XMLID_39_" class="st2" d="M320.67,369.9l-2.38-5.75l-7.43-8.42l9.68-8.14l-5.75-12.2l-6.59-21.32l3.93-14.59
		c0,0,2.52,4.21,6.73,4.21c6.17,0,8.14-8.98,8.14-8.98l8.28-1.68l-2.1,7.72c0,0,7.29,14.03,7.29,19.22l-8.7,14.59L320.67,369.9z"/>
	<polygon id="XMLID_40_" class="st2" points="277.32,464.59 283.49,443.13 262.87,440.32 253.9,448.32 	"/>
</g>
</svg>
