<?xml version="1.0" encoding="utf-8"?>
<!-- Generator: Adobe Illustrator 26.5.0, SVG Export Plug-In . SVG Version: 6.00 Build 0)  -->
<svg version="1.1" id="Layer_1" xmlns="http://www.w3.org/2000/svg" xmlns:xlink="http://www.w3.org/1999/xlink" x="0px" y="0px"
	 viewBox="0 0 512 512" style="enable-background:new 0 0 512 512;" xml:space="preserve">
<style type="text/css">
	.st0{fill:#FFFFFF;}
	.st1{fill:#F4793E;}
</style>
<g id="XMLID_1_">
	<path id="XMLID_5_" class="st0" d="M167.63,432.46h-1.54h-63.96c-17.53,0-50.36-3.93-73.36-29.88
		C4.77,375.37,3.79,339.6,3.51,327.82v-0.42l-0.14-2.81h2.81h22.16l-0.14-0.14c-3.51-3.51-7.72-7.86-11.78-14.59
		c-1.96-3.23-3.79-6.73-5.05-10.24c-0.7-1.82-1.26-3.51-1.82-5.33c-0.28-0.84-0.56-1.54-0.84-2.38C4.63,280.13,2.67,264,2.67,243.94
		v-2.81h2.81h22.86c-8.14-9.26-14.03-18.24-18.38-31c-4.21-12.48-6.31-28.48-5.89-46.15c0-0.42,0-0.7,0-0.84v-2.81h2.81h24.97
		c-7.57-7.57-13.47-15.71-17.53-24.41C3.65,113.48,4.07,90.9,4.35,82.34v-2.67h2.67c2.95,0,300.75-0.28,340.16-0.28
		c44.05,0,85.01,16.83,115.45,47.55c14.59,14.73,26.09,31.7,34.09,50.78c8.14,19.5,12.34,39.98,12.34,61.16
		c0,21.6-4.21,42.64-12.62,62.28c-8,19.08-19.64,36.05-34.37,50.64c-14.73,14.59-31.84,26.09-50.92,34.09
		c-19.78,8.28-40.68,12.48-62.28,12.48c-19.5,0-38.29-3.37-56.11-10.1c-14.17-5.33-27.77-12.76-40.12-22.02
		c-15.57-11.64-25.39-23.15-29.74-28.76l-54.57,93.28L167.63,432.46z"/>
	<path id="XMLID_8_" d="M347.32,76.87c-39.56,0-337.22,0.28-340.16,0.28H1.68l-0.14,5.47c-0.14,8.7-0.7,31.84,10.24,54.85
		c3.37,7.15,8,13.89,13.61,20.34H6.87H1.26v5.61c0,0.14,0,0.42,0,0.7c-0.42,18.1,1.68,34.37,6.03,47.13
		c3.79,10.94,8.7,19.22,15.15,27.21H5.61H0v5.61c0,20.34,2.1,36.75,6.17,48.82c0.28,0.84,0.56,1.54,0.84,2.38
		c0.56,1.82,1.26,3.65,1.96,5.47c1.4,3.51,3.23,7.15,5.33,10.52c2.67,4.35,5.33,7.86,7.72,10.52H6.45H0.7l0.14,5.75v0.42
		c0.28,11.92,1.26,48.53,25.95,76.45c10.38,11.78,23.71,20.34,39.7,25.39c13.89,4.49,27.07,5.33,35.63,5.33h63.96h3.23l1.68-2.81
		l52.46-89.78c5.33,6.31,14.45,16.13,27.77,26.09c12.62,9.54,26.37,16.97,40.82,22.44c18.1,6.73,37.31,10.24,57.09,10.24
		c22.02,0,43.34-4.21,63.4-12.62c9.68-4.07,18.94-9.12,27.63-14.87c8.7-5.75,16.69-12.48,24.13-19.78
		c7.43-7.29,14.03-15.43,19.92-23.99c5.89-8.7,10.94-17.96,15.01-27.63c8.56-20.06,12.76-41.38,12.76-63.4
		c0-21.46-4.21-42.36-12.48-62.28c-4.07-9.54-8.98-18.8-14.87-27.49c-5.75-8.7-12.48-16.69-19.78-24.13
		c-7.43-7.43-15.57-14.17-24.13-20.06c-8.84-6.03-18.24-11.08-28.05-15.29C392.07,81.22,370.18,76.87,347.32,76.87 M347.32,82.34
		c90.62,0,159.07,72.24,159.07,156.69c0,87.11-70.42,156.83-157.25,156.83c-83.88,0-126.25-63.12-126.25-63.12l-56.67,96.93h-63.96
		c-17.53,0-49.38-4.07-71.26-28.9C7.29,373.97,6.73,338.34,6.45,327.4h28.9c0,0-1.54-1.68-4.91-4.91
		c-3.09-2.95-7.29-7.29-11.36-14.03c-1.68-2.81-3.51-6.17-4.91-9.82c-0.98-2.38-1.68-4.91-2.67-7.57
		C7.29,279,5.61,262.73,5.61,244.08h29.18c-10.66-11.5-17.39-20.9-22.02-34.65c-6.87-20.06-5.75-43.77-5.75-46.01h31.84
		c-9.96-8.98-17.25-18.52-22.02-28.34C6.87,114.32,6.87,93.7,7.15,82.76C7.15,82.62,307.34,82.34,347.32,82.34"/>
	<path id="XMLID_9_" d="M345.78,93.56c-37.31,0-324.87,0-324.87,0c0,25.53,12.76,47.69,20.9,55.83
		c10.38,10.38,25.95,18.8,48.82,18.8c0,0,124.56,0.14,124.98,0.14c0.84,0,2.95,1.96,2.95,3.37c0,1.4-1.96,3.65-2.95,3.65H22.3
		c0,3.09-0.28,35.21,19.92,55.55c20.2,20.2,40.68,18.24,50.08,20.2h74.35c0.84,0,3.51,2.81,3.51,3.79c0,1.4-2.52,3.23-3.51,3.23
		H20.2c0,4.21,0.98,28.9,14.31,48.39c14.17,20.76,38.29,27.35,52.32,27.35c0,0,28.2,0,29.74,0c1.54,0,4.07,2.38,4.07,3.65
		s-2.24,3.51-4.07,3.51c-1.68,0-95.53,0-95.53,0c0,4.21,0,28.9,20.2,51.2c21.46,23.57,43.2,25.11,53.3,25.11h65.09l127.65-215.04
		l0,0c12.62-20.9,35.49-34.79,61.72-34.79c39.84,0,72.1,32.12,72.1,71.82s-32.26,71.82-72.1,71.82c-39.56,0-71.54-31.7-72.1-70.84
		l-48.25,82.06c14.31,19.64,51.06,62.56,121.9,62.56c79.4,0,144.62-65.09,144.62-146.03C495.31,165.94,437.94,93.56,345.78,93.56"/>
	<path id="XMLID_10_" class="st1" d="M390.66,239.17c0,22.86-18.66,41.38-41.52,41.38c-22.86,0-41.52-18.52-41.52-41.38
		s18.66-41.38,41.52-41.38C372.15,197.79,390.66,216.3,390.66,239.17"/>
</g>
</svg>
