<?xml version="1.0" encoding="utf-8"?>
<!-- Generator: Adobe Illustrator 26.5.0, SVG Export Plug-In . SVG Version: 6.00 Build 0)  -->
<svg version="1.1" id="Layer_1" xmlns="http://www.w3.org/2000/svg" xmlns:xlink="http://www.w3.org/1999/xlink" x="0px" y="0px"
	 viewBox="0 0 512 512" style="enable-background:new 0 0 512 512;" xml:space="preserve">
<style type="text/css">
	.st0{fill:#FFFFFF;}
	.st1{fill:#FCB514;}
</style>
<g id="XMLID_1_">
	<path id="XMLID_3_" class="st0" d="M476.93,85.01h-32.96c-1.54-4.07-3.79-7.86-6.87-10.94c-9.54-9.54-22.44-11.22-30.02-3.65
		c-1.54,1.54-2.81,3.51-3.51,5.61c-2.52-1.82-5.33-3.37-8.28-4.49c-4.63-9.68-11.22-23.43-25.95-23.43c-4.77,0-9.4,1.26-13.61,3.37
		c-10.94-8.56-34.37-24.69-58.35-24.69c-26.37,0-62.84,24.13-73.5,24.13c-7.86,0-25.25-38.58-52.46-38.58
		c-14.59,0-29.32,9.96-46.99,20.62c-16.69,10.1-21.18,22.16-26.09,35.07c-3.93,6.31-8.7,11.92-14.17,16.97H0l143.5,249.55H45.31
		l-31.42,56.11h144.06c5.33-0.14,10.66-1.68,15.43-4.21l65.09,113.2l63.26-110.26h52.74v-30.86h-3.65c0-10.8-8.14-22.44-12.2-27.63
		l-0.7-4.49l12.06-21.04l70.56-26.09c9.54-4.07,16.69-12.34,19.22-22.44c5.89-0.56,11.22-3.65,14.87-8.28
		c5.33,1.54,10.66,2.38,16.27,2.52c10.66,0,21.88-6.03,24.83-17.39c0,0,11.22-6.87,16.27-28.34l-87.81-29.04L476.93,85.01z"/>
	<path id="XMLID_4_" d="M408.48,193.02l11.08,3.79l-0.14,7.01c-5.89-0.14-10.66-1.4-10.66,15.85c0,12.76,2.52,16.97,2.52,20.62
		c0,6.03-0.56,7.57-19.78,7.57c-3.93-3.51-8.56-6.17-13.47-7.72c0,0-0.14-0.98-0.56-2.67l81.64-141.96h-24.97
		c1.82-3.51,0.14-9.4-4.49-13.89c-5.33-5.33-12.06-6.87-15.29-3.79c-1.54,1.68-2.1,3.93-1.4,6.03l-10.1,10.66
		c0.14-1.54,0.7-9.96-15.15-14.59c-4.77-9.54-8.84-21.32-18.38-21.32c-5.33,0.42-10.38,2.38-14.59,5.89c0,0-29.18-27.21-57.37-27.21
		c-24.69,0-58.49,24.13-73.5,24.13c-15.85,0-30.02-38.58-52.32-38.58c-12.06,0-26.37,9.68-41.66,19.08
		c-15.29,9.26-18.24,20.62-21.88,29.88c-2.52,6.17-10.38,14.45-19.36,23.43h-70.7l143.36,249.13c-1.12,0.14-2.1,0.28-3.23,0.42
		H51.34l-19.78,35.49h126.53c6.17-0.28,11.92-2.81,16.27-7.15l2.1-2.1l62,107.87l57.37-99.59h48.39v-10.1h-11.5l-2.1-6.45h1.82
		l8.42-3.93c0-9.54-11.64-23.29-11.64-23.29l-1.82-10.8l15.85-27.63l74.06-27.35c13.05-4.77,14.59-23.99,14.59-23.99
		s12.06,5.61,18.66-8.98c6.73,2.1,13.61,3.65,20.62,4.21c6.31,0,15.15-3.37,15.15-12.76c5.89-3.79,10.38-9.26,12.76-15.85
		l-87.39-28.9L408.48,193.02z"/>
	<path id="XMLID_11_" class="st1" d="M191.47,294.72c-4.49-11.08-2.52-13.47-2.52-13.47s-14.73-12.06-10.38-27.07
		c0,0-37.73-54.85-37.73-87.39c0-16.83,8-15.15,8-29.04c0-11.22-7.57-19.78-13.19-19.78c-6.45,0-26.23,13.05-55.13,30.3l10.94-25.25
		l-26.37,27.07c0,0-5.19-26.37,9.12-40.68c2.24-2.24,4.63-4.63,7.01-6.87h-50.5l137.75,239.59c2.38-0.98,4.49-2.52,6.45-4.35
		l21.74-21.88C193.58,309.3,191.89,302.15,191.47,294.72z M415.91,102.54l-1.96,2.24c4.77,5.19,6.45,12.48,4.77,19.36
		c0,7.43-3.93,7.29-3.93,7.29c0,17.25-9.12,14.17-9.12,14.17c0,22.72-24.97,13.47-24.97,13.47c-3.51-0.42-7.01-1.4-10.24-2.95
		l-16.97,18.94c8.56,16.69,15.57,34.23,21.04,52.18l71.68-124.7L415.91,102.54L415.91,102.54z M293.73,367.8l2.95-5.19h-4.91
		L293.73,367.8z M357.28,126.95l-2.52-5.75c-13.33,2.24-25.25-4.49-28.76-6.31c-3.37-1.82,0.28-9.26,0.28-9.26
		c-0.84-1.26-1.82-2.24-2.95-3.09h-13.89c-2.52,1.82-3.23,5.33-1.4,7.86l0.28,0.42c13.89,14.45,25.95,30.58,36.19,47.83l15.43-16.27
		L357.28,126.95z M320.39,321.51l11.08-19.22l-12.34,6.03L320.39,321.51z M297.94,285.74c0-1.54-22.72-7.57-31.56-10.94
		c-8.14,3.23,2.38,4.77,2.38,15.43c-0.28,4.63-1.26,9.26-2.95,13.61l-4.49,1.26c0,0-9.12,16.69-14.87,14.31
		c-8.28,14.59-11.64,17.81-24.83,17.81c-3.93,0-7.86-1.12-11.22-3.23l-28.76,31.28l56.95,98.89l48.82-85.01h-35.07
		c0.28-5.89,2.24-11.64,5.61-16.55c0-14.45,8.98-17.39,15.57-18.1c13.89-1.26,19.78-0.14,19.78-6.87c0-4.91-0.42-10.66-0.42-10.66
		h5.19c0-18.8-5.33-23.43-5.33-33.1C292.61,290.23,297.94,288.68,297.94,285.74L297.94,285.74z"/>
	<polygon id="XMLID_12_" class="st1" points="272.69,369.06 277.46,369.06 279.57,362.61 269.19,362.61 	"/>
	<path id="XMLID_16_" class="st0" d="M434.43,201.57l-3.51,5.33l24.97,8.42l-0.14-6.45L434.43,201.57z M471.74,213.92l-3.79,5.19
		l9.68,3.23l-1.4-6.87L471.74,213.92z M305.24,362.61l-3.79,6.45h15.15l1.82-6.45H305.24z"/>
	<path id="XMLID_17_" class="st0" d="M476.51,230.75c0.42,1.82-1.82,3.79-4.91,4.49c-3.23,0.7-6.03-0.14-6.45-1.82
		c-0.42-1.68,1.82-3.79,4.91-4.49C473.28,228.23,476.23,228.93,476.51,230.75z"/>
	<path id="XMLID_18_" class="st0" d="M272.97,349.28c0.98,1.4-0.14,4.07-2.52,6.03c-2.52,1.96-5.47,2.52-6.59,0.98
		c-1.12-1.4,0-4.07,2.52-6.03C268.76,348.44,271.85,347.88,272.97,349.28z"/>
	<path id="XMLID_58_" class="st0" d="M378.74,73.36l-4.63-9.96c-0.42-0.98-3.65-0.84-3.65,1.12
		C370.32,65.93,373.69,73.36,378.74,73.36z M378.46,83.88l-14.73-19.92c-2.1-0.14-3.93,1.26-4.49,3.23l15.85,16.97
		C377.34,86.27,378.46,83.88,378.46,83.88z M373.83,91.32L356.44,71.4c-2.24-2.52-6.31,2.38-6.31,2.38l19.64,19.36
		C371.59,94.83,374.81,92.3,373.83,91.32L373.83,91.32z M367.66,96.93c0-4.35-18.66-18.66-21.6-18.66s-4.35,3.65-4.35,3.65
		l23.85,16.97C366.26,99.31,367.66,97.49,367.66,96.93L367.66,96.93z M361.21,106.89c1.4,0.7,3.51-3.51,2.1-4.49
		c-8.14-5.75-16.69-10.66-25.67-14.87c-1.26,1.68-1.82,3.79-1.54,5.75L361.21,106.89z M357.14,114.46c0.98,0.42,3.51-2.38,1.82-3.65
		c-7.72-4.63-15.71-8.56-23.99-12.06c-2.95,2.95-1.26,4.63-1.26,4.63L357.14,114.46z M351.67,117.27
		c-6.87-3.65-13.89-6.59-21.32-8.98l-0.56,1.96C329.78,110.26,334.97,118.11,351.67,117.27L351.67,117.27z M407.08,106.05
		l9.54,16.69c-0.56-6.73-3.09-13.05-7.43-18.24C409.18,104.5,407.08,104.22,407.08,106.05L407.08,106.05z M415.21,128.35
		c0-6.59-10.52-18.24-10.52-18.24l-2.52,5.05l10.1,15.29C412.41,130.6,415.21,132,415.21,128.35L415.21,128.35z M396.69,124.84
		c0,0,4.63,13.47,9.68,13.47c0.84-6.17-1.68-12.48-6.59-16.27C398.24,122.18,396.98,123.3,396.69,124.84L396.69,124.84z
		 M389.4,131.16c0,0,2.95,18.24,11.08,18.24C401.32,146.73,397.96,131.16,389.4,131.16L389.4,131.16z M392.49,158.93
		c2.81-11.78-9.26-23.99-9.26-23.99c-8.42-0.56-8.7,2.38-8.7,2.38S380.42,158.93,392.49,158.93L392.49,158.93z M362.89,139.57
		c1.82-1.12,3.93-1.68,6.03-1.4c-2.38-7.43-6.59-5.61-6.59-5.61C360.64,134.94,362.89,139.57,362.89,139.57L362.89,139.57z
		 M406.51,100.44c6.03-0.42,11.5-4.21,13.89-9.82c0-1.68-1.68-2.81-4.77-2.81c-2.95,0-11.22,8.7-11.22,11.22
		C404.55,99.45,404.97,100.44,406.51,100.44L406.51,100.44z M377.9,126.39c0.42,1.68,1.96,2.81,3.79,2.52
		c6.17,0,18.8-13.33,18.8-24.27c0-2.1-3.37-2.24-3.37-2.24C385.61,109.83,377.9,126.39,377.9,126.39L377.9,126.39z M394.73,98.33
		c7.43-3.79-0.28-13.33-5.61-10.38c-12.76,8-21.46,21.04-24.13,35.77c1.68,2.1,4.49,2.95,7.15,2.24
		C372.29,126.11,383.93,103.66,394.73,98.33L394.73,98.33z M238.61,252.49c-1.26,5.33-0.56,10.94,1.82,15.85
		c1.4-0.7,2.24-0.28,2.24-8.98C242.67,250.67,238.61,252.49,238.61,252.49z M226.68,246.32c-0.42,6.17,0,12.34,0.98,18.52
		c0,0,4.35,1.82,5.75-0.42c-0.28-2.38-0.28-7.57-0.28-10.8C233.14,245.62,226.68,246.32,226.68,246.32L226.68,246.32z
		 M218.41,243.52c-2.38,5.19-0.7,12.76-0.7,17.96c0,5.47,3.65,5.33,5.33,4.35C220.93,261.75,226.54,247.44,218.41,243.52
		L218.41,243.52z M212.23,257.12c0-18.66-6.45-15.43-6.45-8.84C205.78,256,209.99,259.37,212.23,257.12L212.23,257.12z
		 M203.96,263.29c0-1.54-2.24-1.4-2.24-13.05c0-9.26-10.38-5.75-10.38-0.84s8.42,10.94,8.42,14.59
		C199.75,263.86,203.96,265.54,203.96,263.29L203.96,263.29z M184.88,253.05c-8,11.08,5.05,22.44,5.05,22.44
		c2.67,0.28,5.33-0.56,7.43-2.24C197.37,273.25,193.3,258.24,184.88,253.05L184.88,253.05z M234.26,296.68
		c1.26,28.2-3.37,27.63-3.37,31.98c0,7.01,11.92-1.96,11.92-19.78C242.95,288.12,234.26,296.68,234.26,296.68L234.26,296.68z
		 M207.61,286.44c6.73,27.49,15.01,43.63,18.38,44.47c0,0,2.38-4.07,2.38-27.77C228.37,303.13,222.47,278.16,207.61,286.44
		L207.61,286.44z M196.94,296.68c2.24,25.67,17.67,36.61,17.67,36.61l2.95-1.68c-6.59-13.47-11.92-27.49-16.27-41.8L196.94,296.68z
		 M260.49,287.42l-0.56,6.03l4.07,0.56l1.12-3.37C264,290.09,262.87,286.86,260.49,287.42L260.49,287.42z M252.77,284.9
		c-4.49,0-2.95,9.96-2.95,13.33c0.14,1.68-0.28,3.51-1.26,4.91c0.98,1.82,0.84,6.45,3.79,6.45c1.82,0,4.21-2.52,4.21-9.12
		C256.7,290.65,256.98,284.9,252.77,284.9L252.77,284.9z M243.24,279.57c-2.67,0-4.07,3.23-4.07,8.56c0,1.82,2.1,3.09,3.51,3.09
		c0.84,0,2.95-1.96,2.95-8C245.62,281.39,244.78,279.57,243.24,279.57L243.24,279.57z M236.78,278.02c0-4.49-3.93-5.33-8.14-5.33
		c-3.09-0.28-5.89,1.68-6.45,4.77c0.28,4.21,2.95,8,6.87,9.68C233.14,286.02,236.22,282.37,236.78,278.02z M216.44,278.3
		c0,0,1.82-6.45-3.37-6.45c-10.38,0-20.2,8.56-20.2,13.05c0,1.4,0.28,2.95,0.98,4.21C193.86,289.1,207.32,276.2,216.44,278.3
		L216.44,278.3z M364.57,143.64L245.9,268.34c-4.35,4.49,7.01,12.34,11.08,7.72L370.6,149.39c1.82-1.54,1.96-4.07,0.56-5.89
		c-1.54-1.82-4.07-1.96-5.89-0.56L364.57,143.64z M131.72,66.91c0-4.49,6.45-9.26,7.29-11.36c-2.24-3.23-6.45-4.35-10.1-2.81
		c-0.84,12.76-4.07,18.94-5.61,26.79c4.77,4.07,3.23-6.03,10.1-6.03c3.09,0.42,5.47,2.95,5.61,6.03c0.14,2.1-0.7,4.35-2.1,5.89
		l4.91-0.42c1.4-1.68,2.1-3.93,2.1-6.17C143.92,69.72,131.72,69.44,131.72,66.91L131.72,66.91z M73.92,115.45
		c-5.05,5.75-5.75,22.44-5.75,22.44l42.08-36.05L93.42,132.7c0,0,28.34-12.91,31-19.36c-4.63-10.1-10.94-19.36-18.8-27.21
		C105.49,86.27,79.25,109.55,73.92,115.45L73.92,115.45z M273.67,264.42c24.83,10.66,47.83,16.27,59.76,16.27
		c11.22,0,26.37-3.09,26.37-27.21c0-15.85-8.56-38.15-22.3-60.46L273.67,264.42z M253.05,254.6l73.78-77.57
		c-26.93-37.31-66.35-71.12-101.84-71.12c-31.56,0-53.02,23.29-53.02,47.97C171.98,198.35,211.95,232.85,253.05,254.6z
		 M422.79,204.24l4.77,1.54l5.61-8.28l26.09,8.7l0.28,10.1l5.19,1.68l5.75-8l8.84,2.95l2.1,10.8l3.65,1.26
		c3.93-2.67,7.15-6.31,9.54-10.38l-80.66-26.65l-0.98,3.09l10.24,3.37L422.79,204.24L422.79,204.24z M322.07,362.61l-2.81,9.82
		h-27.35l-3.65-9.82h-5.19l-3.23,9.82h-9.26l-5.61-9.82h-2.95c-3.23,3.79-5.33,8.28-6.45,13.05h84.87v-3.23h-10.8l-3.09-9.82H322.07
		z M39.14,375.93h17.11l14.87-26.65H53.87L39.14,375.93z M177.87,341.01c-5.47,4.91-12.48,7.86-19.78,8.28h-0.56l-12.06,26.65h12.62
		c4.91-0.28,9.54-2.38,13.05-5.75l35.21-38.29l-8-11.36L177.87,341.01z"/>
</g>
</svg>
