<?xml version="1.0" encoding="utf-8"?>
<!-- Generator: Adobe Illustrator 27.0.0, SVG Export Plug-In . SVG Version: 6.00 Build 0)  -->
<svg version="1.1" id="Layer_1" xmlns="http://www.w3.org/2000/svg" xmlns:xlink="http://www.w3.org/1999/xlink" x="0px" y="0px"
	 viewBox="0 0 512 512" style="enable-background:new 0 0 512 512;" xml:space="preserve">
<style type="text/css">
	.st0{fill:#FFFFFF;}
	.st1{fill:#EA7200;}
	.st2{fill:#006D75;}
</style>
<g id="XMLID_1_">
	<path id="XMLID_3_" class="st0" d="M480.4,208.96l-6.87,12.34l1.12,7.15c-18.51,36.04-38.56,69.42-45.72,81.2
		c-2.8-6.31-6.45-9.96-13.46-13.88c0,0,32.67-59.32,41.51-106.3c-24.82,12.34-50.63,24.4-50.63,24.4l44.17-71.66
		c0,0-85.12,18.65-152.44,25.38C225.59,60.59,159.68,41.8,159.68,41.8s45.72,74.75,54.13,127.05c-56.51-5.33-112.61-14.3-168-26.78
		l80.5,130.42c-47.12,2.8-126.35,5.33-126.35,5.33c20.19,20.19,85.12,45.86,171.23,67.17l15.43,24.82
		c-50.63,38.14-81.2,90.59-81.2,90.59l5.19,9.4c0,0,25.1-1.54,55.81-2.66c0,0,8.41-27.07,42.91-60.44l38.99,62.83l48.66-78.81
		l5.33-0.56l2.94,1.82c-0.98,1.4-1.82,2.8-2.52,4.21c4.07,2.8,4.21,3.23,4.49,8.13c3.93,1.12,8.13,0.98,11.92-0.28l1.82-3.37
		l2.24,0.98c0.28,2.24,0.98,4.91,0.98,4.91c3.79,1.68,8.13,1.26,11.5-0.98c16.55,3.37,27.77,1.54,31.55,0.56
		c16.27,4.49,26.93,1.4,31.27-0.56c7.57,3.09,15.43,5.19,37.02,5.19c9.96,0,20.61-0.56,20.61-7.99c0-10.52-9.96-48.8-20.19-69.98
		c4.35,2.94,9.12,5.19,14.16,6.45l9.26-6.73c-4.21-4.91-3.37-6.31-2.94-10.24c-2.24-1.82-5.05-2.94-7.85-3.37
		c8.98-10.38,27.91-34.64,50.48-77.97c4.77-0.7,10.8-3.51,11.5-11.08c0.84-6.45,1.26-12.9,1.4-19.35
		C497.65,204.19,480.4,208.96,480.4,208.96z"/>
	<path id="XMLID_4_" d="M424.44,160.86l-40.81,65.21c4.49-2.1,9.26-4.21,13.88-6.31l43.61-70.54c0,0-74.04,16.27-141.5,23
		c1.54,2.52,3.09,5.05,4.77,7.57C350.54,174.88,398.92,165.91,424.44,160.86z"/>
	<path id="XMLID_5_" d="M431.03,333.21c-5.61-23.42-6.45-27.63-19.07-33.94l-1.96-2.66c22.86-41.09,39.55-90.17,39.55-96.06
		c0-1.4-0.56-1.82-1.54-1.4c-36.6,18.51-76.57,35.06-85.54,41.23l-2.38,3.37c-13.74-12.2-28.05-23.7-43.05-34.36
		C276.21,129.31,213.67,72.93,173.28,52.74c0,8.41,39.83,69.84,46,121.44c-72.22-5.05-163.8-24.96-163.8-24.96l78.95,127.61
		c-64.79,4.07-121.72,5.33-121.72,5.33c0,4.49,72.36,38.99,179.22,63.25c23.28,5.33,40.81,4.49,52.17,4.49
		c-2.1-2.38-4.21-4.63-6.45-6.87c15.43,9.54,29.59,18.93,42.35,27.35c-3.23,0-6.73,0.14-10.52,0.14c-25.66,0-45.02-1.4-57.36-2.24
		l-11.22-17.81c-2.8-0.56-5.61-0.98-8.41-1.68c-1.12-0.14-2.1-0.42-3.37-0.56c-4.91-1.12-9.54-2.24-12.76-2.94l16.27,26.08
		c-15.15,10.8-53.85,43.61-82.04,89.47l2.52,4.49c0,0,27.21-1.68,49.92-2.38c0,0,10.38-29.31,47.12-63.25l37.86,61.28l46-74.47
		c2.94-0.28,6.03-0.56,9.12-0.98c3.23,1.96,6.17,3.93,9.26,5.61c-1.68,0.98-2.94,2.24-3.93,3.93c1.68,1.26,2.66,3.23,2.8,5.33
		c1.54,0.28,3.09,0.14,4.63-0.28c1.12-1.68,2.1-3.51,2.94-5.33c2.8,1.4,5.61,2.8,8.55,3.93c0,1.54,0.14,2.94,0.42,4.49
		c0,0,2.94,0.98,6.45-2.1c20.33,4.63,32.53,0.56,32.53,0.56c20.75,6.17,31.27-0.7,31.27-0.7c7.99,3.65,14.86,5.61,37.02,5.61
		c12.06,0,15.99-1.4,15.99-3.51C451.51,393.23,441.27,353.68,431.03,333.21z"/>
	<path id="XMLID_8_" d="M483.48,212.89l-5.19,9.26l1.12,7.01c-23.28,45.86-49.22,87.37-49.22,87.37l3.23,7.85l3.79-2.66l2.66,0.14
		c0,0,24.82-23.7,56.51-85.12c0,0,9.26,0.28,9.96-7.15c0.7-7.57,1.26-12.76,1.26-15.85C495.96,209.8,483.48,212.89,483.48,212.89z
		 M437.06,325.92l0.7,2.8c3.51,2.38,7.43,4.35,11.5,5.89l3.79-2.8c-1.4-2.1-1.96-4.63-1.54-7.01
		C446.46,321.57,437.06,325.92,437.06,325.92L437.06,325.92z"/>
	<path id="XMLID_11_" class="st0" d="M344.23,394.35c3.37-1.96,6.59-4.21,9.68-6.45c-18.65,0.84-25.52-1.4-25.52-1.4
		c3.37-3.37,7.43-6.17,9.96-8.83c-1.96,0.28-4.07,0.56-6.03,0.7c0,0.84-0.98,1.82-3.79,3.65c-5.61,0.84-11.08,1.68-16.41,2.38
		c1.54,1.68,3.23,3.37,4.91,4.77c1.26-0.42,2.52-0.84,4.07-1.26c0,1.26-0.28,2.52-0.7,3.79c2.38,1.54,4.77,2.94,7.43,4.07
		c0.28-1.96,0.98-3.79,1.96-5.47c0.98,0.28,1.4,2.94,1.96,3.79c1.4,1.96,3.23,2.24,3.51,3.93c7.85,1.82,17.67,2.24,30.71,0.56
		l3.65-2.94C350.54,396.04,344.23,394.35,344.23,394.35z M313.38,366.59c-8.27,2.66-11.92,0.84-11.92,0.84
		c1.26-1.4,2.1-3.09,2.66-4.91c-7.29,2.1-9.54,0-9.54,0c0.98-0.98,1.82-2.24,2.38-3.51c-5.05-0.14-9.96,0.42-14.86,1.54
		c6.73,0.84,12.9,3.93,17.53,8.98c4.35-0.28,8.55-0.7,12.76-1.4L313.38,366.59z"/>
	<path id="XMLID_14_" class="st0" d="M133.17,435.02l-9.12,11.64c0,0,26.78-4.07,43.05-1.82l4.49-7.57
		C162.76,432.78,133.17,435.02,133.17,435.02z M297.25,361.68c2.94,0.14,5.89-0.28,8.69-1.4c0.14,2.1-0.56,4.21-1.82,5.89
		c4.07-0.28,8.13-0.84,12.06-1.82c0,0-0.7,1.68-1.68,3.37c1.26-0.28,2.52-0.42,3.79-0.42c2.52,0,2.94,0.56,5.19,0.56
		c4.35,0,4.91,0.98,5.47,6.03c0.84,0.98,1.68,1.96,2.66,2.94c3.23-0.28,6.87-0.56,10.52-1.12c-2.94,3.79-6.45,7.15-10.38,9.96
		c0,0,17.25,1.68,26.22,0.56c-2.52,3.09-5.75,5.61-9.26,7.43c0,0,11.92,0.7,24.82,0.56c-1.54,1.68-3.23,3.37-5.05,4.91
		c0,0,15.85,3.51,27.07,0.84c-40.67-16.13-62.97-40.67-97.04-40.67C298.09,359.99,297.67,360.84,297.25,361.68L297.25,361.68z"/>
	<path id="XMLID_19_" class="st0" d="M167.81,396.32l-12.76,12.76c0,0,23.56-3.23,39.13-1.12l6.03-6.87
		C194.46,396.18,167.81,396.32,167.81,396.32z M153.37,410.9l-9.68,11.08c0,0,26.93-2.8,38,0.28l11.22-12.9
		C181.56,407.53,153.37,410.9,153.37,410.9z M142.15,423.8l-3.23,3.93c0,0,33.24-5.19,41.09-3.37l0.56-0.84
		C172.44,421,142.15,423.8,142.15,423.8L142.15,423.8z M137.38,429.69l-2.94,3.51c0,0,27.77-2.1,37.86,2.52l6.59-9.96
		C170.06,424.5,137.38,429.69,137.38,429.69L137.38,429.69z"/>
	<path id="XMLID_20_" class="st0" d="M170.2,394.21l-0.56,0.56c0,0,23-0.28,31.83,5.19l1.4-1.4
		C195.58,394.49,170.2,394.21,170.2,394.21z"/>
	<path id="XMLID_29_" class="st0" d="M204.55,398.98l0.42,3.65l8.41-8.13l-0.14-4.21L204.55,398.98z M201.61,402.21l0.84,3.09
		l1.26-1.26l-0.56-3.65L201.61,402.21z M194.32,410.06l0.42,3.37l6.31-6.87l-0.7-3.09L194.32,410.06z M182.4,424.08l0.56,2.66
		l10.38-11.92l-0.42-3.23L182.4,424.08L182.4,424.08z M180.57,426.47l0.42,2.66l0.56-0.84l-0.56-2.52L180.57,426.47z M173.28,437.55
		l0.28,2.1l6.17-8.98l-0.42-2.52L173.28,437.55z M168.23,445.96l0.28,2.38l3.79-6.45l-0.42-2.1L168.23,445.96z M183.1,383.13
		l-11.08,9.54c0,0,25.66,0.42,31.83,4.63l9.4-9.26C204.97,383.27,183.1,383.13,183.1,383.13L183.1,383.13z"/>
	<path id="XMLID_37_" class="st1" d="M485.02,216.81L481.8,222c6.03-0.98,12.06-1.26,18.09-0.56l3.79-5.33
		C497.51,214.71,491.05,214.99,485.02,216.81z M483.34,227.61c-15.43,27.77-32.25,64.37-50.48,87.09l5.33-3.37l1.12-1.26l-0.98,3.23
		l2.1-1.12l-3.37,6.03l3.09-2.52c0,0,15.71-17.53,55.39-89.33C486.85,224.95,483.34,227.61,483.34,227.61L483.34,227.61z
		 M166.27,446.38c-14.3-2.66-43.75,2.1-43.75,2.1l-7.85,11.5l46-2.1L166.27,446.38z M214.65,386.92l3.79-2.1
		c0,0,15.85,2.52,110.79-7.29c-2.24-1.68-3.37-1.4-3.37-5.05c0-1.26,0.14-1.4-1.82-1.4c-2.1,0-2.94-0.56-5.33-0.56
		c-3.09,0-7.57,3.09-54.13,3.09c-37.02,0-62.83-3.09-64.65-3.09c-1.68,0-5.05,3.23-15.01,11.22
		C184.92,381.45,204.41,381.31,214.65,386.92L214.65,386.92z M319.55,327.32c1.68,13.32,4.91,18.93,4.91,18.93
		c4.49,3.23,9.4,5.89,14.72,7.85C329.36,336.3,319.55,327.32,319.55,327.32z M329.22,401.5c1.54-0.28,2.8-0.98,3.93-2.1
		c-1.12-1.82-2.24-3.79-3.09-5.75C329.22,396.18,328.94,398.84,329.22,401.5L329.22,401.5z M312.96,398.7
		c3.23-4.21,5.33-6.87,5.75-8.55c-2.8,1.12-6.31,1.82-8.27,4.77C311.55,395.9,312.39,397.3,312.96,398.7L312.96,398.7z"/>
	<path id="XMLID_43_" class="st1" d="M200.91,350.46c-2.8-0.56-5.61-0.98-8.41-1.68c-0.98-0.14-2.1-0.56-3.23-0.7l12.06,19.35
		c0.84,0.14,1.82,0.14,2.8,0.14c2.1,0.14,4.91,0.42,7.85,0.56L200.91,350.46z M379.57,227.89c1.4-0.56,2.66-1.26,4.07-1.82
		l40.95-65.21c-25.66,5.19-73.9,14.16-120.32,18.93c0.42,0.84,0.84,1.54,1.4,2.24l3.09,5.33c35.76-4.07,72.64-10.24,99.43-15.29
		l-38.14,60.58C372.84,231.26,376.06,229.58,379.57,227.89z M279.3,388.18c-2.8,0.28-5.33,0.56-7.99,0.7
		c-15.01,1.26-29.87,1.96-44.88,2.24c-4.21,0.14-6.45,0.14-6.45,0.14c-0.28,0.14-0.42,0.28-0.7,0.56c-0.56,0.56-1.12,0.98-1.82,1.68
		l30.71,48.94l34.08-54.41C281.4,387.9,280.28,388.04,279.3,388.18z M449.83,325.92c-3.23-1.82-9.54,0.7-9.54,0.7
		c3.37,0.84,6.73,1.96,9.96,3.23C449.83,328.58,449.69,327.18,449.83,325.92z M436.08,315.26c-1.12,0.84-2.52,1.4-3.79,1.82
		l1.96,4.07l1.26-0.98l-0.56-1.4l1.96-3.79L436.08,315.26z"/>
	<path id="XMLID_54_" class="st2" d="M233.58,257.06c0,0-38.85-32.25-87.09-40.25c-1.82,0-5.33,7.29-5.33,7.29s5.19-4.63,6.73-4.63
		C189.13,227.33,233.58,257.06,233.58,257.06z M256.16,291.84c-1.96,12.62-1.26,25.52,1.82,38c-0.98-9.54,2.24-31.97,2.24-31.97
		L256.16,291.84z M266.26,300.68c-1.96,11.78-1.54,23.98,1.4,35.62c-0.98-7.29,2.8-28.75,2.8-28.75L266.26,300.68z M276.35,310.63
		c-1.96,10.24-1.96,20.75,0.14,31.13c-0.56-5.75,4.07-25.1,4.07-25.1L276.35,310.63z M157.86,275.29c0,0,7.99,4.77,20.9,14.44
		c-3.23-5.61-11.5-11.5-20.75-16.97l-20.19,1.4l1.54,2.38C145.51,276.13,151.68,275.85,157.86,275.29z M408.88,301.24
		c0,0-30.29-42.35-88.21-85.12c4.91,10.1,9.54,20.75,13.6,31.55c0.56,1.54,0.56,2.94-0.7,2.94c-12.76,0-57.78-24.82-101.81-20.33
		c22.86,21.88,45.72,52.45,23.7,41.23c0,0,23,14.16,50.06,42.77c20.19,0,24.26,3.37,25.38,6.17c2.24,5.47,5.61,15.15,18.93,30.71
		c6.03,0,7.15-0.42,9.4-5.89c0,0,1.68,6.87-1.4,12.06c27.63,21.74,81.06,43.61,89.19,43.61c3.37,0-3.51-29.87-18.93-65.91
		C422.76,312.46,419.96,306,408.88,301.24L408.88,301.24z M220.26,186.8c0-2.8-0.14-5.75-0.42-8.55
		c-24.82,2.52-39.69,8.41-45.3,11.22C183.1,186.94,198.66,186.24,220.26,186.8z M408.04,172.08l-38.14,60.58
		c2.94-1.4,6.17-3.09,9.68-4.77l39.83-63.53c-25.24,4.91-70.26,13.04-113.87,17.81l3.09,5.33
		C344.51,183.44,381.25,177.13,408.04,172.08z M204.27,367.57c2.1,0.14,4.77,0.42,7.85,0.56l-11.22-17.81
		c-2.8-0.42-5.61-0.98-8.41-1.68L204.27,367.57z M271.45,388.88c-20.33,1.68-36.46,2.1-44.88,2.24c-4.21,0.14-6.59,0.14-6.59,0.14
		c-0.14,0.14-0.28,0.28-0.56,0.56l28.89,46.14l31.13-49.78C276.63,388.46,273.97,388.6,271.45,388.88z"/>
	<path id="XMLID_55_" class="st0" d="M248.31,425.48l23.14-36.6c-20.33,1.68-36.46,2.1-44.88,2.24L248.31,425.48z"/>
</g>
</svg>
