<?xml version="1.0" encoding="utf-8"?>
<!-- Generator: Adobe Illustrator 27.0.0, SVG Export Plug-In . SVG Version: 6.00 Build 0)  -->
<svg version="1.1" id="Layer_1" xmlns="http://www.w3.org/2000/svg" xmlns:xlink="http://www.w3.org/1999/xlink" x="0px" y="0px"
	 viewBox="0 0 512 512" style="enable-background:new 0 0 512 512;" xml:space="preserve">
<style type="text/css">
	.st0{fill:#0F1F48;}
	.st1{fill:#FFFFFF;}
	.st2{fill:#FFC325;}
	.st3{fill:#0447A0;}
</style>
<g id="XMLID_1_">
	<path id="XMLID_3_" class="st0" d="M90.22,50.84c0,0,19.63,29.45,25.38,44.45c0.28,0.56,0.28,1.26,0.56,1.68
		c1.26,3.51,1.26,6.87,0.28,8.13c-2.1,2.94-5.61,4.21-14.02,3.93l-36.6-58.2H0.05l153.98,250.32c-1.96,0-3.93-0.14-5.75-0.14
		c-29.17,0-56.37,7.43-76.71,21.04c-23.84,15.85-35.9,35.76-35.9,59.18c0,22.58,12.76,43.47,36.04,59.04
		c20.19,13.46,47.4,20.9,76.57,20.9c28.47,0,55.53-7.57,76.15-21.46c23.14-15.43,35.76-36.18,35.76-58.48
		c0-10.1-2.66-19.77-8.41-30.57l-0.28-0.56l-35.9-57.36c7.01,1.12,13.88,1.26,18.93,1.26c9.96,0,18.09-1.54,18.37-1.54
		c2.8-0.56,10.66-2.38,10.66-2.38l-10.1-14.58c3.79,0.28,23.84,1.26,41.51,0.14c12.34-0.84,23.56-3.65,27.21-4.63
		c3.23-0.84,12.62-4.35,12.62-4.35l-12.9-12.76c13.88-0.28,28.19-3.51,46.98-12.06c30.57-14.02,47.96-34.08,54.41-42.35h-3.23
		c4.77-2.66,10.24-6.17,14.72-9.96c8.83-7.15,15.15-14.44,19.91-21.88c1.96-3.09,3.79-6.17,5.19-8.83c1.82-3.65,2.66-6.45,2.66-6.45
		h-3.51c2.66-2.24,11.22-10.1,17.25-21.18c2.8-5.05,5.05-10.94,6.59-15.57c1.4-4.49,2.1-7.71,2.1-7.71h-5.61
		c6.03-4.21,15.57-13.46,22.72-26.93c3.51-6.45,6.17-13.6,7.85-19.35c1.68-6.03,2.1-10.8,2.1-10.8H90.22z"/>
	<path id="XMLID_4_" class="st1" d="M102.56,58.27l5.19,7.43c0.14,0.14,10.8,15.71,15.29,28.75c2.1,6.31,1.26,12.2,0.42,13.88
		c-3.79,6.87-17.25,7.71-22.86,7.71c-0.84,0-1.54,0-2.38,0L61.75,58.27H13.37l154.68,251.3c-6.45-0.84-13.32-1.12-19.77-1.12
		c-27.63,0-53.43,7.01-72.64,19.77c-21.6,14.44-32.53,32.25-32.53,53.01c0,20.05,11.64,38.71,32.67,52.87
		c18.93,12.62,44.74,19.63,72.5,19.63c26.93,0,52.59-7.15,72.08-20.19c20.9-14.02,32.53-32.53,32.53-52.17
		c0-8.83-2.38-17.39-7.57-27.07l-0.14-0.28l-45.44-72.64c5.47,1.4,25.66,5.33,34.92,5.33c9.26,0,16.27-1.54,16.27-1.54l-13.18-18.51
		c5.33,0.28,26.36,2.8,45.72,1.96c20.61-0.98,28.61-2.94,37.58-5.05l-15.43-16.27c13.18-0.28,34.64-0.56,60.3-12.34
		c23.7-10.8,38-25.52,44.59-34.08h-13.46c12.9-3.65,23-8.69,33.38-17.11c14.72-11.92,20.61-26.08,20.61-26.08h-14.02
		c2.24-1.4,7.43-4.07,13.18-8.41c5.33-4.07,11.08-9.68,15.43-15.01c2.8-3.51,8.13-12.48,9.12-20.9h-14.3
		c6.03-4.35,21.04-15.43,30.57-29.31c3.65-5.19,6.87-11.22,8.69-16.13c1.96-5.33,2.38-9.4,2.38-9.4L102.56,58.27z"/>
	<path id="XMLID_5_" class="st2" d="M111.54,63.04c0,0,11.08,15.99,15.85,29.87c2.66,7.57,1.68,14.86,0.14,17.67
		c-4.77,8.83-18.93,10.1-27.07,10.1c-2.1,0-3.79-0.14-5.19-0.14l-36.32-57.5H21.93l155.52,252.84c-9.12-1.82-19.49-2.66-29.17-2.66
		c-26.36,0-51.19,6.45-69.98,18.93c-20.33,13.6-30.43,29.87-30.43,49.08c0,18.65,11.22,36.04,30.57,48.94
		c18.79,12.48,43.47,18.79,69.84,18.79s50.63-6.87,69.42-19.35c19.35-12.9,30.43-29.73,30.43-48.24c0-7.99-2.24-15.85-7.01-24.82
		l-0.14-0.14l-51.19-83.3c13.04,3.93,33.1,9.12,44.59,8.55l9.12-0.42l-5.61-7.15c0-0.14-4.63-6.03-8.55-12.34
		c11.08,0.84,30.57,2.1,48.1,2.1c6.45,0,17.53-0.42,25.52-1.26c5.47-0.56,9.54-1.4,9.54-1.4l-16.97-18.09c1.12,0,2.1,0,3.37,0l0,0
		c12.2,0,39.69-0.98,62.69-11.22c11.92-5.33,22.58-11.92,29.87-18.23c5.89-5.05,9.54-10.38,9.54-10.38h-20.05
		c17.53-5.61,32.96-12.06,47.26-23.84c5.75-4.77,9.54-10.52,11.5-14.16c0.98-1.82,1.26-3.09,1.54-3.51h-20.19
		c1.82-0.98,22.86-12.06,34.78-23.98c5.75-5.75,9.12-11.78,10.38-15.85c0.84-2.66,0.56-4.77,0.56-4.77h-21.74
		c9.54-6.03,26.36-17.39,37.44-30.71c4.35-5.19,8.27-11.36,10.38-15.99c1.96-4.35,2.1-7.43,2.1-7.43L111.54,63.04L111.54,63.04z"/>
	<path id="XMLID_6_" class="st3" d="M488.49,67.8H120.37c42.63,66.33-27.77,57.36-27.77,57.36L56.42,67.8H30.34L186.7,323.17
		c-11.64-3.37-24.96-5.19-38.56-5.19c-52.45,0-95.08,28.47-95.08,63.39c0,35.06,42.63,63.39,95.08,63.39
		c52.59,0,95.08-28.33,95.08-63.39c0-8.13-2.52-15.43-6.45-22.72l-57.78-93.96c0,0,38.14,13.04,54.97,12.2
		c0,0-9.26-12.06-13.04-20.61c0,0,56.37,5.19,81.62,1.4l-18.37-19.91c0,0,69.98,7.43,105.74-29.87h-7.71H198.06l-3.09-4.77h168.98
		c23-5.89,57.5-17.67,68.72-36.74h-7.71h-252l-3.09-4.77h241.06c16.13-8.13,46.56-25.24,49.92-39.69h-12.34H144.91l-3.09-4.77H435.9
		C451.05,108.19,481.62,88.28,488.49,67.8L488.49,67.8z"/>
</g>
</svg>
