<?xml version="1.0" encoding="utf-8"?>
<!-- Generator: Adobe Illustrator 27.0.0, SVG Export Plug-In . SVG Version: 6.00 Build 0)  -->
<svg version="1.1" id="Layer_1" xmlns="http://www.w3.org/2000/svg" xmlns:xlink="http://www.w3.org/1999/xlink" x="0px" y="0px"
	 viewBox="0 0 512 512" style="enable-background:new 0 0 512 512;" xml:space="preserve">
<style type="text/css">
	.st0{fill:#002868;}
</style>
<g id="XMLID_2_">
	<path id="XMLID_8_" class="st0" d="M512.05,233.33c0-51.92-32.27-103.13-89.52-134.7l-22.03,17.4
		c39.15,24.69,62.16,61.46,62.16,103.27c0,97.52-120.53,185.91-254.67,185.91c-13.47,0-27.08-0.98-40.41-2.95L122.4,435.8
		c30.31,9.96,61.88,15.01,93.73,14.73C375.53,450.67,512.05,343.05,512.05,233.33z"/>
	<path id="XMLID_11_" class="st0" d="M21.66,269.95c0-100.88,126.28-185.91,254.67-185.91h2.67L154.67,222.95l71.42-11.22
		L85.36,347.82l57.11-10.38l-39.85,45.6C54.35,360.17,21.66,320.6,21.66,269.95z M309.44,269.53l-81.8,16l181.7-149.43l-84.61,11.37
		L489.18,16.97L297.79,67.34c-2.53,0-5.05-0.14-7.58-0.14C133.35,67.2,0.05,173.84,0.05,286.37c0,55.14,29.61,99.06,75.77,127.4
		L5.1,494.73L309.44,269.53z"/>
</g>
</svg>
