<?xml version="1.0" encoding="utf-8"?>
<!-- Generator: Adobe Illustrator 27.0.0, SVG Export Plug-In . SVG Version: 6.00 Build 0)  -->
<svg version="1.1" id="Layer_1" xmlns="http://www.w3.org/2000/svg" xmlns:xlink="http://www.w3.org/1999/xlink" x="0px" y="0px"
	 viewBox="0 0 512 512" style="enable-background:new 0 0 512 512;" xml:space="preserve">
<style type="text/css">
	.st0{fill:#00205B;}
	.st1{fill:#FFFFFF;}
</style>
<g id="XMLID_1_">
	<path id="XMLID_9_" class="st0" d="M382.27,276.23c-1.54-0.7-3.09-1.68-4.77-2.53c-0.42-0.28-0.98-0.42-1.54-0.42
		c-1.4,0-2.67,0.7-3.23,1.96l-11.37,21.89c-0.42,0.84-0.42,1.82-0.14,2.81c0.28,0.98,0.84,1.68,1.68,2.1
		c1.54,0.7,3.23,1.68,4.77,2.53c0.56,0.28,1.12,0.42,1.68,0.42c1.4,0,2.67-0.7,3.23-1.96l11.23-21.89
		C384.8,279.45,384.24,277.21,382.27,276.23L382.27,276.23z M220.77,335.72h7.72l-3.79-17.26L220.77,335.72z M255.15,372.9
		l-4.49,17.26h8.98L255.15,372.9z M254.45,277.07h5.47c1.96-0.14,3.51-1.68,3.51-3.65v-24.55c0-1.96-1.54-3.51-3.51-3.51h-5.47
		c-1.96,0-3.51,1.54-3.51,3.51v24.55C250.8,275.24,252.34,276.93,254.45,277.07L254.45,277.07L254.45,277.07z M212.08,266.68
		c2.53-0.42,4.91-0.98,7.58-1.26c0.98-0.14,1.68-0.7,2.25-1.4c0.56-0.84,0.84-1.82,0.56-2.81l-1.68-10.1
		c-0.42-1.96-2.25-3.23-4.21-2.95c-2.53,0.28-4.91,0.7-7.44,1.26h-0.56l2.81,17.4L212.08,266.68z M266.38,317.62h-7.44v13.89h7.44
		c1.4,0,2.39-1.12,2.53-2.39l0,0v-8.7C268.9,318.88,267.78,317.62,266.38,317.62L266.38,317.62z"/>
	<path id="XMLID_10_" class="st0" d="M263.43,510.69c-0.7,0-1.4-0.28-1.96-0.7c-5.89-6.17-10.66-13.33-14.17-21.05
		c-1.96-4.21-3.37-8.42-4.49-12.91c-1.26-4.77-1.96-9.54-2.24-14.45c-12.21,5.75-24.84,10.66-37.88,14.73
		c-14.03,4.49-28.34,8.14-42.94,10.8h-0.42c-0.7,0-1.4-0.42-1.82-0.98c-0.28-0.56-0.42-1.26-0.28-1.96
		c2.53-8.84,6.31-17.12,11.23-24.98c-14.31,2.95-28.76,5.05-43.22,6.45h-0.28c-0.7,0-1.4-0.28-1.82-0.98
		c-0.42-0.56-0.56-1.4-0.28-2.1c2.39-6.59,5.05-13.05,8.14-19.22c-16.56,4.07-33.25,7.16-50.09,9.12H80.6
		c-0.84,0-1.54-0.56-1.96-1.26c-0.28-0.7-0.28-1.54,0.14-2.25c13.05-18.94,28.48-36.06,46.16-50.93
		c-12.77-5.33-24.69-12.35-35.64-20.77c-0.7-0.42-0.98-1.26-0.98-1.96c0-0.84,0.42-1.54,1.12-1.82
		c14.73-8.28,30.31-15.15,46.44-20.35c-12.21-2.24-23.99-6.03-35.22-11.37c-0.7-0.14-1.12-0.84-1.12-1.54c-0.14-0.7,0-1.4,0.42-1.82
		c3.79-4.91,8.28-9.26,13.19-13.05c-7.16-2.95-14.03-6.59-20.63-10.66c-6.74-4.21-13.05-8.84-18.94-14.17
		c-0.98-0.7-1.12-2.1-0.28-3.09c4.49-5.19,9.54-10.1,15.01-14.31c-7.72-5.05-15.15-10.52-22.31-16.28
		c-7.44-5.89-14.59-12.21-21.33-18.94c-0.42-0.42-0.56-1.12-0.56-1.68c0-0.56,0.28-1.12,0.56-1.54c3.37-3.37,7.16-6.31,11.22-8.7
		c-5.19-4.49-9.96-9.4-14.31-14.73c-4.91-6.03-9.26-12.35-13.19-19.08c-0.28-0.56-0.28-1.26-0.14-1.82c0.28-0.7,0.7-1.12,1.4-1.4
		c6.17-2.39,12.49-4.21,19.08-5.19c-5.19-11.37-8.84-23.43-10.94-35.78c-0.14-0.7,0-1.4,0.42-1.82c0.42-0.56,0.98-0.84,1.68-0.98
		c0.28,0,0.42,0,0.56,0.14c12.63,3.51,24.84,8.14,36.62,13.89c1.54-7.86,4.07-15.29,7.72-22.45c0.42-0.7,1.12-1.26,1.96-1.26
		c0.56,0,0.98,0.14,1.4,0.42c6.03,4.35,11.79,8.98,17.26,14.03c5.19,4.49,9.96,9.4,14.59,14.45c2.53-3.93,5.89-7.44,9.68-10.1
		c0.42-0.28,0.84-0.42,1.4-0.42c0.7,0,1.26,0.28,1.68,0.7c13.89,17.26,34.94,40.69,57.95,57.53c-5.89-17.4-13.19-34.24-21.89-50.37
		c-0.42-0.56-0.42-1.4-0.14-1.96c0.28-0.56,0.84-1.12,1.54-1.26c3.93-0.7,7.72-1.12,11.65-1.4c-10.1-16-17.96-33.39-23.43-51.49
		c-0.14-0.7,0-1.4,0.42-1.96c0.42-0.56,0.98-0.98,1.68-0.98h0.14c9.4,0.42,18.66,2.25,27.64,5.05c-1.12-7.44-1.4-14.87-1.12-22.31
		c0.42-8,1.26-16,2.81-23.99c0.14-1.12,1.12-1.82,2.1-1.82c0.28,0,0.56,0,0.7,0.14c6.59,2.53,12.91,5.61,19.08,9.26
		c-0.28-6.74-0.14-13.61,0.42-20.35c0.56-6.88,1.68-13.89,3.23-20.63c0.28-0.98,1.12-1.68,2.1-1.68c0.28,0,0.56,0,0.7,0.14
		c5.05,1.82,9.96,4.21,14.59,7.02c4.91-14.45,12.91-28.2,20.63-40.83c0.7-1.12,2.25-1.4,3.37-0.7c0.28,0.14,0.56,0.42,0.7,0.7
		c5.05,8.14,8.56,14.59,11.79,20.63c3.37,6.59,6.31,13.33,8.98,20.35c4.49-2.95,9.4-5.33,14.45-7.02c0.28-0.14,0.56-0.14,0.7-0.14
		c0.98-0.14,1.96,0.7,2.1,1.68c1.68,6.74,2.81,13.61,3.37,20.63c0.7,6.74,0.7,13.47,0.28,20.35c6.03-3.65,12.49-6.74,19.08-9.26
		c0.28-0.14,0.56-0.14,0.7-0.14c1.12,0,2.1,0.84,2.24,1.82c1.54,7.86,2.39,16,2.81,23.99c0.42,7.44,0,14.87-1.12,22.31
		c8.98-2.95,18.24-4.63,27.64-5.05c0.7,0,1.4,0.28,1.82,0.98c0.42,0.42,0.56,1.26,0.28,1.82c-5.33,18.24-13.19,35.5-23.43,51.49
		c3.93,0.14,7.86,0.7,11.65,1.54c0.7,0.14,1.26,0.56,1.54,1.26c0.28,0.56,0.28,1.4,0,1.96c-8,15.71-16.28,32.55-22.03,50.23
		c25.26-18.38,44.34-40.27,57.95-57.39c0.42-0.56,1.12-0.84,1.82-0.7c0.42,0,0.84,0.14,1.26,0.42c3.93,2.67,7.16,6.17,9.68,10.1
		c4.49-5.19,9.4-10.1,14.59-14.59c5.33-4.77,11.23-9.4,17.26-13.89c0.42-0.28,0.84-0.42,1.4-0.42c0.84,0,1.54,0.42,1.96,1.12
		c3.79,7.02,6.31,14.73,7.72,22.59c11.79-5.75,23.99-10.38,36.62-14.03h0.56c0.7,0,1.26,0.28,1.68,0.7
		c0.42,0.56,0.56,1.12,0.56,1.82c-2.1,12.35-5.89,24.41-11.08,35.78c6.59,0.98,12.91,2.81,19.08,5.19c1.26,0.42,1.82,1.82,1.4,3.09
		l-0.14,0.28c-3.79,6.74-8.28,13.05-13.05,19.08c-4.35,5.33-9.12,10.24-14.45,14.73c4.07,2.53,7.86,5.47,11.22,8.7
		c0.42,0.42,0.7,0.98,0.56,1.54c0,0.56-0.14,1.26-0.56,1.68c-6.73,6.74-13.75,13.05-21.19,18.94c-7.3,5.89-14.73,11.22-22.45,16.28
		c5.61,4.21,10.66,8.98,15.01,14.31c0.7,0.98,0.56,2.24-0.28,3.09c-5.89,5.19-12.07,9.96-18.8,14.17
		c-6.59,4.07-13.61,7.58-20.77,10.66c4.91,3.79,9.54,8.14,13.33,13.05c0.42,0.56,0.56,1.12,0.42,1.82s-0.56,1.26-1.26,1.54
		c-11.08,5.47-22.87,9.26-35.08,11.37c16,5.19,31.57,12.07,46.3,20.35c0.7,0.42,1.12,1.12,1.26,1.82c0,0.84-0.28,1.54-0.98,1.96
		c-13.19,9.68-24.27,16.28-35.78,20.91c17.68,14.73,33.25,31.71,46.16,50.79c0.56,0.7,0.7,1.68,0.14,2.53
		c-0.28,0.84-1.12,1.26-1.96,1.26l-0.28-0.14c-16.84-1.96-33.53-4.91-49.95-9.12c2.81,5.89,5.47,12.49,8.14,19.22
		c0.28,0.7,0.14,1.54-0.28,2.1c-0.42,0.56-1.12,0.84-1.82,0.98h-0.28c-14.45-1.26-28.9-3.51-43.22-6.45
		c4.77,7.86,8.42,16.14,11.08,24.98c0.28,0.7,0.14,1.54-0.28,2.1c-0.42,0.56-1.12,0.84-1.82,0.98l-0.42-0.14
		c-15.71-3.23-31.15-7.16-46.44-12.21c-14.87-4.77-28.76-9.82-38.17-14.03l-0.28-0.14c-0.42,0-0.7,0.28-0.98,0.56
		c-0.98,4.77,0.7,10.94,5.05,17.96c2.67,4.49,5.89,8.7,9.4,12.49v0.14c0.84,1.12,0.84,2.67-0.14,3.65l-14.87,14.31
		C264.69,510.41,264.13,510.69,263.43,510.69z"/>
	<path id="XMLID_13_" class="st1" d="M256.13-0.05c-0.56,0-1.12,0.14-1.68,0.42c-0.56,0.28-1.12,0.84-1.54,1.4
		c-5.05,8.28-8.56,14.59-11.79,20.77c-3.23,6.03-5.89,12.35-8.28,18.8c-4.21-2.39-8.7-4.63-13.19-6.45
		c-0.42-0.14-0.98-0.14-1.4-0.14c-0.84,0-1.54,0.28-2.1,0.7c-0.7,0.56-1.26,1.26-1.4,2.1c-1.68,6.88-2.81,13.75-3.37,20.77
		c-0.56,5.89-0.7,11.93-0.42,17.82c-5.47-3.09-11.08-5.75-16.98-8c-0.42-0.14-0.84-0.28-1.26-0.28c-1.82,0-3.37,1.26-3.65,3.09
		h-0.28c-1.54,8-2.39,16-2.81,24.13c-0.28,6.74,0,13.61,0.7,20.35c-8.42-2.53-17.12-3.93-25.82-4.49h-0.14
		c-2.1,0.14-3.79,1.82-3.65,4.07c0,0.28,0,0.56,0.14,0.98c2.81,9.12,6.17,18.1,9.96,26.94c3.51,7.86,7.58,15.43,12.21,22.73
		c-3.23,0.28-6.31,0.7-9.4,1.4c-1.12,0.14-2.1,0.98-2.53,1.96c-0.56,0.98-0.56,2.25,0,3.23c7.86,14.73,14.59,30.03,20.35,45.88
		c-21.47-16.42-40.83-38.31-53.88-54.44c-0.7-0.84-1.82-1.26-2.95-1.4c-0.84,0-1.54,0.28-2.1,0.7h-0.14
		c-2.25,1.54-4.21,3.37-6.03,5.33c-1.12,1.12-2.1,2.39-2.95,3.65c-4.21-4.63-8.7-9.12-13.33-13.33
		c-5.47-4.77-11.37-9.54-17.54-13.89c-0.56-0.56-1.4-0.84-2.1-0.7c-1.4,0-2.67,0.7-3.37,1.82c-2.1,3.79-3.65,7.86-4.91,11.93
		c-0.98,2.95-1.82,6.03-2.53,9.12c-5.33-2.53-10.8-4.77-16-6.88c-7.02-2.67-13.47-4.77-19.22-6.31h-0.98c-1.12,0-2.1,0.42-2.95,1.26
		c-0.7,0.98-0.98,2.1-0.7,3.23c1.12,6.59,2.81,13.05,4.77,19.36c1.4,5.19,3.23,10.1,5.47,14.87c-5.89,1.26-11.65,2.81-17.4,4.91
		c-0.98,0.42-1.82,1.26-2.24,2.24c-0.42,1.12-0.28,2.25,0.28,3.23c3.93,6.74,8.28,13.19,13.19,19.22
		c3.93,4.91,8.28,9.54,13.05,13.75c-3.51,2.25-6.74,4.91-9.68,7.86c-0.7,0.7-1.26,1.54-1.26,2.67c0,0.98,0.42,2.1,1.26,2.81
		c6.74,6.74,13.89,13.05,21.33,19.08c6.59,5.33,13.47,10.52,20.63,15.15c-2.1,1.68-4.21,3.51-6.03,5.19
		c-2.81,2.67-5.19,5.19-7.58,7.86c-0.56,0.84-0.98,1.82-0.98,2.81c0.14,0.98,0.7,1.96,1.4,2.67c2.95,2.67,6.03,5.05,9.26,7.44
		c3.09,2.39,6.45,4.63,9.82,6.73c3.37,2.25,7.02,4.21,10.66,6.03c2.67,1.26,5.19,2.67,7.86,3.65c-4.21,3.65-8,7.58-11.51,11.79
		c-0.7,0.84-0.98,1.96-0.7,3.09c0.28,1.12,0.98,2.1,1.96,2.67c6.03,2.95,12.21,5.47,18.66,7.44c3.51,1.12,7.44,1.96,11.51,2.95
		c-5.89,1.96-11.51,4.35-17.26,6.73c-8.28,3.51-16.28,7.44-24.13,11.79h-0.14c-1.12,0.7-1.82,1.82-1.82,3.09
		c-0.14,1.26,0.42,2.53,1.54,3.23c5.61,4.35,11.51,8.28,17.68,11.93c5.05,3.09,10.52,5.89,16,8.14
		c-16.84,14.45-31.85,31.15-44.48,49.53c-0.84,1.12-0.84,2.67-0.28,3.93c0.7,1.26,1.96,1.96,3.37,1.96h0.56
		c10.1-1.4,19.08-2.67,27.22-4.21c7.44-1.26,13.89-2.67,19.78-4.21c-2.25,5.05-4.63,10.66-6.74,16.42
		c-0.42,1.12-0.28,2.39,0.42,3.37c0.7,1.12,1.82,1.68,3.09,1.68h0.42c9.12-1.12,17.12-1.96,24.13-3.09
		c5.89-0.98,11.08-1.82,15.86-2.81c-1.54,2.81-2.95,5.47-4.35,8.42c-1.82,4.35-3.51,8.7-5.19,13.89c-0.42,1.12-0.14,2.39,0.56,3.37
		c0.7,0.98,1.82,1.54,3.09,1.54h0.56c7.58-1.54,14.87-3.09,22.03-4.91c7.3-1.68,14.31-3.65,21.05-5.89
		c6.74-2.1,13.47-4.63,19.78-7.02c5.47-2.1,10.94-4.63,16.14-6.88c0.42,4.21,1.12,8.42,2.1,12.49c1.12,4.49,2.67,8.98,4.63,13.19
		c3.65,7.86,8.56,15.01,14.45,21.33c0.84,0.84,1.96,1.26,3.09,1.26c0.98,0,1.96-0.42,2.81-1.12l15.57-14.31
		c0.7-0.84,1.26-1.82,1.4-2.95c0-1.12-0.28-2.1-1.12-2.95c-13.19-15.01-14.73-23.99-14.17-28.34c12.21,5.19,24.84,9.82,37.46,13.75
		c8,2.67,15.86,4.91,23.57,6.88c8.28,2.1,16.14,3.93,23.01,5.33h0.7c1.26,0,2.39-0.56,3.09-1.54s0.84-2.24,0.56-3.37
		c-1.68-5.05-3.37-9.54-5.19-13.89c-1.4-2.95-2.81-5.75-4.35-8.42c4.63,1.12,9.82,1.82,15.72,2.81c7.3,1.12,15.01,1.96,24.27,3.09
		h0.42c1.26,0,2.39-0.56,3.09-1.54s0.84-2.39,0.42-3.51c-2.1-5.89-4.49-11.37-6.88-16.42c6.17,1.54,12.63,2.95,19.92,4.21
		c8.14,1.54,17.12,2.81,27.22,4.21h0.42c1.4,0,2.81-0.7,3.37-1.96c0.7-1.26,0.56-2.81-0.28-3.79
		c-12.63-18.38-27.5-35.08-44.48-49.67c5.61-2.25,10.94-5.05,16.14-8.14c6.03-3.65,12.07-7.58,17.68-11.79
		c0.98-0.84,1.68-2.1,1.54-3.37s-0.84-2.39-1.96-3.09c-7.86-4.35-15.86-8.28-24.13-11.79c-5.75-2.53-11.37-4.77-17.26-6.73
		c3.93-0.98,7.86-1.82,11.51-2.95c6.45-1.96,12.63-4.35,18.66-7.44c0.98-0.56,1.68-1.54,1.96-2.67c0.14-1.12-0.14-2.25-0.98-3.09
		c-3.51-4.21-7.3-8.28-11.51-11.79c2.81-1.12,5.33-2.53,8-3.65c3.51-1.82,7.3-3.79,10.66-6.03c3.37-2.1,6.73-4.35,9.82-6.73
		c3.23-2.24,6.31-4.77,9.26-7.44c0.7-0.7,1.26-1.54,1.26-2.67c0.14-0.98-0.14-1.96-0.7-2.81c-2.25-2.67-4.77-5.19-7.58-7.86
		c-1.96-1.82-4.07-3.65-6.17-5.19c7.16-4.77,14.03-9.82,20.77-15.15c7.44-6.03,14.59-12.35,21.33-19.08
		c0.84-0.56,1.12-1.68,1.12-2.67c0-0.98-0.28-2.1-1.12-2.81c-3.09-2.95-6.31-5.47-9.82-7.86c4.77-4.21,9.12-8.7,13.05-13.75
		c5.05-6.03,9.4-12.49,13.33-19.22c0.56-0.98,0.56-2.1,0.14-3.09c-0.28-1.12-1.12-1.96-2.1-2.25c-5.61-2.25-11.51-3.79-17.4-4.91
		c2.1-4.91,3.93-9.82,5.47-14.87c1.96-6.45,3.51-12.91,4.77-19.5c0.14-1.12-0.14-2.39-0.98-3.23c-0.7-0.84-1.82-1.26-2.95-1.26
		h-0.98c-5.75,1.54-12.21,3.65-19.08,6.31c-5.19,2.1-10.66,4.49-16,6.88c-0.7-2.95-1.54-6.03-2.53-9.12
		c-1.26-4.21-2.95-8.14-5.05-11.93c-0.7-1.12-1.96-1.82-3.23-1.82c-0.84,0-1.68,0.28-2.24,0.7c-6.03,4.35-11.79,8.98-17.4,14.03
		c-4.77,4.07-9.12,8.56-13.33,13.19c-0.84-1.26-1.96-2.53-3.09-3.65c-1.68-1.96-3.65-3.79-5.89-5.33c-0.7-0.42-1.54-0.7-2.24-0.7
		c-1.12,0.14-2.1,0.56-2.95,1.4c-8.28,10.38-16.98,20.35-26.24,29.89c-5.19,5.19-10.52,10.1-15.71,14.73
		c-3.93,3.37-7.86,6.59-11.79,9.68c5.61-15.71,12.49-31.01,20.35-45.6c0.42-0.98,0.42-2.25,0-3.23c-0.42-1.12-1.4-1.82-2.67-1.96
		c-3.09-0.7-6.17-1.12-9.4-1.4c4.63-7.3,8.7-14.87,12.21-22.73c4.07-8.7,7.44-17.68,9.96-26.94c0.42-1.12,0.28-2.39-0.42-3.37
		c-0.7-0.98-1.82-1.54-3.09-1.54h-0.14c-8.7,0.56-17.4,2.1-25.82,4.63c0.98-6.74,1.26-13.47,0.98-20.35
		c-0.42-8.14-1.4-16.14-2.95-24.13c-0.28-1.82-1.82-3.09-3.65-3.09c-0.42,0-0.84,0-1.26,0.14c-5.89,2.25-11.51,5.05-16.98,8.14
		c0.14-5.89,0-11.93-0.42-17.82c-0.56-7.02-1.68-14.03-3.37-20.91c-0.42-1.68-1.96-2.81-3.65-2.81c-0.42,0-0.7,0-1.12,0.14
		c-4.63,1.68-9.12,3.79-13.33,6.31c-2.39-6.31-5.19-12.63-8.28-18.66c-3.23-6.17-6.73-12.49-11.79-20.77
		c-0.28-0.56-0.84-0.98-1.4-1.4C257.54,0.23,256.83-0.05,256.13-0.05z M256.13,3.04c0.28,0,0.56,0,0.7,0.28
		c8.28,13.75,16,27.36,20.77,41.53c0.14,0.28,0.42,0.42,0.7,0.42l0.42-0.14c4.77-2.95,9.82-5.47,15.01-7.44h0.14
		c0.28,0,0.56,0.14,0.7,0.42c3.09,13.75,4.35,27.92,3.51,41.95c0,0.42,0.28,0.7,0.7,0.7h0.14h0.42c6.31-3.93,13.05-7.3,19.92-9.96
		h0.14c0.28,0,0.7,0.14,0.7,0.56c2.95,15.57,3.93,32.13,1.54,47c-0.14,0.42,0.14,0.7,0.56,0.7h0.28c9.12-3.09,18.8-4.91,28.48-5.33
		h0.14c0.42,0,0.7,0.28,0.7,0.7v0.28c-5.33,18.38-13.33,36.06-23.85,52.06c-0.28,0.42-0.14,0.98,0.28,1.12h0.14
		c4.35,0.14,8.56,0.56,12.77,1.4c0.42,0.14,0.7,0.7,0.56,1.12v0.14c-8.28,16.28-16.98,34.1-22.73,52.9
		c-0.14,0.42,0.14,0.84,0.56,0.84h0.14l0.28-0.14c25.26-18.1,44.76-39.85,60.33-59.07c0.14-0.28,0.42-0.28,0.56-0.28l0.42,0.14
		c3.93,2.81,7.3,6.45,9.68,10.66c0.14,0.14,0.42,0.28,0.7,0.28c0.14,0,0.28-0.14,0.56-0.28c9.68-10.8,20.49-20.49,32.27-28.9
		l0.42-0.14c0.28,0,0.42,0.14,0.56,0.42c4.21,7.16,6.17,15.57,7.86,22.87c0,0.28,0.14,0.56,0.56,0.56h0.14h0.28
		c11.93-5.89,24.41-10.66,37.18-14.31h0.14c0.42,0,0.84,0.28,0.84,0.7v0.14c-2.1,12.63-5.89,24.84-11.37,36.48
		c-0.14,0.42,0.14,0.98,0.56,1.12l0,0c6.73,0.98,13.47,2.81,19.78,5.19c0.42,0.14,0.56,0.56,0.42,0.84l-0.14,0.28
		c-7.16,12.91-16.7,24.41-27.78,34.1c-0.28,0.14-0.42,0.7-0.28,0.98l0.28,0.28c4.35,2.53,8.28,5.61,11.79,9.12
		c0.28,0.42,0.28,0.84,0,1.26c-13.47,13.19-28.34,25.12-44.06,35.5c-0.42,0.28-0.42,0.7-0.28,1.12l0.14,0.14
		c5.61,4.35,10.8,9.26,15.57,14.59c0.28,0.28,0.28,0.98,0,1.12c-11.93,10.52-25.54,18.94-40.27,24.98c-0.56,0.14-0.56,0.98-0.14,1.4
		c5.19,3.93,9.82,8.56,14.03,13.47c0.28,0.42,0.14,0.84-0.14,1.12l-0.14,0.14c-10.94,5.75-24.27,9.4-38.17,11.79
		c-0.42,0-0.56,0.42-0.56,0.7c0,0.28,0.14,0.42,0.42,0.42c17.26,5.19,33.82,12.35,49.53,21.19c0.42,0.14,0.56,0.42,0.42,0.84
		l-0.28,0.42c-11.23,8.7-23.43,15.86-36.62,21.19c-0.42,0.14-0.56,0.42-0.42,0.84l0.28,0.42c17.96,14.87,33.67,32.13,46.72,51.35
		c0.28,0.42,0.14,0.84-0.28,1.12l-0.42,0.14h0.42c-17.4-1.96-34.52-5.05-51.49-9.4l-0.14-0.14l0,0c-0.56,0-0.98,0.56-0.7,1.26
		c3.23,6.45,6.17,13.19,8.98,20.49c0.14,0.42-0.14,0.84-0.56,0.98h-0.14h-0.14c-15.01-1.4-30.03-3.65-44.76-6.73h-0.14
		c-0.42,0-0.7,0.28-0.84,0.7c0,0.14,0,0.42,0.14,0.56c5.19,8,9.12,16.84,11.79,25.96c0.14,0.42-0.14,0.7-0.42,0.84h-0.28h-0.14
		c-28.9-5.89-57.11-14.59-84.19-26.1c-0.28-0.14-0.7-0.14-1.12-0.14c-1.12,0-1.96,0.84-2.1,1.82
		c-2.67,12.21,11.51,28.34,14.59,31.85c0.42,0.42,0.42,0.98,0.14,1.4l-0.14,0.14l-15.57,14.45c-0.28,0.14-0.56,0.28-0.7,0.28
		c-0.42,0-0.7-0.14-0.98-0.42c-12.49-13.05-19.78-30.17-20.63-48.13c0-0.56-0.42-0.84-0.98-0.98l-0.42,0.14
		c-25.82,12.07-53.04,20.63-80.96,25.68h-0.14c-0.42,0-0.84-0.42-0.84-0.84v-0.14c2.81-9.12,6.88-17.96,11.93-25.96
		c0.28-0.42,0.14-0.84-0.28-1.12l-0.42-0.14l-0.28,0.14c-14.73,3.09-29.75,5.33-44.76,6.73c-0.56,0-1.12-0.56-0.7-1.12
		c2.53-7.02,5.47-13.89,8.7-20.63c0.14-0.42,0-0.84-0.28-0.98l-0.28-0.14h-0.28c-16.98,4.35-34.1,7.58-51.49,9.54
		c-0.56,0-0.98-0.56-0.84-0.98l0.14-0.28c13.19-19.08,29.04-36.34,46.86-51.21c0.42-0.28,0.28-1.12-0.28-1.4
		c-13.05-5.33-25.26-12.35-36.48-21.05c-0.42-0.28-0.56-0.7-0.28-1.12l0.28-0.28c15.71-8.7,32.27-15.86,49.53-21.19
		c0.56-0.14,0.56-1.12,0-1.12c-13.89-2.67-27.22-6.17-38.31-11.79c-0.42-0.28-0.56-0.7-0.42-1.12v-0.14
		c4.21-5.05,8.98-9.68,14.17-13.75c0.28-0.28,0.42-0.7,0.14-0.98l-0.28-0.28c-14.59-6.03-28.2-14.45-39.99-24.98
		c-0.28-0.14-0.42-0.56-0.28-0.84l0.14-0.14c4.63-5.47,9.82-10.24,15.57-14.59c0.42-0.28,0.42-0.84,0.14-1.26l-0.14-0.14
		c-15.86-10.38-30.73-22.17-44.34-35.5c-0.28-0.28-0.28-0.7,0-0.98l0,0c3.65-3.51,7.58-6.45,11.79-9.12
		c0.42-0.28,0.42-0.7,0.28-1.12l-0.14-0.14c-11.22-9.68-20.77-21.19-27.92-34.1c-0.28-0.28-0.14-0.7,0.28-0.98l0.28-0.14
		c6.31-2.53,12.91-4.21,19.64-5.19c0.42-0.14,0.84-0.7,0.7-1.12v-0.14c-5.47-11.51-9.26-23.71-11.37-36.34
		c-0.14-0.42,0.14-0.84,0.56-0.84h0.14h0c12.77,3.51,25.26,8.28,37.18,14.31h0.28c0.42,0,0.56-0.14,0.7-0.56
		c1.54-8,4.07-15.71,7.72-22.87c0.14-0.28,0.42-0.42,0.7-0.42l0.42,0.14c11.79,8.42,22.59,18.1,32.27,28.9
		c0.14,0.14,0.42,0.28,0.56,0.28c0.28,0,0.42-0.14,0.56-0.42c2.53-4.07,5.89-7.72,9.82-10.52l0.42-0.14c0.14,0,0.28,0,0.42,0.28
		c16.56,20.63,38.16,43.5,60.47,59.07l0.28,0.14c0.42,0,0.7-0.28,0.7-0.7v-0.28c-5.75-18.8-14.31-36.62-22.73-52.9
		c-0.14-0.56,0.14-0.98,0.56-1.26c4.21-0.84,8.42-1.26,12.63-1.4c0.42,0,0.84-0.42,0.7-0.98l-0.14-0.28
		c-10.38-16.14-18.52-33.67-23.85-52.06c-0.14-0.28,0-0.7,0.42-0.84h0.28h0.14c9.68,0.42,19.22,2.25,28.48,5.33h0.28
		c0.28,0,0.56-0.28,0.7-0.56v-0.14c-2.67-14.87-1.4-31.71,1.54-47c0-0.42,0.28-0.56,0.7-0.56h0.14c6.88,2.67,13.61,6.03,19.92,9.82
		l0.42,0.14c0.42,0,0.7-0.28,0.7-0.7v-0.14c-0.84-14.03,0.42-28.2,3.51-41.95c0.14-0.28,0.42-0.56,0.7-0.56l0.14,0.14l0,0
		c5.33,1.96,10.38,4.35,15.01,7.44l0.42,0.14c0.28,0,0.56-0.14,0.56-0.56v-0.14c4.91-14.03,12.63-27.64,20.91-41.39
		C255.57,3.04,255.85,3.04,256.13,3.04z"/>
	<path id="XMLID_35_" class="st0" d="M399.39,234.69c1.26,0,2.53,0.14,3.65,0.14c8.84-0.14,17.68-2.25,25.68-6.03l0.14,0.14
		c-9.68,5.89-20.91,8.98-32.27,8.7c-0.42,0-0.7,0.14-0.98,0.42c-3.51,3.65-6.59,6.88-9.4,9.96l-0.28,0.14h-0.14l-3.09-1.54
		l-0.14-0.28l0.14-0.28c7.58-7.72,15.72-15.57,24.27-23.15c0.28-0.28,0.42-0.56,0.42-0.98c-0.84-8.42,0.14-16.98,2.95-24.98h0.28
		c-1.54,7.58-1.82,15.43-0.7,23.01h0.14c11.51-10.8,22.17-21.19,32.41-31.71l0.28,0.14c-8.7,10.24-18.38,20.77-28.62,30.87
		c-4.91,4.77-9.96,9.68-14.87,14.87h0L399.39,234.69z M392.66,282.96l-13.75,26.24c-1.4,2.95-4.49,4.91-7.86,4.77
		c-1.4,0-2.95-0.28-4.21-1.12c-3.51-1.82-6.88-3.51-10.52-5.19c-4.35-2.39-6.17-7.72-3.93-12.21l13.75-26.24
		c2.39-4.35,7.86-6.17,12.35-3.93c3.37,1.68,6.88,3.51,10.24,5.33C393.22,273,394.9,278.61,392.66,282.96z M316.19,438.71
		c-4.63,0-9.26-0.42-13.89-1.12h-0.14c4.35,4.21,12.63,8.28,17.4,10.1l2.24,0.98l-2.24-0.28c-5.75-0.98-17.26-6.45-23.57-11.93
		l-0.28-0.14c-10.24-2.24-19.22-5.47-28.2-5.47c-11.51,0-19.78,2.67-23.99,14.17c-0.28-2.39-0.14-4.63,0.56-6.88l-0.14-0.14l0,0
		c-2.1-1.54-10.8-6.73-19.22-6.73c-12.77,0-29.04,14.31-41.67,15.72c6.03-1.96,12.91-6.59,19.78-10.8v-0.14
		c-11.65-2.25-26.24,0.14-41.81,4.21c14.87-5.89,30.03-8.98,45.88-6.45l0.28-0.14c5.89-3.37,11.79-6.03,17.26-6.03
		c7.58,0.28,14.87,2.67,21.19,6.88h0.14c3.93-5.89,12.35-8.14,21.05-8.14c13.75,0,34.94,10.1,51.78,10.1
		c18.38,0,23.85-1.68,29.18-2.95C342.99,435.48,334.71,438.71,316.19,438.71L316.19,438.71z M163.11,253.63
		c3.65-1.26,7.44-2.53,11.08-3.65c0.84-0.28,1.82-0.42,2.81-0.42c3.93,0,7.44,2.53,8.7,6.31l9.54,28.2c0.7,2.24,0.56,4.63-0.42,6.73
		c-1.12,2.1-2.95,3.79-5.19,4.49c-3.65,1.26-7.44,2.53-11.08,3.65c-0.98,0.42-1.96,0.7-3.09,0.56c-3.79,0-7.02-2.39-8.28-6.03
		l-9.54-28.2C155.95,260.51,158.48,255.46,163.11,253.63z M148.65,312.43l-18.1-35.36l-0.56,0.28c-3.09,1.68-6.17,3.37-9.26,4.91
		l-3.65-6.88c8.98-4.91,17.96-9.68,27.22-14.17l3.51,7.02c-3.09,1.54-6.17,3.09-9.4,4.63l-0.42,0.28l18.24,35.36
		C153.71,309.76,151.04,311.02,148.65,312.43L148.65,312.43z M109.65,232.73l-0.42-0.28h-1.26c-11.93,0.14-23.57-3.23-33.67-9.54
		v-0.14c8.84,4.49,18.52,6.88,28.48,7.02c1.26,0,2.67-0.14,3.79-0.14c-2.1-2.25-4.35-4.49-6.31-6.31
		c-11.93-11.37-23.15-23.29-33.67-35.78l0.14-0.14c11.08,11.65,20.77,21.19,29.47,29.18h0.14c1.12-7.16,0.42-14.45-1.82-21.19
		l0.14-0.14c3.51,7.16,5.05,15.29,4.21,23.15c0,0.28,0.14,0.56,0.42,0.7c7.86,7.02,15.43,14.03,22.17,20.91
		c0.14-9.54-2.67-18.8-8-26.66l0.14-0.14c7.16,8.14,11.08,18.66,11.22,29.47c0,0.28,0,0.56,0.28,0.7c1.12,1.26,2.1,2.25,3.23,3.37
		v0.28l-0.14,0.28l-2.81,1.4h-0.14l-0.28-0.14C119.05,242.41,114,237.22,109.65,232.73z M190.19,351.43v-19.22l-7.44,16.56
		l-7.3-16.56v19.22h-8.14V309.9h6.45l8.98,20.77l9.12-20.77h6.45v41.53H190.19z M191.73,398.02v7.86h-24.27v-41.53h8.14v33.67
		H191.73z M218.39,239.88c0.42-0.14,0.84-0.14,1.26-0.14c4.49,0,8.42,3.37,9.12,7.86l2.53,15.01c0.7,3.93-1.54,7.86-5.19,9.54
		l-0.7,0.28l0.42,0.56c2.95,4.35,6.03,8.42,8.98,12.77c-2.67,0.28-5.33,0.56-8.14,1.12c-2.95-4.35-6.03-8.42-8.98-12.77l-0.28-0.28
		l-0.28,0.14c-1.26,0.14-2.25,0.28-3.51,0.42l-0.56,0.14l2.25,14.17c-2.81,0.42-5.47,0.98-8.14,1.54l-7.72-47.15
		C205.48,241.99,211.93,240.87,218.39,239.88L218.39,239.88z M268.9,339.23h-9.82v12.21h-8.14V309.9h17.96c4.49,0,8.14,3.65,8.14,8
		v0.14v12.91C277.04,335.58,273.39,339.23,268.9,339.23L268.9,339.23z M242.24,276.08v-29.61c0.14-5.05,4.07-8.98,9.12-9.26h11.65
		c5.05,0.14,8.98,4.21,9.12,9.26v29.61c0,4.91-4.07,8.98-8.98,8.98h-0.14c-6.45-0.14-10.8,0-11.79,0c-4.91,0-8.84-3.93-8.98-8.7
		L242.24,276.08L242.24,276.08z M249.68,364.34h11.22l11.08,41.53h-8.42l-1.82-7.86h-12.91l-1.96,7.86h-8.42L249.68,364.34z
		 M218.95,343.58l-1.68,7.86h-8.28l10.1-41.53h11.08l10.1,41.53H232l-1.68-7.86H218.95z M223.3,381.04v7.86h-12.77v9.12h17.82v7.86
		h-25.96v-41.53h25.96v7.86h-17.82v8.98h12.77V381.04z M209.55,155.98c11.37,16.98,26.24,31.29,43.64,41.81h0.14v-0.14
		c-0.14-12.91,0-25.96,0.28-38.73c0-0.42-0.14-0.84-0.42-1.26c-9.96-7.44-18.1-17.12-23.85-28.2h0.14
		c6.31,9.82,14.45,18.52,23.99,25.4l0.28-0.14c0.14-4.77,0.28-8.56,0.42-12.35c0.7-10.8,1.26-22.03,1.68-33.25
		c0-0.42-0.14-0.84-0.42-1.12c-7.3-8.7-13.75-18.24-19.22-28.34l0.28-0.14c5.61,8.84,12.07,17.12,19.22,24.69h0.14l0.14-0.14l0,0
		c0.42-17.54,0.56-34.94,0.56-51.92h0.14c1.54,16,2.1,50.23,1.68,79.7v0.14h0.28l0,0c8.56-4.35,16.56-9.82,23.71-16.28l0.14,0.14
		c-6.88,7.58-15.01,13.89-23.85,19.08c-0.28,0.14-0.42,0.28-0.42,0.56c0,2.67,0,4.91-0.14,7.16c-0.7,16.56-0.7,36.2,0,59.91
		l0.28,0.14c19.36-13.89,33.96-28.76,43.22-44.34h0.28c-7.58,15.71-23.43,33.53-43.5,48.55c-0.14,0.14-0.14,0.28-0.14,0.56
		c0.14,3.65,0.28,7.44,0.42,11.22l-0.14,0.14l0,0l-0.28,0.14h-4.21l-0.42-0.28c-0.14-5.33-0.28-10.8-0.42-16.56
		c0-0.28,0-0.42-0.14-0.42c-18.1-11.65-33.11-27.36-43.92-46.02L209.55,155.98z M289.25,351.43V309.9h8.14v33.67h15.01v7.86H289.25z
		 M302.86,381.04v7.86h-12.77v16.98h-8.14v-41.53h25.96v7.86h-17.82v8.98h12.77V381.04z M304.96,269.21l4.63-26.94
		c2.81,0.42,5.47,0.98,8.14,1.54l-8,47c-2.1-0.42-4.35-0.98-6.45-1.26c-3.09-9.12-6.17-18.24-9.26-27.22l-0.7-2.24l-4.63,26.94
		c-2.81-0.28-5.47-0.7-8.28-1.12l8-47c2.1,0.28,4.49,0.56,6.59,0.98c3.09,8.98,6.17,18.1,9.26,27.08L304.96,269.21z M318.71,393.67
		h8.28v1.68c0,1.4,1.12,2.53,2.53,2.67h6.73c1.4,0,2.53-1.12,2.67-2.67v-2.53c0-0.98-0.56-1.82-1.4-2.24l-14.73-6.59
		c-2.67-1.4-4.21-4.21-3.93-7.3v-4.21c0-4.49,3.65-8.14,8.14-8.14h0.14h11.65c4.49,0,8.28,3.65,8.28,8.14v3.79h-8.14v-1.68
		c0-1.4-1.12-2.53-2.67-2.67h-6.73c-1.4,0-2.53,1.26-2.53,2.67v0.98c0,0.98,0.56,1.82,1.4,2.1l14.59,6.59
		c2.67,1.54,4.21,4.35,3.93,7.44v5.89c0,4.63-3.65,8.28-8.28,8.28l0,0h-11.65c-4.63,0-8.28-3.79-8.28-8.28V393.67z M322.92,309.9
		h23.99v7.72h-15.86v9.12h10.8v7.86h-10.8v9.12h15.86v7.86h-23.99V309.9z M337.94,257.7c-3.37-1.12-6.73-2.1-9.96-3.23l2.53-7.58
		c9.82,2.95,19.5,6.31,29.04,9.68l-2.67,7.58c-3.23-1.26-6.45-2.24-9.82-3.51l-0.56-0.14l-12.63,37.6c-2.67-0.98-5.33-1.68-8-2.67
		l12.77-37.6L337.94,257.7z"/>
	<path id="XMLID_36_" class="st0" d="M177.7,290.54c0.42,0,0.84,0,1.26-0.14c1.68-0.56,3.37-1.26,5.05-1.82
		c0.84-0.28,1.68-0.84,2.1-1.68c0.42-0.84,0.42-1.82,0.14-2.81l-8-23.43c-0.42-1.54-1.82-2.53-3.37-2.53c-0.28,0-0.7,0.14-1.12,0.14
		c-1.82,0.56-3.51,1.26-5.19,1.82c-1.82,0.56-2.81,2.67-2.1,4.49l0,0l7.86,23.43C174.75,289.55,176.16,290.54,177.7,290.54z"/>
	<path id="XMLID_65_" class="st1" d="M383.82,281.14l-11.23,21.89c-0.56,1.26-1.82,1.96-3.23,1.96c-0.56,0-1.12-0.14-1.68-0.42
		c-1.54-0.7-3.23-1.68-4.77-2.53c-0.84-0.42-1.4-1.26-1.68-2.1s-0.28-1.96,0.14-2.81l11.37-21.89c0.56-1.26,1.82-1.96,3.23-1.96
		c0.56,0,1.12,0.14,1.54,0.42c1.68,0.7,3.23,1.68,4.77,2.53C384.1,277.07,384.8,279.31,383.82,281.14L383.82,281.14z M388.73,270.75
		c-3.37-1.82-6.88-3.65-10.24-5.33c-1.26-0.56-2.67-0.84-3.93-0.98c-3.51,0-6.73,1.82-8.28,4.91l-13.75,26.24
		c-1.12,2.1-1.26,4.49-0.42,6.73c0.7,2.24,2.24,4.21,4.49,5.19c3.51,1.82,6.88,3.51,10.52,5.33c1.26,0.7,2.67,1.12,4.21,1.12
		c3.37,0,6.31-1.82,7.86-4.77l13.75-26.24C394.9,278.61,393.22,273,388.73,270.75L388.73,270.75z M228.49,372.2v-7.86h-25.96v41.53
		h25.96v-7.86h-17.82v-9.12h12.77v-7.86h-12.77v-8.98h17.82V372.2z M333.73,298.11l12.63-37.6l0.56,0.14
		c3.23,1.26,6.59,2.24,9.82,3.51l2.67-7.58c-9.54-3.37-19.36-6.73-29.04-9.68l-2.53,7.58c3.23,1.12,6.59,2.1,9.96,3.23l0.42,0.14
		l-12.63,37.6C328.39,296.43,331.2,297.13,333.73,298.11z M312.54,343.58h-15.01V309.9h-8.14v41.53h23.15V343.58z M346.92,343.58
		h-15.86v-9.12h10.8v-7.86h-10.8v-9.12h15.86v-7.72h-23.99v41.67h23.99V343.58z M326.99,405.87h11.65c4.63,0,8.28-3.65,8.28-8.28
		l0,0v-5.89c0.14-3.09-1.4-5.89-3.93-7.44l-14.59-6.45c-0.84-0.42-1.4-1.4-1.4-2.24v-0.98c0-1.4,1.12-2.39,2.39-2.53l0,0h6.73
		c1.4,0,2.53,1.12,2.67,2.53v1.68h8.14v-3.79c0-4.49-3.79-8.14-8.28-8.14h-11.65c-4.49,0-8.28,3.65-8.28,8.14v4.35
		c-0.14,3.09,1.4,5.89,3.93,7.44l14.73,6.45c0.7,0.56,1.26,1.4,1.4,2.24v2.67c0,1.4-1.26,2.53-2.67,2.53h-6.73
		c-1.4,0-2.39-1.12-2.53-2.39l0,0v-1.82h-8.28v3.79C318.71,402.09,322.36,405.87,326.99,405.87L326.99,405.87z M288.41,238.76l-8,47
		c2.81,0.42,5.47,0.98,8.28,1.26l4.63-27.08l0.7,2.53c3.09,8.98,6.17,18.1,9.26,27.08c2.1,0.42,4.35,0.98,6.59,1.4l7.86-47
		c-2.67-0.56-5.33-1.12-8.14-1.68l-4.63,27.08l-0.7-2.24c-3.09-9.12-6.17-18.1-9.26-27.22C292.9,239.32,290.65,239.04,288.41,238.76
		L288.41,238.76z M307.91,372.2v-7.86h-25.96v41.53h8.14V388.9h12.77v-7.86h-12.77v-8.98L307.91,372.2z M220.77,335.72l3.79-17.26
		l3.79,17.26H220.77z M232,351.43h8.28l-10.1-41.53h-11.08l-10.24,41.53h8.42l1.68-7.86h11.22L232,351.43z M209.27,249.43
		c2.67-0.42,5.05-0.98,7.58-1.26c1.96-0.28,3.79,0.98,4.21,2.95l1.68,10.1c0.14,0.98-0.14,1.96-0.56,2.81
		c-0.56,0.84-1.54,1.26-2.53,1.4c-2.53,0.28-4.91,0.7-7.44,1.26l-0.7,0.14l-2.81-17.4L209.27,249.43L209.27,249.43z M215.02,288.85
		l-2.25-14.17l0.56-0.14c1.12-0.14,2.25-0.28,3.37-0.42l0.42-0.14l0.14,0.28c3.09,4.35,6.03,8.42,9.12,12.77
		c2.81-0.42,5.33-0.7,8.14-1.26c-3.09-4.21-6.03-8.42-8.98-12.63l-0.42-0.56l0.56-0.28c3.79-1.54,6.03-5.47,5.33-9.54l-2.53-15.01
		c-0.7-4.49-4.49-7.72-9.12-7.86c-0.42,0-0.98,0-1.4,0.14c-6.31,0.98-12.77,1.96-19.22,3.23l7.72,47
		C209.55,289.84,212.22,289.27,215.02,288.85z M198.32,309.9h-6.45l-9.12,20.77l-8.98-20.77h-6.45v41.53h8.14v-19.22l7.3,16.56
		l7.44-16.56v19.22h8.14V309.9z M167.46,364.34v41.53h24.27v-7.86h-16.14v-33.67H167.46z M268.9,328.98c0,1.4-1.12,2.39-2.39,2.53
		l0,0h-7.44v-13.89h7.44c1.4,0,2.53,1.26,2.53,2.67v8.7H268.9z M277.04,330.95v-12.91c0-4.49-3.65-8.14-8-8.14h-0.14h-17.96v41.53
		h8.14v-12.21h9.82C273.39,339.23,277.04,335.58,277.04,330.95z M255.15,372.9l4.49,17.26h-8.98L255.15,372.9z M248.7,398.02h12.91
		l1.82,7.86h8.42l-11.22-41.53h-11.08l-11.37,41.53h8.42L248.7,398.02z M250.94,248.72c0-1.96,1.54-3.51,3.37-3.51h0.14h5.33
		c1.96,0,3.65,1.54,3.65,3.51v24.55c0,1.96-1.68,3.65-3.65,3.65h-5.33c-1.96,0-3.51-1.68-3.51-3.65l0,0V248.72z M263.01,285.06
		c4.91,0,8.98-3.93,9.12-8.84v-0.14v-29.61c-0.14-5.05-4.07-8.98-9.12-9.26h-11.65c-5.05,0.14-8.98,4.21-9.12,9.26v29.61
		c0,4.91,3.93,8.98,8.98,8.98C252.06,285.06,256.55,284.78,263.01,285.06L263.01,285.06z M168.58,260.23
		c1.68-0.56,3.37-1.26,5.05-1.82c0.42,0,0.7-0.14,1.26-0.14c1.54,0,2.95,0.98,3.37,2.53l8,23.43c0.28,0.98,0.14,1.96-0.28,2.81
		c-0.42,0.84-1.12,1.4-1.96,1.68c-1.68,0.56-3.37,1.26-5.05,1.82c-0.42,0-0.7,0.14-1.26,0.14c-1.54,0-2.95-0.98-3.37-2.53
		l-7.86-23.43C165.77,262.9,166.75,260.93,168.58,260.23L168.58,260.23z M175.45,299.52c1.12,0,2.1-0.14,3.09-0.56
		c3.65-1.26,7.44-2.53,11.08-3.65c2.25-0.7,4.21-2.39,5.19-4.49c1.12-2.1,1.26-4.49,0.42-6.73l-9.4-28.2
		c-1.4-3.79-4.91-6.31-8.98-6.31c-0.98,0-1.82,0.14-2.81,0.42c-3.65,1.26-7.44,2.53-11.08,3.65c-4.77,1.68-7.16,6.88-5.47,11.65
		l9.54,28.2C168.3,296.99,171.67,299.38,175.45,299.52z M138.27,272.86c3.23-1.54,6.31-3.09,9.54-4.63l-3.65-7.02
		c-9.26,4.49-18.24,9.26-27.22,14.17l3.65,6.88c3.09-1.54,6.17-3.23,9.26-4.91l0.56-0.28l18.24,35.36c2.53-1.4,4.91-2.67,7.44-3.79
		l-18.24-35.36L138.27,272.86z M267.08,425.94c-8.7,0-17.12,2.53-21.05,8.28h-0.14c-6.31-4.21-13.61-6.59-21.19-6.88
		c-5.33,0-11.37,2.67-17.26,6.03h-0.42c-15.86-2.25-30.87,0.7-45.88,6.59c15.57-3.93,30.17-6.45,41.81-4.21v0.14
		c-6.88,4.21-13.89,8.7-19.78,10.8c12.63-1.4,28.9-15.71,41.67-15.71c8.42,0,17.12,5.19,19.22,6.73l0.14,0.14l0,0
		c-0.7,2.24-0.84,4.63-0.56,6.88c4.21-11.51,12.49-14.17,23.99-14.17c8.98,0,17.82,3.23,28.2,5.47l0.28,0.14
		c6.31,5.33,17.82,10.94,23.57,11.79l2.24,0.42l-2.24-0.98c-4.63-1.82-13.05-6.03-17.4-10.1l0.14-0.14l0,0
		c4.63,0.84,9.26,1.26,13.89,1.26c18.24,0,26.8-3.23,31.85-5.33c-5.47,1.12-10.8,2.81-29.18,2.81
		C301.88,436.32,280.69,425.94,267.08,425.94L267.08,425.94z M414.27,219.68c10.1-10.1,19.64-20.63,28.62-30.87l-0.28-0.14
		c-10.24,10.52-21.05,20.91-32.41,31.71h-0.14c-0.98-7.72-0.84-15.43,0.7-23.01h-0.28c-2.81,8-3.79,16.42-3.09,24.98
		c0.14,0.28,0,0.7-0.28,0.98l0,0c-8.7,7.86-16.98,15.71-24.27,23.43l-0.14,0.14l0,0l0.14,0.28l2.95,1.54h0.28l0.28-0.14
		c2.81-2.95,5.89-6.17,9.4-9.82c0.28-0.28,0.56-0.42,0.98-0.42c11.37,0.14,22.59-2.95,32.27-8.7l-0.14-0.28
		c-8.14,3.79-16.84,5.89-25.82,6.03c-1.12,0-2.39,0-3.51-0.14h-0.28v-0.14C404.3,229.5,409.35,224.45,414.27,219.68z M125.22,249
		h0.14l2.81-1.4l0.28-0.28l-0.14-0.28l-3.23-3.23c-0.14-0.28-0.28-0.56-0.28-0.98c-0.14-10.8-4.07-21.33-11.08-29.47l-0.28,0.14
		c5.33,7.86,8.28,17.12,8.14,26.66h-0.14c-6.74-6.88-14.31-13.89-22.17-20.91c-0.28-0.14-0.42-0.42-0.42-0.7
		c0.84-8-0.56-16-4.21-23.15l-0.14,0.14c2.25,6.88,2.95,14.03,1.82,21.19h-0.14c-8.7-8-18.38-17.54-29.47-29.18l-0.14,0.14
		c10.66,12.49,21.89,24.55,33.67,35.92c1.96,1.82,3.93,3.79,6.31,6.17c-1.26,0-2.67,0.14-3.79,0.14
		c-9.96-0.14-19.64-2.53-28.48-7.02v0.28c10.1,6.31,21.75,9.54,33.67,9.54h1.26l0.42,0.14c4.49,4.49,9.54,9.68,15.43,16.14
		L125.22,249L125.22,249z M253.19,202.14l0.14,0.28c0.14,6.03,0.28,11.37,0.42,16.7c0,0.14,0.14,0.28,0.42,0.28h4.21l0.28-0.14
		l0.14-0.28c-0.14-3.65-0.28-7.58-0.42-11.23l0.14-0.42c20.2-15.15,35.92-32.83,43.5-48.55l-0.28-0.14
		c-9.26,15.57-23.85,30.45-43.22,44.34l-0.28-0.14c-0.7-23.71-0.7-43.36,0-59.77c0-2.25,0.14-4.63,0.14-7.3
		c0-0.28,0.14-0.42,0.42-0.56c8.84-5.05,16.84-11.51,23.85-19.08l-0.14-0.14c-7.16,6.45-15.15,11.93-23.71,16.42l-0.28-0.14v-0.14
		c0.42-29.33-0.14-63.56-1.68-79.7h-0.14c0.14,17.12-0.14,34.66-0.56,51.92l-0.14,0.14l0,0h-0.14
		c-7.16-7.58-13.61-15.86-19.22-24.55h-0.28c5.33,10.1,11.79,19.64,19.22,28.34c0.28,0.28,0.42,0.7,0.42,1.12
		c-0.42,11.37-0.98,22.45-1.68,33.25c-0.14,3.65-0.28,7.72-0.42,12.35l-0.28,0.14c-9.4-6.88-17.54-15.57-23.99-25.4l-0.14,0.14
		c5.75,11.08,13.89,20.63,23.85,28.2c0.28,0.28,0.56,0.7,0.42,1.12c-0.28,12.91-0.42,25.82-0.28,38.73v0.14h-0.14
		c-17.4-10.52-32.41-24.84-43.64-41.81l-0.28,0.14C220.07,174.78,235.09,190.49,253.19,202.14z"/>
</g>
</svg>
