<?xml version="1.0" encoding="utf-8"?>
<!-- Generator: Adobe Illustrator 27.0.0, SVG Export Plug-In . SVG Version: 6.00 Build 0)  -->
<svg version="1.1" id="Layer_1" xmlns="http://www.w3.org/2000/svg" xmlns:xlink="http://www.w3.org/1999/xlink" x="0px" y="0px"
	 viewBox="0 0 512 512" style="enable-background:new 0 0 512 512;" xml:space="preserve">
<style type="text/css">
	.st0{fill:#FFFFFF;}
	.st1{fill:#B4975A;}
	.st2{fill:#333F42;}
</style>
<g id="XMLID_1_">
	<path id="XMLID_3_" class="st0" d="M285.9,28.05C280.71,23.29,256.16,0,256.16,0s-24.69,23.15-29.88,28.05H66.79V377.9
		c59.62,65.93,109.41,97.49,189.23,134.1c79.54-36.75,129.61-68.17,189.09-134.1V28.05H285.9z"/>
	<path id="XMLID_4_" class="st1" d="M283.23,34.65c-0.14-0.28-27.21-25.67-27.21-25.67s-26.93,25.25-27.35,25.53H73.38v340.73
		c55.83,61.72,105.35,93.84,182.64,129.47c76.87-35.49,126.67-67.47,182.5-129.47V34.65H283.23z"/>
	<path id="XMLID_5_" d="M425.33,47.69v322.49c-50.92,56.39-104.08,89.92-169.31,119.93c-65.23-30.02-118.53-63.54-169.45-119.93
		V47.69h113.9c-44.89,26.09-74.49,71.68-74.49,133.12v173.52c30.58,31.84,71.96,63.68,111.24,82.2l-86.27-248.71l81.22,39
		l-9.82,9.68l29.18,94.26h8.7l29.04-94.26l-9.82-9.68l81.22-39l-86.13,248.71c38.86-18.38,80.38-50.22,111.1-82.2V180.67
		c0-61.3-29.46-106.75-74.35-132.98H425.33z"/>
	<path id="XMLID_6_" class="st2" d="M278.6,46.85c2.38-9.96,4.63-12.34,4.63-12.34S259.25,12.06,256.3,9.12l-0.28-0.28v248.71
		l18.1-58.21l96.23-46.29C361.79,103.38,329.38,65.37,278.6,46.85z"/>
	<path id="XMLID_7_" class="st2" d="M379.32,205.64l-71.68,207.47l12.48-16.13c0,0,32.54-25.11,52.6-48.11V242.81L379.32,205.64z"/>
	<polygon id="XMLID_8_" class="st0" points="230.07,238.47 232.45,226.82 222.49,236.64 251.67,330.91 256.02,322.49 	"/>
	<path id="XMLID_11_" class="st2" d="M231.47,188.67l-76.73-29.04l83.32,39.98V77.85L231.47,188.67z M132.72,205.64l59.62,172.54
		l-33.1-78.13l-19.92-57.09L132.72,205.64z"/>
	<polygon id="XMLID_12_" class="st0" points="360.95,187.83 274.68,436.53 286.18,423.07 369.36,183.9 	"/>
	<path id="XMLID_13_" class="st0" d="M233.44,46.85c-0.56-2.67-1.4-5.19-2.38-7.72c-0.42-1.68-1.26-3.23-2.38-4.63
		c-60.32,22.02-102.54,72.66-102.54,146.17v173.52c2.1,2.24,4.35,4.49,6.59,6.73V180.67c0-61.58,29.6-111.1,94.12-138.17
		C229.23,43.77,231.47,45.31,233.44,46.85z"/>
</g>
</svg>
