<?xml version="1.0" encoding="utf-8"?>
<!-- Generator: Adobe Illustrator 27.0.0, SVG Export Plug-In . SVG Version: 6.00 Build 0)  -->
<svg version="1.1" id="Layer_1" xmlns="http://www.w3.org/2000/svg" xmlns:xlink="http://www.w3.org/1999/xlink" x="0px" y="0px"
	 viewBox="0 0 512 512" style="enable-background:new 0 0 512 512;" xml:space="preserve">
<style type="text/css">
	.st0{fill:#FFFFFF;}
	.st1{fill:#00214D;}
	.st2{fill:#CF132B;}
</style>
<g id="XMLID_1_">
	<path id="XMLID_11_" class="st0" d="M80.21,240.45c0,0,2.67-32.69,13.47-32.69h19.78c0,0,1.96-46.3,19.08-46.3h197.56l29.89-70.02
		h31.99l-61.74,148.87h38.87c16.42,0,24.13,12.49,24.13,12.49l31.99-78.43h32.41l-29.04,71.28c0,0,9.82-5.33,14.87-5.33h68.47
		l-11.37,27.64h-10.52c0,0,5.89,5.89,5.89,13.89c0,12.07-11.37,27.64-25.96,27.64H331.51c-12.77,0-23.01-10.24-23.01-17.54
		l-16.28,39.99c0,0-0.7,1.26-0.7,4.07s0.28,3.09,0.7,3.51l35.64,30.59l18.24-22.59l58.93-0.14l-25.54,32.27h-46.86l-27.92,40.83
		c0,0-33.53-52.76-37.32-58.93c-3.65-6.17-4.91-16-4.91-21.05c0-13.75,3.93-22.73,4.91-25.54l2.1-5.33h-95.27l-12.91,31.85H128.9
		l13.33-31.99H99.71c-11.65,0-18.52-11.08-18.52-11.08s-15.01,11.23-26.38,11.23H22.12c-13.75,0-22.17-12.35-22.17-20.91
		c0-19.22,29.18-48.41,66.37-48.41h13.89V240.45z"/>
	<path id="XMLID_12_" class="st1" d="M64.49,260.23h19.64l5.05-12.07H67.86c-31.29,0-59.77,23.71-59.77,40.55
		c0,8.84,9.82,13.05,11.93,13.05h33.96c8.84,0,24.13-10.94,24.13-10.94l-12.07-5.61c0,0-6.03,4.35-10.24,4.35H26.47
		c-2.24,0-3.09-1.68-3.09-3.93C23.38,280.57,35.73,260.23,64.49,260.23"/>
	<path id="XMLID_15_" class="st1" d="M128.06,289.7h-26.24c-1.54,0-1.82-1.68-1.82-2.81c0-1.12,1.96-7.02,7.86-7.02h24.55
		c1.4,0,6.45-2.1,6.45-2.1S135.49,289.7,128.06,289.7 M138.16,248.16H98.17l-4.91,12.07h42.65c6.59,0,7.44,2.67,7.44,6.88h-31.43
		c-18.52,0-26.38,13.19-26.38,19.5c0,11.08,10.1,15.15,14.87,15.15h20.91c3.93,0,8.7-3.23,8.7-3.23l-1.26,3.23h15.15l11.93-28.34
		c1.12-2.53,2.53-7.44,2.53-9.68C158.22,254.9,151.07,248.16,138.16,248.16"/>
	<path id="XMLID_16_" class="st1" d="M140.12,333.61L155,300.08c1.96-4.49,14.87-51.78,64.26-51.78h36.2l-15.57,37.88
		c-3.09,7.58-9.96,15.72-17.68,15.72h-45.32l4.91-12.21H218c5.47,0,7.02-4.21,8.56-8.14l8.42-21.19h-14.73
		c-21.33,0-39.01,13.19-43.92,25.12l-20.49,48.27h-15.71V333.61z"/>
	<polygon id="XMLID_17_" class="st1" points="256.16,266.96 241.99,301.9 257,301.9 271.31,266.96 	"/>
	<polygon id="XMLID_18_" class="st1" points="274.12,260.23 279.03,248.16 263.88,248.16 258.97,260.23 	"/>
	<path id="XMLID_19_" class="st1" d="M285.21,248.16l-4.77,12.07h18.1l-24.27,58.23c-1.82,4.21-3.93,10.1-3.93,24.41
		c0,5.05,0.98,10.1,2.25,12.21c1.26,2.1,32.55,50.51,32.55,50.51l19.78-28.06l-38.87-32.41c-1.12-0.98-2.25-3.51-2.25-8.7
		c0-5.05,0.98-6.59,2.25-9.82l94.01-227.59h-14.87l-61.46,149.15H285.21z"/>
	<path id="XMLID_22_" class="st1" d="M358.17,289.7h-26.24c-1.54,0-1.82-1.68-1.82-2.81c0-1.12,1.96-7.02,7.86-7.02h24.7
		c1.4,0,6.45-2.1,6.45-2.1S365.74,289.7,358.17,289.7 M368.41,248.3h-45.04l-4.91,12.07h47.71c6.59,0,7.44,2.67,7.44,6.88h-31.43
		c-18.52,0-26.38,13.19-26.38,19.5c0,11.08,10.1,15.15,14.87,15.15h20.77c3.93,0,8.7-3.23,8.7-3.23l-1.26,3.23h15.15l11.93-28.34
		c1.12-2.53,2.53-7.44,2.53-9.68C388.48,254.9,381.32,248.3,368.41,248.3"/>
	<polygon id="XMLID_23_" class="st1" points="396.61,301.9 446.14,181.94 431.41,181.94 381.88,301.9 	"/>
	<path id="XMLID_24_" class="st1" d="M404.89,301.9l4.91-12.21c0,0,53.32,0,56.83,0c3.51,0,6.17-3.51,6.17-5.33
		s-1.12-3.37-3.37-3.37h-33.96c-3.65,0-11.93-4.63-11.93-12.35s4.35-20.35,27.08-20.35h49.81l-4.91,12.07h-51.07
		c-4.07,0-6.31,4.07-6.31,6.17c0,1.96,1.96,2.81,2.39,2.81h31.71c7.16,0,15.15,2.53,15.15,12.77c0,10.1-6.45,19.92-22.17,19.92
		h-60.33V301.9z"/>
	<polygon id="XMLID_25_" class="st2" points="376.13,371.08 388.62,356.06 349.61,356.06 337.68,371.08 	"/>
	<polygon id="XMLID_26_" class="st2" points="110.1,230.34 105.61,230.34 107.01,218.14 96.91,230.34 92.42,230.34 93.12,213.65 
		97.47,213.65 97.05,225.29 105.89,213.79 110.66,213.79 110.1,225.15 119.22,213.79 123.57,213.79 	"/>
	<path id="XMLID_29_" class="st2" d="M132.26,223.89v-6.59l-6.45,6.59H132.26z M132.4,226.69h-8.56l-3.23,3.65h-4.49l15.15-16.56
		h4.91l0.56,16.56h-4.21L132.4,226.69z"/>
	<path id="XMLID_30_" class="st2" d="M140.4,224.87l4.21-0.14c-0.14,0.98,0,1.68,0.28,2.1c0.56,0.56,1.68,0.84,3.37,0.84
		c1.4,0,2.53-0.14,3.23-0.56c0.7-0.42,1.12-0.84,1.26-1.4c0.14-0.42-0.14-0.84-0.56-1.26c-0.28-0.28-1.26-0.7-2.81-1.26
		c-1.54-0.56-2.67-0.98-3.37-1.4c-0.7-0.42-1.26-0.84-1.54-1.4c-0.28-0.56-0.42-1.26-0.28-2.1c0.28-1.4,1.12-2.53,2.53-3.51
		c1.54-0.98,3.51-1.4,5.89-1.4c2.53,0,4.35,0.42,5.61,1.4c1.26,0.98,1.82,2.1,1.68,3.65l-4.21,0.14c0-0.84-0.28-1.4-0.84-1.82
		c-0.56-0.42-1.4-0.7-2.67-0.7s-2.1,0.14-2.67,0.56c-0.56,0.28-0.98,0.7-0.98,1.26c-0.14,0.42,0.14,0.84,0.56,1.12
		c0.42,0.28,1.4,0.7,2.95,1.26c2.39,0.84,3.79,1.54,4.35,1.96c0.84,0.7,1.26,1.68,0.98,2.95c-0.28,1.4-1.26,2.67-2.95,3.79
		c-1.68,0.98-3.93,1.54-6.59,1.54c-1.82,0-3.37-0.28-4.63-0.7c-1.26-0.42-2.1-1.12-2.53-1.96
		C140.26,226.98,140.12,225.99,140.4,224.87"/>
	<polygon id="XMLID_31_" class="st2" points="174.78,222.91 166.36,222.91 162.99,230.34 158.64,230.34 166.08,213.79 
		170.57,213.79 167.62,220.1 175.9,220.1 178.85,213.79 183.34,213.79 175.76,230.34 171.41,230.34 	"/>
	<polygon id="XMLID_32_" class="st2" points="179.69,230.34 187.27,213.79 191.62,213.79 184.18,230.34 	"/>
	<polygon id="XMLID_33_" class="st2" points="206.63,230.34 202.56,230.34 198.63,219.12 193.16,230.34 189.09,230.34 
		196.95,213.79 201.02,213.79 204.95,224.87 209.58,213.79 213.65,213.79 	"/>
	<path id="XMLID_34_" class="st2" d="M224.59,221.5h9.68l-3.23,7.16c-1.26,0.56-2.67,0.98-4.49,1.4c-1.68,0.42-3.37,0.56-5.19,0.56
		c-2.67,0-4.63-0.42-5.89-1.4c-1.68-1.26-2.39-3.09-1.96-5.47c0.28-1.54,0.98-3.09,2.1-4.63c1.26-1.82,2.95-3.09,5.05-4.07
		c1.96-0.98,4.21-1.4,6.74-1.4s4.35,0.42,5.75,1.26c1.4,0.84,1.4,2.39,1.54,4.07h-4.21c-0.14-0.98,0-1.4-0.7-1.96
		c-0.7-0.42-1.68-0.7-2.95-0.7c-1.4,0-2.81,0.28-4.07,0.84c-1.26,0.56-2.39,1.4-3.23,2.67s-1.4,2.53-1.68,3.93s0,2.39,0.7,3.09
		c0.7,0.7,1.82,0.98,3.37,0.98c0.98,0,1.96-0.14,2.95-0.28c0.98-0.14,1.96-0.42,2.67-0.7l1.12-2.53h-5.47L224.59,221.5z"/>
	<polygon id="XMLID_35_" class="st2" points="242.27,230.34 237.92,230.34 244.09,216.45 237.78,216.45 239.04,213.79 
		256.02,213.79 254.76,216.45 248.58,216.45 	"/>
	<path id="XMLID_38_" class="st2" d="M257.7,223.75c-0.14,1.12,0.14,2.1,0.84,2.81c0.7,0.7,1.82,1.12,3.37,1.12
		c1.26,0,2.39-0.28,3.65-0.84c1.26-0.56,2.25-1.54,3.23-2.81c0.98-1.26,1.54-2.39,1.68-3.65c0.28-1.26,0-2.39-0.84-3.09
		c-0.84-0.7-1.82-1.12-3.23-1.12c-2.1,0-4.07,0.84-5.75,2.39C259.11,220.24,258.12,221.92,257.7,223.75 M253.35,223.75
		c0.14-0.98,0.56-1.96,1.12-3.09c0.7-1.4,1.68-2.67,2.95-3.79c1.26-1.12,2.67-1.96,4.35-2.53c1.68-0.56,3.51-0.98,5.47-0.98
		c2.67,0,4.63,0.7,6.17,1.96c1.4,1.26,1.96,2.95,1.54,5.05c-0.28,1.68-1.12,3.37-2.53,5.05c-1.4,1.68-3.09,2.95-5.05,3.79
		c-1.96,0.84-4.07,1.26-6.45,1.26c-1.96,0-3.65-0.28-4.91-0.98c-1.26-0.7-2.1-1.54-2.39-2.67
		C253.21,225.85,253.21,224.87,253.35,223.75"/>
	<polygon id="XMLID_39_" class="st2" points="290.96,230.34 286.89,230.34 283.1,219.12 278.05,230.34 273.98,230.34 281.42,213.79 
		285.63,213.79 289.41,224.87 294.47,213.79 298.53,213.79 	"/>
	<polygon id="XMLID_40_" class="st2" points="152.19,186.71 163.41,178.43 149.38,178.43 145.17,165.38 141.1,178.43 127.49,178.43 
		138.58,186.57 134.37,199.9 145.59,191.62 156.26,199.61 	"/>
	<polygon id="XMLID_41_" class="st2" points="224.87,186.71 236.1,178.43 222.2,178.43 218,165.38 213.79,178.43 200.32,178.43 
		211.26,186.57 207.19,199.9 218.28,191.62 229.08,199.61 	"/>
	<polygon id="XMLID_42_" class="st2" points="297.41,186.71 308.64,178.43 294.75,178.43 290.4,165.38 286.33,178.43 272.86,178.43 
		283.8,186.57 279.59,199.9 290.82,191.62 301.48,199.61 	"/>
</g>
</svg>
