<?xml version="1.0" encoding="utf-8"?>
<!-- Generator: Adobe Illustrator 27.0.0, SVG Export Plug-In . SVG Version: 6.00 Build 0)  -->
<svg version="1.1" id="Layer_1" xmlns="http://www.w3.org/2000/svg" xmlns:xlink="http://www.w3.org/1999/xlink" x="0px" y="0px"
	 viewBox="0 0 512 512" style="enable-background:new 0 0 512 512;" xml:space="preserve">
<style type="text/css">
	.st0{fill:#A8A9AD;}
	.st1{fill:#002E62;}
	.st2{fill:#FFFFFF;}
	.st3{fill:#810120;}
	.st4{fill:#6E6D75;}
	.st5{fill:#C60F2F;}
</style>
<g id="XMLID_1_">
	<path id="XMLID_3_" class="st0" d="M512,256c0,141.4-114.6,256-256,256S0,397.4,0,256S114.6,0,256,0S512,114.6,512,256"/>
	<path id="XMLID_4_" class="st1" d="M494.75,256c0,131.86-106.89,238.75-238.75,238.75C124.14,494.89,17.25,387.86,17.25,256
		S124.14,17.11,256,17.11C387.86,17.25,494.75,124.14,494.75,256"/>
	<path id="XMLID_5_" class="st2" d="M279.15,81.5L256,23.29L231.45,81.5C145.32,93.14,78.83,166.93,78.83,256.28
		c0,97.49,79.68,176.46,177.17,176.46s175.76-78.97,175.76-176.46C431.76,166.93,365.27,93.14,279.15,81.5"/>
	<path id="XMLID_6_" class="st3" d="M148.27,223.04l14.59,35.21l66.77-31.84l3.65-40.82l4.91-22.86l-33.67-22.02l13.47,80.1
		l-35.77-35.63l-0.98,28.2l-52.32-19.78l19.36,51.34v-4.49V223.04L148.27,223.04z"/>
	<polygon id="XMLID_7_" class="st3" points="186.7,328.8 211.11,332.73 226.26,311.13 226.26,301.17 178.71,298.08 197.93,314.77 	
		"/>
	<polygon id="XMLID_8_" class="st3" points="256,425.87 271.29,352.37 271.15,352.23 256,385.61 241.27,352.23 240.99,352.93 	"/>
	<polygon id="XMLID_9_" class="st3" points="314.77,314.77 333.99,297.94 286.3,301.17 286.3,311.13 301.31,332.87 326.14,328.8 	
		"/>
	<path id="XMLID_10_" class="st3" d="M282.79,226.4l66.77,31.84l14.31-35.63l0.28,17.81v5.33l19.78-52.18l-52.32,19.78l-0.98-28.2
		l-35.77,35.77c0.98-5.61,13.61-80.1,13.61-80.1l-33.95,22.3l4.91,22.72L282.79,226.4L282.79,226.4z"/>
	<polygon id="XMLID_11_" class="st3" points="392.91,246.6 364.15,246.46 364.15,271.71 	"/>
	<polygon id="XMLID_12_" class="st3" points="119.79,246.6 148.41,271.43 148.41,246.46 	"/>
	<polygon id="XMLID_13_" class="st4" points="279.29,185.58 256,79.4 233.28,185.58 229.63,226.4 162.86,258.24 148.27,223.04 
		148.41,240.43 148.41,302.01 158.93,296.68 226.26,301.17 226.26,311.13 195.68,355.03 195.68,381.69 237.76,360.92 241.27,352.23 
		256,385.75 271.15,352.23 274.66,360.92 316.74,381.69 316.74,355.03 286.3,311.13 286.3,301.17 353.49,296.68 364.15,302.01 
		364.15,240.43 363.87,222.61 349.56,258.24 282.93,226.4 	"/>
	<polygon id="XMLID_14_" class="st0" points="231.87,254.04 227.52,232.57 160.47,264.56 153.04,246.46 153.04,294.58 
		158.09,292.05 230.89,296.82 230.89,312.53 200.31,356.58 200.31,374.25 234.26,357.56 239.45,344.37 236.5,329.78 241.41,341.29 
		256,374.39 256,98.05 237.76,186.28 233.98,229.49 233.98,229.49 	"/>
	<path id="XMLID_15_" class="st5" d="M226.12,301.17l-43.48-2.95l18.38,15.99c-0.28,0.84-9.96,12.76-9.96,12.76l21.6,3.51
		l13.61-19.5L226.12,301.17L226.12,301.17z"/>
	<path id="XMLID_16_" class="st5" d="M237.62,165.1l-29.74-19.64c0,0,0,0.14,0,0.42l23.71,57.93l1.54-18.24L237.62,165.1z"/>
	<path id="XMLID_17_" class="st5" d="M217.99,224.02L217.99,224.02l-33.53-33.39l-0.98,25.95l-50.08-18.8l48.96,51.34l41.1-19.64
		L217.99,224.02z"/>
	<polygon id="XMLID_18_" class="st5" points="245.2,361.07 256,416.05 256,385.75 	"/>
	<polygon id="XMLID_19_" class="st5" points="126.11,248.99 148.27,268.34 148.27,248.85 	"/>
	<polygon id="XMLID_20_" class="st5" points="304.82,145.74 274.8,165.52 278.16,180.95 	"/>
	<polygon id="XMLID_21_" class="st5" points="325.16,246.6 379.72,197.65 329.78,216.58 315.06,241.83 	"/>
</g>
</svg>
