<?xml version="1.0" encoding="utf-8"?>
<!-- Generator: Adobe Illustrator 27.0.0, SVG Export Plug-In . SVG Version: 6.00 Build 0)  -->
<svg version="1.1" id="Layer_1" xmlns="http://www.w3.org/2000/svg" xmlns:xlink="http://www.w3.org/1999/xlink" x="0px" y="0px"
	 viewBox="0 0 512 512" style="enable-background:new 0 0 512 512;" xml:space="preserve">
<style type="text/css">
	.st0{fill:#1A1919;}
	.st1{fill:#B3B3B3;}
	.st2{fill:#FFFFFF;}
	.st3{fill:#D91B49;}
	.st4{fill:#01629B;}
</style>
<g id="XMLID_1_">
	<path id="XMLID_8_" class="st0" d="M23.72,371.27V246.35l32.91,1.02v-19.45h1.46l-1.46-1.46l-36.86-0.73c0,0-6.14-0.59-11.99,3.95
		c-5.85,4.53-6,13.16-6,13.16V375.8c0,0-0.29,9.51,4.39,14.63c1.17,1.32,2.63,2.19,4.1,2.93l14.63-22.09H23.72z"/>
	<polygon id="XMLID_6_" class="st0" points="88.09,368.63 88.09,229.52 89.55,229.52 88.09,228.06 66.87,228.06 66.87,390.57 
		68.34,392.04 68.34,390.57 73.75,390.28 89.26,368.63 	"/>
	<polygon id="XMLID_14_" class="st0" points="149.23,232.16 150.69,233.62 149.23,233.62 149.23,387.06 129.33,387.06 
		129.33,388.38 127.87,387.06 127.87,232.16 	"/>
	<polygon id="XMLID_23_" class="st0" points="313.94,239.47 315.11,239.47 358.99,239.47 358.99,233.62 360.45,233.62 
		358.99,232.16 307.06,232.16 307.06,385.75 308.52,387.21 308.52,385.75 315.11,385.89 315.11,239.47 	"/>
	<path id="XMLID_10_" class="st0" d="M223.1,297.1c-0.44-11.85,0-35.4,0-47.69s-15.07-17.55-25.16-17.26c-9.95,0.44-39.79,0-39.79,0
		v153.59l1.46,1.46v-1.46h20.62l0.44-65.68c0,0,0,0,19.89-0.73C220.32,318.75,223.39,305.3,223.1,297.1z M201.3,300.32h-20.77
		v-47.98h20.77V300.32z"/>
	<path id="XMLID_19_" class="st0" d="M376.1,240.64h1.9h51.64c-4.39-8.92-14.77-9.36-20.62-9.51c-10.24-0.15-40.66,0-40.66,0v156.52
		l1.46,1.46v-1.46l8.19,0.15V240.64H376.1z"/>
	<path id="XMLID_13_" class="st0" d="M479.67,225.28c-28.82,1.46-38.76,8.19-38.76,24.72s0,51.34,0,51.34s1.02,13.46,11.12,17.7
		l9.07-25.6v-44.32c0,0,0.59-2.49,5.27-2.49s14.92,0,14.92,0s0.88,0,1.61,1.17l23.4-13.16C504.09,230.55,497.8,224.26,479.67,225.28
		z"/>
	<path id="XMLID_16_" class="st1" d="M25.19,247.66l32.91,1.02v-19.45h1.46l-1.46-1.46l-36.86-0.73c0,0-6.14-0.59-11.99,3.95
		s-6,13.16-6,13.16v132.97c0,0-0.29,9.51,4.39,14.63c0.73,0.73,1.46,1.46,2.34,2.05l15.36-23.11V247.66H25.19z"/>
	<polygon id="XMLID_9_" class="st1" points="89.55,229.52 68.34,229.52 68.34,392.04 69.65,393.5 69.65,392.04 73.9,391.74 
		89.55,368.63 89.55,230.99 91.01,230.99 	"/>
	<polygon id="XMLID_29_" class="st1" points="150.69,233.62 152.01,235.08 150.69,235.08 150.69,388.38 130.8,388.38 130.8,389.84 
		129.33,388.38 129.33,233.62 	"/>
	<polygon id="XMLID_28_" class="st1" points="313.94,239.47 315.11,239.47 360.45,239.47 360.45,235.08 361.77,235.08 
		360.45,233.62 308.52,233.62 308.52,387.21 309.99,388.67 309.99,387.36 315.11,387.36 315.11,239.47 	"/>
	<path id="XMLID_25_" class="st1" d="M224.56,298.57c-0.44-11.85,0-35.4,0-47.69c0-12.29-15.07-17.55-25.16-17.26
		c-9.95,0.44-39.79,0-39.79,0v153.59l1.46,1.46v-1.46h20.62l0.44-65.68c0,0,0,0,19.89-0.73
		C221.78,320.22,224.85,306.76,224.56,298.57z M201.3,300.32h-19.31v-46.52h19.31V300.32z"/>
	<path id="XMLID_24_" class="st1" d="M376.1,240.64h1.9h52.37c-4.83-7.61-14.34-7.9-19.89-8.05c-10.24-0.15-40.66,0-40.66,0v156.52
		l1.46,1.46v-1.46l6.73,0.15V240.64H376.1z"/>
	<path id="XMLID_7_" class="st1" d="M481.13,226.74c-28.82,1.46-38.76,8.19-38.76,24.72s0,51.34,0,51.34s0.88,11.99,9.36,16.97
		l10.82-30.28v-38.76c0,0,0.59-2.49,5.27-2.49c4.24,0,13.02,0,14.63,0l24.28-13.6C503.8,230.55,496.93,225.87,481.13,226.74z"/>
	<g id="XMLID_37_">
		<g id="XMLID_36_">
			<path id="XMLID_49_" class="st2" d="M316.42,92.61c-1.17-1.46-2.49-2.93-3.8-4.39c-14.19-15.07-34.23-24.43-56.46-24.43
				c-22.09,0-42.13,9.36-56.32,24.28c-1.32,1.46-2.63,2.78-3.8,4.24c-10.97,13.31-17.41,30.43-17.41,49s6.58,35.69,17.41,49
				c1.17,1.46,2.49,2.93,3.8,4.24c14.19,14.92,34.08,24.28,56.32,24.28c22.23,0,42.42-9.36,56.46-24.43
				c1.32-1.46,2.63-2.78,3.8-4.39c10.82-13.31,17.26-30.28,17.26-48.86C333.68,122.89,327.25,105.92,316.42,92.61z M253.08,69.5
				h0.15C253.23,69.5,253.23,69.5,253.08,69.5L253.08,69.5z M253.08,213.58L253.08,213.58h0.15H253.08z"/>
			<path id="XMLID_61_" class="st0" d="M317.59,91.59c-1.17-1.46-2.49-2.93-3.8-4.39c-14.48-15.36-34.96-24.87-57.63-24.87
				c-22.53,0-43.01,9.51-57.34,24.72c-1.32,1.46-2.63,2.93-3.8,4.39c-11.12,13.6-17.85,31.01-17.85,49.88
				c0,18.87,6.73,36.28,17.85,49.88c1.17,1.46,2.49,2.93,3.8,4.39c14.34,15.21,34.81,24.72,57.34,24.72
				c22.67,0,43.15-9.65,57.63-24.87c1.32-1.46,2.63-2.93,3.8-4.39c10.97-13.6,17.55-30.86,17.55-49.73
				C335.15,122.45,328.56,105.19,317.59,91.59z M329.15,138.39v0.59h-30.72v-0.59c0-15.94,6.14-30.57,15.36-42.27
				C323,107.82,329.15,122.45,329.15,138.39z M198.23,95.97c9.36,11.85,15.36,26.48,15.36,42.57v0.59h-30.72v-0.59
				C182.87,122.45,188.87,107.68,198.23,95.97z M183.02,143.37h31.45c-0.59,16.09-6.44,30.72-15.8,42.57
				C189.45,174.09,183.6,159.46,183.02,143.37z M258.94,214.46V193.1h-5.85v20.48h0.15c-19.89-1.46-37.89-9.07-50.61-22.82
				c11.12-13.6,17.85-30.72,17.85-49.73c0-18.87-6.73-36.57-17.85-50.17c12.73-13.6,30.72-22.09,50.61-23.55h-0.15v21.94h5.85V68.18
				c20.48,0.73,38.18,9.65,50.9,23.4c-10.97,13.6-17.55,30.86-17.55,49.73s6.58,36.13,17.55,49.73
				C296.97,204.8,279.41,213.73,258.94,214.46z M313.64,185.64c-9.22-11.7-14.92-26.18-15.51-42.27h31.16
				C328.71,159.46,323,173.94,313.64,185.64z"/>
		</g>
		<g id="XMLID_3_">
			<polygon id="XMLID_88_" class="st3" points="247.23,108.7 247.23,165.6 273.56,165.6 273.56,174.09 238.75,174.09 238.75,108.7 
							"/>
			<path id="XMLID_39_" class="st3" d="M250.16,108.26v52.66h9.65l0.15-17.55h4.83v17.55h8.78v-52.66H250.16z M264.79,136.05h-4.39
				v-19.02h4.39V136.05z"/>
			<path id="XMLID_84_" class="st4" d="M276.49,152v24.57h-40.52v-71.38h40.52v24.57h8.92v-27.65c0,0-0.59-3.66-6.58-3.66
				c-6.14,0-46.22,0-46.22,0s-5.27,0.44-5.27,7.9c0,7.46,0,72.55,0,72.55s0.29,5.41,6,5.41s48.12,0,48.12,0s3.95-0.15,3.95-6.87
				c0-6.87,0-25.16,0-25.16L276.49,152z"/>
		</g>
	</g>
	<path id="XMLID_33_" class="st4" d="M1.64,427.44c0,0-0.88-1.76-1.46-4.1c-0.44-2.34,0-4.53,0-4.53
		c0.88-0.15,96.69-15.36,257.15-15.36c160.61,0,252.18,15.21,253.06,15.36c0,0,1.61,1.46,0.73,5.27c-0.73,2.78-2.05,3.36-2.05,3.36
		c-0.88-0.15-91.86-15.21-251.6-15.21C97.59,412.22,2.51,427.29,1.64,427.44z"/>
	<path id="XMLID_32_" class="st3" d="M65.7,449.67c0,0-1.46-1.17-2.34-3.66c-0.73-2.05-0.73-4.53-0.73-4.53
		c2.49-0.88,62.61-22.82,193.67-22.82c131.21,0,191.04,21.94,193.52,22.82c0,0,0,2.34-0.73,4.53c-0.73,2.34-2.34,3.66-2.34,3.66
		c-0.59-0.29-61.14-22.23-190.45-22.23C126.99,427.44,66.29,449.52,65.7,449.67z"/>
	<path id="XMLID_77_" class="st0" d="M59.56,250.15l-32.91-1.02v124.92l32.91-1.46v23.26l-35.11,2.19c0,0-10.09,1.02-15.51-4.83
		c-4.68-5.12-4.39-14.63-4.39-14.63V245.76c0,0,0.29-8.63,6-13.16c5.85-4.53,11.99-3.95,11.99-3.95l36.86,0.73v20.77H59.56z"/>
	<polygon id="XMLID_76_" class="st0" points="91.01,230.99 91.01,371.56 121.14,371.56 121.14,391.16 69.65,393.5 69.65,230.99 	"/>
	<rect id="XMLID_75_" x="130.8" y="235.08" class="st0" width="21.36" height="154.76"/>
	<polygon id="XMLID_74_" class="st0" points="361.77,254.24 361.77,235.08 309.99,235.08 309.99,388.67 361.77,389.7 361.77,369.51 
		331.78,368.34 331.78,322.26 352.7,322.26 352.7,301.2 331.78,301.2 331.78,254.54 	"/>
	<path id="XMLID_71_" class="st0" d="M226.02,300.03c-0.44-11.85,0-35.4,0-47.69c0-12.29-15.07-17.55-25.16-17.26
		c-9.95,0.44-39.79,0-39.79,0v153.59h22.09l0.44-65.68c0,0,0,0,19.89-0.73C223.24,321.53,226.32,308.22,226.02,300.03z
		 M201.3,300.32h-17.99v-45.05h17.99V300.32z"/>
	<path id="XMLID_60_" class="st0" d="M416.04,322.26c16.24-2.93,18.72-18.87,18.72-18.87s0-30.28,0-49.44
		c0-19.16-15.21-19.75-22.82-19.89c-10.24-0.15-40.66,0-40.66,0v156.52l20.62,0.29v-67.14l22.97,70.8h23.99L416.04,322.26z
		 M409.75,300.32h-17.99V254.1h17.99V300.32z"/>
	<path id="XMLID_59_" class="st0" d="M486.69,272.82h23.55v-31.6c0,0-0.73-14.48-27.79-13.02c-28.82,1.46-38.76,8.19-38.76,24.72
		s0,51.34,0,51.34s1.46,19.02,17.85,19.02s25.01,0,25.01,0v50.61h-18.43c-3.36-0.29-3.51-3.07-3.51-11.26c0-8.19,0-14.04,0-14.04
		h-24.28v22.23c0.29,10.09,1.76,26.04,30.13,26.77c28.38,0.73,29.11-1.32,30.57-2.34s10.24-4.68,10.24-18.72
		c0-14.04,0-50.17,0-50.17c0-8.48-2.93-26.33-20.92-26.33c-17.99,0-26.33,0-26.33,0V251.9c0,0,0.59-2.49,5.27-2.49
		c4.68,0,14.92,0,14.92,0s2.34,0.15,2.34,4.39C486.54,258.34,486.69,272.82,486.69,272.82z"/>
	<g id="XMLID_51_">
		<g id="XMLID_44_">
			<path id="XMLID_90_" class="st3" d="M189.31,199.68c-97.13-10.68-126.68-21.06-127.85-21.5c0,0-0.59-2.05,0.29-4.53
				c0.88-2.63,2.63-3.66,2.63-3.66c0.29,0.15,28.52,9.95,117.61,20.19c1.61,2.49,3.51,4.97,5.41,7.31
				C187.99,198.07,188.72,198.95,189.31,199.68z"/>
			<path id="XMLID_46_" class="st3" d="M321.69,199.68c97.13-10.68,126.68-21.06,127.85-21.5c0,0,0.59-1.9-0.29-4.83
				c-1.02-2.93-2.63-3.36-2.63-3.36c-0.29,0.15-28.52,9.95-117.61,20.19c-1.61,2.49-3.51,4.97-5.41,7.31
				C323,198.07,322.27,198.95,321.69,199.68z"/>
		</g>
		<g id="XMLID_43_">
			<path id="XMLID_79_" class="st4" d="M210.66,217.38C31.91,210.65,1.64,202.32,0.47,202.02c0,0-0.15-1.9,0.59-4.83
				c0.44-2.19,1.9-3.51,1.9-3.51c1.17,0.29,30.28,8.05,194.99,14.63l0,0C201.89,211.68,206.13,214.75,210.66,217.38z"/>
			<path id="XMLID_78_" class="st4" d="M511.85,202.02c-1.17,0.29-31.3,8.63-210.2,15.36c4.53-2.63,8.78-5.85,12.73-9.22
				c164.71-6.58,193.82-14.19,194.99-14.63c0,0,1.46,0.73,2.19,3.66C512.29,200.42,511.85,202.02,511.85,202.02z"/>
		</g>
	</g>
	<path id="XMLID_21_" class="st0" d="M297.41,297.1c-0.44-11.85,0-35.4,0-47.69s-15.07-17.55-25.16-17.26
		c-9.95,0.44-39.79,0-39.79,0v153.59l1.46,1.46v-1.46h20.62l0.44-65.68c0,0,0,0,19.89-0.73C294.77,318.75,297.7,305.3,297.41,297.1z
		 M275.61,300.32h-20.77v-47.98h20.77V300.32z"/>
	<path id="XMLID_15_" class="st1" d="M298.87,298.57c-0.44-11.85,0-35.4,0-47.69c0-12.29-15.07-17.55-25.16-17.26
		c-9.95,0.44-39.79,0-39.79,0v153.59l1.46,1.46v-1.46h20.62l0.44-65.68c0,0,0,0,19.89-0.73
		C296.24,320.07,299.16,306.76,298.87,298.57z M275.61,300.32H256.3v-46.52h19.31V300.32z"/>
	<path id="XMLID_2_" class="st0" d="M300.33,300.03c-0.44-11.85,0-35.4,0-47.69c0-12.29-15.07-17.55-25.16-17.26
		c-9.95,0.44-39.79,0-39.79,0v153.59h22.09l0.44-65.68c0,0,0,0,19.89-0.73C297.7,321.53,300.62,308.22,300.33,300.03z
		 M275.61,300.32h-17.99v-45.05h17.99V300.32z"/>
</g>
</svg>
