<?xml version="1.0" encoding="utf-8"?>
<!-- Generator: Adobe Illustrator 24.3.0, SVG Export Plug-In . SVG Version: 6.00 Build 0)  -->
<svg version="1.1" id="Layer_1" xmlns="http://www.w3.org/2000/svg" xmlns:xlink="http://www.w3.org/1999/xlink" x="0px" y="0px"
	 viewBox="0 0 512 512" style="enable-background:new 0 0 512 512;" xml:space="preserve">
<style type="text/css">
	.st0{fill:#FFFFFF;}
	.st1{fill:#C4CED4;}
	.st2{fill:#1061AC;}
</style>
<g id="XMLID_1_">
	<path id="XMLID_82_" d="M38.42,38.43c0,0,11.56,140.62,63.36,248.46c0,0-38.05-10.54-84.58-37.02l86.63,221.98
		c0,0,44.34-27.51,84.58-30.73c0,0,43.31,57.07,64.53,70.82c21.07-13.75,61.31-71.85,61.31-71.85
		c40.24,3.22,81.36,29.56,81.36,29.56l89.85-219.93c-46.53,26.49-77.11,37.02-77.11,37.02c46.53-107.84,62.34-249.49,62.34-249.49
		l-92.92,27.66H128.26L38.42,38.43L38.42,38.43z"/>
	<path id="XMLID_81_" class="st0" d="M128.26,71.36h250.51c0,0,69.07-20.34,84.43-24.88c-4.54,33.8-21.95,148.38-60.58,237.93
		l-7.76,18.44c0,0,80.04-26.63,117.21-46.53c-11.41,27.95-81.65,191.98-86.63,203.98c-13.75-4.24-78.43-24-110.48-26.63l-3.8-0.29
		l-2.19,3.07c-10.24,14.78-38.78,53.7-56.04,67.6c-21.07-16.54-58.82-66.14-59.26-66.73l-2.19-2.78l-3.51,0.29
		c-30.14,0.15-105.21,20.19-113.7,29.7C65.34,441.57,5.2,275.19-1.38,258.36c39.22,20.34,114.87,41.7,114.87,41.7l-6.58-16.1
		C63.88,194.42,49.39,80.58,45.74,47.36c14.93,4.39,81.5,24,81.5,24L128.26,71.36L128.26,71.36z"/>
	<path id="XMLID_80_" class="st1" d="M54.22,58.63l63.36,19.02h270.71l62.34-20.05c0,0-5.27,96.14-57.07,223
		c-51.8,126.87-141.65,210.42-141.65,210.42S147.29,376.89,106.02,261.58S54.22,58.63,54.22,58.63L54.22,58.63z"/>
	<path id="XMLID_79_" class="st2" d="M14.13,273.14c0,0,87.8,39.07,172.37,48.58c84.58,9.51,138.43,1.02,138.43,1.02
		s85.6-11.56,165.94-49.75L415.8,448.74c0,0-55.02-16.97-96.14-21.07c-41.26-4.24-106.82-4.24-138.43,0
		c-31.75,4.24-100.38,23.27-100.38,23.27L14.13,273.14L14.13,273.14z"/>
	<path id="XMLID_78_" class="st0" d="M407.02,152.13c0-81.65-68.63-147.79-153.5-147.79c-84.72,0-153.5,66.14-153.5,147.79
		s68.63,147.79,153.5,147.79S407.02,233.78,407.02,152.13L407.02,152.13z"/>
	<path d="M95.78,152.13c0,83.85,70.82,152.18,157.74,152.18c87.06,0,157.74-68.19,157.74-152.18c0-83.85-70.82-152.18-157.74-152.18
		S95.78,68.14,95.78,152.13L95.78,152.13z M104.41,152.13c0-79.16,66.87-143.4,149.11-143.4s149.11,64.38,149.11,143.4
		s-66.87,143.4-149.11,143.4C171.43,295.53,104.41,231.15,104.41,152.13L104.41,152.13z"/>
	<path id="XMLID_75_" class="st2" d="M397.07,194.27c0,77.11-62.48,139.74-139.74,139.74c-77.11,0-139.74-62.48-139.74-139.74
		S180.06,54.53,257.33,54.53C334.59,54.53,397.07,117.16,397.07,194.27L397.07,194.27z"/>
	<path d="M402.19,194.27c0,80.04-64.82,144.86-144.86,144.86c-39.95,0-76.24-16.24-102.43-42.43
		c-26.19-26.19-42.43-62.48-42.43-102.43s16.24-76.24,42.43-102.43s62.48-42.43,102.43-42.43s76.24,16.24,102.43,42.43
		C386.09,118.04,402.19,154.18,402.19,194.27L402.19,194.27z M391.8,194.27c0-37.17-15.07-70.82-39.36-95.11
		c-24.29-24.29-57.95-39.36-95.11-39.36s-70.82,15.07-95.11,39.36s-39.36,57.95-39.36,95.11s15.07,70.82,39.36,95.11
		c24.29,24.29,57.95,39.36,95.11,39.36C331.66,328.75,391.8,268.46,391.8,194.27L391.8,194.27z"/>
	<path id="XMLID_72_" d="M245.33,41.51c0,0-6.44,6.44-6.44,10.97c0,0,27.36,14.34,33.22,24.88c0,0,10.97-3.51,18.44-2.93
		c7.46,0.44,19.32,5.41,19.32,5.41s-11.85,6.44-14.34,8.93c-2.49,2.49-8.49,10.97-8.49,10.97s18.88,12.88,41.26,14.93
		c22.39,2.05,34.68-4.98,34.68-4.98l4.39,2.05l-1.46,2.93c0,0-8.49,3.51-15.95,4.98c-7.46,1.46-15.36,2.93-21.8,2.93
		c-6.44,0-24.29-3.51-29.85-5.41l1.46,7.46c0,0-6.88-7.46-14.93-7.46v3.51c0,0,19.32,7.9,36.73,21.36
		c17.41,13.46,32.78,31.75,32.78,31.75s11.27,10.97,18.88,33.8c4.54,13.46,4.98,30.29,4.98,30.29l4.54,2.49l-9.37,20.05l-1.46-7.46
		c0,0-0.44-18.44-6-35.26c-5.41-16.83-15.36-27.8-24.29-38.78c-8.93-10.97-36.73-29.27-42.73-32.19c0,0,9.36,18.44,9.95,24.88
		c0,0-7.9-7.9-15.36-9.36c0,0,6.88,5.41,21.8,30.29c14.93,24.88,13.46,58.09,13.46,58.09s-1.46,25.75-3.95,36.73
		c-2.49,10.97-5.41,13.46-5.41,13.46l-2.49-12.44c0,0,5.41-19.9,2.49-43.61c-2.93-23.85-8.49-49.17-26.34-64.97
		c0,0,3.95,14.34,2.93,24.29c-1.02,9.95-7.9,22.83-7.9,22.83s-2.49-23.27-9.36-23.85c0,0,0,6.44-0.44,10.97s-4.98,12.88-2.05,19.9
		c2.93,6.88,7.46,25.31,7.9,27.36c0.44,2.05,1.46,7.46,1.46,7.46s1.02,2.05-2.05,4.54c-2.93,2.49-13.46,11.41-13.46,11.41
		s-7.9,4.54-2.93,6c4.98,1.46,33.22,1.46,33.22,1.46s31.75-2.49,51.07-17.85c19.32-15.36,34.68-38.19,34.68-38.19l-6.44,28.24
		c0,0-9.95,28.83-36.73,45.65c-26.78,16.83-77.41,46.68-148.38,15.95s-84.43-97.75-84.43-97.75s-6-20.34-4.98-29.27
		c1.02-8.93-3.95-19.9,5.41-19.9c0,0,0-14.93,4.98-19.9l2.49-10.39c0,0,3.51-25.31,20.78-39.65c0,0,9.36-11.41,11.41-12.88
		c2.05-1.46,2.93-6.88,2.93-6.88l11.85-11.41l6.44-1.02c0,0,17.41-11.41,20.78-11.85C196.16,63.9,206.7,40.63,245.33,41.51
		L245.33,41.51z"/>
	<path class="st0" d="M258.2,301.24c-18.88-2.93-22.39-4.98-34.24-12.88c-11.85-7.9-16.83-17.85-16.83-17.85
		c9.95,4.98,21.8,2.05,23.85,1.46c2.05-0.44,13.9-7.46,16.83-10.39c2.93-2.93,2.49-5.41,2.05-8.49c-0.44-2.93-1.46-13.46-1.46-18.88
		s-2.05-12.88-2.05-12.88l-4.54,9.95c0,0,0,0-1.46-3.51c-1.46-3.51-2.49-8.93-2.93-12.88c-0.44-3.95-2.93-12.44-3.95-17.41
		s-2.93-17.41-2.93-17.41s-6.44-24.29-6.88-25.75c-0.44-1.46,1.02-4.54,1.02-4.54s2.49,6.88,8.49,10.97
		c6,3.95,12.44,4.54,12.44,4.54s-15.36-15.36-20.34-23.85c-4.98-8.49-7.9-23.85-9.36-29.27s1.02-7.46,1.02-7.46l2.93,5.41l8.49,1.46
		c-9.95-32.78-5.41-43.75-4.54-47.7c1.02-3.95,10.97-16.39,10.97-16.39l-4.54,0.44c-9.36,2.05-21.8,11.85-21.8,11.85
		s-11.41,7.9-11.85,17.41c-0.44,9.36-8.49,14.93-12.44,19.9s-10.97,18.44-14.93,28.24c-3.95,9.95-4.54,27.36-1.46,37.75
		c2.93,10.39,10.97,20.78,14.34,24.29c3.51,3.51,1.46,3.95-2.93,2.49c-4.54-1.46-12.44-5.41-16.39-9.95s-3.95-1.46-3.95,1.02
		s8.93,21.36,10.97,24.88c2.05,3.51-1.46,2.05-4.98-1.02c-3.51-2.93-10.39-11.41-10.39-11.41s1.46,4.98,5.41,13.9
		c3.95,8.93,23.27,34.68,23.27,34.68s18.44,11.41-0.44,6.44c-18.88-4.98-28.83-11.85-28.83-11.85l6.44,11.85
		c0,0,28.24,38.78,54.14,50.19c25.75,11.41,50.63,10.39,61.6,10.39c10.97,0,31.75-5.41,31.75-5.41S277.08,304.16,258.2,301.24
		L258.2,301.24z M226.01,240.66c4.54-8.93,9.95-2.49,10.97,4.98c1.02,7.76,1.46,13.9,1.46,13.9c-9.36-24.88-8.49-4.54-8.49-4.54
		C218.11,253.1,226.01,240.66,226.01,240.66L226.01,240.66z M209.04,67.41c0.44-2.05,6.88-8.93,6.88-8.93s10.39-6.88,8.93-4.98
		c-1.46,2.05-9.95,19.9-9.95,19.9h-2.49l-7.9,7.46C204.65,80.72,208.6,69.31,209.04,67.41L209.04,67.41z M203.62,111.01
		c1.02-2.93,3.95-5.41,3.95-5.41s-1.02,7.46,1.02,16.39c2.05,8.93,8.93,19.32,8.93,19.32s-3.95,1.02-8.49-2.05
		c-4.54-2.93-7.9-7.9-7.9-12.44C201.14,122.43,202.6,114.09,203.62,111.01L203.62,111.01z M189.28,124.47
		c0.44-6.44,5.41-13.46,5.41-13.46s-3.95,9.95-1.46,18.44s9.36,19.32,10.97,19.9c1.46,0.44,3.51-0.44,3.51-0.44l5.41,4.54
		l4.54,16.39c0,0-10.97-6-18.88-15.95C190.75,143.79,188.7,130.91,189.28,124.47L189.28,124.47z M190.31,222.81
		c-6-9.95-13.9-24.29-13.9-24.29l15.36,3.51c0,0,18.88,42.73,20.34,43.75c1.46,1.02,0.44,4.54,0.44,4.54l-2.93-2.05
		C209.62,248.12,196.16,232.61,190.31,222.81L190.31,222.81z"/>
	<path id="XMLID_65_" class="st1" d="M165.43,91.26c0,0-4.54,7.46-2.05,10.39c0,0,14.93-17.85,23.85-20.78
		c0,0-19.32,19.32-26.78,39.22c-7.46,19.9-9.36,45.65-7.9,62.04c0,0-10.39-27.36-4.54-47.12c0,0-12.88,11.85-8.93,42.14
		c3.95,30.29,27.36,57.51,27.36,57.51s-13.46-6.88-19.32-12.88c-6-6-10.97-16.39-10.97-16.39s1.46,36.29,29.27,69.51
		s61.02,42.73,84.43,46.09c23.27,3.51,63.07-2.05,98.33-25.31c0,0-36.29,31.31-84.43,32.19c-48.14,1.02-88.38-23.85-106.23-44.19
		c-17.85-20.34-43.17-62.04-38.19-95.84c0,0,2.05,26.34,12.88,38.19c0,0-10.39-44.19-9.36-62.04c1.02-17.85,9.95-36.29,15.36-40.24
		c0,0-8.49,18.44-4.98,26.78c0,0,8.49-25.75,14.93-31.31c6.44-5.41,6-9.36,7.02-12.44C156.07,104.14,157.97,96.67,165.43,91.26
		L165.43,91.26z"/>
	<path id="XMLID_64_" class="st1" d="M220.45,224.27l-1.02-23.85c0,0,0.44-6.88-1.02-11.85c-1.46-4.98,0-14.34,0-14.34l2.93,7.46
		c0,0,1.02,4.54,1.02,6.44c0,2.05,1.02,7.9,3.51,12.88c2.49,4.98,6.88,25.75,6.88,25.75S226.45,221.2,220.45,224.27L220.45,224.27z"
		/>
	<path id="XMLID_63_" class="st1" d="M222.94,246.07c0,0,1.02-9.95,2.49-11.41c1.46-1.46,7.46-6.44,10.97,0.44
		c3.51,6.88,4.54,13.9,2.49,22.39C238.89,257.49,236.84,223.25,222.94,246.07L222.94,246.07z"/>
	<path id="XMLID_62_" class="st1" d="M274.15,81.75l5.41,8.49c0,0,0.44-5.41,7.46-8.49c6.88-2.93,15.95-2.49,15.95-2.49
		s-9.95-2.93-15.95-2.05C281.03,78.24,274.15,81.75,274.15,81.75L274.15,81.75z"/>
	<path id="XMLID_61_" class="st1" d="M263.18,113.5c0,0,7.46-11.41,7.46-14.93l2.49-7.46l1.02,6.88c1.46,7.9,1.02,25.31,1.02,25.31
		s-0.44,16.39-3.51,24.88c-2.93,8.49-7.9,14.34-7.9,14.34s3.51-6.88,6-28.24s1.02-21.36,1.02-21.36s-4.98,12.88-8.93,16.83
		c0,0-1.46-9.36-4.54-15.95c-2.93-6.44-9.95-11.41-9.95-11.41s3.95,11.41,6.88,23.85s2.05,34.68,2.05,34.68s-4.98-19.9-11.41-43.17
		c-6.44-23.27-15.36-38.78-15.36-38.78s15.95,10.97,20.78,16.39C255.28,101.21,263.18,113.5,263.18,113.5L263.18,113.5z"/>
	<path id="XMLID_60_" class="st1" d="M217.09,106.04c0,0,11.41,18.44,6.88-20.78c0,0,9.95,35.7,10.39,36.73
		c0.44,1.02,2.05,6.88-2.05,3.51C228.5,121.99,217.09,106.04,217.09,106.04L217.09,106.04z"/>
	<path id="XMLID_59_" class="st1" d="M282.64,135.89c0,0-1.02-7.9,0.44-4.54c1.46,3.51,2.93,15.36,1.46,22.39
		c-1.46,6.88-11.85,16.39-11.85,16.39s-0.44,0.44,1.46-3.95c2.05-4.54,3.51-7.9,4.98-14.34
		C280.59,145.25,282.64,135.89,282.64,135.89L282.64,135.89z"/>
	<path id="XMLID_58_" class="st1" d="M257.33,286.31l21.36-16.39c0,0,1.02-2.05,0.44-4.98c-0.44-2.93-9.95-35.26-9.95-35.26
		s-2.05-3.51-0.44-4.98c1.46-1.46,2.05-6.88,1.46-9.36c-0.44-2.49,0.44-7.9,1.46-9.36c1.02-1.46,2.49-7.9,2.49-12.88
		c0-4.98-1.02-13.46-1.02-13.46s-2.93,11.41-3.51,15.95c-0.44,4.54-2.93,7.46-2.49,14.93c0.44,7.46-2.49,10.97-2.49,10.97
		s-2.49,4.54-0.44,7.9c2.05,3.51,9.36,33.22,9.36,33.22s2.05,3.51-1.02,6.44C269.62,271.83,257.33,286.31,257.33,286.31
		L257.33,286.31z"/>
	<path d="M159.87,56.14l6-4.83c1.17-1.02,2.19-1.61,3.07-2.05s1.76-0.59,2.49-0.59s1.46,0.15,2.19,0.59
		c0.59,0.29,1.17,0.88,1.76,1.46c0.73,0.88,1.17,1.76,1.32,2.49c0.15,0.73,0,1.61-0.29,2.34c-0.29,0.73-0.73,1.46-1.17,2.19
		c-0.73,0.88-1.46,1.61-2.19,2.19l-6,4.83L159.87,56.14L159.87,56.14z M165.43,54.82l3.8,4.68l1.02-0.73
		c0.88-0.73,1.32-1.17,1.61-1.61c0.29-0.44,0.29-0.88,0.29-1.32s-0.29-1.02-0.88-1.76c-0.73-0.88-1.46-1.32-2.19-1.32
		c-0.73,0-1.61,0.44-2.63,1.32L165.43,54.82L165.43,54.82z"/>
	<path d="M205.53,38.87l-5.41,2.19v2.05l-4.83,2.05l1.61-12.73l5.27-2.19l10.1,7.9l-4.98,2.05L205.53,38.87L205.53,38.87z
		 M203.62,37.12l-3.22-3.07l-0.15,4.39L203.62,37.12L203.62,37.12z"/>
	<polygon id="XMLID_53_" points="230.99,22.34 236.11,21.75 237.13,30.09 245.03,29.07 245.33,31.85 232.3,33.31 	"/>
	<polygon id="XMLID_52_" points="268.59,21.17 273.71,21.9 272.54,30.24 280.45,31.41 280.15,34.19 266.98,32.29 	"/>
	<path d="M311.03,42.68l-5.27-2.34l-1.46,1.32l-4.83-2.19l10.24-7.61l5.12,2.34L316,46.92l-4.98-2.19V42.68L311.03,42.68z
		 M310.88,39.9v-4.39l-3.37,2.93L310.88,39.9L310.88,39.9z"/>
	<path id="XMLID_49_" d="M334.88,54.82l3.8,3.07c-0.29,0.44-0.44,0.88-0.29,1.32c0.15,0.73,0.59,1.32,1.32,2.05
		c0.59,0.44,1.02,0.73,1.46,0.88s0.73,0,1.02-0.15c0.15-0.15,0.29-0.59,0.15-1.02c-0.15-0.44-0.59-1.17-1.61-2.19
		c-1.46-1.76-2.34-3.22-2.78-4.24c-0.29-1.02-0.29-1.9,0.29-2.63c0.44-0.44,0.88-0.73,1.61-0.73c0.73,0,1.61,0.15,2.49,0.59
		c0.88,0.44,2.05,1.17,3.37,2.34c1.61,1.46,2.63,2.63,3.22,3.8c0.44,1.17,0.44,2.19-0.15,3.22l-3.8-3.07
		c0.29-0.44,0.29-0.88,0.15-1.32s-0.59-0.88-1.02-1.32c-0.44-0.44-0.88-0.59-1.17-0.73c-0.29-0.15-0.59,0-0.73,0.15
		s-0.15,0.29,0,0.59c0.15,0.29,0.44,0.73,1.02,1.46c1.46,1.76,2.49,3.07,3.07,3.95c0.59,0.88,0.73,1.61,0.73,2.34
		c0,0.73-0.15,1.17-0.59,1.76c-0.44,0.59-1.17,0.88-2.05,0.88c-0.88,0-1.76-0.15-2.78-0.59c-1.02-0.44-2.05-1.17-3.37-2.34
		c-2.19-1.9-3.37-3.51-3.66-4.68C334.15,56.87,334.29,55.85,334.88,54.82L334.88,54.82z"/>
	<path id="XMLID_48_" class="st0" d="M41.2,306.65l47.56,127.89c0,0,18.58-5.41,19.17-5.71l0,0c0,0,17.71-4.83,18.58-4.98
		c0,0.15,0.15,0.44,0.15,0.44l22.83-4.68l-1.17-4.39c-0.73-2.49-16.39-59.26-20.92-72.72c-4.98-15.07-21.66-22.24-22.24-22.53
		l-0.15-0.15h-0.29c-5.12-1.46-13.9-4.1-15.51-4.83c-2.93-1.17-5.41-0.73-7.02,0.15c-2.49-1.61-5.85-3.51-6.29-3.8l-0.29-0.15
		l-37.46-13.17L41.2,306.65L41.2,306.65z"/>
	<path class="st0" d="M124.46,330.5l22.24,89.26c0,0,17.41-2.78,18.58-2.93c0,0.15,0.15,0.44,0.15,0.44l19.02-3.37l-0.88-4.39
		c-0.44-2.05-9.51-48.87-12-60.14c-2.93-13.75-18.58-18.88-19.32-19.02h-0.15l-29.41-6.58L124.46,330.5L124.46,330.5z
		 M134.56,335.19c6.44,1.46,14.93,3.37,15.22,3.37c1.32,0.44,11.56,4.39,13.32,12.58c2.05,9.22,8.63,43.46,11.12,55.6
		c-1.02,0.15-1.17,0.15-2.19,0.44c-1.32-6.15-6.58-29.85-6.58-29.85l-17.27-1.02c0,0,7.02,26.19,8.78,32.92
		c-1.76,0.29-2.19,0.29-3.8,0.59C151.68,403.52,137.34,346.16,134.56,335.19L134.56,335.19z"/>
	<path class="st0" d="M145.68,336.65c-4.98,1.61-4.54,7.9-4.54,9.95v0.44l7.9,32.05h16.24l-0.59-4.98
		c-0.59-3.95-3.37-23.56-7.02-29.56C154.9,340.02,150.51,335.04,145.68,336.65L145.68,336.65z M151.09,350.84
		c1.02,2.78,2.19,7.76,3.22,13.02C152.85,357.87,152.12,354.94,151.09,350.84L151.09,350.84z"/>
	<path class="st0" d="M167.77,339.28L167.77,339.28c0.88,3.22,11.12,57.51,12.29,65.26c0.59,4.1,2.19,6.88,4.68,8.34
		c1.76,1.02,3.66,1.17,5.12,0.88c2.49,0,13.75-0.29,20.05-2.19c6.73-2.05,8.63-9.36,8.63-15.66c0-2.49-0.29-4.83-0.73-6.44l0,0
		c-0.59-3.07-0.88-29.7-0.88-47.7v-4.24c0,0-22.1-0.73-23.71-0.73v-0.29l-27.51-3.95L167.77,339.28L167.77,339.28z M188.55,403.38
		c-0.73-4.68-7.9-44.19-11.12-60.29c3.66,0.59,5.41,0.73,7.9,1.17c1.17,11.56,5.27,48.87,6.15,54.43c0.44,3.07,1.76,4.98,3.22,6.29
		c-2.34,0.15-4.24,0.15-5.41,0.15c0,0-0.15,0-0.29,0C188.84,404.69,188.7,404.11,188.55,403.38L188.55,403.38z M198.06,380.55
		c0.44,3.37,0.73,6.29,1.02,8.78C198.65,386.84,198.36,383.77,198.06,380.55L198.06,380.55z M207.87,397.67
		c0.15-0.44,0.15-1.17,0.15-2.05c0-8.78-4.1-35.85-6.29-49.9c2.78,0.15,3.95,0.15,6.44,0.15c0,13.61,0.15,41.7,1.17,45.51
		c0.29,1.17,0.44,2.78,0.44,4.39c0,3.37-0.73,6.88-2.49,7.32c-0.73,0.15-1.46,0.44-2.34,0.59
		C206.4,402.2,207.57,400.16,207.87,397.67L207.87,397.67z"/>
	<path class="st0" d="M215.18,355.82L215.18,355.82l1.61,56.48h4.24c0.59,0,12.58,0,19.61-0.44c9.36-0.73,14.49-12.15,15.07-13.61
		l0.29-0.73l0.73-14.78c0,0-0.73,0-1.17,0c0-1.32,0-8.78,0-9.22c0.29,0,0.88,0,0.88,0l0.73-33.8l-4.24-0.15
		c-0.15,0-11.71-0.44-22.53-0.44C219.28,338.99,215.18,349.09,215.18,355.82L215.18,355.82z M230.4,347.77c0.59,0,1.02,0,1.61,0
		c-0.59,0.29-1.17,0.59-1.76,1.17c-1.46,1.17-3.22,3.51-3.22,7.46c0,0,0,18.88,0,19.02c-0.15,0-0.44,0-0.44,0s0,27.51,0,28.24
		c-0.44,0-0.88,0-1.32,0c-0.15-7.17-1.32-47.56-1.32-47.7C223.82,354.36,224.26,347.77,230.4,347.77L230.4,347.77z M244.16,350.84
		c0,0,0-1.9,0-2.93c1.61,0,2.93,0.15,4.1,0.15c-0.15,4.68-0.29,12.15-0.29,16.83c-1.76,0-2.05,0-3.8,0
		C244.16,359.77,244.16,350.84,244.16,350.84L244.16,350.84z M237.42,383.91c-0.15,1.17-1.32,10.97-1.32,10.97
		c-0.15,1.02-0.44,1.76-0.73,1.9l0,0c0-3.95,0-8.78,0-13.02C235.96,383.91,236.4,383.91,237.42,383.91L237.42,383.91z
		 M247.67,391.38c-0.15,2.05-0.15,3.37-0.15,3.95c-1.17,2.34-3.22,5.27-5.27,6.73c1.17-1.32,2.05-3.37,2.49-6.15
		c0,0,0.29-2.34,0.59-4.68C246.35,391.38,246.5,391.38,247.67,391.38L247.67,391.38z"/>
	<path class="st0" d="M285.42,338.11l-30.29,1.17l-2.19,70.97c0,0,16.97,0.59,18.14,0.59l0,0c0,0,0.88,0,1.61,0h0.29l0,0
		c1.32,0,17.27,0,17.27,0l0.73-3.37c0.15-0.59,3.07-13.9,3.07-22.24c0-3.8-0.73-6.58-1.61-8.49c2.93-3.51,4.24-8.05,4.54-8.78
		l0.15-0.29v-0.29c0-0.44,1.17-9.07,1.17-15.51c0-1.17,0-2.19-0.15-3.22c-0.59-7.61-8.05-10.1-12-10.39h-0.29L285.42,338.11
		L285.42,338.11z M285.42,346.75c0.73,0.15,3.66,0.59,3.8,2.49c0,0.73,0.15,1.61,0.15,2.49c0,4.68-0.73,11.27-1.02,14.19
		c-0.73,2.34-2.34,5.71-3.95,6.29c0,0-9.07,3.95-10.24,4.54c-1.17-0.29-2.49-0.44-3.95-0.44h-4.1c0,0-1.17,19.61-1.46,25.61
		c-1.32,0-1.46,0-2.93-0.15c0.29-7.02,1.46-47.56,1.76-54.14C269.18,347.33,284.98,346.75,285.42,346.75L285.42,346.75z
		 M281.91,385.52v-0.15v-0.15c0-1.9-0.88-4.68-3.8-6.73c2.93,0.88,5.41,1.61,6,1.76c0.29,0.44,1.02,1.9,1.02,4.98
		c0,4.98-1.32,12.58-2.19,16.97c-1.17,0-1.32,0-2.63,0C280.88,396.35,281.91,385.52,281.91,385.52L281.91,385.52z"/>
	<path id="XMLID_31_" class="st0" d="M270.2,345.28l-2.78,1.02l-1.32,30.29l4.1,0.44c3.8,0.44,9.07,0.44,11.71-3.22
		c0.88-1.17,1.17-2.49,1.17-3.8c0-0.29,0-0.59-0.15-0.88c0.29-2.49,1.46-10.54,1.46-16.24c0-3.95-2.05-6-3.37-6.88
		C277.08,343.09,271.37,344.84,270.2,345.28L270.2,345.28z"/>
	<path class="st0" d="M316.59,336.5l-19.46,1.17l-8.93,74.04l20.92,1.02l13.02-76.68L316.59,336.5L316.59,336.5z M311.61,345.58
		c-1.46,8.63-8.78,52.09-9.8,58.38c-1.61-0.15-2.05-0.15-3.95-0.15c0.88-7.46,6.29-51.8,6.88-57.65
		C307.22,345.87,308.54,345.72,311.61,345.58L311.61,345.58z"/>
	<path class="st0" d="M362.1,328.75l-28.68,5.56l-0.29,0.15c-0.44,0.15-11.56,4.39-14.63,15.8c-2.49,9.51-10.1,50.63-10.54,52.39
		c-0.88,4.24,0.59,9.51,5.56,10.97c3.8,1.02,14.34,1.61,16.39,1.61h0.15h0.15c0.59,0,13.46-0.73,17.85-13.32
		c3.51-9.95,6-19.32,6-19.75l1.32-4.54c0,0-22.24,0.29-22.53,0.29c0.44-1.9-0.29,1.02,0.15-0.88c1.46,0,22.68-0.73,22.68-0.73
		l13.17-49.02L362.1,328.75L362.1,328.75z M336.49,342.5c-1.76,1.76-3.95,4.83-6.58,9.8l-0.29,0.59l-0.15,0.59
		c-3.66,16.83-9.36,42.58-9.8,44.34v-0.15c-0.15,0.59-0.29,1.32-0.29,2.05c0,2.19,0.88,4.54,2.49,6.15c0,0,0.15,0.15,0.29,0.15
		c-2.34-0.15-4.39-0.44-5.56-0.73c0-0.15,0-0.29,0-0.44c0-0.29,0-0.44,0-0.73c0.15-0.44,7.9-42.58,10.39-51.8
		c1.61-6.44,7.76-9.36,8.93-9.8H336.49L336.49,342.5z M356.97,338.55c-2.19,7.76-5.56,20.49-6.73,24.44c-2.05,0-3.07,0.15-5.85,0.15
		c1.46-5.71,3.66-14.05,3.66-14.05v-0.29c0-0.44,0.15-0.88,0.15-1.32c0-2.63-1.17-5.27-3.51-6.73
		C349.95,339.87,352.44,339.43,356.97,338.55L356.97,338.55z M344.24,385.82c-1.02,3.51-2.49,8.34-4.24,13.17
		c-1.9,5.27-6.58,6.88-8.78,7.32c3.22-2.34,4.98-7.02,5.56-9.07v-0.15c0,0,1.76-7.32,2.78-10.97
		C341.17,386.11,341.9,385.96,344.24,385.82L344.24,385.82z"/>
	<path class="st0" d="M406.43,318.8c0,0-16.68,4.98-16.68,5.12l0.15-0.29l-23.27,5.12l-25.61,87.5c0,0,16.54,2.34,17.56,2.49
		l-0.15,0.29l19.32,3.8l1.32-3.51c0.29-0.88,8.05-21.95,10.39-29.41c0.73-2.05,1.02-3.95,1.02-5.85c0-2.49-0.59-4.68-1.32-6.58
		c3.37-2.93,6.44-7.32,7.76-9.51l0.29-0.44l17.27-51.21L406.43,318.8L406.43,318.8z M376.87,335.33c-3.22,9.8-12.73,39.8-12.73,39.8
		h0.15c-0.15,0.44-8.63,28.53-10.39,34.24c-0.88-0.15-1.02-0.15-1.9-0.29c2.34-8.19,20.05-68.63,21.36-73.02
		C374.39,335.92,375.12,335.77,376.87,335.33L376.87,335.33z M400.87,329.63c-3.51,10.39-11.27,33.36-11.56,34.24
		c-2.49,3.8-5.85,7.61-7.17,8.19c0,0-1.32,0.44-2.63,0.73c1.76-1.17,3.22-2.93,4.24-5.27c2.19-5.27,8.78-28.53,10.97-36
		C396.19,330.94,397.8,330.5,400.87,329.63L400.87,329.63z M376.44,374.4c0.73,0.88,3.66,4.54,3.66,4.54
		c0.15,0.15,1.61,2.05,1.61,5.12c0,0.88-0.15,2.05-0.59,3.07c-1.9,5.56-6.73,19.32-9.07,25.75c-1.17-0.29-1.46-0.29-2.78-0.59
		c1.9-6.44,6.88-23.71,7.02-24.58c0.73-1.17,1.17-2.78,1.17-4.39c0-1.02-0.15-1.9-0.59-2.93c-1.32-2.78-4.1-4.54-8.49-5.12
		c0.29,0,1.02,0.15,1.02,0.15C371.46,375.57,373.95,375.28,376.44,374.4L376.44,374.4z"/>
	<path class="st0" d="M456.18,302.12l-29.27,11.12l-0.44,0.29c-2.63,1.76-16.24,11.12-19.02,19.61
		c-2.49,7.32-16.68,45.07-16.83,45.51l-2.19,5.71c0,0,0.73,0,0.88,0c-0.15,0.29-10.1,27.95-10.24,28.09
		c-0.29,0.88-1.02,2.78-1.02,4.98c0,1.32,0.29,2.78,1.02,4.1c0.73,1.17,2.49,3.37,6.15,3.66c5.56,0.44,11.12,0.44,11.27,0.44h0.29
		h0.29c0.59,0,13.61-1.9,20.05-13.02c5.56-9.66,17.71-42,18.14-43.31l2.19-6h-0.29c0.15-0.44,28.39-64.82,28.39-64.82L456.18,302.12
		L456.18,302.12z M449.6,313.82c-5.27,12-16.54,37.46-18.14,41.12c-1.32,0-2.05,0.15-4.1,0.15c2.63-6.88,7.17-18.58,7.17-18.58
		l0.15-0.44c0.29-1.17,0.29-2.19,0.29-3.22c0-2.19-0.59-3.95-1.9-5.12c-1.32-1.17-3.07-1.61-4.83-1.17
		c-2.93,0.73-5.71,3.37-6.44,4.1l-0.59,0.59l-0.29,0.73c-3.66,8.19-12.29,27.8-12.73,32.05c-0.44,3.07,0.29,5.56,1.9,7.02
		c1.61,1.46,3.51,1.61,4.83,1.17l-0.88,0.15c0,0,5.85-0.15,10.83-0.29c-3.8,9.95-11.41,29.41-15.22,36
		c-3.95,6.73-12,8.49-13.46,8.78c-1.17,0-5.27,0-9.36-0.44c0.15-0.29,0.15-0.59,0.29-0.88v-0.15v-0.15c0,0,7.17-19.9,8.93-24.44
		c0.29,0,0.44,0,0.88,0c-2.34,5.41-5.27,12.73-6,14.63c-0.44,1.32-0.73,2.63-0.73,3.8c0,1.61,0.44,2.93,1.32,4.1
		c0.88,1.32,2.63,2.78,6,2.78c5.56,0,8.34-5.85,8.93-7.02v-0.15l12.73-32.63c0,0-13.02-0.29-18.44-0.44
		c4.1-10.97,12.88-34.39,14.78-40.09c1.32-4.1,9.66-10.97,15.36-14.93C431.6,320.7,441.41,317.04,449.6,313.82L449.6,313.82z"/>
	<polygon id="XMLID_18_" class="st0" points="156.51,364.16 149.48,364.16 149.48,349.38 156.51,349.38 	"/>
	<polygon id="XMLID_17_" class="st0" points="237.86,398.4 234.35,398.4 234.35,382.01 237.86,382.01 	"/>
	<polygon id="XMLID_16_" class="st0" points="392.24,381.13 388.73,381.13 388.73,375.13 392.24,375.13 	"/>
	<polygon id="XMLID_15_" class="st0" points="355.51,379.67 332.25,379.67 332.25,375.57 355.51,375.57 	"/>
	<path id="XMLID_14_" d="M91.54,429.27L45.44,305.19l28.24,9.95c0,0,5.56,2.63,7.9,4.98c1.76,1.76,2.49,3.51,2.49,3.51v-4.54
		c0,0,1.02-1.02,3.51,0c2.49,1.02,15.95,4.98,15.95,4.98s15.36,6.44,19.9,19.9c4.54,13.46,20.78,72.43,20.78,72.43l-14.34,2.93
		l-21.36-74.48c0,0-5.41-12.44-8.49-11.41c-2.93,1.02,0,8.49,0,8.49l23.85,78.29L111,423.71c0,0-27.8-87.21-30.29-90.14
		c0,0-3.66-8.05-7.9-7.9c-3.07,0.15-1.02,2.49,0,6c1.02,3.51,32.78,93.65,32.78,93.65L91.54,429.27L91.54,429.27z"/>
	<path d="M168.8,412.3l10.54-1.9c0,0-9.36-48.58-11.85-59.99c-2.49-11.41-16.39-15.95-16.39-15.95l-22.39-4.98l21.36,85.31
		l12.44-2.05l-8.49-31.75l7.9,0.44L168.8,412.3L168.8,412.3z M152.55,374.69l-6.88-28.24c-0.44-9.95,4.98-4.98,8.49,0.44
		c3.51,5.41,6.44,27.8,6.44,27.8H152.55L152.55,374.69z"/>
	<path id="XMLID_11_" d="M171.87,337.97l17.41,2.49c0,0,5.41,51.07,6.44,57.51c1.02,6.44,6.88,4.98,7.9-1.02
		c1.02-6-6.88-55.6-6.88-55.6l15.95,0.44c0,0,0,44.63,1.02,48.58c1.02,3.95,1.46,14.93-4.98,16.83c-6.44,2.05-19.32,2.05-19.32,2.05
		s-3.95,1.46-4.98-5.41C183.28,396.94,172.89,340.89,171.87,337.97L171.87,337.97z"/>
	<path id="XMLID_10_" d="M252.79,343.82l-0.44,25.31h-12.44V350.7c0,0-8.49-1.46-8.49,5.41c0,7.02,0,18.44,0,18.44h19.9v4.98h-20.34
		v21.36c0,0,8.49,2.93,9.36-5.41c1.02-8.49,1.02-8.49,1.02-8.49h10.97l-0.44,9.36c0,0-4.54,10.39-11.41,10.97
		c-6.88,0.44-19.32,0.44-19.32,0.44l-1.46-52.09c0,0,0-12.44,10.97-12.44C241.38,343.38,252.79,343.82,252.79,343.82L252.79,343.82z
		"/>
	<path d="M292.44,366.65c0,0,1.46-11.85,1.02-17.85c-0.44-6-7.9-6.44-7.9-6.44l-26.34,1.02l-2.05,62.48l11.41,0.44l1.46-25.75
		c7.46,0,7.46,4.54,7.46,4.54l-2.05,21.36h10.97c0,0,2.93-13.46,2.93-21.36c0-7.9-3.51-8.93-3.51-8.93
		C290.54,374.11,292.44,366.65,292.44,366.65L292.44,366.65z M270.64,372.65l1.02-23.27c0,0,8.49-2.93,8.49,3.51
		c0,6.44-1.46,16.39-1.46,16.39S280.59,373.67,270.64,372.65L270.64,372.65z"/>
	<polygon id="XMLID_7_" points="300.93,341.92 316.88,340.89 305.47,408.35 293.03,407.76 	"/>
	<path id="XMLID_6_" d="M338.68,367.67l14.93-0.44l9.36-34.24l-28.24,5.41c0,0-9.36,3.51-11.85,12.88
		c-2.49,9.36-10.39,52.09-10.39,52.09s-1.02,4.98,2.49,6c3.51,1.02,15.36,1.46,15.36,1.46s10.39-0.44,13.9-10.39
		c3.51-9.95,6-19.32,6-19.32l-13.9,1.02l-3.51,13.9c0,0-2.05,6.44-4.98,7.46c-2.93,1.02-4.54-2.93-3.95-4.39
		c0.44-1.46,9.95-44.63,9.95-44.63s5.41-10.39,7.9-9.95c2.49,0.44,2.05,3.95,2.05,3.95L338.68,367.67L338.68,367.67z"/>
	<path id="XMLID_5_" d="M370,332.41l13.46-2.93L370,371.18c0,0,7.46,0.44,9.95-5.41c2.49-6,11.41-37.75,11.41-37.75l16.39-4.98
		l-14.34,42.73c0,0-6,9.36-9.95,10.39c0,0,4.54,4.98,2.05,12.44s-10.39,29.27-10.39,29.27L364,415.81l8.63-29.7
		c0,0,3.95-5.41-4.98-6.44l-10.39,34.68l-10.54-1.46L370,332.41L370,332.41z"/>
	<path id="XMLID_4_" d="M421.07,359.77l13.46-0.44l23.27-53.12l-28.83,10.97c0,0-14.93,9.95-17.41,17.41
		c-2.49,7.46-16.83,45.65-16.83,45.65l18.44,0.44l-10.39,26.78c0,0-2.05,4.54-4.98,4.54s-3.51-2.05-2.49-4.98
		c1.02-2.93,8.49-20.34,8.49-20.34h-10.39l-9.95,27.36c0,0-2.93,6.44,2.49,7.02c5.41,0.44,10.97,0.44,10.97,0.44
		s11.41-1.46,16.83-10.97c5.41-9.36,17.85-42.73,17.85-42.73l-17.41,0.44c0,0-2.05,0.44-1.46-3.51
		c0.44-3.95,12.44-30.73,12.44-30.73s2.49-2.49,4.54-2.93c2.05-0.44,1.02,4.54,1.02,4.54L421.07,359.77L421.07,359.77z"/>
	<path id="XMLID_3_" class="st0" d="M251.91,449.76l-16.68,12l7.02-18c-3.95-6.58-21.66-10.97-21.66-10.97
		c4.39-1.32,26.05-3.51,26.05-3.51c0.88-3.51,5.27-15.51,5.27-15.51s4.39,12,5.27,15.51c0,0,21.66,2.19,26.05,3.51
		c0,0-17.71,4.39-21.66,10.97l7.02,18L251.91,449.76L251.91,449.76z"/>
	<path d="M250.3,413.18c-0.15,0.44-3.66,10.1-4.98,14.49c-4.68,0.44-21.22,2.19-25.17,3.51l-6,1.76l6.15,1.46
		c4.54,1.17,16.54,4.98,20.19,9.51c-0.59,1.61-8.78,22.53-8.78,22.53s18.58-13.46,20.34-14.78c1.76,1.32,20.34,14.78,20.34,14.78
		s-8.19-20.92-8.78-22.53c3.66-4.54,15.66-8.34,20.19-9.51l6.15-1.46l-6.15-1.76c-3.95-1.17-20.63-2.93-25.17-3.51
		c-1.32-4.39-4.83-14.05-4.98-14.49l-1.61-4.54L250.3,413.18L250.3,413.18z M246.79,431.03l1.17-0.15l0.29-1.17
		c0.44-2.05,2.19-7.02,3.51-10.83c1.32,3.8,3.07,8.78,3.51,10.83l0.29,1.17l1.17,0.15c3.95,0.44,12.44,1.32,18.73,2.19
		c-5.71,2.05-13.17,5.27-15.66,9.66l-0.44,0.73c0,0,3.07,7.9,5.12,13.32c-4.83-3.51-12.88-9.36-12.88-9.36s-8.05,5.85-12.88,9.36
		c2.05-5.27,5.12-13.32,5.12-13.32l-0.44-0.73c-2.63-4.39-9.95-7.61-15.66-9.66C234.35,432.49,242.84,431.47,246.79,431.03
		L246.79,431.03z"/>
</g>
</svg>
