<?xml version="1.0" encoding="utf-8"?>
<!-- Generator: Adobe Illustrator 26.5.0, SVG Export Plug-In . SVG Version: 6.00 Build 0)  -->
<svg version="1.1" id="Layer_1" xmlns="http://www.w3.org/2000/svg" xmlns:xlink="http://www.w3.org/1999/xlink" x="0px" y="0px"
	 viewBox="0 0 512 512" style="enable-background:new 0 0 512 512;" xml:space="preserve">
<style type="text/css">
	.st0{fill:#287AC8;}
	.st1{fill:#CAD0D3;}
	.st2{fill:#F6842A;}
	.st3{fill:#BBBEC2;}
</style>
<g id="XMLID_1_">
	<path id="path20296" class="st0" d="M0,132.82h512L255,464.06L0,132.82z"/>
	<path id="path20298" class="st1" d="M255,451.54L496.21,140.5H15.36L255,451.54z"/>
	<path id="path20302" class="st0" d="M369.92,270.21l-3.13-1c0,0-66.13-18.92-116.34-20.34c-51.77-1.42-106.67,20.05-106.67,20.05
		l-3.27,1.14C111.79,282.3,103.96,286,103.96,286L96,290.26c-8.53,4.84-13.65,8.11-19.77,11.52l-52.05-52.2l66.84-146.77l33-13.23
		l3.27,7.96l5.26-14.36l21.76,9.96l4.55,9.67l24.04-6.12l3.56,17.07l3.13-18.06l26.17-3.7l2.56,11.8l1-12.23l27.88-1.28l3.27,26.17
		l0.28-12.37l13.94-13.94c0,0,22.47,1.71,28.44,2.28c5.97,0.57,28.3,3.27,28.3,3.27l2.84,15.08l2.99-14.36l24.89,5.83l3.41-8.39
		l12.52-9.53l52.05,18.49l19.2,42.1l-6.4,12.23l16.92,11.38l36.55,80.64l-52.62,54.33C413.44,290.55,390.26,278.17,369.92,270.21"/>
	<path id="path20306" class="st2" d="M417.42,105.8l15.08,33.14l-25.74-8.25l-6.83-16.64L383,108.08l9.53,26.74l54.76,36.55
		l34.99,77.23l-11.66,11.95c0,0-8.68-5.69-30.15-17.07c-18.92-9.96-40.39-17.49-40.39-17.49l-13.94-46.22l26.45,7.82l7.4,20.62
		l21.62,9.81l-13.37-33.28l-52.2-36.84l-16.21-52.48l8.96-6.97L417.42,105.8z"/>
	<path id="path20310" class="st2" d="M151.47,95.85l-13.65,45.37l-23.32,22.19l11.24,18.63l-13.23,43.38c0,0-10.52,3.56-14.08,4.84
		c-3.56,1.42-15.79,6.54-15.79,6.54l18.06-51.91l-4.41-5.12l-18.06,16.21l-20.48,51.91L39.68,259.4l-10.81-10.81L94.01,105.8
		l23.61-9.39l-22.04,55.47l24.18-20.76l15.08-42.81L151.47,95.85z"/>
	<path id="path20314" class="st2" d="M243.2,94.14l-3.7,105.39l-25.74,2.28l9.39-106.52L243.2,94.14z"/>
	<path id="path20318" class="st2" d="M292.84,95.99l2.28,18.06l-19.63-1l3.7,65.56l23.18,1.42l2.42,22.33
		c-12.8-1.28-26.31-2.7-38.83-2.56l-11.52-11.95V105.8l11.8-11.8L292.84,95.99z"/>
	<path id="path20322" class="st2" d="M211.48,96.56l-12.94,107.52l-24.75,4.69l5.55-31.57l-8.39-40.68l-16.78,76.8
		c0,0-7.11,1.56-13.08,3.13c-5.97,1.56-13.51,4.27-13.51,4.27l30.58-113.92l21.76-5.4l6.83,33.14l6.12-35.13L211.48,96.56z"/>
	<path id="path20326" class="st2" d="M332.37,101.53l20.34,4.55l7.96,29.72l-9.67,12.8l16.92,13.8L384,220.15
		c-9.53-3.27-17.92-5.55-27.16-7.82l-8.53-39.11l-9.53-7.82l-6.54,8.82l6.26,33.71c-8.82-1.99-16.78-2.99-25.17-4.27
		c-4.41-35.27-13.94-106.95-13.94-106.95l18.92,2.42l9.39,49.21l12.66-16.92L332.37,101.53z"/>
	<path id="path20394" class="st0" d="M256,213.75c57.46,0,104.11,46.65,104.11,104.11S313.46,421.96,256,421.96
		s-104.11-46.65-104.11-104.11C151.89,260.4,198.54,213.75,256,213.75"/>
	<path id="path20398" class="st2" d="M262.54,218.58c-8.25,2.84-16.21,7.11-24.04,10.67c-5.4-3.27-8.39-3.98-12.09-6.4
		C237.8,218.87,250.03,218.16,262.54,218.58"/>
	<path id="path20402" class="st2" d="M339.48,264.09c-25.32-25.46-63.15-23.61-95.29-32.57c0,0,18.92-8.96,28.73-11.52
		C299.09,224.41,324.55,240.2,339.48,264.09"/>
	<path id="path20406" class="st2" d="M197.4,267.93c-24.32,37.26-27.59,83.2-8.25,123.31c-25.03-21.05-39.82-61.58-28.73-101.12
		C169.67,277.46,181.48,266.09,197.4,267.93"/>
	<path id="path20410" class="st2" d="M223.29,294.53c13.08,38.97,15.93,81.92,49.92,121.17c-26.45,5.4-52.62-2.56-73.53-15.79
		c-25.88-37.69-23.47-94.01,2.42-130.56C214.76,272.91,221.58,289.41,223.29,294.53"/>
	<path id="path20422" class="st0" d="M240.64,80.49l-4.41,4.41l-7.54,0.43l-2.84-2.42l-3.56,2.99l-8.11,0.71l-3.56-3.41l4.69-32
		l6.26-0.85l-3.41,28.3l4.41-0.57l3.56-28.3l6.12-0.57l-2.56,28.16l4.41-0.43l2.28-28.02c2.56-0.28,3.98-0.28,6.26-0.43
		L240.64,80.49z"/>
	<path id="path20424" class="st0" d="M260.69,48.06v20.2h3.98l-0.28-20.05c0,0,4.12,0.14,5.97,0.28l0.85,22.61l-3.84,3.84h-1.28
		l0.14,9.67l-6.68-0.14l-0.14-9.67l-1.28-0.14l-4.12-4.12l0.28-22.47C256.71,47.92,260.69,48.06,260.69,48.06"/>
	<path id="path20426" class="st0" d="M210.77,51.76l-1,6.68l-7.54,1.42l-1.42,7.68c2.7-0.57,4.41-0.71,7.68-1.14
		c-0.43,2.84-0.57,3.84-1.14,6.54l-7.54,1.14l-1.42,7.4l7.68-1.14c0,0-0.71,4.98-1.14,7.25c-5.4,0.71-10.81,1.42-16.07,2.28
		c0,0,5.83-26.88,7.25-35.13L210.77,51.76z"/>
	<path id="path20428" class="st0" d="M182.61,91.15l-7.82,1.56l3.56-14.65l-2.42-5.26l-6.12,21.05l-7.68,1.71
		c3.13-11.38,6.4-22.9,9.67-34.28c2.56-0.85,4.55-1.42,6.97-2.13c0.85,1.99,2.84,5.83,2.84,5.83l1.85-7.11c0,0,4.84-1.28,7.25-1.85
		L182.61,91.15z"/>
	<path id="path20430" class="st0" d="M292.41,54.32c0.71,9.24,2.28,17.92,3.27,26.6l-3.41,5.26l-11.09-0.71l-3.98-4.41
		c-0.71-9.39-1.14-18.77-1.71-28.16c1-1.28,2.56-2.42,3.84-3.7l9.24,0.85L292.41,54.32 M282.17,55.88l1.99,21.9l3.84,0.28
		l-1.99-21.76L282.17,55.88z"/>
	<path id="path20432" class="st0" d="M328.11,57.59c1.42,5.26,4.12,16.07,4.12,16.07l2.56,0.57l1.28-1.71l-3.27-13.51
		c0,0,3.27,0.85,6.68,1.99l3.41,13.08l-1.56,2.42l2.99,3.27l4.55,15.93L341.33,94l-2.99-11.09l-4.69-1L336.21,93l-7.68-1.56
		c-2.7-11.95-7.54-35.41-7.54-35.41S325.12,56.59,328.11,57.59"/>
	<path id="path20434" class="st0" d="M316.16,58.87l2.56,13.08l-1.42,1.99l2.56,3.13l2.28,13.08l-7.4-1.28l-1.99-10.81l-4.41-0.43
		l1.56,10.52l-7.25-0.85l-4.84-35.98l14.08,2.42L316.16,58.87 M305.49,59.29l1.28,9.1l4.12,0.43l-1.71-8.96L305.49,59.29z"/>
	<path id="path20436" class="st2" d="M205.23,265.23c3.98-5.55,8.39-10.81,13.37-15.64c54.9,15.5,107.38,72.53,116.34,128.43
		c-2.56,4.27-8.96,10.1-13.08,14.36c-13.65,12.23-28.73,18.63-43.09,22.04c-25.6-26.6-34.13-61.16-43.24-95.29
		C228.41,293.11,223.72,273.34,205.23,265.23L205.23,265.23z"/>
	<path id="path20440" class="st2" d="M333.51,264.95c-26.6-23.47-63.57-20.48-94.58-31.29c-5.97,3.7-11.8,7.96-16.92,12.52
		c54.9,17.21,104.82,70.97,116.62,126.44c8.68-12.37,13.8-26.88,15.93-42.24C356.12,306.76,355.84,285.43,333.51,264.95"/>
	<path id="path20444" class="st2" d="M214.04,247.88c-5.26,5.12-9.24,10.1-13.37,15.93h-0.14c-14.51-3.27-26.03,4.27-35.27,13.65
		c4.41-11.09,13.65-24.32,23.32-32.85C197.55,244.89,204.09,244.75,214.04,247.88"/>
	<path id="path20448" class="st2" d="M217.88,244.47c5.26-4.55,10.24-8.68,16.5-12.37l-14.08-6.97
		c-9.39,3.84-19.48,8.82-26.31,15.08C204.66,241.34,209.21,242.05,217.88,244.47"/>
	<g id="XMLID_2_">
		<path id="path20354" class="st3" d="M262.97,214.89l-9.1-0.28l-0.14-22.19l9.53,9.81L262.97,214.89z"/>
		<path id="path20358" class="st3" d="M240.36,216.31c-15.79,1.71-25.03,6.68-25.03,6.68c-0.71-5.12-1.85-12.37-2.7-17.21
			c7.82-0.85,18.35-2.13,27.16-2.56L240.36,216.31z"/>
		<path id="path20362" class="st3" d="M305.64,206.35l-3.56,19.48c-4.84-2.13-10.67-4.41-16.07-5.83c-5.97-1.71-12.8-3.84-19.2-4.55
			c0.28-2.7,0.28-8.11,0.43-11.8C279.89,203.51,293.4,204.93,305.64,206.35"/>
		<path id="path20366" class="st3" d="M198.83,208.06c1.42,6.97,3.13,14.93,4.55,22.04c-7.68,4.69-14.22,10.67-21.48,16.07
			c-3.13-10.52-7.11-22.76-10.38-33C180.62,211.33,189.72,209.48,198.83,208.06"/>
		<path id="path20370" class="st3" d="M339.2,212.04l-10.52,33.56l-1.28-1c-6.4-6.26-13.08-11.24-20.34-15.36l4.55-22.04
			C320.71,208.63,330.1,210.19,339.2,212.04"/>
		<path id="path20374" class="st3" d="M385.56,224.7l-20.34,40.11l-26.31-6.68l15.93-42.38C362.81,217.3,385.56,224.7,385.56,224.7"
			/>
		<path id="path20378" class="st3" d="M170.38,256.56c-8.11,2.13-19.06,5.83-25.32,8.11c-6.97-13.37-13.65-25.74-19.48-39.54
			c9.39-2.99,19.06-5.69,30.01-8.39L170.38,256.56z"/>
		<path id="path20382" class="st3" d="M113.35,228.97c7.11,13.08,14.93,26.17,22.04,39.11c-9.24,3.98-22.9,9.81-28.16,12.37
			l-27.88-38.4C90.03,237.64,100.84,233.37,113.35,228.97"/>
		<path id="path20386" class="st3" d="M91.16,288.84c-5.12,2.99-9.67,5.55-13.94,8.11l-34.99-34.99
			c4.84-3.13,17.07-10.81,17.07-10.81L91.16,288.84z"/>
		<path id="path20390" class="st3" d="M433.21,298.65c-10.67-7.11-38.26-22.76-57.32-30.15l21.9-39.54
			c24.6,8.53,54.9,24.46,69.83,33.99C467.63,262.96,438.47,293.68,433.21,298.65"/>
	</g>
</g>
</svg>
