<?xml version="1.0" encoding="utf-8"?>
<!-- Generator: Adobe Illustrator 27.0.0, SVG Export Plug-In . SVG Version: 6.00 Build 0)  -->
<svg version="1.1" id="Layer_1" xmlns="http://www.w3.org/2000/svg" xmlns:xlink="http://www.w3.org/1999/xlink" x="0px" y="0px"
	 viewBox="0 0 512 512" style="enable-background:new 0 0 512 512;" xml:space="preserve">
<style type="text/css">
	.st0{fill:#FDB827;}
	.st1{fill:#552582;}
	.st2{clip-path:url(#SVGID_00000010305387969067382110000004093648222429846699_);fill:#552582;}
	.st3{clip-path:url(#SVGID_00000104701513791645982990000004307917201803954611_);fill:#552582;}
	.st4{clip-path:url(#SVGID_00000146460487147728317060000013238150612341110195_);fill:#552582;}
	.st5{clip-path:url(#SVGID_00000123439258262577443340000013187989733682497411_);fill:#552582;}
	.st6{clip-path:url(#SVGID_00000104676453402314015700000008710612065533428872_);fill:#552582;}
	.st7{clip-path:url(#SVGID_00000021093198737553979030000001828456584425402297_);fill:#552582;}
	.st8{clip-path:url(#SVGID_00000087404149634374904670000004977190465146390703_);fill:#552582;}
	.st9{clip-path:url(#SVGID_00000090980019824243796820000007934439124251389367_);fill:#552582;}
	.st10{clip-path:url(#SVGID_00000146471490512159724760000007167672950234204850_);fill:#552582;}
	.st11{clip-path:url(#SVGID_00000128455315309770758730000017570051853077673662_);fill:#552582;}
	.st12{clip-path:url(#SVGID_00000057123527034226180030000012386064229641459592_);fill:#552582;}
	.st13{clip-path:url(#SVGID_00000008127473659349195380000005304523278088981651_);fill:#552582;}
	.st14{fill:#231F20;}
</style>
<g id="XMLID_68_">
	<path id="XMLID_71_" class="st0" d="M241.6,411.9c84.78,0,153.62-69.84,153.62-155.9s-68.7-155.9-153.62-155.9
		c-84.78,0-153.62,69.84-153.62,155.9S156.83,411.9,241.6,411.9"/>
	<path id="XMLID_77_" class="st1" d="M311.73,271.93c-14.37,17.35-22.47,23.33-37.13,23.33c-4.98,0-7.54-1.14-6.12-3.56L285.84,257
		h6.54c7.4,0,6.4,6.26,4.41,14.65c-0.28,1.14,0.57,1.28,1.42,0.28l16.5-28.88c0.85-1.85-1.28-2.13-2.28-0.85
		c-8.25,11.24-16.93,10.38-20.48,10.38h-3.27l18.49-35.28h7.4c9.39,0.57,13.8,8.53,11.1,27.74h3.84l13.51-26.74
		c1.14-2.28-1.28-4.27-3.84-4.27h-92.17c-5.26,0-5.55,4.13-0.43,4.13c4.13,0,3.98,5.97,0.14,8.82l-39.12,31.01l7.97,36.7
		c0.57,2.7,2.42,4.13,5.41,4.13h76.24c3.13,0,4.41-1.28,5.41-2.56l13.8-23.75C318.56,268.8,314.01,268.94,311.73,271.93
		 M258.67,255.15h-6.69c-0.43,0-0.85,0.43-0.85,0.85c0,0.43,0.43,0.85,0.85,0.85h6.83c2.28,0,4.41,0.28,3.84,1.28l-17.64,33.57
		c-2.13,3.98-6.83,2.99-7.54-0.28l-8.68-45.09l30.72-23.75c2.99-2.56,8.96-6.83,11.95-6.83h6.69c4.13,0,5.55,1.85,4.55,4.41
		l-1.14,2.28c-0.71,1.28-3.13,1.42-5.26,1.42h-3.84c-0.43,0-0.85,0.43-0.85,0.85c0,0.43,0.43,0.85,0.85,0.85h3.84
		c1.71,0,3.7,0,2.99,1.28l-14.22,27.17C264.08,255,261.09,255.15,258.67,255.15"/>
	<path id="XMLID_85_" class="st1" d="M195.37,294.55c-2.13-0.14-3.41-1.42-3.84-2.84c-0.71-1.99-0.57-5.41,0.14-6.97l35.56-63.01
		c0.57-1.14,1.99-3.56,3.84-3.56c3.13,0,4.55-4.13-0.85-4.13h-28.45c-5.26,0-5.41,3.98-0.28,3.98c2.13,0,2.84,1.99,2.28,3.27
		l-7.82,14.22c-1,1.56-3.13,1.71-5.41,1.71h-6.83c-0.43,0-0.85,0.43-0.85,0.85s0.43,0.85,0.85,0.85h6.69c1.85,0,3.27,0.57,2.28,2.7
		l-26.32,47.79c-1.85,2.56-5.69,3.27-5.41-1.85l9.39-69.98c0.43-2.13-0.14-3.7-2.56-3.7H153.7c-1.71,0-2.7,0.85-3.56,1.85
		l-4.98,6.26c-0.71,0.71-2.13,0.71-3.7,0.71h-11.81c-0.43,0-0.85,0.43-0.85,0.85s0.43,0.85,0.85,0.85h9.67
		c1.71,0,3.7,0.43,2.99,1.14l-13.51,17.07c-0.43,0.43-1.71,0.57-2.56,0.57h-3.84c-0.43,0-0.85,0.43-0.85,0.85s0.43,0.85,0.85,0.85
		h3.13c1,0,1,0.43,0.57,1l-12.66,15.93c-0.71,0.57-1.99,0.71-3.13,0.71H99.07c-0.43,0-0.85,0.43-0.85,0.85
		c0,0.43,0.43,0.85,0.85,0.85h9.67c1.42,0,2.56,0.28,1.85,1.28l-18.07,22.62c-3.41,4.27-19.77,6.54-22.9,6.54l61.17-114.37
		c0.57-1.28,2.84-3.27,5.26-3.27H149c6.12,0,5.97-4.13,0.57-4.13H84.28c-5.26,0-5.55,4.13,0.57,4.13h12.09
		c3.41,0,4.55,2.13,3.7,3.84l-1.71,3.13c-0.57,1-1.42,1.42-4.69,1.42H72.9c-0.43,0-0.85,0.43-0.85,0.85s0.43,0.85,0.85,0.85h21.34
		c1.14,0,2.84,0.28,1.85,2.42l-2.99,5.55c-0.57,0.85-1.85,1.28-3.27,1.28h-9.67c-0.43,0-0.85,0.43-0.85,0.85s0.43,0.85,0.85,0.85
		h9.67c1.42,0,1.42,0.85,0.57,2.13l-6.83,12.8c-0.57,1.14-1.71,1.28-3.84,1.28h-3.84c-0.43,0-0.85,0.43-0.85,0.85
		s0.43,0.85,0.85,0.85h3.84c1.42,0,1.85,0.85,1.14,2.13l-5.69,10.53c-0.85,1.42-1.99,2.13-5.83,2.13H48.01
		c-0.43,0-0.85,0.43-0.85,0.85c0,0.43,0.43,0.85,0.85,0.85h21.34c2.42,0,3.27,1.14,2.42,2.84l-11.1,20.77c-0.71,0.85-2.42,1-5.55,1
		H33.78c-0.43,0-0.85,0.43-0.85,0.85c0,0.43,0.43,0.85,0.85,0.85h21.34c2.56,0,4.13,0.14,3.27,1.42l-6.4,11.95
		c-1.14,1.85-4.41,1.85-5.69,1.85h-6.83c-0.43,0-0.85,0.43-0.85,0.85c0,0.43,0.43,0.85,0.85,0.85h6.69c2.42,0,3.7,0.43,2.99,1.71
		l-8.53,15.93c-0.71,1.42-4.13,1.42-6.69,1.42h-33c-0.43,0-0.85,0.43-0.85,0.85c0,0.43,0.43,0.85,0.85,0.85h33
		c2.13,0,4.98,0.28,3.98,1.99l-5.41,10.24c-0.57,0.85-2.42,0.85-4.98,0.85H20.7c-0.43,0-0.85,0.43-0.85,0.85
		c0,0.43,0.43,0.85,0.85,0.85h6.69c1.56,0,3.7,0.14,2.99,1.42l-3.41,6.54c-1.14,1.56-2.13,2.99-4.84,2.99H5.33
		c-6.12,0-5.97,4.13-0.57,4.13h97.3c2.84,0,2.99-0.43,4.27-2.42l14.51-25.32h73.68C199.93,298.67,198.5,294.69,195.37,294.55
		 M137.48,287.01c-0.71,4.13-4.84,6.83-10.1,8.25l-5.41,1.28l4.41-7.97c1.14-2.13-1.42-3.41-4.27-0.28
		c-18.78,21.91-24.89,32.43-53.91,32.57h-7.82c-2.42,0-4.98-0.85-3.41-3.13l10.24-19.2h38.98c5.26,0,3.98-3.98,0.85-4.13
		c-2.13-0.14-4.27-1.28-5.97-3.84c-0.43-0.71-1.42-3.41,0.14-5.69l14.94-19.91h24.89L137.48,287.01z M143.17,261.97h-24.18
		l30.72-40.4L143.17,261.97z"/>
	<path id="XMLID_88_" class="st1" d="M512.01,274.35c-0.43-1.99-1.14-0.71-2.42,1.71c-0.43,0.71-1.71,0.85-2.99,0.85h-3.84
		c-0.43,0-0.85,0.43-0.85,0.85c0,0.43,0.43,0.85,0.85,0.85h3.84c1.42,0,1.42,1,0.85,2.42c-2.7,5.69-5.41,9.53-9.1,14.08
		c-0.57,0.71-1.99,1.28-3.27,1.28h-3.98c-0.43,0-0.85,0.43-0.85,0.85c0,0.43,0.43,0.85,0.85,0.85h3.84c1.99,0,0,1.14-0.28,1.56
		c-6.83,9.1-11.52,13.09-16.5,17.21c-0.57,0.43-3.41,0.28-5.41,0.28h-3.84c-0.43,0-0.85,0.43-0.85,0.85c0,0.43,0.43,0.85,0.85,0.85
		h3.84c2.84,0,0.71,1.71,0.28,1.99c-10.67,8.82-26.46,11.66-33.57,10.81c-23.47-2.99-28.31-20.77-30.01-27.88
		c-0.28-1.42-1.42-4.55-1.85-6.4c-0.71-3.7,9.81-4.84,12.8-2.84c4.41,2.99,14.79,5.97,22.9,5.97c7.54,0,22.9-5.41,27.31-18.35
		c4.55-13.23-6.83-27.88-11.95-33c-6.4-6.4-12.52-16.78-9.96-24.32c1.99-5.69,5.12-8.25,12.09-8.25c8.96,0,15.5,5.83,15.5,13.94
		c0,0.71-0.43,1.56-1,1.56h-3.13c-0.43,0-0.85,0.43-0.85,0.85s0.43,0.85,0.85,0.85h2.99c0.85,0,1.42,0.57,1.14,1.71
		c-0.57,2.7-0.71,4.69-1.42,7.4c-0.43,1.56,1.99,2.7,2.84,1.56l14.08-25.18c1-1.85-1.28-2.42-2.99-1.85
		c-3.84,1.28-10.1,2.28-12.38,0.71c-5.26-3.84-10.1-6.26-17.5-6.26c-12.52,0-21.34,3.13-27.03,13.37c-0.43,0.85-1.71,0.85-2.7,0.85
		h-2.56c-0.43,0-0.85,0.43-0.85,0.85s0.43,0.85,0.85,0.85h1.99c0.85,0,1.42,0.28,1,1.28c-0.43,1-0.71,1.85-1,2.84
		c-1.42,4.41-1,10.81,1.28,16.36c0.14,0.43-0.28,0.57-1.14,0.57h-3.84c-0.43,0-0.85,0.43-0.85,0.85s0.43,0.85,0.85,0.85h3.84
		c1.71,0,2.13,0.14,2.84,1.14c1.99,2.84,3.98,4.84,6.54,8.11c0.85,1-2.56,1.28-4.41,1.28h-15.22c-0.43,0-0.85,0.43-0.85,0.85
		c0,0.43,0.43,0.85,0.85,0.85h15.36c2.42,0,6.69,0,7.25,0.57c3.7,4.27,8.25,10.95,8.96,16.5c0.28,1.56-0.43,2.28-2.42,2.28h-1.99
		c-0.43,0-0.85,0.43-0.85,0.85c0,0.43,0.43,0.85,0.85,0.85h1.85c1.56,0,2.42,0.28,1.99,1.42c-1.99,6.4-4.98,10.95-17.21,10.95
		c-12.8-0.14-15.36-12.66-11.66-25.6c0.71-2.56,0-3.7-1.14-1.71l-8.96,13.94c-0.28,0.28-1.14,1.14-2.42,1.14h-1.28
		c-0.43,0-0.85,0.43-0.85,0.85c0,0.43,0.43,0.85,0.85,0.85c1.14,0,1.56,0.57,1.14,1.28l-3.27,5.12
		c-5.41-12.23-14.37-27.45-19.2-32.86l0.14-0.28c11.81-0.71,29.3-11.81,32.15-21.76c4.98-17.21-11.81-23.61-20.91-23.61h-39.97
		c-5.26,0-5.69,3.98-0.57,3.98c2.7,0,5.12,2.42,3.98,4.84l-8.82,15.93c-0.71,1.28-3.56,1.28-7.11,1.28h-3.84
		c-0.43,0-0.85,0.43-0.85,0.85s0.43,0.85,0.85,0.85h3.84c2.56,0,5.41,0.14,4.41,1.99l-10.53,18.92c-0.57,0.85-1.85,1-5.41,1h-3.84
		c-0.43,0-0.85,0.43-0.85,0.85s0.43,0.85,0.85,0.85h3.84c2.84,0,3.84,0.43,2.99,1.85l-13.94,25.32c-1.71,1.85-3.7,2.13-7.11,2.13
		c-5.12,0-5.12,3.98,0.28,3.98h34.28c5.26,0,3.98-4.13,0.85-4.13c-1.85,0-3.84-3.41-2.56-5.41l17.5-33.14h1.85
		c7.82,0,9.67,12.8,11.1,26.74c0.14,1-1.85,1-5.69,1h-9.67c-0.43,0-0.85,0.43-0.85,0.85c0,0.43,0.43,0.85,0.85,0.85h9.67
		c2.56,0,6.12,0,6.26,0.85c0.71,6.12,1.14,11.52,2.42,16.36c0.43,1.56-2.42,1.28-5.26,1.28h-12.38c-0.43,0-0.85,0.43-0.85,0.85
		c0,0.43,0.43,0.85,0.85,0.85h12.38c3.84,0,5.83,0,6.12,0.85c5.26,19.49,28.16,34.99,50.5,34.14c19.06-0.71,35.28-11.1,43.38-17.78
		c10.95-8.82,27.17-27.31,33.71-40.68C510.45,279.75,512.44,276.63,512.01,274.35 M383.71,248.32c-2.7,2.13-6.83,4.69-7.68,3.98
		c-1.14-1.14-4.69-3.56-6.54-4.41l15.93-29.02c0.71-1,1.42-1.56,3.13-1.56c6.12,0,8.25,6.69,5.26,15.08
		C391.67,238.08,388.4,244.48,383.71,248.32"/>
	<path id="XMLID_89_" class="st1" d="M190.68,188.01c-3.27,4.13-7.54,5.26-12.23,5.26h-1.28l8.39-16.64
		c0.43-0.71,1.28-1.42,2.42-1.42c1,0,0.85-2.13-0.43-2.13h-13.23c-1.14,0-1.56,2.13-0.43,2.13c1.14,0,1.28,1.28,0.85,2.28
		l-7.54,14.94c-0.57,0.85-1.28,1-2.28,1.28c-1.14,0.28-1.85,2.28-0.57,2.28h21.19c1.71,0,1.99-0.57,2.42-1.14l4.27-6.54
		C192.53,187.44,191.25,187.3,190.68,188.01"/>
	<path id="XMLID_90_" class="st1" d="M254.55,173.78c-0.71,0.43-2.13,0.57-2.84,0c-1.71-1.42-4.98-2.42-6.83-2.42
		c-4.98,0-8.68,1-10.81,5.69c-1.85,3.98,0,7.4,4.41,9.39c1.85,0.85,4.41,1.99,3.41,4.27c-0.71,1.71-2.7,1.85-4.41,1.85
		c-2.42,0-5.97-1.85-6.54-5.12c-0.14-1.14-1.42-0.85-1.85-0.28l-2.99,5.97c-0.43,0.85,0.71,1.71,1.28,1.14
		c1-1.14,3.27-1.42,4.27-0.57c1.56,1,5.41,2.7,7.68,2.7c5.12,0,8.39-1.28,11.24-5.69c2.56-3.98,1-7.97-3.7-10.1
		c-2.42-1.14-4.55-3.13-3.41-5.41c0.71-1.42,2.84-1.14,3.98-1c2.13,0.28,4.69,2.28,4.98,3.98c0.14,0.71,1,0.85,1.42,0.28l1.56-3.7
		C256.11,174.07,254.97,173.5,254.55,173.78"/>
	<path id="XMLID_91_" class="st1" d="M401.77,179.76l1.85-3.41c0.85-1.56-0.57-3.27-2.56-3.27h-24.75c-1.85,0-1.28,1.85-0.57,1.85
		c1.56,0,2.13,1.99,1.14,3.56l-7.4,13.66c-1.14,1.28-1.85,1.85-3.41,1.85c-1.28,0-1.71,1.85,0,1.85h25.04c1,0,1.42-0.43,1.85-0.85
		l3.41-4.55c0.85-1.14-1-1.14-1.56-0.57c-4.27,4.27-8.96,4.27-12.38,4.27h-2.99l3.41-7.68h0.71c2.13,0,4.69,0,5.41,1.71
		c0.14,0.43,1.28,0.71,1.71,0l2.99-5.83c0.43-0.85-0.85-1-1.14-0.43c-1.14,2.13-6.26,1.56-7.54,1.56h-0.71l4.27-8.39h4.84
		c2.99,0,5.55,2.13,6.4,4.41C399.92,179.9,401.49,180.33,401.77,179.76"/>
	<path id="XMLID_94_" class="st1" d="M338.47,173.07h-8.82c-1.85,0-1.28,1.85-0.57,1.85c1.85,0,3.56,2.28,2.56,4.27l-3.7,6.69
		l-8.11-11.81c-0.57-0.71-1.85-1.14-2.84-1.14h-8.68c-1.85,0-1.42,1.85-0.71,1.85c1.85,0,1.42,1.42,0.85,2.42l-6.97,13.37
		c-0.43,1-2.28,1.28-2.84-0.14l-5.41-17.5c-0.28-0.71-3.41-0.71-4.13,0l-13.37,11.1h-6.97c-1.42,0-1.85,0.57-1.85,1.28
		s0.57,1.42,1.99,1.42h3.7l-3.7,2.99c-1.99,1.42-4.13,3.56-5.41,3.56h-0.85c-1.28,0-2.13,0.28-2.13,1.28s0.57,1.42,1.85,1.42h10.81
		c1.99,0,1.71-2.7,0.57-2.7s-2.99-1.42-1.28-3.41l3.27-3.13h6.54c3.84,0,6.54,4.41,4.27,5.83l-1.71,1c-0.85,0.43-1.14,2.42,0,2.42
		h21.19c1.56,0,1.28-2.13,0.57-2.13c-2.13,0-1.14-3.13-0.71-3.98l5.55-10.53l7.82,15.08c0.57,1,1,1.42,1.85,1.42h2.99
		c1,0,1.28-0.57,1.71-1.28l8.82-16.07c1.42-2.84,2.56-3.7,4.27-3.7C339.75,174.92,340.18,173.07,338.47,173.07 M279.3,184.02
		l8.25-6.69v6.69H279.3z"/>
	<path id="XMLID_97_" class="st1" d="M213.15,172.07c-7.4,0-15.08,3.7-16.64,11.52c-1.28,6.83,3.41,13.8,11.66,13.8
		c7.97,0,15.22-5.12,16.64-12.66C226.38,177.2,220.84,172.07,213.15,172.07 M215.29,186.44c-2.42,4.69-6.26,7.54-8.82,6.26
		c-2.56-1.28-2.56-6.12-0.28-10.81c2.28-4.69,6.26-7.54,8.82-6.26C217.56,176.91,217.71,181.75,215.29,186.44"/>
	<path id="XMLID_98_" class="st1" d="M363.51,183.45h-9.53c-1.85,0-1.28,1.85-0.57,1.85c0.71,0,1.42,0.43,1.42,1.56
		c0,3.84-1.56,5.41-4.98,5.41c-3.7,0-4.98-4.41-2.56-9.81c1.56-3.41,5.69-6.69,10.67-6.69c2.99,0,5.55,0.71,5.97,3.41
		c0.14,0.71,1.14,0.71,1.42,0l2.28-4.13c0.28-0.43-0.14-1-0.85-1c-0.57,0-1.85,0.71-2.7,0.14c-1.85-1.42-6.12-2.84-9.25-2.84
		c-5.12,0-12.23,1.14-17.07,9.53c-4.41,7.54,1.99,15.65,7.97,15.65c3.27,0,7.11-2.42,9.25-3.27l2.42,1.71c0.28,0.43,1.14,1,1.85,1
		h0.85c0.85,0,1.14-1.14,1.56-1.85l3.7-9.1C365.93,184.17,365.64,183.45,363.51,183.45"/>
	<path id="XMLID_99_" class="st1" d="M494.37,173.78c-0.57,0.43-2.13,0.57-2.84,0c-1.71-1.42-4.98-2.42-6.83-2.42
		c-4.98,0-8.68,1-10.81,5.69c-1.85,3.98,0,7.4,4.41,9.39c1.99,0.85,4.41,1.99,3.56,4.27c-0.71,1.71-2.7,1.85-4.41,1.85
		c-2.42,0-5.97-1.85-6.54-5.12c-0.14-1.14-1.42-0.85-1.85-0.28l-2.99,5.97c-0.43,0.85,0.71,1.71,1.28,1.14
		c1-1.14,3.27-1.42,4.41-0.57c1.56,1,5.41,2.7,7.68,2.7c5.12,0,8.39-1.28,11.24-5.69c2.56-3.98,1-7.97-3.7-10.1
		c-2.42-1.14-4.55-3.13-3.41-5.41c0.71-1.42,2.84-1.14,3.98-1c1.99,0.28,4.69,2.28,4.98,3.98c0.14,0.71,1,0.85,1.42,0.28l1.56-3.7
		C495.94,174.07,494.8,173.5,494.37,173.78"/>
	<path id="XMLID_100_" class="st1" d="M427.94,188.01c-3.27,4.13-7.54,5.26-12.23,5.26h-1.28l8.39-16.64
		c0.43-0.71,1.28-1.42,2.42-1.42c1,0,1-2.13-0.43-2.13h-13.23c-1.14,0-1.56,2.13-0.43,2.13c1.14,0,1.28,1.28,0.85,2.28l-7.54,14.94
		c-0.57,0.85-1.28,1-2.28,1.28c-1.14,0.28-1.85,2.28-0.57,2.28h21.19c1.71,0,1.99-0.57,2.42-1.14l4.27-6.54
		C429.94,187.44,428.66,187.3,427.94,188.01"/>
	<path id="XMLID_101_" class="st1" d="M459.95,175.06c2.99,0,5.55,2.13,6.4,4.41c0.14,0.57,1.71,1,2.13,0.28l1.85-3.41
		c0.85-1.56-0.57-3.27-2.7-3.27h-24.75c-1.85,0-1.28,1.85-0.57,1.85c1.56,0,2.13,1.99,1.14,3.56l-7.4,13.66
		c-1.14,1.28-1.85,1.85-3.41,1.85c-1.28,0-1.71,1.85,0,1.85h25.04c1,0,1.42-0.43,1.85-0.85l3.41-4.55c0.85-1.14-1-1.14-1.56-0.57
		c-4.27,4.27-8.96,4.27-12.38,4.27h-2.99l3.41-7.68h0.71c2.28,0,4.69,0,5.41,1.71c0.14,0.43,1.28,0.71,1.71,0l2.99-5.83
		c0.43-0.85-0.85-1-1.14-0.43c-1.14,2.13-6.26,1.56-7.54,1.56h-0.71l4.27-8.39L459.95,175.06L459.95,175.06z"/>
	<g id="XMLID_104_">
		<g>
			<defs>
				<path id="SVGID_1_" d="M241.6,411.9c84.78,0,153.62-69.84,153.62-155.9s-68.7-155.9-153.62-155.9
					c-84.78,0-153.62,69.84-153.62,155.9S156.83,411.9,241.6,411.9"/>
			</defs>
			<clipPath id="SVGID_00000020392470470314312170000002976314933887666055_">
				<use xlink:href="#SVGID_1_"  style="overflow:visible;"/>
			</clipPath>
			<path id="XMLID_107_" style="clip-path:url(#SVGID_00000020392470470314312170000002976314933887666055_);fill:#552582;" d="
				M311.73,271.93c-14.37,17.35-22.47,23.33-37.13,23.33c-4.98,0-7.54-1.14-6.12-3.56L285.84,257h6.54c7.4,0,6.4,6.26,4.41,14.65
				c-0.28,1.14,0.57,1.28,1.42,0.28l16.5-28.88c0.85-1.85-1.28-2.13-2.28-0.85c-8.25,11.24-16.93,10.38-20.48,10.38h-3.27
				l18.49-35.28h7.4c9.39,0.57,13.8,8.53,11.1,27.74h3.84l13.51-26.74c1.14-2.28-1.28-4.27-3.84-4.27h-92.17
				c-5.26,0-5.55,4.13-0.43,4.13c4.13,0,3.98,5.97,0.14,8.82l-39.12,31.01l7.97,36.7c0.57,2.7,2.42,4.13,5.41,4.13h76.24
				c3.13,0,4.41-1.28,5.41-2.56l13.8-23.75C318.56,268.8,314.01,268.94,311.73,271.93 M258.67,255.15h-6.69
				c-0.43,0-0.85,0.43-0.85,0.85c0,0.43,0.43,0.85,0.85,0.85h6.83c2.28,0,4.41,0.28,3.84,1.28l-17.64,33.57
				c-2.13,3.98-6.83,2.99-7.54-0.28l-8.68-45.09l30.72-23.75c2.99-2.56,8.96-6.83,11.95-6.83h6.69c4.13,0,5.55,1.85,4.55,4.41
				l-1.14,2.28c-0.71,1.28-3.13,1.42-5.26,1.42h-3.84c-0.43,0-0.85,0.43-0.85,0.85c0,0.43,0.43,0.85,0.85,0.85h3.84
				c1.71,0,3.7,0,2.99,1.28l-14.22,27.17C264.08,255,261.09,255.15,258.67,255.15"/>
		</g>
	</g>
	<g id="XMLID_109_">
		<g>
			<defs>
				<path id="SVGID_00000028321058128656133720000001597615746731053716_" d="M241.6,411.9c84.78,0,153.62-69.84,153.62-155.9
					s-68.7-155.9-153.62-155.9c-84.78,0-153.62,69.84-153.62,155.9S156.83,411.9,241.6,411.9"/>
			</defs>
			<clipPath id="SVGID_00000128445987573929317670000010151905482401147268_">
				<use xlink:href="#SVGID_00000028321058128656133720000001597615746731053716_"  style="overflow:visible;"/>
			</clipPath>
			<path id="XMLID_113_" style="clip-path:url(#SVGID_00000128445987573929317670000010151905482401147268_);fill:#552582;" d="
				M195.37,294.55c-2.13-0.14-3.41-1.42-3.84-2.84c-0.71-1.99-0.57-5.41,0.14-6.97l35.56-63.01c0.57-1.14,1.99-3.56,3.84-3.56
				c3.13,0,4.55-4.13-0.85-4.13h-28.45c-5.26,0-5.41,3.98-0.28,3.98c2.13,0,2.84,1.99,2.28,3.27l-7.82,14.22
				c-1,1.56-3.13,1.71-5.41,1.71h-6.83c-0.43,0-0.85,0.43-0.85,0.85s0.43,0.85,0.85,0.85h6.69c1.85,0,3.27,0.57,2.28,2.7
				l-26.32,47.79c-1.85,2.56-5.69,3.27-5.41-1.85l9.39-69.98c0.43-2.13-0.14-3.7-2.56-3.7H153.7c-1.71,0-2.7,0.85-3.56,1.85
				l-4.98,6.26c-0.71,0.71-2.13,0.71-3.7,0.71h-11.81c-0.43,0-0.85,0.43-0.85,0.85s0.43,0.85,0.85,0.85h9.67
				c1.71,0,3.7,0.43,2.99,1.14l-13.51,17.07c-0.43,0.43-1.71,0.57-2.56,0.57h-3.84c-0.43,0-0.85,0.43-0.85,0.85s0.43,0.85,0.85,0.85
				h3.13c1,0,1,0.43,0.57,1l-12.66,15.93c-0.71,0.57-1.99,0.71-3.13,0.71H99.07c-0.43,0-0.85,0.43-0.85,0.85
				c0,0.43,0.43,0.85,0.85,0.85h9.67c1.42,0,2.56,0.28,1.85,1.28l-18.07,22.62c-3.41,4.27-19.77,6.54-22.9,6.54l61.17-114.37
				c0.57-1.28,2.84-3.27,5.26-3.27H149c6.12,0,5.97-4.13,0.57-4.13H84.28c-5.26,0-5.55,4.13,0.57,4.13h12.09
				c3.41,0,4.55,2.13,3.7,3.84l-1.71,3.13c-0.57,1-1.42,1.42-4.69,1.42H72.9c-0.43,0-0.85,0.43-0.85,0.85s0.43,0.85,0.85,0.85h21.34
				c1.14,0,2.84,0.28,1.85,2.42l-2.99,5.55c-0.57,0.85-1.85,1.28-3.27,1.28h-9.67c-0.43,0-0.85,0.43-0.85,0.85s0.43,0.85,0.85,0.85
				h9.67c1.42,0,1.42,0.85,0.57,2.13l-6.83,12.8c-0.57,1.14-1.71,1.28-3.84,1.28h-3.84c-0.43,0-0.85,0.43-0.85,0.85
				s0.43,0.85,0.85,0.85h3.84c1.42,0,1.85,0.85,1.14,2.13l-5.69,10.53c-0.85,1.42-1.99,2.13-5.83,2.13H48.01
				c-0.43,0-0.85,0.43-0.85,0.85c0,0.43,0.43,0.85,0.85,0.85h21.34c2.42,0,3.27,1.14,2.42,2.84l-11.1,20.77
				c-0.71,0.85-2.42,1-5.55,1H33.78c-0.43,0-0.85,0.43-0.85,0.85c0,0.43,0.43,0.85,0.85,0.85h21.34c2.56,0,4.13,0.14,3.27,1.42
				l-6.4,11.95c-1.14,1.85-4.41,1.85-5.69,1.85h-6.83c-0.43,0-0.85,0.43-0.85,0.85c0,0.43,0.43,0.85,0.85,0.85h6.69
				c2.42,0,3.7,0.43,2.99,1.71l-8.53,15.93c-0.71,1.42-4.13,1.42-6.69,1.42h-33c-0.43,0-0.85,0.43-0.85,0.85
				c0,0.43,0.43,0.85,0.85,0.85h33c2.13,0,4.98,0.28,3.98,1.99l-5.41,10.24c-0.57,0.85-2.42,0.85-4.98,0.85H20.7
				c-0.43,0-0.85,0.43-0.85,0.85c0,0.43,0.43,0.85,0.85,0.85h6.69c1.56,0,3.7,0.14,2.99,1.42l-3.41,6.54
				c-1.14,1.56-2.13,2.99-4.84,2.99H5.33c-6.12,0-5.97,4.13-0.57,4.13h97.3c2.84,0,2.99-0.43,4.27-2.42l14.51-25.32h73.68
				C199.93,298.67,198.5,294.69,195.37,294.55 M137.48,287.01c-0.71,4.13-4.84,6.83-10.1,8.25l-5.41,1.28l4.41-7.97
				c1.14-2.13-1.42-3.41-4.27-0.28c-18.78,21.91-24.89,32.43-53.91,32.57h-7.82c-2.42,0-4.98-0.85-3.41-3.13l10.24-19.2h38.98
				c5.26,0,3.98-3.98,0.85-4.13c-2.13-0.14-4.27-1.28-5.97-3.84c-0.43-0.71-1.42-3.41,0.14-5.69l14.94-19.91h24.89L137.48,287.01z
				 M143.17,261.97h-24.18l30.72-40.4L143.17,261.97z"/>
		</g>
	</g>
	<g id="XMLID_115_">
		<g>
			<defs>
				<path id="SVGID_00000062164685315147255410000001834556542087011753_" d="M241.6,411.9c84.78,0,153.62-69.84,153.62-155.9
					s-68.7-155.9-153.62-155.9c-84.78,0-153.62,69.84-153.62,155.9S156.83,411.9,241.6,411.9"/>
			</defs>
			<clipPath id="SVGID_00000031903352661449679880000013422540183456629888_">
				<use xlink:href="#SVGID_00000062164685315147255410000001834556542087011753_"  style="overflow:visible;"/>
			</clipPath>
			<path id="XMLID_118_" style="clip-path:url(#SVGID_00000031903352661449679880000013422540183456629888_);fill:#552582;" d="
				M512.01,274.35c-0.43-1.99-1.14-0.71-2.42,1.71c-0.43,0.71-1.71,0.85-2.99,0.85h-3.84c-0.43,0-0.85,0.43-0.85,0.85
				c0,0.43,0.43,0.85,0.85,0.85h3.84c1.42,0,1.42,1,0.85,2.42c-2.7,5.69-5.41,9.53-9.1,14.08c-0.57,0.71-1.99,1.28-3.27,1.28h-3.98
				c-0.43,0-0.85,0.43-0.85,0.85c0,0.43,0.43,0.85,0.85,0.85h3.84c1.99,0,0,1.14-0.28,1.56c-6.83,9.1-11.52,13.09-16.5,17.21
				c-0.57,0.43-3.41,0.28-5.41,0.28h-3.84c-0.43,0-0.85,0.43-0.85,0.85c0,0.43,0.43,0.85,0.85,0.85h3.84c2.84,0,0.71,1.71,0.28,1.99
				c-10.67,8.82-26.46,11.66-33.57,10.81c-23.47-2.99-28.31-20.77-30.01-27.88c-0.28-1.42-1.42-4.55-1.85-6.4
				c-0.71-3.7,9.81-4.84,12.8-2.84c4.41,2.99,14.79,5.97,22.9,5.97c7.54,0,22.9-5.41,27.31-18.35c4.55-13.23-6.83-27.88-11.95-33
				c-6.4-6.4-12.52-16.78-9.96-24.32c1.99-5.69,5.12-8.25,12.09-8.25c8.96,0,15.5,5.83,15.5,13.94c0,0.71-0.43,1.56-1,1.56h-3.13
				c-0.43,0-0.85,0.43-0.85,0.85s0.43,0.85,0.85,0.85h2.99c0.85,0,1.42,0.57,1.14,1.71c-0.57,2.7-0.71,4.69-1.42,7.4
				c-0.43,1.56,1.99,2.7,2.84,1.56l14.08-25.18c1-1.85-1.28-2.42-2.99-1.85c-3.84,1.28-10.1,2.28-12.38,0.71
				c-5.26-3.84-10.1-6.26-17.5-6.26c-12.52,0-21.34,3.13-27.03,13.37c-0.43,0.85-1.71,0.85-2.7,0.85h-2.56
				c-0.43,0-0.85,0.43-0.85,0.85s0.43,0.85,0.85,0.85h1.99c0.85,0,1.42,0.28,1,1.28c-0.43,1-0.71,1.85-1,2.84
				c-1.42,4.41-1,10.81,1.28,16.36c0.14,0.43-0.28,0.57-1.14,0.57h-3.84c-0.43,0-0.85,0.43-0.85,0.85s0.43,0.85,0.85,0.85h3.84
				c1.71,0,2.13,0.14,2.84,1.14c1.99,2.84,3.98,4.84,6.54,8.11c0.85,1-2.56,1.28-4.41,1.28h-15.22c-0.43,0-0.85,0.43-0.85,0.85
				c0,0.43,0.43,0.85,0.85,0.85h15.36c2.42,0,6.69,0,7.25,0.57c3.7,4.27,8.25,10.95,8.96,16.5c0.28,1.56-0.43,2.28-2.42,2.28h-1.99
				c-0.43,0-0.85,0.43-0.85,0.85c0,0.43,0.43,0.85,0.85,0.85h1.85c1.56,0,2.42,0.28,1.99,1.42c-1.99,6.4-4.98,10.95-17.21,10.95
				c-12.8-0.14-15.36-12.66-11.66-25.6c0.71-2.56,0-3.7-1.14-1.71l-8.96,13.94c-0.28,0.28-1.14,1.14-2.42,1.14h-1.28
				c-0.43,0-0.85,0.43-0.85,0.85c0,0.43,0.43,0.85,0.85,0.85c1.14,0,1.56,0.57,1.14,1.28l-3.27,5.12
				c-5.41-12.23-14.37-27.45-19.2-32.86l0.14-0.28c11.81-0.71,29.3-11.81,32.15-21.76c4.98-17.21-11.81-23.61-20.91-23.61h-39.97
				c-5.26,0-5.69,3.98-0.57,3.98c2.7,0,5.12,2.42,3.98,4.84l-8.82,15.93c-0.71,1.28-3.56,1.28-7.11,1.28h-3.84
				c-0.43,0-0.85,0.43-0.85,0.85s0.43,0.85,0.85,0.85h3.84c2.56,0,5.41,0.14,4.41,1.99l-10.53,18.92c-0.57,0.85-1.85,1-5.41,1h-3.84
				c-0.43,0-0.85,0.43-0.85,0.85s0.43,0.85,0.85,0.85h3.84c2.84,0,3.84,0.43,2.99,1.85l-13.94,25.32c-1.71,1.85-3.7,2.13-7.11,2.13
				c-5.12,0-5.12,3.98,0.28,3.98h34.28c5.26,0,3.98-4.13,0.85-4.13c-1.85,0-3.84-3.41-2.56-5.41l17.5-33.14h1.85
				c7.82,0,9.67,12.8,11.1,26.74c0.14,1-1.85,1-5.69,1h-9.67c-0.43,0-0.85,0.43-0.85,0.85c0,0.43,0.43,0.85,0.85,0.85h9.67
				c2.56,0,6.12,0,6.26,0.85c0.71,6.12,1.14,11.52,2.42,16.36c0.43,1.56-2.42,1.28-5.26,1.28h-12.38c-0.43,0-0.85,0.43-0.85,0.85
				c0,0.43,0.43,0.85,0.85,0.85h12.38c3.84,0,5.83,0,6.12,0.85c5.26,19.49,28.16,34.99,50.5,34.14
				c19.06-0.71,35.28-11.1,43.38-17.78c10.95-8.82,27.17-27.31,33.71-40.68C510.45,279.75,512.44,276.63,512.01,274.35
				 M383.71,248.32c-2.7,2.13-6.83,4.69-7.68,3.98c-1.14-1.14-4.69-3.56-6.54-4.41l15.93-29.02c0.71-1,1.42-1.56,3.13-1.56
				c6.12,0,8.25,6.69,5.26,15.08C391.67,238.08,388.4,244.48,383.71,248.32"/>
		</g>
	</g>
	<g id="XMLID_120_">
		<g>
			<defs>
				<path id="SVGID_00000101820075424802262410000013628519601029116340_" d="M241.6,411.9c84.78,0,153.62-69.84,153.62-155.9
					s-68.7-155.9-153.62-155.9c-84.78,0-153.62,69.84-153.62,155.9S156.83,411.9,241.6,411.9"/>
			</defs>
			<clipPath id="SVGID_00000093895681961073785480000010692117382064127360_">
				<use xlink:href="#SVGID_00000101820075424802262410000013628519601029116340_"  style="overflow:visible;"/>
			</clipPath>
			<path id="XMLID_121_" style="clip-path:url(#SVGID_00000093895681961073785480000010692117382064127360_);fill:#552582;" d="
				M190.68,188.01c-3.27,4.13-7.54,5.26-12.23,5.26h-1.28l8.39-16.64c0.43-0.71,1.28-1.42,2.42-1.42c1,0,0.85-2.13-0.43-2.13h-13.23
				c-1.14,0-1.56,2.13-0.43,2.13c1.14,0,1.28,1.28,0.85,2.28l-7.54,14.94c-0.57,0.85-1.28,1-2.28,1.28
				c-1.14,0.28-1.85,2.28-0.57,2.28h21.19c1.71,0,1.99-0.57,2.42-1.14l4.27-6.54C192.53,187.44,191.25,187.3,190.68,188.01"/>
		</g>
	</g>
	<g id="XMLID_123_">
		<g>
			<defs>
				<path id="SVGID_00000062178025227047984830000011776505709329445271_" d="M241.6,411.9c84.78,0,153.62-69.84,153.62-155.9
					s-68.7-155.9-153.62-155.9c-84.78,0-153.62,69.84-153.62,155.9S156.83,411.9,241.6,411.9"/>
			</defs>
			<clipPath id="SVGID_00000157267452885908537410000001840970291123507620_">
				<use xlink:href="#SVGID_00000062178025227047984830000011776505709329445271_"  style="overflow:visible;"/>
			</clipPath>
			<path id="XMLID_124_" style="clip-path:url(#SVGID_00000157267452885908537410000001840970291123507620_);fill:#552582;" d="
				M254.55,173.78c-0.71,0.43-2.13,0.57-2.84,0c-1.71-1.42-4.98-2.42-6.83-2.42c-4.98,0-8.68,1-10.81,5.69
				c-1.85,3.98,0,7.4,4.41,9.39c1.85,0.85,4.41,1.99,3.41,4.27c-0.71,1.71-2.7,1.85-4.41,1.85c-2.42,0-5.97-1.85-6.54-5.12
				c-0.14-1.14-1.42-0.85-1.85-0.28l-2.99,5.97c-0.43,0.85,0.71,1.71,1.28,1.14c1-1.14,3.27-1.42,4.27-0.57
				c1.56,1,5.41,2.7,7.68,2.7c5.12,0,8.39-1.28,11.24-5.69c2.56-3.98,1-7.97-3.7-10.1c-2.42-1.14-4.55-3.13-3.41-5.41
				c0.71-1.42,2.84-1.14,3.98-1c2.13,0.28,4.69,2.28,4.98,3.98c0.14,0.71,1,0.85,1.42,0.28l1.56-3.7
				C256.11,174.07,254.97,173.5,254.55,173.78"/>
		</g>
	</g>
	<g id="XMLID_126_">
		<g>
			<defs>
				<path id="SVGID_00000069360065002261063380000017007153472048284801_" d="M241.6,411.9c84.78,0,153.62-69.84,153.62-155.9
					s-68.7-155.9-153.62-155.9c-84.78,0-153.62,69.84-153.62,155.9S156.83,411.9,241.6,411.9"/>
			</defs>
			<clipPath id="SVGID_00000095330058714557716410000001737629412190967448_">
				<use xlink:href="#SVGID_00000069360065002261063380000017007153472048284801_"  style="overflow:visible;"/>
			</clipPath>
			<path id="XMLID_127_" style="clip-path:url(#SVGID_00000095330058714557716410000001737629412190967448_);fill:#552582;" d="
				M401.77,179.76l1.85-3.41c0.85-1.56-0.57-3.27-2.56-3.27h-24.75c-1.85,0-1.28,1.85-0.57,1.85c1.56,0,2.13,1.99,1.14,3.56
				l-7.4,13.66c-1.14,1.28-1.85,1.85-3.41,1.85c-1.28,0-1.71,1.85,0,1.85h25.04c1,0,1.42-0.43,1.85-0.85l3.41-4.55
				c0.85-1.14-1-1.14-1.56-0.57c-4.27,4.27-8.96,4.27-12.38,4.27h-2.99l3.41-7.68h0.71c2.13,0,4.69,0,5.41,1.71
				c0.14,0.43,1.28,0.71,1.71,0l2.99-5.83c0.43-0.85-0.85-1-1.14-0.43c-1.14,2.13-6.26,1.56-7.54,1.56h-0.71l4.27-8.39h4.84
				c2.99,0,5.55,2.13,6.4,4.41C399.92,179.9,401.49,180.33,401.77,179.76"/>
		</g>
	</g>
	<g id="XMLID_129_">
		<g>
			<defs>
				<path id="SVGID_00000154416796752055027060000008036042644782215563_" d="M241.6,411.9c84.78,0,153.62-69.84,153.62-155.9
					s-68.7-155.9-153.62-155.9c-84.78,0-153.62,69.84-153.62,155.9S156.83,411.9,241.6,411.9"/>
			</defs>
			<clipPath id="SVGID_00000019643517130549092050000008754312296219965103_">
				<use xlink:href="#SVGID_00000154416796752055027060000008036042644782215563_"  style="overflow:visible;"/>
			</clipPath>
			<path id="XMLID_132_" style="clip-path:url(#SVGID_00000019643517130549092050000008754312296219965103_);fill:#552582;" d="
				M338.47,173.07h-8.82c-1.85,0-1.28,1.85-0.57,1.85c1.85,0,3.56,2.28,2.56,4.27l-3.7,6.69l-8.11-11.81
				c-0.57-0.71-1.85-1.14-2.84-1.14h-8.68c-1.85,0-1.42,1.85-0.71,1.85c1.85,0,1.42,1.42,0.85,2.42l-6.97,13.37
				c-0.43,1-2.28,1.28-2.84-0.14l-5.41-17.5c-0.28-0.71-3.41-0.71-4.13,0l-13.37,11.1h-6.97c-1.42,0-1.85,0.57-1.85,1.28
				s0.57,1.42,1.99,1.42h3.7l-3.7,2.99c-1.99,1.42-4.13,3.56-5.41,3.56h-0.85c-1.28,0-2.13,0.28-2.13,1.28s0.57,1.42,1.85,1.42
				h10.81c1.99,0,1.71-2.7,0.57-2.7s-2.99-1.42-1.28-3.41l3.27-3.13h6.54c3.84,0,6.54,4.41,4.27,5.83l-1.71,1
				c-0.85,0.43-1.14,2.42,0,2.42h21.19c1.56,0,1.28-2.13,0.57-2.13c-2.13,0-1.14-3.13-0.71-3.98l5.55-10.53l7.82,15.08
				c0.57,1,1,1.42,1.85,1.42h2.99c1,0,1.28-0.57,1.71-1.28l8.82-16.07c1.42-2.84,2.56-3.7,4.27-3.7
				C339.75,174.92,340.18,173.07,338.47,173.07 M279.3,184.02l8.25-6.69v6.69H279.3z"/>
		</g>
	</g>
	<g id="XMLID_134_">
		<g>
			<defs>
				<path id="SVGID_00000052078510422703295340000014932182259898202269_" d="M241.6,411.9c84.78,0,153.62-69.84,153.62-155.9
					s-68.7-155.9-153.62-155.9c-84.78,0-153.62,69.84-153.62,155.9S156.83,411.9,241.6,411.9"/>
			</defs>
			<clipPath id="SVGID_00000170973776041403496090000015454153160598012861_">
				<use xlink:href="#SVGID_00000052078510422703295340000014932182259898202269_"  style="overflow:visible;"/>
			</clipPath>
			<path id="XMLID_137_" style="clip-path:url(#SVGID_00000170973776041403496090000015454153160598012861_);fill:#552582;" d="
				M213.15,172.07c-7.4,0-15.08,3.7-16.64,11.52c-1.28,6.83,3.41,13.8,11.66,13.8c7.97,0,15.22-5.12,16.64-12.66
				C226.38,177.2,220.84,172.07,213.15,172.07 M215.29,186.44c-2.42,4.69-6.26,7.54-8.82,6.26c-2.56-1.28-2.56-6.12-0.28-10.81
				c2.28-4.69,6.26-7.54,8.82-6.26C217.56,176.91,217.71,181.75,215.29,186.44"/>
		</g>
	</g>
	<g id="XMLID_139_">
		<g>
			<defs>
				<path id="SVGID_00000094597506647832507160000005291511992281326231_" d="M241.6,411.9c84.78,0,153.62-69.84,153.62-155.9
					s-68.7-155.9-153.62-155.9c-84.78,0-153.62,69.84-153.62,155.9S156.83,411.9,241.6,411.9"/>
			</defs>
			<clipPath id="SVGID_00000152225082291224119740000007081036681525435533_">
				<use xlink:href="#SVGID_00000094597506647832507160000005291511992281326231_"  style="overflow:visible;"/>
			</clipPath>
			<path id="XMLID_140_" style="clip-path:url(#SVGID_00000152225082291224119740000007081036681525435533_);fill:#552582;" d="
				M363.51,183.45h-9.53c-1.85,0-1.28,1.85-0.57,1.85c0.71,0,1.42,0.43,1.42,1.56c0,3.84-1.56,5.41-4.98,5.41
				c-3.7,0-4.98-4.41-2.56-9.81c1.56-3.41,5.69-6.69,10.67-6.69c2.99,0,5.55,0.71,5.97,3.41c0.14,0.71,1.14,0.71,1.42,0l2.28-4.13
				c0.28-0.43-0.14-1-0.85-1c-0.57,0-1.85,0.71-2.7,0.14c-1.85-1.42-6.12-2.84-9.25-2.84c-5.12,0-12.23,1.14-17.07,9.53
				c-4.41,7.54,1.99,15.65,7.97,15.65c3.27,0,7.11-2.42,9.25-3.27l2.42,1.71c0.28,0.43,1.14,1,1.85,1h0.85
				c0.85,0,1.14-1.14,1.56-1.85l3.7-9.1C365.93,184.17,365.64,183.45,363.51,183.45"/>
		</g>
	</g>
	<g id="XMLID_142_">
		<g>
			<defs>
				<path id="SVGID_00000082356668152706608410000005183788371209708723_" d="M241.6,411.9c84.78,0,153.62-69.84,153.62-155.9
					s-68.7-155.9-153.62-155.9c-84.78,0-153.62,69.84-153.62,155.9S156.83,411.9,241.6,411.9"/>
			</defs>
			<clipPath id="SVGID_00000074423934761549895490000011325433926872128898_">
				<use xlink:href="#SVGID_00000082356668152706608410000005183788371209708723_"  style="overflow:visible;"/>
			</clipPath>
			<path id="XMLID_143_" style="clip-path:url(#SVGID_00000074423934761549895490000011325433926872128898_);fill:#552582;" d="
				M494.37,173.78c-0.57,0.43-2.13,0.57-2.84,0c-1.71-1.42-4.98-2.42-6.83-2.42c-4.98,0-8.68,1-10.81,5.69
				c-1.85,3.98,0,7.4,4.41,9.39c1.99,0.85,4.41,1.99,3.56,4.27c-0.71,1.71-2.7,1.85-4.41,1.85c-2.42,0-5.97-1.85-6.54-5.12
				c-0.14-1.14-1.42-0.85-1.85-0.28l-2.99,5.97c-0.43,0.85,0.71,1.71,1.28,1.14c1-1.14,3.27-1.42,4.41-0.57
				c1.56,1,5.41,2.7,7.68,2.7c5.12,0,8.39-1.28,11.24-5.69c2.56-3.98,1-7.97-3.7-10.1c-2.42-1.14-4.55-3.13-3.41-5.41
				c0.71-1.42,2.84-1.14,3.98-1c1.99,0.28,4.69,2.28,4.98,3.98c0.14,0.71,1,0.85,1.42,0.28l1.56-3.7
				C495.94,174.07,494.8,173.5,494.37,173.78"/>
		</g>
	</g>
	<g id="XMLID_145_">
		<g>
			<defs>
				<path id="SVGID_00000082359183518185243470000006890801371280640387_" d="M241.6,411.9c84.78,0,153.62-69.84,153.62-155.9
					s-68.7-155.9-153.62-155.9c-84.78,0-153.62,69.84-153.62,155.9S156.83,411.9,241.6,411.9"/>
			</defs>
			<clipPath id="SVGID_00000160167532349944483160000016626254833712698017_">
				<use xlink:href="#SVGID_00000082359183518185243470000006890801371280640387_"  style="overflow:visible;"/>
			</clipPath>
			<path id="XMLID_146_" style="clip-path:url(#SVGID_00000160167532349944483160000016626254833712698017_);fill:#552582;" d="
				M427.94,188.01c-3.27,4.13-7.54,5.26-12.23,5.26h-1.28l8.39-16.64c0.43-0.71,1.28-1.42,2.42-1.42c1,0,1-2.13-0.43-2.13h-13.23
				c-1.14,0-1.56,2.13-0.43,2.13c1.14,0,1.28,1.28,0.85,2.28l-7.54,14.94c-0.57,0.85-1.28,1-2.28,1.28
				c-1.14,0.28-1.85,2.28-0.57,2.28h21.19c1.71,0,1.99-0.57,2.42-1.14l4.27-6.54C429.94,187.44,428.66,187.3,427.94,188.01"/>
		</g>
	</g>
	<g id="XMLID_148_">
		<g>
			<defs>
				<path id="SVGID_00000042704821132547748760000010881487216155438514_" d="M241.6,411.9c84.78,0,153.62-69.84,153.62-155.9
					s-68.7-155.9-153.62-155.9c-84.78,0-153.62,69.84-153.62,155.9S156.83,411.9,241.6,411.9"/>
			</defs>
			<clipPath id="SVGID_00000142170772738223761540000017139346303953579695_">
				<use xlink:href="#SVGID_00000042704821132547748760000010881487216155438514_"  style="overflow:visible;"/>
			</clipPath>
			<path id="XMLID_149_" style="clip-path:url(#SVGID_00000142170772738223761540000017139346303953579695_);fill:#552582;" d="
				M459.95,175.06c2.99,0,5.55,2.13,6.4,4.41c0.14,0.57,1.71,1,2.13,0.28l1.85-3.41c0.85-1.56-0.57-3.27-2.7-3.27h-24.75
				c-1.85,0-1.28,1.85-0.57,1.85c1.56,0,2.13,1.99,1.14,3.56l-7.4,13.66c-1.14,1.28-1.85,1.85-3.41,1.85c-1.28,0-1.71,1.85,0,1.85
				h25.04c1,0,1.42-0.43,1.85-0.85l3.41-4.55c0.85-1.14-1-1.14-1.56-0.57c-4.27,4.27-8.96,4.27-12.38,4.27h-2.99l3.41-7.68h0.71
				c2.28,0,4.69,0,5.41,1.71c0.14,0.43,1.28,0.71,1.71,0l2.99-5.83c0.43-0.85-0.85-1-1.14-0.43c-1.14,2.13-6.26,1.56-7.54,1.56
				h-0.71l4.27-8.39L459.95,175.06L459.95,175.06z"/>
		</g>
	</g>
	<path id="XMLID_153_" class="st14" d="M362.37,155.01c-1.85-2.13-4.55-6.83-23.47-23.33c-27.74-24.18-64.58-35.28-99.14-35.28
		c-25.46,0-47.79,5.69-72.55,19.35c-31.44,17.35-44.52,37.27-47.79,41.25c-2.42,2.99-2.7,4.69-1.14,5.55
		c1.14,0.57,3.27-1.71,5.26-4.27c9.39-12.38,21.62-24.61,34.71-31.86c3.98,0.57,9.67,6.26,11.81,9.25
		c-8.25,4.55-22.05,14.94-27.31,19.06c-4.55,3.41-6.12,5.41-4.84,6.83c1,1.14,4.41-1.14,7.4-3.56c4.98-4.13,19.77-14.51,27.17-18.49
		c4.98,5.83,3.41,16.64,1.56,18.92c-1,1.28-1.14,2.56,0,3.27c1,0.57,2.13-0.85,3.56-2.99c3.41-4.84,1.99-16.78-0.85-21.05
		c8.96-5.55,21.76-9.25,29.59-10.95c0.71,1.28,10.1,28.73,11.81,33.71c1,2.7,1.99,5.97,3.98,5.41c1.28-0.43,0.43-3.41-0.71-6.4
		c-1.42-3.7-8.53-26.88-10.67-33.71c2.56-1.42,18.07-4.55,21.91-4.41c-1.85,10.1,5.26,14.22,13.23,19.49
		c4.27,2.84,31.44,18.49,37.13,21.91c3.27,1.99,5.69,3.27,6.4,2.28c0.85-1.14-1.42-3.41-4.41-5.12
		c-2.42-1.42-27.74-16.07-38.26-22.76c-7.54-4.84-11.66-9.96-9.81-16.64c2.56-0.71,10.1-0.85,18.07-0.71
		c53.91,0.43,97.15,31.29,101.99,36.27c2.42,2.56,5.83,4.69,7.11,3.7C364.93,159.13,363.51,156.29,362.37,155.01 M174.46,133.67
		c-1.42-2.42-8.25-8.68-11.95-9.96c8.68-6.4,28.73-15.65,36.27-17.21c1.28,2.13,4.84,11.52,5.97,15.5
		C198.08,123.43,180.15,129.83,174.46,133.67 M233.35,116.31c-6.97,0.43-19.77,3.27-24.32,4.55c-1.14-2.99-4.41-12.52-5.41-15.65
		c12.94-3.7,28.02-4.98,39.54-3.98C239.9,103.8,234.49,113.61,233.35,116.31 M268.35,115.89c-11.66-0.85-21.19-1.14-29.59-0.28
		c2.42-6.12,7.25-11.81,10.95-14.22c7.97,0.28,16.22,1.42,22.76,2.84c20.91,4.13,53.34,16.78,67.28,35.56
		C321.12,127.27,290.11,117.45,268.35,115.89"/>
	<path id="XMLID_154_" class="st14" d="M374.03,339.5c1.99-3.7,3.56-5.69,1.85-6.69c-1.56-0.85-3.13,2.56-4.98,5.83
		c-6.26,10.95-13.23,19.91-28.73,34.14c-17.21,15.65-36.98,24.75-43.95,27.17c-5.83-16.5-28.16-86.63-28.73-88.62
		c-0.85-2.99-1.56-3.84-2.7-3.56c-1.14,0.43-0.43,1.99,0.14,4.69s27.17,85.63,28.02,88.62c-5.26,2.56-26.74,8.68-41.68,9.1
		c-13.37,0.43-29.02,0-36.98-1.85c-9.25-7.54-30.44-37.27-38.41-53.2c-9.39-18.63-15.65-35.85-17.35-43.1
		c-0.71-3.56-1.71-5.97-3.56-5.69c-1.85,0.43-0.85,3.13,0.28,6.83c2.84,9.67,7.4,23.19,17.35,42.67
		c10.38,20.63,29.02,44.67,34.42,51.21c-16.93-3.56-37.69-11.52-57.18-26.17c-16.93-12.52-31.44-28.59-38.69-40.26
		c-1.28-1.99-2.7-4.84-4.55-3.7c-0.85,0.57,0.14,2.84,1.42,5.12c10.67,19.06,36.41,45.95,69.56,60.74
		c38.55,17.21,80.8,16.36,118.35,1.71C331.22,391.84,359.95,365.53,374.03,339.5"/>
</g>
</svg>
