<?xml version="1.0" encoding="utf-8"?>
<!-- Generator: Adobe Illustrator 24.3.0, SVG Export Plug-In . SVG Version: 6.00 Build 0)  -->
<svg version="1.1" id="Layer_1" xmlns="http://www.w3.org/2000/svg" xmlns:xlink="http://www.w3.org/1999/xlink" x="0px" y="0px"
	 viewBox="0 0 512 512" style="enable-background:new 0 0 512 512;" xml:space="preserve">
<style type="text/css">
	.st0{fill:#FFFFFF;}
</style>
<g id="XMLID_1_">
	<path id="XMLID_23_" d="M254.66,0.11C143.28,0.99,63.65,41.09,62.92,41.82c-0.15,79.04,12.73,152.07,43.91,211.5
		c34.4,65.72,99.97,126.61,149.15,141.24c60.01-19.91,119-79.77,150.02-141.1c30-59.28,43.18-131.14,43.18-211.06
		C380.09,10.06,312.91-0.33,254.66,0.11L254.66,0.11z M254.81,6.55c56.2-0.44,121.04,9.37,187.93,40.1
		c0.73,80.94-14.49,149.29-42.59,204.03c-34.83,67.62-95.43,121.63-143.88,137.88c-54.45-16.39-115.34-81.53-144.17-136.71
		C69.65,170.48,67.6,78.27,69.95,45.77C70.68,44.9,147.52,7.43,254.81,6.55L254.81,6.55z"/>
	<path id="XMLID_30_" d="M436.88,49.73C325.79-1.5,172.26,0.99,75.36,50.17c-1.61,95.14,23.13,164.95,45.67,206.38
		c25.61,46.69,84.01,109.04,135.53,125.73c69.96-24.15,132.9-107.73,153.98-168.17C431.03,155.11,436.59,119.54,436.88,49.73z"/>
	<path id="XMLID_31_" class="st0" d="M285.98,324.31l3.66-1.9c15.22-8.05,21.95-12,26.49-14.64c3.66-2.05,5.85-3.37,9.95-5.27h0.15
		v-0.15c2.34-8.78,2.63-16.1,2.63-16.1v-0.59l-0.59,0.29c-13.9,7.03-33.37,11.12-36.45,11.71l-0.15-5.56
		c18.44-3.51,37.03-12,37.18-12.15l0.15-0.15v-0.15c0.15-11.56-1.17-19.03-1.17-19.17l-0.15-0.44l-0.44,0.29
		c-11.71,7.03-31.47,1.17-38.06-0.73c-0.73-0.29-1.32-0.44-1.76-0.44c-1.9-2.93-3.07-4.1-3.66-4.39c1.61-2.2,1.9-3.51,1.9-4.39
		c11.42,5.71,29.27,8.78,40.1,3.66l0.29-0.15v-0.29c-6-24.44-19.76-46.11-38.79-60.89c-17.86-13.9-38.64-20.34-57.08-17.86l0,0
		c-9.66,2.05-32.05,11.86-48.01,33.66l-0.44,0.73l0.88-0.15c16.39-2.49,30.3,4.54,37.76,8.34c1.32,0.73,2.49,1.32,3.51,1.76
		l0.15,5.56c-20.78-10.54-33.37-11.27-44.35-11.27h-0.15l-0.15,0.15c-4.39,4.1-14.2,28.69-13.03,52.11v0.15l0.15,0.15
		c0.44,0.29,1.02,1.02,1.76,1.9c3.81,4.68,12.73,15.81,55.33,25.76l-0.15,7.03c-3.95-0.44-38.2-5.56-55.91-28.83l-0.73-1.02
		l0.15,1.17c2.2,21.95,19.76,57.52,51.81,68.35c4.54,0.59,8.78,0.88,12.73,0.88C251.73,341.43,266.66,333.97,285.98,324.31z"/>
	<path id="XMLID_32_" class="st0" d="M226.41,344.21c12.44,9.07,83.28,11.86,97.92-35.86C292.71,328.11,262.86,349.48,226.41,344.21
		z"/>
	<path id="XMLID_33_" class="st0" d="M329.75,304.55c0.88,0.44-4.24,10.39-8.05,16.54c0,0,11.86-13.17,12.15-18
		C332.82,302.06,330.92,303.67,329.75,304.55z"/>
	<path id="XMLID_34_" class="st0" d="M334.87,282.45L334.87,282.45c-0.15,2.2,0.44,3.37-3.07,17.12c2.34-0.73,2.63-0.88,4.54,1.02
		c6-10.68,7.9-22.39,8.49-28.98C340.14,280.25,334.87,282.45,334.87,282.45z"/>
	<path id="XMLID_35_" class="st0" d="M342.33,238.25L342.33,238.25c0,0-1.61,10.98-9.66,18.15c0,0,2.2,7.03,2.05,20.34
		c4.54-2.93,8.05-7.32,10.83-15.08C345.55,261.81,346.43,247.47,342.33,238.25z"/>
	<path id="XMLID_36_" class="st0" d="M330.48,249.37l0.29,0.44l0.44-0.15c7.32-3.66,6.44-21.22,6.44-21.95h-0.29
		c-5.85-29.86-46.25-61.03-90.16-56.35v0.73C307.2,178.09,328.28,242.05,330.48,249.37z"/>
	<path id="XMLID_40_" d="M288.47,454.72l18.88-35.86c0-0.15,0.29-1.02-0.15-1.46c-0.15-0.15-0.44-0.44-0.88-0.44h-8.2
		c-0.15,0-0.73,0.15-0.88,0.59l-19.47,38.06l-0.15-37.32c0,0,0.15-0.73-0.29-1.02c-0.15-0.15-0.44-0.15-0.73-0.15h-7.17h-0.15l0,0
		l0,0c-0.29,0-0.73,0-1.02,0.29c-0.15,0.29-0.29,0.59-0.15,1.02l0.15,90.75c0,0,0,0.29,0.15,0.59c0.15,0.44,0.59,0.73,1.02,0.73
		c0.29,0,1.17,0,2.2,0c2.05,0,4.54,0,4.68,0h0.15l0,0c0.15,0,0.73,0,1.02-0.29s0.29-0.59,0.29-1.02v-34.4l4.24-7.9l15.37,42.59
		c0,0.29,0.29,1.02,1.17,1.02h7.32c0,0,0.59,0,0.88-0.29c0.15-0.15,0.29-0.29,0.29-0.73c0-0.73,0-1.61,0-1.76L288.47,454.72z"/>
	<path id="XMLID_42_" d="M342.19,501.85h-21.81l-0.15-83.28v-0.15c-0.15-0.44-0.59-1.17-1.32-1.17l-7.17-0.15c0,0-1.32,0-1.32,1.9
		v90.01v0.15c0.15,0.15,0.59,1.02,1.32,1.02h30.74h0.15c0.29-0.15,1.17-0.59,1.17-1.46v-5.71c0-0.15,0-0.44-0.29-0.73
		C343.36,502,342.77,501.85,342.19,501.85z"/>
	<path id="XMLID_43_" d="M376,417.1c-1.76,0.15-7.03,0-7.03,0s-1.17,0-1.61,1.61c-0.29,1.17-10.98,32.2-12.88,38.06l-13.03-38.64
		c0,0-0.59-1.32-1.9-1.32h-6.73l-0.15,0.15c0,0-1.46,0.88-1.17,2.05c0.29,1.02,16.98,48.15,17.86,50.79l0.29,39.37
		c0,0-0.15,0.59,0.15,1.02c0.15,0.15,0.29,0.29,0.59,0.29c0.29,0,1.17,0,2.2,0c1.9,0,4.39,0,4.68,0c0.59,0,1.17-0.29,1.17-1.32
		v-39.08l18.88-51.08c0-0.15,0.44-0.88,0-1.46C377.02,417.25,376.58,417.1,376,417.1z"/>
	<path id="XMLID_44_" d="M418.59,418.57c0-0.44-0.44-1.17-1.61-1.17h-6.59c0,0-0.59,0-1.02,0.29c-0.15,0.15-0.29,0.44-0.29,0.88
		l1.17,74.5l-18.59-74.79c0-0.44-0.44-1.32-1.46-1.32l0,0l-9.37,0.15c-0.44,0-1.17,0.44-1.32,1.61c0,1.17,0,86.21,0,90.45
		c0,0.15-0.15,0.73,0.15,1.02c0.15,0.15,0.44,0.29,0.88,0.29c1.02,0,6.59,0,6.59,0l0,0c0.44,0,1.46-0.29,1.46-1.61
		c0-1.17-0.29-57.67-0.29-71.28L406,509.31v0.15c0,0,0.59,0.88,1.46,1.02h9.66c0,0,0.44,0.15,0.88-0.29
		c0.29-0.29,0.44-0.59,0.44-1.17L418.59,418.57z"/>
	<path id="XMLID_45_" class="st0" d="M101.85,179.11L102,58.22c0,0-0.44-1.32,1.76-2.2c2.2-0.88,16.39-6.15,16.39-6.15
		s1.76-0.73,2.2,0.29s36.59,91.92,36.59,91.92L158.2,40.94c0,0,0-1.76,1.76-2.2c1.76-0.44,12.59-2.78,12.59-2.78
		s1.61-0.29,1.61,1.46s-0.15,121.19-0.15,121.19s-0.15,2.05-1.76,2.34c-1.61,0.29-17.56,4.1-17.56,4.1s-1.9,0.44-2.63-1.17
		c-0.73-1.76-35.42-90.45-35.42-90.45l0.44,100.7c0,0,0.15,1.61-1.46,2.2c-1.61,0.59-11.71,4.1-11.71,4.1
		S101.85,180.87,101.85,179.11L101.85,179.11z"/>
	<path id="XMLID_46_" class="st0" d="M187.04,34.94c0,0-0.59-1.76,2.49-2.2c3.07-0.29,19.32-4.1,60.74-5.12c0,0,2.78-0.59,2.78,1.32
		c0,1.9,0,8.05,0,8.49c0,0.44-0.15,1.9-1.76,1.9c-1.61,0-29.27,0-47.72,3.66L203.43,85c0,0,12.88-2.78,39.23-3.07
		c0,0,1.46-0.88,1.46,1.32c0,2.2,0,8.2,0,8.2s0.15,2.34-1.76,2.05c-1.9-0.29-30.3,0.88-39.08,3.07l-0.15,47.42
		c0,0,15.37-2.78,47.72-3.51c0,0,2.05-0.59,2.05,1.76c0,2.34,0,7.61,0,7.61s0.59,2.34-2.05,2.34c-2.63,0-38.35,0.59-61.33,5.12
		c0,0-2.34,0.29-2.34-1.32L187.04,34.94z"/>
	<path id="XMLID_47_" class="st0" d="M291.84,152.04l-0.15-111.09c0,0-17.12-1.9-28.98-1.32c0,0-1.61,0.15-1.61-1.61s0-8.93,0-8.93
		s-0.44-1.46,1.61-1.32c2.2,0.15,40.4,0.44,74.94,6.88c0,0,1.76,0.29,1.76,1.76c0,1.46,0,8.49,0,8.49s-0.29,2.2-2.05,1.9
		c-1.76-0.29-14.2-2.78-29.13-4.39v110.65c0,0,0.44,2.2-1.61,2.05l-12.88-1.02C293.89,153.79,291.98,153.94,291.84,152.04
		L291.84,152.04z"/>
	<path id="XMLID_48_" class="st0" d="M398.1,89.54c0,0-1.46-0.73-1.32-1.9c0.15-1.17,0.15-16.39,0.15-16.39s-0.29-8.34-10.83-14.05
		c0,0-6.88-4.39-18.15-4.1c-0.44,0.15-6.73,0.29-7.17,9.37c0,0-0.59,10.83,3.95,16.69c0,0,7.03,9.37,15.81,18.15l14.34,14.93
		c0,0,12.44,12.88,16.25,20.64c0,0,3.66,5.56,4.1,19.61c0,0,1.61,20.49-14.78,21.37c0,0-12.44,2.49-36.15-7.46
		c0,0-21.95-7.76-23.71-28.39l-0.15-19.17c0,0-0.15-1.9,1.76-1.76l13.03,2.49c0,0,1.46,0,1.46,1.9l0.15,18.44
		c0,0,0.59,16.83,30.44,21.37c0,0,12,2.63,11.86-8.64l0.15-9.66c0,0-0.29-9.07-13.47-21.95l-29.13-28.98
		c0,0-10.25-10.25-12.29-23.71c0,0-0.88-12.88,3.51-20.2c0,0,9.66-16.83,44.2-0.29c0,0,17.71,6.73,19.76,24.44l0.88,20.49
		c0,0-0.15,2.05-2.05,1.76C409.22,94.08,398.1,89.54,398.1,89.54L398.1,89.54z"/>
	<path id="XMLID_52_" d="M122.35,460.28c1.76-1.17,6.15-4.39,6.15-10.83v-19.61c0.15-3.07-1.17-6.15-3.37-8.49
		c-2.34-2.34-5.42-3.81-8.64-3.81L93.8,417.4l0.15,91.92c0,0.59,0.15,1.46,0.73,1.46h23.42l0,0c0.73,0,5.71-1.32,9.51-4.98
		c2.78-2.63,4.24-6,4.24-9.81v-24.74C131.57,466.87,127.61,461.45,122.35,460.28z M102.73,426.47c0-0.59,0.29-0.44,0.29-0.59
		l8.78,0.15c7.9,0.15,7.17,5.85,7.17,5.85v16.83c-0.15,8.34-9.95,7.76-9.95,7.76s-5.56,0-6,0c-0.44,0-0.29-0.29-0.29-0.29
		S102.73,426.91,102.73,426.47z M114.3,502.44c0,0-10.83,0-11.12,0c-0.29,0-0.29-0.44-0.29-0.44V465.4c0,0-0.15-0.15,0.29-0.59h8.2
		c12.15,0,11.27,10.54,11.27,10.54v16.54C122.78,502.87,114.3,502.44,114.3,502.44z"/>
	<path id="XMLID_55_" d="M162.3,466.14c2.78-0.59,11.71-5.42,11.71-13.32v-21.95c0-0.15-0.73-12.29-16.1-12.29h-0.15l-21.37-0.29
		l-0.29-0.15l0.44,91.48c0,0.15,0.15,0.88,0.59,1.17l0.29,0.15h0.15c0.44-0.15,4.39,0,6.88,0c0.44,0,1.32-0.44,1.32-1.61
		c0-1.02,0.15-38.06,0.15-42.01l7.03-0.15l16.39,43.76h8.2c0.29,0,0.88-0.29,0.88-0.88v-1.46L162.3,466.14z M145.47,457.94v-32.35
		l12,0.15c8.34-0.15,7.61,8.49,7.61,8.49v16.54c0.15,7.03-6.29,7.03-6.29,7.03h-13.32V457.94z"/>
	<path id="XMLID_58_" d="M219.09,436.28c0-7.76-3.07-14.05-8.93-17.42c-6.29-3.66-14.49-3.51-20.93,0.15
		c-6.29,3.66-9.66,9.81-9.66,17.56l0.15,55.91c0.15,12.88,10.1,19.61,20.05,19.61h0.15c9.37,0,19.32-6.15,19.32-19.32L219.09,436.28
		z M210.6,491.6c0,16.1-21.95,14.64-21.95,0v-55.62h0.15c0.15-14.64,21.81-14.2,21.81,0V491.6z"/>
	<path id="XMLID_61_" d="M263.44,436.13c0-7.76-3.07-14.05-8.93-17.42c-6.29-3.66-14.49-3.51-20.93,0.15
		c-6.29,3.66-9.66,9.81-9.66,17.56l0.15,55.91c0,7.46,3.22,13.32,9.22,16.83c3.22,1.9,7.03,2.78,10.68,2.78
		c3.66,0,7.46-0.88,10.54-2.78c5.85-3.37,8.93-9.22,8.93-16.69V436.13z M254.51,491.6c0,16.1-21.95,14.64-21.95,0v-56.5
		c0-14.05,21.95-13.61,21.95,0.59V491.6z"/>
	<path id="XMLID_65_" d="M284.96,270.89c-0.88-6.59-5.56-12.73-11.56-15.08c5.12-3.22,7.9-9.81,7.32-17.86c0-2.78,0-5.56,0-8.34
		c0-5.12,0-10.25-0.44-15.37c-0.59-6.73-4.83-14.49-12.73-16.39c-4.39-1.17-8.78-1.02-13.17-1.02c-1.9,0-3.95,0.15-6,0
		c-2.05,0-4.1,0-6,0c-3.22,0-6.59,0-9.95,0.15c-1.32,0.29-2.05,1.76-1.9,3.07c0,15.66,0,31.18,0,46.84c0,25.61,0,51.23,0.15,76.84
		v0.15c0.88,2.34,2.93,2.93,5.12,2.93c1.02,0,2.05-0.15,3.07-0.15c1.76-0.15,3.22-0.29,4.68,0c2.78,0,5.71,0,8.49,0
		c4.54,0,9.37,0,13.9-0.29c8.93-1.32,18.73-8.64,19.17-19.47C285.1,295.33,285.1,283.62,284.96,270.89z M245,249.52L245,249.52
		c0-1.02,0-24.59,0-38.35c0-0.44,0.15-0.73,0.44-0.88c0.29-0.15,0.44-0.15,0.59-0.15h9.22c0.29,0,0.44,0,0.88,0
		c2.05,0,5.71,0,7.9,2.34c1.46,1.46,2.05,3.81,2.05,6.73V240c0,9.22-10.39,10.68-10.54,10.68c0,0-8.93,0-9.66,0
		c-0.44,0-0.59-0.15-0.73-0.29C245,249.95,245,249.52,245,249.52z M267.25,310.99c-2.93,2.49-6.29,2.2-6.44,2.2c0,0-13.17,0-14.34,0
		c-0.59,0-0.88-0.15-1.17-0.44s-0.29-0.73-0.29-0.73v-48.74h9.37h0.29c14.93,0,16.1,10.83,16.1,10.98v25.76
		C270.91,305.13,269.74,308.79,267.25,310.99z"/>
</g>
</svg>
