<?xml version="1.0" encoding="utf-8"?>
<!-- Generator: Adobe Illustrator 26.5.0, SVG Export Plug-In . SVG Version: 6.00 Build 0)  -->
<svg version="1.1" id="Layer_1" xmlns="http://www.w3.org/2000/svg" xmlns:xlink="http://www.w3.org/1999/xlink" x="0px" y="0px"
	 viewBox="0 0 512 512" style="enable-background:new 0 0 512 512;" xml:space="preserve">
<style type="text/css">
	.st0{fill:#BEC0C2;}
	.st1{fill:#002D62;}
	.st2{fill:#FDBB30;}
	.st3{fill:#FFFFFF;}
</style>
<g id="XMLID_1_">
	<path id="XMLID_3_" class="st0" d="M512,256c0,141.4-114.6,256-256,256S0,397.4,0,256S114.6,0,256,0h0.14
		C397.4,0,512,114.6,512,256z"/>
	<path id="XMLID_4_" class="st1" d="M497.41,256c0,133.26-108.15,241.13-241.27,241.13c-133.26,0-241.13-108.15-241.13-241.27
		c0-133.26,108.15-241.13,241.27-241.13s240.99,108.01,241.13,241.13V256z"/>
	<path id="XMLID_5_" class="st2" d="M256,25.95C129.05,25.81,25.95,128.77,25.95,255.72c-0.14,126.95,102.82,230.05,229.77,230.05
		C382.67,485.91,485.77,382.95,485.77,256v0C485.91,128.91,383.09,25.95,256,25.95z"/>
	<path id="XMLID_6_" class="st1" d="M413.53,256c0,88.79-70.56,160.75-157.39,160.75c-87.11,0-157.39-71.96-157.39-160.75
		S169.03,95.39,256.14,95.39C342.97,95.25,413.53,167.21,413.53,256z"/>
	<path id="XMLID_7_" class="st3" d="M403.43,256c0,83.04-65.93,150.23-147.43,150.23c-81.36,0-147.43-67.33-147.43-150.23
		c0-83.04,65.93-150.23,147.43-150.23C337.5,105.63,403.43,172.96,403.43,256z"/>
	<polygon id="XMLID_8_" class="st1" points="94.4,210.97 93,216.86 45.87,205.22 47.41,199.33 	"/>
	<polygon id="XMLID_9_" class="st1" points="101,138.73 121.34,154.16 117.83,158.79 79.4,129.33 81.36,126.67 109.13,133.96 
		88.23,117.97 91.74,113.34 130.03,142.66 128.21,145.46 	"/>
	<path id="XMLID_12_" class="st1" d="M150.51,64.39l9.54-4.91c4.07-2.1,9.12-1.96,11.78,3.09c6.03,12.06,8.84,17.11,14.87,28.9
		c1.96,3.93,0.42,8.7-3.51,10.66c-0.14,0.14-0.42,0.14-0.7,0.28l-9.96,5.05L150.51,64.39z M175.76,99.73l2.52-1.4
		c2.1-0.84,3.09-3.09,2.24-5.19l-0.14-0.42c-5.05-9.82-8.7-16.69-13.61-26.65c-0.84-1.96-3.23-2.67-5.05-1.82l-0.28,0.14l-2.95,1.54
		L175.76,99.73z"/>
	<polygon id="XMLID_13_" class="st1" points="249.97,85.01 243.94,85.43 241.13,37.03 247.58,36.61 	"/>
	<path id="XMLID_16_" class="st1" d="M320.53,97.77l2.1-9.4l-8.14-3.09l-4.91,8.28l-5.75-2.24l25.81-41.94l6.03,2.24l-9.26,48.39
		L320.53,97.77z M327.26,64.81l-0.28-0.14l-9.96,16.27l6.59,2.38L327.26,64.81z"/>
	<polygon id="XMLID_17_" class="st1" points="392.49,116.71 373.83,134.24 369.76,130.03 405.11,96.79 407.22,99.03 395.57,125.55 
		415.07,107.31 418.86,111.52 383.65,144.76 381.4,142.38 	"/>
	<path id="XMLID_20_" class="st1" d="M416.75,206.76l8.56-4.35l-2.81-8.28l-9.54,1.54l-1.96-5.89l48.96-6.59l2.1,6.03l-43.34,23.71
		L416.75,206.76z M446.63,191.33l-0.28-0.42l-18.8,2.67l2.24,6.59L446.63,191.33z"/>
	<path id="XMLID_23_" class="st1" d="M63.4,357l-2.95-5.61l42.78-22.16l7.15,13.47c1.4,2.81,0.7,4.91-1.4,6.03
		c-7.72,3.93-11.64,6.03-19.22,10.1c-1.82,1.12-4.21,0.42-5.33-1.4c-0.14-0.14-0.14-0.28-0.28-0.56l-4.35-8.42L63.4,357z
		 M84.44,345.92l3.51,6.59l17.11-9.12l-3.51-6.59L84.44,345.92z"/>
	<path id="XMLID_26_" class="st1" d="M127.23,434.01l4.77-8.42l-7.01-5.47l-7.15,6.31l-4.77-3.79l37.17-32.4l5.05,4.07l-23,43.48
		L127.23,434.01z M143.92,404.41l-0.28-0.42l-14.17,12.62l5.47,4.35L143.92,404.41z"/>
	<path id="XMLID_27_" class="st1" d="M213.22,455.61l6.17,1.54l-3.09,12.48c-0.42,2.1-2.52,3.37-4.63,2.95l0,0h-0.14
		c-4.35-0.98-7.29-1.82-11.78-2.95c-2.1-0.42-3.51-2.52-2.95-4.63v-0.14c3.79-15.29,5.89-23.85,9.68-39.28
		c0.42-2.1,2.52-3.37,4.63-2.95h0.14c4.35,0.98,7.43,1.96,11.92,2.95c2.1,0.56,3.37,2.67,2.81,4.77l0,0l-2.38,9.82l-6.17-1.4
		l2.1-8.7l-7.29-1.68l-8.98,36.89l7.29,1.68L213.22,455.61z"/>
	<polygon id="XMLID_28_" class="st1" points="302.43,472.16 286.72,475.11 278.44,427.41 293.73,424.61 294.58,429.8 285.18,431.34 
		287.98,446.91 296.82,445.37 297.66,450.56 288.96,452.1 292.05,468.8 301.31,467.25 	"/>
	<path id="XMLID_29_" class="st1" d="M373.69,441.86l-5.33,3.37l-27.21-40.12l13.33-9.12c1.54-1.4,3.93-1.12,5.19,0.42
		c0.14,0.28,0.42,0.42,0.56,0.7c3.79,5.47,6.31,9.12,10.1,14.59c1.26,1.68,1.12,4.07-0.56,5.33c-0.14,0.14-0.28,0.28-0.56,0.42
		l-0.7,0.56l17.67,15.15l-5.75,3.93l-19.92-17.53l-0.14-2.24l4.21-2.81l-8.84-12.91l-6.59,4.49L373.69,441.86z"/>
	<path id="XMLID_30_" class="st1" d="M422.93,368.64l9.68,6.17l2.81-4.49l-9.4-6.03l-17.96,0.98c-1.12,0.14-2.24-0.14-3.23-0.7
		c-3.51-2.24-5.05-3.37-8.98-5.61c-1.82-1.12-2.24-3.51-1.12-5.19v-0.14c1.82-3.23,3.51-5.61,5.47-8.7c0.98-1.82,3.23-2.38,5.05-1.4
		l0.42,0.28l8.56,5.47l-3.37,5.19l-7.43-4.77l-2.81,4.63l7.29,4.49l17.11-1.12c1.54-0.14,3.09,0.14,4.35,0.98
		c4.49,2.95,6.03,3.79,10.8,6.73c1.82,1.12,2.38,3.51,1.4,5.33c-1.96,3.23-3.51,5.61-5.61,8.7c-0.98,1.82-3.23,2.38-5.05,1.4
		l-0.42-0.28l-10.66-6.87L422.93,368.64z"/>
	<path id="XMLID_31_" class="st0" d="M209.01,164.68l-39.98,180.81H248c0,0,8.84-36.05,9.54-39.28h34.23
		c25.67,0.14,46.57-8.56,60.74-25.11c25.81-28.05,21.32-68.87,1.96-92.44c-13.89-16.83-34.51-26.37-56.25-26.09h-88.79
		L209.01,164.68z"/>
	<path id="XMLID_32_" class="st1" d="M251.93,299.2l-9.54,39.28h-64.39l37.17-168.33h82.9c19.64-0.28,38.29,8.42,50.78,23.57
		c18.38,22.16,20.2,59.2-1.82,83.04c-13.47,15.71-33.53,22.86-55.27,22.58L251.93,299.2z"/>
	<path id="XMLID_33_" class="st2" d="M206.48,208.59h36.33c4.21,0,8.7,3.37,6.87,8.84c-1.26,3.51-2.1,7.01-2.67,10.8
		c-0.28,2.67,2.81,4.49,4.49,4.49h74.06c1.4,0,2.1-0.42,2.1-1.12c0-1.54-0.14-3.23-0.42-4.77c-0.28-1.54-0.42-1.96-1.82-1.96
		c-9.26,0-13.05-4.21-22.72-10.38c-9.68-6.31-23.85-9.96-36.19-9.96h-59.48L206.48,208.59z"/>
	<path id="XMLID_34_" class="st2" d="M251.51,256.42c-1.26-2.95-2.38-6.03-3.23-9.12c-0.84-3.79-4.21-6.87-9.96-6.87h-39l1.12-4.35
		l126.25,0.14c1.12,0,0.98,0.56,0.84,1.96c0,1.4-0.42,3.93-0.56,5.47c-0.14,1.68-1.4,1.26-2.52,1.26
		c-3.93-0.14-7.86,0.98-11.36,3.09c-5.19,4.07-16.41,11.08-22.58,12.91C283.77,262.87,258.81,270.73,251.51,256.42z"/>
	<path id="XMLID_35_" class="st2" d="M192.6,272.41h65.93c2.67-0.14,5.19,0.7,7.43,2.24c6.17,4.63,13.05,8.14,20.48,10.24
		c3.37,1.12,9.4-0.28,14.59-3.23c13.19-7.57,21.6-21.6,24.55-30.86c0.7-2.38-0.7-2.24-2.38-2.1c-5.61,0.42-11.5,5.47-19.08,10.52
		c-7.86,4.77-23.29,9.54-38.29,9.54h-72.24L192.6,272.41z"/>
	<path id="XMLID_36_" class="st2" d="M289.39,184.04c1.96-0.42,4.07-0.28,6.03,0.28c12.76,5.05,24.41,17.96,29.46,31.84
		c0.98,2.81,1.26,4.35,0,4.49c-5.75,0.7-8.28-2.24-15.15-6.73c-6.59-4.49-13.89-8-21.46-10.38c-8.56-2.67-23.85-3.23-25.67-3.23
		c-1.96,0-1.82-0.84-0.98-1.68C269.05,191.05,278.86,185.86,289.39,184.04z"/>
	<path id="XMLID_37_" class="st2" d="M349.42,231.45c0,0.7-0.56,1.26-1.26,1.26h-14.45c-1.82,0-1.82-0.84-1.82-1.96
		c-0.28-1.4-0.42-2.95-0.42-4.49c0-1.12-0.56-2.52,1.12-3.23c3.93-2.1,7.29-5.19,9.54-9.12c0.42-1.12,1.4-2.95,2.38-1.4
		C348.02,218.13,349.14,224.86,349.42,231.45z"/>
	<path id="XMLID_38_" class="st2" d="M344.23,257.4c-0.14,0.56-1.26,0.98-1.4,0c-2.1-4.91-5.89-8.98-10.66-11.36
		c-0.98-0.56-0.98-1.26-0.98-2.38c0.14-0.98,0.56-4.35,0.7-5.61c0-1.12,0.56-1.96,1.4-1.96h15.01c0.42,0,1.12,0.56,1.12,0.84
		C349.28,244.22,347.6,251.09,344.23,257.4z"/>
	<path id="XMLID_39_" class="st2" d="M305.24,285.6c-1.12,0.28-3.51-0.14,0.14-2.24c10.94-6.45,20.76-21.18,23.29-29.88
		c1.12-3.37,1.12-3.51,2.52-3.09c2.67,1.12,4.77,3.09,6.45,5.47c1.96,2.81,2.95,8.42,1.68,9.82
		C331.05,276.62,318.7,283.77,305.24,285.6z"/>
	<path id="XMLID_40_" class="st2" d="M333.01,218.27c-2.52,1.4-3.09,0.98-3.65-0.84c-4.77-16.55-18.8-29.04-24.55-32.82
		c-0.98-0.56-0.84-1.12,0-0.98c13.61,1.96,27.21,9.4,33.95,19.5C342.69,209.01,335.54,216.86,333.01,218.27z"/>
</g>
</svg>
