<?xml version="1.0" encoding="utf-8"?>
<!-- Generator: Adobe Illustrator 26.5.0, SVG Export Plug-In . SVG Version: 6.00 Build 0)  -->
<svg version="1.1" id="Layer_1" xmlns="http://www.w3.org/2000/svg" xmlns:xlink="http://www.w3.org/1999/xlink" x="0px" y="0px"
	 viewBox="0 0 512 512" style="enable-background:new 0 0 512 512;" xml:space="preserve">
<style type="text/css">
	.st0{fill:#9EA2A2;}
	.st1{fill:#0C2340;}
	.st2{fill:#236192;}
	.st3{fill:#78BE20;}
	.st4{fill:#FFFFFF;}
</style>
<g id="XMLID_1_">
	<ellipse id="XMLID_3_" class="st0" cx="256" cy="256" rx="256" ry="256.14"/>
	<ellipse id="XMLID_4_" class="st1" cx="257.26" cy="255.58" rx="247.02" ry="247.02"/>
	<path id="XMLID_15_" class="st2" d="M257.96,92.3c-12.48-0.14-24.97,1.26-36.89,4.07c-1.12,3.51-2.67,10.52-0.14,16.83
		c1.54,3.79,4.49,6.87,8.56,9.26c11.36-4.63,23.57-9.26,35.49-13.33c15.01-5.47,28.2-8.42,38.58-10.1
		c-0.28-0.14-0.56-0.14-0.84-0.28c-7.29-2.1-14.73-3.79-22.02-4.77C272.97,92.86,265.4,92.3,257.96,92.3L257.96,92.3z M209.57,99.31
		c-23.43,7.15-45.03,19.36-62.98,35.77c0.84,0,1.68,0,2.52,0c15.43-0.98,37.59-0.28,50.22,0.28c5.33-2.38,11.78-5.19,18.94-8.28
		c-3.09-2.95-5.47-6.31-7.01-10.24C208.73,110.68,208.87,104.36,209.57,99.31L209.57,99.31z M326,107.59v0.14
		c-0.42,0-34.79-0.84-77.43,19.78c-0.7,0.42-1.54,0.84-2.24,1.4c13.33,3.93,24.41,4.77,32.26,5.19c1.82,0.14,3.51,0.28,4.91,0.42
		l1.12,0.14c5.19,0.42,12.34,1.26,20.76,2.81c6.31-7.72,13.89-12.48,19.08-13.61c6.03,2.24,9.12,5.75,11.36,10.8
		c8.42,3.51,14.03,9.68,17.67,17.11c19.36,8.42,38.86,20.9,53.72,39.42C391.64,155.14,363.17,124.84,326,107.59L326,107.59z
		 M237.2,137.05c-3.51,3.93-6.45,8-8.56,11.5c4.49,4.63,12.91,13.47,17.11,18.1c7.29,4.35,14.45,9.12,21.6,14.17
		c11.5-12.91,21.6-23.29,31.7-33.81c-4.91-0.7-9.96-1.26-15.15-1.68l-1.26-0.14c-1.4-0.14-2.95-0.28-4.63-0.42
		C268.91,144.06,254.6,142.94,237.2,137.05L237.2,137.05z M146.17,145.74c-4.21,0-7.72,0.14-10.52,0.28
		c-13.61,14.87-24.55,32.54-31.98,52.46c16.69-17.25,41.66-35.63,69.44-30.16c2.24-3.93,4.49-7.86,6.45-11.36
		c-8.7-5.75-14.17-9.82-29.04-11.22C149.11,145.74,147.57,145.74,146.17,145.74L146.17,145.74z M357.98,164.68
		c4.91,22.3-0.7,47.55-0.7,47.55s12.06,7.01,15.01,20.34c0,0,1.68,0.7,2.95,2.67c3.37,4.21,7.72,13.75,0.7,32.54
		c0,0-4.07-8.84-12.76,0.7c-0.7,0.98-1.54,2.1-2.24,3.09c16.55,22.86,29.18,46.57,35.63,69.86c7.43-12.06,13.33-25.39,17.53-39.56
		c5.75-19.78,7.57-39.84,6.03-59.34C415.77,223.04,402.17,187.27,357.98,164.68L357.98,164.68z M205.92,168.47
		c-4.49,2.1-9.4,4.63-14.17,7.43c13.33,8.7,23.29,23.57,30.72,40.82c10.52-3.65,17.96-3.79,17.96-3.79
		c7.15-8.98,13.75-16.97,19.78-24.13c-7.15-4.91-14.31-9.68-21.46-13.89C231.03,171.98,212.37,169.31,205.92,168.47L205.92,168.47z
		 M161.88,177.73c-29.18,0.98-54.85,31.42-65.23,45.45c-7.29,35.35-2.38,70.84,11.92,101.7c7.72-7.29,15.15-14.73,22.16-22.16
		c-0.56-23.43,2.67-46.15,9.4-67.75c5.75-18.1,13.47-33.39,21.74-46.15c1.26-2.52,3.37-6.31,5.89-10.8
		C165.8,177.73,163.84,177.73,161.88,177.73L161.88,177.73z M181.94,182.08c-2.52,1.82-4.77,3.65-6.59,5.47
		c-19.08,26.79-32.54,61.72-33.95,103.52c20.34-22.44,37.03-43.2,48.53-54.15c7.86-7.57,15.85-12.76,23.15-16.41
		C205.5,203.26,195.54,188.95,181.94,182.08L181.94,182.08z M354.61,280.97c-10.66,17.39-15.85,33.67-16.55,62.28
		c-0.28,15.71,7.43,27.77,13.19,46.43c14.17-9.96,26.93-22.3,37.45-36.61C383.93,329.78,371.59,304.96,354.61,280.97L354.61,280.97z
		"/>
	<path id="XMLID_19_" class="st3" d="M324.03,131.02c-3.09-0.14-7.15,2.67-12.2,11.78c10.52-11.36,19.92-4.07,19.92-4.07
		C330.63,136.07,328.1,131.16,324.03,131.02z M225,133.26l-22.72,11.36c0,0-16.27-1.4-24.83-1.54c7.86,5.05,14.59,10.8,14.59,10.8
		l-10.1,16.69l21.46-11.64c0,0,13.47,2.24,25.81,4.77c-7.01-8-15.57-14.03-15.57-14.03L225,133.26L225,133.26z M234.12,231.31
		c-12.34,6.17-31,24.69-31,24.69c8.98-6.03,27.63-8.84,27.63-8.84C231.17,239.45,234.12,231.31,234.12,231.31L234.12,231.31z"/>
	<path id="XMLID_23_" class="st0" d="M256.7,71.54c-91.46,0-169.87,68.45-182.5,159.21c-5.19,37.73,1.26,75.19,18.1,108.43
		c2.1-1.82,4.21-3.51,6.31-5.33c-15.43-31.28-21.32-66.49-16.41-101.98c11.92-86.83,86.97-152.34,174.5-152.34
		c8,0,16.27,0.56,24.27,1.68c46.57,6.45,87.95,30.72,116.43,68.17c28.48,37.59,40.68,83.88,34.23,130.45
		c-7.15,51.34-36.33,95.39-77.01,122.6c0.56,2.81,0.98,5.61,1.4,8.7c44.19-28.34,76.03-75.19,83.6-130.17
		c6.73-48.68-6.03-97.21-35.77-136.49s-72.94-64.67-121.76-71.4C273.67,72.24,265.12,71.54,256.7,71.54L256.7,71.54z M337.22,147.99
		c0.42,1.12,0,5.19-0.42,8.42l0,0c-7.43,1.4-23.71-0.56-28.9-3.23c-20.06,21.46-41.8,51.34-58.21,78.69
		c-7.15,14.45-14.17,31.56-15.85,45.31c0,0-2.24-6.31-2.81-14.59c-9.12,3.51-39.98,18.66-46.57,65.23c0,0,19.64-20.2,41.38-28.2
		c0,0-13.75,36.05,12.48,99.73c0,0,10.66-39.14,32.82-48.96c13.47,66.77,52.88,67.89,64.39,113.34c0,0,12.06-23.57-2.38-63.54
		c0,0,5.05,1.4,9.26,6.45c0,0-0.7-11.64-11.64-36.89c-7.15-13.47-9.4-31.7-9.4-31.7c-6.45,5.75-8,25.39-8,25.39
		c-19.64-53.16,36.05-105.77,46.15-113.48c4.91-3.79,8-3.79,9.82-2.95c1.96-3.93,1.68-6.45-0.56-8.14c0,0-0.98-0.7-1.12-0.7
		c-5.89-3.09-16.41,6.03-23.43,9.82c-6.87,3.79-16.97,11.92-21.88,0.7c-4.91-11.08,6.31-28.62,10.24-39.56
		c8.56-24.27,8.98-38.58,7.15-46.29c8,8.98,10.52,26.23,10.52,26.23S353.07,156.55,337.22,147.99L337.22,147.99z M164.54,333.01
		c0,0-37.03,27.07-74.91,29.32c0,0,37.45,8.84,53.3,2.38c-1.54-0.98-3.23-2.38-4.91-4.63c0,0,15.29-9.82,26.37-26.93L164.54,333.01
		L164.54,333.01z"/>
	<path id="XMLID_52_" class="st4" d="M276.34,25.81l-0.84,6.73l8.7,1.12l-3.23,24.27l7.01,0.98l3.23-24.27l8.7,1.12l0.84-6.73
		L276.34,25.81L276.34,25.81z M216.3,28.62l-0.98,0.14l-8.7,33.53l7.57-1.26l4.35-16.41l9.54,14.03l7.72-1.26L216.3,28.62
		L216.3,28.62z M320.39,34.23l-8.84,30.02l6.73,1.96l8.84-30.02L320.39,34.23L320.39,34.23z M184.74,35.91l-22.72,9.12l2.52,6.31
		l8.14-3.23l9.12,22.72l6.45-2.67l-9.12-22.72l8.14-3.23L184.74,35.91L184.74,35.91z M350.83,44.47l-14.59,28.05l6.17,3.23
		l6.73-12.91l3.23,11.92l0.84,0.42l11.64-4.21l-6.73,12.91l6.31,3.23l14.59-28.05l-0.98-0.56l-20.62,7.57l-5.61-21.04v-0.14
		L350.83,44.47L350.83,44.47z M140.41,58.92c-8.84,0-16.13,7.15-16.13,16.13s7.15,16.13,16.13,16.13c8.84,0,16.13-7.15,16.13-16.13
		S149.25,58.92,140.41,58.92z M140.41,66.21c4.91,0,8.84,3.93,8.84,8.84c0,4.91-3.93,8.84-8.84,8.84c-4.91,0-8.84-3.93-8.84-8.84
		C131.58,70.14,135.5,66.21,140.41,66.21z M399.78,74.63l-4.63,5.33l-3.09,3.51l-0.28,0.28l-4.35,5.05l-3.79,4.35l-4.63,5.33
		l5.33,4.63l4.63,3.93c1.96,1.68,4.35,2.67,6.87,2.81c2.95,0.14,5.61-1.12,7.57-3.37c1.68-1.96,2.52-4.35,2.24-6.87
		c1.82-0.42,3.37-1.54,4.63-2.95c1.96-2.24,2.81-5.05,2.24-7.86c-0.42-2.24-1.68-4.35-3.65-6.03l-3.93-3.37L399.78,74.63
		L399.78,74.63z M400.48,84.44l3.93,3.37c1.68,1.4,1.82,2.81,0.7,4.07c-1.4,1.54-3.09,0.7-4.35-0.42l-3.65-3.23L400.48,84.44
		L400.48,84.44z M102.96,88.37h-0.56c-3.51,0.14-6.73,1.82-9.82,5.05c-1.96,2.1-3.09,4.49-3.23,6.87c-0.28,2.81,0.7,5.33,2.95,7.29
		c3.37,3.09,7.43,3.37,12.2,0.7l3.37-1.82c1.68-0.98,2.81-1.4,3.79-0.56c1.12,0.98,0.84,2.38-0.84,4.21l0,0
		c-2.1,2.38-4.63,2.52-6.31,2.52h-0.56l-0.7,7.86h0.7c2.67,0.14,7.72-0.42,12.48-5.75l0.14-0.14c2.38-2.67,3.79-5.47,3.93-8
		c0.14-2.67-0.98-5.19-3.37-7.29c-3.51-3.23-7.29-3.23-12.62-0.28l-3.79,2.1c-1.4,0.84-2.24,0.84-2.95,0.14
		c-0.84-0.84-0.7-2.1,0.42-3.37l0,0c1.4-1.54,2.81-2.24,4.77-2.38h0.56L102.96,88.37L102.96,88.37z M392.91,93.42l4.35,3.79
		c1.82,1.54,2.24,3.37,1.12,4.63c-1.12,1.26-2.95,1.26-4.49-0.14l-4.63-3.93L392.91,93.42z M433.45,107.03l-24.55,19.5l13.19,16.69
		l5.47-4.35l-8.84-11.22l4.07-3.23l7.57,9.68l5.47-4.35l-7.57-9.68l4.07-3.23l8.84,11.22l5.47-4.35L433.45,107.03L433.45,107.03z
		 M71.4,117.69l-11.78,17.67l26.09,17.39l11.78-17.67l-5.75-3.93l-7.86,11.92l-4.35-2.95l6.87-10.24l-5.75-3.93l-6.87,10.24
		l-4.35-2.81l7.86-11.92L71.4,117.69L71.4,117.69z M459.26,144.2l-28.05,13.89l3.09,6.31l13.05-6.45l-8.84,14.73l3.65,7.57
		c0,0,6.45-10.8,6.87-11.5c2.67,2.81,7.15,3.23,10.94,1.26c5.89-2.95,7.72-8.7,4.49-15.29L459.26,144.2L459.26,144.2z M456.17,153.6
		l1.96,4.07c1.4,2.95,0.7,4.91-1.82,6.17c-2.52,1.26-4.63,0.56-6.03-2.24l-1.96-4.07L456.17,153.6L456.17,153.6z M47.27,158.09
		l-2.67,6.59l15.15,6.17l-22.02,10.1l-0.42,1.12L66.49,194l2.67-6.45l-15.15-6.17l22.16-10.1l0.42-1.12L47.27,158.09L47.27,158.09z
		 M476.79,182.64l-28.05,18.66l0.28,1.12l18.8,4.35l-14.73,12.48l0.28,1.12l33.39,3.79l-1.68-7.15l-16.13-1.96l13.19-11.08
		l-0.28-1.12l-16.83-3.93l13.47-8.98L476.79,182.64L476.79,182.64z M30.3,208.17l-1.12,7.01l16.13,2.52l-19.08,14.87l-0.14,1.12
		l31.14,4.91l1.12-6.87l-16.27-2.52l19.22-14.87l0.14-1.12L30.3,208.17L30.3,208.17z M358.4,222.61c1.54,2.38,1.54,5.61,1.4,7.72
		c2.1-0.56,3.65-0.56,4.77-0.56c-0.28-0.98-0.98-2.38-2.1-3.79C360.78,224.16,358.4,222.61,358.4,222.61L358.4,222.61z
		 M341.99,225.84c1.68,5.05,1.4,10.24,0.98,13.05c2.38-1.68,4.63-3.09,6.59-4.21c-0.42-0.84-0.98-2.1-1.82-3.65
		C346.2,228.23,341.99,225.84,341.99,225.84L341.99,225.84z M472.3,241.13c-8.84,0-16.13,7.15-16.13,16.13
		c0,8.84,7.15,16.13,16.13,16.13c8.84,0,16.13-7.15,16.13-16.13C488.43,248.28,481.28,241.13,472.3,241.13z M472.3,248.43
		c4.91,0,8.84,3.93,8.84,8.84c0,4.91-3.93,8.84-8.84,8.84c-4.91,0-8.84-3.93-8.84-8.84C463.61,252.35,467.53,248.43,472.3,248.43z
		 M56.81,257.68l-31.28,0.7l0.14,7.01l31.28-0.7L56.81,257.68L56.81,257.68z M58.21,283.35l-31,6.59l0.28,0.98l18.94,11.08
		l-12.76,17.67l-0.14,0.14l0.28,0.98l31-6.59l-1.4-6.87l-14.31,2.95l7.15-10.1l-0.14-0.84l-10.66-6.31l14.31-2.95L58.21,283.35
		L58.21,283.35z M454.49,289.81l-4.77,20.34l6.87,1.68l3.09-13.47l23.57,5.47l1.54-6.87L454.49,289.81L454.49,289.81z
		 M477.07,328.94l-34.65,1.54l-0.42,0.98l23.99,24.97l2.81-7.15l-11.78-12.34l16.97-0.84L477.07,328.94L477.07,328.94z
		 M430.64,355.31l-11.36,17.96l5.89,3.79l7.57-12.06l4.49,2.81l-6.59,10.38l5.89,3.79l6.59-10.38l4.35,2.81l-7.57,12.06l5.89,3.65
		l11.36-17.96L430.64,355.31L430.64,355.31z M414.79,388.7c-0.56,0-5.61,0-8.98,1.68c-1.82,0.84-3.37,1.96-4.63,3.23
		c-1.68,1.68-2.81,3.51-3.37,5.61c-0.84,3.51,0.14,7.01,2.67,9.4c2.38,2.24,5.75,2.95,9.12,1.96c1.12-0.42,2.38-0.98,3.79-1.68
		c1.68-0.84,4.35-2.1,5.47-2.24c2.95-0.14,2.81,3.93-0.84,5.75c-1.4,0.7-3.65,1.4-4.91,1.54l0.84,7.01c0.42,0,4.77-0.7,7.72-2.52
		c5.19-3.23,6.17-7.29,6.31-9.4c0.14-1.96-0.7-5.05-2.95-7.15c-1.82-1.82-4.35-2.67-7.01-2.38c-2.52,0.28-5.33,1.68-7.86,2.95
		c-1.12,0.56-2.24,1.12-2.81,1.26c-0.84,0.28-1.4,0.14-1.96-0.28c-0.42-0.42-0.84-1.26-0.56-2.38c0.42-1.68,1.96-3.23,4.21-4.35
		c1.54-0.7,4.35-0.98,5.89-0.98L414.79,388.7L414.79,388.7z"/>
</g>
</svg>
