<?xml version="1.0" encoding="utf-8"?>
<!-- Generator: Adobe Illustrator 27.0.0, SVG Export Plug-In . SVG Version: 6.00 Build 0)  -->
<svg version="1.1" id="Layer_1" xmlns="http://www.w3.org/2000/svg" xmlns:xlink="http://www.w3.org/1999/xlink" x="0px" y="0px"
	 viewBox="0 0 512 512" style="enable-background:new 0 0 512 512;" xml:space="preserve">
<style type="text/css">
	.st0{fill:#CD1141;}
	.st1{fill:#FFFFFF;}
	.st2{fill:#A0A0A3;}
</style>
<g id="XMLID_1_">
	<path id="XMLID_3_" class="st0" d="M512,256.28C511.86,397.68,397.12,512.14,255.72,512C114.32,511.86-0.14,397.12,0,255.72
		C0.14,114.46,114.74,0,256,0C397.4,0.14,512,114.88,512,256.28z"/>
	<path id="XMLID_4_" d="M256,498.81C121.9,498.81,13.19,390.1,13.19,256C13.33,123.02,120.21,14.73,253.19,13.19H256
		c134.1,0,242.81,108.71,242.81,242.67c0,63.4-24.83,124.42-69.3,169.73c-45.03,46.15-106.61,72.52-170.99,73.08L256,498.81z"/>
	<path id="XMLID_7_" class="st1" d="M255.3,47.83l-2.52,2.52v31l2.52,2.52h8.42l2.52-2.52v-31l-2.52-2.52H255.3z M279.99,89.64
		l-8.7,8.42h-23.71l-8.42-8.42V42.5l8.42-8.42h23.71l8.42,8.42v47.13H279.99z"/>
	<path id="XMLID_10_" class="st1" d="M443.55,159.77l-3.37-0.98l-27.77,13.47l-1.26,3.37l3.51,7.57l3.37,1.26l28.05-13.47l1.26-3.37
		L443.55,159.77z M416.89,200.03l-11.22-4.07l-10.24-21.18l4.07-11.5l42.22-20.06l11.22,3.79l10.24,21.32l-3.79,11.5L416.89,200.03z
		"/>
	<path id="XMLID_13_" class="st1" d="M107.45,113.76v3.51l22.44,21.6h3.51l6.17-6.17v-3.79l-22.16-21.6h-3.79L107.45,113.76z
		 M154.16,124.98l0.28,11.92l-16.55,17.11h-11.92l-33.53-32.68l-0.28-11.92l16.55-17.11l12.2-0.28L154.16,124.98z"/>
	<polygon id="XMLID_14_" class="st1" points="366.68,61.02 341.99,119.79 331.61,115.59 329.08,73.78 314.49,108.15 303.27,103.52 
		328.24,44.75 341.99,50.64 342.27,87.25 355.31,56.25 	"/>
	<path id="XMLID_17_" class="st1" d="M176.6,80.38l9.96-4.63c0.56-1.12,0.98-2.1,1.26-3.37l-3.37-7.86l-3.51-1.26l-9.96,4.63
		L176.6,80.38z M202.56,74.63l-2.81,9.96l17.81,17.25l-12.48,5.61l-16.55-15.99l-5.89,2.81l8.42,19.36l-11.5,4.77L154.16,59.9
		l27.49-11.92l11.64,4.77L202.56,74.63z"/>
	<polygon id="XMLID_18_" class="st1" points="416.89,118.39 408.48,110.26 373.27,145.74 363.87,136.63 399.08,100.72 390.66,92.58 
		400.34,82.76 426.43,108.71 	"/>
	<polygon id="XMLID_19_" class="st1" points="76.31,154.72 71.54,165.38 117.27,185.72 111.94,197.93 66.21,177.59 61.3,188.25 
		48.53,182.5 63.82,149.11 	"/>
	<polygon id="XMLID_20_" class="st1" points="426.29,317.58 419.84,329.5 415.35,327.26 414.09,329.5 410.16,337.22 411.28,340.44 
		417.6,344.09 416.89,343.53 420.12,342.55 427.84,328.24 439.48,324.73 458.84,334.69 462.06,346.06 451.12,367.24 439.76,370.74 
		430.08,365.69 436.39,353.77 441.3,356.3 446.63,346.34 445.37,342.83 440.18,340.16 436.67,341.29 429.52,355.31 417.6,358.82 
		398.24,348.86 394.45,337.22 405.39,316.04 417.03,312.81 	"/>
	<path id="XMLID_23_" class="st1" d="M90.62,335.96l5.05,9.68c1.12,0.56,2.38,0.98,3.51,1.26l7.57-4.07l0.98-3.51l-5.05-9.68
		L90.62,335.96z M98.19,361.63l-10.24-2.1l-15.99,18.8l-6.31-11.92l14.73-17.53l-3.09-5.89l-18.8,9.68l-5.61-10.94l56.53-29.46
		l14.03,26.51l-3.79,11.64L98.19,361.63z"/>
	<path id="XMLID_26_" class="st1" d="M186.56,427.55l8.84,3.79l3.37-1.54l3.51-8.14l-1.26-3.37l-9.12-3.79L186.56,427.55z
		 M181.65,438.78l-9.12,22.16l-11.22-4.63l24.41-59.06l26.93,11.22l4.63,11.5l-8.84,21.6l-8.84,4.63L181.65,438.78z"/>
	<polygon id="XMLID_27_" class="st1" points="278.58,427.84 266.94,427.98 267.5,477.91 253.9,478.19 253.48,427.98 241.97,428.26 
		241.69,414.23 278.44,414.09 	"/>
	<path id="XMLID_30_" class="st1" d="M315.06,418.58l-1.54,3.37l10.94,29.04l3.37,1.26l8.14-3.09l1.54-3.37l-10.94-29.04l-3.37-1.26
		L315.06,418.58z M352.65,448.6l-4.63,10.94l-22.16,8.42l-10.94-4.77l-16.83-44.05l4.77-10.94l22.16-8.42l10.94,4.77L352.65,448.6z"
		/>
	<path id="XMLID_33_" class="st1" d="M376.36,400.06l8.42-7.43l0.28-3.37l-5.61-6.87l-3.37-0.28l-8.42,7.15L376.36,400.06z
		 M399.5,386.74l0.28,10.38l22.16,11.64l-10.38,8.7l-20.34-10.38l-4.77,4.35l13.47,15.99l-9.12,8.14l-41.52-48.82l22.58-19.08
		l12.48,0.98L399.5,386.74z"/>
	<path id="XMLID_36_" class="st1" d="M129.33,408.9l8.84-17.53l-17.11,10.24L129.33,408.9z M129.05,439.2l-9.96-9.12l4.63-9.4
		l-13.75-12.76l-9.12,5.61l-9.96-9.4l57.79-34.65l9.96,9.12L129.05,439.2z"/>
	<path id="XMLID_37_" class="st2" d="M305.66,384.49l0.56,0.56c0.7,0,1.4-0.14,2.1-0.28l1.54-0.56l4.07-1.82l9.96-4.63l1.82-0.98
		l0.98-0.56l0.98-0.7l1.82-0.98l2.1-1.26l2.81-1.82l4.63-3.37l2.52-1.82l3.37-2.24l3.09-2.24l1.26-0.98l2.24-2.1l2.1-2.1l3.37-3.51
		l3.79-3.79l4.63-5.33l2.52-3.37l0.7-0.98l2.81-3.37l5.05-7.57l1.54-2.24l3.51-6.87l1.82-3.51l3.37-6.87l1.82-4.35l2.1-6.31
		c0,0,2.24-8.42,3.51-12.76c0.28-0.28,0.28-0.7-0.28-1.26c-0.7-0.98-1.26-2.1-1.82-3.37c-0.28-0.56-0.56-1.26-0.98-1.82
		c-0.56-0.56-1.26-1.54-1.82-2.1c-0.28-0.56-0.7-0.7-1.26-1.26c-0.98-0.7-2.1-2.1-2.81-2.52c-0.56-0.28-0.7-0.56-1.26-0.7
		c-2.67-2.24-5.61-4.07-8.84-5.33c-1.26-0.56-2.67-1.12-4.07-1.54c-1.12-0.42-2.38-0.84-3.51-0.98c-0.56-0.28-1.12-0.14-1.54,0.28
		c-0.28,0.28-0.28,0.7-0.28,1.54c-0.28,1.82-0.42,3.51-0.56,5.33c-0.28,1.82-0.42,3.51-0.56,5.33c-0.28,1.82-0.28,3.37-0.56,5.05
		c-0.28,2.1-0.56,4.21-0.98,6.31c-0.7,4.07-1.54,8.14-2.24,11.92c-0.14,1.12-0.42,2.24-0.7,3.37c-0.7,1.68-1.26,3.37-1.82,5.05
		c-0.84,3.79-1.96,7.43-3.37,10.94c-0.84,3.09-2.1,6.03-3.79,8.7c0,0.28,0,0.28-0.28,0.7c-0.7,1.82-1.54,3.51-2.24,5.61
		c-0.56,0.98-1.26,2.1-1.82,3.37c-0.7,1.54-1.54,2.95-2.52,4.35c-1.26,2.24-2.81,4.35-4.07,6.59c-0.84,1.54-1.68,2.95-2.81,4.35
		c-0.28,0.56-0.56,0.7-0.7,1.26c-0.7,1.26-1.54,2.52-2.52,3.51c-1.82,2.24-3.51,4.63-5.33,6.59c-1.26,1.26-2.52,2.52-3.79,3.79
		l-3.37,3.37c-0.28,0.56-0.56,0.56-0.7,0.7c-0.84,0.42-1.54,1.12-2.1,1.82c-1.4,1.4-2.95,2.81-4.63,3.79
		c-0.7,0.56-1.4,1.12-2.1,1.82C309.87,382.11,307.9,383.51,305.66,384.49z"/>
	<path id="XMLID_38_" class="st2" d="M395.43,277.18l0.28-0.28v-0.98l0.98-8.7l0.56-8.14v-9.4l-0.7-9.12c0,0-1.26-8.42-2.1-12.76
		c-0.28-1.54-1.26-2.1-2.52-2.81c-0.56-0.28-0.7-0.56-1.26-0.56c-0.98-0.28-1.96-0.56-2.81-0.98c-2.1-0.28-4.07-1.26-6.17-1.54
		c-2.52-0.56-5.05-0.56-7.57-0.98c-2.1,0-4.07-0.28-6.17-0.28h-4.35c-0.98,0-1.82,0-2.24,0.7c-0.56,0.56,0,1.54,0,2.52
		c0.28,2.1,0.7,3.09,0.98,4.77c1.12,5.89,1.96,11.78,2.24,17.81c0,2.81,0.28,5.33,0.28,8.14v2.1c0,0.42,0.14,0.84,0.28,1.26
		c0.42,0.28,0.84,0.56,1.26,0.7c0.56,0,0.98,0.14,1.54,0.28c0.7,0.14,1.4,0.28,2.1,0.56c2.24,0.7,4.77,1.54,7.43,2.52
		c1.54,0.7,3.09,1.4,4.63,2.24c0.14,0.14,0.28,0.28,0.56,0.28c0.98,0.7,2.1,1.54,2.81,2.1c2.24,1.54,4.35,3.51,6.17,5.61
		c0.14,0.42,0.56,0.84,0.98,0.98c0.7,0.7,1.82,2.81,2.52,3.51C395.15,276.9,395.15,277.18,395.43,277.18z"/>
	<path id="XMLID_39_" class="st2" d="M333.85,178.85h2.24c0.56,0,0.98,0,0.98-0.7c0.28-0.56,0-0.7-0.28-1.26
		c-0.28-0.56-1.82-3.09-1.82-3.09l-1.54-2.52l-6.59-9.12l-1.26-1.82l-1.26-1.82l-2.1-2.24l-5.33-5.61l-2.1-2.24l-8.14-7.57
		l-6.59-5.05l-2.52-1.26l-7.57-4.63l-5.61-3.09l-0.98-0.56l-4.63-1.54l-6.59-2.52l-0.56-0.28l-2.1-0.56l-2.52-0.56l-3.79-0.7h-2.1
		l-3.51-0.7l-4.07-0.28l-1.54-0.28h-2.52l-4.63,0.28l-4.35,0.56h-3.37l-3.09,0.28l-2.81,0.56l-2.52,0.7l-3.79,0.7h-0.7l-3.51,1.26
		l-2.1,0.7l-1.26,0.7l-3.09,0.7l-1.26,0.7l-1.82,0.98l-4.63,2.1l-5.89,2.24l-1.82,0.7l-4.07,2.24l-3.51,2.24l-3.37,1.82l-1.26,0.56
		l-3.51,2.1l-0.7,0.28l-4.07,3.09l-3.37,2.24l-0.7,0.56l-3.79,3.09l-1.26,0.98c-0.7,0.56-1.4,1.26-2.1,2.1l1.26-0.28l2.81-0.98h0.56
		l3.79-1.54h0.56l4.07-1.82l2.24-0.56l2.1-0.7l3.09-1.26l7.57-2.81h0.56l3.79-1.26l3.09-1.26l0.56,0.28l5.89,0.28l3.79,0.28h0.28
		l7.43,0.7l10.38,0.56v0.28l3.79,3.09h0.28l3.79,3.79l0.28-0.28l5.33,0.28l0.28-0.28l13.05,0.7v0.28l5.89,3.51h0.28l10.24,4.77v0.56
		l5.89-2.24l8.7,2.81l1.54,2.52h3.09l3.09,3.37h0.28l2.52,2.81v0.28h0.28l6.59,1.54l2.52,3.79l6.17,2.24
		c3.37,0.84,6.73,1.54,10.24,2.1C327.68,179.27,330.77,179.27,333.85,178.85z"/>
	<path id="XMLID_40_" class="st2" d="M391.93,218.41c-0.28-0.7-0.98-2.81-0.98-2.81l-0.28-1.26l-0.56-1.26l-0.98-3.37l-0.98-2.81
		l-3.37-7.15l-1.54-3.51l-1.54-4.07l-2.24-3.37l-2.1-3.79l-1.26-2.24l-0.7-0.7l-9.12-12.76l-1.54-1.54c0-0.28-0.28-0.42-0.56-0.56
		c0,0-2.81,4.63-4.07,6.17c-1.26,1.26-3.79,3.51-3.79,3.51s-2.1,1.54-2.24,1.82c-0.7,0.42-1.4,0.84-2.1,1.26l-2.1,1.26
		c-0.56,0.28-1.12,0.56-1.82,0.7c-0.56,0.28-0.7,0.28-0.7,0.56c-0.28,0.28-0.28,0.28-0.28,0.7c0,0.56,0.28,0.56,0.28,0.7
		c0.7,1.96,1.54,3.79,2.52,5.61c1.4,2.52,2.67,5.33,3.51,8.14c0.42,0.84,0.7,1.68,0.98,2.52c0.7,2.52,1.82,4.77,2.24,7.15
		c0.28,1.26,0.7,2.1,0.98,3.37c0.28,0.98,0.56,2.24,0.7,3.09c0.28,0.7,0.56,1.26,1.54,0.98h2.1c2.52,0,4.77-0.28,7.43-0.28
		c0.7,0,5.89,0.56,5.89,0.56s1.54,0.28,2.52,0.56c2.1,0.28,3.79,0.7,5.89,0.98c1.54,0.42,3.09,0.84,4.63,1.54l2.24,0.7
		c0.28,0,0.56,0.14,0.7,0.28C391.93,218.83,391.93,218.55,391.93,218.41z"/>
	<path id="XMLID_41_" class="st2" d="M359.1,162.86c-0.14-0.42-0.42-0.84-0.7-1.26l-0.56-0.7l-1.26-1.82l-0.7-1.26l-1.82-1.54
		c-0.28-0.14-0.42-0.42-0.7-0.56c-3.09-2.24-8.84-7.15-8.84-7.15l-1.54-1.26l-3.09-2.81l-15.29-9.12l-12.2-5.61l-6.59-2.52
		l-2.24-0.7l-7.86-2.81l-5.61-1.54l-5.33-0.98h-0.7l-0.56,0.56c0,0,0.56,0.56,0.7,0.56c1.82,0.56,3.51,1.26,5.05,1.82
		c1.26,0.56,2.24,0.98,3.51,1.54c0.84,0.14,1.54,0.42,2.1,0.98c2.52,1.26,5.05,2.81,7.86,4.35c1.54,0.98,2.95,2.1,4.35,3.37
		l3.09,2.24c0.56,0.28,1.12,0.84,1.54,1.26c0.28,0.28,0.56,0.56,0.7,0.56c1.54,1.26,3.37,2.52,4.63,3.79
		c1.26,1.68,2.81,3.23,4.35,4.63c1.54,1.54,2.81,2.81,4.07,4.35c0.98,1.4,2.1,2.67,3.37,3.79c2.24,2.24,3.79,4.77,6.17,7.15
		c0.28,0.28,0.28,0.56,0.56,0.98c1.26,2.1,2.52,4.21,4.07,6.17c1.12,1.4,2.24,2.81,3.09,4.35c0.42,0.98,0.98,1.96,1.54,2.81
		c0.56,0.28,0.98,0.7,1.26,0.7c0.42,0,0.7-0.28,0.98-0.56l0.98-0.28c0.56-0.28,1.26-0.7,1.82-0.98c0.7-0.14,1.26-0.56,1.82-0.98
		c0.98-0.56,1.82-1.26,2.52-2.1c0.7-0.7,2.52-2.81,2.52-2.81l1.26-1.54l2.1-3.51C358.82,164.12,359.38,163.42,359.1,162.86z"/>
	<path id="XMLID_42_" class="st2" d="M352.65,214.2c-0.7-2.52-1.26-5.05-2.24-7.57c-0.7-2.1-1.4-4.07-2.24-6.17
		c-0.56-1.26-0.7-2.52-1.26-3.79c-0.28-0.7-0.56-1.26-0.7-2.1c-1.12-3.09-2.52-6.03-4.35-8.84c0-0.14-0.14-0.42-0.28-0.56
		c-0.28-0.28-0.28-0.56-0.56-0.7c-0.56-0.28-0.7,0-1.54,0c-1.26,0-3.09,0.28-3.51,0.28c-0.7,0-3.37,0.28-5.33,0.28h-3.09l-6.59-0.98
		c-2.52-0.28-7.86-1.54-7.86-1.54l-4.35-1.54l-5.05-1.82l-0.28,0.28l-7.86-0.7l-0.28,0.28l-4.35-3.37h-0.56l-2.81-2.52v-0.56
		l-3.09-0.56l-0.56,0.28l-2.52-0.98l-0.28-0.28l-5.61,0.56l-5.33-2.1l-18.1,0.98l-0.28-0.28l-3.51,0.28l-0.28,0.56l-8.84,0.56
		l-0.28-0.28l-12.76,7.43l-0.28,0.56l-0.56,0.56l-0.28-0.28l-6.31-0.56H206.9l-3.37-0.28l-0.98-0.56l-11.64,9.12v0.28l-4.07,3.37
		l-4.63-2.24l-0.28,0.28l-1.82-0.56c0,0-8.7,2.1-8.42,2.1l-8.14-1.26l-0.56-0.28l-1.26,1.54l-3.37,1.54v0.28l-6.31,5.05l-9.12,6.31
		l-10.24,7.57l-4.63,3.37l-0.28,2.1l-1.82,4.35l-0.7,3.79l-1.26,7.86l-0.7,3.37l-0.56,4.07l-0.98,8.42l-0.56,18.38l0.56,0.98
		l0.28,5.05c0,0,0,0.98,0.28,0.98l22.58-23.15l7.15-3.09l6.31-0.28l3.79-4.35l0.28-0.7H163l10.24-0.98l0.56-0.28h4.35l1.26-1.54
		l4.63-2.81l5.05-3.37h13.47l0.28,0.28l5.33,0.56l4.35-0.7l7.57-7.57l6.17-5.89l9.12-0.98l0.28-0.56l0.56,0.56l4.63,2.1l0.56-0.28
		l4.07-0.56h0.28l3.79-0.7h0.28l4.35,3.51l0.28-0.28l8.7-0.28l0.7-0.56l7.15,0.28l0.28,0.28l1.26-0.28v-0.28l2.81-1.26h0.56
		l3.09-1.54l0.28-0.28l3.51-1.26l0.28-0.56l9.96-3.79l1.82-0.56l0.28-0.28l0.56,0.56l2.81,1.26h0.98l3.09,1.82l0.28-0.28l0.7-0.56
		h0.28l1.54-0.7v-0.28l2.24-0.56l5.89,1.54l1.26-0.28l0.98,0.56l4.35,0.7l4.07,1.54l2.24-0.28l0.98,0.56l0.56-0.28
		c0,0,8.14-0.98,12.2-1.26c2.81-0.28,5.33-0.56,7.86-0.7c1.54-0.28,3.09-0.28,4.63-0.56C352.65,215.6,353.21,215.04,352.65,214.2z"
		/>
	<path id="XMLID_43_" class="st2" d="M358.82,256c0-0.7-0.28-0.98-0.28-1.54c-0.28-1.54-0.28-3.09-0.28-4.63
		c0-0.56-0.28-1.26-0.28-1.82c-0.28-1.96-0.28-3.93-0.28-5.89c-0.28-2.52-0.7-4.77-0.98-7.43c-0.28-1.82-0.56-3.79-0.98-5.61
		c-0.28-1.96-0.56-3.93-0.98-5.89c-0.56-2.1-0.7-2.1-2.81-2.1c-0.28,0-0.56,0-0.56,0.28c-0.84,0.14-1.68,0.28-2.52,0.28
		c-4.07,0.56-7.86,0.7-11.64,1.26l-11.5,4.07l-16.55-0.56l-1.82-0.7v0.56l-5.05,3.51h-0.56l-3.79,3.51l-0.28,0.56l-9.96,1.26
		l-8.84,7.15h-0.98l-4.77,2.81l-1.82,0.28l-2.1,1.54l-0.56-0.28l-9.12-0.7l-1.54,1.82V248l-7.86,8.84l-0.28,0.56h-0.28l-10.24,11.5
		h-2.81l-0.28,0.28l-8.42,1.54h-0.7v0.56l-14.03,7.57l-6.17-0.7l-1.26,0.56l-6.17-0.56l-6.17,6.59l-3.79,0.7h-2.1l-2.1,0.7h-0.84
		v0.28l-7.57,5.89l-0.98,0.28l-11.64,9.12v0.56l-7.43,17.81l0.56,0.7l-12.2,0.98l-3.79,3.51l-0.56,1.26l5.61,7.43l3.79,6.17
		l3.51,4.63l5.61,5.89v0.56c0.28,0,0.98,0,0.98,0.28l3.37,0.98l4.07,1.26l0.28,0.28l0,0h0.28l6.87,2.81h0.56l0.28,0.28h0.7
		l1.54,1.26l2.81-1.54h0.28l1.26-0.98l10.38,2.52l7.57-3.79l16.83-1.54l6.87-11.22c1.26-1.26,3.09-3.09,3.09-3.09h0.56l2.24-2.24
		v-0.28l4.35-4.07l2.1-2.1l0.56-0.28l2.24-2.24l2.1-2.1l0.56-0.28l-0.56-1.54l1.82-7.43l3.79-0.98l0.28-0.28l0.98-0.28v-0.56
		l5.05-8.42h0.56l2.1-4.35l3.51-1.82l0.56-0.7l0.56,0.28l2.1-0.98h0.28l3.51-1.82l0.56-0.56l12.2-5.61h0.98v-0.7l0.56-0.28
		l1.26-4.35l4.07-1.82l4.35-0.28l4.07-3.09l6.17,0.56l0.56,0.28l0.28-0.28l8.42-3.51v-0.98l1.82-3.79l4.07-0.98l0.28-0.28l5.33-1.26
		l2.24-2.52h0.28l1.26-1.26l3.79,0.56v0.28l2.24,0.28l1.26,0.28c0,0,5.33-2.52,7.86-3.51c0.98-0.28,1.96-0.56,2.81-0.98
		c1.26-0.56,2.52-0.7,3.79-1.26c0.7,0,1.4-0.28,2.1-0.56l2.52-0.56l2.81-0.56l2.1-0.28h1.26c0.42,0,0.98-0.14,1.26-0.56
		c0.56-0.28,0.28-0.7,0.56-0.98C358.82,256.98,358.82,256.56,358.82,256z"/>
	<path id="XMLID_44_" class="st2" d="M358.82,266.66c0-0.56-0.14-1.12-0.56-1.54c-0.28-0.28-0.7-0.42-0.98-0.56
		c-0.28,0-1.82,0.28-1.82,0.28l-2.24,0.28c-0.56,0-0.56,0.28-0.7,0.28c-1.54,0.14-2.95,0.56-4.35,0.98
		c-1.54,0.28-3.09,0.84-4.63,1.54c-1.82,0.56-3.51,1.4-5.05,2.24c-0.56,0.28-5.89,2.81-8.14,4.07l-3.37,3.37v0.56h-2.52v0.28
		l-6.31,2.1v0.7l-0.7,0.56v0.56l-3.09,5.33h-0.56v0.56c0,0-0.56,0.7-1.26,2.1l-13.19,8.42h-0.28l-2.24,1.82l-1.26,5.61l-1.26,1.26
		l-5.33,19.36l0.7,2.24l-7.57,3.51h-1.26l-1.54,6.59l-0.28,0.28l-2.1,6.17l0.28,0.28l-0.7,5.05l-0.28,0.56l0.28,0.56l-7.57,11.64
		h-0.56l-1.82,3.09v0.56l-6.31,8.84l-6.59,4.07l0.28,0.56l-0.28,2.81l0.56,0.98l-0.7,0.28l-4.77,2.81h-0.56l-7.15,4.07l-0.7,1.26
		l2.52,0.56l4.63,0.28l3.37,0.28h10.66l9.96-1.26l5.89-1.26l4.63-1.26l4.77-1.26l6.17-2.52l0.56-0.28l1.82-0.98
		c2.52-1.26,4.91-2.67,7.15-4.35c3.93-2.81,7.57-5.75,11.22-8.84c1.12-1.12,2.24-2.24,3.37-3.51c1.12-0.98,2.24-2.1,3.37-3.37
		c0.28-0.28,0.56-0.28,0.56-0.7c0.56-0.7,1.12-1.4,1.82-2.1c0.56-0.42,0.98-0.98,1.26-1.54c0.84-1.12,1.82-2.1,2.81-3.09
		c0.98-0.7,1.68-1.54,2.24-2.52c1.26-1.54,2.38-3.37,3.37-5.05c1.68-2.24,3.23-4.49,4.63-6.87c1.26-2.52,2.52-5.05,4.07-7.57
		c1.26-2.1,2.24-4.35,3.37-6.31c1.54-3.79,3.37-7.57,4.63-11.22c1.68-3.93,2.95-8,3.79-12.2c0.56-3.23,1.4-6.31,2.52-9.4
		c0-0.42,0.14-0.84,0.28-1.26c0.56-2.52,0.7-5.05,1.26-7.57c0.28-2.24,0.56-4.63,0.98-7.15c0.42-1.54,0.7-3.23,0.7-4.77
		c0-2.24,0.28-4.63,0.28-6.87v-0.7C358.4,267.22,358.68,266.94,358.82,266.66z"/>
</g>
</svg>
