<?xml version="1.0" encoding="utf-8"?>
<!-- Generator: Adobe Illustrator 26.5.0, SVG Export Plug-In . SVG Version: 6.00 Build 0)  -->
<svg version="1.1" id="Layer_1" xmlns="http://www.w3.org/2000/svg" xmlns:xlink="http://www.w3.org/1999/xlink" x="0px" y="0px"
	 viewBox="0 0 512 512" style="enable-background:new 0 0 512 512;" xml:space="preserve">
<style type="text/css">
	.st0{fill:#0067B1;}
	.st1{fill:#FFFFFF;}
	.st2{fill:#ED174F;}
</style>
<g id="XMLID_1_">
	<circle id="XMLID_35_" class="st0" cx="256" cy="256" r="256"/>
	<path id="XMLID_2_" class="st1" d="M256,446.63c-105.07,0-190.63-85.57-190.63-190.63S150.93,65.37,256,65.37
		S446.63,150.93,446.63,256S361.07,446.63,256,446.63z M256,73.36C155.28,73.36,73.36,155.28,73.36,256S155.28,438.64,256,438.64
		S438.64,356.72,438.64,256S356.72,73.36,256,73.36z"/>
	<g id="XMLID_3_">
		<g id="XMLID_4_">
			<path id="XMLID_32_" class="st1" d="M372.15,198.07c8.14-6.03,15.99-7.15,22.86-5.89c9.26,1.54,17.96,7.72,25.39,16.41
				c-7.43-25.53-20.48-48.68-38.01-67.75c-7.01,5.61-18.52,15.01-33.39,28.05c4.77,5.05,9.4,11.36,13.75,16.83
				C366.12,189.79,369.2,193.86,372.15,198.07z"/>
			<path id="XMLID_31_" class="st1" d="M316.04,139.99c9.54,7.29,18.66,14.45,27.35,23.15c14.87-12.91,26.23-22.3,33.39-28.05
				c-16.13-16.13-35.63-29.04-57.23-37.73c5.19,7.86,8.28,16.83,6.31,25.95C324.59,129.33,321.37,134.8,316.04,139.99z"/>
			<path id="XMLID_30_" class="st1" d="M276.2,114.88c11.36,5.61,22.44,12.48,33.24,20.2c5.19-4.77,7.72-9.26,8.56-13.47
				c2.24-10.38-4.63-20.9-12.76-29.32c-15.57-4.77-32.26-7.29-49.38-7.29c-22.86,0-44.61,4.49-64.53,12.62
				C218.27,95.25,247.58,100.72,276.2,114.88z"/>
			<path id="XMLID_5_" class="st1" d="M393.61,200.03c-5.89-0.98-11.64,0.56-17.11,4.63c18.52,24.97,27.35,55.69,29.88,79.4
				l-9.12-4.21c-2.38-22.58-10.1-46.99-26.79-69.58c-11.64,13.05-21.74,29.32-29.18,70.42l-8.7,3.37
				c8.98-51.62,21.74-68.31,33.39-80.52c-6.87-9.82-15.71-20.2-24.27-29.18c-16.41,14.31-36.61,31.84-59.06,52.32l-5.33-5.89
				c22.3-20.34,42.5-37.87,58.92-52.18c-8.56-8.7-16.69-15.99-26.37-23.43c-18.66,13.19-52.74,22.86-103.1,29.32l-0.98-8
				c53.02-6.73,81.92-16.55,97.21-26.37c-9.68-6.73-19.78-12.91-30.16-18.1c-37.73-18.8-76.31-21.32-108.15-10.66
				c-41.66,26.37-70.98,70.28-77.99,121.2c5.05-6.87,11.64-14.59,20.2-23.29l-0.28,11.22C96.09,233,89.35,243.09,85.15,250.95
				c0,1.54-0.14,3.23-0.14,4.77c0,43.2,15.99,82.48,42.36,112.64c8.84-9.4,4.07-4.21,23.43-23.43l8.84,2.1
				c-19.64,19.5-15.99,16.69-26.23,27.77c28.34,29.18,66.91,48.25,109.97,51.34c30.72-12.48,55.69-38.86,69.58-82.06l10.52-3.37
				c-14.73,46.85-39.84,72.24-63.12,85.85c56.39-1.4,105.91-30.02,136.07-73.22c0.56-6.17,0.84-10.38,0.84-10.52l8-4.91
				c0,0.14,0,0.7-0.14,1.68c14.03-24.83,22.02-53.44,22.02-83.88c0-8.42-0.56-16.83-1.82-24.97
				C417.6,215.32,405.95,202.13,393.61,200.03z M167.49,339.32l-0.7-11.78c7.15-7.01,14.17-13.75,21.32-20.76l1.82,9.26
				C182.78,322.91,174.64,332.31,167.49,339.32z"/>
		</g>
		<g id="XMLID_6_">
			<g id="XMLID_7_">
				<g id="g14521_1_" transform="translate(485.0269,282.9667)">
					<path id="path14523_1_" class="st0" d="M-325.22-146.11l1.54,5.05h5.33l-4.35,3.23l1.54,4.91l-4.21-3.09l-4.21,3.09l1.54-4.91
						l-4.35-3.23h5.33L-325.22-146.11z"/>
				</g>
				<g id="g14525_1_" transform="translate(486.6294,282.0345)">
					<path id="path14527_1_" class="st0" d="M-295.11-126.7l1.54,5.05h5.33l-4.35,3.23l1.54,4.91l-4.21-3.09l-4.21,3.09l1.54-4.91
						l-4.35-3.23h5.33L-295.11-126.7z"/>
				</g>
				<g id="g14529_1_" transform="translate(485.9423,282.7542)">
					<path id="path14531_1_" class="st0" d="M-308.02-141.7l1.54,5.05h5.47l-4.35,3.23l1.54,4.91l-4.21-3.09l-4.21,3.09l1.54-4.91
						l-4.35-3.23h5.33L-308.02-141.7z"/>
				</g>
				<g id="g14533_1_" transform="translate(486.8898,281.1519)">
					<path id="path14535_1_" class="st0" d="M-290.24-108.4l1.54,5.05h5.33l-4.35,3.23l1.54,4.91l-4.21-3.09l-4.21,3.09l1.54-4.91
						l-4.35-3.23h5.33L-290.24-108.4z"/>
				</g>
				<g id="g14537_1_" transform="translate(486.7758,280.2202)">
					<path id="path14539_1_" class="st0" d="M-292.39-89l1.68,5.05h5.33l-4.35,3.23l1.68,4.91l-4.21-3.09l-4.21,3.09l1.54-5.05
						l-4.35-3.23h5.33L-292.39-89z"/>
				</g>
				<g id="g14541_1_" transform="translate(486.2607,279.4755)">
					<path id="path14543_1_" class="st0" d="M-302-73.59l1.54,5.05h5.33l-4.35,3.23l1.54,4.91l-4.21-3.09l-4.21,3.09l1.54-4.91
						l-4.35-3.23h5.33L-302-73.59z"/>
				</g>
				<g id="g14545_1_" transform="translate(485.4517,279.0599)">
					<path id="path14547_1_" class="st0" d="M-317.19-64.92l1.68,5.05h5.33l-4.35,3.23l1.54,4.91l-4.21-3.09l-4.21,3.09l1.54-5.05
						l-4.35-3.23h5.33L-317.19-64.92z"/>
				</g>
				<g id="g14549_1_" transform="translate(483.3974,282.1165)">
					<path id="path14551_1_" class="st0" d="M-355.75-128.35l-1.68,5.05h-5.33l4.35,3.23l-1.54,4.91l4.21-3.09l4.21,3.09l-1.68-4.91
						l4.35-3.23h-5.33L-355.75-128.35z"/>
				</g>
				<g id="g14553_1_" transform="translate(484.0669,282.7542)">
					<path id="path14555_1_" class="st0" d="M-343.28-141.7l-1.54,5.05h-5.33l4.35,3.23l-1.54,4.91l4.21-3.09l4.21,3.09l-1.54-4.91
						l4.35-3.23h-5.33L-343.28-141.7z"/>
				</g>
				<g id="g14557_1_" transform="translate(483.0862,281.2671)">
					<path id="path14559_1_" class="st0" d="M-361.63-110.74l-1.54,5.05h-5.47l4.35,3.23l-1.54,5.05l4.21-3.09l4.21,3.09l-1.54-5.05
						l4.35-3.23h-5.33L-361.63-110.74z"/>
				</g>
				<g id="g14561_1_" transform="translate(483.1685,280.3345)">
					<path id="path14563_1_" class="st0" d="M-360.05-91.48l-1.68,5.05h-5.33l4.35,3.23l-1.54,4.91l4.21-3.09l4.21,3.09l-1.68-4.91
						l4.35-3.23h-5.33L-360.05-91.48z"/>
				</g>
				<g id="g14565_1_" transform="translate(483.6833,279.5736)">
					<path id="path14567_1_" class="st0" d="M-350.45-75.65l-1.54,5.05h-5.33l4.35,3.23l-1.54,4.91l4.21-3.09l4.21,3.09l-1.54-4.91
						l4.35-3.23h-5.33L-350.45-75.65z"/>
				</g>
				<g id="g14569_1_" transform="translate(484.4928,279.0914)">
					<path id="path14571_1_" class="st0" d="M-335.25-65.61l-1.54,5.05h-5.33l4.35,3.23l-1.54,4.91l4.21-3.09l4.21,3.09l-1.68-5.05
						l4.35-3.09h-5.33L-335.25-65.61z"/>
				</g>
			</g>
			<g id="XMLID_8_">
				<g id="g14625_1_" transform="translate(495.7773,272.2524)">
					<path id="path14627_1_" class="st0" d="M-137.69,64.9h-27.91v-7.01l5.05-0.7V35.3c0-7.86-0.98-11.5-6.59-11.5v-6.17l19.78-5.75
						c2.24,4.35,2.95,9.4,3.23,14.45h0.14c1.96-6.03,4.49-14.31,10.94-14.31c5.61,0,8.14,4.35,8.14,9.68s-2.38,9.82-6.45,9.82
						c-2.81,0-5.33-1.26-6.59-1.68c-3.65-1.26-4.77,14.45-4.77,17.81v9.4l5.05,0.7L-137.69,64.9L-137.69,64.9z"/>
				</g>
				<g id="g14629_1_" transform="translate(498.295,274.5579)">
					<path id="path14631_1_" class="st0" d="M-93.47,19.68c0,4.35-3.65,6.45-7.72,6.45c-4.77,0-8.14-3.93-8.98-8.56
						c-2.1,0-3.51,1.12-3.51,4.49c0,8.14,22.72,2.38,22.72,22.72c0,15.29-11.08,19.08-21.74,19.08c-6.45,0-17.81-0.84-17.81-10.66
						c0-4.49,2.52-7.86,6.87-7.86c6.87,0,8.14,6.31,9.26,10.8c0.42,1.12,1.4,1.4,2.38,1.4c3.65,0,6.31-1.54,6.31-3.93
						c0-9.26-23.43-5.61-23.43-25.53c0-12.62,15.01-18.38,22.16-18.38C-98.52,9.86-93.47,12.52-93.47,19.68"/>
				</g>
				<g id="g14633_1_" transform="translate(489.2514,272.495)">
					<path id="path14635_1_" class="st0" d="M-252.54,60.09c-9.96,0-9.54-12.76-9.54-27.35c0-14.73,1.4-27.35,9.54-27.35
						c9.96,0,10.52,12.76,10.52,27.35C-242.16,47.46-244.12,60.09-252.54,60.09 M-240.19-11.73c-8.84,0-17.96,3.51-22.72,10.94
						h-0.14l0.84-12.91c0.56-8.7,2.52-32.4,14.59-32.4c5.75,0,4.49,7.72,5.19,11.22c1.54,8.14,5.19,17.53,16.41,17.53
						c7.57,0,15.57-5.05,15.57-15.43c0-15.99-13.33-26.37-29.46-26.37c-41.52,0-58.21,31.7-58.21,70.14
						c0,33.39,12.91,62.14,48.68,62.14c23.15,0,41.94-16.55,41.94-44.19C-207.65,5.52-220.13-11.73-240.19-11.73"/>
				</g>
				<g id="g14637_1_" transform="translate(482.5327,278.9433)">
					<path id="path14639_1_" class="st2" d="M-370.83-66.23v49.52c27.77,4.07,60.74,1.4,84.16-32.82c0.98-1.4,1.54-0.42,0.98,0.84
						c-6.59,13.33-22.02,25.53-35.35,36.05c-12.91,10.1-47.27,46.15-46.85,77.99c0,2.38,0.14,1.82,2.24,0.14
						c10.38-7.72,30.86-8,43.48-1.96c1.68,0.84,1.96,0.56,1.68-1.68c-2.38-24.69,3.09-51.62,13.75-67.19
						c7.29-10.8,26.93-38.72,30.3-60.6c0.42-2.24-0.84-1.96-3.65,1.12c-22.16,23.43-62.28,22.86-88.23-1.96
						C-369.99-68.33-370.69-67.63-370.83-66.23"/>
				</g>
				<g id="g14641_1_" transform="translate(492.8196,274.1113)">
					<path id="path14643_1_" class="st0" d="M-189.8,28.48c0-3.93,0-11.22,4.35-11.22c4.07,0,5.05,6.17,5.05,9.54
						c0,4.07-1.96,5.05-4.77,5.75l-4.63,1.26L-189.8,28.48L-189.8,28.48z M-178.16,52.88c-6.17,0-9.82-5.61-10.38-11.22l26.37-7.15
						c-0.7-12.91-8.14-24.41-22.16-24.41c-14.87,0-24.83,11.64-24.83,28.76c0,13.33,7.72,25.53,23.85,25.53
						c9.26,0,18.24-4.35,23-12.48l-5.19-6.17C-170.16,49.8-173.11,52.88-178.16,52.88"/>
				</g>
			</g>
			<g id="XMLID_9_">
				<g id="XMLID_10_">
					<polyline id="XMLID_23_" class="st1" points="40.4,300.47 34.65,316.6 18.24,316.6 31.56,326.28 26.65,342.69 40.4,333.15 
						54.15,342.69 49.1,326.28 62.56,316.6 46.15,316.6 40.4,300.47 					"/>
					<polyline id="XMLID_22_" class="st1" points="101.7,390.1 95.95,406.23 79.4,406.23 92.86,415.91 87.95,432.32 101.7,422.79 
						115.45,432.32 110.4,415.91 123.86,406.23 107.31,406.23 101.7,390.1 					"/>
					<polyline id="XMLID_21_" class="st1" points="198.35,447.33 192.74,463.47 176.18,463.47 189.65,473.14 184.74,489.56 
						198.35,480.02 212.09,489.56 207.18,473.14 220.65,463.47 204.1,463.47 198.35,447.33 					"/>
					<polyline id="XMLID_20_" class="st1" points="316.18,447.33 310.43,463.47 293.87,463.47 307.34,473.14 302.43,489.56 
						316.18,480.02 329.78,489.56 324.87,473.14 338.34,463.47 321.79,463.47 316.18,447.33 					"/>
					<polyline id="XMLID_19_" class="st1" points="416.05,389.4 410.44,405.53 393.89,405.53 407.36,415.21 402.45,431.62 
						416.05,422.08 429.8,431.62 424.89,415.21 438.36,405.53 421.8,405.53 416.05,389.4 					"/>
					<polyline id="XMLID_18_" class="st1" points="471.88,299.63 466.13,315.76 449.58,315.76 463.04,325.44 458.13,341.85 
						471.88,332.31 485.49,341.85 480.58,325.44 494.04,315.76 477.49,315.76 471.88,299.63 					"/>
				</g>
				<g id="XMLID_11_">
					<path id="XMLID_12_" class="st1" d="M33.53,235.38l-7.57-0.84c-3.65-0.42-4.49-0.28-3.93-4.49c0.42-3.37,1.82-5.89,5.47-6.03
						c0.14,0,0.28,0,0.42,0c2.24,0,4.35,1.26,5.33,2.95c1.26,2.24,0.84,4.49,0.56,7.15L33.53,235.38 M28.9,214.2
						c-0.28,0-0.56,0-0.7,0c-3.79,0.28-7.01,2.38-8.56,6.03c-1.12,2.67-1.54,6.45-1.96,9.12l-2.1,17.67l4.35,0.42
						c0.28-2.24,0.98-4.35,2.52-4.35c0.14,0,0.14,0,0.28,0l19.64,2.1c1.54,0.14,3.51,0.28,4.21,1.82c0.28,0.56,0.42,1.68,0.42,2.38
						l-0.14,1.12l4.35,0.42l2.1-18.24l-4.35-0.56c-0.28,1.82-0.84,4.49-2.52,4.49h-0.14l-8.28-0.84l0.56-4.21
						c0.42-4.21,0.84-8.56-0.7-12.2C36.19,216.16,32.82,214.2,28.9,214.2"/>
					<path id="XMLID_15_" class="st1" d="M42.5,146.87l-7.01,16.83l4.07,1.54c0.7-1.54,1.68-3.37,3.09-3.37c0.28,0,0.42,0,0.7,0.14
						l7.29,2.81l-5.05,12.06l-4.49-1.82c-1.68-0.7-3.51-1.26-3.79-3.23c0-1.26,0.14-1.82,0.7-3.09l-4.07-1.68l-7.01,17.39L31,186
						l0.42-0.84c0.56-1.12,1.54-2.67,2.81-2.67c0.28,0,0.42,0,0.7,0.14l18.52,7.43c1.54,0.56,3.37,1.26,3.65,2.95
						c0.14,0.56,0,1.82-0.28,2.24l-0.42,1.12l4.07,1.68l7.15-17.11l-4.07-1.68c-0.7,1.68-1.68,3.51-3.23,3.51
						c-0.28,0-0.42,0-0.7-0.14l-9.82-3.79l5.05-12.2l7.01,2.81c1.54,0.7,3.37,1.26,3.65,2.95c0.14,0.56,0,1.68-0.28,2.38l-0.42,0.98
						l4.07,1.68l6.87-16.83l-4.07-1.68c-0.56,1.4-1.68,3.37-3.09,3.37c-0.14,0-0.42,0-0.56-0.14l-18.52-7.43
						c-1.68-0.7-3.51-1.26-3.65-3.23c0-1.12,0-1.68,0.7-2.95L42.5,146.87"/>
					<path id="XMLID_14_" class="st1" d="M68.73,107.45l-10.38,15.29l3.65,2.38l0.56-0.7c0.7-0.98,1.82-2.1,2.95-2.1
						c0.28,0,0.7,0.14,0.98,0.28l16.55,10.94c1.54,0.98,3.23,1.96,2.95,3.93c-0.14,0.98-0.56,1.82-1.26,2.81l3.65,2.38l10.24-15.15
						l-3.51-2.38c-0.84,1.12-2.1,2.67-3.37,2.67c-0.28,0-0.56-0.14-0.98-0.28l-16.69-10.94c-1.54-0.98-3.23-2.1-2.95-3.93
						c0.14-0.84,0.56-1.82,1.12-2.67L68.73,107.45"/>
					<path id="XMLID_13_" class="st1" d="M102.68,73.36L89.35,85.29l2.95,3.23c0.98-0.98,2.24-1.68,3.23-1.68
						c0.56,0,0.98,0.14,1.4,0.7l13.33,14.59c1.26,1.26,2.67,2.81,1.96,4.49c-0.28,0.84-0.98,1.54-1.68,2.24l2.95,3.23l22.16-19.92
						l-5.47-11.64l-4.07,1.12c0.84,3.37,1.26,5.05,0.84,8.28c-0.56,3.23-1.54,5.75-4.07,8.14c-0.42,0.42-1.54,1.12-2.52,1.12
						c-0.42,0-0.7-0.14-0.84-0.42l-13.75-15.01c-1.26-1.4-2.67-2.67-1.96-4.49c0.42-1.12,0.84-1.4,1.96-2.38L102.68,73.36"/>
					<path id="XMLID_36_" class="st1" d="M160.05,58.49l-0.7-12.62l8.56,9.26L160.05,58.49 M161.46,36.33l-7.15,3.09l0.98,26.93
						c0.14,4.21,0.98,6.87-3.23,9.68l1.82,4.07l13.89-6.03L166.08,70c-0.7,0.14-2.1,0.84-3.23,0.84c-0.56,0-1.12-0.14-1.4-0.56
						c-0.42-0.7-0.42-1.12-0.56-1.82l-0.42-5.33l10.66-4.63l4.77,5.19c1.4,1.26-1.26,2.52-2.24,3.23l-0.84,0.42l1.82,4.07
						l16.97-7.29l-1.82-4.07l-0.7,0.14c-0.7,0.14-1.4,0.28-1.96,0.28c-0.56,0-1.26-0.14-1.96-0.56c-0.84-0.56-2.38-2.1-3.23-2.95
						L161.46,36.33"/>
					<path id="XMLID_39_" class="st1" d="M224.44,52.32c-1.26,0-3.09-0.28-3.37-1.68c-0.14-0.42-0.14-0.84-0.14-1.26l-0.14-1.26
						l-1.96-18.66c-0.14-0.98-0.42-2.67,0.28-3.51c0.7-0.84,2.81-1.12,4.07-1.26c0.56,0,0.98-0.14,1.54-0.14
						c5.47,0,8.7,3.23,10.24,8.7c2.38,8.28,0.14,18.1-9.4,19.08C225.14,52.32,224.72,52.32,224.44,52.32 M227.24,19.92
						c-2.24,0-4.49,0.28-6.59,0.42l-16.55,1.68l0.42,4.35c0.28,0,0.7,0,0.98,0c1.96,0,3.51,0.28,3.79,1.96l2.24,20.06
						c0.14,1.82,0.56,3.93-1.12,4.91c-0.84,0.42-1.82,0.7-2.81,0.84l0.42,4.35l15.43-1.54c6.73-0.7,13.75-1.4,18.1-6.31
						c3.93-4.35,4.77-11.22,2.95-17.39c-1.4-4.91-4.21-9.26-9.4-11.78C232.43,20.34,229.91,19.92,227.24,19.92"/>
					<path id="XMLID_42_" class="st1" d="M272.97,17.96l-0.28,4.35c0.84,0,2.1,0.42,2.81,0.98c0.7,0.42,0.84,0.84,0.84,1.68
						l-1.4,19.78c-0.14,1.82-0.14,3.79-1.82,4.49c-0.56,0.28-1.26,0.42-1.96,0.42c-0.28,0-0.56,0-0.84,0l-0.28,4.35l32.54,2.67
						l4.63-11.5l-3.51-2.1c-4.07,4.91-7.86,8.28-14.17,8.28c-0.56,0-1.12,0-1.54,0c-1.26-0.14-4.35-0.42-4.21-2.38l0.7-10.52
						c4.07,0.28,5.89,0.84,6.31,5.05l0.14,1.4l3.65,0.28l1.26-15.99l-3.65-0.28c-0.28,2.38-1.26,5.33-3.51,5.33
						c-0.14,0-0.14,0-0.28,0l-3.65-0.28l0.42-4.91c0.14-1.26,0.14-3.23,0.98-4.21c0.7-0.56,1.96-0.7,3.09-0.7c0.42,0,0.98,0,1.26,0
						c5.75,0.42,9.96,4.07,12.76,9.68l3.51-0.98l-3.93-12.06L272.97,17.96"/>
					<path id="XMLID_43_" class="st1" d="M338.34,30.86l-1.68,4.07c1.96,0.84,3.65,2.1,2.95,3.79l-7.57,18.52
						c-0.7,1.68-1.4,3.65-3.23,3.79h-0.14c-0.84,0-1.68-0.28-2.67-0.56l-1.68,4.07l27.91,11.64l8.28-10.1l-2.81-3.37
						c-2.81,2.24-4.07,3.37-7.29,4.35c-1.54,0.42-2.95,0.7-4.35,0.7c-1.54,0-3.09-0.28-4.77-0.98c-0.84-0.42-2.67-1.54-2.1-2.81
						l7.86-19.08c0.7-1.68,1.26-3.51,3.23-3.79c0.14,0,0.28,0,0.42,0c0.84,0,1.4,0.28,2.67,0.7l1.68-4.07L338.34,30.86"/>
					<path id="XMLID_44_" class="st1" d="M403.57,85.99c-0.14,0-0.28,0-0.42,0c-2.52,0-4.21-1.68-6.31-3.37l-0.98-0.84l4.77-6.03
						c1.4-1.68,2.1-2.67,3.09-2.67c0.7,0,1.54,0.56,2.95,1.54c2.67,2.1,3.93,4.63,2.1,8C407.64,84.59,405.53,85.99,403.57,85.99
						 M395.71,60.18l-2.67,3.51c1.82,1.54,3.23,3.23,2.1,4.63l-12.48,15.71c-0.98,1.26-1.96,2.81-3.65,2.81c-0.14,0-0.14,0-0.28,0
						c-0.56,0-1.68-0.56-2.24-0.84l-0.84-0.7l-2.81,3.51l14.31,11.5l2.81-3.37c-1.54-1.26-3.37-3.23-2.24-4.63l5.19-6.73l3.23,2.67
						c3.23,2.67,6.73,5.33,10.66,5.89c0.28,0,0.7,0,0.98,0c3.51,0,6.73-2.1,8.7-5.61c1.96-3.51,1.82-7.29-0.42-10.66
						c-1.54-2.38-4.49-4.77-6.59-6.45L395.71,60.18"/>
					<path id="XMLID_47_" class="st1" d="M443.13,103.38l-3.65,2.52l0.56,0.84c0.84,1.4,1.68,3.37,0.14,4.35l-16.41,11.36
						c-1.12,0.84-2.24,1.68-3.51,1.68c-0.28,0-0.56,0-0.98-0.14c-0.56-0.28-1.54-0.98-1.82-1.54l-0.7-1.12l-3.65,2.52l10.66,15.71
						l3.65-2.38c-1.26-1.68-2.38-4.07-0.7-5.19l8.56-6.03l7.57,11.08l-6.31,4.35c-1.12,0.7-2.24,1.68-3.51,1.68
						c-0.28,0-0.7,0-0.98-0.14c-0.56-0.28-1.4-0.98-1.82-1.54l-0.56-0.84l-3.65,2.52l10.38,15.43l3.65-2.52
						c-0.98-1.54-2.24-3.93-0.7-5.05l16.41-11.5c1.12-0.7,2.24-1.68,3.51-1.68c0.42,0,0.84,0.14,1.26,0.28
						c0.98,0.56,1.4,0.98,2.1,2.24l3.65-2.52l-10.38-15.29l-3.65,2.52c1.12,1.68,2.24,3.93,0.56,5.05l-6.31,4.49l-7.57-11.08
						l4.07-2.81c1.12-0.84,2.24-1.68,3.51-1.68c0.42,0,0.84,0.14,1.26,0.28c1.12,0.7,1.4,1.12,2.24,2.38l3.65-2.38L443.13,103.38"/>
					<path id="XMLID_48_" class="st1" d="M479.32,163.56l-4.07,1.54l0.28,0.84c0.42,1.54,0.84,3.79-0.84,4.49l-18.38,6.87
						c-0.98,0.42-2.1,0.84-3.09,0.84c-0.7,0-1.26-0.14-1.82-0.84c-0.7-0.7-1.12-1.68-1.68-2.95l-4.07,1.54l6.73,18.24l3.93-1.4
						c-0.56-1.82-1.26-4.49,0.56-5.19l18.52-7.01c0.98-0.42,1.96-0.84,2.95-0.84c0.7,0,1.26,0.28,1.82,0.84
						c0.7,0.7,1.12,1.54,1.54,2.67l4.07-1.4L479.32,163.56"/>
					<path id="XMLID_50_" class="st1" d="M478.19,233l-1.12-8.56l12.06,2.81L478.19,233 M462.48,211.81l-4.35,0.56l1.96,15.01
						l4.35-0.56c0-1.12-0.42-4.07,1.12-4.49c0.28-0.14,0.56-0.14,0.84-0.14c0.28,0,0.7,0,1.12,0.14l5.19,1.12l1.54,11.5l-6.03,3.23
						c-0.28,0.14-0.42,0.14-0.56,0.14c-1.12,0-1.54-2.24-1.82-3.23l-0.14-0.98l-4.35,0.56l2.24,18.52l4.35-0.56v-0.7
						c0.14-1.4,0.14-2.67,1.4-3.65c0.84-0.7,2.67-1.68,3.51-2.24l24.55-14.17l-0.98-7.72l-25.67-6.45
						C466.69,216.58,464.17,216.58,462.48,211.81"/>
				</g>
			</g>
		</g>
	</g>
</g>
</svg>
