<?xml version="1.0" encoding="utf-8"?>
<!-- Generator: Adobe Illustrator 26.5.0, SVG Export Plug-In . SVG Version: 6.00 Build 0)  -->
<svg version="1.1" id="Layer_1" xmlns="http://www.w3.org/2000/svg" xmlns:xlink="http://www.w3.org/1999/xlink" x="0px" y="0px"
	 viewBox="0 0 512 512" style="enable-background:new 0 0 512 512;" xml:space="preserve">
<style type="text/css">
	.st0{fill:#EEE1C6;}
	.st1{fill:#00471B;}
	.st2{fill:#FFFFFF;}
</style>
<g id="XMLID_1_">
	<path id="XMLID_3_" class="st0" d="M457.93,255.82c-9.12-37.86-29.17-72.92-56.51-98.73l-0.28-0.28c1.12-1.68,2.1-3.23,3.23-4.91
		c12.62-20.19,17.25-42.07,14.02-64.93c-3.79-26.5-16.13-48.52-36.6-65.35c-2.94-2.38-7.01-4.91-11.08-7.43
		c-1.68-0.98-3.23-1.96-4.49-2.8c-1.26-0.84-2.8-1.26-4.35-1.26c-2.1,0-4.35,0.84-5.89,2.66c-1.4,1.54-2.1,3.51-2.1,5.47
		c-1.82-1.54-3.65-3.09-5.47-4.63c-5.75-4.49-11.92-7.99-18.79-10.66c-0.98-0.42-1.96-0.56-2.8-0.56c-2.52,0-5.05,1.26-6.45,3.37
		c-2.1,2.94-1.82,7.01,0.56,9.82c2.94,3.23,6.03,6.31,8.98,9.4c2.94,2.94,5.75,5.75,8.41,8.83c1.4,1.54,2.8,3.23,4.21,5.05
		c-1.82-0.14-3.51-0.28-5.33-0.28c-1.4,0-2.66,0-4.07,0.14c-3.51,0.28-6.31,2.94-7.01,6.45s1.12,6.87,4.21,8.55
		c1.4,0.7,2.66,1.4,4.07,2.1c8.69,4.35,16.97,8.55,24.26,14.3c5.75,18.65,6.59,37.72,2.38,56.37c-3.93,17.39-11.5,32.67-22.72,45.58
		c0.14-6.87-0.56-13.32-1.96-19.77c-4.35-19.35-14.44-34.22-29.87-44.17c-1.4-0.98-2.94-1.54-4.07-2.1
		c-0.42-0.14-0.84-0.28-1.12-0.56c-1.12-0.56-2.24-0.84-3.37-0.84c-2.24,0-4.63,0.98-6.17,2.94c-2.24,2.8-2.38,6.87-0.28,9.68
		c0.84,1.26,1.82,2.38,2.8,3.65c1.4,1.82,2.8,3.51,3.93,5.33c-1.68-0.28-3.37-0.42-5.33-0.42h-0.42c-3.37,0-6.31,2.1-7.29,5.33
		c-1.12,3.09-0.14,6.59,2.52,8.69c1.4,1.12,2.66,2.1,3.93,3.09c2.24,1.68,4.21,3.23,5.75,4.77c8.69,8.69,11.22,16.69,8.55,26.08
		c-1.68,5.61-3.93,10.52-6.87,14.44c-6.45-8.13-10.8-17.53-15.29-29.31c-0.56-1.54-1.4-2.8-1.96-3.65
		c-0.14-0.14-0.28-0.28-0.28-0.56c-1.4-2.38-4.07-3.79-6.73-3.79c-0.7,0-1.4,0.14-2.1,0.28c-3.37,0.98-5.75,3.93-5.75,7.43
		c-0.28,16.27,3.79,31.83,12.2,46.42c-6.17,3.09-14.58,4.91-23.42,4.91c-8.83,0-16.83-1.82-22.44-4.77
		c0.14-0.28,0.28-0.56,0.42-0.84c2.66-5.33,5.47-10.8,7.43-16.69c2.94-8.27,5.89-18.09,4.07-28.89c-0.42-3.09-2.66-5.47-5.61-6.31
		c-0.7-0.14-1.4-0.28-2.1-0.28c-2.24,0-4.49,0.98-6.03,2.8c-2.1,2.52-3.37,5.19-4.35,7.43c-4.21,10.1-7.99,18.51-13.88,25.66
		c-4.63-6.17-7.15-12.34-7.71-19.07c-0.98-12.06,6.17-20.05,19.07-29.59c2.8-2.1,3.93-5.89,2.66-9.12
		c-1.12-3.09-4.07-5.05-7.43-5.05c-0.28,0-0.42,0-0.7,0c-1.68,0.14-3.37,0.42-4.77,0.7c0.98-1.26,1.96-2.52,2.94-3.79
		c1.26-1.54,2.52-3.23,3.93-4.91c1.96-2.66,2.1-6.31,0.28-9.12c-1.54-2.24-3.93-3.51-6.59-3.51c-0.56,0-1.26,0.14-1.82,0.28
		c-0.28,0.14-0.56,0.14-0.84,0.14c-0.98,0.14-2.38,0.42-3.79,1.4c-12.34,7.43-21.6,17.53-27.49,30.29
		c-5.05,10.8-7.29,22.44-7.01,35.34c-21.04-23-33.24-66.61-19.91-102.79c0.7-0.42,1.4-0.84,2.1-1.26c3.37-2.1,6.87-4.35,10.38-6.31
		s7.15-3.65,10.94-5.47c1.82-0.84,3.65-1.68,5.47-2.52c3.23-1.54,5.05-5.19,4.35-8.69c-0.7-3.51-3.79-6.17-7.43-6.31
		c-1.4,0-2.8-0.14-4.07-0.14c-2.24,0-4.35,0.14-6.17,0.28c2.94-4.07,6.17-7.71,9.54-10.94c3.09-2.94,6.31-5.89,9.82-9.12
		c1.68-1.54,3.37-3.09,5.19-4.77c2.8-2.52,3.37-6.59,1.4-9.82c-1.4-2.38-4.07-3.79-6.73-3.79c-0.84,0-1.68,0.14-2.52,0.42
		c-0.7,0.28-1.26,0.42-1.68,0.56c-0.98,0.28-1.82,0.56-2.94,1.12c-10.66,5.33-20.05,11.92-28.19,20.05c0-1.4-0.28-2.66-0.84-3.93
		c-1.4-2.66-4.07-4.21-7.01-4.21c-0.28,0-0.42,0-0.7,0c-2.8,0.28-5.19,0.98-7.43,2.38c-14.02,9.12-24.82,20.9-32.25,34.92
		c-16.41,30.99-17.25,61.84-2.8,91.57c2.52,5.05,5.33,9.96,8.27,14.44l-0.56,0.56C66.39,198.46,32.6,276.57,55.88,360.57
		c11.36,41.23,35.2,77.55,68.58,104.9c34.08,27.91,75.31,43.89,119.06,46.56c4.07,0.28,8.27,0.42,12.34,0.42l0,0
		c42.49,0,83.44-12.76,118.36-36.74c34.92-24.12,61.14-57.64,76.01-97.18C465.08,338.42,467.75,296.35,457.93,255.82z"/>
	<path id="XMLID_4_" class="st1" d="M125.15,171.82c1.26,2.1,2.1,3.37,2.94,4.91c-27.07,28.33-44.17,61.14-50.48,99.43
		c-3.37,20.33-3.51,40.81,1.26,61.98c17.67-4.77,34.92-9.4,52.73-14.16c0.7,0.98,1.96,2.1,2.1,3.37
		c4.49,25.66,16.83,47.26,35.06,65.63c11.22,11.22,24.4,19.77,39.13,25.8c26.22,10.8,53.15,12.34,80.5,4.77
		c27.07-7.43,48.94-22.72,65.91-45.16c10.8-14.44,17.95-30.43,22.02-47.82c0.56-2.1,0.98-4.21,1.68-7.01
		c18.65,3.93,36.32,9.96,55.25,14.58c5.75-29.59,3.93-58.2-4.77-86.53c-8.69-28.33-23.84-52.87-45.02-74.75
		c1.68-1.68,3.09-3.23,4.49-4.63c56.37,56.09,69.98,139.81,38.56,208.53c-36.32,79.51-117.1,121.16-200.68,107.84
		c-80.07-12.62-141.36-74.32-154.26-153.42c-6.73-40.67-0.98-79.93,18.37-116.68C99.07,201.41,109.73,185.28,125.15,171.82z"/>
	<path id="XMLID_5_" class="st1" d="M393.42,166.63c1.26-1.82,2.38-3.23,3.51-4.77c52.59,49.64,77.13,133.78,47.12,213.58
		c-30.71,81.62-111.49,134.49-200.12,129.3c-87.51-5.05-159.45-66.05-181.75-146.55c-22.86-82.32,10.66-157.34,52.45-195.63
		c1.12,1.4,2.38,2.8,3.51,4.21c-41.23,43.05-60.44,93.82-56.23,152.72c3.65,50.91,24.96,94.1,62.55,128.6
		c75.59,69.42,189.46,66.89,261.26,1.54C469.57,373.2,472.38,246.98,393.42,166.63z"/>
	<path id="XMLID_15_" class="st1" d="M179.28,46.17c-5.89,2.8-11.5,5.19-16.83,8.13c-5.33,2.94-10.38,6.31-15.01,9.26
		c-19.77,49.22,4.77,107.84,35.48,125.93c-0.14-2.52-0.14-4.63-0.42-6.73c-2.1-14.86-0.98-29.31,5.47-43.05
		c5.33-11.5,13.46-20.33,24.26-26.79c0.56-0.28,1.12-0.28,2.52-0.7c-6.73,8.83-14.58,16.55-15.85,28.19
		c6.59-2.8,12.2-6.87,20.75-7.57c-13.18,9.82-23.56,20.05-22.16,36.6c0.98,11.5,6.59,21.04,15.01,29.87
		c1.82-1.68,3.51-2.94,4.91-4.49c7.71-8.55,12.34-19.07,16.69-29.59c0.84-1.96,1.68-3.79,3.09-5.47c1.4,8.83-0.98,17.11-3.79,24.96
		c-2.66,7.71-6.87,15.01-10.52,22.58c14.02,13.46,50.48,13.88,66.61-0.42c-9.96-14.44-15.43-30.43-15.01-48.38
		c0.56,0.84,1.26,1.68,1.68,2.66c4.35,11.5,9.12,22.72,17.11,32.25c0.98,1.12,1.96,2.38,3.09,3.51c0.7,0.7,1.82,1.12,3.09,1.82
		c7.01-6.45,11.22-14.44,13.88-23.42c3.93-13.6-1.26-24.4-10.52-33.8c-2.94-2.94-6.31-5.19-10.38-8.41
		c8.27-0.14,13.74,4.49,20.61,7.57c-1.68-12.06-8.98-19.91-15.43-28.61c1.54,0.7,3.09,1.26,4.35,2.1
		c14.44,9.26,22.72,22.86,26.5,39.27c2.24,10.1,2.24,20.47,0.56,30.71c-0.28,1.68-0.14,3.37-0.28,5.33
		c3.65-0.14,5.33-2.66,7.29-4.49c16.69-15.85,27.49-35.06,32.53-57.5c4.77-21.32,3.51-42.21-3.23-62.69
		c-9.54-8.13-20.61-13.32-31.55-18.79c8.13-0.84,17.95,1.68,24.54,3.93c-3.65-8.98-8.69-15.71-14.3-22.02
		c-5.61-6.17-11.78-11.92-17.39-18.09c6.17,2.38,11.64,5.61,16.83,9.54c12.9,10.1,22.72,22.72,30.57,37.02
		c1.26,2.24,2.8,4.21,4.49,6.03c3.79,3.79,14.16,12.48,14.16,12.48s1.54-4.07-0.14-10.66c-2.94-11.92-11.78-27.77-24.26-39.97
		c-0.56-0.56-5.75-5.33-6.59-6.45c4.35,2.94,11.36,6.87,14.86,9.82c19.07,15.71,30.29,35.9,33.8,60.44
		c3.09,21.6-1.4,41.37-12.9,59.74c-12.06,19.35-28.05,35.2-45.58,49.5c-4.21,3.37-7.99,7.15-11.36,11.92
		c6.45-2.38,12.9-4.91,19.35-7.29c2.38-0.84,4.77-2.8,7.99,0.28c-1.26,6.73-2.24,14.02-4.21,21.18c-1.12,4.07-3.37,8.13-5.75,11.64
		c-3.79,5.75-9.96,7.43-16.55,7.99c-6.73,0.56-13.6,0.98-20.33,1.4c-2.52,0.14-5.19,0.42-8.55,0.84c0.7,4.35,1.26,8.13,1.96,12.76
		c-5.05,8.69-15.99,28.33-15.99,28.33s3.51-2.38,5.47-3.51c0.7,0.98,1.54,1.68,1.82,2.52c2.1,6.87,3.93,13.88,5.89,20.9
		c4.49,16.27,9.12,32.39,13.6,48.66c0.56,2.1,0.84,4.21,1.26,6.73c-18.93,15.57-37.58,30.99-56.23,46.28
		c-0.56,0.56-1.54,0.56-3.09,1.12c0.28-9.82,3.65-18.37,5.33-27.35c1.68-8.98,3.93-17.95,5.89-26.93
		c1.96-8.98,3.79-17.95,5.19-27.21c-10.66,8.98-17.81,20.9-27.91,31.13c-8.69-10.24-17.11-20.19-26.08-30.71
		c-1.54,3.51-1.12,5.89-0.56,8.41c4.77,21.88,9.68,43.61,14.44,65.35c0.56,2.52,0.84,5.05,0.14,8.13
		c-19.35-15.85-38.85-31.83-58.62-48.1c0.56-3.93,0.56-7.99,3.37-11.36c13.88-16.69,20.19-38,16.83-59.46
		c-0.56-4.07,0.56-5.61,2.1-9.26c1.68,1.54,5.61,5.05,5.61,5.05s-7.71-14.44-11.36-20.47c-1.54-2.66-3.09-5.19-4.63-7.85
		c0.7-4.21,1.54-8.27,2.38-13.18c-2.94-0.28-5.47-0.56-7.99-0.84c-8.13-0.7-16.13-1.4-24.26-2.1c-8.13-0.7-13.18-5.47-16.55-12.34
		c-4.07-8.13-5.75-16.97-6.03-26.08c0-1.12,0.7-2.38,1.26-4.21c8.69,3.09,16.97,6.17,25.24,9.12c0.42-0.56,0.28-0.42,0.56-1.12
		c-7.85-7.01-15.99-13.88-23.7-20.9c-15.43-13.88-29.31-29.03-38.42-47.82c-14.02-28.61-11.92-56.8,2.66-84.42
		c7.01-13.18,16.97-23.84,29.59-31.97c0.98-0.7,2.1-1.12,3.65-1.12c-13.32,16.27-24.68,33.24-28.05,54.27
		c1.4-1.4,7.29-6.31,8.69-7.15c8.41-5.75,12.9-14.44,18.09-22.86c10.1-16.13,23.7-28.47,40.81-37.02c0.7-0.42,1.54-0.56,3.65-1.26
		c-5.61,5.19-10.38,9.54-15.01,14.02c-6.73,6.45-12.2,13.74-16.83,21.74c-1.12,1.82-1.68,3.79-2.8,6.45
		C164,47.15,168.21,45.61,179.28,46.17z M240.43,290.74c10.8,7.85,20.61,7.71,31.13,0.14c0.42,3.09,0.7,5.33,0.98,7.43
		c-2.66,4.07-5.05,7.57-7.99,11.92c3.51,0,6.03,0,9.26,0c2.66-3.51,5.47-7.29,8.55-11.36c-1.26-5.33-2.38-10.66-3.51-16.13
		c-11.78-6.87-11.08-20.19-16.13-30.99c-2.38,0.7-4.63,1.4-6.73,1.96c-2.24-0.7-4.21-1.4-6.59-2.1
		c-4.77,11.08-4.63,24.4-16.27,31.41c-1.12,5.33-2.38,10.38-3.51,15.71c2.94,4.07,5.89,7.85,8.55,11.64c2.94,0,5.61,0,9.12,0
		c-2.94-4.49-5.33-8.27-7.99-12.2C239.59,295.93,239.87,293.82,240.43,290.74z M129.64,142.09c-2.66-19.35-4.63-38.71-1.68-59.46
		c-6.59,6.03-9.26,12.34-9.68,19.35C117.16,116.71,122.63,129.61,129.64,142.09z M383.75,82.63c3.23,20.75,0.98,40.11-1.68,59.46
		c4.91-7.71,8.27-15.85,10.1-24.68c0.98-4.91,1.54-9.96,1.4-14.86C393.28,95.25,390.62,88.66,383.75,82.63z M321.9,235.48
		c7.01-0.42,13.04-0.56,19.07-1.4c9.82-1.26,16.83-11.92,15.01-21.6C345.04,219.92,333.82,227.49,321.9,235.48z M155.3,212.07
		c-0.98,4.35,1.12,8.13,2.38,11.92c2.38,6.73,7.43,9.82,14.44,10.38c4.07,0.28,8.27,0.56,12.34,0.84c1.26,0,2.66-0.14,4.21-0.28
		C177.32,227.07,166.52,219.64,155.3,212.07z M219.11,237.45c-1.82,7.15,0,10.8,6.03,12.62c5.19,1.68,9.26,0,11.64-5.33
		C231.03,241.94,225.56,238.57,219.11,237.45z M275.07,245.02c3.09,5.47,7.43,7.01,12.62,4.91c5.33-2.24,7.01-5.89,4.91-12.48
		C286.14,238.71,280.67,241.8,275.07,245.02z M268.05,318.08c-8.55,0-15.71,0-24.26,0c2.24,2.94,3.79,5.19,5.47,7.57
		c4.49,0,8.69,0,13.18,0C264.27,323.41,265.81,321.17,268.05,318.08z"/>
	<path id="XMLID_16_" class="st2" d="M240.43,290.74c-0.42,3.09-0.7,5.19-0.98,7.29c2.66,4.07,5.05,7.71,7.99,12.2
		c-3.65,0-6.17,0-9.12,0c-2.8-3.79-5.61-7.57-8.55-11.64c1.12-5.19,2.24-10.24,3.51-15.71c11.64-7.01,11.5-20.33,16.27-31.41
		c2.38,0.7,4.35,1.4,6.59,2.1c2.1-0.7,4.35-1.26,6.73-1.96c5.05,10.8,4.35,24.12,16.13,30.99c1.26,5.33,2.38,10.66,3.51,16.13
		c-3.09,4.07-5.89,7.85-8.55,11.36c-3.23,0-5.75,0-9.26,0c2.8-4.35,5.19-7.99,7.99-11.92c-0.28-1.96-0.56-4.21-0.98-7.43
		C261.04,298.45,251.08,298.59,240.43,290.74z"/>
	<path id="XMLID_17_" class="st0" d="M129.64,142.09c-7.01-12.48-12.48-25.38-11.5-40.11c0.42-7.15,3.23-13.46,9.68-19.35
		C125.01,103.38,126.98,122.74,129.64,142.09z"/>
	<path id="XMLID_18_" class="st0" d="M383.75,82.63c6.73,6.03,9.54,12.48,9.82,19.91c0.14,4.91-0.28,10.1-1.4,14.86
		c-1.82,8.83-5.19,16.97-10.1,24.68C384.73,122.74,386.97,103.38,383.75,82.63z"/>
	<path id="XMLID_19_" class="st2" d="M321.9,235.48c11.92-7.99,23-15.57,34.08-23c1.82,9.68-5.19,20.33-15.01,21.6
		C335.09,234.92,328.92,235.06,321.9,235.48z"/>
	<path id="XMLID_20_" class="st2" d="M155.3,212.07c11.08,7.57,22.02,15.01,33.38,22.72c-1.54,0.14-2.8,0.28-4.21,0.28
		c-4.07-0.28-8.27-0.56-12.34-0.84c-7.01-0.42-12.06-3.65-14.44-10.38C156.43,220.2,154.46,216.41,155.3,212.07z"/>
	<path id="XMLID_21_" class="st2" d="M219.11,237.45c6.45,1.12,11.92,4.49,17.67,7.29c-2.52,5.33-6.45,7.01-11.64,5.33
		C219.11,248.25,217.29,244.6,219.11,237.45z"/>
	<path id="XMLID_22_" class="st2" d="M275.07,245.02c5.61-3.09,11.22-6.17,17.53-7.57c1.96,6.59,0.42,10.38-4.91,12.48
		C282.5,252.03,278.01,250.35,275.07,245.02z"/>
	<path id="XMLID_23_" class="st2" d="M268.05,318.08c-2.24,3.09-3.79,5.19-5.47,7.57c-4.49,0-8.69,0-13.18,0
		c-1.68-2.38-3.37-4.49-5.47-7.57C252.21,318.08,259.5,318.08,268.05,318.08z"/>
	<polygon id="XMLID_24_" class="st2" points="125.85,334.35 126.98,340.24 116.74,348.94 129.5,349.22 131.46,355.11 90.94,368.57 
		89.67,362.68 114.64,354.26 104.4,352.86 112.53,345.99 86.45,353.7 84.48,347.95 	"/>
	
		<rect id="XMLID_25_" x="96.47" y="370.18" transform="matrix(0.8923 -0.4514 0.4514 0.8923 -155.804 93.5291)" class="st2" width="43.33" height="6.31"/>
	<polygon id="XMLID_26_" class="st2" points="141.84,372.78 145.21,377.68 115.06,398.58 123.75,411.2 118.28,414.99 106.22,397.46 
			"/>
	<polygon id="XMLID_27_" class="st2" points="152.22,388.48 156.85,392.83 145.91,406.85 161.05,398.44 153.06,414 167.36,402.79 
		171.71,406.85 138.76,435.32 134.41,431.25 142.26,418.07 129.08,426.06 124.59,422 	"/>
	<path id="XMLID_30_" class="st2" d="M192.47,421.16l-22.72,37.02l-5.05-3.09l9.4-15.43l-7.71-4.77l-9.4,15.43l-5.47-3.37
		l22.72-37.16L192.47,421.16z M176.2,419.19l-5.61,9.12l7.71,4.77l5.61-9.12L176.2,419.19z"/>
	<polygon id="XMLID_31_" class="st2" points="196.81,424.38 202.56,426.49 189.66,460.7 198.08,463.93 210.98,429.71 217.01,431.95 
		201.72,472.48 181.67,464.91 	"/>
	<polygon id="XMLID_32_" class="st2" points="246.18,437 267.07,437 267.21,443.59 253.05,443.59 252.91,454.11 266.65,454.25 
		266.79,461.12 253.19,461.26 253.19,473.32 266.65,473.32 266.65,480.62 246.18,480.76 	"/>
	<polygon id="XMLID_33_" class="st2" points="272.54,435.04 293.3,432.1 294.28,438.83 279.83,440.79 281.52,452.29 295.96,450.33 
		296.8,456.5 282.22,458.46 284.18,470.24 298.62,468.14 299.61,475.15 278.85,478.09 	"/>
	<path id="XMLID_37_" class="st2" d="M308.86,426.91l15.01-8.13l6.31,1.82l5.61,11.08l-0.56,4.49l4.91,2.66l5.75,11.22l-1.82,6.31
		l-15.01,8.13L308.86,426.91z M317.84,429.99l4.35,8.41l7.57-4.21l-4.35-8.41L317.84,429.99z M326.25,445.56l5.33,9.68l7.71-4.21
		l-5.33-9.68L326.25,445.56z"/>
	<polygon id="XMLID_38_" class="st2" points="333.26,413.44 337.75,409.38 360.89,436.86 367.62,430.69 344.34,403.91 
		348.97,399.56 376.88,431.39 360.47,445.84 	"/>
	<polygon id="XMLID_39_" class="st2" points="353.32,394.65 366.78,378.53 376.6,386.8 372.67,391.29 368.04,387.36 362.29,394.37 
		385.15,412.74 391.04,406.29 386.27,402.37 390.06,397.04 399.87,405.45 386.13,422.14 	"/>
	<polygon id="XMLID_40_" class="st2" points="369.02,374.04 371.83,368.15 381.92,372.92 374.91,363.52 378.28,357.35 
		389.92,373.06 417.12,375.72 413.9,381.61 395.81,380.07 409.83,388.2 407.31,394.23 	"/>
	<polygon id="XMLID_41_" class="st2" points="221.64,433.64 228.23,434.34 226.96,445.42 233.56,435.74 240.43,436.86 
		229.49,452.99 235.8,479.63 229.21,478.51 224.72,460.98 221.64,476.83 215.18,476.41 	"/>
	<polygon id="XMLID_42_" class="st2" points="379.82,353.7 385.71,333.09 397.63,336.45 395.95,342.62 390.34,341.08 387.95,349.78 
		399.17,353 403.52,338.14 427.36,345.15 421.33,365.76 409.41,362.26 411.09,356.51 416.56,358.05 419.09,349.36 408.15,346.13 
		403.94,360.72 	"/>
</g>
</svg>
