<?xml version="1.0" encoding="utf-8"?>
<!-- Generator: Adobe Illustrator 24.3.0, SVG Export Plug-In . SVG Version: 6.00 Build 0)  -->
<svg version="1.1" id="Layer_1" xmlns="http://www.w3.org/2000/svg" xmlns:xlink="http://www.w3.org/1999/xlink" x="0px" y="0px"
	 viewBox="0 0 512 512" style="enable-background:new 0 0 512 512;" xml:space="preserve">
<style type="text/css">
	.st0{fill:#1C2524;}
	.st1{fill:#D2153A;}
	.st2{fill:#FFFFFF;}
</style>
<g id="layer1" transform="translate(-275.10461,-346.74898)">
	<g id="g8" transform="matrix(1.25,0,0,1.25,282.28236,392.0761)">
		<path id="path10" class="st0" d="M366.47,121.57c-1.16-24.55-12.2-47.07-18.74-60.14l-3.63-7.41l0.44,6.54
			c0.87,8.57,2.91,38.79-6.1,56.07c-11.48,23.24-44.16,21.21-55.2,20.48h-0.87c-17.58-1.16-75.25-3.34-93.26-3.34
			c-23.24,0-49.1,2.03-69.87,3.63c-10.17,0.87-18.74,1.16-24.99,1.6c-0.44,0-1.16,0-2.03,0c-29.05,2.91-47.36-5.67-54.77-25.28
			c-4.5-12.2-4.07-36.03-4.07-47.36v-8.14L30.9,62.3c-5.37,10.17-15.54,29.05-18.74,60.14c-2.03,37.19,17.14,50.26,31.52,56.8
			c15.11,7.41,31.09,8.14,36.03,8.57h0.44c0.87,0,2.03,0,3.34,0.44c1.6,0,3.34,0,4.94,0.44c-2.47,0.44-6.1,1.16-9.44,1.6
			c-3.34,0.44-6.54,1.16-8.14,1.6c-3.63,0.44-18.01,4.07-26.15,6.54c-6.54,2.47-13.95,5.67-13.95,5.67l-1.16,0.87l0.87,1.16
			c0,0,2.47,3.34,4.94,5.67c5.37,5.37,19.61,14.24,36.75,12.2c13.95-2.03,21.21-4.94,24.11-6.54c1.16,2.91,3.34,9.88,5.37,15.11
			c6.1,15.54,20.48,45.32,25.71,55.64c4.5,8.14,8.57,15.54,11.48,20.48l1.16,1.6c-0.87,3.34-3.34,5.37-4.94,6.97
			c-0.44,0.44-0.87,0.44-1.16,0.87l-0.44,0.44v0.44c0,2.91-0.87,28.62,16.71,47.36l0.44,0.44c9.01,3.34,20.05,6.54,38.5,6.54
			c18.74,0,34.28-4.07,40.09-6.97v-0.44h0.44c12.2-14.38,17.58-36.03,18.01-44.16v-0.29l-0.44-0.44c-0.44-0.44-0.87-0.44-1.16-0.87
			c-1.6-2.03-4.07-4.07-5.37-9.44c1.16-2.47,4.07-8.57,6.54-13.51c1.6-2.91,2.47-5.37,3.34-6.54c4.94-10.17,20.05-42.56,26.15-57.67
			c3.63-9.88,5.67-14.67,6.97-16.42c2.47,1.16,9.88,4.5,23.24,5.67c17.14,2.03,33.99-9.88,38.5-16.42c0.87-0.87,2.47-2.47,2.47-2.47
			l0.87-1.16l-1.16-0.87c-0.44,0-0.87,0-3.34-1.16l-19.61-6.1c-2.47-1.16-14.38-3.63-22.95-5.37l-6.54-1.6l2.03-0.44
			C316.65,183.6,369.67,174.3,366.47,121.57z"/>
	</g>
	<g id="g12" transform="matrix(1.25,0,0,1.25,285.56486,399.2551)">
		<path id="path14" class="st1" d="M28.17,62.72c-0.44,13.95-0.44,28.62,2.91,41.69c-2.91-2.47-6.1-5.67-9.01-8.14
			c-2.91,2.91-5.37,6.1-8.14,9.01C16.84,90.47,21.63,76.09,28.17,62.72z"/>
	</g>
	<g id="g16" transform="matrix(1.25,0,0,1.25,450.67111,398.84485)">
		<path id="path18" class="st1" d="M226.4,99.33l0.87,3.63l-6.97-4.94c-3.34,1.16-6.1,3.34-9.44,4.94
			c2.47-13.07,2.91-27.02,2.03-40.82C219.14,74.05,222.77,86.69,226.4,99.33z"/>
	</g>
	<g id="g20" transform="matrix(1.25,0,0,1.25,348.94011,482.52698)">
		<path id="path22" class="st1" d="M136.1,162.03c7.41,11.48,21.21,14.67,33.56,11.48c4.94-0.87,9.44-2.91,13.51-4.5
			c-3.63,11.91-6.54,25.28-6.1,38.79c0,11.91,2.03,23.24,5.37,33.99c-1.6-0.87-3.34-2.03-5.37-2.91
			c-25.28-12.64-60.43-12.2-85.42,0.87c1.16-4.07,2.47-8.14,3.34-12.2c4.07-19.18,1.16-39.22-5.37-56.36
			c13.51,5.67,32.69,6.97,43.73-5.67C134.5,164.49,134.94,163.19,136.1,162.03z"/>
	</g>
	<g id="g24" transform="matrix(1.25,0,0,1.25,332.73773,487.24323)">
		<path id="path26" class="st1" d="M93.05,167.66c-0.87,5.67-2.47,11.48-8.14,13.51c-4.5,1.16-9.01-1.16-11.91-4.5
			c-1.16-1.6-2.47-3.34-2.91-5.37c6.97,4.5,16.42,0.87,22.52-3.63H93.05z"/>
	</g>
	<g id="g28" transform="matrix(1.25,0,0,1.25,400.62611,487.65323)">
		<path id="path30" class="st1" d="M173.7,168.09c-1.6,4.94-5.67,9.88-11.04,10.6c-3.63,0.87-6.97-1.16-9.44-4.5
			c-1.16-1.6-1.6-3.63-2.03-5.67C157.29,173.47,167.17,172.16,173.7,168.09z"/>
	</g>
	<g id="g32" transform="matrix(1.25,0,0,1.25,395.08861,489.90948)">
		<path id="path34" class="st1" d="M164.15,180.24c2.47,0.44,5.37,0,7.7-0.87c-6.97,17.58-15.54,34.72-24.55,51.86
			c-2.91-8.57-2.47-18.01-1.6-27.46c1.16-11.48,4.07-22.52,7.41-33.12C155.28,175.3,159.35,179.37,164.15,180.24z"/>
	</g>
	<g id="g36" transform="matrix(1.25,0,0,1.25,335.19861,489.70448)">
		<path id="path38" class="st1" d="M100.04,231.45c-10.6-16.42-18.74-33.56-27.02-51.13c3.63,1.6,9.44,3.34,13.07,0.44
			c3.63-2.47,5.67-6.1,6.97-10.17C102.22,188.16,104.25,211.4,100.04,231.45z"/>
	</g>
	<g id="g40" transform="matrix(1.25,0,0,1.25,345.45373,515.34323)">
		<path id="path42" class="st1" d="M192.95,224.9c-2.03,15.11-7.41,28.62-17.14,40.53c-22.08,9.01-52.3,9.88-74.38,0.44
			c-11.04-12.2-15.11-27.46-15.98-43.73c23.68-17.14,60.87-20.92,87.89-8.57C180.16,216.62,186.7,219.96,192.95,224.9z"/>
	</g>
	<g id="g44" transform="matrix(1.25,0,0,1.25,293.97298,433.50673)">
		<path id="path46" class="st1" d="M325.67,167.23c-18.45-7.41-42.56-11.48-62.61-11.91c-2.03-22.95-4.5-36.75-9.01-49.54
			c-10.17-0.87-56.8-2.47-74.38-2.47c-18.01,0-63.34,2.91-73.94,3.34c-4.07,12.2-9.01,27.46-11.04,49.83
			c-20.48,1.16-48.23,6.97-66.68,13.95c-2.91,1.16-4.07,2.03-4.07,2.03c2.91,3.34,13.07,15.54,32.25,15.98
			c6.1,0,17.58-0.87,25.28-4.07c2.03-1.16,6.1-2.91,6.1-2.91s1.16,2.47,2.03,4.5c2.03,5.67,4.5,13.95,6.1,17.58
			c2.91,5.37,6.97,9.44,14.24,9.88c6.1,0,10.6-5.37,11.48-6.1c-18.01-1.16-25.28-10.6-26.58-25.28c-4.5-0.87-5.67-1.16-6.1-3.34
			c-0.44-2.47,0.44-4.94,2.03-7.7c2.03-2.47,5.37-5.37,13.95-2.47c5.67,1.6,10.17,5.37,13.07,8.14
			c4.07,3.34,14.67,14.24,21.21,18.45c6.97,4.07,20.05,7.7,28.62-0.87c8.57-8.14,9.44-15.11,10.6-19.18
			c-14.67-0.44-28.18-2.03-40.82-3.63c-3.63-0.44-2.03-4.07,0.87-3.34c0,0,23.68,3.34,40.53,3.34c0-2.03,0-5.37,0-9.01
			c-9.88-0.44-26.15-1.16-41.69-4.5c-3.34-0.87-2.91-4.5,0.44-3.63c2.03,0.87,27.75,4.5,41.69,4.5c0-3.34,0-7.41,0-11.48
			c-9.01,0.44-22.52-0.87-41.26-3.63c-3.34-0.44-2.91-3.34,0-3.34c0,0,23.68,3.63,41.26,3.34c0-2.47,0-5.67,0-9.01s2.91-3.63,2.91,0
			c0,1.16,0.44,4.5,0.44,9.01c16.71-0.44,31.81-2.47,38.79-3.63c4.07-0.87,3.63,2.47,1.6,2.91c-2.47,0.44-22.08,4.07-40.82,4.5
			c0,3.34,0.44,7.7,0.44,11.04c12.64-0.44,27.02-0.87,39.66-3.63c4.5-0.87,4.94,2.91,0.87,3.34c-12.2,2.03-29.78,4.07-40.53,4.5
			c0,2.91,0,6.54,0.44,9.01c20.05-0.44,38.79-3.34,42.13-3.63c3.34-0.87,4.07,2.91,0.44,3.34c-3.34,0.44-27.02,3.63-42.13,3.63
			c1.6,5.37,1.6,12.64,9.01,18.74c7.41,6.1,19.18,5.67,27.75,0.87c6.54-3.63,16.71-15.11,20.48-18.45
			c3.34-2.91,10.6-9.44,20.48-9.44c9.44,0,9.88,5.37,10.17,6.54c0.44,1.6,0.87,4.5-1.16,5.67c-1.6,1.16-3.34,0.87-4.94,1.6
			c-1.16,7.7-3.63,16.71-10.17,21.64c-6.54,4.94-17.14,5.67-17.14,5.67s1.6,1.6,2.03,2.03c0.87,0.87,4.5,2.91,9.44,2.47
			c4.07-0.44,9.44-3.63,11.48-6.1c3.34-4.07,6.1-13.07,8.57-18.74c0.87-2.03,2.91-5.67,3.34-7.41c2.03,0.87,2.91,1.16,6.54,2.91
			c7.7,2.91,17.58,4.07,23.68,4.07c9.88-0.44,21.21-6.54,28.18-12.64c1.16-1.16,3.34-4.07,3.34-4.07S327.71,167.66,325.67,167.23z"
			/>
	</g>
	<g id="g48" transform="matrix(1.25,0,0,1.25,375.80898,524.36573)">
		<path id="path50" class="st0" d="M152.66,219.74c1.6,3.63,0.44,7.7-1.6,10.6c-4.07,4.5-9.88,6.54-15.54,4.94
			c-3.34-0.87-6.54-2.91-8.57-6.54c-1.16,2.91,1.16,5.37,0.87,7.7c-0.44,0.87-1.16,0.87-1.6,0.44c-3.34-4.5-4.5-11.04-1.6-15.98
			c3.63-6.1,10.17-9.01,17.58-8.14C146.12,213.49,150.63,215.67,152.66,219.74z"/>
	</g>
	<g id="g52" transform="matrix(1.25,0,0,1.25,352.01748,524.77573)">
		<path id="path54" class="st0" d="M122.25,221.78c2.91,4.5,1.6,11.04-1.16,15.11c-0.44,0.87-0.87,1.6-1.6,0.87
			c-1.16-1.16,0.44-2.47,0.44-4.07c0.44-1.16,0.87-2.47,0.44-3.63c-4.07,5.37-9.88,7.7-15.98,6.54c-4.5-0.87-8.57-4.07-10.17-8.57
			c-0.87-2.91-0.44-6.1,1.16-8.57c4.07-5.37,11.91-6.97,18.45-4.5C116.88,215.68,120.66,218.58,122.25,221.78z"/>
	</g>
	<g id="g56" transform="matrix(1.25,0,0,1.25,353.24798,539.54448)">
		<path id="path58" class="st0" d="M170.35,241.07c-0.44,0.87-0.87,0.87-1.6,2.03c-2.03-0.87-4.5-1.6-6.97-2.47
			c-20.48-8.14-46.63-5.67-65.81,2.47c-0.44-0.87-0.87-1.16-1.16-2.03C117.18,231.19,147.83,230.03,170.35,241.07z"/>
	</g>
	<g id="g60" transform="matrix(1.25,0,0,1.25,353.04286,490.11448)">
		<path id="path62" class="st0" d="M174.2,171.89c-3.63,16.42-13.95,34.72-30.65,39.22c-13.51,3.63-29.05,0.87-38.06-10.17
			c-6.54-8.14-9.88-18.01-11.04-28.62c0.87-0.44,1.6-0.44,2.47-0.44c1.16,15.11,9.44,32.25,24.55,37.19
			c13.07,4.07,29.05,0,38.5-11.48c6.1-7.7,10.17-17.14,12.2-26.58C172.89,171.02,173.32,171.02,174.2,171.89z"/>
	</g>
	<g id="g64" transform="matrix(1.25,0,0,1.25,275.10461,346.74898)">
		<path id="path66" class="st0" d="M35.42,4.48c-2.91-2.91-7.41-4.5-11.91-4.5c-4.5,0.44-22.08,6.1-22.08,32.25
			c0,25.71,15.98,34.28,25.28,34.28c9.44,0,18.74-7.41,22.08-20.05c0.44-1.6,0-2.03-1.6-2.91l-6.1-2.47
			c-1.6-0.44-1.6-0.44-2.47,2.03c-0.87,1.6-3.34,9.44-9.88,9.44c-6.1,0-9.01-9.44-9.01-19.18c0-9.88,1.6-18.74,9.44-18.74
			c8.14,0,9.44,8.14,10.17,11.48c0,1.16,0.44,1.16,1.6,1.16h5.67c1.16,0,1.16,0,1.16-2.91V3.61c0-1.6,0-1.6-2.47-1.6h-4.65
			c-1.16,0-1.16,0.44-2.03,1.6C38.18,4.92,37.02,5.79,35.42,4.48z"/>
	</g>
	<g id="g68" transform="matrix(1.25,0,0,1.25,388.11486,347.77435)">
		<path id="path70" class="st0" d="M178.33,13.86l11.91,37.62c0.44,1.6,0.44,1.6,1.16,1.6h2.03c2.03,0,2.03,0,2.03,1.6v7.41
			c0,2.03,0,2.47-1.6,2.47h-23.24c-2.03,0-2.03-0.44-2.03-1.6v-7.41c0-2.47,0.44-2.47,1.6-2.47h2.47c1.16,0,1.16,0,0.87-1.6
			l-2.03-5.67c-0.44-1.16-0.87-1.16-2.03-1.16h-14.24l2.91-8.57c0,0,8.57,0,9.01,0c1.16,0,1.6,0,1.16-1.16l-5.37-16.42
			c-0.44-1.16-0.87-1.16-1.16,0l-5.37,16.42c0,1.16,0,1.16,1.6,1.16l-2.91,8.57c-1.6,0-1.6,0-2.03,1.16l-2.03,5.67
			c-0.44,1.6-0.44,1.6,0.87,1.6h2.47c1.6,0,1.6,0.44,1.6,2.47v7.41c0,1.16,0,1.6-2.03,1.6h-16.42c-1.16,0-1.16-0.44-1.16-2.47v-7.41
			c0-1.6,0-1.6,2.03-1.6h1.6c0.87,0,1.16-0.44,1.6-1.16l11.91-38.06c0.44-0.87,0.44-1.16-1.16-1.16h-2.47c-1.6,0-2.03,0-2.03-1.6
			V3.69c0-2.47,0.44-2.47,2.91-2.47h31.52c1.6,0,1.6,0.44,1.6,2.47v6.97c0,1.6,0,1.6-2.47,1.6h-2.47
			C177.89,12.26,177.89,12.7,178.33,13.86z"/>
	</g>
	<g id="g72" transform="matrix(1.25,0,0,1.25,422.16111,346.74898)">
		<path id="path74" class="st0" d="M207.51,42.98h4.07c2.03,0,2.03,0.44,2.03,1.6c0,3.34-2.91,8.14-9.44,8.14
			c-6.54,0-9.01-9.44-9.01-19.18c0-9.88,1.6-18.74,9.44-18.74c6.54,0,9.01,4.5,9.88,7.7c0.44,1.16,0.44,1.16,2.03,1.16h5.67
			c1.16,0,1.16,0,1.16-2.91V3.61c0-1.6-0.44-1.6-2.91-1.6h-4.94c-1.16,0-1.16,0.44-1.6,1.6s-2.03,2.03-3.63,0.87
			c-2.91-2.91-7.41-4.5-11.48-4.5c-4.94,0.44-22.08,6.1-22.08,32.25c0,25.71,15.54,34.28,24.99,34.28
			c14.24,0,25.28-11.04,25.28-31.52c0-2.03,0-2.03-2.91-2.03h-17.14c-1.6,0-1.6,0-1.6,1.6v6.97
			C205.47,42.98,205.47,42.98,207.51,42.98z"/>
	</g>
	<g id="g76" transform="matrix(1.25,0,0,1.25,451.08111,347.77435)">
		<path id="path78" class="st0" d="M239.62,1.22c-15.54,0-28.18,14.24-28.18,32.25s12.64,32.25,28.18,32.25
			c15.11,0,27.75-14.24,27.75-32.25C267.37,15.61,254.73,1.22,239.62,1.22l-0.44,11.48c5.67,0,10.6,9.44,10.6,20.92
			s-4.94,20.92-10.6,20.92c-5.67,0-10.17-9.44-10.17-20.92s4.5-20.92,10.17-20.92L239.62,1.22z"/>
	</g>
	<g id="g80" transform="matrix(1.25,0,0,1.25,305.04848,347.77435)">
		<path id="path82" class="st0" d="M42.49,51.92V14.3c0-1.16-0.44-1.6-1.6-1.6h-1.6c-2.03,0-2.03,0-2.03-1.16V2.97
			c0-1.16,0-1.6,2.03-1.6h22.08c1.6,0,2.03,0.44,2.03,2.03v7.41c0,1.6,0,1.6-2.03,1.6h-1.16c-0.87,0-0.87,0-0.87,1.6v10.6
			c0,2.91,0,2.91,2.03,2.91h11.91c2.47,0,2.47,0,2.47-2.91v-10.6c0-1.6-0.44-1.6-1.16-1.6h-1.16c-2.03,0-2.03,0-2.03-1.6V3.26
			c0-1.6,0.44-2.03,2.03-2.03h22.08c2.47,0,2.47,0.44,2.47,1.6v8.57c0,1.16-0.44,1.16-2.03,1.16h-2.32c-1.16,0-1.16,0-1.16,1.6
			v37.62c0,1.16,0,1.16,1.6,1.16h2.03c1.6,0,1.6,0,1.6,2.47v7.41c0,1.16,0,1.6-2.03,1.6H72.41c-1.6,0-1.6,0-1.6-2.47v-7.41
			c0-1.6,0-1.6,2.03-1.6h1.16c1.16,0,1.16,0,1.16-1.6V39.87c0-2.91,0-2.91-2.03-2.91H61.23c-1.6,0-2.03,0.44-2.03,2.91v11.48
			c0,1.6,0,1.6,1.6,1.6h0.87c2.03,0,2.03,0,2.03,1.6v7.41c0,2.03,0,2.47-1.6,2.47H39.15c-2.03,0-2.03,0-2.03-1.6v-7.26
			c0-2.47,0-2.47,1.6-2.47h1.6C42.49,53.08,42.49,53.08,42.49,51.92z"/>
	</g>
	<g id="g84" transform="matrix(1.25,0,0,1.25,340.94198,347.77435)">
		<path id="path86" class="st0" d="M85.27,13.86c0-1.6,0-1.6-0.87-1.6h-2.47c-1.6,0-2.03,0-2.03-1.6V3.26c0-1.6,0.44-2.03,2.03-2.03
			h22.08c2.47,0,2.47,0.44,2.47,1.6v8.57c0,1.16,0,1.16-2.03,1.16h-0.73c-1.6,0-1.6,0-1.6,1.6v37.62c0,1.16,0,1.16,1.6,1.16h1.6
			c1.6,0,1.6,0,1.6,2.47v7.41c0,1.16,0,1.6-2.03,1.6H81.64c-1.16,0-1.6,0-1.6-2.47v-7.41c0-1.6,0-1.6,2.03-1.6h2.03
			c1.16,0,1.16,0,1.16-1.6V13.86z"/>
	</g>
	<g id="g88" transform="matrix(1.25,0,0,1.25,358.78624,346.74898)">
		<path id="path90" class="st0" d="M134.73,4.48c-2.91-2.91-6.97-4.5-11.48-4.5c-4.5,0.44-22.08,6.1-22.08,32.25
			c0,25.71,15.54,34.28,24.99,34.28c9.88,0,19.18-7.41,22.08-20.05c0.87-1.6,0.44-2.03-1.6-2.91l-6.1-2.47
			c-1.16-0.44-1.16-0.44-2.47,2.03c-0.44,1.6-3.34,9.44-9.44,9.44c-6.54,0-9.01-9.44-9.01-19.18c0-9.88,1.6-18.74,9.44-18.74
			c7.7,0,9.44,8.14,9.88,11.48c0.44,1.16,0.44,1.16,2.03,1.16h5.67c1.16,0,1.16,0,1.16-2.91V3.61c0-1.6-0.44-1.6-2.47-1.6h-5.37
			c-0.87,0-0.87,0.44-1.6,1.6C138.07,4.92,136.76,5.79,134.73,4.48z"/>
	</g>
	<g id="g92" transform="matrix(1.25,0,0,1.25,303.20273,387.76948)">
		<path id="path94" class="st0" d="M40.22,62.05v37.19c0,1.16-0.44,1.6-1.6,1.6h-2.03c-1.16,0-1.6,0-1.6,1.6v7.7
			c0,1.6,0.44,1.6,2.03,1.6h34.28L59.4,99.82c-2.03,0-2.47,0-2.47-2.47v-10.6c0-2.03,0.44-2.47,2.47-2.47v-9.44
			c-2.47,0-2.47-0.44-2.47-2.47v-10.6c0-2.47,0-2.47,2.47-2.47c2.03,0,11.04,0.44,11.04,8.14c0,7.41-8.14,7.41-11.04,7.41v9.44
			c2.47,0,11.04,0.44,11.04,8.14s-8.14,7.41-11.04,7.41l11.91,11.91c8.57,0,14.67-7.7,14.67-16.42c0-9.01-5.37-12.2-9.88-15.54
			c2.91-2.91,8.57-6.1,8.57-15.11c0-9.88-9.88-15.98-15.54-15.98H37.75c-2.47,0-2.91,0-2.91,2.03v7.7c0,1.16,0,1.6,2.03,1.6h2.03
			C40.22,60.45,40.22,60.45,40.22,62.05z"/>
	</g>
	<g id="g96" transform="matrix(1.25,0,0,1.25,333.35286,387.76948)">
		<path id="path98" class="st0" d="M120.43,61.61v32.25c0,8.14-4.07,20.05-20.48,20.05c-15.98,0-23.68-11.91-23.68-20.05V61.61
			c0-1.16-0.44-1.16-1.6-1.16h-2.03c-1.6,0-1.6-0.44-1.6-2.03v-6.97c0-2.47,0-2.47,2.47-2.47h21.64c1.6,0,2.03,0,2.03,2.03v7.41
			c0,1.6,0,1.6-2.47,1.6h-1.6c-1.16,0-1.16,0-1.16,1.16V92.7c0,3.34,2.91,9.01,9.44,9.01c8.14,0,9.88-6.1,9.88-9.01V61.61
			c0-1.6-0.44-1.6-1.6-1.6h-1.6c-2.03,0-2.03,0-2.03-1.6v-7.41c0-2.03,0-2.03,1.6-2.03h16.42c2.91,0,2.91,0,2.91,2.03v7.41
			c0,1.6,0,2.03-2.03,2.03h-2.47C120.87,60.45,120.43,60.45,120.43,61.61z"/>
	</g>
	<g id="g100" transform="matrix(1.25,0,0,1.25,394.67861,387.76948)">
		<path id="path102" class="st0" d="M147.73,100.83h-2.03c-1.6,0-1.6,0-1.6,2.03v7.41c0,1.6,0,1.6,1.6,1.6h40.53
			c1.6,0,2.03,0,2.03-2.47V91.39c0-1.6,0-2.03-2.03-2.03h-5.67c-2.03,0-2.03,0.44-2.03,2.47v6.54c0,2.47,0,2.47-2.03,2.47h-8.57
			c-2.91,0-2.91-0.44-2.91-2.03V62.48c0-2.47,0-2.47,1.16-2.47h2.47c1.6,0,1.6-0.44,1.6-1.6v-7.41c0-2.03,0-2.03-2.03-2.03h-21.64
			c-2.47,0-2.47,0-2.47,2.03v7.41c0,1.6,0,2.03,1.6,2.03h2.03c1.16,0,1.6,0,1.6,2.03V98.8C149.47,100.4,149.03,100.83,147.73,100.83
			z"/>
	</g>
	<g id="g104" transform="matrix(1.25,0,0,1.25,422.57236,386.9491)">
		<path id="path106" class="st0" d="M219.13,95.02c0,13.51-12.64,19.18-18.01,19.18c-4.07,0-8.57-1.6-11.48-4.07
			c-2.03-1.6-3.63,0-4.07,0.87c-1.16,1.6-1.16,1.6-2.03,1.6h-2.47c-2.91,0-2.91,0-2.91-1.16V93.86c0-2.47,0.44-2.47,1.16-2.47h4.07
			c1.6,0,1.6,0,2.03,1.16c0.87,3.63,4.94,8.57,11.04,8.57c3.34,0,5.67-0.87,5.67-3.63c0-5.67-3.34-6.97-9.44-10.17
			c-6.1-3.34-15.54-6.97-15.54-20.48c0-13.07,12.2-18.74,17.58-18.74c4.07,0,8.14,1.6,11.04,4.07c2.03,1.6,3.63,0,4.07-0.87
			c0.87-2.03,0.87-2.03,1.6-2.03h2.91c2.47,0,2.47,0,2.47,1.6V68c0,2.91,0,2.91-1.16,2.91h-3.63c-1.6,0-1.6,0-2.03-1.16
			c-1.16-3.63-5.37-8.57-11.91-8.57c-2.91,0-4.5,1.6-4.5,4.07c0,3.63,4.07,6.97,11.48,10.17C212.16,78.6,219.13,83.98,219.13,95.02z
			"/>
	</g>
	<g id="g108" transform="matrix(1.25,0,0,1.25,366.57924,387.76948)">
		<path id="path110" class="st0" d="M114.31,100.83h-2.03c-1.6,0-1.6,0-1.6,2.03v7.41c0,1.6,0,1.6,1.6,1.6h40.53
			c1.6,0,2.03,0,2.03-2.47V91.39c0-1.6,0-2.03-2.03-2.03h-5.67c-2.03,0-2.03,0.44-2.03,2.47v6.54c0,2.47,0,2.47-2.03,2.47h-8.57
			c-2.91,0-2.91-0.44-2.91-2.03V62.48c0-2.47,0-2.47,1.16-2.47h2.47c1.6,0,1.6-0.44,1.6-1.6v-7.41c0-2.03,0-2.03-2.03-2.03H113
			c-2.47,0-2.47,0-2.47,2.03v7.41c0,1.6,0,2.03,1.6,2.03h2.03c1.16,0,1.6,0,1.6,2.03V98.8C115.91,100.4,115.47,100.83,114.31,100.83
			z"/>
	</g>
	<g id="g112" transform="matrix(1.25,0,0,1.25,283.51286,418.32973)">
		<path id="path114" class="st2" d="M36.43,99.7c8.57,16.71,26.58,22.52,44.6,21.64c10.17,0,20.05-1.16,29.78-2.03v0.87
			c-4.94,14.24-8.57,29.05-10.6,44.16c-26.15,0.87-52.73-1.16-72.34-18.74c-13.07-13.07-16.42-31.52-13.51-49.39
			c3.34-3.63,6.54-6.97,9.44-10.6C28.15,89.97,35.13,93.6,36.43,99.7z"/>
	</g>
	<g id="g116" transform="matrix(1.25,0,0,1.25,411.08611,418.94498)">
		<path id="path118" class="st2" d="M259.71,91.5c0.87,2.91,0.87,5.37,1.16,7.7c1.16,20.48-7.41,38.79-24.99,49.1
			c-18.74,11.48-40.53,15.54-63.34,15.98c-0.44-2.03-0.87-4.94-0.87-6.97c-2.03-13.51-4.5-27.02-8.14-39.66
			c24.55,0,54.77,6.54,71.18-16.42c2.03-3.34,4.07-6.1,6.1-9.44c3.63-1.6,7.41-4.07,10.6-5.67
			C254.48,87.43,256.81,89.75,259.71,91.5z"/>
	</g>
	<g id="g120" transform="matrix(1.25,0,0,1.25,402.06111,472.88698)">
		<path id="path122" class="st2" d="M173.35,150.54c0,7.7-2.47,15.54-9.44,19.18c-3.34,1.6-6.97,2.47-10.6,2.47
			c-0.44-0.87-0.44-1.6,0-2.47c5.37,0,11.04-2.03,13.95-6.54c2.03-3.34,2.91-7.41,2.91-11.48
			C170.88,150.98,172.05,150.54,173.35,150.54z"/>
	</g>
	<g id="g124" transform="matrix(1.25,0,0,1.25,331.30211,473.29698)">
		<path id="path126" class="st2" d="M90.49,171.03c-1.16,0-1.6,0.44-3.63,0c-9.01,0-18.45-7.41-18.01-19.61
			c1.16-0.44,2.47-0.44,3.34,0c0,6.97,2.91,16.71,18.01,16.71C90.93,169.72,90.2,169.72,90.49,171.03z"/>
	</g>
</g>
</svg>
