<?xml version="1.0" encoding="utf-8"?>
<!-- Generator: Adobe Illustrator 24.3.0, SVG Export Plug-In . SVG Version: 6.00 Build 0)  -->
<svg version="1.1" id="Layer_1" xmlns="http://www.w3.org/2000/svg" xmlns:xlink="http://www.w3.org/1999/xlink" x="0px" y="0px"
	 viewBox="0 0 512 512" style="enable-background:new 0 0 512 512;" xml:space="preserve">
<style type="text/css">
	.st0{fill:#FDBB30;}
	.st1{fill:#002B60;}
	.st2{fill:#860038;}
	.st3{clip-path:url(#SVGID_2_);}
	.st4{clip-path:url(#SVGID_4_);}
	.st5{clip-path:url(#SVGID_6_);}
	.st6{clip-path:url(#SVGID_8_);}
	.st7{clip-path:url(#SVGID_10_);}
	.st8{fill:#FFFFFF;}
	.st9{clip-path:url(#SVGID_12_);}
</style>
<g id="XMLID_1_">
	<g id="g4974">
		<g id="g4980" transform="translate(255.0264,701.9131)">
			<path id="path4982" class="st0" d="M-98.78-438.54c-4.26-74.64,52.74-138.61,127.38-142.88s138.61,52.74,142.88,127.38
				S118.74-315.43,44.1-311.16C-30.54-306.9-94.51-363.91-98.78-438.54"/>
		</g>
		<g id="g4984" transform="translate(376.6699,708.9272)">
			<path id="path4986" class="st1" d="M43.36-460.75c4.12,71.08-50.18,132.07-121.27,136.19c-71.08,4.12-132.07-50.18-136.19-121.27
				c-4.12-71.08,50.18-132.07,121.27-136.19C-21.61-586.14,39.23-531.83,43.36-460.75"/>
		</g>
		<g id="g4988" transform="translate(376.6699,708.9272)">
			<path id="XMLID_30_" class="st1" d="M-85.59-324.13c-31.7,0-61.98-11.52-85.73-32.7c-25.73-22.89-41.09-54.59-43.08-89
				c-1.99-34.4,9.53-67.67,32.56-93.4s54.59-41.09,89-43.08c34.4-1.99,67.67,9.53,93.4,32.56c25.73,22.89,41.09,54.59,43.08,89l0,0
				c1.99,34.4-9.53,67.67-32.56,93.4s-54.59,41.09-89,43.08C-80.47-324.27-83.03-324.13-85.59-324.13z M-85.3-582.02
				c-2.42,0-4.98,0.14-7.53,0.28c-34.26,1.99-65.82,17.2-88.71,42.93c-22.89,25.73-34.4,58.71-32.41,92.98
				c3.98,68.38,60.85,121.27,128.37,121.27c2.42,0,4.98-0.14,7.53-0.28c34.26-1.99,65.82-17.2,88.71-42.93
				c22.89-25.73,34.4-58.71,32.41-92.98l0,0C39.23-529.13-17.63-582.02-85.3-582.02z"/>
		</g>
		<g id="g4992" transform="translate(372.1523,708.6611)">
			<path id="path4994" class="st2" d="M38.18-459.87c1.56,26.58-5.83,51.61-19.33,72.22c-10.24-29.57-43.79-62.41-71.94-89.14
				c-25.16-22.89-35.54-41.51-37.25-56.01c47.48-1.42,93.83,21.18,127.38,61.7C37.47-467.4,37.9-463.7,38.18-459.87 M12.02-378.41
				c-15.07,18.77-35.97,32.98-59.99,39.81c-66.53-48.76-78.33-136.34-71.51-190.5c6.54-1.56,13.08-2.7,19.76-3.27
				c1.42,16.21,11.8,36.54,37.96,60.14C-33.18-444.8,2.07-408.83,12.02-378.41 M-57.92-336.04c-5.26,1-10.52,1.71-16.06,1.99
				c-35.68,1.99-68.67-11.8-91.98-35.54c-12.51-24.74-14.93-63.55-6.54-89.42c4.55-13.93,17.63-32.7,21.75-46.77
				c1.42-5.12,2.84-9.53,3.7-13.65c6.4-2.84,12.65-5.26,19.19-7.25C-135.12-471.24-124.31-383.95-57.92-336.04 M-182.03-390.06
				c-10.24-16.35-16.63-35.54-17.77-56.16c-0.85-13.79,0.71-27.15,4.41-39.66c12.65-12.08,25.87-21.75,39.38-29l-0.14,0.43
				c-4.41,16.63-15.35,30.57-21.75,46.2C-188-443.23-187.72-414.37-182.03-390.06 M-194.97-487.45c0.28-0.85,0.57-1.71,0.85-2.56
				C-194.26-489.15-194.54-488.3-194.97-487.45 M-189.85-501.24c7.25-16.35,18.2-30.99,31.7-42.51c4.12,3.98,4.55,11.66,3.98,18.77
				C-166.39-518.86-178.19-511.05-189.85-501.24 M-151.47-549c10.24-7.68,21.89-13.65,34.55-17.63c-3.7,7.25-6.97,17.91-9.24,30.71
				c-6.54,1.85-13.08,4.26-19.48,6.97C-145.78-534.79-147.34-541.04-151.47-549 M-107.96-569.19c6.54-1.56,13.36-2.56,20.19-2.84
				c2.84-0.14,5.83-0.28,8.67-0.14c-9.95,6.26-18.91,16.92-20.61,31.28c-6.11,0.57-12.37,1.56-18.48,2.99
				C-115.64-551.71-112.09-562.51-107.96-569.19 M-64.74-571.18c45.49,6.11,83.31,38.1,97.38,81.46
				c-34.4-33.55-77.91-53.17-122.97-51.75C-88.49-556.68-76.69-566.35-64.74-571.18"/>
		</g>
		<g id="g4996" transform="translate(372.1523,708.6611)">
			<path id="XMLID_39_" class="st2" d="M-80.81-333.62c-31.99,0-62.69-12.79-85.3-35.83l0,0c-12.37-24.45-15.21-62.98-6.54-89.56
				c2.13-6.68,6.4-14.64,10.52-22.32c4.55-8.39,9.1-17.2,11.23-24.45c0.43-1.42,0.71-2.7,1.14-3.98c1-3.55,1.99-6.68,2.56-9.67
				v-0.14h0.14c6.4-2.84,12.79-5.26,19.19-7.25l0.43-0.14v0.43c-7.82,59,5.83,144.3,69.66,190.36l0.43,0.28l-0.57,0.14
				c-5.26,1-10.66,1.71-16.06,1.99C-76.26-333.77-78.53-333.62-80.81-333.62z M-165.68-369.73c24.03,24.45,57.43,37.39,91.7,35.4
				c5.12-0.28,10.38-1,15.5-1.85c-29.71-21.61-50.61-52.6-62.13-92.27c-12.08-41.51-9.81-78.9-7.39-97.81
				c-6.26,1.85-12.51,4.26-18.62,7.11c-0.71,2.99-1.56,6.11-2.56,9.67c-0.43,1.28-0.71,2.56-1.14,3.98
				c-2.13,7.39-6.82,16.06-11.23,24.59c-4.12,7.68-8.25,15.64-10.38,22.18C-180.75-432.43-178.05-394.19-165.68-369.73z
				 M-47.97-338.17L-47.97-338.17c-15.78-11.66-29.43-26.02-40.37-42.93c-9.81-15.07-17.49-31.99-23.03-50.61
				c-9.24-30.57-12.23-66.11-8.25-97.38v-0.14h0.14c6.4-1.56,13.08-2.7,19.76-3.27h0.28v0.28c1.56,18.48,14.36,38.67,37.82,59.99
				c29.29,27.86,64.12,63.69,73.93,93.83v0.14l-0.14,0.14C-3.33-358.93-24.09-345-47.97-338.17L-47.97-338.17z M-119.19-528.82
				c-7.25,58.15,7.11,142.73,71.37,189.93c23.6-6.82,44.21-20.47,59.57-39.66c-9.81-30-44.5-65.68-73.78-93.54
				C-85.5-493.42-98.3-513.6-100-532.23C-106.54-531.38-112.94-530.24-119.19-528.82z M18.71-387.08l-0.14-0.43
				c-9.95-28.58-40.94-59.71-71.79-89c-22.89-20.76-35.54-39.66-37.39-56.3v-0.28h0.28c47.34-1.42,93.97,21.18,127.52,61.84l0,0l0,0
				c0.57,3.55,0.85,7.25,1.14,11.23l0,0c1.56,25.87-5.26,50.9-19.33,72.5L18.71-387.08z M-90.19-532.65
				c1.99,16.35,14.5,35.11,37.11,55.59c30.71,29.29,61.7,60.28,71.79,88.71c13.93-21.47,20.47-46.2,19.05-71.65l0,0
				c-0.28-3.84-0.57-7.53-1.14-11.09c-32.56-39.38-77.2-61.7-122.97-61.7C-87.63-532.65-88.91-532.65-90.19-532.65z M-182.17-389.92
				c-10.52-16.92-16.78-36.39-17.91-56.3c-0.85-13.51,0.71-26.87,4.41-39.81l0,0l0,0c12.37-11.8,25.59-21.61,39.52-29l0.57-0.28
				l-0.28,1c-2.56,9.95-7.68,19.05-12.51,27.72c-3.27,5.97-6.68,12.23-9.24,18.48c-9.1,22.32-10.52,50.75-4.12,78.05L-182.17-389.92
				z M-195.25-485.74c-3.7,12.79-5.12,26.16-4.41,39.52c1.14,19.33,6.97,38.24,16.92,54.73c-6.11-27.01-4.41-54.88,4.55-76.91
				c2.56-6.4,5.97-12.51,9.38-18.48c4.83-8.67,9.81-17.77,12.37-27.58C-169.95-507.07-183.03-497.4-195.25-485.74z M-194.83-487.3
				l-0.43-0.14c0.28-0.85,0.57-1.71,0.85-2.56l0.43,0.14C-193.97-489.01-194.26-488.16-194.83-487.3z M32.35-489.58
				c-34.4-33.55-76.34-51.75-118.42-51.75c-1.42,0-2.84,0-4.26,0h-0.28v-0.28c2.27-18.48,18.77-27.01,25.87-29.85l0,0l0,0
				c45.21,6.11,83.45,38.1,97.53,81.6L32.35-489.58z M-86.07-541.9c41.94,0,83.74,18.05,118.14,51.18
				c-14.22-42.79-52.03-74.21-96.67-80.32c-6.97,2.84-23.03,11.09-25.45,29.14C-88.77-541.9-87.49-541.9-86.07-541.9z
				 M-189.71-501.09l-0.43-0.28c7.25-16.21,18.2-30.99,31.7-42.65l0.14-0.14l0.14,0.14c4.41,4.12,4.55,12.65,3.98,18.91v0.14h-0.14
				C-166.39-518.58-178.33-510.62-189.71-501.09z M-158.15-543.46c-13.22,11.23-23.88,25.59-30.99,41.23
				c11.09-9.24,22.89-17.06,34.69-23.03C-154.02-531.23-154.17-539.34-158.15-543.46z M-146.06-528.67v-0.43
				c0-6.11-1.85-12.37-5.69-19.9l-0.14-0.14l0.14-0.14c10.52-7.68,22.04-13.65,34.55-17.63l0.57-0.14l-0.28,0.57
				c-3.84,7.53-6.97,18.05-9.24,30.57v0.14h-0.14c-6.54,1.85-13.08,4.26-19.48,6.97L-146.06-528.67z M-151.18-549
				c3.84,7.39,5.54,13.51,5.69,19.62c6.26-2.7,12.65-4.98,19.05-6.82c2.27-12.23,5.26-22.6,8.96-30
				C-129.71-562.23-140.95-556.54-151.18-549z M-118.48-537.77v-0.43c2.42-13.36,5.97-24.45,10.24-31.13v-0.14h0.14
				c6.54-1.56,13.51-2.56,20.33-2.84c2.7-0.14,5.54-0.28,8.67-0.14h0.85l-0.71,0.43c-6.82,4.26-18.48,14.07-20.47,31.13v0.14h-0.14
				c-6.11,0.57-12.37,1.56-18.48,2.84L-118.48-537.77z M-107.82-568.91c-4.12,6.68-7.68,17.49-9.95,30.57
				c5.97-1.28,11.94-2.27,17.91-2.84c1.99-16.49,13.08-26.3,20.05-30.85c-2.84,0-5.4,0-7.82,0.14
				C-94.46-571.47-101.28-570.47-107.82-568.91z"/>
		</g>
		<g id="g5000" transform="translate(406.2451,669.8916)">
			<path id="path5002" class="st0" d="M78.01-337.03L28.25-350.4c9.1-6.82,39.52-14.36,39.95-30.42c0-0.28,0-0.43,0-0.71
				c16.35-12.94,22.04-31.28,16.49-56.3l21.04-52.32c0,0-54.31,13.08-62.98,15.07l8.1-24.45l-193.49,47.63
				c-45.92-20.05-101.79-4.26-145.58,21.61l-33.84-8.53c-30.57-7.96-57.58-14.64-84.16-8.53c20.33,18.2,47.2,25.31,77.91,33.27
				l11.94,3.13c-11.8,9.24-21.75,18.91-29.43,28.29l-7.68,9.38l27.72-4.41c-63.83,100.79,41.23,138.47,111.88,50.18l73.36-19.19
				c-10.24,13.51-10.24,33.69-10.24,33.69l4.41-3.41c22.18-18.62,47.77-28.01,67.67-32.13l47.06,12.37
				c-0.14,0.14-0.14,0.43-0.14,0.71c-1.71,25.87,10.38,43.5,36.96,47.77c1.56,0.28,2.7,0.57,4.69,0.85
				c-0.43-5.69-0.57-9.81-0.28-15.35c20.19,14.5,42.51,11.94,60.99-4.12l1.42,3.41c19.76,4.83,29.71-28.58,28.15-36.11
				C100.18-339.59,89.66-341.01,78.01-337.03"/>
		</g>
	</g>
	<g id="XMLID_2_">
		<g>
			<defs>
				<path id="SVGID_1_" d="M284.44,136.68c-6.97,0.43-13.65,1.42-20.19,2.84l0,0c-4.12,6.54-7.82,17.49-10.24,31.13l0,0
					c6.11-1.42,12.37-2.42,18.48-2.99l0,0c1.71-14.36,10.66-24.88,20.61-31.28l0,0c-0.43,0-1,0-1.42,0l0,0
					C289.28,136.4,286.86,136.54,284.44,136.68 M281.74,167.11c45.07-1.28,88.57,18.34,122.97,51.75l0,0
					c-13.93-43.22-51.89-75.35-97.38-81.46l0,0C295.53,142.23,283.59,152.04,281.74,167.11 M220.61,159.57
					c4.12,8.1,5.69,14.22,5.69,20.05l0,0c6.4-2.84,12.94-5.12,19.48-6.97l0,0c2.27-12.79,5.54-23.46,9.24-30.71l0,0
					C242.51,146.06,230.99,152.04,220.61,159.57 M182.23,207.48c11.66-9.81,23.6-17.63,35.68-23.74l0,0
					c0.71-7.11,0.14-14.79-3.98-18.77l0,0C200.43,176.49,189.48,190.99,182.23,207.48 M281.74,175.78
					c1.71,14.64,12.08,33.27,37.25,56.01l0,0c28.15,26.73,61.56,59.57,71.94,89.14l0,0c13.65-20.61,20.9-45.78,19.33-72.22l0,0
					c-0.28-3.84-0.57-7.53-1.14-11.23l0,0c-32.56-39.38-77.2-61.84-123.26-61.84l0,0C284.44,175.78,283.17,175.78,281.74,175.78
					 M252.6,179.76c-6.82,54.16,4.98,141.74,71.51,190.5l0,0c24.03-6.82,44.78-21.04,59.99-39.81l0,0
					c-9.95-30.57-45.21-66.53-73.78-93.69l0,0c-26.16-23.74-36.54-43.93-37.96-60.14l0,0C265.82,177.06,259.28,178.05,252.6,179.76
					 M225.3,189.14c-0.85,4.12-2.27,8.53-3.7,13.65l0,0c-3.98,14.07-17.2,32.84-21.75,46.77l0,0c-8.39,25.87-5.97,64.69,6.54,89.42
					l0,0c23.17,23.74,56.16,37.53,91.98,35.54l0,0c5.4-0.28,10.8-1,16.06-1.99l0,0c-66.39-47.77-77.05-135.2-69.8-190.64l0,0
					C237.96,183.88,231.56,186.3,225.3,189.14 M176.68,222.69c-3.55,12.51-5.12,26.02-4.41,39.66l0,0
					c1.14,20.61,7.53,39.81,17.77,56.16l0,0c-5.69-24.31-6.11-53.31,4.12-78.19l0,0c6.4-15.64,17.34-29.57,21.75-46.2l0,0l0.14-0.43
					C202.56,201.08,189.34,210.61,176.68,222.69 M177.11,221.27c0.43-0.85,0.71-1.71,0.85-2.56l0,0
					C177.68,219.56,177.39,220.42,177.11,221.27"/>
			</defs>
			<clipPath id="SVGID_2_">
				<use xlink:href="#SVGID_1_"  style="overflow:visible;"/>
			</clipPath>
			<g id="g5006" class="st3">
				<g id="g5012" transform="translate(406.2451,669.8916)">
					<path id="path5014" class="st0" d="M78.01-337.03L28.25-350.4c9.1-6.82,39.52-14.36,39.95-30.42c0-0.28,0-0.43,0-0.71
						c16.35-12.94,22.04-31.28,16.49-56.3l21.04-52.32c0,0-54.31,13.08-62.98,15.07l8.1-24.45l-193.49,47.63
						c-45.92-20.05-101.79-4.26-145.58,21.61l-33.84-8.53c-30.57-7.96-57.58-14.64-84.16-8.53c20.33,18.2,47.2,25.31,77.91,33.27
						l11.94,3.13c-11.8,9.24-21.75,18.91-29.43,28.29l-7.68,9.38l27.72-4.41c-63.83,100.79,41.23,138.47,111.88,50.18l73.36-19.19
						c-10.24,13.51-10.24,33.69-10.24,33.69l4.41-3.41c22.18-18.62,47.77-28.01,67.67-32.13l47.06,12.37
						c-0.14,0.14-0.14,0.43-0.14,0.71c-1.71,25.87,10.38,43.5,36.96,47.77c1.56,0.28,2.7,0.57,4.69,0.85
						c-0.43-5.69-0.57-9.81-0.28-15.35c20.19,14.5,42.51,11.94,60.99-4.12l1.42,3.41c19.76,4.83,29.71-28.58,28.15-36.11
						C100.18-339.59,89.66-341.01,78.01-337.03"/>
				</g>
				<g id="g5016" transform="translate(406.2451,669.8916)">
					<path id="XMLID_27_" class="st2" d="M-299.87-278.04c-11.37,0-21.47-2.99-29.29-8.53c-10.66-7.68-16.49-19.62-16.63-34.55
						c-0.14-16.35,6.54-35.97,19.48-56.58l-27.72,4.41l8.1-9.81c7.53-9.1,17.49-18.77,29-28.01l-11.37-2.99
						c-29.43-7.53-57.15-14.79-77.91-33.27l-0.43-0.28l0.43-0.14c27.15-6.26,54.88,1,84.3,8.53l33.69,8.53
						c25.02-14.79,89-46.2,145.58-21.61l193.91-47.63l-0.14,0.43l-7.96,24.03c9.95-2.42,62.55-15.07,62.55-15.07l0.43-0.14
						l-0.14,0.43l-21.04,52.46c5.54,24.74,0.14,43.22-16.49,56.44c0,0.14,0,0.28,0,0.43v0.14c-0.28,11.52-15.64,18.62-28.01,24.31
						c-4.83,2.27-8.96,4.12-11.66,5.97l49.19,13.22c11.66-3.98,22.04-2.42,22.46-2.27h0.14v0.14c1.14,5.4-3.41,22.89-12.51,31.56
						c-4.83,4.69-10.24,6.26-15.92,4.83h-0.14l-1.28-3.13c-19.05,16.49-41.09,18.05-60.7,4.26c-0.28,5.69-0.14,9.53,0.28,14.93v0.28
						h-0.28c-1.28-0.14-2.27-0.43-3.27-0.57c-0.43-0.14-1-0.14-1.42-0.28c-13.08-2.13-23.03-7.53-29.29-15.92
						c-6.11-8.1-8.81-18.91-7.96-32.13c0-0.28,0-0.43,0-0.57l-46.77-12.23c-14.64,2.99-42.79,11.09-67.53,31.99l-4.83,3.7v-0.57
						c0-0.14,0.14-19.76,9.81-33.27l-72.65,19.05C-241.15-293.39-273.85-278.04-299.87-278.04z M-325.32-378.26l-0.28,0.43
						c-30,47.34-21.32,78.05-3.27,90.84c25.59,18.34,75.49,7.96,114.73-41.09l0,0h0.14l74.07-19.48l-0.43,0.57
						c-9.1,12.08-10.09,29.85-10.09,32.98l3.98-3.13c24.88-21.04,53.17-29.14,67.81-32.13l0,0l0,0l47.34,12.37l-0.14,0.28
						c-0.14,0.14-0.14,0.43-0.14,0.71c-1.71,27.01,10.95,43.36,36.82,47.63c0.57,0.14,1,0.14,1.42,0.28
						c0.85,0.14,1.71,0.28,2.84,0.57c-0.43-5.26-0.43-9.38-0.28-15.07v-0.43l0.43,0.28c19.48,13.93,41.65,12.37,60.7-4.12l0.28-0.28
						l1.42,3.55c5.54,1.28,10.66-0.28,15.35-4.83c8.81-8.53,13.36-25.45,12.37-30.99c-1.28-0.28-11.23-1.42-22.04,2.27h-0.14h-0.14
						l-50.33-13.51l0.43-0.28c2.7-1.99,7.11-3.98,12.23-6.4c12.23-5.69,27.44-12.65,27.72-23.88v-0.14c0-0.14,0-0.28,0-0.57v-0.14
						l0.14-0.14c16.49-13.08,21.89-31.42,16.35-56.01v-0.14v-0.14l20.76-51.89c-5.26,1.28-54.31,13.08-62.41,15.07l-0.43,0.14
						l8.1-24.45l-193.06,47.48h-0.14c-56.44-24.59-120.41,6.82-145.29,21.61h-0.14h-0.14l-33.84-8.53
						c-29.14-7.53-56.72-14.64-83.59-8.67c20.61,18.2,48.19,25.31,77.34,32.84l12.37,3.27l-0.43,0.28
						c-11.66,9.24-21.89,19.05-29.43,28.15l-7.25,8.81L-325.32-378.26z"/>
				</g>
			</g>
		</g>
	</g>
	<g id="XMLID_4_">
		<g>
			<defs>
				<path id="SVGID_3_" d="M283.88,126.87c-71.08,4.12-125.39,65.11-121.27,136.19l0,0c4.12,71.08,65.11,125.39,136.19,121.27l0,0
					c71.08-4.12,125.39-65.11,121.27-136.19l0,0c-3.98-68.52-60.85-121.55-128.66-121.55l0,0
					C288.99,126.59,286.43,126.73,283.88,126.87 M264.26,139.53c6.54-1.56,13.36-2.56,20.19-2.84l0,0c2.84-0.14,5.83-0.28,8.67-0.14
					l0,0c-9.95,6.26-18.91,16.92-20.61,31.28l0,0c-6.11,0.57-12.37,1.56-18.48,2.99l0,0C256.44,157.01,260.13,146.06,264.26,139.53
					 M307.33,137.53c45.49,6.11,83.31,38.1,97.38,81.46l0,0c-34.4-33.55-77.91-53.17-122.97-51.75l0,0
					C283.59,152.04,295.53,142.23,307.33,137.53 M220.61,159.57c10.38-7.68,21.89-13.65,34.55-17.63l0,0
					c-3.7,7.25-6.97,17.77-9.24,30.71l0,0c-6.54,1.85-13.08,4.26-19.48,6.97l0,0C226.3,173.79,224.74,167.67,220.61,159.57
					 M213.93,164.97c4.12,3.98,4.55,11.66,3.98,18.77l0,0c-12.08,6.11-24.03,13.93-35.68,23.74l0,0
					C189.48,190.99,200.43,176.49,213.93,164.97 M318.99,231.93c-25.16-22.89-35.54-41.51-37.25-56.01l0,0
					c47.48-1.42,93.83,21.18,127.38,61.7l0,0c0.57,3.7,1,7.39,1.14,11.23l0,0c1.56,26.58-5.83,51.61-19.33,72.22l0,0
					C380.55,291.36,347.14,258.66,318.99,231.93 M252.6,179.76c6.54-1.56,13.08-2.7,19.76-3.27l0,0
					c1.42,16.21,11.8,36.54,37.96,60.14l0,0c28.58,27.15,63.97,63.26,73.78,93.69l0,0c-15.07,18.77-35.97,32.98-59.99,39.81l0,0
					C257.72,321.35,245.92,233.78,252.6,179.76 M206.25,338.98c-12.51-24.74-14.93-63.55-6.54-89.42l0,0
					c4.55-13.93,17.63-32.7,21.75-46.77l0,0c1.42-5.12,2.84-9.53,3.7-13.65l0,0c6.4-2.84,12.65-5.26,19.19-7.25l0,0
					c-7.25,55.44,3.41,142.73,69.8,190.64l0,0c-5.26,1-10.52,1.71-16.06,1.99l0,0c-2.27,0.14-4.69,0.14-6.97,0.14l0,0
					C258.14,374.81,228.01,361.16,206.25,338.98 M172.42,262.5c-0.85-13.79,0.71-27.15,4.41-39.66l0,0
					c12.65-12.08,25.87-21.75,39.38-29l0,0l-0.14,0.43c-4.41,16.63-15.35,30.57-21.75,46.2l0,0c-10.24,25.02-9.81,53.88-4.12,78.19
					l0,0C179.95,302.16,173.56,283.11,172.42,262.5 M177.96,218.57c-0.14,1-0.43,1.71-0.85,2.56l0,0
					C177.39,220.42,177.68,219.56,177.96,218.57"/>
			</defs>
			<clipPath id="SVGID_4_">
				<use xlink:href="#SVGID_3_"  style="overflow:visible;"/>
			</clipPath>
			<g id="g5022" class="st4">
				<g id="g5028" transform="translate(406.2451,669.8916)">
					<path id="path5030" class="st0" d="M78.01-337.03L28.25-350.4c9.1-6.82,39.52-14.36,39.95-30.42c0-0.28,0-0.43,0-0.71
						c16.35-12.94,22.04-31.28,16.49-56.3l21.04-52.32c0,0-54.31,13.08-62.98,15.07l8.1-24.45l-193.49,47.63
						c-45.92-20.05-101.79-4.26-145.58,21.61l-33.84-8.53c-30.57-7.96-57.58-14.64-84.16-8.53c20.33,18.2,47.2,25.31,77.91,33.27
						l11.94,3.13c-11.8,9.24-21.75,18.91-29.43,28.29l-7.68,9.38l27.72-4.41c-63.83,100.79,41.23,138.47,111.88,50.18l73.36-19.19
						c-10.24,13.51-10.24,33.69-10.24,33.69l4.41-3.41c22.18-18.62,47.77-28.01,67.67-32.13l47.06,12.37
						c-0.14,0.14-0.14,0.43-0.14,0.71c-1.71,25.87,10.38,43.5,36.96,47.77c1.56,0.28,2.7,0.57,4.69,0.85
						c-0.43-5.69-0.57-9.81-0.28-15.35c20.19,14.5,42.51,11.94,60.99-4.12l1.42,3.41c19.76,4.83,29.71-28.58,28.15-36.11
						C100.18-339.59,89.66-341.01,78.01-337.03"/>
				</g>
				<g id="g5032" transform="translate(406.2451,669.8916)">
					<path id="XMLID_24_" class="st1" d="M-299.87-278.04c-11.37,0-21.47-2.99-29.29-8.53c-10.66-7.68-16.49-19.62-16.63-34.55
						c-0.14-16.35,6.54-35.97,19.48-56.58l-27.72,4.41l8.1-9.81c7.53-9.1,17.49-18.77,29-28.01l-11.37-2.99
						c-29.43-7.53-57.15-14.79-77.91-33.27l-0.43-0.28l0.43-0.14c27.15-6.26,54.88,1,84.3,8.53l33.69,8.53
						c25.02-14.79,89-46.2,145.58-21.61l193.91-47.63l-0.14,0.43l-7.96,24.03c9.95-2.42,62.55-15.07,62.55-15.07l0.43-0.14
						l-0.14,0.43l-21.04,52.46c5.54,24.74,0.14,43.22-16.49,56.44c0,0.14,0,0.28,0,0.43v0.14c-0.28,11.52-15.64,18.62-28.01,24.31
						c-4.83,2.27-8.96,4.12-11.66,5.97l49.19,13.22c11.66-3.98,22.04-2.42,22.46-2.27h0.14v0.14c1.14,5.4-3.41,22.89-12.51,31.56
						c-4.83,4.69-10.24,6.26-15.92,4.83h-0.14l-1.28-3.13c-19.05,16.49-41.09,18.05-60.7,4.26c-0.28,5.69-0.14,9.53,0.28,14.93v0.28
						h-0.28c-1.28-0.14-2.27-0.43-3.27-0.57c-0.43-0.14-1-0.14-1.42-0.28c-13.08-2.13-23.03-7.53-29.29-15.92
						c-6.11-8.1-8.81-18.91-7.96-32.13c0-0.28,0-0.43,0-0.57l-46.77-12.23c-14.64,2.99-42.79,11.09-67.53,31.99l-4.83,3.7v-0.57
						c0-0.14,0.14-19.76,9.81-33.27l-72.65,19.05C-241.15-293.39-273.85-278.04-299.87-278.04z M-325.32-378.26l-0.28,0.43
						c-30,47.34-21.32,78.05-3.27,90.84c25.59,18.34,75.49,7.96,114.73-41.09l0,0h0.14l74.07-19.48l-0.43,0.57
						c-9.1,12.08-10.09,29.85-10.09,32.98l3.98-3.13c24.88-21.04,53.17-29.14,67.81-32.13l0,0l0,0l47.34,12.37l-0.14,0.28
						c-0.14,0.14-0.14,0.43-0.14,0.71c-1.71,27.01,10.95,43.36,36.82,47.63c0.57,0.14,1,0.14,1.42,0.28
						c0.85,0.14,1.71,0.28,2.84,0.57c-0.43-5.26-0.43-9.38-0.28-15.07v-0.43l0.43,0.28c19.48,13.93,41.65,12.37,60.7-4.12l0.28-0.28
						l1.42,3.55c5.54,1.28,10.66-0.28,15.35-4.83c8.81-8.53,13.36-25.45,12.37-30.99c-1.28-0.28-11.23-1.42-22.04,2.27h-0.14h-0.14
						l-50.33-13.51l0.43-0.28c2.7-1.99,7.11-3.98,12.23-6.4c12.23-5.69,27.44-12.65,27.72-23.88v-0.14c0-0.14,0-0.28,0-0.57v-0.14
						l0.14-0.14c16.49-13.08,21.89-31.42,16.35-56.01v-0.14v-0.14l20.76-51.89c-5.26,1.28-54.31,13.08-62.41,15.07l-0.43,0.14
						l8.1-24.45l-193.06,47.48h-0.14c-56.44-24.59-120.41,6.82-145.29,21.61h-0.14h-0.14l-33.84-8.53
						c-29.14-7.53-56.72-14.64-83.59-8.67c20.61,18.2,48.19,25.31,77.34,32.84l12.37,3.27l-0.43,0.28
						c-11.66,9.24-21.89,19.05-29.43,28.15l-7.25,8.81L-325.32-378.26z"/>
				</g>
			</g>
		</g>
	</g>
	<g id="g5038">
		<g id="g5044" transform="translate(415.0586,669.04)">
			<path id="path5046" class="st1" d="M88.26-334.41c-10.95-1.99-18.2,2.56-18.48,2.56c-0.14,0-38.1-10.24-52.17-13.93l-7.39-1.99
				c4.69-6.4,13.93-9.1,23.03-13.22c3.98-1.71,9.38-3.84,13.51-6.68c7.39-5.12,8.39-8.53,8.39-8.53
				c-13.36,0.43-26.02-3.13-28.29-3.7c-5.83-1.28-11.8-1.42-17.49-0.85c-0.14,0-0.43,0-0.57,0c-15.21,1.85-28.86,9.81-36.96,21.75
				c0,0-1,1.28-1.28,1.71c-1,1.14-2.56,2.99-2.56,2.99l4.41,1.14c3.13,0.57,1.42,7.25-2.7,6.11l-19.62-5.12
				c-7.68,0.71-15.64,1.28-21.04,1.71c-2.84,0.14-5.83,0.57-9.1,1l43.36,11.37c-3.13,28.29,12.08,45.78,33.55,47.48
				c0-2.84-0.14-8.96,0-19.76c0,0,30.85,33.12,66.25-2.42c0.28-0.28,2.99,6.68,2.99,6.68C81.86-304.13,88.83-334.27,88.26-334.41"/>
		</g>
		<g id="g5048" transform="translate(415.0586,669.04)">
			<path id="XMLID_21_" class="st1" d="M-2.72-290.19h-0.28c-10.38-0.85-19.05-5.12-25.16-12.65c-7.11-8.67-10.09-20.76-8.67-34.97
				l-43.22-11.37v-0.43c3.13-0.43,6.26-0.85,9.1-1c3.41-0.28,12.23-0.85,21.04-1.71l0,0l0,0l19.62,5.12
				c1.42,0.43,2.42-0.28,2.84-0.85c1-1,1.28-2.56,1-3.7c-0.14-0.43-0.43-1-1.28-1.14l-4.83-1.28l0.28-0.28c0,0,1.56-1.85,2.56-2.99
				c0.28-0.43,1.28-1.71,1.28-1.71c8.1-11.8,22.04-20.05,37.11-21.89c0.14,0,0.14,0,0.28,0c0.14,0,0.28,0,0.28,0
				c5.83-0.71,11.8-0.43,17.49,0.85c0.28,0,0.71,0.14,1.28,0.28c4.12,1,15.21,3.7,27.01,3.41l0,0v0.28l0.14,0.14l0,0
				c-0.71,1.42-2.7,4.41-8.53,8.53c-3.27,2.27-7.53,4.12-11.09,5.69c-0.85,0.43-1.56,0.71-2.42,1c-1.71,0.71-3.55,1.56-5.26,2.27
				c-6.97,2.99-13.65,5.69-17.49,10.66l6.97,1.85c14.36,3.84,50.33,13.51,52.03,13.93c0,0,0.14-0.14,0.28-0.14
				c6.97-3.41,13.79-3.27,18.2-2.42c0.28,0,0.28,0.43,0.28,0.71c-0.43,3.55-7.11,28.29-20.9,28.29c-0.43,0-0.85,0-1.42-0.14h-0.14
				v-0.14c-1-2.7-2.27-5.69-2.7-6.4c-11.09,11.09-22.75,16.63-34.97,16.35c-16.63-0.28-28.72-11.37-31.13-13.65
				c-0.14,9.67-0.14,15.35,0,18.48L-2.72-290.19z M-78.64-349.19l42.37,11.09v0.28c-1.56,14.22,1.42,26.16,8.53,34.83
				c5.97,7.25,14.5,11.52,24.45,12.37v-0.43c0-3.13-0.14-9.1,0-19.05v-0.57l0.43,0.43c0.14,0.14,12.94,13.65,31.13,13.93
				c0.14,0,0.43,0,0.57,0c11.8,0,23.32-5.54,34.12-16.35l0.14-0.14h0.14c0.14,0,0.43,0.14,3.13,6.68c3.84,0.43,7.39-1.14,10.66-4.55
				c7.25-7.53,10.8-21.75,10.8-23.46c-4.41-0.71-10.95-0.85-17.77,2.42c-0.28,0.14-0.43,0.14-0.57,0.14
				c-0.28,0-51.61-13.93-52.17-14.07l-7.68-1.99l0.28-0.28c3.84-5.26,10.66-8.1,17.91-11.09c1.71-0.71,3.41-1.42,5.26-2.27
				c0.71-0.28,1.56-0.71,2.42-1c3.7-1.56,7.82-3.41,11.09-5.69c5.54-3.84,7.53-6.68,8.1-8.1c-11.66,0.28-22.6-2.42-26.73-3.41
				c-0.57-0.14-1-0.28-1.14-0.28c-5.69-1.14-11.52-1.42-17.34-0.85c-0.14,0-0.14,0-0.28,0c-0.14,0-0.14,0-0.28,0
				c-15.07,1.85-28.72,9.81-36.82,21.61c0,0-1,1.28-1.42,1.71c-0.85,0.85-1.85,2.13-2.27,2.7l4.12,1c0.71,0.14,1.28,0.57,1.56,1.42
				c0.43,1.28,0,3.13-1.14,4.26c-0.85,1-2.13,1.28-3.41,1l-19.62-5.12c-8.81,0.71-17.63,1.42-21.04,1.71
				C-73.24-349.9-75.94-349.62-78.64-349.19z"/>
		</g>
	</g>
	<g id="XMLID_6_">
		<g>
			<defs>
				<path id="SVGID_5_" d="M409.55,294.77c-8.1,4.55-19.33,16.35-19.33,16.35l0,0c0,0-0.71,1.71,0.85,4.55l0,0
					c0.85,1.56,1.71,2.56,2.27,3.41l0,0c0-1.14,0.43-2.56,1.42-3.7l0,0c7.68-9.81,20.9-20.33,38.53-19.48l0,0
					c-17.49,2.99-29.14,14.22-36.68,24.45l0,0c-1.14,1.28-1.99,1.42-2.56,1l0,0c-0.14,2.13-1.56,4.69-3.27,5.12l0,0
					c-1.99,0.43-9.67,6.54-9.67,6.54l0,0v3.7l0.71,11.8c0,0,1.42,8.39,4.12,11.66l0,0c2.7,3.41,10.52,14.5,22.75,15.78l0,0
					c0,0,0.85-29.85,4.55-38.67l0,0c3.7-8.96,8.67-19.19,16.63-23.46l0,0c7.96-4.26,20.19-8.53,26.58-11.94l0,0
					c6.4-3.41,9.24-7.11,9.24-7.11l0,0c0,0-13.08-0.57-23.74-2.27l0,0c-4.55-0.71-9.67-1.28-14.64-1.28l0,0
					C420.64,291.22,414.24,292.07,409.55,294.77"/>
			</defs>
			<clipPath id="SVGID_6_">
				<use xlink:href="#SVGID_5_"  style="overflow:visible;"/>
			</clipPath>
			<g id="g5054" class="st5">
				<g id="g5060" transform="translate(385.5977,687.5146)">
					<path id="path5062" class="st0" d="M53.8-392.87c-18.05-3.13-34.55,2.56-46.49,19.33c2.27,1.42,3.84,4.98,3.55,8.81
						c-0.28,4.83-3.13,8.67-6.4,8.81c0,0.14,0,0.14,0,0.28c0.43,7.39,2.99,14.36,6.54,18.2c1.42-12.65,8.1-29.85,27.15-40.52
						c-18.91,16.49-22.75,40.23-21.32,56.44c-8.81-1.85-16.21-16.63-18.91-24.59c1.99,13.51,10.38,29.43,23.17,30.42
						c-2.7-25.87,7.39-52.6,24.31-61.56c6.97-3.7,16.78-6.11,27.44-13.08C61.48-391.16,57.93-392.16,53.8-392.87"/>
				</g>
				<g id="g5064" transform="translate(385.5977,687.5146)">
					<path id="XMLID_13_" class="st1" d="M21.53-315.39h-0.28c-12.51-0.85-21.32-16.06-23.46-30.57l0.43-0.14
						c2.84,8.81,10.09,22.32,18.34,24.31c-0.71-8.53-0.85-35.4,19.62-54.73c-19.9,12.23-24.17,31.28-25.02,39.1v0.57l-0.43-0.43
						c-3.7-3.7-6.26-10.95-6.68-18.34c0-0.14,0-0.14,0-0.28v-0.28h0.28c3.13-0.14,5.97-3.84,6.26-8.53c0.28-3.7-1.14-7.25-3.41-8.67
						l-0.28-0.14l0.14-0.28c11.37-16.06,27.58-22.89,46.77-19.48l0,0c0.85,0.14,1.56,0.28,2.42,0.43c3.41,0.71,7.53,1.42,16.78,2.27
						h0.71l-0.57,0.57c-6.82,4.41-13.08,6.97-18.77,9.24c-3.13,1.28-6.26,2.56-8.81,3.84c-16.49,8.67-26.87,34.97-24.17,61.27
						L21.53-315.39z M-1.21-343.25c2.7,13.22,10.8,26.3,22.18,27.3c-2.56-26.3,7.82-52.74,24.45-61.42
						c2.56-1.42,5.54-2.56,8.81-3.84c5.4-2.13,11.52-4.69,18.05-8.67c-8.67-0.71-12.79-1.56-16.06-2.13
						c-0.85-0.14-1.71-0.28-2.42-0.43c-18.91-3.41-34.83,3.27-46.06,19.05c2.27,1.56,3.7,5.12,3.41,8.96
						c-0.28,4.83-3.13,8.67-6.4,8.96c0,0,0,0,0,0.14c0.43,6.97,2.7,13.79,6.11,17.63c1-8.53,5.83-28.15,27.3-40.23l0.28,0.43
						c-22.46,19.62-21.89,48.05-21.32,56.3v0.28h-0.28C9.16-322.78,2.2-334.29-1.21-343.25z"/>
				</g>
			</g>
		</g>
	</g>
	<g id="g5070">
		<g id="g5076" transform="translate(269.4209,698.5752)">
			<path id="path5078" class="st1" d="M-81.9-428.01l-93.4-24.31c-26.58-7.39-33.55-13.36-35.26-14.79l54.31,13.93l88.14,22.6
				C-72.24-429.57-78.35-428.58-81.9-428.01 M233.56-512.17c-0.14,0.14-42.93,10.38-61.13,14.79l8.1-24.45L-6.41-475.49
				c-42.93-19.48-95.96-5.97-138.61,17.91l82.88,20.9c-0.43,1.14-0.71,2.13-1.28,3.13l-125.82-31.7
				c-25.59-6.54-48.62-12.79-70.66-8.53c17.2,14.5,40.37,20.05,65.96,26.58l93.97,24.74c-1.71,0.71-3.27,1.42-4.69,2.27l-69.52-18.2
				c-12.65,9.67-23.46,19.76-31.56,29.71l24.88-3.27c-70.94,113.73,43.79,128.23,98.24,51.61l90.13-22.6
				c-8.25,8.1-13.22,19.9-15.64,30.14c26.73-23.03,61.56-30.28,82.46-31.7c12.65-0.85,26.73-2.27,37.53-3.55l3.13-3.84
				c9.95-13.51,24.31-20.19,39.52-21.61c11.8-1.14,16.06,0.57,21.04,1.42c2.27,0.57,10.52,2.84,19.05,3.13
				c21.89-12.79,28.29-31.28,21.89-58L233.56-512.17L233.56-512.17z"/>
		</g>
	</g>
	<g id="XMLID_7_">
		<g>
			<defs>
				<path id="SVGID_7_" d="M263.55,217.86c-45.92-20.05-101.79-4.26-145.58,21.61l0,0l-33.84-8.53
					c-30.57-7.96-57.58-14.64-84.16-8.53l0,0c20.33,18.2,47.2,25.31,77.91,33.27l0,0l11.94,3.13c-11.8,9.24-21.75,18.91-29.43,28.29
					l0,0l-7.68,9.38l27.72-4.41c-63.83,100.79,41.23,138.47,111.88,50.18l0,0l73.36-19.19c-10.24,13.51-10.24,33.69-10.24,33.69l0,0
					l4.41-3.41c22.18-18.62,47.77-28.01,67.67-32.13l0,0l47.06,12.37c-0.14,0.14-0.14,0.43-0.14,0.71l0,0
					c-1.71,25.87,10.38,43.5,36.96,47.77l0,0c1.56,0.28,2.7,0.57,4.69,0.85l0,0c-0.43-5.69-0.57-9.81-0.28-15.35l0,0
					c20.19,14.5,42.51,11.94,60.99-4.12l0,0l1.42,3.41c19.76,4.83,29.71-28.58,28.15-36.11l0,0c0-0.14-10.66-1.71-22.32,2.27l0,0
					l-49.76-13.36c9.1-6.82,39.52-14.36,39.95-30.42l0,0c0-0.28,0-0.43,0-0.71l0,0c16.35-12.94,22.04-31.28,16.49-56.3l0,0
					l21.04-52.32c0,0-54.31,13.08-62.98,15.07l0,0l8.1-24.45L263.55,217.86L263.55,217.86z M378.42,289.65
					c46.63-6.97,96.67-18.62,78.9-45.21l0,0c-3.41-3.13-5.12-3.98-7.82-7.53l0,0c-11.52-15.5,8.25-33.27,30.42-31.84l0,0
					c1.56,0.14,5.54,0.71,5.4,0.85l0,0l-5.4,13.93c-4.41-7.11-18.91-8.81-20.9-0.14l0,0c-1.42,6.4,8.81,8.81,14.79,20.05l0,0
					c8.1,15.35-0.43,30.85-15.07,38.38l0,0c-5.69,2.99-11.66,5.4-17.63,7.53l0,0c-4.98,1.28-10.09,2.7-16.49,4.55l0,0
					c-5.83,1.56-7.68,2.7-30,6.26l0,0c-37.96,5.69-78.05,7.53-111.6,23.32l0,0C297.67,304.72,336.05,296.19,378.42,289.65
					 M137.16,245.58c53.74-27.15,103.92-28.43,125.39-7.53l0,0l0,0l0,0l0,0l0,0c-0.85-0.28-42.37,24.31-46.77,27.58l0,0
					c20.61-40.23-16.49-31.13-47.34-11.8l0,0L137.16,245.58L137.16,245.58z M86.69,278.28c7.39-5.97,14.79-11.37,22.32-16.35l0,0
					l35.97,9.95c-0.57,0.57-1.14,1.14-1.71,1.71l0,0c-80.18,83.59-27.44,97.67,30.99,65.54l0,0c1.28-0.57-8.25,8.1-8.25,8.1l0,0
					c-64.83,63.69-135.63,15.78-49.19-75.77l0,0c-9.24,2.56-27.72,6.97-29.85,6.97l0,0C86.84,278.28,86.69,278.28,86.69,278.28"/>
			</defs>
			<clipPath id="SVGID_8_">
				<use xlink:href="#SVGID_7_"  style="overflow:visible;"/>
			</clipPath>
			<g id="g5082" class="st6">
				<g id="g5088" transform="translate(269.4209,698.5752)">
					<path id="path5090" class="st1" d="M-81.9-428.01l-93.4-24.31c-26.58-7.39-33.55-13.36-35.26-14.79l54.31,13.93l88.14,22.6
						C-72.24-429.57-78.35-428.58-81.9-428.01 M233.56-512.17c-0.14,0.14-42.93,10.38-61.13,14.79l8.1-24.45L-6.41-475.49
						c-42.93-19.48-95.96-5.97-138.61,17.91l82.88,20.9c-0.43,1.14-0.71,2.13-1.28,3.13l-125.82-31.7
						c-25.59-6.54-48.62-12.79-70.66-8.53c17.2,14.5,40.37,20.05,65.96,26.58l93.97,24.74c-1.71,0.71-3.27,1.42-4.69,2.27
						l-69.52-18.2c-12.65,9.67-23.46,19.76-31.56,29.71l24.88-3.27c-70.94,113.73,43.79,128.23,98.24,51.61l90.13-22.6
						c-8.25,8.1-13.22,19.9-15.64,30.14c26.73-23.03,61.56-30.28,82.46-31.7c12.65-0.85,26.73-2.27,37.53-3.55l3.13-3.84
						c9.95-13.51,24.31-20.19,39.52-21.61c11.8-1.14,16.06,0.57,21.04,1.42c2.27,0.57,10.52,2.84,19.05,3.13
						c21.89-12.79,28.29-31.28,21.89-58L233.56-512.17L233.56-512.17z"/>
				</g>
				<g id="g5092" transform="translate(269.4209,698.5752)">
					<path id="XMLID_15_" class="st1" d="M-163.36-312.29c-9.67,0-18.2-2.27-25.02-6.82c-10.24-6.82-15.35-18.2-14.93-32.84
						c0.43-16.63,7.96-36.68,22.18-59.71l-24.88,3.27l0.43-0.43c8.1-9.95,19.05-20.19,31.56-29.71l0.14-0.14h0.14l69.38,18.2
						c1.14-0.57,2.42-1.28,3.98-1.85l-95.82-25.16c-24.03-6.26-46.77-12.08-63.41-26.02l-0.43-0.28l0.57-0.14
						c21.47-4.26,44.21,1.71,68.52,7.96l2.27,0.57L-63-433.84c0.28-0.71,0.71-1.56,1-2.56l-83.17-20.9l0.57-0.28
						c50.61-28.43,101.22-34.97,138.75-18.05l187.23-46.49l-0.14,0.43l-7.96,24.03c20.61-4.98,59.85-14.36,60.56-14.64v0.14
						l0.28,0.14l-16.92,45.21c6.4,27.15-0.57,45.63-22.04,58.15l0,0h-0.14c-8.1-0.43-16.21-2.42-18.77-3.13l-0.28-0.14
						c-0.85-0.14-1.71-0.28-2.7-0.57c-3.98-0.85-8.53-1.85-18.2-1c-16.63,1.56-30.14,9.1-39.38,21.61l-3.41,4.12h-0.14
						c-7.82,0.85-23.03,2.42-37.53,3.55c-14.93,1.14-52.89,6.26-82.31,31.7l-0.57,0.57l0.14-0.71c1.71-7.11,5.97-20.33,15.07-29.57
						l-89.28,22.32c-14.36,20.19-33.98,35.4-55.3,42.93C-146.45-313.85-155.26-312.29-163.36-312.29z M-180.14-412.23l-0.28,0.43
						c-26.87,43.08-29.71,77.62-7.68,92.27c12.37,8.25,30.71,8.96,50.47,1.99c21.18-7.53,40.66-22.75,55.02-42.79v-0.14h0.14
						l91.13-22.89l-0.71,0.71c-9.1,8.96-13.51,21.89-15.5,29.29c29.43-25.02,67.1-30.28,82.03-31.28c14.36-1,29.57-2.7,37.39-3.55
						l2.99-3.84c9.24-12.65,22.89-20.19,39.66-21.75c9.81-1,14.36,0,18.48,1c0.85,0.14,1.71,0.43,2.7,0.57l0.28,0.14
						c2.56,0.71,10.52,2.7,18.62,3.13c21.32-12.37,28.15-30.71,21.75-57.72v-0.14v-0.14l16.78-44.78
						c-5.69,1.56-51.04,12.37-60.7,14.64l-0.43,0.14l8.1-24.45L-6.41-475.07h-0.14c-37.25-16.92-87.43-10.52-137.76,17.63
						l82.46,20.76L-62-436.4c-0.43,1.28-0.85,2.27-1.28,3.13l-0.14,0.14h-0.14l-128.09-32.27c-23.88-6.11-46.63-12.08-67.67-7.96
						c16.49,13.65,39.1,19.48,62.84,25.59l2.56,0.71l94.68,24.88l-0.71,0.28c-1.85,0.71-3.41,1.56-4.69,2.13h-0.14h-0.14
						l-69.38-18.2c-12.23,9.38-22.89,19.33-30.99,29.14L-180.14-412.23z M-81.9-427.72L-81.9-427.72l-93.4-24.31
						c-12.23-3.41-28.43-8.67-35.4-14.93l0.28-0.43l54.31,13.93l88.14,22.6v0.43c-3.7,0.85-9.1,1.85-12.65,2.42L-81.9-427.72z
						 M-209.71-466.68c7.39,5.83,22.6,10.8,34.4,14.07l93.4,24.31l0.85-0.14c3.27-0.57,8.1-1.42,11.66-2.13l-87.15-22.32
						L-209.71-466.68z"/>
				</g>
			</g>
		</g>
	</g>
	<g id="g5098">
		<g id="g5104" transform="translate(407.4941,666.123)">
			<path id="path5106" class="st0" d="M79.38-325.12c3.84-1.85,7.96-2.56,12.08-3.13c-5.69,2.13-8.67,5.54-8.96,5.4
				c-1.28,3.13-1.28,6.54-8.53,10.24C76.26-316.3,79.67-320.43,79.38-325.12"/>
		</g>
		<g id="g5108" transform="translate(407.4941,666.123)">
			<path id="XMLID_11_" class="st1" d="M73.27-312.04l0.43-0.71c0.28-0.57,0.71-1.14,1.14-1.71c2.13-3.13,4.55-6.82,4.26-10.66
				v-0.14l0.14-0.14c3.98-1.85,8.39-2.7,12.23-3.13l0.14,0.43c-4.12,1.56-6.68,3.7-7.96,4.69c-0.43,0.43-0.71,0.57-0.85,0.71
				c-0.14,0.43-0.28,1-0.57,1.42c-1,2.84-1.99,5.69-8.1,8.81L73.27-312.04z M79.67-324.98c0.14,3.98-2.27,7.53-4.41,10.8
				c-0.14,0.28-0.43,0.57-0.57,0.85c5.26-2.84,6.26-5.54,7.11-8.1c0.14-0.57,0.43-1,0.57-1.56l0.14-0.28h0.14
				c0.14-0.14,0.43-0.28,0.71-0.57c1.14-0.85,3.13-2.56,6.26-3.98C86.49-327.25,82.94-326.54,79.67-324.98z"/>
		</g>
		<g id="g5112" transform="translate(373.8457,663.2939)">
			<path id="path5114" class="st0" d="M40.03-316.22c7.96,17.34,30.85,21.47,44.78,18.48c-6.26,5.4-36.39,4.26-45.49-13.51
				L40.03-316.22"/>
		</g>
		<g id="g5116" transform="translate(373.8457,663.2939)">
			<path id="XMLID_34_" class="st1" d="M72.59-294.61c-2.99,0-6.26-0.28-9.38-0.85c-6.68-1.28-18.62-4.98-24.03-15.5v-0.14v-0.14
				l0.85-5.83l0.28,0.71c7.96,17.49,30.85,21.32,44.5,18.34l1-0.14l-0.71,0.57C82.83-295.6,78.13-294.61,72.59-294.61z M39.61-311.1
				c5.26,10.24,17.06,13.93,23.6,15.21c8.1,1.56,16.63,1,20.47-1.28c-13.79,2.42-35.4-1.56-43.5-18.05L39.61-311.1z"/>
		</g>
		<g id="g5120" transform="translate(377.7559,673.4746)">
			<path id="path5122" class="st0" d="M44.67-348.46l59.71,15.5c1.99,0.57,1.14,5.97-1.42,5.26l-61.42-15.64
				C41.97-344.76,44.1-348.03,44.67-348.46"/>
		</g>
		<g id="g5124" transform="translate(377.7559,673.4746)">
			<path id="XMLID_37_" class="st1" d="M103.38-327.42c-0.14,0-0.28,0-0.43,0L41.4-343.06v-0.28c0.43-1.56,2.56-4.83,3.27-5.26h0.14
				h0.14l59.71,15.5c0.57,0.14,1,0.57,1.14,1.28c0.43,1.28,0,3.13-0.85,3.98C104.24-327.56,103.81-327.42,103.38-327.42z
				 M41.82-343.48l61.13,15.5c0.43,0.14,1,0,1.28-0.43c0.71-0.71,1.14-2.42,0.71-3.55c-0.14-0.43-0.28-0.85-0.71-1l-59.57-15.35
				C44.24-347.61,42.39-344.91,41.82-343.48z"/>
		</g>
		<g id="g5128" transform="translate(401.2148,661.2993)">
			<path id="path5130" class="st0" d="M72.05-309.81c-21.47,21.32-55.3,6.68-55.16-10.66C17.31-320.47,38.92-304.55,72.05-309.81"/>
		</g>
		<g id="g5132" transform="translate(401.2148,661.2993)">
			<path id="XMLID_58_" class="st1" d="M46.6-299c-5.4,0-10.52-1.14-14.64-2.84c-9.38-3.98-15.35-11.23-15.21-18.48v-0.28h0.28
				c0.14,0,0.14,0,0.85,0.43c9.1,5.54,28.29,14.36,54.31,10.24l0.71-0.14l-0.71,0.43C64.37-301.85,54.99-299,46.6-299z
				 M17.17-320.04c0.14,6.82,5.97,13.79,14.93,17.63c10.24,4.26,26.44,4.98,39.24-6.97c-25.87,3.84-44.78-4.83-53.88-10.38
				C17.31-319.9,17.31-319.9,17.17-320.04z"/>
		</g>
	</g>
	<g id="XMLID_9_">
		<g>
			<defs>
				<path id="SVGID_9_" d="M392.92,313.96c2.27,1.42,3.84,4.98,3.55,8.81l0,0c-0.28,4.83-3.13,8.67-6.4,8.81l0,0
					c0,0.14,0,0.14,0,0.28l0,0c0.43,7.39,2.99,14.36,6.54,18.2l0,0c1.42-12.65,8.1-29.85,27.15-40.52l0,0
					c-18.91,16.49-22.75,40.23-21.32,56.44l0,0c-8.81-1.85-16.21-16.63-18.77-24.59l0,0c1.99,13.51,10.38,29.43,23.17,30.42l0,0
					c-2.7-25.87,7.39-52.6,24.31-61.56l0,0c6.97-3.7,16.78-6.11,27.44-13.08l0,0c-11.52-1-15.07-1.99-19.19-2.7l0,0
					c-3.13-0.57-6.26-0.85-9.38-0.85l0,0C415.66,293.77,402.73,300.03,392.92,313.96"/>
			</defs>
			<clipPath id="SVGID_10_">
				<use xlink:href="#SVGID_9_"  style="overflow:visible;"/>
			</clipPath>
			<g id="g5138" class="st7">
				<g id="g5144" transform="translate(364.9824,677.9282)">
					<path id="path5146" class="st8" d="M29.76-362.5c-2.7,3.27-1.28,8.53,1.99,4.98c7.39-10.24,19.19-21.32,36.68-24.45
						C50.66-382.83,37.29-372.31,29.76-362.5"/>
				</g>
			</g>
		</g>
	</g>
	<g id="g5150">
		<g id="g5156" transform="translate(396.4629,659.4248)">
			<path id="path5158" class="st1" d="M66.49-303.92c-23.03,1.14-39.52-8.81-39.52-8.81C30.24-302.64,54.12-295.39,66.49-303.92"/>
		</g>
		<g id="g5160" transform="translate(370.4648,727.1982)">
			<path id="path5162" class="st8" d="M36.19-518.58l-1.99-7.39l-4.83,14.64l-4.83,1.14l7.39-18.91l4.98-1.28l1.56,6.54l2.99-7.68
				l4.83-1.14l-7.39,18.91l-4.98,1.28L36.19-518.58 M20.27-524.41c-0.14,0-0.28,0-0.71,0c-0.71,0-1.14,0-1.28,0.14
				c-0.28,0-0.85,0.28-1.71,0.71c-0.43,0.14-0.71,0.28-0.71,0.43l-2.99,7.39l4.55-1.14L20.27-524.41L20.27-524.41z M16.57-515.03
				l-4.55,1.14l-2.84,7.11L4.2-505.5L10.74-522c0.28-0.85,1.56-1.71,3.55-2.7c1.56-0.71,3.27-1.42,4.69-1.71
				c1.42-0.43,2.84-0.43,4.26-0.43c1.42,0,2.27,0.43,1.99,1.14l-6.54,16.63l-4.83,1.14L16.57-515.03z M-5.32-520.01l4.83-1.14
				l-6.54,16.78l7.96-1.99l-0.85,2.13l-12.94,3.13L-5.32-520.01z M-20.96-515.88l11.09-2.7l-0.85,1.99l-6.26,1.56l-2.27,5.69
				l6.26-1.56l-0.85,2.13l-6.26,1.56l-2.7,6.97l6.26-1.56l-0.85,2.13l-11.09,2.7L-20.96-515.88z M-55.79-507.35l11.09-2.7
				l-0.85,1.99l-6.26,1.56l-2.27,5.69l6.26-1.56l-0.85,2.13l-6.26,1.56l-2.7,6.97l6.26-1.56l-0.85,2.13l-11.09,2.7L-55.79-507.35z
				 M-72.42-503.09l4.83-1.14l-6.54,16.78l7.96-1.99l-0.85,2.13l-12.94,3.13L-72.42-503.09z M-92.89-481.05
				c-1.28,0.28-2.56,0.43-3.84,0.43c-1.71,0-2.7-0.28-2.42-1.14l5.69-14.36c0.28-0.57,1.42-1.42,2.99-2.27
				c1.71-0.85,3.13-1.56,4.55-1.85l7.96-1.99l-1.28,3.41l-4.83,1.14l0.57-1.28l-1.28,0.28c-1.28,0.28-2.27,0.57-2.84,0.85
				c-0.57,0.28-0.71,0.43-0.71,0.57l-5.4,13.93c0,0,0,0.14,0.85,0.14c0.71,0,1.14-0.14,1.28-0.14c0.71-0.14,1.28-0.43,1.85-0.71
				c0.71-0.43,1-0.71,1.14-1l-0.28-0.71l5.26-1.28l-0.57,1.56c-0.28,0.71-1.71,1.71-3.7,2.56
				C-89.91-481.9-91.47-481.34-92.89-481.05 M52.54-517.45l-7.96,1.99l7.39-18.91l7.96-1.99c1.28-0.28,2.56-0.43,3.84-0.14
				c1.14,0.14,1.99,0.43,1.71,1l-5.54,13.93c-0.28,0.57-1.42,1.42-2.99,2.27C55.38-518.44,53.96-517.73,52.54-517.45 M59.93-534.22
				l-0.57-0.14l-3.13,0.71l-5.83,14.79l2.56-0.57c0.14,0,0.43-0.14,1.28-0.57l0.85-0.43l5.4-13.65
				C60.36-534.22,60.22-534.22,59.93-534.22 M-42.57-510.2l3.98-0.85l0.43,10.09l7.96-11.94l5.4-1.42l-15.64,20.61L-42.57-510.2z"/>
		</g>
		<g id="g5164" transform="translate(287.0654,698.8657)">
			<path id="path5166" class="st8" d="M-61.38-428.88l7.68,4.69c-3.98,11.23-21.18,35.11-30.99,42.37l17.2-45.63l-13.22,3.55
				l-21.61,55.02l27.72-7.11c0.57-0.14,24.88-19.48,38.67-59.28L-61.38-428.88"/>
		</g>
		<g id="g5168" transform="translate(261.8057,680.7241)">
			<path id="path5170" class="st8" d="M-90.8-371.42l-10.8,3.13c0,0,9.1-17.77,18.34-20.47L-90.8-371.42 M-116.39-362.46
				c-0.14,0-10.09,20.47-12.08,24.74l13.65-3.55l9.24-19.19l11.09-3.27l-7.68,19.19l14.5-3.7l22.46-55.59
				C-72.75-401.27-99.33-400.71-116.39-362.46"/>
		</g>
		<g id="g5172" transform="translate(372.8633,710.8662)">
			<path id="path5174" class="st8" d="M38.91-466.9l6.4-17.63l9.95-2.7C53.84-483.39,51.14-473.15,38.91-466.9 M49.43-461.64
				c-0.71-1.14-1.28-3.27-1.28-3.41c0.43-0.14,0.85-0.43,1.42-0.71c8.81-5.12,18.62-20.19,18.2-30.57
				c-12.51,3.41-33.55,8.81-33.55,8.96l-20.05,55.02l13.08-3.41l8.67-23.74c1,2.27,6.68,15.78,17.91,16.92
				c12.94,1.28,20.47-11.52,20.47-11.52C70.75-450.83,55.4-449.84,49.43-461.64"/>
		</g>
		<g id="g5176" transform="translate(307.4004,692.2827)">
			<path id="path5178" class="st8" d="M-37.6-408.06l-10.8,3.13c0,0,8.96-17.63,18.34-20.47L-37.6-408.06 M-63.19-399.1
				c-0.14,0-9.95,20.19-11.94,24.31l13.79-3.55l8.96-18.91l11.09-3.27l-7.53,19.05l14.5-3.7l22.46-55.3
				C-18.55-438.34-45.99-437.34-63.19-399.1"/>
		</g>
		<g id="g5180" transform="translate(342.2422,713.2705)">
			<path id="path5182" class="st8" d="M3.11-474.56l-21.61,55.3l13.79-3.41l21.47-55.3L3.11-474.56z"/>
		</g>
		<g id="g5184" transform="translate(349.0127,695.0059)">
			<path id="path5186" class="st8" d="M11.08-416.58l6.82-16.06l18.91-10.24l-15.21,1.14l6.54-17.63
				c8.25-2.56,12.51-0.14,15.92,5.12l6.26-15.5l-33.27,8.53l-21.32,55.3l33.84-8.81l7.25-17.06
				C29.56-423.69,21.18-418.28,11.08-416.58"/>
		</g>
		<g id="g5188" transform="translate(320.9648,687.8413)">
			<path id="path5190" class="st8" d="M-21.64-394.01l18.05-47.91l-14.36,3.7l-21.32,55.44l36.54-9.38l8.1-19.62
				C-4.44-400.41-9.56-396-21.64-394.01"/>
		</g>
	</g>
	<g id="XMLID_10_">
		<g>
			<defs>
				<path id="SVGID_11_" d="M263.26,223.12c-42.93-19.48-95.96-5.97-138.61,17.91l0,0l82.88,20.9c-0.43,1.14-0.71,2.13-1.28,3.13
					l0,0l-36.54,11.23c-1.71,0.71-3.27,1.42-4.69,2.27l0,0l-69.52-18.34c-12.65,9.67-23.46,19.76-31.56,29.71l0,0l24.88-3.27
					c-70.94,113.73,43.79,128.23,98.24,51.61l0,0l90.13-22.6c-8.25,8.1-13.22,19.9-15.64,30.14l0,0
					c26.73-23.03,61.56-30.28,82.46-31.7l0,0c12.65-0.85,26.73-2.27,37.53-3.55l0,0l3.13-3.84c9.95-13.51,24.31-20.19,39.52-21.61
					l0,0c11.8-1.14,16.06,0.57,21.04,1.42l0,0c2.27,0.57,10.52,2.84,19.05,3.13l0,0c21.89-12.79,28.29-31.28,22.04-58l0,0
					l16.92-45.21c-0.14,0.14-42.93,10.38-61.13,14.79l0,0l8.1-24.45L263.26,223.12L263.26,223.12z"/>
			</defs>
			<clipPath id="SVGID_12_">
				<use xlink:href="#SVGID_11_"  style="overflow:visible;"/>
			</clipPath>
			<g id="g5194" class="st9">
				<g id="g5200" transform="translate(406.7539,728.3926)">
					<path id="path5202" class="st8" d="M78.5-522.49l-5.4,13.93c-4.41-7.11-18.91-8.81-20.9-0.14c-1.42,6.4,8.81,8.81,14.79,20.05
						c8.1,15.35-0.43,30.85-15.07,38.38c-5.69,2.99-11.66,5.4-17.63,7.53c-4.98,1.28-10.09,2.7-16.49,4.55
						c-5.83,1.56-7.68,2.7-30,6.26c-37.96,5.69-78.05,7.53-111.6,23.32c14.5-14.93,53.03-23.46,95.39-30
						c46.63-6.97,96.67-18.62,78.9-45.21c-3.41-3.13-5.12-3.98-7.82-7.53c-11.52-15.5,8.25-33.27,30.42-31.84
						C74.67-523.2,78.65-522.63,78.5-522.49"/>
				</g>
				<g id="g5204" transform="translate(304,713.5708)">
					<path id="path5206" class="st8" d="M-41.59-475.42c-0.14-0.71-42.37,24.31-46.77,27.58c27.01-52.74-44.92-20.76-72.36,7.96
						c-80.18,83.59-27.44,97.67,30.99,65.54c1.28-0.57-8.25,8.1-8.25,8.1c-64.83,63.69-135.63,15.78-49.19-75.77
						c-9.81,2.84-30,7.39-30,6.82C-146.79-492.2-69.6-503-41.59-475.42"/>
				</g>
			</g>
		</g>
	</g>
</g>
</svg>
