<?xml version="1.0" encoding="utf-8"?>
<!-- Generator: Adobe Illustrator 26.5.0, SVG Export Plug-In . SVG Version: 6.00 Build 0)  -->
<svg version="1.1" id="Layer_1" xmlns="http://www.w3.org/2000/svg" xmlns:xlink="http://www.w3.org/1999/xlink" x="0px" y="0px"
	 viewBox="0 0 512 512" style="enable-background:new 0 0 512 512;" xml:space="preserve">
<style type="text/css">
	.st0{fill:#23375B;}
	.st1{fill:#6189B9;}
	.st2{fill:#FDB827;}
	.st3{fill:#BBD1E4;}
</style>
<g id="XMLID_1_">
	<path id="XMLID_23_" class="st0" d="M140.53,342.13v71.4c4.07,0,45.73,0,45.73,0v-8.84l-36.75,0.14V339.6h36.75v-9.26l-50.08,0.14
		L140.53,342.13z M244.06,342.13c0,0-5.47,0-12.2,0v71.68h7.57v-63.55h2.67c1.54,0,2.81,1.68,2.81,3.79v59.76h8.14v-60.46
		C253.31,345.64,248.97,342.13,244.06,342.13 M206.18,413.81h7.72v-63.55h6.31v63.55h8v-71.68c-9.54,0-20.2-0.14-22.02-0.14V413.81z
		 M109.67,319.96c0,0-6.03,0-13.61,0v93.28h8.56v-84.03h3.09c1.68,0,3.09,1.82,3.09,4.21v79.96h9.54v-80.66
		C120.33,324.45,115.42,319.96,109.67,319.96 M153.16,370.18h23.99v-8.42h-16.27v-9.96h25.25v-8.56h-33.11v26.93H153.16z
		 M245.32,330.77h-55.41l4.63,12.62v70.56h7.86v-75.61l41.66,0.14c6.87,0,12.91,5.19,12.91,15.01v60.46h7.43l-0.14-65.51
		C264.26,337.22,254.86,330.77,245.32,330.77 M352.77,363.03h-9.82v-32.97h-7.57v39.28h25.95v-39.28h-8.42v32.97H352.77z
		 M161.01,382.67h16.27v-8.84H153.3v27.21c2.95,0,27.77,0,33.11-0.14v-7.86h-25.25v-10.38H161.01z M67.73,413.39h8.7v-84.17h7.01
		v84.03h8.98v-93.28c-10.8,0-22.87,0-24.69-0.14C67.73,319.82,67.73,413.39,67.73,413.39z M111.07,307.62H50.05l5.19,13.89v91.88
		h8.84v-97.07l45.73,0.14c7.57,0,14.31,5.61,14.31,16.41v80.66h8l-0.14-86.27C131.97,314.91,121.59,307.62,111.07,307.62
		 M394.15,330.35v83.75h8.98v-83.75H394.15z M381.53,343.95v70.14h8.98v-83.75h-14.03L381.53,343.95z M432.45,370.18
		c7.86,0,6.59,5.05,6.59,10.1v8.7c0,2.1-1.4,3.79-3.09,3.79h-1.26c-1.68,0-3.09-1.68-3.09-3.79v-10.24h-9.4v9.12
		c0,5.61,0,13.89,12.77,13.89c13.19,0,13.75-9.96,13.75-10.38v-18.94c0-8.98-4.77-9.82-12.34-10.38c-2.24-0.14-4.63-0.42-6.73-0.98
		c-8.98-2.52-10.1-8.7-10.52-11.08c-0.28-1.54-0.14-13.89-0.14-17.96c0-0.42-0.42-6.17,3.65-10.52c2.81-3.09,6.87-4.63,12.34-4.63
		c5.75,0,10.1,1.68,13.19,5.05c3.65,4.07,4.07,9.4,4.07,11.36c0,0.42,0,0.56,0,0.7v7.86h9.68v-13.47
		c0-12.77-10.24-21.18-23.71-21.18h-4.35c-13.19,0-25.11,7.01-25.11,21.6v19.5C408.46,362.89,421.79,370.18,432.45,370.18
		 M300.03,330.77h-32.68l4.49,12.48v70.84h7.43V338.2h19.5c7.01,0,14.03,4.91,14.03,13.75v8.98c0,8.84-7.01,13.47-14.03,13.47
		h-15.85v39.7h8.42v-32.97l10.52-0.14c11.64,0,17.82-10.24,17.82-20.06l0.28-12.34C319.95,336.94,309.71,330.77,300.03,330.77
		 M441.43,350.4l-4.07-0.28c-3.79,0-5.89-1.54-5.89-5.47v-11.08c0-2.1,1.4-3.79,3.09-3.79h1.26c1.68,0,3.09,1.68,3.09,3.79v8.42
		h9.54v-8.14c0,0,0.42-5.61-3.09-9.4c-2.38-2.52-5.89-3.79-10.52-3.79c-4.35,0-7.57,1.12-9.68,3.37c-2.95,3.23-2.67,7.72-2.67,7.86
		v0.14v0.14c0,7.72,0,16.27,0.14,17.39c0.42,2.1,1.12,6.31,8,8.28c1.68,0.42,3.79,0.7,6.03,0.84c6.59,0.42,15.71,1.12,15.71,14.03
		v19.08c0,0.14-0.56,13.89-17.39,13.89c-16.27,0-16.27-12.34-16.27-17.53v-9.12h-9.82v13.33c0,15.99,12.2,22.02,23.29,22.02h5.75
		c14.03,0,24.13-8.7,24.13-22.58v-20.76C461.91,355.74,451.81,350.4,441.43,350.4 M323.17,343.11v71.54h8.56V330.2h-13.19
		L323.17,343.11z M309.14,360.93v-8.98c0-6.73-5.33-10.1-10.38-10.1h-15.85v28.9h15.85C303.81,370.6,309.14,367.66,309.14,360.93
		 M291.47,363.03v-14.17h5.19c2.67,0,4.77,2.52,4.77,5.75v2.81c0,3.23-2.1,5.75-4.77,5.75L291.47,363.03L291.47,363.03z
		 M364.98,414.51h7.72v-84.45h-7.72V414.51z M335.38,414.51h7.57v-33.25h9.82v33.25h8.42v-41.52h-25.95v41.52H335.38z"/>
	<path id="XMLID_32_" class="st1" d="M202.39,413.81V338.2l41.66,0.14c6.87,0,12.91,5.19,12.91,15.01v60.46h-3.65v-60.46
		c0-7.86-4.21-11.36-9.26-11.36c0,0-5.47,0-12.2,0v71.68h-3.65v-71.68c-9.54,0-20.2-0.14-22.02-0.14v71.82L202.39,413.81
		L202.39,413.81z M186.26,343.25h-33.11v26.93h23.99v3.65h-23.99v27.21c2.95,0,27.77,0,33.11-0.14v3.65l-36.75,0.14v-65.23h36.75
		V343.25z M64.08,413.39v-97.07l45.73,0.14c7.57,0,14.31,5.61,14.31,16.41v80.66h-3.65v-80.66c0-8.28-4.91-12.62-10.66-12.62
		c0,0-6.03,0-13.61,0v93.28h-3.65v-93.28c-10.8,0-22.87,0-24.69-0.14v93.42h-3.79V413.39z M390.51,330.35h3.65v83.75h-3.65V330.35z
		 M279.27,414.09V338.2h19.5c7.01,0,14.03,4.91,14.03,13.75v8.98c0,8.84-7.01,13.47-14.03,13.47h-15.85v39.7L279.27,414.09
		L279.27,414.09z M422.07,378.88V388c0,5.61,0,13.89,12.77,13.89c13.19,0,13.75-9.96,13.75-10.38v-19.08
		c0-8.98-4.77-9.82-12.34-10.38c-2.24-0.14-4.63-0.42-6.73-0.98c-8.98-2.52-10.1-8.7-10.52-11.08c-0.28-1.54-0.14-13.89-0.14-17.96
		c0-0.42-0.42-6.17,3.65-10.52c2.81-3.09,6.87-4.63,12.34-4.63c5.75,0,10.1,1.68,13.19,5.05c3.65,4.07,4.07,9.4,4.07,11.36
		c0,0.42,0,0.56,0,0.7v7.86h-3.65v-8.14c0,0,0.42-5.61-3.09-9.4c-2.38-2.52-5.89-3.79-10.52-3.79c-4.35,0-7.57,1.12-9.68,3.37
		c-2.95,3.23-2.67,7.72-2.67,7.86v0.14v0.14c0,7.72,0,16.27,0.14,17.39c0.42,2.1,1.12,6.31,8,8.28c1.68,0.42,3.79,0.7,6.03,0.84
		c6.59,0.42,15.71,1.12,15.71,14.03v19.08c0,0.14-0.56,13.89-17.39,13.89c-16.27,0-16.27-12.34-16.27-17.53v-9.12L422.07,378.88
		L422.07,378.88z M309.14,360.93v-8.98c0-6.73-5.33-10.1-10.38-10.1h-15.85v28.9h15.85C303.81,370.6,309.14,367.66,309.14,360.93
		 M331.73,414.51v-84.45h3.65v39.28h25.95v-39.28h3.65v84.45h-3.65v-41.52h-25.95v41.52H331.73z"/>
	<path id="XMLID_33_" class="st0" d="M402.71,75.88c-1.26-1.96-2.67-3.93-3.93-5.75c33.39-54.71-45.31-96.51-73.79-50.22
		c-35.07-6.45-64.39,6.31-68.32,8.28c-3.93-1.82-32.97-14.45-67.61-8.28C154.7-28.48,83.72,21.6,115,69.57
		c-1.54,2.1-2.95,4.21-4.49,6.45c-44.47,67.61-11.08,113.48-11.08,113.48l6.87-6.87c0,0,9.68,47.13,61.02,78.13l1.82-10.24
		c31.56,33.81,60.88,32.97,88.23,63.83c25.25-29.18,61.86-29.18,90.34-65.65v12.91c52.74-25.67,57.51-81.22,57.51-81.22l4.91,8.98
		C410.14,189.51,447.18,143.5,402.71,75.88"/>
	<path id="XMLID_34_" class="st2" d="M290.77,123.86c2.52-0.84,6.87,1.68,9.12,6.31c10.66-3.09,10.1-17.53,10.1-18.52
		C301.57,114.88,294.56,120.49,290.77,123.86"/>
	<path id="XMLID_40_" class="st1" d="M256.96,193.43c2.95-0.42,49.8-2.1,21.04,26.93C298.06,194,261.73,193.72,256.96,193.43
		 M338.04,42.36c0,0,10.52-26.37,42.78-19.92c0,0-29.6-19.5-50.22,15.71c0,0-29.32-13.89-73.36,5.19c0,0-41.8-14.59-73.37-6.31
		c0,0-18.38-31.84-44.19-18.8c-25.81,13.19-12.34,43.49-7.86,51.34c0,0-42.92,43.63-26.79,97.77l8.7-10.8
		c0,0,12.34,58.78,44.19,77.43l1.96-14.45c0,0,33.25,39.98,72.24,57.09c3.65,1.68,24.41,12.06,25.11,17.11v-28.06
		c0,0-27.07,2.24-34.23-10.24c-4.91-8.56-35.91-63.97-20.62-122.18c0,0-15.01-2.24-17.82-27.49c0,0-11.22-5.47-25.11-4.35
		c0,0,24.83-7.72,48.12,1.26s29.46,31.98,45.31,21.74l4.63-64.53l4.49,64.53c15.71,10.1,22.02-12.77,45.31-21.74
		c23.29-8.98,48.12-1.26,48.12-1.26s-9.96-7.01-25.81-10.24c-13.33-2.67-32.97,5.89-32.97,5.89s2.67-18.38,11.64-28.06
		C315.46,60.59,332.71,58.77,338.04,42.36 M137.31,64.52c-0.98-8.84,10.24-17.53,10.24-17.53c-4.63-4.77-12.62-0.56-12.62-0.56
		c7.29-14.17,23.57-7.29,23.57-7.29c-6.17-7.57-19.22-7.01-19.22-7.01c16.13-15.99,35.63,8.42,35.63,8.42
		C157.51,44.46,137.31,64.52,137.31,64.52 M310.13,111.51L310.13,111.51l-0.28,0.14L310.13,111.51 M297.08,132.41
		c25.95,69.72-7.15,114.61-7.15,114.61c20.34-53.17,7.29-97.49-1.68-113.91c-4.49,0.42-9.96,0.14-9.96,0.14s6.87-4.21,11.36-8.28
		c0.28-0.28,0.7-0.7,1.26-1.12l0,0c2.52-0.84,6.87,1.68,9.12,6.31c10.66-3.09,10.1-17.53,10.1-18.52c3.09-1.26,6.45-2.1,9.82-2.38
		C319.95,109.13,317.42,131.99,297.08,132.41"/>
	<path id="XMLID_41_" class="st2" d="M205.2,111.51c0,1.12-0.56,15.43,10.1,18.52c2.24-4.49,6.45-7.01,8.98-6.31
		C218.53,119.37,211.37,114.46,205.2,111.51"/>
	<path id="XMLID_45_" class="st3" d="M256.82,258.94c-32.68,0-28.34-7.15-28.34-7.15c3.51-2.24,26.37-2.67,28.2-2.67
		c1.82,0,24.83,0.42,28.34,2.67C285.16,251.79,289.51,258.94,256.82,258.94 M205.34,111.51L205.34,111.51L205.34,111.51
		 M256.82,228.64v13.33l-8.98,0.42c-9.54,0.28-21.88,4.07-21.88,4.07c-22.87-56.81-10.24-99.74-4.07-115.03
		c-22.72,4.91-26.37-22.3-26.37-22.3c2.38-0.42,5.75,0.56,9.68,2.38c0,1.12-0.56,15.43,10.1,18.52c2.24-4.49,6.45-7.01,8.84-6.31
		c1.68,1.26,3.23,2.52,4.63,3.79c15.43,13.05,27.49,10.38,27.49,10.38s0.14,49.52,0.14,55.55c0,0-44.75-3.51-20.76,26.93
		c0,0,3.93-11.08,8-7.57C249.39,217.7,256.82,227.66,256.82,228.64"/>
	<path id="XMLID_48_" class="st1" d="M156.8,464.31l-0.56,1.4c-0.56,1.68-2.24,2.52-3.65,1.96l-2.95-1.12l2.67-7.29l2.95,1.12
		C156.66,460.94,157.36,462.63,156.8,464.31 M160.45,451.69l-17.39-6.31v7.29l-13.33,36.61l10.24,3.79l6.17-16.97l3.09,1.12
		c0.84,0.28,1.26,1.54,0.84,2.67l-5.47,14.87l10.24,3.65l5.61-15.43c0.84-2.38,0.56-4.63-0.7-6.31c0,0,3.51-0.56,5.33-5.75
		l2.38-6.31C169.85,458.84,165.64,453.65,160.45,451.69"/>
	<path id="XMLID_49_" class="st1" d="M373.81,456.45l-3.65-10.38l-25.81,8.98l4.35,5.33l12.91,37.03c2.1-0.7,23.71-8.28,23.71-8.28
		l-3.65-10.24l-13.05,4.49c-0.42-1.12-2.1-6.03-2.1-6.03l8.42-2.95l-3.65-10.52l-8.42,2.95l-2.1-5.89L373.81,456.45z"/>
	<polygon id="XMLID_50_" class="st1" points="301.57,499.24 298.2,464.17 284.46,465.43 287.82,472.45 291.47,510.6 318.4,508.08 
		317.42,497.7 	"/>
	<polygon id="XMLID_51_" class="st1" points="181.49,465.57 180.51,457.72 193.7,460.52 184.44,505.27 173.64,503.03 	"/>
	<polygon id="XMLID_52_" class="st1" points="324.15,467.4 320.23,460.66 333.41,458 342.95,502.61 332.29,504.85 	"/>
	<polygon id="XMLID_53_" class="st1" points="233.82,465.85 206.46,463.05 205.2,475.67 212.91,473.85 217.4,474.27 201.69,508.36 
		229.05,511.16 230.03,500.78 218.25,499.52 	"/>
	<polygon id="XMLID_54_" class="st1" points="271.83,466.55 244.34,466.41 244.34,479.18 251.77,476.37 256.26,476.37 244.06,512 
		271.69,512 271.55,501.62 259.77,501.62 	"/>
	<path id="XMLID_55_" class="st1" d="M407.76,461.08l2.1,3.23c0.56,0.84,0.42,1.68-0.14,2.1l-1.4,0.84c-0.7,0.42-1.54,0.14-2.1-0.7
		l-2.52-3.79l-8.56,5.61l3.37,5.05c3.93,5.89,9.96,5.19,14.17,2.38l3.09-1.96c5.33-3.51,6.87-9.26,3.51-14.45l-5.19-7.72
		c-3.79-5.61-8.84-5.19-12.77-2.52l-2.52,1.54c-1.4,0.98-2.67,0.84-3.51-0.56l-2.81-4.21c-0.56-0.84-0.42-1.68,0.28-2.24l1.4-0.84
		c0.56-0.42,1.54-0.14,2.1,0.56l2.1,3.23l8.56-5.61l-3.37-5.05c-3.09-4.77-9.12-5.33-14.03-2.1l-2.52,1.68
		c-4.91,3.23-7.72,8.84-4.07,14.31l4.91,7.29c3.51,5.33,10.38,4.77,14.31,2.24C405.52,457.16,406.5,459.12,407.76,461.08"/>
	<path id="XMLID_56_" class="st1" d="M115.42,473.57c-3.65,5.47-10.24,5.75-14.73,2.81l-4.63-3.09c-4.49-2.95-6.59-9.12-2.95-14.73
		l15.01-22.44c3.65-5.47,10.24-5.89,14.73-2.81l4.63,3.09c4.49,2.95,6.73,9.12,3.09,14.73l-2.95,4.49l-9.12-6.17l1.82-2.81
		c0.7-0.98,0.7-2.24-0.14-2.81l-1.4-0.98c-0.7-0.42-1.96,0-2.67,0.98c0,0-0.7,1.12-1.82,2.81c-2.1,3.09-10.94,16.27-10.94,16.27
		c-0.7,0.98-0.7,2.24,0.14,2.81l1.4,0.98c0.7,0.42,1.96,0,2.67-0.98l3.37-4.91l-1.54-1.12l4.21-6.31l10.66,7.15L115.42,473.57z"/>
</g>
</svg>
