<?xml version="1.0" encoding="utf-8"?>
<!-- Generator: Adobe Illustrator 24.3.0, SVG Export Plug-In . SVG Version: 6.00 Build 0)  -->
<svg version="1.1" id="Layer_1" xmlns="http://www.w3.org/2000/svg" xmlns:xlink="http://www.w3.org/1999/xlink" x="0px" y="0px"
	 viewBox="0 0 512 512" style="enable-background:new 0 0 512 512;" xml:space="preserve">
<style type="text/css">
	.st0{fill:#CB0729;}
	.st1{fill:#FFFFFF;}
</style>
<g>
	<path class="st0" d="M256,0C114.69,0,0,114.69,0,256s114.69,256,256,256s256-114.69,256-256S397.31,0,256,0z"/>
	<path class="st1" d="M256,500.3C121.27,500.3,11.7,390.73,11.7,256S121.27,11.7,256,11.7S500.3,121.27,500.3,256
		S390.73,500.3,256,500.3z"/>
	<path class="st0" d="M256,24.87C128.59,24.87,24.87,128.59,24.87,256S128.59,487.13,256,487.13S487.13,383.41,487.13,256
		S383.41,24.87,256,24.87z"/>
	<path class="st1" d="M256,415.31c-87.92,0-159.31-71.24-159.31-159.31S168.08,96.69,256,96.69S415.31,168.08,415.31,256
		S343.92,415.31,256,415.31z"/>
	<g id="layer1" transform="translate(2221.3454,-288.33742)">
		<path id="path3815" class="st0" d="M-1987.95,691.15c-17.26-1.02-37.3-6.88-53.25-15.36c-10.82-5.85-20.77-13.17-29.99-22.53
			c-11.12-11.26-19.6-22.97-26.19-36.28c-3.36-7.02-4.53-10.09-4.1-11.26c0.15-0.44,1.32-1.32,2.63-1.9
			c6.73-3.36,79.87-31.31,80.46-30.72c0.15,0.15-1.76,1.46-3.95,3.22c-6.73,4.97-20.77,19.6-19.75,20.48
			c0.15,0.15,3.8-1.46,8.19-3.51c19.16-9.07,31.6-13.6,49.15-17.99c12-2.93,17.99-3.8,28.23-4.1c13.75-0.44,24.28,0.88,30.14,3.8
			c3.07,1.46,3.8,2.78,4.39,7.75c0.29,2.34-1.17,5.27-1.02,5.27c0.73,0,11.41-10.68,13.46-13.6c2.49-3.8,3.36-5.71,4.24-10.09
			c1.46-7.31,0.58-15.21-2.34-21.21c-3.36-6.73-8.34-11.7-23.55-23.11c-5.12-3.95-11.85-9.51-15.8-13.17
			c-11.85-11.26-13.31-12.29-25.16-16.97c-8.92-3.51-15.21-5.56-34.08-11.12c-9.66-2.78-26.48-7.75-37.16-11.12
			c-10.68-3.22-23.84-7.31-29.26-8.78c-5.27-1.61-9.95-2.93-10.24-3.22c-1.46-0.73,7.02-10.97,17.26-20.77
			c19.75-18.87,42.28-30.43,69.78-35.99c8.34-1.61,14.78-2.05,29.26-2.19c17.26,0,23.99,0.73,37.45,4.1
			c20.77,5.12,39.79,14.19,56.47,26.92c5.85,4.53,19.02,17.55,24.28,24.14c2.19,2.78,4.39,5.27,4.83,5.71
			c0.44,0.44,0.88,1.02,0.88,1.17c0,0.15,1.46,2.63,3.07,5.27c9.95,15.51,17.85,36.72,20.63,55.15c2.63,17.55,2.05,39.94-1.32,57.05
			c-2.78,14.19-10.24,32.33-19.16,47.1c-13.75,22.67-37.6,43.01-64.22,54.56C-1929.44,689.25-1954.6,693.2-1987.95,691.15
			L-1987.95,691.15z M-1950.5,658.68c21.8-2.49,42.57-11.26,59.54-24.87c5.12-4.24,12.87-11.85,16.82-16.68
			c12.87-15.95,22.82-38.91,24.28-55.88c0.73-8.92,0.29-35.25-0.73-39.94c-1.17-5.56-3.8-13.9-6.14-19.75
			c-6-15.21-13.31-26.19-25.6-38.77c-10.68-10.97-16.38-15.07-29.7-21.8c-8.19-4.1-13.9-6.29-21.21-8.48
			c-24.72-7.17-58.95-5.27-77.97,4.39c-4.68,2.34-9.8,5.71-9.36,6.14c0.29,0.15,9.95,3.07,21.5,6.44
			c35.55,10.09,46.96,14.34,58.66,21.5c3.8,2.34,5.56,3.95,10.83,9.36c6.73,7.02,12.87,12.14,19.31,15.8
			c10.68,6,18.43,13.75,25.45,25.45c8.63,14.34,11.12,28.82,7.9,45.64c-2.05,10.83-5.7,18.14-14.48,28.82
			c-8.48,10.39-18.58,17.99-32.48,24.14c-9.8,4.24-28.38,9.95-32.91,9.95c-1.9,0-2.05,0-1.61-1.02c0.29-0.59,1.46-2.93,2.78-5.27
			c2.93-5.12,4.83-10.97,4.68-13.9c-0.15-2.78-1.32-3.51-7.75-4.83c-4.54-0.88-6.44-1.02-14.78-1.02c-10.09,0-13.46,0.44-24.43,2.93
			c-13.31,2.93-41.11,13.9-47.1,18.43c-1.02,0.73-1.02,1.02-0.58,2.05c0.88,1.9,7.02,8.19,10.97,11.12
			c7.17,5.41,17.55,10.97,27.06,14.48c6,2.19,15.8,4.68,20.92,5.41C-1977.13,659.7-1960.16,659.85-1950.5,658.68L-1950.5,658.68z"/>
		<path id="path3817" class="st0" d="M-1991.03,525.56c-1.76-0.15-2.78-0.44-4.53-1.17c-3.66-1.46-6.14-3.07-8.19-5.12
			c-1.61-1.61-2.63-3.07-3.66-5.41c-1.9-3.95-2.19-5.56-1.76-10.68c0.15-1.9,0.15-3.66,0.15-3.66s-1.02-2.05-3.22-1.76l-4.97,0.73
			l1.46-0.88c1.9-1.32,3.22-1.9,4.68-2.34c1.17-0.29,1.61-0.44,4.24-0.44c3.07,0,4.1,0.15,7.17,1.02c3.36,0.88,5.56,1.76,10.68,4.24
			c7.75,3.66,15.36,6.14,19.02,6.44c2.05,0.15,2.34,0.29,2.19,1.9c-0.15,2.19-0.58,4.1-1.76,6.58c-1.46,3.07-4.24,6.44-6.44,7.9
			C-1979.18,524.97-1985.61,526.14-1991.03,525.56L-1991.03,525.56z"/>
	</g>
	<g>
		<path id="XMLID_290_" class="st1" d="M86.02,305.01c-4.39,0.59-8.19,0.59-11.85,0.44c-2.63-0.29-6-0.44-6-0.44
			s-3.51,1.76-6.44,3.51c-3.07,1.46-7.02,1.76-10.97,2.93c-1.76-8.05-3.07-15.8-4.83-23.41c0,0,14.77-0.44,20.48-6.88
			c0.59,1.02-0.15,1.9,0.15,2.49c4.83-1.02,9.65-1.46,14.34-2.49C82.65,289.06,84.26,296.52,86.02,305.01z M77.24,297.69
			c-0.73-2.93-1.02-5.56-1.76-8.05c-2.49,0.59-4.83,1.02-7.17,1.46c0.59,2.19,1.02,5.12,1.46,7.02
			C72.27,298.28,74.61,297.69,77.24,297.69z M62.61,299.3c-0.59-2.19-0.59-4.68-1.17-6.88c-2.34,0.59-4.68,0.88-7.02,1.32
			c0.59,2.49,0.88,5.41,1.46,8.05C58.22,300.91,60.42,300.18,62.61,299.3z"/>
		<path id="XMLID_280_" class="st1" d="M73.14,321.68l0.59,2.05c5.12-0.73,12.14-2.49,17.85-3.36c2.49,5.27,4.53,9.8,6.73,14.34
			c-7.9,10.53-19.75,13.9-31.01,19.31c-1.17-2.49-2.19-4.83-3.51-7.31c3.51-1.76,6.58-3.22,10.09-4.97
			c-1.17-2.49-2.19-4.83-3.36-7.31c-3.51,1.46-6.58,2.93-10.09,4.53c-1.17-2.34-2.19-4.53-3.22-6.88
			C73.29,325.05,73.14,321.68,73.14,321.68z M80.9,339.09c3.07-2.05,5.71-3.95,8.48-5.85c-0.88-1.76-1.46-3.07-2.34-4.68
			c-3.36,1.02-6.44,1.9-9.8,2.78C78.56,334.12,79.58,336.46,80.9,339.09z"/>
		<path id="XMLID_269_" class="st1" d="M105.03,381.95c-4.83,2.78-9.51,5.56-14.48,8.48c-4.83-6.44-9.22-12.29-13.9-18.43
			c2.78-2.05,5.12-3.95,8.05-6.14c1.61,1.9,3.07,3.8,4.68,5.85c-0.44,0.88-1.17,0.73-1.76,1.9c1.32,1.76,3.07,4.53,4.68,6.73
			c1.32-0.73,2.34-1.32,3.51-1.9c-0.88-6.29-1.9-12.43-2.93-19.02c4.53-2.63,8.92-5.12,13.75-7.9c4.83,6.44,9.22,12.29,13.9,18.43
			c-2.63,2.05-5.12,3.8-8.05,6.14c-1.61-2.05-3.07-3.95-4.68-6c0.44-1.02,1.02-1.9,1.46-2.78c-1.46-1.9-2.78-3.66-4.39-5.56
			c-1.17,0.73-2.05,1.17-3.07,1.76C102.84,369.37,103.86,375.22,105.03,381.95z"/>
		<path id="XMLID_266_" class="st1" d="M142.04,390.73c1.76,1.61,3.22,3.07,5.71,5.41c-5.71,4.39-10.83,8.19-16.09,12.29
			c-2.63,4.68-4.83,8.92-7.61,14.04c-2.34-2.19-3.8-3.36-5.71-5.12c1.9-3.22,3.66-6.29,5.56-9.8c-1.46-1.46-3.07-2.93-4.68-4.39
			c-2.63,2.78-4.53,5.56-7.31,8.48c-2.05-1.76-4.39-3.51-6.29-5.12c3.51-4.53,6.44-7.61,10.09-12.43c0.29-0.29,0.29-2.93,0.29-2.93
			c0.88,0.44,1.17,1.32,1.17,1.32c4.39-2.78,12.43-13.02,12.43-13.02c1.76,1.61,3.95,3.95,6,5.85c-3.95,4.53-7.75,8.19-11.56,12.58
			c1.32,1.32,2.78,2.19,4.24,3.51C132.83,398.04,137.07,394.68,142.04,390.73z"/>
		<path id="XMLID_265_" class="st1" d="M166.33,425.25c-0.73,1.46-1.32,2.34-1.76,3.36c-0.44,0.88-1.02,1.61-1.76,2.78
			c-2.78-1.46-5.56-2.93-8.63-4.53c-1.17,1.9-2.19,3.66-3.51,5.85c4.68,2.78,8.92,5.27,13.75,8.19c-1.17,2.05-2.19,3.95-3.51,6.29
			c-7.02-4.1-13.9-7.9-20.77-11.85c3.07-6.44,6-12.14,8.92-18.29c-0.15-0.44-0.44-1.17-0.59-2.19c1.02,0.44,2.05,1.17,2.05,1.17
			c2.19-3.8,4.83-8.05,7.31-12.29c7.02,4.1,13.9,7.9,21.07,12.14c-1.32,2.19-2.34,3.95-3.66,6.29c-4.68-2.63-9.22-5.12-14.04-7.75
			c-1.17,2.05-2.19,3.8-3.36,5.85C160.77,421.74,163.4,423.35,166.33,425.25z"/>
		<path id="XMLID_264_" class="st1" d="M452.32,338.65c-2.19,4.83-4.39,9.51-6.44,14.19c-13.17,0.88-23.41-6-34.82-10.68
			c1.17-2.49,2.19-4.83,3.22-7.17c9.07,3.66,17.7,7.02,26.48,10.53c0.88-1.76,1.32-2.34,1.76-3.07c0.29-0.59,0.59-1.32,1.17-3.07
			c-8.48-4.24-16.82-8.48-25.6-12.87c1.02-2.19,2.05-4.53,3.22-7.17C432.42,324.9,444.42,328.12,452.32,338.65z"/>
		<path id="XMLID_263_" class="st1" d="M392.34,419.84c-8.19-9.07-16.09-17.7-24.43-26.77c5.56-5.12,10.97-9.95,16.68-15.21
			c2.63,2.19,5.12,4.24,8.05,6.73c-2.05,1.9-3.66,3.51-5.56,5.27c-1.02-0.44-1.9-0.88-3.07-1.32c-1.61,1.46-3.07,2.78-4.97,4.53
			c4.83,5.41,9.51,10.53,14.48,15.95c1.9-1.61,3.51-3.22,5.27-4.83c-0.29-1.02-0.44-2.05-0.73-3.07c1.76-1.46,3.36-3.07,5.41-4.83
			c2.34,2.49,4.53,4.83,6.88,7.46C404.33,408.87,398.63,414.13,392.34,419.84z"/>
		<path id="XMLID_261_" class="st1" d="M193.24,429.64c-2.78-1.02-4.97-1.9-7.46-2.93c0.73-2.19,1.46-4.39,2.19-6.88
			c7.9,2.63,15.36,5.27,23.26,7.9c-0.73,2.34-1.46,4.39-2.34,6.88c-2.63-0.88-4.97-1.61-7.75-2.49c-3.22,9.07-6.29,17.85-9.51,27.21
			c-2.63-0.88-4.97-1.76-7.61-2.63C187.1,447.63,190.17,438.86,193.24,429.64z"/>
		<path id="XMLID_259_" class="st1" d="M428.03,369.81c2.05,1.61,3.8,2.93,5.71,4.39c-3.8,5.12-7.46,9.95-11.26,15.21
			c-9.8-7.31-19.31-14.34-29.11-21.8c1.76-2.34,3.36-4.24,4.97-6.44c7.75,5.71,15.07,11.26,22.97,16.97
			C423.35,375.52,425.55,372.74,428.03,369.81z"/>
		<path id="XMLID_257_" class="st1" d="M306.47,463.14c-3.22-11.85-6.29-23.11-9.51-34.82c2.63-0.73,4.97-1.46,7.75-2.34
			c2.63,9.51,5.12,18.58,7.75,27.79c3.51-0.88,6.73-1.61,10.24-2.49c0.59,2.19,1.17,4.39,1.9,7.02
			C318.61,459.78,312.91,461.39,306.47,463.14z"/>
		<path id="XMLID_256_" class="st1" d="M326.8,418.08c2.63-1.32,4.68-2.34,7.31-3.66c4.24,8.63,8.34,17.12,12.73,25.75
			c3.22-1.46,6.14-2.78,9.51-4.39c1.02,1.9,2.05,3.8,3.51,6.29c-5.71,2.78-10.97,5.56-16.97,8.48
			C337.48,439.88,332.21,429.35,326.8,418.08z"/>
		<path id="XMLID_23_" class="st1" d="M245.91,432.13c-0.88,4.39-2.05,7.9-3.36,11.41c-1.17,2.34-2.34,5.41-2.34,5.41
			s0.44,3.95,1.17,7.31c0.44,3.36-0.59,7.31-0.73,11.41c-8.19-0.88-15.95-2.05-23.7-2.93c0,0,4.39-14.19,0-21.5
			c1.17-0.15,1.76,0.73,2.34,0.59c0.59-4.83,1.61-9.65,2.19-14.34C229.67,430.23,237.42,431.1,245.91,432.13z M236.11,438.13
			c-2.93-0.29-5.56-0.73-8.19-1.02c-0.29,2.49-0.59,4.97-0.88,7.17c2.34,0.15,5.12,0.73,7.17,0.88
			C235.08,442.95,235.23,440.61,236.11,438.13z M233.03,452.46c-2.19-0.15-4.68-0.88-6.88-1.17c-0.29,2.34-0.73,4.68-1.02,7.02
			c2.49,0.29,5.41,0.88,8.05,1.17C233.18,457.14,233.18,454.8,233.03,452.46z"/>
		<path id="XMLID_20_" class="st1" d="M257.32,450.27l2.05,0.15c1.02-4.97,2.05-12.14,3.22-17.85c5.71-0.44,10.83-0.73,15.8-1.02
			c7.02,11.12,5.85,23.41,7.02,35.84c-2.78,0.15-5.27,0.44-8.05,0.59c-0.29-3.8-0.73-7.31-1.02-11.26
			c-2.78,0.15-5.27,0.29-8.05,0.59c0.15,3.8,0.44,7.31,0.59,11.12c-2.63,0.15-4.97,0.44-7.61,0.59c-0.44-6.88-0.15-10.68-0.88-13.46
			C259.51,451.15,257.32,450.56,257.32,450.27z M276.33,449.24c-0.88-3.51-1.61-6.73-2.49-10.09c-1.9,0.15-3.36,0.29-5.27,0.44
			c-0.29,3.51-0.59,6.73-0.88,10.24C270.92,449.54,273.41,449.39,276.33,449.24z"/>
		<path id="XMLID_27_" class="st1" d="M430.96,281.01c4.24,1.17,7.75,2.63,11.12,4.1c2.34,1.32,5.27,2.63,5.27,2.63
			s3.95-0.29,7.31-0.73c3.51-0.15,7.17,1.02,11.26,1.32c-1.46,8.19-3.07,15.8-4.39,23.55c0,0-14.19-3.95-21.5-1.32
			c-0.15-1.17,0.73-1.61,0.73-2.34c-4.83-0.88-9.51-2.19-14.19-3.07C428.03,297.11,429.49,289.5,430.96,281.01z M436.22,291.11
			c-0.44,2.93-1.17,5.56-1.46,8.05c2.49,0.44,4.97,0.88,7.17,1.32c0.29-2.34,1.02-5.12,1.32-7.17
			C441.05,292.57,438.86,292.13,436.22,291.11z M450.41,295.2c-0.29,2.19-1.17,4.53-1.46,6.73c2.34,0.44,4.68,1.02,7.02,1.32
			c0.44-2.49,1.32-5.41,1.76-7.9C455.09,295.35,452.9,295.2,450.41,295.2z"/>
	</g>
	<path id="XMLID_302_" class="st1" d="M378.44,120.39c1.46-0.44,3.22-0.44,4.39-1.46c5.27-4.53,10.39-9.22,15.36-14.04
		c1.02-0.88,2.05-1.61,3.22-3.66c2.63,3.22,3.51,4.24,5.41,6.58c-2.93,2.93-6.29,6.14-9.36,9.65c-2.78,3.22-5.27,6.58-7.61,10.09
		c-0.59,0.88-0.15,2.34-0.15,3.66c0.59,0.29,1.17,0.44,1.76,0.73c6.88-6.44,13.6-12.87,20.92-19.75c1.61,1.9,3.07,3.66,4.97,6
		c-8.19,8.34-15.36,18.29-28.09,22.38c-3.07-3.66-9.07-9.36-9.07-9.36c-0.44-0.29,0.59-3.07,0.59-3.07s-2.63,1.17-3.07,0.88
		c-3.36-3.07-6.14-5.56-9.07-8.19c3.51-12.87,13.6-20.33,21.94-29.4c1.9,2.05,3.66,3.95,5.41,5.71
		c-6.29,7.02-12.58,13.9-18.87,20.92C377.56,118.93,378,119.66,378.44,120.39z"/>
	<path id="XMLID_289_" class="st1" d="M157.99,67.73c2.78-1.17,4.97-2.19,7.31-3.22c3.51,1.76,7.02,3.51,11.7,5.71
		c-1.46-3.51-2.49-6-3.8-9.07c2.34-1.02,4.53-2.19,7.31-3.36c4.97,11.12,9.8,21.94,14.77,33.21c-2.49,1.17-4.68,2.05-7.31,3.22
		c-1.61-3.36-3.07-6.58-4.97-10.39c-3.22-1.76-6.88-3.8-11.56-6.29c3.22,7.17,5.85,13.46,8.78,20.04c-2.34,1.17-4.53,2.19-7.31,3.51
		C167.79,89.82,162.96,78.99,157.99,67.73z"/>
	<path id="XMLID_270_" class="st1" d="M324.61,55.44c2.63,0.88,4.83,1.61,7.75,2.49c-3.66,11.56-7.17,22.82-10.97,34.52
		c-2.63-0.88-4.97-1.61-7.75-2.49c1.02-3.66,2.05-7.02,3.07-10.68c-2.63-0.88-4.97-1.61-7.61-2.34c-1.32,3.66-2.49,6.88-3.66,10.53
		c-2.49-0.88-4.68-1.61-7.17-2.34c1.17-5.27,2.93-10.53,4.24-16.53c0.15-0.59-1.02-2.34-1.02-2.34h2.49
		c3.07-7.46,5.12-15.95,5.12-15.95c2.19,0.73,4.68,1.61,7.46,2.49c-1.76,5.56-3.36,10.97-5.12,16.68c2.63,0.88,4.97,1.61,7.75,2.49
		C320.95,66.41,322.71,61.15,324.61,55.44z"/>
	<path id="XMLID_268_" class="st1" d="M426.72,208.6c-2.93-7.46-5.56-14.19-8.34-21.36c3.07-1.32,6.14-2.49,9.36-3.8
		c1.02,2.34,1.76,4.53,2.78,6.88c-0.59,0.73-1.32,1.61-2.05,2.49c0.88,2.05,1.61,4.1,2.63,6.29c1.32-0.15,2.34-0.29,3.95-0.59
		c0.73-6.29,1.61-12.43,2.49-19.16c4.97-1.32,9.95-2.63,15.21-3.95c2.93,7.46,5.71,14.34,8.48,21.5c-3.22,1.32-6,2.49-9.36,3.8
		c-1.02-2.34-1.9-4.53-2.78-6.88c0.73-0.73,1.32-1.46,2.19-2.34c-0.88-2.19-1.76-4.39-2.78-6.73c-1.32,0.44-2.34,0.73-3.36,1.17
		c-0.59,6.14-1.17,12-1.76,18.58C437.69,205.82,432.27,207.14,426.72,208.6z"/>
	<path id="XMLID_262_" class="st1" d="M81.04,134.88c2.19,1.46,4.1,2.49,6.14,3.8c-1.32,2.49-2.63,4.68-3.95,7.17
		c8.19,4.97,16.09,9.8,24.43,14.92c-1.46,2.34-2.63,4.53-4.1,7.02c-8.34-4.97-16.38-9.95-24.58-14.77
		c-1.61,2.34-2.93,4.39-4.53,6.88c-2.05-1.32-3.95-2.49-6.14-3.8C72.56,148.77,76.8,141.9,81.04,134.88z"/>
	<path id="XMLID_260_" class="st1" d="M223.38,82.94c-2.93,0.73-5.12,1.32-7.9,1.9c-2.19-9.51-4.39-18.72-6.58-28.09
		c-2.63,0.59-4.97,1.02-7.75,1.61c-0.59-2.19-1.17-4.24-1.9-7.02c8.05-1.9,15.8-3.66,24.14-5.56c0.59,2.49,1.02,4.68,1.61,7.17
		c-2.63,0.73-4.97,1.32-7.75,2.05C219.14,64.22,221.18,73.29,223.38,82.94z"/>
	<path id="XMLID_258_" class="st1" d="M119.95,132.97c2.49-2.63,4.68-5.12,7.17-7.75c1.9,1.76,3.51,3.22,5.41,4.83
		c-4.24,4.68-8.34,9.22-12.73,14.04c-8.92-8.19-17.7-16.09-26.77-24.28c1.76-2.05,3.22-3.8,5.27-6.14
		C105.62,120.1,112.64,126.39,119.95,132.97z"/>
	<path id="XMLID_31_" class="st1" d="M439.3,147.31c1.32,1.9,2.34,3.8,4.24,6.58c-6.58,2.93-12.58,5.41-18.58,8.05
		c-3.66,3.95-6.88,7.46-10.83,11.7c-1.76-2.63-2.93-4.24-4.39-6.44c2.63-2.78,4.97-5.27,7.75-8.05c-1.17-1.76-2.34-3.51-3.51-5.27
		c-3.22,2.05-5.85,4.39-9.07,6.44c-1.46-2.19-3.51-4.53-4.83-6.58c4.53-3.66,8.05-5.85,12.73-9.51c0.29-0.29,0.88-2.78,0.88-2.78
		c0.73,0.73,0.73,1.61,0.73,1.61c4.97-1.61,15.21-9.65,15.21-9.65c1.32,2.05,2.78,4.83,4.39,7.17c-4.97,3.36-9.51,6.14-14.34,9.51
		c1.02,1.61,2.19,2.78,3.22,4.39C428.62,152.14,433.44,149.8,439.3,147.31z"/>
	<path id="XMLID_32_" class="st1" d="M341.72,79.43l1.61,1.32c3.8-3.36,8.78-8.78,13.02-12.58c4.83,3.07,9.22,5.71,13.46,8.34
		c-0.73,13.02-8.92,22.53-15.21,33.21c-2.34-1.46-4.53-2.78-6.88-4.1c1.9-3.36,3.8-6.29,5.71-9.65c-2.34-1.46-4.53-2.78-6.88-4.24
		c-2.05,3.22-3.95,6.14-6,9.36c-2.19-1.32-4.24-2.63-6.58-3.95C343.63,82.07,341.72,79.43,341.72,79.43z M357.81,89.67
		c1.32-3.36,2.63-6.44,3.8-9.51c-1.61-1.02-2.93-1.76-4.53-2.63c-2.34,2.63-4.39,5.12-6.58,7.75
		C353.13,86.89,355.18,88.21,357.81,89.67z"/>
	<path id="XMLID_35_" class="st1" d="M264.34,79.73c-2.63-0.15-4.97-0.15-7.61-0.29c0-3.8,0-7.31,0.15-11.12
		c-2.78,0-5.27-0.15-8.05-0.15c-0.15,3.8-0.29,7.31-0.59,11.26c-2.78-0.15-5.27-0.15-8.05-0.29c0.59-12.43-1.02-24.72,5.41-36.13
		c5.12,0.15,10.09,0.29,15.8,0.44c1.46,5.56,2.78,12.73,4.1,17.7l2.05-0.29C267.7,60.85,264.63,62.03,264.34,79.73z M257.17,60.85
		c-0.44-3.51-0.88-6.58-1.32-10.09c-1.9-0.15-3.36-0.15-5.27-0.15c-0.73,3.36-1.32,6.58-2.05,10.09
		C251.61,60.71,254.1,60.85,257.17,60.85z"/>
	<path id="XMLID_38_" class="st1" d="M126.54,107.96l1.9-0.88c-1.61-4.83-4.53-11.56-6.44-16.97c4.68-3.36,8.92-6.14,13.02-9.07
		c11.7,5.85,17.12,17.12,24.43,27.06c-2.34,1.61-4.24,3.07-6.58,4.68c-2.34-3.07-4.39-6-6.58-9.07c-2.34,1.61-4.24,3.07-6.58,4.53
		c2.05,3.07,4.1,6,6.29,9.22c-2.19,1.46-4.1,2.93-6.29,4.39C129.76,107.23,126.54,107.96,126.54,107.96z M142.34,97.28
		c-2.63-2.63-4.83-4.83-7.31-7.31c-1.61,1.17-2.78,2.05-4.24,3.07c1.61,3.22,2.93,6,4.53,9.22
		C137.8,100.5,139.85,99.04,142.34,97.28z"/>
	<path id="XMLID_41_" class="st1" d="M68.32,202.75l1.02-1.9c-4.24-2.93-10.53-6.58-15.36-9.8c1.76-5.41,3.36-10.24,4.97-15.07
		c12.87-2.34,23.99,3.51,35.84,7.17c-0.88,2.63-1.61,4.97-2.49,7.61c-3.66-1.17-7.02-2.19-10.68-3.36
		c-0.88,2.63-1.61,4.97-2.49,7.61c3.51,1.32,6.88,2.34,10.53,3.66c-0.88,2.49-1.61,4.83-2.34,7.31
		C70.51,200.27,68.32,202.75,68.32,202.75z M74.61,184.76c-3.66-0.59-6.73-1.02-10.24-1.61c-0.59,1.76-1.02,3.22-1.61,4.97
		c3.07,1.61,6,3.07,9.07,4.68C73,189.88,73.73,187.54,74.61,184.76z"/>
</g>
</svg>
