<?xml version="1.0" encoding="utf-8"?>
<!-- Generator: Adobe Illustrator 26.5.0, SVG Export Plug-In . SVG Version: 6.00 Build 0)  -->
<svg version="1.1" id="Layer_1" xmlns="http://www.w3.org/2000/svg" xmlns:xlink="http://www.w3.org/1999/xlink" x="0px" y="0px"
	 viewBox="0 0 512 512" style="enable-background:new 0 0 512 512;" xml:space="preserve">
<style type="text/css">
	.st0{fill:#1C2524;}
	.st1{fill:#F59814;}
	.st2{fill:#BF2F38;}
	.st3{fill:#FFFFFF;}
</style>
<g id="XMLID_18_">
	<path id="XMLID_26_" class="st0" d="M432.86,122.35c-13.94-15.07-44.22-27.44-83.61-35.12c0-4.41,2.84-6.4,7.96-9.53
		c2.42-1.99,5.12-3.98,8.39-6.83c12.37-11.94-2.42-30.29-3.13-31.14l-7.96-9.95l1.99,12.8c1.14,8.82-1.99,11.94-11.52,18.34
		c-1.14,1.14-1.99,1.99-3.13,2.84c0.43-5.55,0.85-12.37-1.14-20.33c-1.99-8.39-5.97-11.52-5.97-11.52l-0.85,11.94
		c-0.43,0-1.14,9.1-13.51,20.33c1.14-1.14,2.42-2.42,3.13-3.55c5.97-8.82,4.41-18.77,1.99-30.29l-0.43-2.42
		c-1.99-11.94,1.14-19.48,3.13-20.76c2.42-2.42,6.4-6.83,6.4-6.83s-2.42-0.85-8.39,0c-7.54,1.14-20.33,5.55-19.91,15.93
		c0,4.83,1.56,9.1,2.84,13.08c1.56,3.98,2.84,7.96,1.56,9.95c-0.85,1.56-3.55,2.84-8.39,3.55c-17.92,3.13-31.85,11.94-38.68,23.89
		c-2.42,3.98-3.98,7.96-4.83,12.8c-44.65,0-87.31,5.55-119.87,15.93c-36.69,11.09-57.02,26.73-58.58,44.65
		c-1.14,9.53,3.13,23.04,27.16,36.26h-0.43l6.83,3.13l3.55,1.99c10.81,4.83,23.46,8.82,37.82,12.37c-5.12,2.84-9.53,5.97-13.94,9.95
		c-22.75,18.77-35.83,46.64-35.83,76.5c0,26.31,9.95,51.05,28.72,69.68c18.77,18.77,43.8,29.15,70.1,29.15
		c46.64,0,87.31-33.13,96.84-78.92c7.96-23.89,7.11-49.34,6.83-59.3c-0.85-21.9,9.95-33.84,16.78-39.39
		c31.43-3.98,59.01-10.81,79.63-19.91l3.13-1.56l7.11-3.55c16.35-9.1,25.88-20.33,26.73-31.85
		C441.96,137.14,439.12,129.46,432.86,122.35L432.86,122.35z M400.58,141.83c2.84,2.84,2.84,4.83,2.84,5.55
		c-0.43,3.55-4.83,7.96-12.37,11.94c-15.93,7.96-43.09,14.36-74.94,17.49c1.14-0.85,2.84-1.56,4.41-2.42h0.85
		c9.1-3.98,19.48-7.96,19.91-23.46c0.43-2.42,0.43-9.53,1.56-12.37c1.99-3.55,6.4-8.82,9.95-10.38c0.43,0-6.4-1.14-6.4-1.14
		c-0.43,0-0.85,0-0.85,0c1.99-1.56,3.55-3.55,4.83-5.55C376.27,127.04,394.18,134.29,400.58,141.83L400.58,141.83z M118.04,145.39
		c1.14-12.8,46.64-29.15,120.3-31.85c-6.83,5.12-15.07,13.94-17.06,28.3l-0.85,5.55c-0.43,3.55-0.85,6.83-2.42,10.38
		c-2.84,7.11-10.81,13.51-19.05,17.92c-29.43-3.55-54.6-9.95-68.97-17.49C122.02,153.78,117.61,149.08,118.04,145.39z"/>
	<path id="XMLID_27_" class="st1" d="M345.55,86.8c0.85-8.82,9.1-10.81,17.06-18.34c10.81-9.95-2.84-26.31-2.84-26.31
		c1.56,11.09-3.55,15.07-13.08,21.9c-2.84,1.99-5.12,4.83-5.12,8.39c-0.43,4.41-0.85,8.82-1.56,13.08
		C342,86.09,343.99,86.52,345.55,86.8z"/>
	<path id="XMLID_28_" class="st1" d="M316.83,71.3c-2.42,1.99-4.83,3.98-6.83,5.55c-1.56,1.56-3.13,3.13-4.83,4.83
		c9.1,0.85,18.34,1.56,26.73,2.84c5.55-9.95,8.39-21.04,4.83-40.67C336.74,43.86,336.02,56.94,316.83,71.3L316.83,71.3z"/>
	<path id="XMLID_29_" class="st1" d="M265.92,79.69c10.38,0,20.76,0.43,30.71,1.14c0.43-0.43,0.85-0.85,1.14-1.14
		c6.4-7.11,17.06-13.08,22.32-21.19c5.55-8.39,3.55-18.34,1.56-30.29c-3.55-20.76,5.12-24.32,5.12-24.32s-17.49,2.42-17.06,12.37
		c0.43,13.51,14.36,26.31-6.83,30.29c-23.18,3.98-37.4,16.78-40.67,33.13C263.5,79.69,264.64,79.69,265.92,79.69L265.92,79.69z"/>
	<polygon id="XMLID_30_" class="st0" points="169.51,446.98 181.74,395.22 161.12,395.22 148.33,446.98 	"/>
	<polygon id="XMLID_31_" class="st0" points="214.87,408.02 216.01,429.07 205.35,429.07 216.44,446.98 235.21,446.98 
		232.36,395.22 200.94,395.22 175.49,446.98 195.39,446.98 	"/>
	<polygon id="XMLID_32_" class="st0" points="166.67,494.48 162.26,511.97 181.74,511.97 194.54,460.63 175.06,460.63 
		170.22,480.54 155.44,480.54 160.27,460.63 140.79,460.63 127.99,511.97 147.47,511.97 151.88,494.48 	"/>
	<polygon id="XMLID_33_" class="st0" points="213.31,500.45 214.87,493.2 238.76,493.2 241.89,482.11 217.72,482.11 219.28,474.57 
		243.6,474.57 247.58,460.63 203.36,460.63 190.56,511.97 234.35,511.97 237.63,500.45 	"/>
	<polygon id="XMLID_35_" class="st0" points="339.15,446.98 351.95,395.22 330.76,395.22 318.11,446.98 	"/>
	<path id="XMLID_36_" class="st0" d="M373.85,435.04c2.84,3.98,5.55,11.52-7.11,17.49c-15.07,6.83,0,23.89-20.33,23.89h-8.82
		l-8.39,35.41h-20.76l8.39-35.41h-13.94l4.41-15.93h36.26c21.47,0,6.4-15.07,17.06-17.06C368.3,442.29,373,440.58,373.85,435.04z"/>
	<polygon id="XMLID_37_" class="st0" points="112.49,421.96 108.94,395.22 83.34,395.22 70.69,446.98 89.74,446.98 96.57,419.97 
		96.99,419.97 100.55,446.98 111.64,446.98 127.28,419.97 127.57,419.97 121.31,446.98 139.23,446.98 151.88,395.22 127.28,395.22 	
		"/>
	<polygon id="XMLID_41_" class="st0" points="282.56,421.96 279,395.22 253.55,395.22 240.75,446.98 259.95,446.98 266.63,419.97 
		267.06,419.97 270.61,446.98 281.85,446.98 297.35,419.97 297.77,419.97 291.38,446.98 309.29,446.98 322.09,395.22 297.35,395.22 
			"/>
	<path id="XMLID_42_" class="st0" d="M279.43,472.86l1.14,21.04h-10.81l10.81,17.92h19.05l-2.84-51.33c0,0-31.85,0-31.43,0
		c0,0-25.88,51.33-25.45,51.33h19.91L279.43,472.86z"/>
	<path id="XMLID_43_" class="st2" d="M108.94,287.3c2.84,13.08,9.95,28.72,24.74,39.1c4.83,3.13,9.53,5.55,14.79,7.54
		c-3.13-5.12-6.83-10.81-10.81-16.35c-7.11-10.38-14.36-21.47-19.2-33.13c-4.83-11.94-5.97-24.32-3.98-37.11
		c-3.55,10.38-5.97,21.19-5.97,33.13C108.51,282.46,108.94,284.88,108.94,287.3z"/>
	<path id="XMLID_44_" class="st2" d="M124.86,282.04c4.41,10.81,11.52,21.47,18.34,31.43c5.55,7.96,10.81,15.5,14.36,23.04
		c4.41,1.14,9.1,1.99,13.51,1.99c-4.83-6.83-8.82-14.36-12.37-23.04c-13.51-34.27-11.52-76.5,5.12-100.82
		c8.82-12.8,19.48-21.04,33.13-28.72c11.52-6.4,18.77-7.96,26.31-12.37c7.96-5.12,12.37-13.08,7.11-31.14
		c-1.56-5.12-1.99-9.53-1.56-12.8c-1.99,3.55-3.13,7.96-3.98,12.8c-0.85,4.83-1.14,10.38-3.13,16.35
		c-7.11,18.77-41.81,29.15-46.21,30.29c-13.08,3.98-23.46,9.95-31.85,17.06C120.03,227.57,115.62,259,124.86,282.04z"/>
	<path id="XMLID_49_" class="st2" d="M268.62,113.11c0.43,1.14,0.85,2.42,0.85,3.55c1.14,6.4-0.85,11.94-8.82,13.08
		c-8.39,1.14-11.09-5.97-11.94-11.52c0-2.42,0.43-3.98,0.43-5.12c-1.14,0-2.84,0.43-3.98,0.43c-2.84,1.14-6.4,3.55-9.53,7.11
		c-1.56,3.55-3.55,8.39-0.43,19.91c5.12,19.91,2.84,32.28-13.08,39.1c-20.76,9.1-33.84,14.36-51.76,36.69
		c-8.39,10.38-13.08,27.87-13.51,45.79c-0.85,17.06,2.84,35.41,8.82,50.62c3.98,9.95,8.82,18.77,14.36,26.31
		c5.55-0.43,11.09-1.14,16.78-2.42c-6.4-7.11-9.95-15.93-10.38-25.88c-1.99-32.71,15.5-46.21,42.66-68.11l11.94-10.38
		c48.63-41.09,34.27-82.9,39.81-118.73C276.59,113.53,272.61,113.53,268.62,113.11L268.62,113.11z"/>
	<path id="XMLID_50_" class="st2" d="M288.1,113.96c-1.56,7.11-1.99,14.79-2.42,22.32c-1.99,31.14-1.14,66.55-40.67,101.53
		l-11.8,9.67c-26.31,21.19-41.38,34.27-40.24,62.99c0.43,9.53,4.41,17.92,11.09,24.32c7.11-1.99,14.36-5.12,21.47-9.1
		c34.27-19.48,55.74-48.63,64.13-86.03c5.12-23.46,5.12-42.66,4.83-58.16c0-7.54,1.14-23.18,1.14-23.18
		c1.14-9.53,2.84-23.04,13.94-40.67c0.43-0.85,0.43-1.14,0.85-1.99C303.75,115.1,296.21,114.39,288.1,113.96L288.1,113.96z"/>
	<path id="XMLID_51_" class="st2" d="M299.76,213.92L299.76,213.92c-1.14,5.97-1.14,11.94-1.99,18.34
		c-0.43,2.42-0.85,4.83-0.85,6.83c-0.43,0.85-0.43,1.56-0.43,1.99c-8.82,39.39-31.14,69.68-67.26,90.44
		c-5.97,3.55-12.37,6.4-18.77,8.39c10.81,7.11,23.04,9.1,31.43,7.96c32.28-4.83,48.2-25.88,55.74-48.63
		c7.54-23.18,6.83-47.78,6.4-57.73c-1.14-34.27,25.17-47.07,25.17-47.07C308.87,193.31,302.18,202.41,299.76,213.92z"/>
	<path id="XMLID_52_" class="st2" d="M278.15,340.19c-13.08,11.09-27.44,13.51-33.84,14.36c-12.8,1.99-27.87-0.85-41.38-11.52
		l-0.43-0.43c-5.97,1.56-11.52,2.42-17.06,2.84c13.08,14.36,30.29,21.9,53.32,23.46c15.93-5.97,29.43-16.35,39.81-29.15
		L278.15,340.19L278.15,340.19z"/>
	<path id="XMLID_53_" class="st2" d="M157.85,363.8c0-7.11-1.99-14.36-5.12-21.47c-7.96-1.99-15.5-5.55-23.18-9.95
		c-4.41-2.84-7.96-6.83-11.09-10.38C126.85,339.91,140.79,354.13,157.85,363.8z"/>
	<path id="XMLID_54_" class="st2" d="M223.69,373.75c-12.8-3.13-23.89-7.54-33.42-15.07c-4.83-3.55-9.53-7.96-13.51-12.8
		c-5.12,0-10.38-0.43-15.5-1.56c2.84,7.54,4.41,15.07,3.13,22.75c12.37,5.55,25.45,8.82,39.81,8.82c6.83,0,13.51-0.85,19.91-1.99
		C223.97,373.75,223.97,373.75,223.69,373.75z"/>
	<path id="XMLID_55_" class="st2" d="M334.74,139.41c-2.42,7.11-9.53,6.4-11.94,2.42c-3.13-6.4-1.99-11.09,1.56-14.79
		c3.55-3.13,9.1-5.12,14.79-7.54c-6.4-1.14-13.08-1.99-20.33-2.84c-0.43,0-0.43,0-0.43,0c-0.85,0.85-1.14,1.56-1.99,2.42
		c-11.52,17.06-12.8,30.29-13.94,39.81l-0.43,3.13c-0.85,5.12-0.85,11.52-0.43,19.05c0,1.14,0,2.42,0,3.13
		c-0.43,2.84-0.43,5.12-0.43,7.96c0-1.14,0.43-1.56,0.43-0.85c3.13-10.38,9.1-16.78,17.49-20.33c9.1-3.55,17.92-7.11,18.34-20.33
		c0.43-5.55,0.85-11.09,1.99-13.94c2.42-5.12,6.4-6.4,6.4-6.4C341.57,130.31,336.74,132.3,334.74,139.41L334.74,139.41z"/>
	<path id="XMLID_56_" class="st3" d="M265.92,84.81c-96.84-0.85-177.74,24.32-180.45,55.74c-1.14,12.8,10.38,24.74,30.71,34.27
		c12.37,5.97,28.3,11.09,46.64,15.07c3.98-1.56,7.54-2.84,11.52-3.98c3.13-1.14,9.1-3.13,15.93-5.97
		c-27.16-3.98-49.06-9.95-62.57-17.06c-9.95-5.55-15.5-11.52-14.79-17.92c1.56-21.47,69.39-37.82,151.01-37.11
		c81.62,0.85,146.6,18.77,144.61,39.81c-0.43,5.97-5.97,11.52-15.07,16.35c-17.06,8.82-47.07,15.93-83.61,19.2
		c-1.14,1.56-2.42,3.55-3.55,5.55c16.78-6.4,35.83,3.13,35.83,3.13s1.56,0.43,2.42,1.14c24.32-4.41,45.08-10.81,60.58-17.92
		c18.77-9.1,29.86-19.48,31.14-31.14C438.83,112.4,362.33,86.09,265.92,84.81L265.92,84.81z"/>
</g>
</svg>
