<?xml version="1.0" encoding="utf-8"?>
<!-- Generator: Adobe Illustrator 24.3.0, SVG Export Plug-In . SVG Version: 6.00 Build 0)  -->
<svg version="1.1" id="Layer_1" xmlns="http://www.w3.org/2000/svg" xmlns:xlink="http://www.w3.org/1999/xlink" x="0px" y="0px"
	 viewBox="0 0 512 512" style="enable-background:new 0 0 512 512;" xml:space="preserve">
<style type="text/css">
	.st0{fill-rule:evenodd;clip-rule:evenodd;fill:#27245E;}
	.st1{fill:#7E7E80;}
	.st2{fill-rule:evenodd;clip-rule:evenodd;fill:#FFFFFF;}
	.st3{fill-rule:evenodd;clip-rule:evenodd;fill:#108EA9;}
	.st4{fill:#108EA9;}
	.st5{fill:#FFFFFF;}
</style>
<g id="XMLID_2_">
	<g id="XMLID_38_">
		<g id="XMLID_46_">
			<g id="XMLID_57_">
				<path id="XMLID_61_" class="st0" d="M481.75,76.7c0,0,14.05-44.64,15.37-54.3c0,0-75.23,48.16-185.89,134.22l-7.03-3.95
					c0,0,5.27-15.81-12.73-18.74l23.13-16.69c0,0,6.59-5.27,7.46-14.93l-38.5,28.83c0,0-1.46-0.59-3.81-1.17
					c-7.9-2.93-16.1-3.81-23.71-3.66c-7.61-0.15-15.81,0.73-23.71,3.66c-2.49,0.73-3.81,1.17-3.81,1.17l-38.5-28.83
					c0.88,9.66,7.46,14.93,7.46,14.93l23.13,16.69c-18,3.07-12.73,18.74-12.73,18.74l-7.03,3.95C90.21,70.4,14.98,22.39,14.98,22.39
					c1.32,9.66,15.37,54.3,15.37,54.3L8.97,66.16l24.88,62.94c27.52,65.57,69.53,70.84,69.53,70.84c4.83,18.3,20.93,36.3,20.93,36.3
					h-36.3v38.93l-21.37,11.42l21.81,11.86v34.54l23.57,14.49l33.23-3.95l92.65,54.3c9.66,29.27,18,74.79,18,74.79
					s8.34-45.52,18-74.79l92.65-54.3l33.23,3.95l23.57-14.49v-34.54l21.81-11.86l-21.37-11.42v-38.93h-36.3c0,0,16.25-18,20.93-36.3
					c0,0,42.01-5.27,69.53-70.84l24.88-62.94L481.75,76.7z"/>
				<path id="XMLID_58_" class="st1" d="M496.97,22.39c-1.32,9.66-15.37,54.3-15.37,54.3l21.37-10.54l-24.88,62.94
					c-27.52,65.57-69.53,70.84-69.53,70.84c-4.83,18.3-20.93,36.3-20.93,36.3h36.3v38.93l21.37,11.42l-21.81,11.86v34.54
					l-23.57,14.49l-33.23-3.95l-92.65,54.3c-9.66,29.27-18,74.79-18,74.79s-8.34-45.52-18-74.79l-92.65-54.3l-33.23,3.95
					L88.6,332.99v-34.54l-21.81-11.86l21.37-11.42v-38.93h36.3c0,0-16.25-18-20.93-36.3c0,0-42.01-5.27-69.53-70.84L9.12,66.16
					L30.49,76.7c0,0-14.05-44.64-15.37-54.3c0,0,75.23,48.16,185.89,134.22l7.03-3.95c0,0-5.27-15.81,12.73-18.74l-23.27-16.54
					c0,0-6.59-5.27-7.46-14.93l38.5,28.83c0,0,1.46-0.59,3.81-1.17c7.32-2.63,14.93-3.66,21.96-3.66c0.59,0,1.17,0,1.76,0
					c0.59,0,1.17,0,1.76,0c7.03,0,14.64,0.88,21.96,3.66c2.49,0.73,3.81,1.17,3.81,1.17l38.5-28.83
					c-0.88,9.66-7.46,14.93-7.46,14.93l-23.13,16.69c18,3.07,12.73,18.74,12.73,18.74l7.03,3.95
					C421.74,70.55,496.97,22.39,496.97,22.39 M503.26,12.73l-8.78,5.56c-0.73,0.44-75.53,48.45-183.69,132.61l-1.17-0.73
					c0.29-3.22,0.15-7.76-2.34-12c-1.32-2.34-3.22-4.24-5.56-5.71l15.81-11.42l0.15-0.15l0.15-0.15c0.29-0.29,8.2-6.73,9.22-18.15
					l1.02-10.83l-8.64,6.44l-36.45,27.37c-0.44-0.15-0.88-0.29-1.46-0.44c-7.03-2.63-14.93-3.95-23.42-3.95c-0.59,0-1.17,0-1.76,0
					c-0.59,0-1.17,0-1.76,0c-8.49,0-16.39,1.32-23.42,3.95c-0.59,0.15-1.02,0.29-1.46,0.44l-36.45-27.37l-8.64-6.44l1.02,10.83
					c1.02,11.56,8.93,17.86,9.22,18.15l0.15,0.15l0.15,0.15l15.81,11.42c-2.34,1.46-4.24,3.37-5.56,5.71
					c-2.63,4.24-2.78,8.93-2.34,12l-1.17,0.73C93.14,66.89,18.34,18.88,17.61,18.44l-8.78-5.56l1.46,10.25
					c0.88,7.03,7.9,30.44,12.15,44.35l-11.42-5.56L-0.1,56.5l4.54,11.56L29.32,131l0,0l0,0c6.44,15.37,14.2,28.83,23.13,39.96
					c7.17,8.93,15.22,16.39,23.71,22.25c10.25,7.03,18.88,9.81,23.27,10.98c3.37,10.68,9.81,20.64,14.78,27.37H87.87h-4.54v4.83
					v36.01l-18.88,9.95l-7.9,4.24l7.9,4.24l19.32,10.39v31.62v2.63l2.34,1.46l23.57,14.49l1.46,0.88l1.61-0.15l31.62-3.81
					l89.72,52.55c9.22,28.69,17.13,72.01,17.27,72.45l4.68,25.91l4.68-25.91c0.15-0.44,8.05-43.76,17.27-72.45l89.72-52.55
					l31.62,3.81l1.61,0.15l1.46-0.88l23.57-14.49l2.34-1.46v-2.63v-31.62l19.32-10.39l7.9-4.24l-7.9-4.24l-18.88-9.95v-36.01v-4.83
					h-4.83h-26.35c4.98-6.73,11.42-16.69,14.78-27.37c4.39-1.17,13.03-3.95,23.27-10.98c8.49-5.85,16.39-13.32,23.71-22.25
					c8.93-11.12,16.69-24.59,23.13-39.96l0,0l0,0l24.88-62.94l4.54-11.56l-11.12,5.42l-11.42,5.56
					c4.24-13.91,11.27-37.47,12.15-44.35L503.26,12.73L503.26,12.73z"/>
			</g>
			<g id="XMLID_52_">
				<path id="XMLID_56_" class="st2" d="M30.78,89.58l25.32,13.17c0,0-18.3-41.57-20.49-49.91c0,0,49.47,23.57,177.55,124.71
					c0,0,3.51,10.1,6.15,14.49L78.5,115.49l108.9,78.75l-61.62-6.15c0,0-55.03-5.27-71.28-43.33
					C38.25,106.56,30.78,89.58,30.78,89.58z"/>
				<path id="XMLID_55_" class="st3" d="M213.01,177.4C84.94,76.4,35.47,52.69,35.47,52.69c0.73,2.49,2.78,8.2,5.56,14.78
					l172.72,111.97C213.31,178.28,213.01,177.4,213.01,177.4z"/>
				<path id="XMLID_54_" class="st3" d="M119.78,201.7c0,0,10.68,24.44,28.4,36.89c0,0-9.07-18.15-7.9-25.03l4.68,6.73
					c0,0,28.4-3.81,50.79-3.07C195.74,217.07,137.93,207.55,119.78,201.7z"/>
				<path id="XMLID_53_" class="st4" d="M146.12,323.33l9.66-0.88l44.79,26.05c0,0,2.49,5.71,8.64,11.86L146.12,323.33z"/>
			</g>
			<g id="XMLID_47_">
				<path id="XMLID_51_" class="st2" d="M480.87,89.58l-25.32,13.17c0,0,18.3-41.57,20.49-49.91c0,0-49.47,23.57-177.55,124.71
					c0,0-3.51,10.1-6.15,14.49l140.81-76.55l-108.9,78.75l61.62-6.15c0,0,55.03-5.27,71.28-43.33
					C473.4,106.56,480.87,89.58,480.87,89.58z"/>
				<path id="XMLID_50_" class="st3" d="M298.64,177.4C426.71,76.4,476.19,52.69,476.19,52.69c-0.73,2.49-2.78,8.2-5.56,14.78
					L297.91,179.45C298.35,178.28,298.64,177.4,298.64,177.4z"/>
				<path id="XMLID_49_" class="st3" d="M391.88,201.7c0,0-10.68,24.44-28.4,36.89c0,0,9.07-18,7.9-25.03l-4.68,6.73
					c0,0-28.4-3.81-50.79-3.07C315.91,217.07,373.73,207.55,391.88,201.7z"/>
				<path id="XMLID_48_" class="st4" d="M365.53,323.33l-9.66-0.88l-44.79,26.05c0,0-2.49,5.71-8.64,11.86L365.53,323.33z"/>
			</g>
		</g>
		<g id="XMLID_39_">
			<path id="XMLID_45_" class="st4" d="M207.16,338.11c2.34,4.1,8.2,13.03,17.71,21.08c3.22-1.32,7.32-3.51,10.83-6.88
				C235.7,352.46,219.89,348.51,207.16,338.11z"/>
			<path id="XMLID_44_" class="st4" d="M219.16,325.82c-3.22,1.17-5.85,2.49-7.9,3.66s-3.51,2.34-4.39,3.07
				c4.54,3.81,15.52,11.71,28.69,13.32C235.7,345.87,234.24,341.04,219.16,325.82z"/>
			<path id="XMLID_43_" class="st4" d="M305.08,333.58c-0.59-0.59-2.2-2.2-5.42-4.1c-1.61-1.02-3.66-2.05-6.29-3.07
				c-14.49,14.64-15.81,19.47-15.81,19.47C289.71,344.26,299.96,337.53,305.08,333.58z"/>
			<path id="XMLID_42_" class="st4" d="M287.22,358.6c7.32-6.44,12.59-13.32,15.37-17.86c-12,8.34-25.03,11.56-25.03,11.56
				C280.64,355.24,284.15,357.29,287.22,358.6z"/>
			<path id="XMLID_41_" class="st4" d="M278,335.77l10.83-10.98c-7.03-2.2-16.54-3.81-29.57-4.1l-4.1,41.72l-2.63-41.72
				c-12.44,0.15-21.66,1.61-28.69,3.66l11.27,11.42c0,0,19.17,19.47-5.42,27.22c4.83,3.37,10.25,6.29,16.54,8.34h-11.42
				c1.76,2.78,3.81,6.59,6.15,11.71c2.78-2.34,7.9-5.56,14.64-5.56c5.85,0,10.83,2.78,14.2,5.42c2.2-4.98,4.24-8.78,6-11.56h-10.98
				c6.59-2.05,12.3-5.27,17.13-8.78C259.56,354.51,278,335.77,278,335.77z"/>
			<path id="XMLID_40_" class="st5" d="M245.22,393.29c3.22,8.78,6.73,19.91,10.25,34.4l0,0l0,0l0,0l0,0
				c3.51-14.34,7.03-25.47,10.25-34.1c-2.05-1.9-5.12-3.95-9.66-3.95C251.07,389.64,247.41,391.54,245.22,393.29z"/>
		</g>
	</g>
	<path id="XMLID_37_" class="st4" d="M282.39,140.37c-5.12,3.37-11.86,9.07-13.47,16.83c0,0-2.49-8.34,5.71-19.32
		c-4.98-1.17-10.98-2.05-18.3-2.05c-7.46,0-13.61,0.88-18.74,2.05c8.05,10.98,5.56,19.17,5.56,19.17
		c-1.61-7.76-8.34-13.47-13.47-16.83c-2.78,1.02-4.98,2.2-6.59,3.07c4.68,1.61,10.1,6,14.34,16.98c0,0,1.46,18.59,11.86,23.86
		c-9.22,11.12-25.03-1.32-25.03-1.32c8.78,21.81,31.18,31.62,31.18,31.62c8.34-5.85,7.46-21.52,6.29-30.15c10.54-5.27,12-24,12-24
		c4.54-11.42,10.1-15.66,14.78-17.13C287.37,142.56,285.17,141.39,282.39,140.37z"/>
	<path id="XMLID_36_" class="st5" d="M233.07,170.08c0,0-9.95,17.71,8.93,15.95C241.99,186.04,234.09,180.91,233.07,170.08z"/>
	<path id="XMLID_35_" class="st5" d="M278.15,170.08c0,0,9.95,17.71-8.93,15.95C269.22,186.04,277.12,180.91,278.15,170.08z"/>
	<g id="XMLID_22_">
		<path id="XMLID_32_" class="st5" d="M179.79,256.59h-38.2l5.42,5.56v45.96l5.27,5.56l32.93-2.78v-48.59L179.79,256.59z
			 M172.18,299.33L159,299.76V268h13.61L172.18,299.33z"/>
		<polygon id="XMLID_31_" class="st5" points="125.05,245.75 125.05,271.22 111.73,277.08 111.73,245.75 98.99,245.75 98.99,282.64 
			89.62,286.88 98.99,291.42 98.99,320.11 111.73,318.79 111.73,291.71 125.05,285.57 125.05,317.04 137.63,315.72 137.63,245.75 		
			"/>
		<path id="XMLID_28_" class="st5" d="M236.29,309.28l-7.46-19.03h4.98v-28.1l-5.42-5.56h-38.2l5.42,5.56v48.16l12.15-0.73v-18.88
			h8.2l7.61,18.44L236.29,309.28z M207.45,267.86h13.61l-0.15,10.98h-13.47V267.86z"/>
		<polygon id="XMLID_27_" class="st5" points="243.46,308.55 255.61,308.55 255.61,267.86 269.22,267.86 269.22,308.69 
			281.66,308.69 281.66,262.15 276.25,256.59 238.04,256.59 243.46,262.15 		"/>
		<polygon id="XMLID_26_" class="st5" points="329.08,310.6 328.94,298.74 305.08,297.72 305.08,288.49 328.79,289.66 
			328.79,277.52 305.08,277.22 305.08,267.86 328.94,267.86 328.94,256.59 287.08,256.59 292.49,262.15 292.49,308.99 		"/>
		<polygon id="XMLID_25_" class="st5" points="369.34,256.59 334.79,256.59 334.79,267.71 345.62,267.71 345.62,312.21 
			358.94,313.52 358.94,267.71 369.34,267.71 		"/>
		<g id="XMLID_23_">
			<polygon id="XMLID_24_" class="st5" points="412.22,319.82 412.22,291.13 422.47,286.15 412.22,281.61 399.93,276.2 
				399.93,276.35 387.34,270.93 387.34,266.39 387.34,257.17 399.93,257.17 399.93,262.15 412.22,262.15 412.22,257.17 
				412.22,245.9 412.22,245.9 369.34,245.9 374.46,250.88 374.46,280.15 387.05,285.27 387.05,285.27 399.93,290.98 399.93,306.94 
				387.05,305.47 387.05,300.2 374.46,298.89 374.46,314.99 			"/>
		</g>
	</g>
	<g id="XMLID_3_">
		<g id="XMLID_20_">
			<polygon id="XMLID_21_" class="st5" points="171.59,234.04 171.59,228.04 157.98,228.04 157.98,244 157.98,244 160.17,246.19 
				171.59,246.19 171.59,239.75 166.32,239.75 166.32,241.51 163.25,241.51 163.25,232.43 166.32,232.43 166.32,234.04 			"/>
		</g>
		<g id="XMLID_18_">
			<polygon id="XMLID_19_" class="st5" points="195.45,228.04 190.18,228.04 190.18,236.09 185.94,236.09 185.94,228.04 
				180.67,228.04 180.67,246.19 185.94,246.19 185.94,240.78 190.18,240.78 190.18,246.19 195.45,246.19 			"/>
		</g>
		<path id="XMLID_15_" class="st5" d="M219.01,230.39L219.01,230.39l-2.2-2.2h-7.32h-5.27l0,0v4.68l0,0v13.47h5.27v-5.42h4.1v5.42
			h5.27v-13.47l0,0v-2.49H219.01z M213.6,236.24h-4.1v-3.22h2.93h1.17V236.24z"/>
		<path id="XMLID_12_" class="st5" d="M287.52,230.39l-2.2-2.2H278h-5.12l-0.15-0.15v0.15v4.68v8.34v2.93l0,0l2.2,2.2h1.76h1.17l0,0
			h4.1h5.27v-13.47l0,0L287.52,230.39L287.52,230.39z M282.25,241.36h-4.1v-8.49h2.93h1.17V241.36z"/>
		<path id="XMLID_9_" class="st5" d="M244.34,246.34l-2.93-5.42h1.9v-8.05l0,0v-2.49l0,0l-2.2-2.2h-7.32h-5.27l0,0v4.68l0,0v13.47
			h5.27v-5.42h1.46h0.88l2.93,5.42H244.34z M233.8,236.24v-3.22h2.93h1.17v3.22H233.8z"/>
		<g id="XMLID_7_">
			<polygon id="XMLID_8_" class="st5" points="265.12,241.51 258.68,241.51 258.68,228.19 253.41,228.19 253.41,246.19 
				258.68,246.19 265.12,246.19 			"/>
		</g>
		<polygon id="XMLID_6_" class="st5" points="306.4,228.19 306.4,228.19 301.13,228.19 301.13,228.19 296.88,228.19 296.88,232.87 
			301.13,232.87 301.13,246.05 306.4,246.05 306.4,246.05 306.4,246.05 306.4,232.87 310.5,232.87 310.5,228.19 		"/>
		<polygon id="XMLID_5_" class="st5" points="327.77,228.19 327.77,228.19 322.5,228.19 322.5,228.19 318.25,228.19 318.25,232.87 
			322.5,232.87 322.5,246.05 327.77,246.05 327.77,246.05 327.77,246.05 327.77,232.87 331.87,232.87 331.87,228.19 		"/>
		<polygon id="XMLID_4_" class="st5" points="354.11,232.73 354.11,228.04 345.62,228.04 345.19,228.04 340.36,228.04 
			340.36,246.19 345.04,246.19 345.62,246.19 354.11,246.19 354.11,241.51 345.62,241.51 345.62,239.46 354.11,239.46 
			354.11,234.78 345.62,234.78 345.62,232.73 		"/>
	</g>
</g>
</svg>
