<?xml version="1.0" encoding="utf-8"?>
<!-- Generator: Adobe Illustrator 27.0.0, SVG Export Plug-In . SVG Version: 6.00 Build 0)  -->
<svg version="1.1" id="Layer_1" xmlns="http://www.w3.org/2000/svg" xmlns:xlink="http://www.w3.org/1999/xlink" x="0px" y="0px"
	 viewBox="0 0 512 512" style="enable-background:new 0 0 512 512;" xml:space="preserve">
<style type="text/css">
	.st0{fill:#FFFFFF;}
	.st1{fill:#0D2240;}
	.st2{fill:#FFA400;}
	.st3{fill:#2B5134;}
</style>
<g id="XMLID_1_">
	<path id="XMLID_7_" class="st0" d="M432.19,340.41l53.17-121.62H238.88l-10.24,23.43l-7.15-23.43h-49.24
		c0,0-32.55,74.21-41.94,95.67c0.98-4.35,1.4-8.84,1.54-13.33v-1.68c3.51-8.28,32.41-74.35,38.3-87.68h135.23l29.04-66.49H173.79
		l-52.75,120.5c-19.5-30.58-60.18-39.42-90.76-19.92s-39.42,60.18-19.92,90.76c12.06,18.8,32.97,30.3,55.27,30.3
		c21.32,0,41.24-10.24,53.59-27.64L108,365.1h26.93l15.99-36.33h30.16l10.94,36.33h283.79l10.66-24.69L432.19,340.41L432.19,340.41z
		 M161.45,303.94l7.15-16.41l4.77,16.41H161.45z M255.71,332.27l-26.79-88.94h66.07C275.21,287.66,263.29,315.3,255.71,332.27z
		 M357.7,340.41h-31l42.23-96.94h31.28C377.48,295.38,364.71,324.28,357.7,340.41z"/>
	<path id="XMLID_8_" class="st1" d="M3.91,304.08c0.7,15.57,7.43,30.44,18.66,41.38c12.2-10.38,19.36-25.39,20.2-41.38H3.91z"/>
	<path id="XMLID_9_" class="st2" d="M48.1,304.08c-0.84,17.25-8.56,33.53-21.46,45.03c10.38,8.42,23.01,13.19,36.33,13.75v-58.92
		H48.1V304.08z"/>
	<path id="XMLID_10_" class="st1" d="M3.91,298.61h38.72c-0.56-16.13-7.86-31.42-20.2-41.94C11.2,267.74,4.61,282.75,3.91,298.61z"
		/>
	<path id="XMLID_11_" class="st2" d="M26.63,253.15c13.19,11.5,20.9,28.06,21.46,45.45h14.73v-59.48
		C49.64,239.97,37.01,244.88,26.63,253.15z"/>
	<path id="XMLID_12_" class="st1" d="M127.36,304.08H88.64c0.7,15.99,8,31,20.2,41.38C119.78,334.38,126.51,319.65,127.36,304.08z"
		/>
	<path id="XMLID_13_" class="st3" d="M83.17,304.08H68.3v58.64c13.33-0.42,26.09-5.19,36.33-13.75
		C91.58,337.6,83.87,321.33,83.17,304.08z"/>
	<path id="XMLID_14_" class="st3" d="M104.63,253.15c-10.38-8.28-23.01-13.19-36.33-14.03v59.48h14.87
		C83.73,281.21,91.44,264.66,104.63,253.15z"/>
	<path id="XMLID_15_" class="st1" d="M176.17,148.92l-54.71,125.55c-3.37-6.59-7.72-12.63-12.91-17.96
		c-12.2,10.66-19.5,25.81-20.2,41.94h39l39.56-91.04h116.01l25.53-58.64H176.17V148.92z"/>
	<polygon id="XMLID_16_" class="st3" points="302.43,207.56 327.96,148.92 317.02,148.92 291.49,207.56 	"/>
	<path id="XMLID_19_" class="st1" d="M194.97,361.17h46.15L199.6,222.71h-24.97l-60.88,138.46h18.38c0,0,6.73-15.57,15.99-36.33
		h35.91L194.97,361.17z M155.55,307.86c4.63-10.24,9.26-21.18,13.75-31.56l9.68,31.56H155.55z"/>
	<polygon id="XMLID_20_" class="st3" points="245.33,347.14 251.65,332.55 218.4,222.71 207.46,222.71 	"/>
	<path id="XMLID_21_" class="st1" d="M406.52,344.2l53.45-121.48h-77.72l-7.43,16.83h31.56c-16.13,36.75-53.45,121.48-53.45,121.48
		h120.36l7.43-16.83H406.52z"/>
	<polygon id="XMLID_22_" class="st3" points="324.03,336.48 373.69,222.71 362.75,222.71 313.09,336.48 	"/>
	<polygon id="XMLID_23_" class="st3" points="429.53,336.48 479.19,222.71 468.24,222.71 418.58,336.48 	"/>
	<path id="XMLID_24_" class="st1" d="M354.47,222.71H241.41l-7.43,16.83h66.91c-16.13,36.75-53.45,121.48-53.45,121.48h97.64
		l7.15-16.83h-50.92L354.47,222.71z"/>
	<path id="XMLID_25_" class="st1" d="M348.58,198.58h-14.17l21.88-49.66h-10.66l-22.73,51.2c-1.68,3.93,0,7.15,4.21,7.15h21.04
		c4.49-0.42,8.56-3.09,10.52-7.15l22.73-51.2h-10.52L348.58,198.58z"/>
	<polygon id="XMLID_26_" class="st1" points="427.56,148.92 390.53,148.92 386.6,157.9 401.05,157.9 379.16,207.56 389.68,207.56 
		411.57,157.9 423.63,157.9 	"/>
	<path id="XMLID_29_" class="st1" d="M442.43,163.65l-6.31,25.53h-10.1L442.43,163.65z M454.21,148.92h-10.52l-39.56,58.64h9.82
		l5.89-8.98h14.03l-1.96,8.98h10.52L454.21,148.92z"/>
	<polygon id="XMLID_30_" class="st1" points="501.49,148.92 490.55,173.75 476.38,173.75 487.32,148.92 476.52,148.92 
		450.71,207.56 461.23,207.56 472.17,182.59 486.62,182.59 475.68,207.56 486.2,207.56 512.01,148.92 	"/>
</g>
</svg>
