<?xml version="1.0" encoding="utf-8"?>
<!-- Generator: Adobe Illustrator 26.5.0, SVG Export Plug-In . SVG Version: 6.00 Build 0)  -->
<svg version="1.1" id="Layer_1" xmlns="http://www.w3.org/2000/svg" xmlns:xlink="http://www.w3.org/1999/xlink" x="0px" y="0px"
	 viewBox="0 0 512 512" style="enable-background:new 0 0 512 512;" xml:space="preserve">
<style type="text/css">
	.st0{fill:#FFFFFF;}
	.st1{fill:#5B2B82;}
	.st2{clip-path:url(#SVGID_00000176746549243477945240000017971724301584217488_);fill:#63717A;}
</style>
<g id="XMLID_1_">
	<path id="XMLID_3_" class="st0" d="M31.86,0l64.53,64.53l53.16-53.16l53.16,53.16l53.3-53.16l53.16,53.16l53.16-53.16l53.16,53.16
		L480.04,0v287.84c0,123.72-100.3,224.16-224.16,224.16S31.86,411.7,31.86,287.84V0z"/>
	<path id="XMLID_41_" class="st1" d="M50.94,45.59l45.59,45.59l53.16-53.16l39.84,39.84l-53.16,53.16h26.65l93-93l53.16,53.16
		l53.16-53.16l39.84,39.84l-53.16,53.16h26.65l85.43-85.43v157.25H50.94 M50.94,221.07h30.44v35.77h9.12l16.69-35.77h30.44
		l-21.32,44.05l21.32,44.05h-30.44L90.5,273.39h-9.12v35.77H50.94 M147.45,221.07h30.44v88.09h-30.44 M188.41,221.07h74.49
		c5.05,0,9.12,4.07,9.12,9.12v78.97h-30.44v-71.4h-22.72v71.4h-30.44 M283.37,221.07h83.6v16.69h-53.16v54.71h22.72V256.7h30.44
		v52.46h-74.49c-5.05,0-9.12-4.07-9.12-9.12 M377.5,221.07h83.6v22.72h-30.44v-6.03h-22.72v18.94h44.05c5.05,0,9.12,4.07,9.12,9.12
		v43.34h-83.6v-16.69h53.16v-18.94h-44.05c-5.05,0-9.12-4.07-9.12-9.12"/>
	<path id="XMLID_42_" class="st0" d="M63.99,158.79h27.35v6.87H73.1v6.87h13.61c2.52,0,4.49,2.1,4.49,4.49v15.15H63.84v-6.87h18.24
		v-6.87H68.47c-2.52,0-4.49-2.1-4.49-4.49"/>
	<path id="XMLID_45_" class="st0" d="M124.44,158.23H101.3v34.51h8.98v-8.98h10.24v8.98h8.98v-29.46
		C129.35,160.75,126.97,158.23,124.44,158.23z M120.38,177.45h-10.24v-11.5h10.24V177.45z"/>
	<path id="XMLID_46_" class="st0" d="M139.17,158.79h27.35v6.87h-18.24v19.78h18.24v6.87H143.8c-2.52,0-4.49-2.1-4.49-4.49"/>
	<path id="XMLID_49_" class="st0" d="M203.7,163.28c0-2.52-1.54-5.05-4.07-5.05h-22.86v34.51h8.98v-12.76h4.77l4.49,12.76h9.12
		l-4.49-12.76h4.07L203.7,163.28L203.7,163.28z M194.72,173.66h-8.98v-7.72h8.98V173.66z"/>
	<path id="XMLID_52_" class="st0" d="M237.22,158.23h-23.29v34.51h10.24v-8.98h8.98v8.98h8.98v-29.46
		C242.13,160.75,239.75,158.23,237.22,158.23z M233.16,177.45h-8.98v-11.5h8.98V177.45z"/>
	<path id="XMLID_53_" class="st0" d="M252.09,158.79h40.96c2.52,0,4.49,2.1,4.49,4.49v28.9h-9.12v-26.65h-9.12v26.65h-9.12v-26.65
		h-9.12v26.65h-9.12"/>
	<path id="XMLID_54_" class="st0" d="M307.92,158.79h27.35v6.87h-18.24v6.87h18.24v6.87h-18.24v6.87h18.24v6.87h-22.72
		c-2.52,0-4.49-2.1-4.49-4.49"/>
	<path id="XMLID_55_" class="st0" d="M345.51,158.79h22.72c2.52,0,4.49,2.1,4.49,4.49v28.9h-9.12v-26.65h-9.12v26.65h-9.12"/>
	<polyline id="XMLID_56_" class="st0" points="383.11,158.79 410.46,158.79 410.46,165.66 401.34,165.66 401.34,192.18 
		392.23,192.18 392.23,165.66 383.11,165.66 	"/>
	<path id="XMLID_59_" class="st0" d="M446.93,162.72c0-2.52-2.1-4.49-4.49-4.49h-17.81c-2.52,0-4.49,2.1-4.49,4.49v24.13
		c0,2.52,2.1,4.49,4.49,4.49h17.81c2.52,0,4.49-2.1,4.49-4.49V162.72z M437.96,185.16h-8.98v-19.22h8.98V185.16z"/>
	<g id="XMLID_64_">
		<g>
			<defs>
				<path id="SVGID_1_" d="M51.64,326.7H460.4c-16.83,112.92-122.04,190.63-234.96,173.8C135.67,486.89,65.11,416.47,51.64,326.7
					 M139.73,322.91c1.12,9.26,3.65,20.34,7.57,32.4c-52.46,13.19-64.53,47.41-64.53,47.41l15.15,21.32c0,0,6.73-34.23,57.79-46.29
					c20.34,47.83,57.79,101.84,109.41,121.48l46.29-9.82c-73.64-10.1-114.18-67.05-133.96-114.74c5.61-0.7,11.5-0.7,17.81-0.7
					c94.97,0,156.55,69.16,197.51,69.16c6.87,0,11.36-6.03,11.36-6.03l15.15-11.36l7.57-18.94c0,0-6.87,13.61-22.72,13.61
					c-49.38,0-98.75-69.86-212.66-69.86c-8,0-15.15,0.42-22.3,1.12c-3.51-11.08-5.89-20.9-6.59-28.48h-22.86"/>
			</defs>
			<clipPath id="SVGID_00000155125152245760715150000007796498646315785389_">
				<use xlink:href="#SVGID_1_"  style="overflow:visible;"/>
			</clipPath>
			<path id="XMLID_65_" style="clip-path:url(#SVGID_00000155125152245760715150000007796498646315785389_);fill:#63717A;" d="
				M52.48,326.7H459.7C437.82,439.2,329.1,512.56,216.6,490.82C133.42,474.55,68.61,409.74,52.48,326.7"/>
		</g>
	</g>
</g>
</svg>
