<?xml version="1.0" encoding="utf-8"?>
<!-- Generator: Adobe Illustrator 26.5.0, SVG Export Plug-In . SVG Version: 6.00 Build 0)  -->
<svg version="1.1" id="Layer_1" xmlns="http://www.w3.org/2000/svg" xmlns:xlink="http://www.w3.org/1999/xlink" x="0px" y="0px"
	 viewBox="0 0 512 512" style="enable-background:new 0 0 512 512;" xml:space="preserve">
<style type="text/css">
	.st0{fill:#C4CED4;}
	.st1{fill:#0C1E24;}
	.st2{fill:#FFFFFF;}
	.st3{fill:#0474BC;}
</style>
<g id="XMLID_1_">
	<path id="XMLID_5_" class="st0" d="M308.05,165.57l1.68,0.14l3.65,16.27l44.31,3.93v7.57l-49.64-4.21L308.05,165.57L308.05,165.57z
		 M511.95,233.16v-71.1h-0.14c-0.56-0.14-40.53-14.16-63.95-19.49c-27.49-6.17-35.34,15.01-36.6,18.65v-26.79
		c0,0-75.17-14.44-129.02-13.74c-9.26,0.14-23.14,3.51-27.63,23v-23.56c0,0-51.61,1.54-70.82,3.23
		c-4.77,0.42-25.38,2.24-31.97,25.66V126.3c0,0-68.01,8.13-129.02,27.77c-8.83,2.8-22.86,13.18-22.86,28.61v156.5l51.19-16.41
		v-26.93l46.7-11.08v26.93c0,0,11.92-2.52,23-4.77c-23.56,20.05-42.77,45.58-54.69,73.48c30.99-26.64,61.84-52.45,107.56-64.79
		l-10.38,24.12c36.46-19.91,85.4-20.61,124.25-8.13l-2.94,6.45c-24.12-10.1-51.61-11.36-79.09-7.15
		c26.93,9.26,49.64,16.41,72.22,31.27c-1.54,41.93,32.96,82.18,77.41,81.76c71.38-0.56,104.34-84.28,64.37-136.03
		c4.07,3.09,9.12,5.33,16.55,7.71c25.24,7.01,75.45,21.88,75.45,21.88v-66.75l-38.42-11.5l-4.21,18.65
		c-2.52-0.84-6.17-0.98-6.17-2.8c0-0.98,0-50.34,0-75.45l3.09,19.49L511.95,233.16L511.95,233.16z"/>
	<path id="XMLID_6_" class="st1" d="M465.95,188.29l4.21,27.35l36.88,11.36l0,0h0.14v-61.7c0,0-36.74-12.9-60.44-18.23
		c-8.13-2.24-31.97-3.65-32.53,26.5v104.2c0,17.95,9.54,29.87,27.49,34.64c27.35,7.15,65.63,18.93,65.63,18.93v-57.22l-30.29-9.12
		l-4.21,18.65c-3.37-0.98-6.03-1.68-9.54-2.66c-3.79-0.98-4.49-2.94-4.63-4.91v-89.89C459.08,186.32,464.83,188.01,465.95,188.29"/>
	<path id="XMLID_7_" class="st1" d="M362.18,131.35v166.04l8.27,0.7c2.52,0.28,22.44,3.65,24.82,4.07l11.36,2.8V138.22
		C406.77,137.94,379.01,133.45,362.18,131.35"/>
	<path id="XMLID_10_" class="st1" d="M309.03,226.71v30.85c-0.84,0-4.91,0.28-5.47-2.38v-28.89L309.03,226.71z M313.38,161.22
		l3.65,16.41l36.74,3.23v-50.63c0,0-53.57-5.05-68.58-5.05c-8.98,0-26.08,3.23-26.64,26.08v108.4c0,18.79,10.8,30.01,29.73,30.71
		c0,0,39.27,1.96,54.41,4.21l10.94,2.1v-99.01l0,0l-50.34-4.07v-32.96L313.38,161.22z"/>
	<path id="XMLID_13_" class="st1" d="M199.79,194.18v-31.55c0.14-1.96,4.63-1.82,5.33-1.82v33.1
		C203.43,194.04,201.61,194.18,199.79,194.18 M184.36,127.84c-18.37,1.68-29.17,14.02-29.17,32.82v136.17l10.8-1.96
		c2.38-0.28,22.58-2.38,25.1-2.52l8.83-0.28V231.2c1.68-0.14,3.51-0.28,5.33-0.42v61.14l10.1-1.12c2.24-0.14,21.88-0.98,25.24-0.98
		l9.54,0.56V124.76C250.13,124.76,204.27,126.02,184.36,127.84"/>
	<path id="XMLID_14_" class="st1" d="M147.34,131.49c0,0-41.65,6.31-54.13,8.98c-2.8,0.7-5.61,1.68-8.13,3.09v-1.4
		c0,0-34.64,7.71-60.86,16.13c-8.13,2.66-19.77,11.92-19.77,24.26v149.77l42.07-13.32V194.32c0-2.24,1.96-4.07,5.89-5.19
		c0.14,0,0.42-0.14,0.7-0.14v101.67l44.45-10.52v-97.32c0.56-4.49,4.35-4.91,4.63-4.91V305.8c0,0,34.5-7.01,36.46-7.15l8.41-0.7
		L147.34,131.49z"/>
	<path id="XMLID_15_" class="st2" d="M480.82,271.87l-4.21,18.51c-6.73-1.96-9.96-2.94-14.86-4.21c-4.77-1.26-7.57-3.93-8.41-8.13
		V183.1c1.54-5.33,8.55-0.84,17.25,0.98l4.21,27.35l26.78,8.27v-50.63c0,0-33.38-11.36-56.23-16.83
		c-2.52-0.56-25.38-6.03-25.94,21.32v104.2c0,15.43,7.85,25.38,23.42,29.45c22.44,5.89,58.9,16.83,58.9,16.83v-46L480.82,271.87z"/>
	<path id="XMLID_16_" class="st2" d="M401.3,142.71l-33.8-5.19v154.96c0,0,27.35,4.07,29.03,4.49l4.77,1.26V142.71z"/>
	<path id="XMLID_17_" class="st2" d="M304.96,155.33c0.28,0,9.54,0.56,12.9,0.84l3.65,16.41l27.07,2.38V135
		c0,0-55.95-4.91-63.11-4.63c-6.73,0.28-20.33,1.4-21.32,20.61v108.4c0,15.99,8.55,24.68,24.68,25.38c0,0,37.16,1.82,53.43,3.93
		l6.45,1.12v-87.65l0,0l-40.81-3.23v22.02c0,0,5.47,0.42,6.87,0.56v41.51c-5.05-0.28-15.85,0.84-16.27-8.13v-95.64
		C298.51,157.43,299.91,155.33,304.96,155.33"/>
	<path id="XMLID_20_" class="st2" d="M210.16,198.66c-0.14,0-10.38,0.56-15.29,0.84v-37.16c0.42-3.93,3.09-6.03,7.85-6.45
		c0,0,4.91-0.28,7.29-0.42v43.19H210.16z M184.78,132.89c-15.57,1.54-24.54,11.5-24.68,27.49l0,0v130.56l0,0l0,0l0.56-0.14
		l5.33-0.98c4.49-0.56,23.14-2.38,24.82-2.52l4.07-0.14v-60.58c4.91-0.42,10.1-0.7,15.29-1.12v60.72l4.63-0.42
		c1.54-0.14,22.16-0.98,25.8-0.98l4.63,0.28v-155.1C245.08,129.95,205.11,130.79,184.78,132.89"/>
	<path id="XMLID_21_" class="st2" d="M142.01,137.8L142.01,137.8L142.01,137.8c0,0-40.67,6.17-47.54,7.99
		c-5.47,1.4-9.54,3.65-14.44,9.12v-5.89c0,0-28.19,6.17-53.99,14.58c-6.45,2.1-15.99,9.68-15.99,19.21v141.92l31.27-9.82V194.46
		c-0.14-10.1,14.44-11.36,17.39-11.92v101.39l33.66-7.99c0,0,0-88.21,0-93.4c1.12-11.08,13.46-10.24,15.43-10.94v127.33l16.55-2.8
		l0,0l17.53-3.09v-0.42h0.14V137.8z"/>
	<path id="XMLID_22_" class="st3" d="M497.93,280.98l-14.3-4.21l-4.21,18.51c-9.26-2.8-12.9-3.79-18.65-5.33
		c-5.47-1.4-11.08-5.33-11.5-13.6v-92.13c1.12-7.15,5.75-8.41,11.5-6.87c0-0.14,6.03,1.68,13.32,3.79l4.35,27.35l19.49,6.03v-42.77
		c-10.8-3.79-32.11-10.8-53.29-15.85c-13.6-3.23-21.32,3.65-21.32,17.53v104.2c0,14.02,7.01,22.16,20.61,25.8
		c27.77,7.29,54.13,15.43,54.13,15.43L497.93,280.98z"/>
	<path id="XMLID_23_" class="st3" d="M371.43,288.98c1.68,0.14,24.54,3.93,26.08,4.35V145.93c-7.85-1.4-14.86-2.52-26.08-4.07
		V288.98z"/>
	<path id="XMLID_24_" class="st3" d="M311.41,217.6c1.4,0.14,6.87,0.42,6.87,0.42v49.22c-4.07-0.28-8.13-0.56-12.06-0.84
		c-5.89-0.42-11.78-4.21-11.78-12.06c0-0.28,0-94.94,0-94.94c0.84-7.15,7.71-8.13,11.92-7.85c0-0.14,6.87,0.42,14.86,1.12
		l3.65,16.41l20.05,1.82v-32.25h-0.14l0,0c-36.46-3.51-56.8-4.21-56.8-4.21c-4.21-0.14-10.66-0.14-15.15,4.07
		c-2.8,2.66-4.77,7.15-4.77,12.76v108.4c0,13.88,7.01,21.04,21.04,21.6c0-0.42,48.8,2.94,55.81,4.35V206.1l0,0
		c-11.64-1.12-18.37-1.82-33.24-2.66v14.16H311.41z"/>
	<path id="XMLID_27_" class="st3" d="M190.67,162.2c0.28-2.8,1.82-9.68,11.78-10.38c3.93-0.28,7.85-0.56,11.78-0.7v51.61
		c-7.85,0.42-15.85,0.7-23.7,1.4V162.2H190.67z M164.31,160.66c0,0,0,123.27,0,125.09c1.68-0.28,24.68-2.66,26.36-2.66v-60.44
		c7.85-0.7,15.85-1.26,23.7-1.68v60.58c1.68-0.14,24.96-0.98,26.64-0.98V134.3c-15.71,0.42-37.3,1.12-55.81,2.8
		C171.32,138.36,164.31,146.78,164.31,160.66"/>
	<path id="XMLID_28_" class="st3" d="M95.17,149.58c-9.68,2.24-16.97,11.36-19.07,22.44v-18.23c0,0-23,5.05-49.08,13.46
		c-5.19,1.68-13.32,7.99-13.32,15.57v136.31c1.54-0.56,22.02-6.87,23.7-7.29V194.32c0-8.13,6.73-12.34,12.48-14.02
		c3.23-0.98,12.62-2.38,12.62-2.38v100.97l26.08-6.17v-90.87c0.98-6.87,4.63-11.36,11.64-13.04c6.59-1.12,11.5-1.82,11.5-1.82
		v126.77c1.54-0.42,24.82-4.35,26.36-4.49c0-29.31,0-147.11,0-147.11S107.51,146.78,95.17,149.58"/>
	<path id="XMLID_29_" class="st1" d="M371.71,278.88c101.81,40.25,59.46,158.75-15.15,159.59c-40.81,0.42-75.59-37.44-72.78-77.97
		c-18.37-14.72-41.51-21.88-63.81-28.19c20.19-2.1,48.66,3.09,67.17,11.64l6.87-15.01c-34.22-12.48-88.35-14.72-121.58,1.4
		l9.12-21.32c-35.2,7.85-74.61,29.59-103.77,56.8c20.33-39.13,66.61-78.67,108.82-91.85l-3.09,9.26
		c27.21-9.82,55.53-15.29,84.28-16.97c30.57-1.82,55.39,0,76.57,4.63c-3.79-4.91-9.96-13.74-9.96-13.74s16.41,4.21,19.63,5.05
		c1.68-2.8,5.05-8.13,5.05-8.13l5.19-8.27c0,0,2.52,17.25,2.94,20.19c2.8,0.98,18.65,6.17,18.65,6.17L371.71,278.88z"/>
	<path id="XMLID_38_" class="st0" d="M383.07,337.36c3.79,5.05,7.99,11.08,11.08,16.83c7.29-4.91,13.74-10.24,19.49-16.83
		c-3.65-7.01-9.96-14.72-14.44-18.65C394.85,325.86,389.52,332.03,383.07,337.36 M396.54,358.95c1.82,4.07,3.37,8.27,4.77,12.48
		c6.31-2.1,12.34-3.09,18.93-3.51c0.14-9.4-1.12-16.41-4.21-25.24C410,349,403.69,354.18,396.54,358.95 M402.57,376.48
		c2.24,10.1,2.94,20.19,2.38,30.43c8.13-10.8,12.34-20.05,14.72-33.8C413.79,373.68,408.04,374.52,402.57,376.48 M398.22,378.73
		c-20.19,9.54-28.33,30.71-36.32,50.06c13.32-1.54,25.52-6.03,35.76-14.72C400.74,402.57,400.46,390.37,398.22,378.73 M396.68,373.4
		c-1.26-4.07-2.66-7.99-4.35-11.78c-28.61,16.83-62.26,25.1-95.36,24.96c9.68,25.38,32.11,42.21,59.46,42.49
		C364.98,407.61,374.66,384.19,396.68,373.4 M389.95,356.71c-3.09-5.89-7.01-11.36-11.08-16.55c-26.22,16.69-52.45,7.01-78.95-2.66
		c-6.59,13.88-8.27,28.75-4.63,43.61C327.54,381.95,362.18,373.26,389.95,356.71 M376.06,335.95
		c-36.46-40.11-109.1-48.1-159.45-34.36c34.92-0.98,104.2,0.98,129.02,30.43c-7.99-4.49-24.12-11.92-33.8-11.36
		c-3.37,3.79-6.45,7.99-9.12,12.2C326.98,341.84,351.8,350.96,376.06,335.95 M379.99,333.15c6.45-5.05,12.06-10.66,15.85-17.81
		c-11.36-11.08-33.1-24.82-88.21-28.61c23.42,5.33,45.3,12.62,57.64,21.46c-10.1-3.93-16.41-4.91-16.41-4.91
		c-2.94,0.42-7.15,0.84-10.24,1.54C355.31,311.41,367.65,319.41,379.99,333.15"/>
	<polygon id="XMLID_39_" class="st0" points="345.91,284.35 357.27,280.42 365.82,290.24 364.84,277.48 375.78,272.71 
		363.86,268.78 362.04,256.02 355.73,266.4 343.53,263.31 351.66,273.55 	"/>
	<path id="XMLID_43_" class="st3" d="M303.14,347.03c17.39,8.13,31.13,8.41,48.8,9.26l-28.47,8.41c14.3,0.7,31.13-0.7,45.3-3.65
		c-30.71,15.29-68.01,14.16-68.01,14.16C297.81,365.96,299.21,354.18,303.14,347.03 M306.5,394.29c19.07-0.7,46-5.89,66.61-17.95
		c-11.92,12.06-24.68,18.79-44.17,28.89c21.32-3.65,31.69-11.92,45.72-22.3c-10.8,12.06-16.13,24.96-24.54,38.14
		C350.12,421.08,325.3,424.16,306.5,394.29 M369.47,423.32c11.92-4.21,18.09-8.98,20.61-10.94c1.82-4.07,2.66-12.62,2.66-23.14
		L385.18,402l2.38-12.48C376.76,402.57,372.7,411.82,369.47,423.32"/>
	<polygon id="XMLID_44_" class="st2" points="285.61,293.6 293.46,289.68 300.05,295.57 298.79,286.87 306.36,282.38 297.67,280.98 
		295.85,272.43 291.78,280.14 282.95,279.3 289.12,285.61 	"/>
	<polygon id="XMLID_45_" class="st2" points="197.12,310.99 202.31,308.47 206.52,312.25 205.68,306.5 210.72,303.7 204.97,302.72 
		203.85,297.11 201.19,302.16 195.44,301.6 199.36,305.66 	"/>
	<path id="XMLID_50_" class="st2" d="M360.64,300.33c-0.98-0.56-1.96-0.98-2.94-1.4c15.99,4.77,26.79,10.94,32.82,15.57
		c-0.98,1.4-1.96,2.66-3.09,3.93C379.99,310.71,371.01,304.54,360.64,300.33 M409.86,389.66v-0.98c0.84-4.35,1.4-8.55,1.54-12.9
		c1.12-0.28,2.24-0.56,3.51-0.7C413.5,380.41,411.96,385.18,409.86,389.66 M416.45,361.76c-2.1,0.28-4.07,0.56-5.89,0.98
		c-0.42-3.09-0.98-6.17-1.82-9.12c2.1-1.68,4.07-3.51,6.03-5.47C416.03,352.64,416.45,356.71,416.45,361.76 M409.44,335.53
		c-1.82,1.96-3.51,3.65-5.19,5.19c-1.96-4.21-4.21-8.13-6.87-11.92c1.4-1.68,2.66-3.37,3.93-5.19
		C404.67,327.26,407.47,331.61,409.44,335.53"/>
	<path id="XMLID_53_" class="st1" d="M360.07,110.17c0,1.12-0.56,1.68-1.4,1.54c-0.7-0.14-2.52-0.28-3.79-0.42
		c-0.84-0.14-1.4-0.28-1.4-1.96V85.21c0-1.26,0.7-1.68,1.54-1.54s2.38,0.42,3.37,0.56c0.84,0.14,1.82,0.28,1.82,1.4v24.54H360.07z
		 M362.74,77.22c-2.8-0.56-12.9-2.1-13.46-2.1c-5.33,0.14-6.03,4.49-6.03,5.89v28.89c0,6.17,5.19,7.57,6.87,7.71
		c3.09,0.28,11.36,1.4,14.16,1.68c2.94,0.28,6.17-1.68,6.17-5.75V84.93C370.31,83.53,369.89,78.48,362.74,77.22"/>
	<path id="XMLID_54_" class="st1" d="M296.55,69.37c-5.61-0.42-18.93-0.98-18.93-0.98v43.75l10.52,0.42V76.52c0,0,2.1,0,4.21,0.14
		c2.1,0.14,2.8,0.98,2.8,2.1v34.08l10.38,0.56c0,0,0-33.94,0-36.6C305.24,74.41,303.56,69.93,296.55,69.37"/>
	<path id="XMLID_57_" class="st1" d="M261.49,88.02h-7.01V77.5c0-0.84,0.7-1.96,2.94-1.96h4.07V88.02z M252.09,68.1
		c-5.05,0-8.13,2.38-8.13,7.71c0,2.52,0,35.9,0,35.9l10.38-0.14V94.47h7.01v17.25h10.52V68.1c0,0-8.27-0.14-11.08-0.14h-8.69V68.1z"
		/>
	<path id="XMLID_58_" class="st1" d="M239.05,98.11l-8.27,0.28l-2.1,7.29l-2.8,0.14V68.95l-10.38,0.56v43.33
		c0,0,4.35-0.28,11.78-0.42c7.57-0.28,11.78-0.28,11.78-0.28V98.11z"/>
	<path id="XMLID_61_" class="st1" d="M197.54,89.7c-2.1,0.28-4.63,0.42-4.63,0.42V78.76c1.12-0.14,3.23-0.42,4.35-0.42
		c2.1-0.14,2.38,1.26,2.38,1.82c0,0.42,0,7.15,0,7.29l0,0C199.79,87.46,199.65,89.42,197.54,89.7 M210.16,95.59L210.16,95.59
		c0.14-1.4-0.84-3.51-2.52-3.93c1.12-0.56,2.38-2.24,2.38-4.07V76.52c0-2.8-2.1-6.31-7.01-6.03c-5.47,0.28-20.47,1.96-20.47,1.96
		v42.91l10.38-0.84V96.99c1.26-0.14,4.63-0.56,4.91-0.56c1.54-0.14,1.96,0.84,1.96,1.26v16.41l10.38-0.7l0,0L210.16,95.59
		L210.16,95.59z"/>
	<path id="XMLID_64_" class="st1" d="M165.85,109.61c-0.7,0.14-2.66,0.42-3.93,0.42c-0.98,0.14-1.4-1.12-1.4-1.54
		c0-0.28,0-24.26,0-24.26c0-0.42,0.28-1.26,1.12-1.54c0.98-0.14,2.94-0.42,3.93-0.7c0.84-0.14,1.54,0.7,1.54,1.26
		c0,0.98,0,23.98,0,24.54C167.11,108.63,166.69,109.47,165.85,109.61 M171.04,73.85c-1.26,0-10.66,1.26-13.46,1.68
		c-2.1,0.42-7.43,2.24-7.29,7.99v29.45c0,2.52,1.4,5.75,5.75,5.19c1.26-0.14,10.8-1.4,14.44-1.82c5.33-0.42,7.15-4.63,7.01-7.57
		V79.46C177.35,73.85,171.88,73.85,171.04,73.85"/>
	<path id="XMLID_67_" class="st1" d="M328.1,106.81c-0.14,0.84-0.84,1.12-2.1,0.98l-4.91-0.42V79.04c0,0,2.52,0.28,4.35,0.42
		c1.68,0.14,2.38,0.84,2.52,1.68v25.66H328.1z M330.49,72.17c-2.38-0.42-19.77-1.96-19.77-1.96v43.61c0,0,15.99,1.26,19.63,1.68
		c3.79,0.42,7.85-0.98,7.85-6.03V80.58C338.34,74.27,333.99,72.73,330.49,72.17"/>
</g>
</svg>
