<?xml version="1.0" encoding="utf-8"?>
<!-- Generator: Adobe Illustrator 24.3.0, SVG Export Plug-In . SVG Version: 6.00 Build 0)  -->
<svg version="1.1" id="Layer_1" xmlns="http://www.w3.org/2000/svg" xmlns:xlink="http://www.w3.org/1999/xlink" x="0px" y="0px"
	 viewBox="0 0 512 512" style="enable-background:new 0 0 512 512;" xml:space="preserve">
<style type="text/css">
	.st0{fill:#FFC627;}
	.st1{fill:#8B2332;}
	.st2{fill:#0D2240;}
	.st3{fill:#FFFFFF;}
</style>
<g id="XMLID_1_">
	<path id="XMLID_3_" class="st0" d="M256.14,0C397.4,0.28,511.86,114.74,512,256c0,141.12-114.88,256-255.86,256
		C114.74,512.14,0.14,397.54,0,256.14c0-67.89,26.93-133.12,75.05-181.23C122.88,26.79,188.11-0.14,256.14,0"/>
	<path id="XMLID_4_" class="st1" d="M256.14,491.66c129.75,0,235.38-105.63,235.38-235.66c0-129.75-105.63-235.52-235.38-235.52
		C126.11,20.34,20.48,126.11,20.48,255.86C20.48,385.89,126.11,491.66,256.14,491.66"/>
	<path id="XMLID_5_" class="st2" d="M37.87,255.86c0-120.21,97.91-217.99,218.13-217.99c120.36,0,217.99,97.63,217.99,218.13
		c0,120.36-97.63,217.99-217.99,217.99C135.79,474.13,37.87,376.21,37.87,255.86"/>
	<path id="XMLID_6_" class="st0" d="M427.84,164.54l4.91-2.67l-15.57-24.27l-4.35,3.23c-26.65-33.67-73.92-71.12-119.09-76.87
		c33.95,15.43,72.1,54.99,95.39,85.57l-24.41,17.81l2.95,4.49l-110.54,71.82l-110.82-71.82l2.95-4.49l-24.55-17.81
		c23.43-30.44,61.44-70,95.53-85.57c-44.89,5.61-92.3,43.2-118.81,76.73l-4.63-3.37l-15.57,24.13l4.91,2.81l-0.14,0.28
		c-19.5,38.29-33.81,97.35-19.78,140.55c-0.42-37.31,19.78-88.65,37.73-122.88l26.37,14.87l2.67-4.21l102.68,64.53L100.3,345.49
		l-0.28-0.28l-18.24,4.91l0.28,0.56c-0.84,3.37,0.7,9.54,4.63,15.57c3.79,6.17,8.7,10.1,12.48,10.94l0.28,0.56l12.06-14.59
		l-0.14-0.28l269.47-169.73l2.67,4.21l26.51-14.87c18.1,34.23,38.15,85.57,37.87,122.88C461.64,262.03,447.19,202.84,427.84,164.54"
		/>
	<path id="XMLID_7_" class="st0" d="M413.81,345.21l-0.28,0.28l-124.56-80.94l-21.74,12.91l135.36,85.15l-0.14,0.28l12.06,14.59
		l0.42-0.56c3.65-0.7,8.42-4.77,12.48-10.94c3.65-6.03,5.47-12.2,4.63-15.57l0.28-0.56L413.81,345.21z"/>
	<polygon id="XMLID_8_" class="st0" points="278.16,85.71 268.76,98.05 255.86,67.05 255.86,209.99 299.34,154.3 343.11,165.66 	"/>
	<polygon id="XMLID_9_" class="st3" points="278.16,119.23 278.16,85.71 268.76,98.05 	"/>
	<polygon id="XMLID_10_" class="st3" points="255.86,67.05 176.89,163.42 211.67,154.44 255.86,209.99 	"/>
	<path id="XMLID_11_" class="st0" d="M209.57,427.56c11.08-10.66,25.53-17.39,40.82-18.8v-21.32h-59.06
		C192.46,402.45,198.91,416.61,209.57,427.56"/>
	<path id="XMLID_12_" class="st0" d="M250.25,447.33v-25.39c-11.5,1.4-22.16,6.31-30.72,14.03
		C228.65,442.28,239.17,446.21,250.25,447.33"/>
	<path id="XMLID_13_" class="st3" d="M263.43,316.18v25.25c11.5-1.26,22.16-6.31,30.58-14.03
		C284.9,321.09,274.38,317.3,263.43,316.18"/>
	<path id="XMLID_14_" class="st3" d="M304.11,335.96c-11.08,10.66-25.39,17.25-40.68,18.66v19.5h58.92
		C320.53,359.8,314.21,346.48,304.11,335.96"/>
	<path id="XMLID_15_" class="st3" d="M250.25,341.43v-25.25c-10.94,1.12-21.46,4.91-30.58,11.22
		C228.09,335.11,238.89,340.02,250.25,341.43"/>
	<path id="XMLID_16_" class="st0" d="M263.43,387.3v21.32c15.29,1.4,29.74,8,40.68,18.8c10.66-10.8,17.11-25.11,18.24-40.26h-58.92
		V387.3z"/>
	<path id="XMLID_17_" class="st3" d="M191.33,374.11h58.92v-19.5c-15.29-1.54-29.74-8.14-40.82-18.66
		C199.47,346.48,193.02,359.8,191.33,374.11"/>
	<path id="XMLID_18_" class="st0" d="M263.43,447.33c10.94-1.12,21.46-4.91,30.58-11.22c-8.42-7.86-19.22-12.76-30.58-14.03V447.33z
		"/>
</g>
</svg>
