<?xml version="1.0" encoding="utf-8"?>
<!-- Generator: Adobe Illustrator 26.5.0, SVG Export Plug-In . SVG Version: 6.00 Build 0)  -->
<svg version="1.1" id="Layer_1" xmlns="http://www.w3.org/2000/svg" xmlns:xlink="http://www.w3.org/1999/xlink" x="0px" y="0px"
	 viewBox="0 0 512 512" style="enable-background:new 0 0 512 512;" xml:space="preserve">
<style type="text/css">
	.st0{fill:#AD854A;}
	.st1{fill:#162047;}
	.st2{fill:#D61F33;}
	.st3{fill:#FFFFFF;}
</style>
<g id="XMLID_1_">
	<path id="XMLID_2_" class="st0" d="M268.24,78.97c1.12-5.05,6.45-12.06,14.17-12.06c7.72,0,13.05,5.61,13.05,11.36
		c0,5.75-3.93,10.24-9.68,10.24s-7.29-3.79-7.29-5.05c0-1.12,0.7-2.95,2.81-2.95c2.1,0,2.38,1.68,4.77,1.68
		c2.38,0,3.23-2.38,3.23-4.07c0-1.68-1.68-5.05-6.59-5.05c-4.77,0-8.84,5.33-8.84,9.96c0,4.49,1.96,10.8,12.48,10.8
		c10.52,0,10.52-7.43,28.9-7.43c18.38,0,29.88,15.01,29.88,15.01c49.24,7.29,110.12,27.63,134.38,38.86
		c24.27,11.22,31.28,30.16,31.28,40.96c0,10.8,0,31,0,31h-1.68c0,0,2.81,3.65,2.81,11.22s0,20.34,0,20.34
		c0,12.76-8.7,29.74-25.81,36.89c-11.5,16.97-23.71,18.66-23.71,18.66l3.09,0.56c-13.61,18.52-29.6,19.78-29.6,19.78l3.09,1.26
		c-16.83,15.01-31.98,15.71-31.98,15.71c-19.64,59.48-75.19,109.41-150.93,109.41c-81.08,0-135.36-57.79-151.08-109.13
		c-19.22-2.81-32.12-15.85-32.12-15.85l2.1-1.54c-17.39-3.23-28.9-19.78-28.9-19.78l2.95-0.7c-17.53-5.75-22.72-18.38-22.72-18.38
		c-13.61-3.51-23.29-19.78-23.29-22.86c0-3.09,0-36.05,0-36.05s-3.09-3.79-3.09-10.38c0-6.59,3.23-11.78,3.23-11.78v-16.55
		c0,0-3.09-2.38-3.09-8.28c0-5.89,0-18.52,0-18.52c46.29-23.71,100.72-44.05,165.94-54.71c0,0,12.34-15.01,30.02-15.01
		c16.41,0,19.78,7.57,28.76,7.57c5.47,0,12.91-1.68,12.91-10.24c0-6.59-4.49-10.8-8.56-10.8c-4.07,0-6.87,3.65-6.87,5.19
		c0,1.68,1.68,4.07,3.51,4.07c1.82,0,2.52-1.68,4.07-1.68c1.54,0,3.09,1.4,3.09,3.09s-2.1,4.77-7.57,4.77
		c-5.47,0-9.26-4.63-9.26-10.24c0-5.61,5.47-11.5,12.48-11.5c11.5,0,14.73,12.2,14.73,12.2l12.48-13.05L268.24,78.97z M300.93,95.95
		c0,0,23.29,1.12,33.67,3.51C324.63,91.74,312.43,90.2,300.93,95.95z M177.07,99.59c0,0,18.38-2.52,33.95-3.65
		C197.97,90.48,186.32,92.3,177.07,99.59z"/>
	<path id="XMLID_60_" class="st1" d="M255.9,75.19c-7.57,7.01-11.08,12.48-11.36,18.52c0,0-6.87,1.26-8.28,7.57
		c-69.44,1.96-138.17,18.24-201.99,45.87v3.79c0,0-4.49-1.82-6.87-0.84c-2.38,0.98-20.76,9.96-20.76,9.96s0,6.87,0,12.34
		c0,6.45,3.09,7.72,3.09,7.72v22.02c0,0-3.09,4.35-3.09,9.4c0,5.47,3.09,7.15,3.09,7.15v37.87c4.35,9.68,13.89,20.76,33.81,20.48
		c0,0-3.37,2.52-9.26,4.91c0,0,8.14,14.17,31.42,13.61l-10.38,5.47c0,0,10.94,14.87,34.79,14.59l-8.7,4.77
		c0,0,12.76,11.5,29.32,11.22c6.87,30.86,49.66,107.87,145.74,107.87c68.03,0,125.4-44.05,145.04-107.31c0,0,17.67-1.4,28.9-11.78
		l-8.7-4.63c0,0,21.46,1.4,34.65-14.87l-10.94-5.33c0,0,21.32,1.96,31.98-13.47l-9.12-4.77c25.11,0.42,37.31-20.9,37.31-33.53
		c0-12.62,0-9.12,0-19.78c0-11.78-9.68-25.11-9.68-25.11l8.56,3.79c0,0,0-9.68,0-22.02s-10.8-26.37-24.97-32.96
		c-14.17-6.59-96.79-43.63-203.54-46.57c0,0-0.84-5.19-8.28-7.43C266.98,84.87,260.95,80.24,255.9,75.19z"/>
	<path id="XMLID_59_" class="st2" d="M255.9,121.48c2.1-0.7,1.68-3.23,1.68-3.23s2.67-0.28,2.67-1.26c0-1.96-2.1-1.54-2.81-3.93
		h5.75v-2.95h-2.38c-0.28-1.68,0.42-3.79,2.52-3.79s3.09,1.4,2.1,3.51c3.65-0.42,4.35-2.67,4.35-4.77c0-1.96-1.26-5.05-5.05-5.05
		c-3.79,0-6.03,4.35-6.31,10.24h-0.98c-0.42-8.84,3.51-10.66,3.51-15.29c0-4.63-4.91-9.96-4.91-9.96h-0.14c0,0-4.91,5.33-4.91,9.96
		c0,4.63,4.07,6.45,3.51,15.29h-0.98c-0.14-5.89-2.38-10.24-6.31-10.24c-3.79,0-5.05,3.09-5.05,5.05c0,1.96,0.7,4.21,4.35,4.77
		c-0.98-2.1,0-3.51,2.1-3.51s2.81,2.1,2.52,3.79h-2.38v2.95h5.75c-0.7,2.38-2.81,1.96-2.81,3.93c0,0.98,2.67,1.26,2.67,1.26
		S253.94,120.92,255.9,121.48L255.9,121.48z"/>
	<path id="XMLID_58_" class="st2" d="M207.22,348.86c0,0-13.89,6.31-30.86,6.31s-30.02-3.79-30.02-3.79l8.84-6.31
		c0,0-18.24,1.4-30.58-2.95c12.48,32.54,54.99,87.67,130.6,87.67c42.08,0,101.7-18.38,132.14-87.67c0,0-6.45,4.35-30.02,2.95
		l8.84,6.73c0,0-9.68,2.81-30.02,2.81c-20.48,0-23.85-3.37-30.16-5.75c-7.86,25.95-31,37.45-49.94,37.45
		C232.33,386.31,211.01,368.92,207.22,348.86z"/>
	<path id="XMLID_57_" class="st3" d="M242.15,116.99v-1.4c0,0-3.65-2.1-5.89-6.03c-87.39,2.24-164.68,30.86-170.71,33.53
		c-6.03,2.67-4.91,9.96-4.91,9.96C104.4,136.21,168.65,118.81,242.15,116.99z"/>
	<path id="XMLID_56_" class="st3" d="M269.93,116.99v-1.4c0,0,3.65-2.1,5.89-6.03c87.39,2.24,169.87,32.96,175.9,35.77
		c6.03,2.67,4.91,9.96,4.91,9.96C412.87,138.45,348.34,119.37,269.93,116.99z"/>
	<path id="XMLID_55_" class="st3" d="M255.9,243.52c1.26,0,0.98,9.12,1.82,13.19c0.7,4.07,2.67,3.65,3.93,1.26
		c5.33-9.96,9.82-12.91,14.03-11.64c-1.12,1.4-1.12,2.81-1.4,6.87c-0.28,3.93-4.35,6.31-7.29,6.31c-2.81,0-4.63,4.07-2.24,7.57
		c3.93-5.05,8-8,11.92-7.57c0,0,2.24-4.21,2.24-10.94c0-13.47-7.15-19.64-7.15-19.64l-0.84,1.26c-4.35-1.96-8.28-5.47-14.87-5.47
		h-0.14c-6.59,0-10.52,3.51-14.87,5.47l-0.84-1.26c0,0-7.15,6.17-7.15,19.64c0,6.73,2.24,10.94,2.24,10.94
		c3.93-0.42,8,2.52,11.92,7.57c2.52-3.51,0.7-7.57-2.24-7.57c-2.81,0-7.01-2.38-7.29-6.31c-0.28-3.93-0.28-5.33-1.4-6.87
		c4.21-1.26,8.7,1.68,14.03,11.64c1.26,2.38,3.23,2.67,3.93-1.26C254.92,252.63,254.64,243.52,255.9,243.52z"/>
	<path id="XMLID_54_" class="st2" d="M242.15,251.93l-1.54,0.56c0,0,0.14,3.51,1.96,3.93c1.96,0.42,2.67,0.14,2.67,0.14v-0.98
		C245.24,255.58,241.59,256.42,242.15,251.93z"/>
	<path id="XMLID_53_" class="st2" d="M269.79,251.93l1.54,0.56c0,0-0.14,3.51-1.96,3.93c-1.96,0.42-2.67,0.14-2.67,0.14v-0.98
		C266.7,255.58,270.21,256.42,269.79,251.93z"/>
	<path id="XMLID_52_" class="st2" d="M240.75,271.99c-1.26,0.7-1.12,3.09,0.84,11.22c1.96,8.14,7.43,36.33,7.43,36.33
		s-2.52-36.05-2.81-40.26C245.94,275.08,243.56,271.99,240.75,271.99z"/>
	<path id="XMLID_51_" class="st2" d="M271.19,271.99c1.26,0.7,1.12,3.09-0.84,11.22c-1.96,8.14-7.43,36.33-7.43,36.33
		s2.52-36.05,2.81-40.26C266,275.08,268.38,271.99,271.19,271.99z"/>
	<path id="XMLID_50_" class="st2" d="M256.18,369.76c2.81-6.03,4.49-8.28,4.49-8.28s-2.38-4.35-2.38-22.3
		c0-17.81,1.96-37.59,3.37-52.88c1.26-15.29,0.7-15.99,0.7-15.99h-0.42c-0.28,1.68-1.96,5.19-1.96,5.19s0-5.47,0-8
		c0-2.52-2.24-4.35-3.51-4.35h-0.7c-1.26,0-3.51,1.96-3.51,4.35c0,2.52,0,8,0,8s-1.68-3.51-1.96-5.19h-0.42c0,0-0.56,0.7,0.7,15.99
		c1.26,15.29,3.37,35.07,3.37,52.88s-2.38,22.3-2.38,22.3S253.38,363.87,256.18,369.76L256.18,369.76z"/>
	<path id="XMLID_49_" class="st3" d="M214.52,211.11c-28.48,0-115.16,16.41-181.23,49.52c0,0,1.26,2.38,9.26,2.38
		c5.33,0,7.86-1.82,19.78-6.59c12.06-4.77,77.15-29.88,141.96-34.93c0,0-6.31,12.76-6.31,28.62c0,28.76,22.02,42.64,26.09,45.73
		l2.24-2.38c-14.31-13.19-20.2-25.81-20.2-39.28c0-17.53,11.08-33.53,13.75-37.03C222.94,213.64,222.37,211.11,214.52,211.11z"/>
	<path id="XMLID_48_" class="st3" d="M297.28,211.11c28.48,0,115.16,16.41,181.23,49.52c0,0-1.26,2.38-9.26,2.38
		c-5.33,0-7.86-1.82-19.78-6.59c-12.06-4.77-77.15-29.88-141.96-34.93c0,0,6.31,12.76,6.31,28.62c0,28.76-22.02,42.64-26.09,45.73
		l-2.24-2.38c14.31-13.19,20.2-25.81,20.2-39.28c0-17.53-11.08-33.53-13.75-37.03C288.86,213.64,289.43,211.11,297.28,211.11z"/>
	<path id="XMLID_47_" class="st0" d="M185.76,238.47c-35.63,5.19-66.35,12.62-98.19,23.71c0,0,3.37,9.82,20.2,9.82
		c13.33,0,17.81-5.19,77.29-18.24C185.2,253.9,185.06,245.9,185.76,238.47z"/>
	<path id="XMLID_46_" class="st0" d="M190.53,276.2c0,0-2.38-6.45-4.21-13.89c-27.77,5.33-61.86,15.57-78.41,22.16
		c0,0,7.01,8.14,22.16,8.14C141.44,292.61,147.05,288.12,190.53,276.2z"/>
	<path id="XMLID_45_" class="st0" d="M201.33,291.91c0,0-5.19-5.19-7.43-9.68c-22.16,7.29-50.08,16.83-60.74,20.9
		c0,0,4.63,6.31,16.41,6.31C157.71,309.44,167.11,306.08,201.33,291.91z"/>
	<path id="XMLID_44_" class="st0" d="M215.78,302.99c0,0-4.91-2.67-9.12-6.31c-16.97,7.57-37.45,16.55-44.61,20.62
		c0,0,3.79,2.81,15.71,2.81C188.15,320.11,200.63,314.35,215.78,302.99z"/>
	<path id="XMLID_43_" class="st0" d="M208.49,315.2c0,0-13.19,8.42-18.66,12.76c0,0,4.91,1.68,15.29,0.56
		C205.12,328.52,206.52,320.95,208.49,315.2z"/>
	<path id="XMLID_42_" class="st0" d="M326.18,238.47c35.63,5.19,66.35,12.62,98.19,23.71c0,0-3.37,9.82-20.2,9.82
		c-13.33,0-17.81-5.19-77.29-18.24C326.74,253.9,326.88,245.9,326.18,238.47z"/>
	<path id="XMLID_41_" class="st0" d="M321.41,276.2c0,0,2.38-6.45,4.21-13.89c27.77,5.33,61.86,15.57,78.41,22.16
		c0,0-7.01,8.14-22.16,8.14C370.5,292.61,364.89,288.12,321.41,276.2z"/>
	<path id="XMLID_40_" class="st0" d="M310.47,291.91c0,0,5.19-5.19,7.43-9.68c22.16,7.29,50.08,16.83,60.74,20.9
		c0,0-4.63,6.31-16.41,6.31C354.23,309.44,344.83,306.08,310.47,291.91z"/>
	<path id="XMLID_39_" class="st0" d="M296.02,302.99c0,0,4.91-2.67,9.12-6.31c16.97,7.57,37.45,16.55,44.61,20.62
		c0,0-3.79,2.81-15.71,2.81C323.79,320.11,311.31,314.35,296.02,302.99z"/>
	<path id="XMLID_38_" class="st0" d="M303.45,315.2c0,0,13.19,8.42,18.66,12.76c0,0-4.91,1.68-15.29,0.56
		C306.82,328.52,305.28,320.95,303.45,315.2z"/>
	<path id="XMLID_37_" class="st0" d="M240.05,294.86c-10.24,2.52-14.03,15.57-9.26,28.2c4.77,12.62,11.08,22.02,11.78,35.21
		c0,0,0.7,0.56,5.33,1.26c0,0,1.96-7.01,1.96-14.31C249.87,337.92,243.84,314.63,240.05,294.86z"/>
	<path id="XMLID_36_" class="st3" d="M243.14,310.15c-1.12-5.05-2.24-10.24-3.09-15.15c-9.12,2.24-13.19,12.91-10.52,24.13
		C229.53,318.98,234.02,312.95,243.14,310.15z"/>
	<path id="XMLID_35_" class="st0" d="M222.51,307.2c-8.28,11.08-9.4,16.97-9.4,20.34s5.75,19.5,22.72,28.2
		C232.19,333.99,221.67,330.77,222.51,307.2z"/>
	<path id="XMLID_34_" class="st3" d="M224.62,324.73c-1.4-4.63-2.24-10.1-1.96-17.53c-8.28,11.08-9.4,16.97-9.4,20.34
		c0,1.82,1.54,7.01,5.61,12.91C218.73,340.44,219.85,330.63,224.62,324.73z"/>
	<path id="XMLID_33_" class="st0" d="M212.84,343.11c2.52,10.1,6.45,19.5,18.24,27.77c0,0,4.21-2.52,5.19-8.28
		C227,359.52,220.27,352.65,212.84,343.11z"/>
	<path id="XMLID_32_" class="st3" d="M218.87,350.26c-1.96-2.1-3.93-4.49-5.89-7.15c1.82,7.29,4.49,14.31,10.24,20.76
		C223.22,364.01,219.85,357.42,218.87,350.26z"/>
	<path id="XMLID_31_" class="st0" d="M249.73,366.4c0,0-3.79-0.56-7.29-1.26c-0.7,2.52-0.98,4.63-5.75,9.12
		c0,0,6.17,3.79,15.99,4.21C253.09,371.87,252.39,371.31,249.73,366.4z"/>
	<path id="XMLID_30_" class="st0" d="M272.17,294.86c10.24,2.52,14.03,15.57,9.26,28.2c-4.77,12.62-11.08,22.02-11.78,35.21
		c0,0-0.7,0.56-5.33,1.26c0,0-1.96-7.01-1.96-14.31C262.35,337.92,268.38,314.63,272.17,294.86z"/>
	<path id="XMLID_29_" class="st3" d="M268.95,310.15c1.12-5.05,2.24-10.24,3.09-15.15c9.12,2.24,13.19,12.91,10.52,24.13
		C282.55,318.98,278.06,312.95,268.95,310.15z"/>
	<path id="XMLID_28_" class="st0" d="M289.57,307.2c8.28,11.08,9.4,16.97,9.4,20.34s-5.75,19.5-22.72,28.2
		C280.03,333.99,290.41,330.77,289.57,307.2z"/>
	<path id="XMLID_27_" class="st3" d="M287.6,324.73c1.4-4.63,2.24-10.1,1.96-17.53c8.28,11.08,9.4,16.97,9.4,20.34
		c0,1.82-1.54,7.01-5.61,12.91C293.35,340.44,292.37,330.63,287.6,324.73z"/>
	<path id="XMLID_26_" class="st0" d="M299.24,343.11c-2.52,10.1-6.45,19.5-18.24,27.77c0,0-4.21-2.52-5.19-8.28
		C285.22,359.52,291.95,352.65,299.24,343.11z"/>
	<path id="XMLID_25_" class="st3" d="M293.35,350.26c1.96-2.1,3.93-4.49,5.89-7.15c-1.82,7.29-4.49,14.31-10.24,20.76
		C289,364.01,292.23,357.42,293.35,350.26z"/>
	<path id="XMLID_24_" class="st0" d="M262.49,366.4c0,0,3.79-0.56,7.29-1.26c0.7,2.52,0.98,4.63,5.75,9.12c0,0-6.17,3.79-15.99,4.21
		C259.13,371.87,259.83,371.31,262.49,366.4z"/>
	<path id="XMLID_23_" class="st3" d="M42.96,152.48v54.29L28.1,159.07l-12.76,6.03c0,0,0,3.37,0,4.91c0,2.81,3.09,2.52,3.09,2.52
		v30.3c0,0-3.23,1.96-3.23,5.19c0,3.65,3.23,2.95,3.23,2.95v43.06l8.7-4.35v-54.57l14.59,47.41c0,0,0.28,0.98,6.03-1.68
		c3.93-1.68,4.07-2.95,4.07-5.05s0-39.84,0-39.84s2.95-1.82,2.95-4.77c0-2.95-2.95-2.81-2.95-2.81v-30.72c0,0,3.23-3.23,3.23-5.47
		c0-2.24,0-4.77,0-4.77L42.96,152.48z"/>
	<path id="XMLID_22_" class="st3" d="M58.82,161.03v6.03c0,0,0.84,1.12,2.95,1.54v23.57c0,0-2.95,1.96-2.95,5.19
		c0,3.37,3.09,2.95,3.09,2.95v34.79c0,0,25.11-8.98,28.34-9.96c3.23-1.12,2.81-3.37,2.81-4.77c0-1.54,0-20.2,0-20.2
		s-9.12,1.82-9.68,5.47v13.05l-11.5,4.21v-25.67l14.87-5.61v-8.56l-14.87,5.19v-23.29l11.5-4.35c0,0,0,10.38,0,12.62
		c0,2.24,2.81,2.24,9.68-0.56c0,0,0-20.2,0-21.74c0-1.54-1.68-1.96-5.33-0.7C83.92,151.78,58.82,161.03,58.82,161.03z"/>
	<path id="XMLID_21_" class="st3" d="M110.58,143.78l-12.48,3.65c0,0,0,2.38,0,4.91c0,2.38,3.37,1.4,3.93,5.61
		c0.56,4.21,2.38,20.76,2.38,20.76s-2.67,1.4-2.67,4.35c0,3.37,3.79,3.09,3.79,3.09s3.93,31.42,3.93,32.12
		c0.14,0.7,0.7,1.12,7.57-0.7c6.87-1.82,8.14-0.98,8.98-5.89c0.98-5.47,8.56-49.38,8.56-49.38s8,45.17,8.28,46.99
		c0.28,1.82,1.82,1.68,8.7,0.42c6.87-1.26,7.86-1.4,8.14-4.63c0.42-3.23,3.65-32.12,3.65-32.12s3.65-1.26,3.65-4.49
		c0-3.23-2.52-3.37-2.52-3.37l2.52-23.99c0,0,3.79-3.51,3.79-4.91s0-5.19,0-5.19l-12.91,2.81l-7.29,66.35c0,0-9.82-55.13-10.66-59.2
		c-0.7-4.63-10.52-2.81-11.22,1.4c-0.7,4.21-10.52,65.09-10.52,65.09L110.58,143.78z"/>
	<path id="XMLID_3_" class="st3" d="M238.23,137.33c0,6.87,0,19.92,0,19.92s3.79,0.14,3.79,3.93c0,3.65-3.93,4.07-3.93,4.07
		s0,11.36,0,21.18c0,9.82-9.26,15.57-19.92,15.57s-16.69-5.47-16.69-12.62s0-21.74,0-21.74s-3.51-0.28-3.51-3.79
		s3.51-4.07,3.51-4.07s0-12.2,0-19.92c0-7.72,7.86-15.15,20.2-15.15C232.05,124.7,238.23,130.45,238.23,137.33z M220.41,133.4
		c-5.75,0-8.42,3.51-8.42,7.57c0,4.07,0,42.64,0,45.73c0,3.09,2.24,6.59,7.29,6.59c5.19,0,8.56-3.93,8.56-7.29
		c0-3.51,0-40.96,0-46.15C227.85,134.52,223.22,133.4,220.41,133.4z"/>
	<path id="XMLID_4_" class="st3" d="M243.98,128.49c0-1.12,0-3.93,0-3.93s15.99,0,23,0s15.29,5.47,15.29,14.59s0,7.29,0,12.48
		c0,5.19-5.75,9.12-5.75,9.12s5.75,3.51,5.75,10.94s0,20.06,0,20.06s3.65,1.54,3.65,3.79c0,2.1,0,5.19,0,5.19s-3.09-0.42-7.72-0.42
		s-6.45-1.4-6.45-5.33s0-19.5,0-23.99c0-4.49-4.21-5.61-8.98-5.61c-4.77,0-5.19,0.84-5.19,1.54c0,0.84,0,33.39,0,33.39h-10.24V165.1
		c0,0-3.23-0.56-3.23-3.93c0-2.95,3.23-3.93,3.23-3.93v-23.71C247.48,133.54,243.98,131.3,243.98,128.49z M266.42,133.12
		c0,0-5.89,0-7.01,0c-1.12,0-1.68,0.84-1.68,2.24s0,18.8,0,19.92c0,1.12,1.12,1.68,2.38,1.68c1.4,0,3.65,0,6.31,0
		c2.81,0,5.33-2.52,5.33-6.59c0-3.93,0-9.68,0-11.78C271.89,136.63,269.51,133.12,266.42,133.12z"/>
	<path id="XMLID_16_" class="st3" d="M288.72,125.4c0,0,0,1.96,0,4.07c0,2.52,3.51,4.77,3.51,4.77v23.99c0,0-3.51,0.42-3.51,3.79
		c0,3.37,3.51,4.07,3.51,4.07v34.93c0,0,18.94,0.98,27.49,2.38c4.77,0.84,4.63-0.98,4.63-3.23c0-2.1,0-25.53,0-26.37
		c0-0.7-10.1-2.52-10.1,1.26c0,3.79,0,19.08,0,19.08s-8.28,0.14-11.5-1.68V134.8c0,0,3.37-2.1,3.37-4.49c0-2.38,0-4.07,0-4.07
		L288.72,125.4z"/>
	<path id="XMLID_15_" class="st3" d="M328.28,129.05c0,0,0,1.12,0,3.93c0,3.93,3.65,5.61,3.65,5.61v23.71c0,0-3.51,0.42-3.51,3.51
		c0,3.51,3.51,4.35,3.51,4.35v34.93c0,0,24.69,3.79,28.2,4.77c3.65,0.98,3.79-1.12,3.79-3.79c0-2.52,0-18.94,0-19.5
		s-10.24-2.95-10.24,0.42c0,3.37,0,13.05,0,13.05l-11.5-1.96v-25.95c0,0,7.29,0.7,15.15,2.81v-8.42c0,0-0.7-1.26-15.29-3.09
		c0,0,0-20.48,0-21.88c0-1.26,0.98-1.68,3.93-1.26c2.95,0.56,7.72,1.54,7.72,1.54s0,8,0,11.5c0,3.51,3.09,5.05,10.24,5.75
		c0,0,0-20.9,0-22.16c0-1.26,0-1.82-6.31-2.95C351.29,132.7,328.28,129.05,328.28,129.05z"/>
	<path id="XMLID_5_" class="st3" d="M390.42,141.12c3.79,0.98,7.72,1.26,8.56,7.72c0.84,6.45,4.63,28.05,4.63,28.05
		c1.68,1.12,3.65,2.52,3.65,5.05s-2.38,3.23-2.38,3.23l6.31,37.17l-10.52-3.23l-2.52-19.5c-4.35-2.38-14.73-4.21-14.73-4.21
		l-3.23,18.66l-10.1-2.38l6.73-33.39c0,0-2.67-2.1-2.67-4.91s4.07-2.81,4.07-2.81l4.35-23c-2.95-2.67-3.09-3.65-3.09-5.33
		c0-1.68,0-3.93,0-3.93S386.64,140.13,390.42,141.12z M390.84,152.2l-6.03,34.23c0,0-0.14,1.12,11.92,3.51L390.84,152.2z"/>
	<path id="XMLID_12_" class="st3" d="M415.95,147.99c0,0,0,1.54,0,4.77c0,3.93,3.23,5.33,3.23,5.33v23.85c0,0-3.37,0.14-3.37,2.95
		c0,3.37,3.37,4.77,3.37,4.77V225l8.98,2.67v-48.25c0,0,15.01,52.32,15.15,53.02c0.14,0.7,9.82,5.47,9.82,2.1
		c0-3.37,0-32.96,0-32.96s2.81,0.14,2.81-2.67c0-3.23-2.81-4.77-2.81-4.77v-24.13c0,0,3.09-1.68,3.09-3.09s0-4.35,0-4.35
		l-12.06-4.63v49.94c0,0-13.47-49.1-14.31-52.32c-0.84-3.23-3.93-3.65-7.57-4.91C418.9,149.25,415.95,147.99,415.95,147.99z"/>
	<path id="XMLID_11_" class="st3" d="M495.77,187.41c0,0,0-3.93,0-9.4c0-11.78-14.45-23.57-25.25-23.57c-4.77,0-8.28,3.09-8.28,9.4
		c0,6.17,0,9.26,0,15.43c0,6.03,2.81,10.66,11.92,19.92c-0.7,4.91,1.26,7.86,6.87,7.72c0,0,5.47,5.89,5.47,10.52s0,17.81,0,20.2
		s-3.93,4.35-8.7,1.54c-4.77-2.81-6.45-6.31-6.45-8.84c0-2.52,0-3.65,0-5.61c0-1.96-5.19-5.75-10.1-6.87c0,0,0,3.37,0,8.14
		c0,14.59,17.11,24.55,27.07,24.55c7.15,0,8.14-5.19,8.14-9.12s0-12.91,0-19.92c0-7.15-7.57-16.41-11.22-20.06
		c0.56-3.79-1.54-7.29-6.17-7.29c0,0-7.15-7.43-7.15-10.8c0-3.37,0-12.48,0-15.15c0-2.81,2.1-4.35,6.59-2.52
		c4.49,1.82,6.73,5.89,6.73,5.89s0,2.81,0,5.75C485.39,180.25,488.47,185.02,495.77,187.41z"/>
	<path id="XMLID_6_" class="st3" d="M181.41,371.31c4.91,4.91-2.67,11.36-6.31,8c-3.65-3.37-5.75-5.61-5.75-5.61l-4.35,4.49
		l-3.09-2.95l11.22-11.5C173.14,363.59,176.5,366.4,181.41,371.31z M178.47,372.57l-4.49-4.07l-2.81,2.95c0,0,3.09,2.95,4.49,4.35
		C177.21,377.06,180.43,374.53,178.47,372.57z"/>
	<polygon id="XMLID_8_" class="st3" points="205.4,387.86 192.64,380.14 183.94,394.03 197.27,402.17 198.95,399.5 189.13,393.33 
		190.95,390.38 200.07,395.99 201.61,393.19 192.64,387.72 194.32,384.91 203.86,390.52 	"/>
	<polygon id="XMLID_7_" class="st3" points="219.29,393.61 214.94,392.07 209.33,407.22 222.23,412.12 223.36,408.76 214.66,405.67 
			"/>
	<polygon id="XMLID_64_" class="st3" points="241.45,398.24 236.96,398.1 234.3,414.23 238.79,414.79 	"/>
	<path id="XMLID_65_" class="st3" d="M266.84,404.83l4.49-1.4c0,0-1.96-4.63-9.26-4.63c-6.73,0-10.24,3.51-10.24,8.98
		c0,5.47,3.93,8.56,9.68,8.56s8.7-2.1,10.1-6.73h-4.77c0,0-0.98,3.23-5.19,3.23c-4.07,0-5.75-3.65-5.75-5.61
		c0-1.96,1.96-5.33,5.75-5.33C265.58,402.03,266.84,404.83,266.84,404.83z"/>
	<path id="XMLID_66_" class="st3" d="M301.91,407.5l-3.93,2.1l-2.81-3.09l-7.57,2.24l-0.14,3.65l-4.49,1.12l2.38-17.67l4.49-1.54
		L301.91,407.5z M288.86,399.22l-0.7,6.59l5.19-1.54l-4.35-5.05"/>
	<polygon id="XMLID_69_" class="st3" points="309.06,386.31 305.56,388.56 314.11,402.87 317.48,400.34 311.31,390.94 
		326.04,395.57 329.4,393.33 320.71,379.16 317.34,381.55 323.51,390.8 	"/>
	<path id="XMLID_70_" class="st3" d="M341.19,367.38l2.1-3.23c0,0-3.23-1.54-6.45,0.56c-3.23,1.96-4.21,3.79-5.19,5.47
		c-2.38,3.65,2.1,9.4,6.59,6.31c4.49-3.09,6.17-5.05,7.57-3.65c1.26,1.4-1.54,6.87-7.43,6.17l-1.54,3.65c0,0,5.05,1.96,9.96-3.51
		c4.91-5.47,4.21-10.38-1.26-10.94c-4.49,0-8.56,7.01-10.52,4.77S338.52,366.4,341.19,367.38z"/>
</g>
</svg>
