<?xml version="1.0" encoding="utf-8"?>
<!-- Generator: Adobe Illustrator 24.3.0, SVG Export Plug-In . SVG Version: 6.00 Build 0)  -->
<svg version="1.1" id="Layer_1" xmlns="http://www.w3.org/2000/svg" xmlns:xlink="http://www.w3.org/1999/xlink" x="0px" y="0px"
	 viewBox="0 0 512 512" style="enable-background:new 0 0 512 512;" xml:space="preserve">
<style type="text/css">
	.st0{fill:#B3B2B1;}
	.st1{fill:#003DA6;}
	.st2{fill:#DD0031;}
	.st3{fill:#FFFFFF;}
</style>
<g id="XMLID_1_">
	<path id="XMLID_4_" class="st0" d="M512,256c0,141.4-114.74,256-256,256C114.6,512,0,397.26,0,256C0,114.6,114.6,0.14,256,0
		C397.4,0,512,114.6,512,256z"/>
	<path id="XMLID_5_" class="st1" d="M504.71,256c0,137.33-111.38,248.71-248.85,248.71C118.53,504.71,7.29,393.33,7.29,256
		S118.67,7.43,256,7.29C393.33,7.29,504.71,118.67,504.71,256L504.71,256z"/>
	<path id="XMLID_6_" class="st2" d="M467.95,256c0,117.13-94.97,212.09-212.09,212.09S43.77,373.13,43.77,256
		S138.59,43.91,255.86,43.91C372.99,43.91,467.95,138.87,467.95,256z"/>
	<path id="XMLID_11_" class="st3" d="M256,456.03c-82.48,0-156.41-50.64-186.28-127.51c35.49,48.53,105.63,81.92,186.28,81.92
		c80.8,0,150.65-33.1,186.42-81.92C412.27,405.25,338.34,455.89,256,456.03z M256,56.25c82.48,0,156.41,50.64,186.42,127.51
		C406.79,135.22,336.8,101.84,256,101.84c-80.66,0-150.65,32.96-186.28,81.92C99.59,106.89,173.52,56.25,256,56.25L256,56.25z
		 M56.11,262.17h39v-12.48h-39c0.14-4.63,0.42-9.4,0.84-14.03C70.98,165.8,154.58,112.22,256,112.22
		c101.14,0,185.16,53.87,199.05,123.44c0.56,4.63,0.7,9.4,0.84,14.03h-39.14v12.48h39c-0.14,4.77-0.28,9.4-0.84,14.17
		c-13.89,69.58-97.77,123.3-199.05,123.3S70.7,345.92,56.81,276.34C56.53,271.57,56.25,266.94,56.11,262.17L56.11,262.17z
		 M256,43.91C138.87,43.91,43.91,138.87,43.91,256S138.73,468.23,256,468.23S468.09,373.27,468.09,256
		C467.95,139.01,372.99,44.05,256,43.91L256,43.91z"/>
	<rect id="XMLID_12_" x="166.22" y="261.47" class="st3" width="15.01" height="67.33"/>
	<path id="XMLID_13_" class="st3" d="M223.74,261.47h-0.56c-4.21,0-19.64-0.14-22.58,0h-0.7c-4.49,0-7.43,2.1-8.14,6.17
		c-0.14,0.28-0.28,0.7-0.28,0.98c0,0.14-0.98,12.91,0.28,16.41c1.96,5.75,6.73,8,10.94,9.12l0.42,0.28c0.28,0,0.7,0.14,0.98,0.28
		c0.42,0.14,0.7,0.42,0.98,0.7v24.41h-12.2v8.98h16.41c5.61-0.14,9.54-2.81,10.94-6.87c0.28-3.37,0.42-25.95,0.14-30.58
		c-0.14-1.82-1.12-3.51-2.67-4.49c-0.7-0.56-1.54-1.12-2.38-1.54c-0.84-0.56-1.96-0.84-2.81-1.4c-3.51-1.68-7.43-3.65-7.43-8.14
		v-3.79h11.78c2.38,0,4.49-1.4,5.61-3.51c0.56-1.12,0.84-2.24,1.12-3.51c0.14-0.98,0.14-1.82,0-2.81L223.74,261.47z"/>
	<path id="XMLID_16_" class="st3" d="M287.42,276.76c0-1.4,0.14-2.67,0.42-4.07l0.42-0.28c0.7-0.14,1.4-0.14,2.1-0.14h0.28
		c5.05,0,5.19,1.54,5.19,10.8v30.44c0,0.7-0.14,1.54-0.28,2.24l-0.42,0.42c-0.84,0.14-1.68,0.14-2.52,0.14
		c-1.54,0.28-2.95-0.28-4.07-1.26c-1.12-1.12-1.12-3.23-1.12-5.61L287.42,276.76L287.42,276.76z M292.47,261.47
		c-3.23,0-6.59,0.28-9.82,0.98c-7.29,1.68-10.94,6.59-10.94,15.01v40.12c0,10.24,7.29,12.34,18.38,12.34
		c13.47,0,21.04-4.77,21.04-13.05v-41.8C311.13,261.47,302.43,261.47,292.47,261.47z"/>
	<path id="XMLID_17_" class="st3" d="M345.78,290.23c-7.01-26.09-18.8-28.76-23.43-28.76c-0.7,0-1.4,0-2.1,0.14l-0.28,0.28v67.33
		h15.29v-27.21l10.52,27.21h15.57v-67.33h-15.57V290.23z"/>
	<path id="XMLID_20_" class="st3" d="M142.1,291.63h-8.56v-19.64c0,0,4.49-0.14,5.19,0c1.82,0.14,3.23,0.84,3.23,2.95
		C142.1,275.5,142.1,291.63,142.1,291.63z M147.99,261.47h-38.29v0.56c0,4.91,3.65,9.12,8.56,9.96v57.09h15.71v-28.62h13.05
		c6.87,0,10.94-4.49,10.94-12.48v-2.52C157.53,266.38,156.83,262.59,147.99,261.47z"/>
	<path id="XMLID_21_" class="st3" d="M267.08,261.75h-35.07v10.52h10.1v56.95h15.43v-56.95h0.56c2.38,0.14,4.77-0.7,6.59-2.38
		c1.82-2.1,2.67-4.91,2.67-7.72L267.08,261.75z"/>
	<path id="XMLID_22_" class="st3" d="M402.17,261.47h-0.56c-4.07,0-19.64-0.14-22.58,0h-0.7c-4.49,0-7.43,2.1-8.14,6.17
		c-0.14,0.28-0.14,0.7-0.14,0.98c0,0.14-1.12,12.91,0.14,16.41c1.82,4.77,5.89,8.14,10.94,9.12l0.56,0.28
		c0.28,0,0.56,0.14,0.84,0.28c0.56,0.14,0.84,0.56,1.12,0.7v24.41h-12.34v8.98h16.27c5.75-0.14,9.54-2.81,10.94-6.87
		c0.42-3.37,0.56-25.95,0.14-30.58c-0.14-1.82-0.98-3.51-2.52-4.49c-0.84-0.56-1.68-1.12-2.52-1.54c-0.84-0.56-1.82-0.84-2.67-1.4
		c-3.51-1.68-7.57-3.65-7.57-8.14v-3.79h11.92c2.38,0,4.49-1.4,5.47-3.51c0.56-1.12,0.98-2.24,1.26-3.51c0.14-0.98,0.14-1.82,0-2.81
		L402.17,261.47z"/>
	<path id="XMLID_25_" class="st3" d="M264.42,192.6h2.95c4.07,0,5.33,0,5.19,7.01c0,5.47,0,5.89-0.14,8.42v0.56
		c0,0.84-0.28,1.68-0.84,2.24c-0.28,0.42-0.84,0.56-1.26,0.56h-6.03L264.42,192.6L264.42,192.6z M264.42,219.95h2.67
		c2.38,0,6.73,0.84,6.73,5.33c0,2.1,0.14,8.98,0.28,11.5v1.12c0,0.28,0.28,3.65,0.42,4.35c0.98,3.93,4.21,6.17,8.84,6.73h4.35V225
		c-0.14-2.52-1.12-5.05-2.81-7.01l-0.28-0.28c2.24-2.67,3.51-6.03,3.23-9.54v-2.52c0-18.52-0.7-22.44-9.4-23.29h-29.04v65.79h15.01
		L264.42,219.95L264.42,219.95z"/>
	<rect id="XMLID_26_" x="342.83" y="182.22" class="st3" width="14.59" height="65.65"/>
	<path id="XMLID_27_" class="st3" d="M217.14,248.14h15.01V192.6h0.56c2.38,0.14,4.77-0.7,6.45-2.38c1.82-2.1,2.81-4.77,2.67-7.57
		v-0.42h-34.37v10.38h9.82v55.55H217.14z"/>
	<path id="XMLID_28_" class="st3" d="M374.95,248.14h15.01V192.6h0.56c2.38,0.14,4.77-0.7,6.45-2.38c1.82-2.1,2.81-4.77,2.67-7.57
		v-0.42h-34.37v10.38h9.82v55.55H374.95z"/>
	<polygon id="XMLID_29_" class="st3" points="199.33,237.48 183.62,237.48 183.62,221.35 194.42,221.35 194.42,207.04 
		183.62,207.04 183.62,192.46 199.33,192.46 199.33,182.22 169.03,182.22 168.89,247.86 199.33,247.86 	"/>
	<path id="XMLID_32_" class="st3" d="M144.76,237.48h-8.42V192.6c5.19-0.14,6.31,0.14,6.45,0.42c1.96,0.56,1.96,4.21,1.96,4.49
		C145.04,202.42,144.76,233.28,144.76,237.48z M149.95,182.22H112.5v0.28c-0.28,2.38,0.42,4.91,1.96,6.73
		c1.68,1.96,4.21,3.09,6.87,3.23v55.27h28.05c6.45,0,10.66-5.33,10.66-13.47v-30.58C159.91,186.99,159.91,182.5,149.95,182.22z"/>
	<path id="XMLID_35_" class="st3" d="M311.41,197.08c0-1.4,0.14-2.67,0.42-4.07l0.42-0.28c0.7-0.14,1.4-0.14,2.1-0.14h0.28
		c5.05,0,5.19,1.54,5.19,10.66v29.88c0,0.7-0.14,1.54-0.28,2.24l-0.42,0.14c-0.84,0.28-1.68,0.28-2.52,0.28
		c-1.4,0.14-2.95-0.28-4.07-1.26c-0.98-1.68-1.4-3.65-1.12-5.61L311.41,197.08L311.41,197.08z M316.04,182.22
		c-3.23-0.14-6.45,0.14-9.68,0.84c-7.29,1.68-10.8,6.59-10.8,14.73v39.14c0,10.1,7.29,12.2,18.24,12.2c13.19,0,20.9-4.63,20.9-12.62
		v-40.96C334.83,182.22,326.14,182.22,316.04,182.22L316.04,182.22z"/>
</g>
</svg>
