<?xml version="1.0" encoding="utf-8"?>
<!-- Generator: Adobe Illustrator 26.5.0, SVG Export Plug-In . SVG Version: 6.00 Build 0)  -->
<svg version="1.1" id="Layer_1" xmlns="http://www.w3.org/2000/svg" xmlns:xlink="http://www.w3.org/1999/xlink" x="0px" y="0px"
	 viewBox="0 0 512 512" style="enable-background:new 0 0 512 512;" xml:space="preserve">
<style type="text/css">
	.st0{fill:#261C02;}
	.st1{fill:#D31145;}
</style>
<g id="g5693">
	<g id="g5699" transform="matrix(4.124781,0,0,4.124781,142.48703,608.70669)">
		<path id="path5701" class="st0" d="M13.94-97.56c0-1.24,0.27-2.06,0.69-3.43c0,0-0.14,0.14-0.27,0.27
			c-0.41,1.37-0.55,2.2-0.69,3.43v2.33l0.27,0.41V-97.56z"/>
	</g>
	<g id="g5703" transform="matrix(4.124781,0,0,4.124781,134.97086,603.06728)">
		<path id="path5705" class="st0" d="M12.85-94.09l3.84,5.08l0.27-0.27l-4.12-5.49V-94.09z"/>
	</g>
	<g id="g5707" transform="matrix(4.124781,0,0,4.124781,134.08032,590.78162)">
		<path id="path5709" class="st0" d="M12.63-86.27l0.27-0.27l-1.24,0.96v-9.88l-0.27,0.14v9.88L12.63-86.27z"/>
	</g>
	<g id="g5711" transform="matrix(4.124781,0,0,4.124781,120.77956,590.08867)">
		<path id="path5713" class="st0" d="M10.74-85.92c0,0,2.2,0.27,2.2-2.06c0,1.78-1.92,1.78-1.92,1.78H9.23c0,0-1.92,0-1.92-1.78
			v-5.77c0-1.78,1.92-1.78,1.92-1.78s-2.2,0-2.2,2.06v5.77c0,1.78,1.92,1.78,1.92,1.78H10.74z"/>
	</g>
	<g id="g5715" transform="matrix(4.124781,0,0,4.124781,121.83507,608.71865)">
		<path id="path5717" class="st0" d="M10.84-97.56v5.22c0,0.27-0.14,0.55-0.27,0.82l0,0l0,0l0,0l0.14-0.14l0,0l0,0c0,0,0,0,0-0.14
			l0,0c0,0,0,0,0-0.14l0,0c0,0,0,0,0-0.14l0,0l0,0l0,0l0,0l0,0l0,0l0,0l0,0l0,0l0,0l0,0c0,0,0,0,0-0.14l0,0l0,0l0,0l0,0l0,0l0,0l0,0
			l0,0l0,0l0,0l0,0l0,0v-5.77c0-0.82-0.55-1.37-1.24-1.37l0,0l0,0l0,0l0,0l0,0l0,0l0,0l0,0l0,0l0,0l0,0l0,0l0,0l0,0l0,0l0,0l0,0l0,0
			l0,0l0,0l0,0l0,0l0,0l0,0l0,0l0,0l0,0l0,0l0,0l0,0l0,0l0,0l0,0l0,0l0,0l0,0l0,0l0,0l0,0l0,0l0,0c0,0,0,0-0.14,0l0,0l0,0l0,0l0,0
			l0,0l0,0l0,0l0,0l0,0l0,0l0,0l0,0c0.27-0.14,0.41-0.14,0.69-0.14C10.42-98.93,10.84-98.38,10.84-97.56"/>
	</g>
	<g id="g5719" transform="matrix(4.124781,0,0,4.124781,211.62538,620.42436)">
		<path id="path5721" class="st0" d="M24.03-105.01c-0.14,0.14-0.27,0.27-0.27,0.27c-0.27,0.69-0.41,1.24-0.55,1.92
			c0.14,0,0.14,0,0.27,0C23.62-103.5,23.76-104.32,24.03-105.01"/>
	</g>
	<g id="g5723" transform="matrix(4.124781,0,0,4.124781,219.68191,600.9125)">
		<path id="path5725" class="st0" d="M25.17-92.63c0-0.82-1.51-0.96-2.47-0.96v0.41c0.96,0,2.2,0.27,2.06,0.96v3.84l1.37,0.82
			l0.27-0.27l-1.37-0.82L25.17-92.63z"/>
	</g>
	<g id="g5727" transform="matrix(4.124781,0,0,4.124781,209.15217,612.58191)">
		<path id="path5729" class="st0" d="M23.67-100.09c0,0.14,0,0.14,0,0.27v9.2l1.37-0.82l0.27-0.27l-1.37,0.82v-9.2
			c0-0.14,0-0.14,0-0.27c-1.37,0-2.47,0.14-2.47,0.14l-0.27,0.27C21.2-99.95,22.3-100.09,23.67-100.09"/>
	</g>
	<g id="g5731" transform="matrix(4.124781,0,0,4.124781,219.58126,604.19129)">
		<path id="path5733" class="st0" d="M25.16-94.81c0.27-0.14,0.55-0.41,0.96-0.69c-0.69,0.55-1.65,0.82-1.65,0.82
			S24.75-94.81,25.16-94.81"/>
	</g>
	<g id="g5735" transform="matrix(4.124781,0,0,4.124781,213.32149,612.34021)">
		<path id="path5737" class="st0" d="M24.18-99.98c1.24,0.14,2.33,0.55,2.33,1.24c0.14,0.55-0.14,0.96-0.41,1.37l0,0
			c0,0,0,0,0.14-0.14l0,0c0,0,0,0,0.14-0.14l0,0c0,0,0,0,0-0.14c0,0,0,0,0-0.14c0,0,0,0,0-0.14c0,0,0,0,0-0.14c0,0,0,0,0-0.14
			c0,0,0,0,0-0.14c0,0,0,0,0-0.14v-0.14c0,0,0,0,0-0.14v-0.14l0,0l0,0l0,0l0,0l0,0l0,0l0,0l0,0l0,0l0,0l0,0l0,0l0,0l0,0l0,0l0,0l0,0
			l0,0l0,0l0,0l0,0l0,0l0,0l0,0c-0.14-0.82-1.37-1.1-2.75-1.24C24.18-100.25,24.18-100.11,24.18-99.98L24.18-99.98z"/>
	</g>
	<g id="g5739" transform="matrix(4.124781,0,0,4.124781,236.10018,613.09751)">
		<path id="path5741" class="st0" d="M27.62-100.32L27.62-100.32L27.62-100.32L27.62-100.32L27.62-100.32c-0.14,0-0.14,0-0.14,0l0,0
			l0,0l0,0l0,0l0,0l0,0l0,0l0,0l0,0l0,0l0,0l0,0l0,0l0,0l0,0l0,0l0,0l0,0l0,0l0,0l0,0l0,0c0,0,0,0-0.14,0l0,0l0,0l0,0l0,0l0,0l0,0
			l0,0l0,0l0,0l0,0c0,0-0.14,0-0.14,0.14l0,0l0,0l0,0l0,0l0,0l0,0l0,0l0,0c0.14-0.14,0.41-0.14,0.69-0.14
			c0.82,0,1.24,0.55,1.24,1.37v5.22c0,0.27-0.14,0.55-0.27,0.82l0,0l0,0l0.14-0.14l0,0l0,0l0,0l0,0l0,0l0,0l0,0l0,0c0,0,0,0,0-0.14
			l0,0c0,0,0,0,0-0.14l0,0l0,0l0,0l0,0l0,0l0,0l0,0l0,0l0,0l0,0l0,0c0,0,0,0,0-0.14l0,0l0,0l0,0l0,0l0,0l0,0l0,0l0,0l0,0l0,0l0,0
			l0,0v-5.22C28.85-99.77,28.3-100.32,27.62-100.32"/>
	</g>
	<g id="g5743" transform="matrix(4.124781,0,0,4.124781,238.3321,590.97095)">
		<path id="path5745" class="st0" d="M27.95-86.39L27.95-86.39h-1.78c0,0-1.92,0-1.92-1.78v-5.77c0-1.78,1.92-1.78,1.92-1.78
			s-2.2-0.14-2.2,2.06v5.77c0,1.78,1.92,1.78,1.92,1.78h1.78c0,0,2.06,0.14,2.2-1.92C29.6-86.39,27.95-86.39,27.95-86.39"/>
	</g>
	<g id="g5747" transform="matrix(4.124781,0,0,4.124781,257.24793,593.12986)">
		<path id="path5749" class="st0" d="M30.63-87.85C30.76-87.85,30.76-87.85,30.63-87.85L30.63-87.85
			C30.76-87.85,30.76-87.85,30.63-87.85c0.14-0.14,0.14-0.14,0.14-0.14l0,0l0,0l0,0l0,0l0,0l0,0l0,0l0,0l0,0l0,0l0,0l0,0l0,0l0,0
			l0,0c0,0,0,0,0-0.14l0,0l0,0l0,0l0,0l0,0l0,0l0,0l0,0l0,0l0,0l0,0l0,0l0,0l0,0l0,0l0,0l0,0l0,0l0,0l0,0l0,0l0,0l0,0l0,0l0,0v-0.55
			l-0.27,0.27v0.55C30.9-88.26,30.76-87.98,30.63-87.85C30.63-87.71,30.63-87.71,30.63-87.85L30.63-87.85"/>
	</g>
	<g id="g5751" transform="matrix(4.124781,0,0,4.124781,258.60953,609.58485)">
		<path id="path5753" class="st0" d="M30.89-98.17c0-0.82-0.55-1.37-1.24-1.37l0,0l0,0l0,0l0,0l0,0l0,0l0,0l0,0l0,0l0,0l0,0l0,0l0,0
			l0,0l0,0l0,0l0,0l0,0l0,0l0,0l0,0l0,0l0,0l0,0l0,0l0,0l0,0c0,0,0,0-0.14,0l0,0l0,0l0,0l0,0l0,0l0,0l0,0l0,0l0,0l-0.14,0.14l0,0
			l0,0l0,0l0,0l0,0l0,0l0,0l0,0c0.14-0.14,0.41-0.14,0.69-0.14c0.82,0,1.24,0.55,1.24,1.37v0.55h1.51l0.27-0.27h-2.2V-98.17z"/>
	</g>
	<g id="g5755" transform="matrix(4.124781,0,0,4.124781,262.25872,594.45102)">
		<path id="path5757" class="st0" d="M31.35-88.55L31.35-88.55L31.35-88.55L31.35-88.55L31.35-88.55L31.35-88.55L31.35-88.55
			L31.35-88.55L31.35-88.55c0,0.14,0,0.14,0,0.14l0,0l0,0l0,0l0,0l0,0l0,0l0,0l0,0l0,0l0,0l0,0l0,0l0,0l0,0l0,0l0,0l0,0
			c0,0.14-0.14,0.14-0.14,0.27l0,0l0,0l0,0l0,0l0,0l0,0l0,0l0,0l0,0l0,0l0,0l0,0l0,0C31.08-88,31.08-88,30.94-87.86l0,0l0,0l0,0l0,0
			l0,0l0,0l0,0c-0.14,0-0.27,0.14-0.27,0.14l0,0l0,0l0,0l0,0l0,0l0,0l0,0l0,0c-0.14,0-0.14,0-0.27,0l0,0l0,0l0,0l0,0l0,0l0,0l0,0
			l0,0l0,0l0,0l0,0l0,0l0,0l0,0l0,0l0,0l0,0c0,0,0,0-0.14,0l0,0l0,0l0,0l0,0l0,0l0,0l0,0l0,0l0,0l0,0l0,0l0,0l0,0l0,0l0,0l0,0l0,0
			l0,0l0,0l0,0h-1.78c0,0-1.92,0-1.92-1.78v-5.77c0-1.78,1.92-1.78,1.92-1.78s-2.2-0.14-2.2,2.06v5.77c0,1.78,1.92,1.78,1.92,1.78
			h1.78c0,0,2.06,0.14,2.2-1.92C31.49-88.69,31.35-88.69,31.35-88.55"/>
	</g>
	<g id="g5759" transform="matrix(4.124781,0,0,4.124781,330.83732,593.06964)">
		<path id="path5761" class="st0" d="M41.39-87.71C41.39-87.71,41.53-87.71,41.39-87.71L41.39-87.71
			C41.53-87.85,41.53-87.85,41.39-87.71L41.39-87.71c0.14-0.14,0.14-0.14,0.14-0.14l0,0l0,0l0,0l0,0l0,0c0,0,0,0,0-0.14l0,0
			c0,0,0,0,0-0.14l0,0c0,0,0,0,0-0.14l0,0c0,0,0,0,0-0.14l0,0c0,0,0,0,0-0.14l0,0c0,0,0,0,0-0.14l0,0c0,0,0,0,0-0.14l0,0v-0.14l0,0
			v-0.14l0,0v-0.14l0,0l0,0v-1.37c0-1.24-0.82-1.24-2.2-1.24c-1.78,0-1.78-0.41-1.78-1.65v-1.37l0,0l0,0l0,0l0,0l0,0l0,0l0,0l0,0
			l0,0l0,0l0,0l0,0l0,0l0,0l0,0l0,0l0,0v-0.14l0,0l0,0l0,0l0,0l0,0l0,0l0,0l0,0l0,0l0,0l0,0c0-0.14,0.14-0.14,0.14-0.27l0,0l0,0l0,0
			l0,0l0.14-0.14l0,0l0,0l0,0l0,0l0,0l0,0l0,0l0,0l0,0l0,0l0,0l0,0c0,0,0.14,0,0.14-0.14l0,0h0.14l0,0h0.14l0,0h0.14l0,0
			c-0.55,0-1.92,0.41-1.92,1.78v1.37c0,1.24,0,1.65,1.78,1.65c1.37,0,2.2,0,2.2,1.24v1.37C41.53-88.26,41.53-87.99,41.39-87.71
			L41.39-87.71L41.39-87.71z"/>
	</g>
	<g id="g5763" transform="matrix(4.124781,0,0,4.124781,332.00959,609.74201)">
		<path id="path5765" class="st0" d="M41.64-98.29c0-0.69-0.14-1.37-1.37-1.37l0,0l0,0l0,0l0,0l0,0l0,0l0,0l0,0l0,0l0,0l0,0l0,0l0,0
			l0,0l0,0l0,0l0,0l0,0l0,0l0,0l0,0l0,0l0,0l0,0l0,0l0,0l0,0l0,0l0,0l0,0l0,0l0,0l0,0l0,0l0,0l0,0l0,0l0,0l0,0l0,0l0,0l0,0l0,0l0,0
			l0,0l0,0l0,0l0,0l0,0l0,0l0,0l0,0l0,0l0,0l0,0l0,0l0,0l0,0l0,0l0,0l0,0l0,0l0,0l0,0l0,0l0,0l0,0l0,0l0,0l0,0l0,0l0,0l0,0l0,0l0,0
			l0,0l0,0l0,0l0,0l0,0l0,0l0,0l0,0l0,0l0,0l0,0l0,0l0,0l0,0l0,0l0,0l0,0l0,0l0,0l0,0l0,0l0,0l0,0l0,0l0,0l0,0l0,0l0,0l0,0l0,0l0,0
			l0,0l0,0l0,0l0,0l0,0c0.14-0.14,0.55-0.14,0.82-0.14c1.24,0,1.37,0.55,1.37,1.37v0.55l1.37-0.69l0.27-0.27l-1.37,0.69L41.64-98.29
			z"/>
	</g>
	<g id="g5767" transform="matrix(4.124781,0,0,4.124781,290.67722,611.4377)">
		<path id="path5769" class="st0" d="M35.57-99.37L35.57-99.37L35.57-99.37C35.57-99.37,35.57-99.23,35.57-99.37
			C35.57-99.23,35.57-99.23,35.57-99.37C35.43-99.23,35.43-99.23,35.57-99.37c0.27-0.14,0.69-0.14,0.69-0.14h2.47
			C39-99.78,39-99.78,39-99.78h-2.47C36.67-99.78,35.98-99.78,35.57-99.37"/>
	</g>
	<g id="g5771" transform="matrix(4.124781,0,0,4.124781,294.97524,590.96683)">
		<path id="path5773" class="st0" d="M36.23-86.39h-1.51c0,0-1.92,0-1.92-1.78v-3.02v-2.61c0-0.41,0.14-0.82,0.27-1.1
			c-0.41,0.27-0.69,0.69-0.69,1.37v2.61v3.02c0,1.78,1.92,1.78,1.92,1.78h1.51c0,0,2.06,0.14,2.2-1.24
			C37.88-86.26,36.23-86.39,36.23-86.39"/>
	</g>
	<g id="g5775" transform="matrix(4.124781,0,0,4.124781,289.89557,601.95566)">
		<path id="path5777" class="st0" d="M35.5-93.36v0.27h0.14c1.1-0.14,2.2-0.27,3.29-0.69c0.14-0.14,0.14-0.14,0.27-0.27
			c-1.1,0.41-2.2,0.55-3.29,0.69H35.5z"/>
	</g>
	<g id="g5779" transform="matrix(4.124781,0,0,4.124781,311.74413,611.56681)">
		<path id="path5781" class="st0" d="M38.71-99.36v0.27h0.14c1.1,0,1.78-0.27,2.61-0.55c0.14-0.14,0.27-0.27,0.27-0.27
			c-0.82,0.41-1.51,0.55-2.61,0.55H38.71z"/>
	</g>
	<g id="g5783" transform="matrix(4.124781,0,0,4.124781,308.17908,611.56681)">
		<path id="path5785" class="st0" d="M38.11-99.36h-2.2v-1.24l-0.27,0.27v1.24h2.2v7.69l1.37,0.96l0.27-0.41l-1.37-0.96V-99.36z"/>
	</g>
	<g id="g5787" transform="matrix(4.124781,0,0,4.124781,267.25383,617.15754)">
		<path id="path5789" class="st0" d="M32.08-102.97l-0.27,0.27v10.71l1.37-0.96l0.27-0.27l-1.37,0.96V-102.97z"/>
	</g>
	<g id="g5791" transform="matrix(4.124781,0,0,4.124781,270.91127,603.75612)">
		<path id="path5793" class="st0" d="M32.68-94.44v0.82l2.75,4.26h1.51l0.27-0.27H35.7L32.68-94.44z"/>
	</g>
	<g id="g5795" transform="matrix(4.124781,0,0,4.124781,278.24224,614.64802)">
		<path id="path5797" class="st0" d="M33.76-101.41l-0.27,0.27l-2.61,3.71v0.14L33.76-101.41z"/>
	</g>
	<g id="g5799" transform="matrix(4.124781,0,0,4.124781,48.20114,590.95487)">
		<path id="path5801" class="st0" d="M0.06-86.4h-1.78c0,0-1.92,0-1.92-1.78v-5.77c0-0.82,0.41-1.24,0.82-1.51
			c-0.55,0.27-1.24,0.82-1.24,1.78v5.77c0,1.78,1.92,1.78,1.92,1.78h1.78c0,0,2.06,0.14,2.2-1.92v-0.14
			C1.98-86.4,0.06-86.4,0.06-86.4"/>
	</g>
	<g id="g5803" transform="matrix(4.124781,0,0,4.124781,45.969634,613.10948)">
		<path id="path5805" class="st0" d="M-0.28-100.46L-0.28-100.46L-0.28-100.46L-0.28-100.46L-0.28-100.46h-0.14l0,0l0,0l0,0l0,0l0,0
			l0,0l0,0l0,0l0,0l0,0l0,0l0,0l0,0l0,0l0,0l0,0l0,0l0,0l0,0l0,0l0,0l0,0h-0.14l0,0l0,0l0,0l0,0l0,0l0,0l0,0l-0.14,0.14l0,0
			c0,0,0,0,0,0.14c0.14-0.14,0.41-0.14,0.69-0.14c0.82,0,1.24,0.55,1.24,1.37v5.22c0,0.27-0.14,0.55-0.27,0.82l0,0l0,0l0,0l0,0l0,0
			l0,0l0,0l0,0l0,0l0,0l0,0l0,0l0,0l0,0l0,0l0,0l0,0l0,0l0,0l0,0l0,0l0,0l0,0l0,0l0,0l0,0l0,0l0,0l0,0l0,0l0,0l0,0l0,0l0,0l0,0l0,0
			l0,0l0,0l0,0l0,0l0,0l0,0l0,0l0,0l0,0l0,0l0,0l0,0l0,0l0,0l0,0l0,0l0,0l0,0l0,0l0,0l0,0v-5.22C1.1-99.91,0.55-100.46-0.28-100.46"
			/>
	</g>
	<g id="g5807" transform="matrix(4.124781,0,0,4.124781,68.212929,596.07454)">
		<path id="path5809" class="st0" d="M2.97-89.64v-2.88v-3.57L2.7-95.68v3.57v2.88c0,0.41-0.14,0.69-0.27,0.82
			C2.7-88.68,2.97-88.95,2.97-89.64"/>
	</g>
	<g id="g5811" transform="matrix(4.124781,0,0,4.124781,87.084627,609.75396)">
		<path id="path5813" class="st0" d="M5.77-98.29c0-0.69-0.14-1.37-1.37-1.37l0,0l0,0l0,0l0,0l0,0l0,0l0,0l0,0l0,0l0,0l0,0l0,0l0,0
			l0,0l0,0l0,0l0,0l0,0l0,0l0,0l0,0l0,0l0,0l0,0l0,0l0,0l0,0l0,0l0,0l0,0l0,0l0,0l0,0l0,0l0,0l0,0l0,0l0,0l0,0l0,0l0,0l0,0l0,0l0,0
			l0,0l0,0l0,0l0,0l0,0l0,0l0,0l0,0l0,0l0,0l0,0l0,0l0,0l0,0l0,0l0,0l0,0l0,0l0,0l0,0l0,0l0,0l0,0l0,0l0,0l0,0l0,0l0,0l0,0l0,0l0,0
			l0,0l0,0l0,0l0,0l0,0l0,0l0,0l0,0l0,0l0,0l0,0l0,0l0,0l0,0l0,0l0,0l0,0l0,0l0,0l0,0l0,0l0,0l0,0l0,0l0,0l0,0l0,0l0,0l0,0
			c0.14-0.14,0.41-0.14,0.82-0.14c1.24,0,1.37,0.55,1.37,1.37v0.55l1.37-0.69l0.27-0.27l-1.37,0.69L5.77-98.29z"/>
	</g>
	<g id="g5815" transform="matrix(4.124781,0,0,4.124781,86.08148,593.17028)">
		<path id="path5817" class="st0" d="M5.68-87.84L5.68-87.84L5.68-87.84c0.14-0.14,0.14-0.14,0.14-0.14l0,0l0,0c0,0,0,0,0-0.14
			c0,0,0,0,0-0.14l0,0c0,0,0,0,0-0.14l0,0c0,0,0,0,0-0.14l0,0c0,0,0,0,0-0.14l0,0c0,0,0,0,0-0.14l0,0c0,0,0,0,0-0.14l0,0v-0.14l0,0
			v-0.14l0,0l0,0l0,0l0,0l0,0v-1.37c0-1.24-0.82-1.24-2.2-1.24c-1.78,0-1.78-0.41-1.78-1.65v-1.37c0-0.69,0.27-0.96,0.69-1.24
			c-0.41,0.41-0.96,0.82-0.96,1.65v1.37c0,1.24,0,1.65,1.78,1.65c1.37,0,2.2,0,2.2,1.24v1.37C5.68-88.39,5.68-87.98,5.68-87.84
			C5.55-87.71,5.55-87.84,5.68-87.84"/>
	</g>
	<g id="g5819" transform="matrix(4.124781,0,0,4.124781,102.31497,611.0673)">
		<path id="path5821" class="st0" d="M7.97-99.13v0.27h0.14c1.1,0,1.78-0.27,2.61-0.55c0.14-0.14,0.27-0.27,0.27-0.27
			c-0.69,0.27-1.37,0.55-2.47,0.55H7.97z"/>
	</g>
	<g id="g5823" transform="matrix(4.124781,0,0,4.124781,98.810555,611.0673)">
		<path id="path5825" class="st0" d="M7.52-99.13h-2.2v-1.24l-0.27,0.27v1.24h2.2v7.55l1.37,0.96l0.27-0.27l-1.37-0.96V-99.13z"/>
	</g>
	<g id="g5827" transform="matrix(4.124781,0,0,4.124781,30.642773,601.83067)">
		<path id="path5829" class="st0" d="M-2.49-93.24h-3.02v0.27h2.75v4.26l1.37,0.69l0.27-0.27l-1.37-0.69V-93.24z"/>
	</g>
	<g id="g5831" transform="matrix(4.124781,0,0,4.124781,30.695157,610.71669)">
		<path id="path5833" class="st0" d="M-2.48-98.89c0-0.96,0.27-1.78,0.55-2.75c-0.14,0.14-0.14,0.14-0.27,0.27
			c-0.41,0.96-0.55,1.78-0.55,2.75v2.2h0.27V-98.89z"/>
	</g>
	<g id="g5835" transform="matrix(4.124781,0,0,4.124781,19.682405,610.71669)">
		<path id="path5837" class="st0" d="M-4.02-98.89c0-0.96,0.27-1.78,0.55-2.75c-0.14,0.14-0.14,0.14-0.27,0.27
			c-0.27,0.96-0.55,1.92-0.55,2.75v8.51l1.37-0.69l0.27-0.27l-1.37,0.69V-98.89z"/>
	</g>
	<g id="g5839" transform="matrix(4.124781,0,0,4.124781,196.52828,533.06273)">
		<path id="path5841" class="st0" d="M21.84-49.9L21.84-49.9L21.84-49.9L21.84-49.9L21.84-49.9L21.84-49.9
			C21.84-50.03,21.84-50.03,21.84-49.9v-0.14l0,0l0,0l0,0l0,0l0,0l0,0l0,0l0,0l0,0l0,0l0,0l0,0l0,0l0,0l0,0l0,0l0,0l0,0l0,0l0,0l0,0
			l0,0l0,0l0,0l0,0l0,0l0,0l0,0l0,0l0,0l0,0l0,0l0,0l0,0l0,0l0,0l0,0l0,0l0,0l0,0l0,0c0,0,0,0-0.14,0l0,0l0,0l0,0l0,0
			c0,0,0,0-0.14,0l0,0l0,0l0,0c0,0,0,0-0.14,0l0,0l0,0l0,0l0,0l0,0c0,0,0,0,0,0.14l0,0c0.27,0,0.55,0.27,0.55,0.82l0.41,15.24
			l0.27-0.27L21.84-49.9L21.84-49.9z"/>
	</g>
	<g id="g5843" transform="matrix(4.124781,0,0,4.124781,161.11332,549.91659)">
		<path id="path5845" class="st0" d="M16.58-60.45L16.58-60.45L16.58-60.45L16.58-60.45L16.58-60.45
			C16.58-60.59,16.58-60.59,16.58-60.45L16.58-60.45C16.58-60.59,16.58-60.59,16.58-60.45c0-0.14,0-0.14,0-0.14l0,0l0,0l0,0l0,0l0,0
			l0,0l0,0l0,0l0,0l0,0l0,0l0,0l0,0l0,0l0,0l0,0l0,0l0,0l0,0l0,0l0,0l0,0l0,0l0,0l0,0l0,0l0,0l0,0l0,0l0,0l0,0l0,0l0,0l0,0l0,0l0,0
			l0,0l0,0l0,0l0,0l0,0l0,0l0,0l0,0l0,0l0,0l0,0l0,0l0,0l0,0l0,0l0,0l0,0l0,0l0,0l0,0l0,0l0,0l0,0l0,0
			C16.58-60.59,16.58-60.59,16.58-60.45L16.58-60.45c0.27,0,0.41,0.27,0.41,0.69l0.27,11.39l0.27-0.27L16.58-60.45L16.58-60.45z"/>
	</g>
	<g id="g5847" transform="matrix(4.124781,0,0,4.124781,165.83413,544.65584)">
		<path id="path5849" class="st0" d="M17.28-57.22L17.28-57.22L17.28-57.22L17.28-57.22L17.28-57.22L17.28-57.22
			C17.28-57.36,17.28-57.36,17.28-57.22c0-0.14,0-0.14,0-0.14l0,0l0,0l0,0l0,0l0,0l0,0l0,0l0,0l0,0l0,0l0,0l0,0l0,0l0,0l0,0l0,0l0,0
			l0,0l0,0l0,0l0,0l0,0l0,0l0,0l0,0l0,0l0,0l0,0l0,0l0,0l0,0l0,0l0,0l0,0l0,0l0,0l0,0l0,0l0,0l0,0l0,0l0,0l0,0l0,0l0,0l0,0l0,0l0,0
			l0,0l0,0l0,0l0,0l0,0l0,0l0,0l0,0l0,0C17.28-57.36,17.28-57.36,17.28-57.22L17.28-57.22L17.28-57.22c0.27,0,0.41,0.27,0.41,0.82
			l0.27,11.94l0.27-0.27L17.28-57.22L17.28-57.22z"/>
	</g>
	<g id="g5851" transform="matrix(4.124781,0,0,4.124781,177.6809,559.40689)">
		<path id="path5853" class="st0" d="M19.04-66.46c-1.24,0-2.47,0-3.71,0v0.41c1.1,0,2.2,0,3.43,0s2.33,0,3.57,0l0.55,18.12
			l0.27-0.27l-0.55-18.12C21.37-66.46,20.28-66.46,19.04-66.46"/>
	</g>
	<g id="g5855" transform="matrix(4.124781,0,0,4.124781,191.53728,537.70311)">
		<path id="path5857" class="st0" d="M21.12-52.77L21.12-52.77L21.12-52.77L21.12-52.77C21.12-52.91,21.12-52.91,21.12-52.77
			L21.12-52.77C21.12-52.91,21.12-52.91,21.12-52.77v-0.14l0,0l0,0l0,0l0,0l0,0l0,0l0,0l0,0l0,0l0,0l0,0l0,0l0,0l0,0l0,0l0,0l0,0
			l0,0l0,0l0,0l0,0l0,0l0,0l0,0l0,0l0,0l0,0l0,0l0,0l0,0l0,0l0,0l0,0l0,0l0,0c0,0,0,0-0.14,0l0,0l0,0l0,0l0,0l0,0c0,0,0,0-0.14,0
			l0,0l0,0l0,0c0,0,0,0,0,0.14l0,0l0,0c0.14,0,0.41,0.27,0.41,0.82l0.55,13.32l0.27-0.27L21.12-52.77L21.12-52.77z"/>
	</g>
	<g id="g5859" transform="matrix(4.124781,0,0,4.124781,156.23493,634.67177)">
		<path id="path5861" class="st0" d="M15.87-114.02c-4.53,0-8.51,0.27-8.51,0.27l-0.27,0.27c0,0,3.98-0.41,8.51-0.27
			c-0.55,5.22,0,10.16,0,19.49l0,0c0.14,0,0.27,0,0.41,0C15.87-103.72,15.46-108.8,15.87-114.02"/>
	</g>
	<g id="g5863" transform="matrix(4.124781,0,0,4.124781,199.13843,560.21617)">
		<path id="path5865" class="st0" d="M22.22-67.07v0.27c7.96-0.69,14.14-2.33,15.65-4.12C35.81-69.13,29.9-67.62,22.22-67.07
			L22.22-67.07z"/>
	</g>
	<g id="g5867" transform="matrix(4.124781,0,0,4.124781,162.43035,662.38122)">
		<path id="path5869" class="st0" d="M16.84-131.56c-0.14,0.14-0.14,0.14-0.27,0.27c-1.1,3.43-1.78,6.18-2.2,8.79
			c0.14,0,0.14,0,0.27,0C15.05-125.11,15.6-127.85,16.84-131.56"/>
	</g>
	<g id="g5871" transform="matrix(4.124781,0,0,4.124781,114.56434,573.43238)">
		<path id="path5873" class="st0" d="M9.77-75.35c0-0.41,0.14-0.69,0.41-1.1c-0.55,0.41-0.82,0.82-0.69,1.37
			c0.14,2.2,6.73,4.39,16.2,5.08l0.41,12.77l0.27-0.27l-0.41-12.77C16.63-71.09,9.9-73.15,9.77-75.35"/>
	</g>
	<g id="g5875" transform="matrix(4.124781,0,0,4.124781,186.29675,607.06337)">
		<path id="path5877" class="st0" d="M20.23-96.61c1.51-0.41,3.29-1.24,4.53-2.61l0,0c-2.06,1.92-4.94,2.61-6.18,2.75
			C19.13-96.47,19.68-96.61,20.23-96.61"/>
	</g>
	<g id="g5879" transform="matrix(4.124781,0,0,4.124781,188.95145,623.44164)">
		<path id="path5881" class="st0" d="M20.75-106.93c0.27,1.78-0.27,3.29-1.24,4.26l0,0l0.14-0.14l0.14-0.14l0.14-0.14l0.14-0.14
			l0.14-0.14l0.14-0.14l0.14-0.14c0-0.14,0.14-0.14,0.14-0.14s0-0.14,0.14-0.14c0-0.14,0.14-0.14,0.14-0.27v-0.14
			c0-0.14,0.14-0.14,0.14-0.27v-0.14c0-0.14,0.14-0.27,0.14-0.41l0,0l0,0l0,0l0,0l0,0l0,0l0,0l0,0l0,0l0,0l0,0l0,0l0,0l0,0l0,0l0,0
			l0,0l0,0l0,0v-0.14l0,0l0,0l0,0l0,0l0,0l0,0l0,0l0,0l0,0l0,0l0,0l0,0l0,0l0,0l0,0l0,0l0,0l0,0l0,0l0,0c0,0,0,0,0-0.14
			c-0.27-2.33-4.12-3.43-8.51-3.84c0,0.14,0,0.27,0,0.41C16.76-110.23,20.33-109.13,20.75-106.93"/>
	</g>
	<g id="g5883" transform="matrix(4.124781,0,0,4.124781,168.98009,604.65862)">
		<path id="path5885" class="st0" d="M17.71-95.04c0,0.14,0,0.27,0,0.41c3.02,0.41,6.73,1.24,6.73,3.29l-0.14,11.67h0.27l0.14-11.94
			C24.84-93.94,20.86-94.77,17.71-95.04"/>
	</g>
	<g id="g5887" transform="matrix(4.124781,0,0,4.124781,199.42427,583.52695)">
		<path id="path5889" class="st0" d="M22.24-81.71v0.41c6.04,0.82,10.98,1.65,10.98,3.16c0,0.27-0.14,0.41-0.27,0.69l0,0l0.14-0.14
			l0,0l0.14-0.14l0,0l0.14-0.14l0,0c0,0,0-0.14,0.14-0.14l0,0l0,0l0,0l0,0l0,0l0,0l0,0l0,0l0,0l0,0l0,0l0,0l0,0l0,0l0,0l0,0l0,0l0,0
			l0,0l0,0l0,0l0,0C33.5-80.07,28.42-80.89,22.24-81.71"/>
	</g>
	<g id="g5891" transform="matrix(4.124781,0,0,4.124781,127.48232,576.34489)">
		<path id="path5893" class="st0" d="M11.76-77.15c1.51-1.1,6.18-1.78,10.85-2.47c0,1.78,0,3.84-0.14,6.04v0.41l0,0
			c0.14,0,0.27,0,0.41,0v-0.82c0-2.2,0.14-4.12,0.14-6.04C17.66-79.2,12.58-78.52,11.76-77.15"/>
	</g>
	<g id="g5895" transform="matrix(4.124781,0,0,4.124781,331.38097,590.97095)">
		<path id="path5897" class="st0" d="M41.58-86.39L41.58-86.39L41.58-86.39h-2.06c0,0-1.65,0-1.65-1.37v-0.96l-0.41,0.27v0.96
			c0,1.37,1.65,1.37,1.65,1.37h2.06c0,0,1.78,0.14,1.92-1.92C42.95-86.39,41.58-86.39,41.58-86.39"/>
	</g>
	<g id="g5899" transform="matrix(4.124781,0,0,4.124781,67.068714,590.96683)">
		<path id="path5901" class="st0" d="M2.87-86.39L2.87-86.39H1.08c0,0-1.78-0.14-1.78-1.65v-3.16v-4.39l-0.27,0.27v4.39v3.16
			c0,1.65,1.78,1.65,1.78,1.65h1.78c0,0,2.2,0.14,2.2-1.92l0,0C4.65-86.53,2.87-86.39,2.87-86.39"/>
	</g>
	<g id="g5903" transform="matrix(4.124781,0,0,4.124781,90.49252,594.48733)">
		<path id="path5905" class="st0" d="M6.22-88.68L6.22-88.68L6.22-88.68L6.22-88.68C6.22-88.55,6.22-88.55,6.22-88.68L6.22-88.68
			C6.22-88.55,6.22-88.55,6.22-88.68C6.22-88.55,6.22-88.55,6.22-88.68c0,0.14,0,0.14,0,0.14l0,0l0,0l0,0l0,0l0,0l0,0l0,0
			c-0.27,0.82-1.1,1.1-1.37,1.1l0,0l0,0l0,0l0,0l0,0l0,0l0,0l0,0l0,0l0,0l0,0l0,0l0,0l0,0l0,0l0,0l0,0l0,0l0,0l0,0l0,0l0,0l0,0l0,0
			l0,0l0,0l0,0l0,0l0,0l0,0l0,0H2.79c0,0-1.65,0-1.65-1.37v-0.96l-0.55,0.41v0.96c0,1.37,1.65,1.37,1.65,1.37H4.3
			c0,0,1.92,0.14,1.92-1.92C6.36-88.82,6.36-88.68,6.22-88.68C6.36-88.68,6.36-88.68,6.22-88.68"/>
	</g>
	<g id="g5907" transform="matrix(4.124781,0,0,4.124781,220.33031,610.09632)">
		<path id="path5909" class="st1" d="M25.23-98.53L25.23-98.53L25.23-98.53C25.23-98.39,25.23-98.39,25.23-98.53L25.23-98.53
			C25.23-98.39,25.23-98.39,25.23-98.53L25.23-98.53v0.14l0,0l0,0l0,0l0,0l0,0l0,0l0,0l0,0l0,0l0,0l0,0l0,0l0,0l0,0l0,0l0,0l0,0
			c0,0.14,0,0.14,0,0.14s0,0,0,0.14v0.14c0,0,0,0,0,0.14c0,0,0,0,0,0.14c0,0,0,0,0,0.14c0,0,0,0,0,0.14c0,0,0,0,0,0.14
			c0,0,0,0,0,0.14c0,0,0,0,0,0.14l0,0c0,0,0,0-0.14,0.14l0,0c0,0,0,0-0.14,0.14l0,0c-0.41,0.41-0.96,0.55-1.51,0.69l0,0
			c-0.14,0-0.14,0-0.27,0l0,0c-0.14,0-0.14,0-0.27,0v-3.29v-0.14c0-0.14,0-0.14,0-0.27C23.86-99.63,25.23-99.35,25.23-98.53
			 M21.25-99.77c0,0.14,0,0.14,0,0.27v9.2l1.37-0.82v-4.53v-0.41c0.96,0,2.47,0.27,2.47,0.96v3.84l1.37,0.82v-4.8v-0.14l0,0
			c0,0,0,0,0-0.14l0,0c0,0,0,0,0-0.14l0,0c0,0,0,0,0-0.14l0,0c0,0,0,0,0-0.14l0,0l0,0l0,0l0,0l0,0c0,0,0,0-0.14,0l0,0
			c-0.14,0-0.27-0.14-0.27-0.14l0,0c-0.14,0-0.41,0-0.55,0c-0.41,0-0.69,0.14-0.69,0.14s0.96-0.27,1.65-0.82
			c0.27-0.27,0.55-0.55,0.69-0.82l0,0c0.14-0.14,0.14-0.27,0.14-0.55l0,0c0-0.14,0-0.14,0-0.27l0,0c0-0.14,0-0.14,0-0.27
			c-0.14-1.24-1.51-1.92-3.98-1.65c-0.14,0-0.27,0-0.27,0c-0.14-0.69-0.27-1.24-0.55-1.92c-0.27,0.69-0.41,1.51-0.55,2.2
			c-0.14,0-0.14,0-0.27,0c-1.37,0.27-2.33,0.55-2.33,0.55S19.88-99.77,21.25-99.77"/>
	</g>
	<g id="g5911" transform="matrix(4.124781,0,0,4.124781,239.37526,596.0865)">
		<path id="path5913" class="st1" d="M28.05-89.64L28.05-89.64L28.05-89.64L28.05-89.64C28.05-89.5,28.05-89.5,28.05-89.64
			c0,0.14,0,0.14,0,0.14l0,0l0,0l0,0l0,0l0,0l0,0l0,0c0,0,0,0,0,0.14l0,0l0,0l0,0l0,0l0,0l0,0l0,0l0,0l0,0l0,0l0,0c0,0,0,0,0,0.14
			l0,0c0,0,0,0,0,0.14l0,0l0,0l0,0l0,0l0,0l0,0l0,0l0,0l-0.14,0.14l0,0l0,0c-0.14,0.14-0.27,0.14-0.55,0.14l0,0h-0.14
			c-0.82,0-1.24-0.41-1.24-1.37v-5.22c0-0.14,0-0.14,0-0.27l0,0c0-0.14,0-0.27,0.14-0.41l0,0c0,0,0-0.14,0.14-0.14l0,0l0,0l0,0l0,0
			l0,0l0,0l0,0l0,0l0.14-0.14l0,0l0,0l0,0l0,0l0,0l0,0l0,0l0,0l0,0l0,0c0,0,0,0,0.14,0l0,0l0,0l0,0l0,0l0,0l0,0l0,0l0,0l0,0l0,0l0,0
			l0,0l0,0l0,0l0,0l0,0l0,0l0,0l0,0l0,0l0,0l0,0l0,0l0,0l0,0l0,0l0,0c0.82,0,1.24,0.55,1.24,1.37v5.35H28.05z M27.64-96.91h-1.78
			c0,0-1.92,0-1.92,1.78v5.77c0,1.78,1.92,1.78,1.92,1.78h1.78c0.14,0,1.78,0,1.92-1.65v-0.14v-5.77
			C29.56-96.91,27.64-96.91,27.64-96.91"/>
	</g>
	<g id="g5915" transform="matrix(4.124781,0,0,4.124781,257.56223,614.76103)">
		<path id="path5917" class="st1" d="M30.65-101.4h-1.78c0,0-1.92,0-1.92,1.78v5.77c0,1.78,1.92,1.78,1.92,1.78h1.78l0,0l0,0l0,0
			l0,0l0,0l0,0l0,0l0,0l0,0l0,0l0,0l0,0l0,0l0,0l0,0l0,0l0,0l0,0l0,0l0,0c0,0,0,0,0.14,0l0,0l0,0l0,0l0,0l0,0l0,0l0,0l0,0l0,0l0,0
			l0,0l0,0l0,0l0,0l0,0l0,0l0,0l0,0c0.14,0,0.14,0,0.27,0l0,0l0,0l0,0l0,0l0,0l0,0l0,0l0,0c0.14,0,0.27-0.14,0.27-0.14l0,0l0,0l0,0
			l0,0l0,0l0,0l0,0c0.14,0,0.14-0.14,0.27-0.27l0,0l0,0l0,0l0,0l0,0l0,0l0,0l0,0l0,0l0,0l0,0l0,0l0,0c0-0.14,0.14-0.14,0.14-0.27
			l0,0l0,0l0,0l0,0l0,0l0,0l0,0l0,0l0,0l0,0l0,0l0,0l0,0l0,0l0,0l0,0l0,0l0,0l0,0l0,0l0,0l0,0l0,0l0,0l0,0l0,0v-0.14
			c0-0.14,0-0.14,0-0.27v-1.51h-1.51v0.55l0,0l0,0l0,0l0,0l0,0l0,0l0,0l0,0l0,0l0,0l0,0l0,0l0,0l0,0l0,0l0,0l0,0l0,0l0,0l0,0l0,0
			l0,0l0,0l0,0l0,0c0,0,0,0,0,0.14l0,0l0,0l0,0l0,0l0,0l0,0l0,0l0,0l0,0l0,0l0,0l0,0l0,0l0,0l0,0l0,0l0,0l0,0l0,0l0,0l0,0
			c-0.14,0.14-0.27,0.14-0.55,0.14l0,0h-0.14c-0.82,0-1.24-0.41-1.24-1.37v-5.22c0-0.14,0-0.14,0-0.27l0,0c0-0.14,0-0.27,0.14-0.41
			l0,0c0,0,0-0.14,0.14-0.14l0,0l0,0l0,0l0,0l0,0l0,0l0,0l0,0l0.14-0.14l0,0l0,0l0,0l0,0l0,0l0,0l0,0l0,0l0,0h0.14l0,0l0,0l0,0l0,0
			l0,0l0,0l0,0l0,0l0,0l0,0l0,0l0,0l0,0l0,0l0,0l0,0l0,0l0,0l0,0l0,0l0,0l0,0l0,0l0,0l0,0l0,0l0,0c0.82,0,1.24,0.55,1.24,1.37v0.55
			h1.51v-0.69C32.58-101.4,30.65-101.4,30.65-101.4"/>
	</g>
	<g id="g5919" transform="matrix(4.124781,0,0,4.124781,335.50987,600.75905)">
		<path id="path5921" class="st1" d="M42.09-92.65c0-1.51-0.82-1.65-2.47-1.65c-1.24,0-1.51,0-1.51-1.1v-0.96v-0.14l0,0
			c0-0.14,0-0.27,0-0.27v-0.14l0,0l0,0l0,0l0,0l0,0l0,0l0,0l0,0l0,0l0,0l0,0l0,0l0,0l0,0l0,0l0,0l0,0l0,0l0,0l0,0l0,0l0,0l0,0l0,0
			l0,0l0,0l0,0l0,0l0,0l0,0l0,0l0,0l0,0l0,0l0,0l0,0l0,0l0,0l0,0l0,0l0,0l0,0l0,0l0,0l0,0l0,0l0,0l0,0l0,0l0,0l0,0l0,0l0,0l0,0l0,0
			l0,0l0,0l0,0l0,0l0,0l0,0l0,0l0,0l0,0l0,0l0,0l0,0l0,0l0,0l0,0l0,0l0,0l0,0l0,0l0,0l0,0l0,0l0,0l0,0l0,0l0,0l0,0l0,0l0,0l0,0l0,0
			l0,0l0,0l0,0l0,0l0,0l0,0l0,0l0,0l0,0l0,0l0,0l0,0l0,0l0,0l0,0l0,0l0,0l0,0l0,0l0,0l0,0l0,0l0,0l0,0l0,0
			c1.24,0,1.37,0.55,1.37,1.37v0.55l1.37-0.69v-0.14c0-1.65-1.51-1.65-1.51-1.65h-2.06l0,0l0,0l0,0l0,0h-0.14h-0.14l0,0h-0.14l0,0
			h-0.14l0,0c0,0-0.14,0-0.14,0.14l0,0l0,0l0,0l0,0l0,0l0,0l0,0l0,0l0,0l0,0l0,0l0,0l-0.14,0.14l0,0l0,0l0,0l0,0
			c-0.14,0.14-0.14,0.14-0.14,0.27l0,0l0,0l0,0l0,0l0,0l0,0l0,0l0,0l0,0l0,0l0,0v0.14l0,0l0,0l0,0l0,0l0,0l0,0l0,0l0,0l0,0l0,0l0,0
			l0,0l0,0l0,0l0,0l0,0l0,0v1.37c0,1.24,0,1.65,1.78,1.65c1.37,0,2.2,0,2.2,1.24v1.37l0,0l0,0V-91l0,0v0.14l0,0v0.14l0,0v0.14l0,0
			c0,0,0,0,0,0.14l0,0c0,0,0,0,0,0.14l0,0c0,0,0,0,0,0.14l0,0c0,0,0,0,0,0.14l0,0c0,0,0,0,0,0.14l0,0c0,0,0,0,0,0.14l0,0l0,0l0,0
			l0,0l0,0l0,0l0,0l0,0l0,0c0,0,0,0-0.14,0l0,0l0,0c-0.14,0.14-0.27,0.14-0.55,0.14l0,0c-0.14,0-0.14,0-0.27,0
			c-1.24,0-1.37-0.55-1.37-1.65v-0.69l-1.37,0.55v0.96c0,1.37,1.65,1.37,1.65,1.37h2.06l0,0c0,0,1.51,0,1.65-1.65v-0.14v-1.78H42.09
			z"/>
	</g>
	<g id="g5923" transform="matrix(4.124781,0,0,4.124781,289.92404,596.27995)">
		<path id="path5925" class="st1" d="M35.5-89.76v-1.92v-0.27h0.55c1.1-0.14,2.2-0.27,3.29-0.69c-0.96-0.41-2.06-0.55-3.29-0.69
			H35.5v-1.51c0,0,0,0,0-0.14l0,0c0,0,0,0,0-0.14l0,0c0,0,0,0,0-0.14l0,0l0,0c0-0.14,0.14-0.27,0.14-0.41l0,0l0,0c0,0,0,0,0-0.14
			l0,0l0,0c0.41-0.41,1.1-0.41,1.1-0.41h2.47c-0.14-0.96-1.92-0.82-1.92-0.82h-1.51l0,0l0,0c0,0,0,0-0.14,0l0,0H35.5l0,0
			c0,0-0.14,0-0.27,0l0,0c-0.14,0-0.14,0-0.27,0.14l0,0c-0.27,0.14-0.69,0.27-0.96,0.69c-0.14,0.27-0.27,0.55-0.27,1.1v2.61v3.02
			c0,1.78,1.92,1.78,1.92,1.78h1.51c0,0,1.65,0.14,1.92-0.82H36.6C36.74-88.52,35.5-88.39,35.5-89.76"/>
	</g>
	<g id="g5927" transform="matrix(4.124781,0,0,4.124781,302.42294,614.65215)">
		<path id="path5929" class="st1" d="M37.32-101.41v1.24h2.2v7.69l1.37,0.96v-8.51h0.55c1.1,0,1.78-0.27,2.61-0.55
			c-0.82-0.41-1.51-0.55-2.61-0.55L37.32-101.41z"/>
	</g>
	<g id="g5931" transform="matrix(4.124781,0,0,4.124781,281.71077,614.64802)">
		<path id="path5933" class="st1" d="M34.21-101.41h-1.37l-2.88,4.12v-0.14v-3.98l-1.37-0.96v10.71l1.37-0.96v-3.71v-0.82l3.02,4.8
			h1.51l-3.02-5.08L34.21-101.41z"/>
	</g>
	<g id="g5935" transform="matrix(4.124781,0,0,4.124781,49.256672,596.07454)">
		<path id="path5937" class="st1" d="M0.3-89.64L0.3-89.64L0.3-89.64L0.3-89.64C0.3-89.5,0.3-89.5,0.3-89.64c0,0.14,0,0.14,0,0.14
			l0,0l0,0l0,0l0,0l0,0l0,0l0,0l0,0l0,0l0,0l0,0l0,0l0,0l0,0l0,0l0,0l0,0l0,0l0,0l0,0l0,0l0,0l0,0l0,0l0,0l0,0l0,0l0,0l0,0l0,0l0,0
			l0,0l0,0l0,0l0,0l0,0l0,0l0,0l0,0l0,0l0,0l0,0l0,0l0,0l0,0l0,0l0,0l0,0l0,0l0,0l0,0l0,0c-0.14,0.14-0.27,0.14-0.55,0.14l0,0h-0.14
			c-0.82,0-1.24-0.41-1.24-1.37v-5.22c0-0.14,0-0.14,0-0.27l0,0c0-0.14,0-0.27,0.14-0.41l0,0c0,0,0-0.14,0.14-0.14c0,0,0,0,0-0.14
			l0,0l0.14-0.14l0,0l0,0l0,0l0,0l0,0l0,0l0,0h0.14l0,0l0,0l0,0l0,0l0,0l0,0l0,0l0,0l0,0l0,0l0,0l0,0l0,0l0,0l0,0l0,0l0,0l0,0l0,0
			l0,0l0,0l0,0l0,0l0,0l0,0l0,0l0,0c0.82,0,1.24,0.55,1.24,1.37v6.04H0.3z M-0.12-96.92H-1.9c0,0-0.55,0-0.96,0.27
			c-0.41,0.27-0.82,0.69-0.82,1.51v5.77c0,1.78,1.92,1.78,1.92,1.78h1.78c0,0,1.92,0,1.92-1.78v-5.77
			C1.67-96.92-0.12-96.92-0.12-96.92"/>
	</g>
	<g id="g5939" transform="matrix(4.124781,0,0,4.124781,68.253351,612.55759)">
		<path id="path5941" class="st1" d="M2.97-100.09v3.57v2.88c0,0.69-0.27,0.96-0.55,1.24c-0.27,0.14-0.55,0.14-0.55,0.14H1.46
			c0,0-1.1-0.14-1.1-1.37v-2.88l0,0v-3.43l-1.51-0.82v4.39v3.16c0,1.65,1.78,1.65,1.78,1.65h1.78c0,0,1.78-0.14,1.92-1.65v-0.14
			v-3.43v-4.12L2.97-100.09z"/>
	</g>
	<g id="g5943" transform="matrix(4.124781,0,0,4.124781,134.9424,591.63958)">
		<path id="path5945" class="st1" d="M12.84-86.88v-4.39v-0.82l4.12,5.49v-6.86c-0.14-1.51-0.27-2.33-0.55-3.43
			c-0.41,1.37-0.55,2.2-0.69,3.43v3.02l-0.27-0.41l-3.84-4.94v9.88L12.84-86.88z"/>
	</g>
	<g id="g5947" transform="matrix(4.124781,0,0,4.124781,84.204292,605.11358)">
		<path id="path5949" class="st1" d="M5.38-95.41c-1.24,0-1.51,0-1.51-1.1v-0.96v-0.14l0,0c0-0.14,0-0.27,0-0.27l0,0v-0.14l0,0l0,0
			l0,0l0,0l0,0l0,0l0,0l0,0l0,0l0,0l0,0l0,0l0,0l0,0l0,0l0,0l0,0l0,0l0,0l0,0l0,0l0,0l0,0l0,0l0,0l0,0l0,0l0,0l0,0l0,0l0,0l0,0l0,0
			l0,0l0,0l0,0l0,0l0,0l0,0l0,0l0,0l0,0l0,0l0,0l0,0l0,0l0,0l0,0l0,0l0,0l0,0l0,0l0,0l0,0l0,0l0,0l0,0l0,0l0,0l0,0l0,0l0,0l0,0l0,0
			l0,0l0,0l0,0l0,0l0,0l0,0l0,0l0,0l0,0l0,0l0,0l0,0l0,0l0,0l0,0l0,0l0,0l0,0l0,0l0,0l0,0l0,0l0,0l0,0l0,0l0,0l0,0l0,0l0,0l0,0l0,0
			l0,0l0,0l0,0l0,0l0,0l0,0l0,0l0,0l0,0c1.24,0,1.37,0.55,1.37,1.37v0.55l1.37-0.69v-0.14c0-1.65-1.51-1.65-1.51-1.65H4.14
			c0,0-0.55,0-1.1,0.27c-0.41,0.14-0.69,0.55-0.69,1.24v1.37c0,1.24,0,1.65,1.78,1.65c1.37,0,2.2,0,2.2,1.24v1.37l0,0l0,0l0,0l0,0
			l0,0v0.14l0,0v0.14l0,0v0.14l0,0c0,0,0,0,0,0.14l0,0c0,0,0,0,0,0.14l0,0c0,0,0,0,0,0.14l0,0c0,0,0,0,0,0.14l0,0c0,0,0,0,0,0.14
			c0,0,0,0,0,0.14l0,0l0,0l0,0l0,0l0,0H6.2c-0.14,0.14-0.27,0.14-0.55,0.14l0,0c-0.14,0-0.14,0-0.27,0C4.14-90.06,4-90.61,4-91.71
			v-0.69l-1.37,0.55v0.96c0,1.37,1.65,1.37,1.65,1.37h2.06l0,0l0,0l0,0l0,0l0,0l0,0l0,0l0,0l0,0l0,0l0,0l0,0l0,0l0,0l0,0l0,0l0,0
			l0,0l0,0l0,0l0,0l0,0l0,0l0,0l0,0l0,0l0,0l0,0l0,0l0,0l0,0c0.27,0,1.1-0.27,1.37-1.1l0,0l0,0l0,0l0,0l0,0l0,0l0,0l0,0l0,0l0,0l0,0
			l0,0l0,0l0,0l0,0c0-0.14,0-0.14,0-0.27v-0.14v-1.92C7.85-95.27,7.02-95.41,5.38-95.41"/>
	</g>
	<g id="g5951" transform="matrix(4.124781,0,0,4.124781,93.146817,614.09612)">
		<path id="path5953" class="st1" d="M6.73-101.05v1.24h2.2v7.55l1.37,0.96v-8.37h0.55c1.1,0,1.78-0.27,2.61-0.55
			c-0.82-0.41-1.51-0.55-2.61-0.55L6.73-101.05z"/>
	</g>
	<g id="g5955" transform="matrix(4.124781,0,0,4.124781,116.11896,609.58485)">
		<path id="path5957" class="st1" d="M10.04-98.17c0-0.14,0-0.14,0-0.27l0,0c0-0.14,0-0.27,0.14-0.41l0,0c0,0,0-0.14,0.14-0.14l0,0
			l0,0l0,0l0,0l0,0l0,0l0,0l0,0l0,0l0,0l0,0l0,0c0,0,0,0,0.14,0l0,0l0,0l0,0l0,0l0,0l0,0l0,0l0,0l0,0l0,0l0,0l0,0l0,0l0,0l0,0l0,0
			l0,0l0,0l0,0l0,0l0,0l0,0l0,0l0,0l0,0l0,0l0,0l0,0l0,0l0,0l0,0l0,0l0,0l0,0l0,0l0,0l0,0l0,0l0,0l0,0l0,0
			c0.82,0,1.24,0.55,1.24,1.37v5.22l0,0l0,0l0,0l0,0l0,0l0,0l0,0l0,0l0,0l0,0l0,0l0,0c0,0,0,0,0,0.14l0,0l0,0l0,0l0,0l0,0l0,0l0,0
			l0,0l0,0l0,0l0,0c0,0,0,0,0,0.14l0,0c0,0,0,0,0,0.14l0,0c0,0,0,0,0,0.14l0,0l0,0l-0.14,0.14l0,0l0,0l0,0
			c-0.14,0.14-0.27,0.14-0.55,0.14l0,0h-0.14c-0.82,0-1.24-0.41-1.24-1.37v-5.22H10.04z M8.53-98.44v5.77
			c0,1.78,1.92,1.78,1.92,1.78h1.78c0,0,1.92,0,1.92-1.78v-5.77c0-1.78-1.92-1.78-1.92-1.78h-1.78
			C10.46-100.22,8.53-100.22,8.53-98.44"/>
	</g>
	<g id="g5959" transform="matrix(4.124781,0,0,4.124781,32.262162,617.89092)">
		<path id="path5961" class="st1" d="M-2.2-103.46c-0.41,0.96-0.55,1.78-0.55,2.75v2.47h-0.27h-2.75v-2.47
			c0-0.96-0.27-1.78-0.55-2.75c-0.27,0.96-0.55,1.92-0.55,2.75v8.51l1.37-0.69v-3.98v-0.27h3.02v4.26l1.37,0.69v-8.51
			C-1.65-101.53-1.93-102.49-2.2-103.46"/>
	</g>
	<g id="g5963" transform="matrix(4.124781,0,0,4.124781,228.60422,575.27327)">
		<path id="path5965" class="st1" d="M26.53-76.56L26.53-76.56L26.53-76.56C26.53-76.42,26.53-76.42,26.53-76.56L26.53-76.56
			C26.53-76.42,26.53-76.42,26.53-76.56L26.53-76.56C26.53-76.42,26.53-76.42,26.53-76.56C26.53-76.42,26.53-76.42,26.53-76.56
			c0,0.14,0,0.14,0,0.14l0,0l0,0l0,0l0,0l0,0l0,0l0,0l0,0l0,0l0,0l0,0l0,0c0,0,0,0.14-0.14,0.14l0,0l-0.14,0.14l0,0l-0.14,0.14l0,0
			l-0.14,0.14l0,0c-1.1,0.96-3.57,1.65-7,2.2h-0.14c-0.14,0-0.14,0-0.27,0s-0.14,0-0.27,0c-0.14,0-0.14,0-0.27,0
			c-0.14,0-0.27,0-0.27,0H17.6c-0.14,0-0.27,0-0.55,0h-0.14c-0.14,0-0.27,0-0.41,0h-0.14c-0.14,0-0.27,0-0.41,0h-0.14
			c-0.14,0-0.41,0-0.55,0l0.14-6.45v-0.41C21.31-78.89,26.53-78.07,26.53-76.56L26.53-76.56z M10.19-72.58c-1.1,0-2.33,0-3.57,0
			s-2.47,0-3.57,0v-1.51c0-0.27,0-0.41,0-0.69c0-0.14,0-0.27,0-0.41s0-0.27,0-0.41v-0.41c0-0.14,0-0.27,0-0.41v-0.41
			c0-0.14,0-0.27,0-0.41c0-0.14,0-0.14,0-0.27c0-0.14,0-0.41,0-0.55v-0.14c0-2.88,0.14-6.04,0.27-9.47c0-0.14,0-0.27,0-0.41
			c3.02,0.41,7,1.37,7,3.57L10.19-72.58z M2.91-99.34c4.39,0.41,8.1,1.51,8.51,3.84c0,0,0,0,0,0.14l0,0l0,0l0,0l0,0l0,0l0,0l0,0l0,0
			l0,0l0,0l0,0l0,0l0,0l0,0l0,0l0,0l0,0l0,0l0,0l0,0v0.14l0,0l0,0l0,0l0,0l0,0l0,0l0,0l0,0l0,0l0,0l0,0l0,0l0,0l0,0l0,0l0,0l0,0l0,0
			l0,0c0,0.14,0,0.27-0.14,0.41v0.14c0,0.14,0,0.14-0.14,0.27v0.14c0,0.14-0.14,0.14-0.14,0.27c0,0,0,0.14-0.14,0.14l-0.14,0.14
			c0,0,0,0.14-0.14,0.14l-0.14,0.14l-0.14,0.14l-0.14,0.14l-0.14,0.14l-0.14,0.14l-0.14,0.14l0,0c-0.14,0.14-0.27,0.14-0.27,0.27
			l0,0c-0.14,0.14-0.14,0.14-0.27,0.27l0,0c-0.27,1.92-0.27,1.92-0.41,2.06l0,0c-0.14,0-0.27,0.14-0.41,0.14l0,0
			c-0.27,0.14-0.55,0.27-0.82,0.41l0,0c-0.14,0-0.27,0.14-0.41,0.14c0,0,0,0-0.14,0c-0.14,0-0.27,0.14-0.27,0.14s0,0-0.14,0
			s-0.27,0.14-0.27,0.14s0,0-0.14,0c-0.27,0.14-0.55,0.14-0.82,0.27l0,0c-0.14,0-0.27,0-0.41,0.14c0,0,0,0-0.14,0
			c0,0.14-0.14,0.14-0.27,0.14H4.42c-0.14,0-0.14,0-0.27,0H4.01c-0.14,0-0.14,0-0.27,0H3.6c-0.14,0-0.27,0-0.41,0
			c0-3.43,0-7.14-0.27-10.57C2.91-99.07,2.91-99.21,2.91-99.34 M-1.75-72.99c-0.14,0-0.27,0-0.41,0l0,0c-3.84-0.41-7-0.96-8.92-1.78
			l0,0c-0.14,0-0.14-0.14-0.27-0.14l0,0c0,0,0,0-0.14,0l0,0c-0.14,0-0.14-0.14-0.27-0.14l0,0l-0.14-0.14l0,0c0,0-0.14,0-0.14-0.14
			l0,0c0,0-0.14,0-0.14-0.14l0,0c0,0-0.14,0-0.14-0.14l0,0c0,0,0,0-0.14-0.14l0,0c0,0,0,0,0-0.14c0,0,0,0,0-0.14c0,0,0,0,0-0.14
			c0,0,0,0,0-0.14l0,0c0,0,0,0,0-0.14l0,0v-0.14v-0.14l0,0l0,0c0,0,0-0.14,0.14-0.14l0,0c0.82-1.24,6.04-2.06,11.12-2.75
			c0,1.78,0,3.84-0.14,6.04L-1.75-72.99z M15.13-79.71v-5.9c0-0.14,0-0.14,0-0.27c0,0,0,0,0-0.14s0-0.14,0-0.14s0,0,0-0.14
			s0-0.14,0-0.27l0,0c0-0.14,0-0.14-0.14-0.27l0,0c0,0,0-0.14-0.14-0.14l0,0c0,0,0-0.14-0.14-0.14l0,0
			c-0.14-0.14-0.14-0.27-0.27-0.41l0,0l-0.14-0.14l0,0l-0.14-0.14l0,0l-0.14-0.14l0,0c0,0-0.14,0-0.14-0.14c0,0,0,0-0.14,0h-0.14
			c0,0,0,0-0.14,0h-0.14h-0.14h-0.14h-0.14c0,0,0,0-0.14,0h-0.14l0,0c-0.82-0.14-1.65-0.14-2.33-0.14c-0.55,0-1.1,0.14-1.51,0.14
			c1.24-0.27,4.12-0.96,6.18-2.75c0.14-0.14,0.14-0.14,0.27-0.27l0,0c0.27-0.27,0.41-0.41,0.55-0.69c0,0,0,0,0-0.14
			s0.14-0.14,0.14-0.27v-0.14c0-0.14,0.14-0.14,0.14-0.27v-0.14c0-0.14,0.14-0.27,0.14-0.41c0,0,0-0.14,0.14-0.14
			c0,0,0-0.14,0.14-0.14c0,0,0-0.14,0.14-0.14v-0.14c0-0.14,0-0.14,0-0.27v-0.14c0-0.14,0-0.27,0.14-0.41v-0.14
			c0-0.14,0-0.14,0-0.27v-0.14c0-0.14,0-0.27,0-0.27v-0.14c0-0.14,0-0.27,0-0.55c-0.27-3.98-5.22-6.04-13.59-5.22
			c-0.14,0-0.27,0-0.41,0c-0.41-3.02-0.96-5.77-1.92-8.51c-1.1,3.57-1.78,6.45-2.2,9.06c-0.14,0-0.14,0-0.27,0
			c-5.08,0.27-8.65,1.37-8.65,1.37s4.12-0.27,8.65-0.27c-0.55,5.22,0,10.3,0,19.77c-0.14,0-0.27,0-0.41,0l0,0c-1.37,0-2.75,0-3.98,0
			l0,0c-2.75,0.14-5.35,0.41-7.28,0.96l0,0c-1.92,0.55-3.43,1.24-4.12,1.92c-0.27,0.27-0.41,0.69-0.41,1.1
			c0.14,2.2,6.73,4.39,16.2,5.08l0.41,12.77l0.69-8.65v-0.14c0-0.14,0-0.27,0-0.27l0,0c0,0,0,0,0-0.14l0,0l0,0l0,0l0,0l0,0l0,0l0,0
			l0,0l0,0l0,0l0,0l0,0l0,0l0,0l0,0l0,0l0,0l0,0l0,0l0,0l0,0l0,0l0,0l0,0l0,0l0,0l0,0l0,0l0,0l0,0l0,0l0,0l0,0l0,0l0,0l0,0l0,0l0,0
			l0,0l0,0l0,0l0,0l0,0l0,0l0,0l0,0l0,0l0,0l0,0l0,0l0,0l0,0l0,0l0,0l0,0l0,0l0,0l0,0l0,0l0,0l0,0l0,0l0,0l0,0l0,0l0,0l0,0l0,0l0,0
			l0.27,11.39l0.69-9.34v-0.14c0-0.14,0-0.27,0.14-0.41l0,0l0,0c0,0,0,0,0-0.14l0,0l0,0l0,0l0,0l0,0l0,0l0,0l0,0l0,0l0,0l0,0l0,0
			l0,0l0,0l0,0l0,0l0,0l0,0l0,0l0,0l0,0l0,0l0,0l0,0l0,0l0,0l0,0l0,0l0,0l0,0l0,0l0,0l0,0l0,0l0,0l0,0l0,0l0,0l0,0l0,0l0,0l0,0l0,0
			l0,0l0,0l0,0l0,0l0,0l0,0l0,0l0,0l0,0l0,0l0,0l0,0l0,0l0,0l0,0l0,0l0,0l0,0l0,0l0,0l0,0l0,0l0.27,11.94L1.4-71.34v-0.41
			c1.24,0,2.47,0,3.71,0s2.33,0,3.57,0l0.55,18.12l0.55-9.47v-0.14c0-0.14,0-0.27,0.14-0.41l0,0l0,0c0,0,0,0,0-0.14l0,0l0,0l0,0
			c0,0,0,0,0.14,0l0,0l0,0l0,0l0,0l0,0c0,0,0,0,0.14,0l0,0l0,0l0,0l0,0l0,0l0,0l0,0l0,0l0,0l0,0l0,0l0,0l0,0l0,0l0,0l0,0l0,0l0,0
			l0,0l0,0l0,0l0,0l0,0l0,0l0,0l0,0l0,0l0,0l0,0l0,0l0,0l0,0l0,0l0,0l0,0l0,0l0,0l0,0l0,0l0,0l0,0l0,0l0,0l0.55,13.32l0.55-11.39
			V-62c0-0.14,0-0.27,0.14-0.27v-0.14l0,0l0,0l0,0l0,0l0,0c0,0,0,0,0.14,0l0,0l0,0l0,0c0,0,0,0,0.14,0l0,0l0,0l0,0l0,0
			c0,0,0,0,0.14,0l0,0l0,0l0,0l0,0l0,0l0,0l0,0l0,0l0,0l0,0l0,0l0,0l0,0l0,0l0,0l0,0l0,0l0,0l0,0l0,0l0,0l0,0l0,0l0,0l0,0l0,0l0,0
			l0,0l0,0l0,0l0,0l0,0l0,0l0,0l0,0l0,0l0,0l0,0l0,0l0,0l0,0l0,0l0,0l0,0l0,0l0,0l0,0l0,0l0,0l2.61,17.57l0.55-25.53v-0.27l0,0
			c7.69-0.69,13.73-2.06,15.65-3.84l0.14-0.14l0,0l0.14-0.14l0,0c0,0,0-0.14,0.14-0.14c0,0,0-0.14,0.14-0.14v-0.14v-0.14
			c0,0,0,0,0-0.14v-0.14l0,0v-0.14C31.33-78.34,23.92-80.13,15.13-79.71"/>
	</g>
</g>
</svg>
