<?xml version="1.0" encoding="utf-8"?>
<!-- Generator: Adobe Illustrator 27.0.0, SVG Export Plug-In . SVG Version: 6.00 Build 0)  -->
<svg version="1.1" id="Layer_1" xmlns="http://www.w3.org/2000/svg" xmlns:xlink="http://www.w3.org/1999/xlink" x="0px" y="0px"
	 viewBox="0 0 512 512" style="enable-background:new 0 0 512 512;" xml:space="preserve">
<style type="text/css">
	.st0{fill:#FFFFFF;}
	.st1{fill:#C4CED4;}
</style>
<g id="XMLID_1_">
	<path id="XMLID_5_" class="st0" d="M195.02,288.23h11.22l-3.37,8.41L195.02,288.23z M181.7,326.24l-17.81,26.36l29.17-9.54
		l11.78,28.47l8.83-30.57l32.82,8.41l-21.04-24.68l25.52-21.18l-22.72,1.4l15.01-16.97h29.45l33.66-59.46v-39.27h-23.84
		l-11.36,20.33l-2.1,15.29l-17.11,30.43h-15.71l15.43-27.21v-38.71h-25.1l-11.08,20.19l-1.96,15.43l-26.93,48.1l4.07,10.66
		l-5.19-5.61l2.1,28.89l-31.27,1.4L181.7,326.24z"/>
	<path id="XMLID_6_" d="M54.36,255.28c-9.68,2.52-19.49,5.19-29.03,7.85c-1.12,0.28-2.1,0.7-3.09,0.98v-24.26
		c1.54-0.42,2.8-0.84,4.35-1.26c7.85-2.38,15.85-4.49,23.7-6.45c1.26-0.42,2.8-0.7,4.07-1.12v13.18c7.43-1.96,14.86-3.65,22.16-5.33
		v-16.13c-2.66-3.79-5.05-7.71-7.85-11.78c-1.82,0.42-3.79,0.98-5.61,1.4h-0.28c-15.85,3.79-31.55,7.99-47.12,12.76
		c-0.56,0.14-1.12,0.28-1.68,0.56c-1.96,0.56-3.93,1.12-5.89,1.82c-2.66,5.47-5.33,11.08-7.85,16.41v32.67
		c3.93,2.66,7.85,5.47,11.78,8.27c3.23-0.98,6.45-2.1,9.68-2.94c9.96-3.09,19.91-5.61,29.87-8.27c1.12-0.28,2.1-0.56,3.23-0.7v25.24
		c-1.26,0.28-2.8,0.7-4.07,1.12c-8.27,2.1-16.55,4.21-24.68,6.73c-1.4,0.28-2.8,0.7-4.21,1.26v-13.18
		c-7.29,2.1-14.58,4.49-21.88,6.73v16.27c2.66,3.65,5.05,7.43,7.71,11.08c1.82-0.56,3.79-1.26,5.75-1.68
		c0.7-0.28,1.26-0.42,1.96-0.56c15.85-4.91,31.83-9.26,47.96-13.04c2.1-0.56,3.93-0.98,6.03-1.4c2.66-5.19,5.19-10.52,7.85-15.57
		v-33.66c-3.93-3.09-7.85-6.31-11.78-9.26C61.51,253.6,57.87,254.58,54.36,255.28z"/>
	<path id="XMLID_7_" d="M511.95,283.19c-3.93-5.19-7.85-10.52-11.64-15.71c-3.51-1.12-7.01-2.1-10.52-3.23
		c-9.68-2.8-19.35-5.47-29.03-7.85c-1.12-0.28-2.1-0.56-3.09-0.7v-24.54c1.4,0.42,2.8,0.7,4.21,1.12c7.85,2.1,15.99,4.07,23.84,6.45
		c1.26,0.28,2.8,0.7,4.07,1.26v13.18c7.43,2.1,14.58,4.49,21.88,6.73v-16.13c-2.52-5.33-5.05-10.66-7.57-15.99
		c-1.96-0.56-3.79-1.26-5.75-1.68l-0.28-0.14c-15.57-4.91-31.27-9.26-47.12-12.9c-0.56-0.14-1.12-0.28-1.68-0.42
		c-2.1-0.56-4.07-0.98-6.03-1.54c-2.66,4.07-5.47,8.13-7.99,12.2v32.67c4.07,4.91,7.85,9.82,11.92,14.58
		c3.23,0.84,6.59,1.68,9.82,2.38c9.96,2.66,19.91,5.33,29.87,8.13c1.12,0.28,2.1,0.7,3.09,0.84v25.24c-1.26-0.28-2.8-0.7-4.07-1.26
		c-8.27-2.38-16.55-4.49-24.68-6.73c-1.4-0.28-2.8-0.7-4.21-1.12v-13.18c-7.43-1.96-14.72-3.65-22.16-5.33v16.27
		c2.52,5.05,5.05,10.24,7.85,15.43c1.82,0.28,3.93,0.84,5.75,1.26c0.7,0.14,1.26,0.28,1.82,0.42c16.13,3.93,32.25,8.13,48.1,13.18
		c2.1,0.56,3.93,1.26,5.75,1.68c2.66-3.65,7.71-11.36,7.71-11.36C511.95,316.7,511.95,294.4,511.95,283.19z"/>
	<path id="XMLID_10_" d="M155.61,216.85v28.33c-1.82,0.28-3.37,0.42-5.19,0.7c-9.68,1.26-19.35,2.66-28.89,4.21v-33.52
		c9.68-1.68,19.21-2.94,28.89-4.07c1.82-0.28,3.37-0.42,5.19-0.7V216.85z M163.6,194.98c-0.7,0.14-1.26,0.14-1.96,0.28
		c-20.9,2.38-41.79,5.61-62.4,9.54v100.27c7.43-1.54,15.01-2.8,22.44-4.07v-35.06c13.32-2.1,26.78-4.07,39.97-5.61
		c0.7-0.14,1.26-0.14,1.96-0.28c1.96-0.28,4.07-0.42,6.03-0.7c2.8-5.33,5.75-10.38,8.69-15.57v-36.04
		c-2.8-4.49-5.61-9.26-8.69-13.88C167.67,194.42,165.57,194.56,163.6,194.98L163.6,194.98z"/>
	<path id="XMLID_13_" d="M384.9,245.04c-9.82-1.54-19.63-2.94-29.45-4.07v-29.59c9.96,1.26,19.77,2.66,29.73,4.21
		c1.68,0.28,3.37,0.56,5.05,0.7v29.59C388.4,245.6,386.58,245.32,384.9,245.04z M404.67,256.26c2.66-1.12,5.33-1.96,7.99-3.09
		v-34.64c-4.77-5.47-9.4-11.08-14.16-16.55c-21.74-3.65-43.47-6.73-65.35-8.69v100.27c7.43,0.7,15.01,1.4,22.58,2.38v-39.27
		c5.75,0.7,11.64,1.54,17.39,2.24c1.82,0.28,3.93,0.56,5.75,0.7c3.93,0.56,7.71,1.26,11.64,1.68v39.27c0.42,0,0.7,0.28,1.26,0.28
		c7.15,1.26,14.16,2.38,21.32,3.65v-42.63C409.86,260.19,407.33,258.36,404.67,256.26L404.67,256.26z"/>
	<path id="XMLID_14_" d="M94.61,168.61c-3.23,0.56-6.31,1.26-9.4,1.82c-0.42,0-0.7,0.14-1.12,0.28v-7.99
		c0.42-0.14,0.98-0.14,1.26-0.28c2.66-0.56,5.19-0.98,7.85-1.54c0.42-0.14,0.98-0.14,1.4-0.28v4.21c2.38-0.28,4.77-0.84,7.29-1.26
		v-5.19c-0.84-1.4-1.68-2.66-2.66-3.93c-0.56,0.14-1.26,0.14-1.82,0.28h-0.14c-5.19,0.98-10.24,1.96-15.43,3.09
		c-0.14,0-0.42,0.14-0.56,0.14c-0.7,0.14-1.26,0.28-1.82,0.28c-0.7,1.82-1.68,3.37-2.66,5.19v10.66c1.4,0.98,2.66,1.96,3.93,3.09
		l3.23-0.7c3.23-0.7,6.45-1.26,9.68-1.96c0.42,0,0.7-0.14,1.12-0.14v8.13c-0.28,0.14-0.84,0.14-1.26,0.28
		c-2.66,0.56-5.47,1.12-8.13,1.54c-0.28,0.14-0.84,0.14-1.26,0.28v-4.21c-2.38,0.56-4.91,0.84-7.15,1.4v5.33
		c0.84,1.26,1.68,2.52,2.66,3.79c0.7-0.14,1.26-0.28,1.82-0.28c0.28,0,0.42-0.14,0.7-0.14c5.33-1.12,10.38-2.1,15.57-3.09
		c0.7-0.14,1.4-0.28,1.96-0.28c0.7-1.68,1.68-3.23,2.52-5.05v-10.94c-1.26-1.12-2.52-2.1-3.93-3.09
		C96.99,168.19,95.87,168.33,94.61,168.61z"/>
	<path id="XMLID_17_" d="M120.69,170.58c1.4-5.33,2.66-10.8,3.93-16.27c1.4,5.05,2.66,10.1,3.93,15.01
		C126.02,169.74,123.22,170.16,120.69,170.58z M119.57,151.08c-2.94,11.22-5.89,22.58-8.98,33.8c2.24-0.42,4.49-0.84,6.87-1.12
		c0.7-2.66,1.26-5.05,1.82-7.43c3.51-0.56,6.87-1.12,10.66-1.68c0.7,2.24,1.26,4.63,1.82,6.87c2.38-0.42,5.05-0.7,7.43-1.12
		c-2.94-10.38-5.89-20.75-8.98-31.13C126.58,150.1,123.22,150.66,119.57,151.08L119.57,151.08z"/>
	<path id="XMLID_18_" d="M166.69,166.51c-3.65-6.87-7.57-13.6-11.36-20.33c-2.52,0.28-5.05,0.56-7.71,0.84v32.53
		c2.1-0.28,4.35-0.56,6.45-0.7v-21.74c3.79,6.87,7.43,13.74,11.22,20.61c2.66-0.28,5.05-0.56,7.85-0.84v-32.53
		c-2.1,0.28-4.35,0.42-6.45,0.7V166.51z"/>
	<path id="XMLID_21_" d="M206.8,161.6c1.26-5.19,2.66-10.66,4.07-15.85c1.26,5.05,2.52,10.24,3.93,15.57
		C211.99,161.32,209.32,161.46,206.8,161.6z M205.68,141.97c-3.09,11.08-6.03,22.16-8.98,33.1c2.24-0.14,4.49-0.28,6.87-0.42
		c0.7-2.38,1.26-4.91,1.82-7.43c3.65-0.28,7.15-0.28,10.66-0.56c0.7,2.52,1.26,4.91,1.96,7.29c2.52-0.14,5.05-0.28,7.43-0.28
		c-2.94-10.8-6.03-21.32-8.98-32.11C212.69,141.55,209.18,141.69,205.68,141.97L205.68,141.97z"/>
	<path id="XMLID_22_" d="M255.04,162.02c-3.79-7.29-7.71-14.3-11.5-21.46c-2.52,0-5.05,0.14-7.57,0.14v32.53
		c2.1,0,4.21-0.14,6.45-0.14v-21.88c3.79,7.29,7.57,14.3,11.22,21.6h7.85v-32.25h-6.45L255.04,162.02L255.04,162.02z"/>
	<path id="XMLID_23_" d="M272.15,146.46c3.09,0,6.03,0.28,8.83,0.28v26.5c2.38,0.28,4.91,0.28,7.29,0.28v-26.64
		c2.94,0.28,6.03,0.28,8.83,0.42v-5.75c-8.41-0.42-16.69-0.7-25.1-0.84v5.75H272.15z"/>
	<path id="XMLID_24_" d="M363.58,168.75c-3.79-7.71-7.43-15.29-11.36-23c-2.66-0.28-5.05-0.56-7.71-0.7v32.39
		c2.1,0.28,4.35,0.28,6.45,0.7v-21.74c3.65,7.71,7.43,15.29,11.22,23.14c2.52,0.28,5.05,0.7,7.57,0.98V148
		c-2.1-0.28-4.21-0.56-6.45-0.84L363.58,168.75L363.58,168.75z"/>
	<path id="XMLID_25_" d="M380.41,154.31c1.96,0.28,3.65,0.56,5.47,0.84v22.44c-1.82-0.28-3.65-0.56-5.47-0.84v5.05
		c6.03,0.84,12.2,1.68,18.23,2.8v-5.05c-1.96-0.28-3.65-0.56-5.47-0.84v-22.44c1.82,0.28,3.65,0.56,5.47,0.84v-5.05
		c-6.03-0.84-12.2-1.82-18.23-2.8V154.31z"/>
	<path id="XMLID_28_" d="M326.56,150.66v19.77c-0.7,0-1.26-0.14-1.82-0.14c-2.66-0.28-5.05-0.42-7.71-0.56
		c-0.7,0-1.26-0.14-1.82-0.14V148c0.7,0,1.26,0.14,1.82,0.14c2.66,0.28,5.05,0.42,7.71,0.56c0.7,0,1.26,0.14,1.82,0.14V150.66z
		 M331.05,143.65c-0.7,0-1.26-0.14-1.96-0.14c-5.33-0.42-10.38-0.7-15.57-1.26h-0.7c-0.7,0-1.4-0.14-2.1-0.14
		c-0.98,1.4-1.82,3.09-2.8,4.49v22.86c0.98,1.54,1.82,3.37,2.8,4.91c0.7,0,1.26,0.28,2.1,0.28h0.7c5.19,0.28,10.24,0.7,15.57,1.26
		c0.7,0,1.26,0.14,1.96,0.14c0.98-1.54,1.96-3.09,2.8-4.49V148.7C333.01,147.02,332.03,145.33,331.05,143.65L331.05,143.65z"/>
	<path id="XMLID_31_" d="M427.81,164.69v19.77c-0.7-0.14-1.26-0.28-1.96-0.42c-2.52-0.56-5.05-0.84-7.57-1.4
		c-0.7-0.14-1.26-0.28-1.96-0.42v-21.74c0.7,0.14,1.26,0.28,1.96,0.42c2.52,0.56,5.05,0.98,7.57,1.54c0.7,0.14,1.26,0.28,1.96,0.28
		V164.69z M434.82,163.56c-0.84-1.68-1.82-3.65-2.66-5.47c-0.7-0.14-1.4-0.28-2.1-0.28c-5.05-1.12-10.24-2.1-15.57-3.09
		c-0.28,0-0.42-0.14-0.7-0.14c-0.7-0.14-1.26-0.28-1.96-0.42c-0.98,1.4-1.82,2.8-2.66,4.35v22.86c0.98,1.68,1.82,3.51,2.66,5.19
		c0.7,0.14,1.26,0.28,1.96,0.42c0.28,0,0.42,0,0.7,0.14c5.19,0.98,10.38,1.82,15.57,2.94c0.7,0.14,1.4,0.42,2.1,0.42
		c0.84-1.54,1.82-2.8,2.66-4.35V163.56z"/>
	<polygon id="XMLID_32_" points="217.17,226.39 190.67,273.37 195.16,284.45 211.57,284.45 203.99,303.38 190.11,288.23 
		191.65,310.53 167.25,311.65 186.74,325.12 172.86,345.59 195.16,338.44 204.27,360.46 211.28,336.48 235.97,342.79 219.98,324.27 
		239.61,308.01 219.28,309.27 241.3,284.45 270.32,284.45 302.3,227.65 302.3,193.15 284.21,193.15 273.83,211.53 272.15,226.39 
		253.64,259.49 229.24,259.49 247.47,227.51 247.47,193.29 228.67,193.29 218.72,211.53 	"/>
	<polygon id="XMLID_33_" class="st1" points="295.57,198.34 287.15,198.34 280.56,209.7 289.4,209.7 	"/>
	<polygon id="XMLID_34_" class="st1" points="240.73,198.34 231.76,198.34 225.45,209.7 234.98,209.7 	"/>
	<polygon id="XMLID_35_" class="st1" points="223.77,270.99 204.83,314.04 196.42,304.92 197.26,316.42 184.64,316.98 
		194.74,324.13 187.73,334.65 199.08,330.87 203.99,342.22 207.5,329.88 220.4,333.11 211.99,323.57 222.22,315.02 207.92,316 
		206.94,316 236.67,271.13 262.47,271.13 285.33,230.32 276.49,230.32 257.28,263.97 211.14,263.97 230.36,230.32 221.38,230.32 
		198.1,271.13 223.77,271.13 	"/>
	<polygon id="XMLID_36_" class="st1" points="232.6,214.33 224.19,214.33 223.06,224.15 231.62,224.15 	"/>
	<polygon id="XMLID_37_" class="st1" points="287.57,214.33 279.3,214.33 278.18,224.15 286.59,224.15 	"/>
	<path id="XMLID_38_" d="M200.91,326.8c2.1,0,3.79-1.54,3.79-3.65v-0.14c0-2.1-1.68-3.79-3.79-3.79l0,0c-2.1,0-3.79,1.82-3.65,3.93
		C197.26,325.12,198.94,326.66,200.91,326.8z"/>
</g>
</svg>
