<?xml version="1.0" encoding="utf-8"?>
<!-- Generator: Adobe Illustrator 26.5.0, SVG Export Plug-In . SVG Version: 6.00 Build 0)  -->
<svg version="1.1" id="Layer_1" xmlns="http://www.w3.org/2000/svg" xmlns:xlink="http://www.w3.org/1999/xlink" x="0px" y="0px"
	 viewBox="0 0 512 512" style="enable-background:new 0 0 512 512;" xml:space="preserve">
<style type="text/css">
	.st0{fill:#60666A;}
	.st1{fill:#040303;}
	.st2{fill:#FEFEFE;}
	.st3{fill:#F9A120;}
	.st4{fill:#B75A32;}
	.st5{fill:#B2B4B5;}
	.st6{clip-path:url(#SVGID_00000017494879426438570880000004140839715376484253_);fill:#E56020;}
</style>
<g>
	<path id="XMLID_41_" class="st0" d="M140.3,13.48c13.16-9.95,30.13-13.16,46.22-13.46c105.9,0,211.95,0,317.85,0
		c1.9-0.29,3.66,1.02,4.24,2.78v3.07c-37.3,157.83-74.6,315.66-112.05,473.34c-4.24,15.8-17.85,28.67-33.64,32.77H3.68v-0.44
		l-0.44-0.15v-3.07c3.22-12.29,6.14-24.57,9.36-36.86C48.14,329.87,83.54,188.28,119.09,46.69
		C122.45,33.82,129.47,21.53,140.3,13.48L140.3,13.48z"/>
	<path id="XMLID_40_" class="st1" d="M157.27,8.95c12.14-4.39,25.16-4.83,37.88-4.68c103.12,0,206.39,0,309.52,0
		c-8.19,36.42-17.26,72.7-25.6,109.12c-28.67,121.11-57.34,242.38-86.01,363.49c-4.24,18.72-22.82,33.06-41.98,32.47
		c-114.53,0-229.07,0-343.6,0C45.51,357.37,83.69,205.54,121.72,53.56c2.19-9.36,5.27-18.72,10.97-26.48
		C138.69,18.6,147.46,12.31,157.27,8.95L157.27,8.95z"/>
	<path id="XMLID_39_" class="st2" d="M396.72,479.22c37.3-157.83,74.6-315.66,112.05-473.34v506.11H363.22
		C379.02,508.04,392.47,495.16,396.72,479.22L396.72,479.22z"/>
	<path id="XMLID_38_" class="st0" d="M165.6,25.77c9.95-4.83,21.21-5.85,32.18-6c93.76,0,187.67,0,281.58,0
		c-21.06,91.27-42.27,182.55-63.34,273.97c-2.78,16.97-17.99,30.72-34.96,32.47c-3.07,0.29-6.29,0.15-9.36,0.15
		c-99.32,0-198.49,0-297.81,0c21.65-86.3,43.59-172.6,65.24-258.91c1.76-6.87,3.36-14.04,6.58-20.48
		C149.81,37.91,156.68,30.16,165.6,25.77L165.6,25.77z"/>
	<path id="XMLID_37_" class="st1" d="M169.11,28.55c8.19-3.36,17.26-4.68,26.04-4.83c93.03,0,186.06,0,279.09,0
		c-20.19,88.35-40.81,176.7-61.14,265.05c-1.02,3.95-1.61,8.19-3.22,11.99c-5.27,12.14-17.85,21.06-31.16,21.5
		c-99.91,0-199.81,0-299.72,0c21.36-84.69,42.71-169.39,64.21-254.08c1.9-7.75,3.8-15.8,7.75-22.82
		C154.78,37.91,161.36,31.91,169.11,28.55L169.11,28.55z"/>
	<path id="XMLID_36_" class="st3" d="M312.75,58.24c10.82-10.53,21.21-21.5,32.18-32.03c6.73,14.77,14.04,29.4,20.77,44.17
		c13.6-6,27.21-12.43,40.81-18.58c-3.95,17.26-8.05,34.37-11.99,51.63c15.94,6.14,31.89,12.29,47.83,18.58
		c-12.43,9.65-24.72,19.31-37.15,29.11c7.17,17.11,13.75,34.37,20.92,51.34c-13.6,1.02-27.21,1.76-40.96,2.63
		c-9.22,28.23-18.87,56.32-28.08,84.69c-1.17-0.44-2.05-1.32-2.93-2.05c-16.82-15.94-33.64-31.89-50.46-47.83
		c-7.9,4.39-15.8,8.63-23.55,13.02c0.44-5.41,1.76-10.82,2.05-16.24c-28.23,16.24-56.46,32.47-84.69,48.71
		c-18.58,10.82-37.3,21.21-55.73,32.33c2.05-2.49,4.68-4.24,7.17-6.29c26.33-21.36,52.8-42.57,79.13-63.92
		c9.22-7.61,18.87-14.92,27.94-22.82c-54.41,29.84-108.83,59.53-163.24,89.52c-2.05,1.02-3.95,2.63-6.29,2.78
		c0.73-0.44,1.46-0.73,2.19-1.17c46.66-33.79,93.32-67.58,139.98-101.37c3.51-2.49,7.02-4.83,10.39-7.61
		c-48.27,25.74-96.54,51.49-144.81,77.23c0.59-0.59,1.32-1.17,1.9-1.76c43.44-32.47,86.74-65.24,130.18-97.71
		c-18.14,9.07-36.13,18.72-54.27,28.08c-23.11,12.14-46.37,23.99-69.33,36.28c1.9-2.19,4.39-3.8,6.73-5.56
		c25.6-19.45,51.2-38.91,76.79-58.51c10.82-8.34,21.79-16.38,32.47-24.87c-35.84,19.31-71.82,38.03-107.66,57.49
		c0-0.15-0.15-0.29-0.15-0.44c36.13-28.08,72.26-56.17,108.24-84.25c-8.48-0.59-16.97-1.76-25.45-2.05
		c0.15-0.29,0.29-0.88,0.44-1.02c9.95-4.68,19.6-9.95,29.55-14.63c-0.59-0.59-1.17-1.17-1.76-1.46
		c-9.65-5.7-19.16-11.56-28.82-17.41c17.41-3.95,34.96-7.46,52.37-11.41c2.78-17.41,5.41-34.96,8.05-52.51
		c18.87,8.63,37.89,16.97,56.61,25.45C310.85,58.1,312.02,59.12,312.75,58.24L312.75,58.24z"/>
	<path id="XMLID_35_" class="st4" d="M272.97,74.04c13.31-7.75,28.82-11.26,44.17-10.97c12.87,5.85,24.72,14.04,33.5,25.16
		c-16.97-2.05-32.91-9.07-49.73-12.14C291.69,74.19,282.33,73.46,272.97,74.04L272.97,74.04z"/>
	<path id="XMLID_34_" class="st4" d="M340.25,67.46c1.61,0.15,3.07,0.29,4.53,0.88c9.22,3.66,18.14,8.63,25.6,15.36
		c-2.78,2.49-6.29,3.8-9.95,4.53C354.59,80.48,347.86,73.46,340.25,67.46L340.25,67.46z"/>
	<path id="XMLID_33_" class="st4" d="M259.8,87.35c17.11-6.29,36.28-7.02,53.68-1.61c13.9,3.95,27.79,8.63,42.27,9.22
		c2.93,4.68,5.7,9.36,7.9,14.48c-3.66-0.29-7.31-0.44-10.97-0.44c-21.21,0.15-42.57,2.49-62.9,8.48
		c-22.09,6.44-43.59,16.82-60.26,32.77c-1.17-21.21,7.02-42.57,20.92-58.51c0.88-0.73,1.46-1.9,2.49-2.34
		C255.41,89.4,257.61,88.23,259.8,87.35L259.8,87.35z"/>
	<path id="XMLID_32_" class="st4" d="M375.65,88.67L375.65,88.67c6.87,6.87,12.29,14.92,16.53,23.55
		c-6.58-1.32-13.46-1.76-20.04-2.49c-2.19-5.27-4.68-10.53-7.75-15.36C368.48,93.2,372.43,91.59,375.65,88.67L375.65,88.67z"/>
	<path id="XMLID_31_" class="st4" d="M266.82,136.5c25.16-13.16,53.54-19.02,81.77-20.19c6-0.29,11.99-0.59,17.99,0.15
		c1.61,5.41,3.07,10.82,4.1,16.38c-7.75,0.44-15.36,2.19-22.23,5.56c-12.14,5.7-22.23,14.77-32.03,23.7
		c-9.22,8.34-18.72,16.38-29.25,22.82c-11.85,7.61-24.87,13.16-38.32,17.26h-0.29c-8.48-10.39-14.48-22.82-17.11-35.98
		c1.46-1.46,2.78-3.07,4.1-4.68C243.86,150.98,254.98,142.79,266.82,136.5L266.82,136.5z"/>
	<path id="XMLID_30_" class="st4" d="M374.48,116.61c6.87,0.44,13.6,1.17,20.33,2.05c2.34,6.73,4.39,13.9,4.53,21.06
		c-6.29-4.1-13.6-6.58-21.21-6.87C377.41,127.29,376.09,121.87,374.48,116.61L374.48,116.61z"/>
	<path id="XMLID_29_" class="st4" d="M348.3,146.01c7.02-3.95,14.92-6.29,22.97-6.87c1.76,15.51-0.73,31.3-6.29,45.78
		c-8.05,20.33-22.97,38.18-42.71,48.12c-0.44,0.15-1.46,0.44-1.9,0.59c-22.97,1.76-46.37-6.44-63.19-22.09
		c7.17-1.9,13.75-5.85,20.19-9.65c17.85-10.39,32.77-24.72,47.98-38.47C332.65,157.13,339.82,150.69,348.3,146.01L348.3,146.01z"/>
	<path id="XMLID_28_" class="st4" d="M379.02,139.57c7.9,0.73,15.36,4.24,20.92,9.8c0-3.07-0.15-6.29-0.15-9.36
		c1.9,5.41,0,10.97-0.15,16.53c-1.76,21.21-12.29,41.25-27.94,55.73c-7.31,6.58-15.8,11.7-24.87,15.51
		c-1.02,0.44-2.05,0.59-3.07,0.59c9.8-8.48,17.85-19.02,23.84-30.57C376.82,179.94,380.48,159.47,379.02,139.57L379.02,139.57z"/>
	<path id="XMLID_27_" class="st2" d="M70.82,341.72c1.46-0.15,2.93-0.15,4.39-0.15c4.53,0.15,9.22,0.15,13.75-0.15
		c1.76,0.59,2.49,2.63,3.66,3.95c-1.32,3.95-1.61,8.05-3.22,11.85c-4.68,1.17-9.22,2.78-13.75,4.39c-0.44,2.19-0.88,4.39-1.61,6.58
		c0.88,1.17,1.76,2.19,2.49,3.36c-3.51,0.29-6.87,0.15-10.39,0.15c2.63-8.34,4.1-16.97,6.44-25.31
		C73.45,344.5,70.96,343.48,70.82,341.72L70.82,341.72z"/>
	<path id="XMLID_26_" class="st2" d="M123.33,342.16c3.07-1.61,6.58,0,9.8-0.73c-0.44,4.24-2.05,8.34-2.78,12.58
		c1.9-0.59,3.95-1.02,6-1.17c1.61-3.51,1.76-7.46,3.07-10.97c2.19-0.15,4.39,0,6.58-0.29c-1.61,8.78-4.1,17.26-6.14,25.89
		c-0.73,1.46,0.73,2.49,1.61,3.36c0,0.29,0.15,0.88,0.29,1.17c-3.36,0-6.58,0-9.95,0c1.17-4.39,2.34-8.78,3.07-13.31
		c-2.05,0.44-4.1,1.02-6.14,1.46c-0.15,0.59-0.29,1.61-0.29,2.05c-1.02,3.22-1.76,6.44-2.49,9.65c-2.34,0-4.68,0-7.02,0
		c2.34-8.92,4.53-17.85,6.58-26.77C124.94,344.06,124.06,343.04,123.33,342.16L123.33,342.16z"/>
	<path id="XMLID_25_" class="st2" d="M178.62,345.09c1.46-1.17,2.93-2.34,4.53-3.51c3.8-0.15,7.46,0,11.26-0.15
		c1.9,0.15,2.63,2.34,3.95,3.51c-1.76,7.61-3.66,15.07-5.41,22.67c-1.02,1.76-3.07,2.78-4.68,4.1c-4.24,0-8.34,0.15-12.58,0
		c-0.88-1.32-1.76-2.49-2.63-3.66C174.96,360.45,176.72,352.69,178.62,345.09L178.62,345.09z"/>
	<path id="XMLID_24_" class="st2" d="M230.26,341.58c6.44,0,13.02,0.15,19.45-0.15c-0.59,2.78-1.17,5.56-2.05,8.19
		c-0.73-0.73-1.46-1.61-1.9-2.49c-2.63-0.44-5.27-0.29-7.9,0c-0.44,2.34-1.02,4.68-1.46,6.87c2.19,0,4.24,0,6.44,0
		c-0.44,1.76-0.88,3.51-1.17,5.27c-2.19,0-4.39,0-6.58,0c-0.59,2.49-1.32,4.97-1.9,7.61c2.49,0,5.12,0,7.61,0
		c1.17-1.02,2.19-2.34,3.8-2.78c-0.29,2.63-1.17,5.12-1.76,7.75c-6,0-11.85,0-17.85,0c2.49-8.92,4.53-17.85,6.58-26.91
		c-0.73-0.88-1.46-1.76-2.19-2.63L230.26,341.58L230.26,341.58z"/>
	<path id="XMLID_23_" class="st2" d="M283.06,341.58c5.27,0.15,10.53,0,15.8,0.15c1.46,0.59,2.19,2.34,3.22,3.36
		c-1.46,7.46-3.66,14.77-5.27,22.09c-0.73,1.61,0.59,2.63,1.61,3.51c0,0.29,0,0.88,0,1.17c-3.22,0-6.44,0-9.65,0
		c2.19-8.19,3.95-16.53,6.29-24.72c-2.19-0.15-4.39-0.15-6.58,0c-1.61,8.34-4.24,16.38-5.7,24.72c-2.34,0-4.68,0-7.02,0
		C278.23,361.76,280.43,351.52,283.06,341.58L283.06,341.58z"/>
	<path id="XMLID_22_" class="st2" d="M333.96,341.58c3.22,0,6.58,0,9.8-0.29c-2.19,8.92-4.24,17.99-6.73,26.91
		c0.88,1.17,1.61,2.19,2.34,3.36c-3.36,0.15-6.73,0.15-10.24,0c1.61-4.53,2.34-9.51,3.66-14.19c0.88-3.66,1.76-7.31,2.78-10.97
		C336.74,344.5,334.11,343.48,333.96,341.58L333.96,341.58z"/>
	<path id="XMLID_21_" class="st2" d="M374.63,341.87c3.36-0.59,6.73-0.15,10.09-0.29c0.59,3.07,1.46,6,2.19,9.07
		c2.19-2.93,4.24-5.85,6.58-8.78c2.05-1.17,4.68,0,7.02-0.29c-4.1,5.12-8.05,10.39-11.99,15.51c1.32,3.8,2.34,7.46,3.51,11.26
		c1.02,1.32,3.07,1.61,3.8,3.22c-3.36,0.15-6.58,0.15-9.95,0.15c-0.73-2.93-1.61-5.7-2.05-8.63c-2.19,2.93-4.39,5.85-6.44,8.63
		c-2.34,0-4.68,0.15-7.02-0.29c4.24-4.39,7.61-9.51,11.41-14.19c-0.15-3.66-1.9-7.02-2.63-10.68
		C378.72,344.21,375.94,343.62,374.63,341.87L374.63,341.87z"/>
	<path id="XMLID_20_" class="st1" d="M185.06,346.84c2.05,0,3.95,0,6,0c-1.61,6.73-3.22,13.46-4.97,20.04c-2.05,0-3.95-0.15-6,0
		C181.84,360.3,183.3,353.57,185.06,346.84L185.06,346.84z"/>
	<path id="XMLID_19_" class="st1" d="M79.3,346.99c2.05,0,3.95,0,6,0c-0.73,2.34-1.02,4.68-1.9,6.87c-2.05,0.44-3.95,1.02-6,1.76
		C77.69,352.69,78.57,349.91,79.3,346.99L79.3,346.99z"/>
	<path id="XMLID_18_" class="st2" d="M57.51,395.99c4.83-3.95,9.51-8.48,14.77-11.85c16.97,0,34.08,0,51.05,0
		c3.07,3.95,6,8.05,8.78,12.14c-2.63,7.9-4.1,16.09-6.29,24.14c-7.9-3.07-15.51-6.73-23.11-10.39c4.68-1.17,9.22-2.63,13.75-4.1
		c0.73-2.63,1.32-5.12,2.05-7.75c-1.61-2.19-3.22-4.39-4.97-6.58c-11.12,0-22.23,0-33.2,0c-4.39-0.59-6.58,4.24-10.39,5.7
		C65.84,397.01,61.75,395.99,57.51,395.99L57.51,395.99z"/>
	<path id="XMLID_17_" class="st2" d="M139.13,384.73c10.97,0,21.94,0,32.91,0c-7.17,28.38-14.19,56.9-21.5,85.28
		c-0.29,0.73-0.44,1.46-0.73,2.34c7.9,0.44,15.8-0.59,23.7,0.29c3.51,1.9,6.73,4.24,10.09,6.44c-13.75,0.15-27.5,0.15-41.25,0
		c-2.05-1.76-3.51-4.24-5.12-6.29c6.73-27.06,13.75-54.12,20.33-81.18c-6.73-1.61-13.46-3.66-20.33-4.68
		C137.81,386.04,138.54,385.46,139.13,384.73L139.13,384.73z"/>
	<path id="XMLID_16_" class="st5" d="M194.71,384.87L194.71,384.87c3.95,2.05,7.75,4.24,11.56,6.73
		c-7.31,29.25-14.77,58.36-22.09,87.62c3.07,2.05,6.44,3.95,9.51,6.14c-20.77,0.15-41.54,0-62.31,0c-2.49-3.66-5.27-7.02-7.61-10.68
		c6.73-26.33,13.31-52.8,20.04-79.13c-2.19-2.93-4.24-5.85-6.44-8.63c6.87,1.02,13.6,3.07,20.33,4.68
		c-6.58,27.06-13.6,54.12-20.33,81.18c1.61,2.19,2.93,4.68,5.12,6.29c13.75,0.15,27.5,0.15,41.25,0c-3.36-2.19-6.58-4.53-10.09-6.44
		c-7.9-0.88-15.8,0.15-23.7-0.29c0.29-0.73,0.44-1.46,0.73-2.34c-0.15,0.44-0.29,1.46-0.29,1.9c7.61-0.29,15.21,0.44,22.82-0.29
		C179.94,442.65,187.69,413.84,194.71,384.87L194.71,384.87z"/>
	<path id="XMLID_15_" class="st2" d="M194.86,384.87c8.63-0.29,17.26,0,26.04-0.15c-8.34,33.79-17.11,67.58-25.45,101.37
		c-20.04-0.15-40.08,0-60.12-0.15c-1.32-0.15-2.93,0.44-3.95-0.73c20.77-0.15,41.54,0,62.31,0c-3.07-2.19-6.29-4.1-9.51-6.14
		c7.31-29.25,14.77-58.36,22.09-87.62C202.46,389.12,198.66,386.92,194.86,384.87L194.86,384.87z"/>
	<path id="XMLID_14_" class="st5" d="M231.43,388.82c0.44-1.61,0.59-3.36,1.61-4.83c3.22,2.93,7.17,5.12,10.97,7.31
		c13.9,0.29,27.79-0.15,41.69,0.15c2.19,1.76,3.51,4.24,5.12,6.44c-6.87,27.06-13.75,53.98-20.33,81.04
		c6.58,1.61,13.02,3.51,19.75,4.53c0.15,0,0.44,0.15,0.59,0.29c-1.02,0.73-1.9,2.19-3.22,2.05c-10.68,0-21.21,0.15-31.89,0
		c7.46-28.96,14.48-58.22,22.09-87.18c-7.02,0-14.04,0-21.21,0c-0.73,0-1.32,0.15-1.9,0.59c-3.22-2.93-7.17-4.97-10.82-7.46
		c-7.61,28.96-14.77,58.22-22.23,87.18c3.8,2.19,7.46,4.53,11.12,6.87c-8.63,0-17.26,0-25.89,0
		C214.9,453.48,223.53,421.15,231.43,388.82L231.43,388.82z"/>
	<path id="XMLID_13_" class="st2" d="M233.18,384c0.73,0.15,2.34,0.44,3.07,0.59c3.22-0.73,7.02-0.73,10.24,0
		c1.32-0.88,2.93-0.29,4.24-0.44c6.58,0.15,13.31-0.15,19.89,0.15l0.59,0.29c2.34-1.02,5.12-0.15,7.75-0.44
		c2.19,0.15,4.68-0.59,6.87,0.44c3.22-1.02,6.73-0.29,10.09,0c2.78,3.8,5.56,7.61,8.19,11.56c-3.66,12.58-6.44,25.31-9.65,38.03
		c-3.51,13.6-6.73,27.35-10.53,40.81c2.05,2.78,4.24,5.56,6.29,8.48c-6.73-1.02-13.16-2.93-19.75-4.53
		c6.58-27.06,13.6-53.98,20.33-81.04c-1.76-2.19-2.93-4.68-5.12-6.44c-13.9-0.29-27.79,0.15-41.69-0.15
		C240.35,389.12,236.4,386.92,233.18,384L233.18,384z"/>
	<path id="XMLID_12_" class="st2" d="M328.84,385.31c1.46-1.46,4.24-1.46,6-0.73c3.51-1.02,7.46-0.15,11.12-0.44
		c3.66,0.29,7.61-0.59,11.12,0.44c1.17-0.88,2.93-0.29,4.24-0.44c6.58,0,13.31,0,19.89,0c1.9,0.88,2.63,3.07,3.95,4.53
		c1.61,2.49,3.8,4.68,4.97,7.31c-2.19,8.19-3.95,16.38-6.29,24.57c-7.31-3.95-15.36-6.87-22.82-10.68
		c4.53-1.46,9.51-2.34,13.75-4.53c0.88-2.34,1.32-4.97,2.05-7.46c-1.76-2.05-2.93-5.12-5.27-6.58c-11.12-0.29-22.23,0-33.35-0.15
		c-4.24-0.29-6.44,4.68-10.24,5.7c-3.8-0.44-7.75-0.15-11.26-1.76C320.51,391.9,324.75,388.68,328.84,385.31L328.84,385.31z"/>
	<path id="XMLID_11_" class="st5" d="M69.94,397.01c3.8-1.32,6-6.14,10.39-5.7c11.12,0,22.23,0,33.2,0
		c1.76,2.19,3.36,4.39,4.97,6.58c-0.59,2.63-1.32,5.12-2.05,7.75c-4.53,1.46-9.07,2.93-13.75,4.1c1.02-3.8,1.9-7.46,2.93-11.26
		c-7.61,0.15-15.21-0.29-22.82,0.29c-4.24-0.44-8.34-1.17-12.58-1.32c-2.19,9.51-5.12,18.72-6.87,28.38
		c14.63,6.14,29.25,12.29,43.88,18.43c-2.34,9.65-4.97,19.16-7.17,28.82c4.1,0.59,8.05,1.02,12.14,1.46
		c-4.53,3.95-9.22,7.75-13.9,11.41c-9.65,0.73-19.31,0.15-28.96,0.44c-7.46-0.29-14.92,0-22.38,0c-1.32-0.15-1.9-1.61-2.63-2.49
		c-2.05-3.07-4.39-6-6.44-9.07c1.9-8.05,3.8-16.09,6.14-23.84c3.51,4.1,6.29,8.78,9.22,13.31c0,2.78-1.17,5.56-1.76,8.19
		c1.61,2.19,2.93,4.53,4.97,6.29c11.7,0.15,23.55,0.15,35.25,0c3.07-0.88,5.27-3.66,7.9-5.56c-4.24-0.29-8.48-1.02-12.87-1.32
		c2.05-7.9,3.95-15.65,6-23.55c-14.63-6.29-29.25-12.14-43.74-18.43c2.93-11.26,5.85-22.67,8.63-33.94
		C61.75,395.99,65.84,397.01,69.94,397.01L69.94,397.01z"/>
	<path id="XMLID_10_" class="st5" d="M327.97,397.01c3.8-0.88,6-6,10.24-5.7c11.12,0.15,22.23-0.15,33.35,0.15
		c2.34,1.46,3.51,4.39,5.27,6.58c-0.59,2.49-1.02,4.97-2.05,7.46c-4.24,2.19-9.22,3.07-13.75,4.53c0.88-3.8,2.05-7.46,2.78-11.26
		c-7.61-0.15-15.07,0-22.67,0c-4.24-0.15-8.48-0.88-12.58-1.17c-2.34,9.36-4.68,18.87-7.17,28.23c14.63,6.44,29.4,12.43,44.03,18.58
		c-2.19,9.65-4.68,19.31-7.31,28.82c3.95,0.88,8.05,0.88,12.14,1.76c-4.68,3.8-9.22,7.61-13.9,11.41c-10.09,0.29-20.04,0-30.13,0.29
		c-7.31-0.44-14.77,0.44-22.09-0.29c-2.78-3.95-5.7-7.61-8.19-11.56c2.34-8.05,4.1-16.09,6.14-24.14c1.46,0.29,2.93,0.88,4.1,1.9
		c-0.88-0.29-2.78-0.88-3.66-1.17c3.07,4.39,6.29,8.63,8.92,13.31c-0.15,2.78-1.17,5.41-1.76,8.19c1.46,2.19,3.07,4.24,4.68,6.29
		c11.12,0.15,22.23,0,33.35,0.15c4.24,0.59,6.87-3.36,10.09-5.56c-4.24-0.29-8.48-0.88-12.73-1.32c1.9-7.9,3.95-15.65,5.85-23.55
		c-14.63-6.14-29.25-12.14-43.74-18.43c3.22-11.56,5.7-23.26,9.07-34.81l0.44,0.15C320.07,396.87,324.16,396.58,327.97,397.01
		L327.97,397.01z"/>
	<path id="XMLID_9_" class="st2" d="M244.01,391.9c3.66,2.34,7.61,4.39,10.82,7.46c-7.17,28.96-14.63,57.78-21.79,86.59
		c-3.66-2.34-7.46-4.53-11.12-6.87C229.23,449.97,236.55,420.86,244.01,391.9L244.01,391.9z"/>
	<path id="XMLID_8_" class="st2" d="M70.23,397.6c4.24,0.15,8.34,0.88,12.58,1.32c-1.61,7.75-3.95,15.51-5.7,23.26
		c13.02,5.56,26.04,10.97,39.06,16.38c1.61,0.59,3.22,1.17,4.53,2.19c-2.93,11.26-5.85,22.53-8.48,33.94
		c-4.1-0.44-8.19-0.73-12.14-1.46c2.19-9.65,4.83-19.16,7.17-28.82c-14.63-6.14-29.25-12.29-43.88-18.43
		C65.11,416.32,68.04,407.11,70.23,397.6L70.23,397.6z"/>
	<path id="XMLID_7_" class="st2" d="M328.55,397.45c4.24,0.29,8.34,1.02,12.58,1.17c-1.9,7.9-3.95,15.65-5.85,23.4
		c14.63,6.14,29.25,12.29,43.74,18.43c-3.07,11.41-5.7,22.82-8.78,34.23c-3.95-0.88-8.05-0.88-12.14-1.76
		c2.63-9.51,5.12-19.16,7.31-28.82c-14.63-6.14-29.55-12.14-44.03-18.58C323.87,416.32,326.21,406.82,328.55,397.45L328.55,397.45z"
		/>
	<path id="XMLID_6_" class="st2" d="M43.61,450.4c5.12,1.61,9.8,4.53,14.77,6.44c2.78,1.46,6,2.49,8.63,4.39
		c-1.46,3.36-2.05,7.17-2.93,10.68c7.46,0,15.07,0,22.53,0c4.24,0.29,8.48,1.02,12.87,1.32c-2.63,1.76-4.83,4.68-7.9,5.56
		c-11.7,0-23.55,0.15-35.25,0c-2.05-1.76-3.36-4.1-4.97-6.29c0.59-2.78,1.76-5.41,1.76-8.19c-2.93-4.53-5.7-9.22-9.22-13.31
		L43.61,450.4L43.61,450.4z"/>
	<path id="XMLID_5_" class="st2" d="M302.52,450.99c0.88,0.29,2.78,0.88,3.66,1.17c6.29,2.63,12.43,5.85,18.87,8.48
		c-0.59,3.8-1.9,7.61-2.63,11.41c7.61,0,15.07,0,22.67,0c4.24,0.44,8.48,1.02,12.73,1.32c-3.07,2.19-5.85,6.14-10.09,5.56
		c-11.12-0.15-22.23,0-33.35-0.15c-1.61-2.05-3.07-4.1-4.68-6.29c0.59-2.78,1.76-5.41,1.76-8.19
		C308.8,459.77,305.73,455.38,302.52,450.99L302.52,450.99z"/>
	<polygon id="XMLID_4_" class="st5" points="3.24,511.4 3.68,511.55 3.68,511.99 3.24,511.99 	"/>
	<g id="XMLID_2_">
		<g>
			<defs>
				<path id="SVGID_1_" d="M229.09,147.91c0,47.25,38.32,85.57,85.57,85.57s85.57-38.32,85.57-85.57s-38.32-85.57-85.57-85.57
					C267.41,62.49,229.09,100.66,229.09,147.91"/>
			</defs>
			<clipPath id="SVGID_00000094605813721567200330000009470502843600778402_">
				<use xlink:href="#SVGID_1_"  style="overflow:visible;"/>
			</clipPath>
			<path id="XMLID_42_" style="clip-path:url(#SVGID_00000094605813721567200330000009470502843600778402_);fill:#E56020;" d="
				M306.32,219.44c45.93,9.8,91.27-19.45,100.93-65.53c9.8-45.93-19.45-91.28-65.53-101.08c-45.93-9.8-91.13,19.45-101.08,65.53
				C230.99,164.44,260.39,209.64,306.32,219.44"/>
		</g>
	</g>
	<path id="XMLID_43_" class="st1" d="M316.85,62.78c7.31,0.44,14.63,1.32,21.5,3.51c0.73,0.29,1.32,0.73,1.9,1.17
		c7.61,5.85,14.33,12.87,20.19,20.77c3.66-0.73,7.17-2.05,9.95-4.53c2.05,1.32,3.66,3.22,5.27,4.97c-3.22,2.93-7.17,4.53-11.26,5.7
		c3.07,4.83,5.56,10.09,7.75,15.36c6.73,0.73,13.46,1.17,20.04,2.49c0.88,2.19,1.9,4.24,2.63,6.44c-6.73-1.02-13.6-1.76-20.33-2.05
		c1.61,5.27,2.93,10.82,3.8,16.24c7.61,0.29,14.92,2.78,21.21,6.87l0.29,0.15c0,3.07,0.15,6.29,0.15,9.36
		c-5.56-5.56-13.02-9.22-20.92-9.8c1.46,20.04-2.19,40.37-11.41,58.22c-6,11.56-14.04,22.09-23.84,30.57
		c-6.58,3.07-14.19,4.53-21.36,4.83c19.6-9.95,34.67-27.79,42.71-48.12c5.56-14.48,8.05-30.43,6.29-45.78
		c-8.05,0.59-15.94,2.78-22.97,6.87c-8.48,4.68-15.65,11.12-22.97,17.41c-15.21,13.75-30.28,28.08-47.98,38.47
		c-6.44,3.8-13.02,7.75-20.19,9.65c-3.07-3.07-6.14-6-8.63-9.51c13.46-3.95,26.48-9.65,38.32-17.26
		c10.53-6.58,20.19-14.48,29.25-22.82c9.95-8.92,19.89-17.99,32.03-23.7c6.87-3.36,14.63-5.12,22.23-5.56
		c-0.88-5.56-2.49-10.97-4.1-16.38c-6-0.59-11.99-0.29-17.99-0.15c-28.23,1.17-56.61,7.02-81.77,20.19
		c-11.99,6.29-23.11,14.48-31.6,25.01c-1.32,1.61-2.63,3.22-4.1,4.68c-0.88-5.27-1.46-10.39-1.61-15.8
		c16.82-16.09,38.18-26.33,60.26-32.77c20.48-5.85,41.69-8.19,62.9-8.48c3.66,0,7.31,0.15,10.97,0.44c-2.05-5.12-4.97-9.8-7.9-14.48
		c-14.48-0.59-28.38-5.27-42.27-9.22c-17.41-5.41-36.57-4.68-53.68,1.61c-2.34,0.88-4.39,2.05-6.87,2.19
		c5.7-6.29,12.58-11.56,20.04-15.51c9.36-0.59,18.72,0.15,27.94,2.05c16.82,3.07,32.77,10.09,49.73,12.14
		c-8.78-11.12-20.62-19.45-33.5-25.16L316.85,62.78L316.85,62.78z"/>
</g>
</svg>
