<?xml version="1.0" encoding="utf-8"?>
<!-- Generator: Adobe Illustrator 26.5.0, SVG Export Plug-In . SVG Version: 6.00 Build 0)  -->
<svg version="1.1" id="Layer_1" xmlns="http://www.w3.org/2000/svg" xmlns:xlink="http://www.w3.org/1999/xlink" x="0px" y="0px"
	 viewBox="0 0 512 512" style="enable-background:new 0 0 512 512;" xml:space="preserve">
<style type="text/css">
	.st0{fill:#1E3160;}
	.st1{fill:#FFFFFF;}
	.st2{fill:#0A7EC2;}
	.st3{fill:#F05333;}
	.st4{fill:#FCBB30;}
</style>
<g id="XMLID_1_">
	<path class="st0" d="M86.13,216.02l14.19-7.02L40.34,85.97l14.19-6.88L47.66,64.9L4.94,85.68l6.88,14.19l14.19-6.88L86.13,216.02z
		 M117.73,200.66l15.07-4.83l-21.21-65.1l15.07-4.83l21.21,65.1l15.07-4.83L115.68,40.91l-15.07,4.83l21.21,65.1l-15.07,4.68
		l-21.21-65.1l-15.07,4.83L117.73,200.66z M197.31,25.11l-15.65,2.49l21.36,135.17l-15.65,2.49L166.01,30.08l-15.65,2.49
		l20.33,128.74c2.05,12.87,14.34,21.8,27.21,19.75c12.87-2.05,21.8-14.34,19.75-27.21L197.31,25.11z M230.52,175.06l15.8,0.29
		l0.73-44.33c0.29-13.46-0.59-40.67-1.17-53.54h0.44c4.1,34.09,11.7,65.83,16.68,98.02l14.92,0.29l2.63-152.73l-15.8-0.29
		l-0.73,44.33c-0.29,13.46,0.59,40.67,1.17,53.54h-0.44c-4.1-34.09-11.7-65.83-16.68-98.02l-14.92-0.29L230.52,175.06z
		 M289.77,176.08l31.31,4.97c8.63,1.32,16.68-4.54,18.14-13.17l19.02-119.67c1.32-8.63-4.54-16.68-13.17-18.14l-31.31-4.97
		L289.77,176.08z M326.78,43.4l15.65,2.49l-18.87,119.67l-15.65-2.49L326.78,43.4z M438.11,55.69l-30.14-9.8
		c-8.34-2.78-17.26,1.76-19.9,10.09l-37.45,115.13c-2.78,8.34,1.9,17.26,10.09,19.9l30.14,9.8l4.83-15.07l-30.14-9.8l16.24-50.03
		l22.53,7.31l4.83-15.07l-22.53-7.31l16.24-50.03l30.14,9.8L438.11,55.69z M398.03,204.17l67.15-137.66l28.53,13.9
		c7.9,3.8,11.12,13.31,7.31,21.21l-24.72,50.76c-3.22,6.58-8.78,9.36-14.92,6.29L444.4,226.7l-14.34-7.02l16.97-68.03l-4.68-2.19
		l-30.14,61.74L398.03,204.17z M472.49,87.72l-23.11,47.4l14.34,7.02l23.11-47.4L472.49,87.72z"/>
	<path id="XMLID_29_" class="st1" d="M98.13,427.85c-1.61-0.15-3.22-0.44-4.68-0.88c-15.95-6.88-7.61-23.41-2.93-34.23
		c6.14-13.9,12.43-27.65,19.02-41.25c-34.53,10.83-68.03,22.09-100.65,33.94c-8.19,3.51-13.17-2.05-3.66-7.61
		c33.06-21.07,69.49-40.23,108.84-57.05c-9.66-20.04-17.41-41.55-22.97-64.52l-4.54-18.14c57.2-29.4,105.48-45.64,170.28-45.64
		s113.23,16.24,170.28,45.64c-1.02,4.39-2.19,8.78-3.36,13.02c28.38-1.02,56.03-0.44,82.66,1.61c6.44,0.44,6.44,7.75,0.29,8.48
		c-29.55,4.24-59.69,9.07-90.26,14.63c-1.9,5.85-3.95,11.56-6,17.26c32.62-6.88,64.52-11.56,95.38-14.04
		c7.9-0.73,8.05,6.88,1.61,8.34c-36.13,11.12-73,23.41-110.3,36.87c-31.75,65.69-78.27,109.57-140.29,146.73
		c-27.5-16.53-52.67-34.96-75.78-57.35c-50.91,23.85-99.77,48.72-146,74.32c-7.02,4.39-13.31,0.59-4.83-6.88
		C51.02,462.53,73.7,444.68,98.13,427.85"/>
	<path class="st2" d="M32.88,484.18c29.26-25.89,62.32-50.62,98.6-73.29c6.88-3.51,13.61-6.88,20.48-10.24
		c2.78-1.46,8.34-4.1,15.36-7.46c4.68,5.27,9.51,10.39,14.48,15.36C129.87,432.68,79.99,457.99,32.88,484.18 M403.59,298.97
		c35.11-7.75,69.34-13.02,102.55-15.65c-36.72,11.26-74.17,23.7-112.06,37.45C397.44,313.75,400.52,306.43,403.59,298.97"/>
	<path class="st3" d="M7.28,381.48c34.09-21.65,71.68-41.4,112.35-58.52c1.32,2.78,2.78,5.41,4.24,8.05
		c-2.19,4.54-4.39,8.92-6.58,13.46C79.55,356.17,42.83,368.61,7.28,381.48 M418.07,255.67c30.28-1.32,59.69-0.73,88.07,1.46
		c-30.43,4.24-61.44,9.36-93.04,15.07C414.85,266.79,416.46,261.23,418.07,255.67"/>
	<path class="st1" d="M256.71,207.24c57.35,0,102.4,13.46,153.17,38.77c-24.87,93.63-70.37,156.53-153.17,207.59
		c-31.16-19.16-57.49-40.67-79.58-65.1c9.8-4.68,20.92-9.95,30.58-14.48c3.95,0.29,7.75,0.59,11.26,0.59
		c-0.15,5.41-1.9,9.36-4.68,12.14c1.61,1.76,3.22,3.66,4.83,5.41c4.24-3.8,7.02-9.51,7.31-17.56c10.09-0.15,19.75-1.17,28.82-3.07
		c-0.59,14.78-2.63,25.6-6.73,29.99c-0.15,0.15-0.29,0.29-0.29,0.44c-1.02,1.17-2.05,2.05-2.78,2.78c4.1-0.73,8.05-1.76,12-2.78
		c5.12-10.53,5.12-28.82,5.27-32.04c9.36-2.34,17.7-4.68,25.31-7.31c0.29,8.63,3.8,16.82,10.39,19.9c2.93-2.05,5.85-4.24,8.63-6.58
		c-1.61,0.29-12.14,1.02-12-15.8c22.09-8.34,36.43-18.29,49.01-33.21c3.36-7.46,6-15.36,7.9-23.55
		c-15.07,23.85-28.97,37.74-56.18,48.57c0.73-4.83,2.19-10.53,4.39-17.41c7.9-3.36,16.24-7.31,21.21-9.36l11.85-12.43
		c2.93-11.56,6-23.11,8.92-34.53l-9.22,2.93l10.97-11.41c2.34-9.07,4.54-17.99,6.73-27.06c-5.41,0.73-10.97,1.61-16.38,2.49
		c0.88-4.54,1.61-8.92,1.9-13.46c-2.63-0.73-5.27-1.32-7.9-1.9c-0.59,4.97-1.61,10.53-3.07,16.82l-0.73,0.15
		c-5.12,0.88-10.39,2.49-14.92,6.44l1.46-4.39c-8.78,1.61-17.56,3.22-26.33,4.97l-8.78,9.22l0.29-0.73l2.78-7.31
		c-8.63,1.76-17.41,3.66-26.04,5.56c-1.76-11.7-3.66-22.24-5.27-30.87c-2.49,0.29-4.97,0.59-7.31,1.02
		c1.61,8.63,3.51,19.46,5.27,31.45l-6.14,1.32l-7.75,8.19c-5.41-5.85-16.53-2.19-23.55-0.44c-7.61,1.9-15.21,3.95-22.68,6
		c-2.19,0.59-4.54,1.32-6.73,2.05c-5.71-8.19-10.97-16.53-15.36-25.75l-0.73-1.76c-2.34,0.88-4.54,1.9-6.88,2.93l1.02,2.05
		c4.24,8.92,9.51,17.12,15.07,25.16c-8.19,3.66-15.65,8.63-22.24,15.8c0,0-10.68,11.12-11.85,12.43c-2.78,3.22-5.12,6.58-7.17,9.95
		c-11.12-22.38-20.04-46.81-26.63-73.59C154.3,220.7,199.36,207.24,256.71,207.24 M262.42,349c5.27-2.34,10.53-4.68,15.8-6.88
		l2.49-2.63c1.02,0.15,2.19,0.15,3.51,0.15c2.05-0.29,4.54-1.02,7.31-2.05c-1.76,6.44-2.78,12-3.36,16.97
		c-7.46,2.63-15.95,5.12-25.45,7.61C262.71,357.93,262.56,353.54,262.42,349 M225.84,365.39l4.97-2.34l12.73-10.24l2.78-7.75
		c1.9,3.66,2.78,5.12,4.68,8.92l4.24-1.9c0.15,4.1,0.29,7.9,0.29,11.7c-9.22,2.05-19.02,3.22-29.26,3.36L225.84,365.39z"/>
	<path class="st3" d="M287.58,226.41c12.14,0,24.14,0.59,35.84,1.9c8.92,1.9,17.85,4.1,26.63,6.88c3.36,11.7,5.12,24.14,5.12,37.01
		c0,10.68-1.17,20.92-3.51,30.87c-15.07,23.85-28.97,37.74-56.18,48.57c0.73-4.83,2.19-10.53,4.39-17.41
		c7.9-3.36,16.24-7.31,21.21-9.36l11.85-12.43c2.93-11.56,6-23.11,8.92-34.53l-9.22,2.93l10.97-11.41
		c2.34-9.07,4.54-17.99,6.73-27.06c-5.41,0.73-10.97,1.61-16.38,2.49c0.88-4.54,1.61-8.92,1.9-13.46c-2.63-0.73-5.27-1.32-7.9-1.9
		c-0.59,4.97-1.61,10.53-3.07,16.82l-0.73,0.15c-5.12,0.88-10.39,2.49-14.92,6.44l1.46-4.39c-8.78,1.61-17.56,3.22-26.33,4.97
		l-8.78,9.22l0.29-0.73l2.78-7.31c-8.63,1.76-17.41,3.66-26.04,5.56c-1.76-11.7-3.66-22.24-5.27-30.87
		C260.66,227.14,274.12,226.41,287.58,226.41 M343.9,326.62c-8.48,19.16-21.21,35.84-37.01,49.01c-1.61,0.29-12.14,1.02-12-15.8
		C316.98,351.64,331.32,341.54,343.9,326.62 M298.26,382.36c-12.29,8.63-26.04,15.21-40.82,19.46c5.12-10.53,5.12-28.82,5.27-32.04
		c9.36-2.34,17.7-4.68,25.31-7.31C288.16,371.09,291.67,379.28,298.26,382.36 M245.45,404.59c-4.1,0.73-8.34,1.32-12.58,1.76
		c-4.68-4.54-9.22-9.22-13.61-14.04c4.24-3.8,7.02-9.51,7.31-17.56c10.09-0.15,19.75-1.17,28.82-3.07
		c-0.44,14.78-2.63,25.6-6.73,29.99c-0.15,0.15-0.29,0.29-0.29,0.44C247.2,402.98,246.18,403.86,245.45,404.59 M214.28,386.75
		c-3.22-3.8-6.44-7.61-9.51-11.41l2.93-1.32c3.95,0.29,7.75,0.59,11.26,0.59C218.82,380.02,217.06,383.97,214.28,386.75
		 M156.06,290.63c-4.1-10.39-7.75-21.07-10.83-32.04c3.36-1.61,6.88-3.22,10.39-4.68l1.02,2.05c4.24,8.92,9.51,17.12,15.07,25.16
		C166.01,283.61,160.89,286.68,156.06,290.63 M162.35,251.13c25.31-10.39,51.2-17.56,77.83-21.36c1.61,8.63,3.51,19.46,5.27,31.45
		l-6.14,1.32l-7.75,8.19c-5.41-5.85-16.53-2.19-23.55-0.44c-7.61,1.9-15.21,3.95-22.68,6c-2.19,0.59-4.54,1.32-6.73,2.05
		c-5.71-8.19-10.97-16.53-15.36-25.75L162.35,251.13z M262.42,349c5.27-2.34,10.53-4.68,15.8-6.88l2.49-2.63
		c1.02,0.15,2.19,0.15,3.51,0.15c2.05-0.29,4.54-1.02,7.31-2.05c-1.76,6.44-2.78,12-3.36,16.97c-7.46,2.63-15.95,5.12-25.45,7.61
		C262.71,357.93,262.56,353.54,262.42,349 M225.84,365.39l4.97-2.34l12.73-10.24l2.78-7.75c1.9,3.66,2.78,5.12,4.68,8.92l4.24-1.9
		c0.15,4.1,0.29,7.9,0.29,11.7c-9.22,2.05-19.02,3.22-29.26,3.36L225.84,365.39z"/>
	<path class="st4" d="M259.2,438.09c-24.43-16.53-46.08-35.99-64.81-57.79l10.53-4.97c3.07,3.95,6.29,7.75,9.51,11.41
		c1.61,1.76,3.22,3.66,4.83,5.41c13.9,15.21,29.26,29.26,46.08,41.84C263.29,435.31,261.24,436.78,259.2,438.09 M144.36,302.19
		c-7.17-15.51-13.17-31.75-17.85-48.57c42.57-20.04,86.46-30.87,133.27-32.18c21.8,0.15,43.01,2.49,63.78,6.73
		c-11.85-1.32-23.7-1.9-35.84-1.9c-13.61,0-26.92,0.73-40.08,2.34c-2.49,0.29-4.97,0.59-7.31,1.02
		c-26.77,3.8-52.52,10.97-77.83,21.36c-2.34,0.88-4.54,1.9-6.88,2.93c-3.51,1.46-6.88,3.07-10.39,4.68
		c3.07,10.97,6.73,21.51,10.83,32.04c-2.34,1.9-4.68,4.1-6.73,6.44L144.36,302.19z"/>
	<path class="st0" d="M91.4,240.45c54.86-28.38,103.14-43.74,165.31-43.74c62.32,0,110.45,15.36,165.31,43.74
		c-25.45,102.84-74.17,170.87-165.31,225.58c-34.38-20.63-64.37-44.77-89.38-72.71c-6.88,3.36-12.43,6-15.36,7.46
		c-8.63,4.24-17.26,8.63-25.75,12.87c-9.66,4.97-20.33,12.43-31.45,9.51c-12.14-5.27-4.1-20.04-0.44-28.53
		c9.51-21.36,19.31-42.42,29.55-63.34c-12.29-23.26-22.09-48.42-28.82-75.78L91.4,240.45z M256.71,207.24
		c-57.35,0-102.4,13.46-153.17,38.77c6.58,26.77,15.51,51.2,26.63,73.59c2.05-3.36,4.54-6.73,7.17-9.95
		c1.17-1.32,11.85-12.43,11.85-12.43c6.58-7.17,14.04-12.29,22.24-15.8c-5.56-8.05-10.68-16.38-15.07-25.16l-1.02-2.05
		c2.19-1.02,4.54-1.9,6.88-2.93l0.73,1.76c4.39,9.07,9.66,17.56,15.36,25.75c2.19-0.73,4.39-1.46,6.73-2.05
		c7.61-2.05,15.07-3.95,22.68-6c7.02-1.76,18.14-5.41,23.55,0.44l7.75-8.19l6.14-1.32c-1.9-12-3.66-22.82-5.27-31.45
		c2.49-0.29,4.97-0.73,7.31-1.02c1.61,8.48,3.36,19.16,5.27,30.87c8.63-1.9,17.26-3.66,26.04-5.56l-2.78,7.31l-0.29,0.73l8.78-9.22
		c8.78-1.76,17.56-3.36,26.33-4.97l-1.46,4.39c4.54-3.8,9.8-5.56,14.92-6.44l0.73-0.15c1.46-6.14,2.49-11.7,3.07-16.82
		c2.63,0.59,5.27,1.17,7.9,1.9c-0.29,4.54-1.02,8.92-1.9,13.46c5.41-0.88,10.97-1.61,16.38-2.49c-2.19,9.07-4.54,17.99-6.73,27.06
		l-10.97,11.41l9.22-2.93c-2.93,11.56-6,23.11-8.92,34.53l-11.85,12.43c-4.97,2.05-13.31,6-21.21,9.36
		c-2.19,6.88-3.66,12.58-4.39,17.41c27.21-10.97,41.11-24.87,56.18-48.57c-1.9,8.19-4.54,16.09-7.9,23.55
		c-12.58,14.92-26.92,25.02-49.01,33.21c-0.15,16.68,10.24,16.09,12,15.8c-2.78,2.34-5.71,4.54-8.63,6.58
		c-6.58-3.07-10.09-11.26-10.39-19.9c-7.46,2.63-15.95,4.97-25.31,7.31c-0.15,3.22-0.15,21.51-5.27,32.04
		c-3.95,1.17-7.9,2.05-12,2.78c0.73-0.73,1.76-1.61,2.78-2.78c0-0.15,0.15-0.29,0.29-0.44c4.24-4.24,6.29-15.21,6.73-29.99
		c-9.07,1.9-18.73,2.93-28.82,3.07c-0.29,8.05-2.93,13.75-7.31,17.56c-1.61-1.76-3.22-3.66-4.83-5.41
		c2.78-2.78,4.39-6.73,4.68-12.14c-3.51-0.15-7.31-0.29-11.26-0.59c-9.8,4.54-20.77,9.8-30.58,14.48
		c22.09,24.43,48.57,45.94,79.58,65.1c82.8-51.06,128.3-113.96,153.17-207.59C359.11,220.7,314.06,207.24,256.71,207.24 M262.42,349
		c0.15,4.54,0.29,8.92,0.29,13.02c9.51-2.49,17.99-4.97,25.45-7.61c0.44-4.83,1.61-10.39,3.36-16.97c-2.78,0.88-5.27,1.61-7.31,2.05
		c-1.32,0.15-2.49,0.15-3.51-0.15l-2.49,2.63C272.95,344.32,267.68,346.66,262.42,349 M225.84,365.39l0.29,1.76
		c10.24-0.15,20.19-1.32,29.26-3.36c0-3.8,0-7.61-0.29-11.7l-4.24,1.9c-1.76-3.8-2.78-5.27-4.68-8.92l-2.78,7.75l-12.73,10.24
		L225.84,365.39z"/>
	<path class="st1" d="M186.2,280.68c-12.87,3.51-24.43,9.07-33.65,19.31c-5.27,6.14-9.07,13.02-12.58,20.19
		c-10.39,21.07-20.19,42.13-29.7,63.49c-2.49,5.56-10.09,19.16-2.05,22.68c8.92,2.34,20.19-5.12,28.09-9.22
		c8.63-4.39,17.12-8.63,25.75-13.02c14.63-7.31,27.8-16.09,36.72-30.28c3.51-6,6.14-12.43,8.78-18.87
		c5.56-13.75,11.26-27.65,17.12-41.4c2.19-5.12,6-11.7,4.83-17.26c-2.49-7.61-15.21-2.93-20.77-1.61
		C201.26,276.73,193.8,278.64,186.2,280.68 M169.81,359.54c-6.88,3.07-13.61,6.14-20.48,9.22c9.8-22.82,20.04-45.64,30.87-68.17
		c6-1.9,12-3.8,17.99-5.56C188.39,316.38,179.03,337.88,169.81,359.54 M286.7,257.13c-9.51,12.29-18.87,24.87-28.09,37.3
		c4.39-11.41,8.63-22.97,13.02-34.38c-9.8,2.05-19.6,4.1-29.4,6.29c-2.49,5.85-5.12,11.85-7.61,17.7c2.05-0.59,4.24-1.17,6.29-1.76
		c-7.75,18.58-15.21,37.3-22.53,56.03c-3.07,7.61-6,15.21-9.07,22.82c9.8-4.68,19.6-9.22,29.4-13.75
		c4.39-12.29,8.92-24.58,13.46-36.87c4.24,8.34,8.34,16.68,12.43,25.16c6.29-2.78,12.73-5.56,19.02-8.34
		c-3.8-8.78-7.75-17.7-11.7-26.48c7.02-10.68,14.19-21.36,21.36-31.89c2.05-0.44,4.1-1.02,6-1.46c1.46-4.54,3.07-9.22,4.54-13.75
		C298.4,254.79,292.55,255.96,286.7,257.13 M324.74,250.55c-5.27,0.88-10.09,2.49-13.9,6.58c-3.22,3.51-4.97,7.61-6.29,12
		c-4.24,13.17-8.48,26.33-12.58,39.5c-1.61,5.27-4.39,14.63,3.95,14.04c2.78-0.44,5.56-1.61,8.19-2.78
		c8.48-3.66,16.97-7.17,25.45-10.68c2.19-8.34,4.39-16.53,6.44-24.87c-4.54,1.46-8.92,2.78-13.31,4.24
		c-1.02,3.66-2.05,7.46-3.07,11.26c-3.07,1.17-6.14,2.34-9.22,3.36c3.95-13.31,7.75-26.77,11.7-40.08c2.78-0.59,5.56-1.17,8.19-1.76
		c-0.59,2.34-1.32,4.68-1.9,7.02c3.95-1.02,8.05-1.9,12-2.78c1.46-6,3.07-12,4.54-18.14C337.9,248.5,331.32,249.52,324.74,250.55"/>
	<path class="st2" d="M360.43,238.4c3.95,1.32,7.75,2.63,11.56,4.1c9.36,3.51,17.7,7.02,24.58,10.39
		c-21.21,73-64.81,134.15-126.25,177.75l-4.97,3.51c-17.99-13.46-28.67-23.99-28.67-23.99l8.48-1.46
		c25.75-4.24,50.47-15.95,70.95-34.96c34.96-32.62,49.01-79,41.84-122.89c-0.15-1.02-0.44-2.05-0.59-2.93v-0.44l-0.15-0.44
		l-0.15-0.44l-0.15-0.44l-0.15-0.44l-0.15-0.44l-0.15-0.59l-0.15-0.44l-0.15-0.44l-0.15-0.44l-0.15-0.59l-0.15-0.59l-0.15-0.44
		v-0.44l-0.15-0.44c-0.44-1.61-0.73-2.93-1.17-4.24C356.63,237.09,358.53,237.82,360.43,238.4 M361.02,239.28
		c3.8,1.32,7.61,2.63,11.26,4.1C368.62,241.77,364.82,240.45,361.02,239.28"/>
</g>
</svg>
