<?xml version="1.0" encoding="utf-8"?>
<!-- Generator: Adobe Illustrator 26.5.0, SVG Export Plug-In . SVG Version: 6.00 Build 0)  -->
<svg version="1.1" id="Layer_1" xmlns="http://www.w3.org/2000/svg" xmlns:xlink="http://www.w3.org/1999/xlink" x="0px" y="0px"
	 viewBox="0 0 512 512" style="enable-background:new 0 0 512 512;" xml:space="preserve">
<style type="text/css">
	.st0{fill:#FFFFFF;}
	.st1{fill:#CF0A2C;}
</style>
<g id="XMLID_1_">
	<path id="XMLID_3_" d="M340.16,97.27c-3.23-4.91-7.01-9.54-11.22-13.6c-1.82-1.82-3.65-3.51-5.75-5.19l40.95-40.81H245.22
		l-45.86,45.86l-0.14,0.14c-4.21,4.21-7.85,8.69-11.22,13.6s-6.17,10.24-8.41,15.71c-9.68,22.86-9.68,48.52,0,71.24
		c2.24,5.47,5.05,10.66,8.41,15.57c3.23,4.91,7.01,9.54,11.22,13.6c1.82,1.82,3.65,3.65,5.75,5.19l-40.81,40.81h118.92l46-46.14
		c8.41-8.27,15.01-18.09,19.63-29.03c9.68-22.86,9.68-48.52,0-71.24C346.33,107.51,343.53,102.18,340.16,97.27z"/>
	<path id="XMLID_4_" class="st0" d="M323.61,89.14c-1.68-1.82-3.79-3.65-5.61-5.19l-49.92,50.06c2.52,0.7,4.91,2.1,6.73,3.93
		c5.89,6.03,5.89,15.71,0,21.74l-92.56,92.56h10.94l86.95-87.09c8.98-8.98,9.12-23.56,0.28-32.53l5.33-5.33
		c11.92,11.92,11.92,31.27,0,43.19l0,0l0,0l-81.62,81.62h10.8l76.15-76.15c14.86-15.01,15.01-39.13,0.14-54.27l5.33-5.33
		c17.95,17.95,17.95,47.12,0,65.07l0,0l-70.68,70.68h10.8l65.35-65.35c21.04-20.9,21.04-54.83,0.14-75.87l5.47-5.47
		c23.84,23.98,23.84,62.97-0.28,86.81l-59.74,59.88h10.94l54.41-54.55c26.93-26.93,27.07-70.54,0.14-97.46l0,0l5.47-5.47
		c29.87,30.01,29.87,78.53-0.14,108.4l0,0l-48.94,49.08h10.8l43.61-43.61C356.57,175.52,356.57,122.1,323.61,89.14z"/>
	<path id="XMLID_5_" class="st1" d="M204.83,208.34c1.68,1.82,3.65,3.51,5.61,5.19l49.92-49.92c-2.52-0.7-4.91-2.1-6.73-3.93
		c-6.03-6.03-6.03-15.71,0-21.74l0,0l92.56-92.56h-10.8l-87.09,87.09c-8.98,8.98-9.12,23.56-0.14,32.53l-5.47,5.33
		c-11.92-11.92-11.92-31.27,0-43.19l0.14-0.14l81.62-81.76h-10.94l-76.29,76.29c-15.01,15.01-15.01,39.27-0.14,54.27l-5.47,5.33
		c-17.81-18.09-17.81-47.12,0.14-65.07l70.96-70.82h-10.8l-65.49,65.49c-21.04,20.9-21.04,54.83-0.14,75.87l-5.47,5.47
		c-23.84-23.98-23.84-62.83,0.14-86.81l60.02-60.02h-10.94l-54.55,54.69c-26.93,26.93-27.07,70.54-0.28,97.6l-5.33,5.47
		c-29.87-30.01-29.87-78.53,0.14-108.4l0,0l49.22-49.22h-10.8l-43.89,43.75C171.74,122.1,171.88,175.38,204.83,208.34L204.83,208.34
		z"/>
	<polygon id="XMLID_6_" points="115.08,445.62 109.33,445.62 109.33,439.73 127.42,439.73 127.42,445.62 121.53,445.62 
		121.53,474.23 115.08,474.23 	"/>
	<path id="XMLID_9_" d="M135.84,439.73h14.3l4.21,4.21V456l-3.65,3.37l3.79,14.72h-6.45l-3.65-14.16h-2.38v14.16h-6.45
		L135.84,439.73L135.84,439.73z M146.5,455.15l1.26-1.54v-7.57l-1.26-1.54h-4.21v10.66H146.5z"/>
	<path id="XMLID_12_" d="M167.39,439.73h9.26l5.19,34.5h-6.31l-0.84-7.99h-5.61l-0.98,7.99h-6.03L167.39,439.73z M169.64,460.9h4.21
		l-2.1-17.11L169.64,460.9z"/>
	<polygon id="XMLID_13_" points="189.27,469.32 193.05,469.32 193.05,444.64 189.27,444.64 189.27,439.73 203.43,439.73 
		203.43,444.64 199.65,444.64 199.65,469.32 203.43,469.32 203.43,474.23 189.27,474.23 	"/>
	<polygon id="XMLID_14_" points="212.27,439.73 218.86,439.73 218.86,468.48 226.29,468.48 226.29,474.23 212.27,474.23 	"/>
	<path id="XMLID_18_" d="M248.45,439.73h14.16l4.21,4.21v9.12l-3.37,3.37l3.37,3.37v10.1l-4.21,4.21h-14.16V439.73z M258.54,454.17
		l1.68-1.68v-6.17l-1.4-1.26h-3.93v9.12H258.54L258.54,454.17z M258.82,469.04l1.4-1.26v-7.15l-1.68-1.54h-3.79v9.82L258.82,469.04
		L258.82,469.04z"/>
	<polygon id="XMLID_19_" points="276.35,439.73 282.66,439.73 282.66,468.48 290.24,468.48 290.24,474.23 276.35,474.23 	"/>
	<path id="XMLID_22_" d="M302.44,439.73h9.4l5.19,34.5h-6.31l-0.98-7.99h-5.47l-0.98,7.99h-6.17L302.44,439.73z M304.96,460.9h4.21
		l-2.24-17.11L304.96,460.9z"/>
	<polygon id="XMLID_23_" points="324.46,469.46 333.29,445.62 324.6,445.62 324.6,439.73 340.3,439.73 340.3,444.22 331.47,468.34 
		340.3,468.34 340.3,474.23 324.46,474.23 	"/>
	<polygon id="XMLID_24_" points="349.28,439.73 364.42,439.73 364.42,445.34 355.87,445.34 355.87,453.75 363.72,453.75 
		363.72,459.5 355.87,459.5 355.87,468.48 364.56,468.48 364.56,474.23 349.28,474.23 	"/>
	<path id="XMLID_27_" d="M373.96,439.73h14.3l4.21,4.21V456l-3.37,3.37l3.79,14.86h-6.45l-3.51-14.16h-2.52v14.16h-6.45V439.73z
		 M384.62,455.15l1.26-1.54v-7.57l-1.26-1.54h-4.21v10.66H384.62z"/>
	<polygon id="XMLID_28_" points="401.02,470.02 401.02,463.85 407.47,463.85 407.47,467.5 408.88,469.04 411.26,469.04 
		412.52,467.5 412.52,460.9 411.4,459.78 404.67,459.78 401.16,456.14 401.16,443.94 405.37,439.73 414.91,439.73 418.97,443.94 
		418.97,450.11 412.52,450.11 412.52,446.46 411.26,445.06 409.02,445.06 407.47,446.46 407.47,452.91 408.74,453.89 415.47,453.89 
		418.97,457.54 418.97,470.02 414.91,474.23 405.23,474.23 	"/>
	<path id="XMLID_31_" d="M69.79,307.21c0-20.05-10.8-26.64-31.97-26.64H-0.05l16.55,16.55v120.6h20.47v-60.16h1.12
		c20.61,0,31.41-6.31,31.97-25.38v-24.96H69.79z M37.11,297.11h4.63c4.77,0,7.71,1.54,7.71,6.73v29.73c0,5.05-1.4,7.57-8.69,7.57
		h-3.51v-44.03H37.11z"/>
	<path id="XMLID_34_" d="M99.1,305.38c0-6.87,2.24-8.41,6.31-8.41c4.07,0,6.17,1.54,6.17,8.41v87.37c0,7.01-2.24,8.41-6.17,8.41
		c-4.21,0-6.31-1.4-6.31-8.41V305.38z M105.13,417.57c12.62,0,26.64-5.19,26.64-23V303.7c0-17.95-14.16-23.14-26.64-23.14
		s-26.5,5.19-26.5,23.14v91.01C78.62,412.38,92.65,417.57,105.13,417.57z"/>
	<path id="XMLID_37_" d="M349.14,304.68h1.26l3.93,52.73h-9.68L349.14,304.68z M342.55,373.82h13.46l4.35,43.75h20.61L365.4,280.56
		h-30.71l-15.57,137.01h18.51L342.55,373.82z"/>
	<path id="XMLID_40_" d="M491.62,391.07c0,8.83-2.52,10.24-7.71,10.24h-4.91V297.25h4.91c5.19,0,7.71,1.4,7.71,10.24V391.07z
		 M511.95,392.75v-81.2c0-24.12-8.55-30.99-28.75-30.99h-24.68v137.01h28.89C503.54,417.57,511.95,405.79,511.95,392.75
		L511.95,392.75z"/>
	<path id="XMLID_43_" d="M160.94,296.97h4.91c4.63,0,7.71,1.54,7.71,6.73v28.33c0,5.05-1.54,8.83-8.69,8.83h-3.93V296.97z
		 M161.22,357.27c9.54-0.42,12.62,2.8,12.62,11.08v49.22h19.77c0,0,0.42-14.72,0-54.41c-0.14-12.34-7.85-14.16-7.85-14.16
		c8.98-3.79,7.85-8.27,7.85-18.51l-0.14-26.5c0-17.67-9.68-23.42-26.08-23.42h-27.07v137.01h20.61L161.22,357.27L161.22,357.27z"/>
	<polygon id="XMLID_44_" points="310.57,401.16 284.49,401.16 284.49,280.56 264.01,280.56 264.01,417.57 310.57,417.57 	"/>
	<polygon id="XMLID_45_" points="217.32,297.11 217.32,417.57 237.65,417.57 237.65,297.11 255.32,297.11 255.32,280.56 
		188.15,280.56 204.83,297.11 	"/>
	<polygon id="XMLID_46_" points="408.18,341.56 431.31,417.57 449.83,417.57 449.83,280.56 431.31,280.56 431.31,357.41 
		408.18,280.56 389.66,280.56 389.66,417.57 408.18,417.57 	"/>
</g>
</svg>
