<?xml version="1.0" encoding="utf-8"?>
<!-- Generator: Adobe Illustrator 26.5.0, SVG Export Plug-In . SVG Version: 6.00 Build 0)  -->
<svg version="1.1" id="Layer_1" xmlns="http://www.w3.org/2000/svg" xmlns:xlink="http://www.w3.org/1999/xlink" x="0px" y="0px"
	 viewBox="0 0 512 512" style="enable-background:new 0 0 512 512;" xml:space="preserve">
<style type="text/css">
	.st0{fill:#1A64B7;}
	.st1{fill:#FBBF16;}
</style>
<g id="XMLID_63_">
	<path id="XMLID_65_" class="st0" d="M97.7,417.35l-28.23,14.19c-1.46,0.59-2.49,1.17-2.63,1.46c-0.73,0.88-0.59,2.05,0.44,3.66
		l-0.88,0.88l-12.14-10.83l0.88-0.88c1.46,0.88,2.63,0.88,3.51-0.15c0.29-0.29,0.73-1.32,1.46-3.22l14.04-37.6
		c0.73-1.9,1.02-3.22,1.02-4.1c0-0.88-0.29-1.76-1.02-2.63l0.88-0.88l13.17,11.7l-0.73,0.88c-1.46-0.73-2.49-0.73-3.22,0.15
		c-0.29,0.44-0.73,1.17-1.17,2.19l-10.39,26.77l26.04-12.87c1.17-0.59,1.76-1.02,2.05-1.17c0.73-0.88,0.59-1.9-0.44-3.36l0.88-0.88
		l13.75,12.29l-0.73,0.88c-1.61-0.88-2.78-0.73-3.51,0.15c-0.29,0.29-0.59,1.02-1.02,2.05l-10.24,26.92l25.16-13.02
		c1.32-0.59,2.19-1.17,2.49-1.76c0.73-0.88,0.59-1.9-0.59-3.36l0.73-0.88l13.02,11.7l-0.73,0.88c-1.17-0.59-2.05-0.73-2.78-0.73
		s-2.05,0.59-3.95,1.46l-35.84,18.29c-1.76,0.88-2.78,1.46-3.07,2.05c-0.88,0.88-0.73,2.05,0.44,3.36l-0.73,0.88l-12.43-10.97
		l0.73-0.88c1.46,1.02,2.63,1.02,3.66-0.15c0.29-0.29,0.73-1.46,1.32-3.22L97.7,417.35"/>
	<path id="XMLID_71_" class="st0" d="M81.76,450.41l11.7,10.53l0.29-0.29c-0.59-0.73-0.88-1.46-0.88-2.19
		c0-0.59,0.15-1.17,0.59-1.61c0.44-0.59,1.46-1.17,3.22-2.05l35.84-18.14c1.9-1.02,3.22-1.46,3.95-1.61c0.15,0,0.29,0,0.44,0
		c0.73,0,1.46,0.15,2.34,0.73l0.29-0.44l-12.43-11.12l-0.29,0.29c0.59,0.88,0.88,1.61,0.88,2.19c0,0.59-0.15,1.02-0.59,1.46
		c-0.44,0.59-1.46,1.17-2.63,1.76l-26.04,13.46l10.53-27.94c0.44-1.02,0.73-1.76,1.17-2.19c0.44-0.59,1.17-0.88,1.9-0.88
		c0.59,0,1.17,0.15,1.9,0.44l0.29-0.29l-13.17-11.7l-0.29,0.29c0.44,0.73,0.73,1.32,0.73,2.05c0,0.59-0.15,1.02-0.59,1.46
		c-0.29,0.44-1.02,0.73-2.19,1.32l-27.06,13.31l10.83-27.65c0.44-1.02,0.88-1.9,1.32-2.34c0.44-0.59,1.02-0.88,1.61-0.88
		c0.59,0,1.17,0.15,1.76,0.44l0.29-0.44l-12.58-11.26l-0.29,0.29c0.59,0.88,0.88,1.76,0.88,2.63c0,1.02-0.44,2.34-1.02,4.24
		l-14.19,37.6c-0.73,1.9-1.17,2.93-1.46,3.36c-0.59,0.59-1.17,0.88-2.05,0.88c-0.59,0-1.17-0.15-1.76-0.44l-0.29,0.29l11.56,10.39
		l0.29-0.29c-0.44-0.88-0.73-1.61-0.73-2.34c0-0.59,0.29-1.17,0.59-1.46c0.44-0.44,1.32-0.88,2.78-1.46l28.23-14.04l0.88-0.44
		l-11.12,29.84c-0.59,1.9-1.02,2.93-1.46,3.36c-0.59,0.59-1.17,0.88-1.9,0.88c-0.59,0-1.32-0.15-1.9-0.59L81.76,450.41z
		 M80.73,450.56l0.29-0.29l1.02-1.17l0.29,0.15c0.73,0.44,1.32,0.59,1.76,0.59c0.44,0,0.88-0.15,1.32-0.73
		c0.29-0.15,0.73-1.32,1.32-3.07l10.39-27.94l-27.21,13.75c-1.46,0.59-2.34,1.17-2.49,1.32c-0.29,0.29-0.44,0.59-0.44,1.02
		c0,0.59,0.29,1.32,0.88,2.19l0.15,0.29l-0.15,0.29l-1.02,1.17l-12.73-11.41l0.29-0.29l1.02-1.17l0.29,0.15
		c0.59,0.44,1.17,0.59,1.61,0.59c0.44,0,0.88-0.15,1.46-0.73c0.15-0.15,0.73-1.17,1.32-3.07l14.19-37.6
		c0.73-1.9,1.02-3.22,1.02-3.95c0-0.73-0.29-1.61-0.88-2.49l-0.15-0.29l0.15-0.15l1.02-1.17l13.75,12.29l-0.29,0.29l-1.02,1.17
		l-0.29-0.15c-0.59-0.29-1.17-0.44-1.61-0.44c-0.44,0-0.73,0.15-1.17,0.44c-0.29,0.29-0.73,1.02-1.17,2.05l-10.09,25.75l25.16-12.43
		c1.17-0.59,1.76-1.02,1.9-1.17c0.29-0.29,0.44-0.59,0.44-1.02c0-0.44-0.29-1.02-0.88-1.9l-0.15-0.29l0.29-0.29l1.02-1.17
		l14.34,12.87l-0.29,0.29l-1.02,1.17l-0.29-0.15c-0.73-0.29-1.32-0.59-1.76-0.59c-0.59,0-0.88,0.15-1.17,0.59
		c-0.15,0.29-0.59,0.88-0.88,2.05l-9.8,25.89l24.14-12.58c1.17-0.59,2.05-1.17,2.49-1.61c0.29-0.29,0.29-0.59,0.29-0.88
		c0-0.44-0.29-1.17-0.88-1.9l-0.15-0.29l0.15-0.29l1.02-1.17l13.6,12.14l-0.29,0.29l-1.02,1.02l-0.29-0.15
		c-1.02-0.44-1.76-0.73-2.34-0.73h-0.29c-0.59,0-1.9,0.59-3.8,1.46l-35.84,18.29c-1.76,0.88-2.78,1.46-3.07,1.9
		c-0.29,0.29-0.44,0.59-0.44,1.02c0,0.44,0.29,1.17,0.88,1.9l0.15,0.29l-0.29,0.29l-1.02,1.17L80.73,450.56"/>
	<path id="XMLID_74_" class="st0" d="M149.49,469.72l0.59-19.89l-15.51,12.58L149.49,469.72z M149.19,477.48l-20.77-10.09
		l-6.29,4.97c-0.88,0.59-1.46,1.32-1.61,1.76c-0.44,1.02,0,2.05,1.32,3.07l-0.59,1.02l-15.07-7.46l0.44-1.02
		c1.02,0.29,1.9,0.29,2.49,0c0.73-0.15,1.61-0.73,2.93-1.76l33.94-26.77c1.02-0.88,1.76-1.61,2.05-2.34
		c0.44-1.02,0.29-2.05-0.88-3.22l0.44-1.02l16.24,7.9l-0.59,1.02c-1.46-0.29-2.49,0.15-2.93,1.02c-0.29,0.59-0.44,1.46-0.44,2.49
		l0.15,43.74c0,1.9,0.15,3.22,0.44,3.95c0.29,0.88,0.88,1.61,1.76,2.19l-0.59,1.02l-16.82-8.19l0.44-1.02
		c1.61,0.44,2.63,0.15,3.22-1.02c0.29-0.44,0.29-1.17,0.29-2.34L149.19,477.48"/>
	<path id="XMLID_81_" class="st0" d="M135.3,462.41l13.75,6.73l0.59-18.43L135.3,462.41z M149.49,469.72l0.15-0.29L149.49,469.72z
		 M133.83,462.56l16.53-13.46l-0.59,20.77v0.59L133.83,462.56z M145.68,489.62l16.09,7.9l0.15-0.44c-0.73-0.59-1.32-1.32-1.61-2.19
		c-0.29-0.88-0.44-2.19-0.44-4.1l-0.15-43.59v-0.15c0-1.17,0.15-2.05,0.44-2.63c0.44-0.88,1.32-1.32,2.34-1.32
		c0.29,0,0.59,0,0.44,0.29l0.29-0.73l-15.36-7.61l-0.29,0.44c0.59,0.73,1.02,1.46,1.02,2.19c0,0.44-0.15,0.73-0.29,1.17
		c-0.44,0.73-1.02,1.61-2.19,2.49l-33.94,26.77c-1.32,1.02-2.19,1.61-2.93,1.9c-0.44,0.15-0.73,0.15-1.17,0.15
		c-0.44,0-0.88,0-1.17-0.15l-0.29,0.44l14.34,7.02l0.15-0.44c-0.88-0.73-1.32-1.61-1.32-2.34c0-0.44,0.15-0.73,0.29-1.02
		c0.29-0.59,0.88-1.17,1.76-1.9l6.58-4.97l20.77,10.09l-0.15,0.44h0.44v7.9c0,1.17-0.15,2.05-0.44,2.63
		c-0.44,0.88-1.32,1.46-2.34,1.46c-0.29,0-0.73,0-1.02-0.15V489.62z M144.66,490.06l0.15-0.29l0.73-1.32l0.29,0.15
		c0.44,0.15,0.88,0.15,1.17,0.15c0.88,0,1.32-0.29,1.61-1.02c0.15-0.29,0.29-1.17,0.29-2.19v-7.75l-20.04-10.09l-6.14,4.97
		c-0.88,0.73-1.32,1.17-1.61,1.61c-0.15,0.29-0.15,0.44-0.15,0.59c0,0.59,0.44,1.32,1.32,2.05l0.29,0.15l-0.15,0.29l-0.73,1.46
		l-15.8-7.75l0.15-0.29l0.73-1.32l0.29,0.15c0.44,0.15,0.88,0.15,1.32,0.15c0.29,0,0.73,0,0.88-0.15c0.59-0.15,1.46-0.73,2.78-1.76
		l33.94-26.77c1.02-0.88,1.61-1.61,2.05-2.19c0.15-0.29,0.15-0.59,0.15-0.88c0-0.59-0.29-1.17-1.02-1.9l-0.15-0.29l0.15-0.29
		l0.73-1.46l16.97,8.19l-0.15,0.29l-1.02,1.32c-0.29,0-0.59-0.15-0.88-0.15c-0.88,0-1.46,0.29-1.76,0.88
		c-0.29,0.59-0.44,1.32-0.44,2.34h-0.29h0.29l0.15,43.59c0,1.9,0.15,3.07,0.44,3.95c0.29,0.73,0.73,1.46,1.61,2.05l0.29,0.15
		l-0.15,0.29l-0.73,1.46L144.66,490.06"/>
	<path id="XMLID_87_" class="st0" d="M187.37,473.97l16.82,3.51c2.49,0.59,4.24,0.88,5.27,0.88c1.02,0.15,2.05,0,2.93-0.29
		c2.05-0.59,3.36-2.19,3.95-4.83c0.59-2.63,0-4.53-1.61-6c-0.73-0.73-1.61-1.17-2.63-1.46c-1.02-0.29-2.63-0.73-5.27-1.32
		l-16.82-3.51L187.37,473.97z M185.62,482.16l-3.36,16.53c-0.15,0.73-0.15,1.32,0.15,1.76c0.29,0.44,0.88,0.88,1.61,1.32l-0.29,1.17
		l-15.51-3.22l0.29-1.17c0.88,0,1.61-0.29,2.05-0.59c0.44-0.29,0.73-0.88,0.88-1.61l8.78-42.13c0.15-0.73,0.15-1.32-0.15-1.76
		c-0.29-0.44-0.73-0.88-1.61-1.32l0.29-1.17l31.01,6.44c3.8,0.73,6.73,1.61,8.92,2.49c2.19,0.88,3.95,2.05,5.41,3.51
		c1.61,1.61,2.78,3.66,3.22,6c0.44,2.34,0.44,4.53,0,7.02c-1.61,8.05-7.17,11.85-16.53,11.41l6.73,15.8
		c1.17,2.78,2.05,4.53,2.78,5.41c0.59,0.88,1.61,1.46,2.63,1.76l-0.29,1.17l-17.99-3.66l0.29-1.17c1.32,0.15,2.05-0.29,2.19-0.88
		c0.15-0.44-0.29-1.61-1.02-3.51l-7.02-16.82L185.62,482.16"/>
	<path id="XMLID_97_" class="st0" d="M204.2,477.04c2.49,0.59,4.24,0.88,5.27,0.88c0.15,0,0.44,0,0.59,0c0.73,0,1.61-0.15,2.19-0.29
		c1.9-0.59,3.07-2.05,3.66-4.53c0.15-0.59,0.15-1.17,0.15-1.76c0-1.61-0.59-2.93-1.76-3.8c-0.73-0.73-1.61-1.17-2.49-1.46
		c-0.88-0.29-2.63-0.73-5.27-1.17l-16.38-3.36l-2.63,12.29L204.2,477.04z M209.32,478.65c-1.17,0-2.93-0.29-5.41-0.88l-16.68-3.51
		l-0.44-0.15l2.93-13.9l17.12,3.66c2.49,0.59,4.24,1.02,5.27,1.32c1.02,0.29,1.9,0.88,2.78,1.61c1.32,1.02,1.9,2.63,1.9,4.39
		c0,0.59,0,1.17-0.15,1.9c-0.59,2.63-2.05,4.39-4.1,5.12c-0.88,0.15-1.61,0.29-2.49,0.29C209.76,478.65,209.61,478.65,209.32,478.65
		 M185.47,482.45v-0.44V482.45z M205.08,506.88l17.12,3.51v-0.44c-1.02-0.29-1.9-0.88-2.49-1.76c-0.73-0.88-1.61-2.78-2.78-5.56
		l-7.02-16.38h0.59c0.59,0,1.02,0,1.61,0c8.19,0,12.87-3.66,14.48-11.12c0.29-1.17,0.29-2.49,0.29-3.51c0-1.02-0.15-2.19-0.29-3.22
		c-0.44-2.34-1.46-4.24-3.07-5.85c-1.46-1.32-3.07-2.49-5.27-3.36c-2.05-0.88-4.97-1.76-8.78-2.49l-30.87-6.44l-0.15,0.44
		c0.88,0.44,1.46,0.88,1.76,1.46c0.15,0.44,0.29,0.73,0.29,1.32c0,0.29,0,0.59,0,0.88l-8.78,42.13c-0.15,0.73-0.44,1.32-1.02,1.76
		c-0.44,0.44-1.32,0.59-1.9,0.29l-0.15,0.73l14.92,3.07l0.29-0.44c-0.88-0.44-1.46-0.88-1.76-1.46c-0.15-0.29-0.29-0.88-0.29-1.32
		c0-0.29,0-0.59,0.15-0.88l3.51-16.53l0.15-0.44l13.9,3.07l7.02,16.68c0.73,1.76,1.02,2.78,1.02,3.51v0.29
		c-0.29,0.88-1.02,1.32-2.19,1.17L205.08,506.88z M204.05,507.47v-0.44l0.59-1.46h0.29c1.02,0,1.32-0.29,1.46-0.59v-0.15
		c0-0.44-0.29-1.46-1.02-3.22l-6.73-16.53l-12.87-2.63l-3.36,16.09c0,0.15,0,0.44,0,0.59c0,0.29,0,0.59,0.15,0.88
		c0.29,0.29,0.73,0.73,1.61,1.61l-0.29,1.61l-16.24-3.51v-0.29l0.59-1.46c0.88,0,1.46-0.29,1.76-0.44c0.29-0.29,0.59-0.73,0.73-1.32
		l8.78-42.13c0-0.29,0-0.59,0-0.73c0-0.29,0-0.59-0.15-0.88c-0.15-0.44-0.59-0.73-1.61-1.61l0.44-1.46l31.45,6.58
		c3.8,0.88,6.73,1.61,8.92,2.49c2.19,1.02,3.95,2.19,5.41,3.66c1.76,1.76,2.78,3.8,3.36,6.14c0.15,1.17,0.29,2.19,0.29,3.36
		c0,1.17-0.15,2.49-0.44,3.8c-1.61,7.75-6.88,11.85-15.21,11.7c-0.29,0-0.59,0-1.02,0l6.58,15.21c1.17,2.78,2.05,4.53,2.78,5.27
		c0.59,0.88,1.32,1.32,2.34,1.61l0.44,0.15l-0.15,0.44l-0.29,1.46L204.05,507.47"/>
	<path id="XMLID_100_" class="st0" d="M246.91,482.45l17.12-0.73c2.49-0.15,4.39-0.29,5.27-0.44c1.02-0.15,2.05-0.59,2.78-1.02
		c1.9-1.17,2.78-2.93,2.63-5.71c-0.15-2.63-1.02-4.39-3.07-5.41c-0.88-0.44-1.9-0.73-2.93-0.73c-1.02-0.15-2.78-0.15-5.41,0
		l-17.12,0.59L246.91,482.45z M247.21,490.79l0.73,16.82c0,0.73,0.29,1.32,0.59,1.76c0.44,0.44,1.02,0.73,1.9,0.88v1.17l-15.8,0.59
		v-1.17c0.88-0.29,1.46-0.59,1.9-1.02c0.29-0.44,0.44-1.02,0.44-1.76l-1.76-43.01c0-0.73-0.29-1.32-0.59-1.76
		c-0.29-0.44-1.02-0.73-1.9-0.88v-1.17l31.74-1.32c3.95-0.15,7.02-0.15,9.22,0.29c2.19,0.29,4.24,1.02,6,2.05
		c2.05,1.17,3.51,2.93,4.53,5.12c1.02,2.05,1.46,4.39,1.61,6.73c0.29,8.19-4.1,13.31-13.17,15.07l10.39,13.6
		c1.76,2.34,3.07,3.95,3.95,4.53c0.73,0.73,1.76,1.02,3.07,1.02v1.17l-18.29,0.73v-1.17c1.17-0.29,1.9-0.73,1.9-1.46
		c0-0.44-0.73-1.46-1.9-3.22l-10.83-14.48L247.21,490.79"/>
	<path id="XMLID_106_" class="st0" d="M263.44,468.85l-16.68,0.29l0.59,12.87l16.68-0.73c2.49-0.15,4.24-0.29,5.27-0.44
		s1.9-0.44,2.63-1.02c1.61-1.02,2.34-2.49,2.34-4.83v-0.44c-0.15-2.49-1.02-4.24-2.78-4.97c-0.88-0.44-1.76-0.73-2.78-0.73
		c-0.44,0-1.17-0.15-2.05-0.15C265.78,468.7,264.76,468.7,263.44,468.85 M246.91,482.45h-0.44l-0.15-13.75l17.12-0.73
		c1.32,0,2.34,0,3.36,0c0.88,0,1.61,0,2.05,0c1.02,0.15,2.05,0.44,3.07,0.88c2.05,1.02,3.22,2.93,3.22,5.71v0.44
		c0,2.49-0.88,4.39-2.78,5.56c-0.88,0.59-1.9,0.88-2.93,1.17c-1.02,0.15-2.93,0.29-5.41,0.44l-17.12,0.59L246.91,482.45
		L246.91,482.45z M273.1,507.9L273.1,507.9L273.1,507.9 M234.62,511.56l15.51-0.29l0.29-0.88c-0.88-0.15-1.61-0.44-2.05-1.02
		c-0.44-0.44-0.73-1.17-0.73-2.05l-0.59-16.82h0.44v-0.44l13.9-0.29l10.83,14.48c1.17,1.61,1.76,2.49,1.76,3.51h0.15
		c0,1.02-0.88,1.61-1.76,1.32l-0.44,0.73l17.99-0.29l0.44-0.73c-1.32,0-2.34-0.44-3.36-1.17c-0.88-0.73-2.19-2.34-4.1-4.68
		l-10.83-14.19l0.59-0.15c8.63-1.76,12.87-6.29,12.87-13.9c0-0.29,0-0.59,0-0.88c-0.15-2.34-0.59-4.68-1.61-6.58
		c-1.02-2.05-2.49-3.66-4.39-4.97c-1.61-1.02-3.66-1.76-5.85-2.05c-1.61-0.29-3.66-0.44-6-0.44c-1.02,0-2.05,0-3.22,0.15
		l-31.31,0.88l-0.29,0.88c0.88,0.15,1.61,0.59,2.05,1.02c0.44,0.44,0.73,1.17,0.73,2.05l1.76,43.01v0.15c0,0.73-0.15,1.32-0.59,1.76
		c-0.44,0.44-1.02,0.88-1.76,0.73L234.62,511.56z M234.33,510.39c0.88-0.29,1.46-0.59,1.61-0.88c0.29-0.29,0.44-0.73,0.44-1.32
		v-0.15l-1.76-43.01c0-0.73-0.15-1.17-0.44-1.46c-0.29-0.29-0.88-0.59-2.05-1.17l0.29-1.61l31.74-1.32c1.17,0,2.19,0,3.22,0
		c2.34,0,4.39,0.15,6.14,0.29c2.34,0.44,4.39,1.02,6.14,2.19c2.05,1.17,3.66,3.07,4.83,5.27c1.02,2.19,1.61,4.53,1.61,7.02
		c0,0.29,0,0.59,0,0.88c0,7.75-4.39,12.73-13.02,14.48l10.09,13.17c1.9,2.34,3.22,3.95,3.95,4.53c0.73,0.59,1.61,1.02,3.22,1.32
		l-0.29,1.61l-18.72,0.29l0.29-1.61c1.17-0.29,1.61-0.59,1.61-1.02l0,0c0-0.29-0.59-1.32-1.76-2.93l-10.53-14.34l-13.17,0.59
		l0.59,16.38c0,0.73,0.29,1.17,0.59,1.46c0.29,0.29,0.73,0.59,1.9,1.02l-0.29,1.61L234.33,512L234.33,510.39"/>
	<path id="XMLID_107_" class="st0" d="M301.18,502.35l-9.22-41.98c-0.15-0.73-0.44-1.32-0.88-1.61c-0.44-0.29-1.02-0.59-2.05-0.59
		L288.9,457l15.51-3.36l0.29,1.17c-0.88,0.44-1.32,0.88-1.61,1.32c-0.29,0.44-0.29,1.17-0.15,1.9l9.22,41.98
		c0.15,0.73,0.44,1.32,0.88,1.61c0.44,0.29,1.17,0.44,1.9,0.59l0.29,1.17l-15.51,3.36l-0.29-1.17c0.88-0.44,1.32-0.88,1.61-1.32
		C301.33,503.66,301.33,503.08,301.18,502.35"/>
	<path id="XMLID_110_" class="st0" d="M301.62,503.08c0,0.44,0,0.88-0.29,1.17c-0.29,0.59-0.88,1.02-1.61,1.02l0.15,0.73l14.77-3.22
		v-0.44c-0.88,0-1.61-0.15-2.19-0.59s-0.88-1.02-1.02-1.9l-9.22-41.98c-0.15-0.29-0.15-0.59-0.15-0.88c0-0.44,0.15-0.88,0.29-1.17
		c0.29-0.59,0.88-1.02,1.61-1.02l-0.15-0.73l-14.77,3.22v0.44c1.02,0,1.76,0.15,2.19,0.59c0.59,0.44,0.88,1.02,1.02,1.76l9.22,41.98
		l-0.44,0.15l0.44-0.15C301.62,502.49,301.62,502.78,301.62,503.08 M299.28,506.73v-1.61c0.73-0.44,1.32-0.88,1.46-1.17
		c0.15-0.29,0.15-0.44,0.15-0.88c0-0.15,0-0.44,0-0.73l-9.22-41.98c-0.15-0.59-0.44-1.02-0.73-1.32c-0.29-0.29-0.88-0.44-2.19-0.73
		l-0.29-1.61l16.24-3.51l0.15,0.44v1.61c-0.73,0.44-1.17,0.88-1.46,1.17c-0.15,0.15-0.15,0.44-0.15,0.88c0,0.15,0,0.44,0,0.73
		l9.22,41.98c0.15,0.73,0.44,1.17,0.73,1.32c0.29,0.29,0.88,0.44,2.19,0.73l0.44,1.61l-16.24,3.66L299.28,506.73"/>
	<path id="XMLID_113_" class="st0" d="M337.02,450.56c-4.53,1.9-7.61,4.83-9.51,8.78c-2.19,4.68-2.19,9.51,0,14.48
		c2.19,5.12,5.71,8.34,10.53,9.95c4.1,1.32,8.34,1.02,12.87-0.88c4.53-1.9,7.75-4.83,9.51-8.78c1.02-2.34,1.61-4.83,1.61-7.46
		c0-2.34-0.59-4.68-1.46-6.88c-2.19-5.27-5.71-8.63-10.53-10.24C345.8,448.37,341.56,448.66,337.02,450.56 M333.51,442.51
		c8.05-3.51,15.51-3.95,22.24-1.61c7.02,2.49,12,7.31,15.21,14.63c1.9,4.53,2.49,9.22,1.76,14.04c-1.46,9.51-7.61,16.68-18.43,21.21
		c-8.05,3.51-15.51,3.95-22.09,1.61c-3.66-1.17-6.73-3.22-9.36-6c-2.49-2.49-4.24-5.27-5.71-8.48c-2.05-4.68-2.63-9.51-1.9-14.34
		C316.69,454.36,322.69,447.34,333.51,442.51"/>
	<path id="XMLID_118_" class="st0" d="M327.81,459.34c-1.02,2.19-1.61,4.53-1.61,7.02c0,2.34,0.44,4.68,1.61,7.31
		c2.05,4.97,5.56,8.19,10.24,9.8c1.76,0.59,3.36,0.88,5.12,0.88c2.49,0,4.83-0.59,7.46-1.61c4.39-1.9,7.46-4.68,9.22-8.48
		c1.02-2.19,1.61-4.53,1.61-7.17v-0.44c0-2.34-0.44-4.53-1.46-6.58c-2.19-5.12-5.71-8.48-10.24-9.95c-1.61-0.59-3.36-0.88-5.12-0.88
		c-2.49,0-4.97,0.59-7.61,1.61C332.78,452.75,329.71,455.53,327.81,459.34 M337.9,484.06c-4.97-1.61-8.48-5.12-10.68-10.24
		c-1.17-2.63-1.61-5.12-1.61-7.61s0.59-4.97,1.76-7.31c1.9-3.95,5.12-7.02,9.65-8.92l0.15,0.44l-0.15-0.44
		c2.63-1.17,5.41-1.61,7.9-1.61c1.76,0,3.51,0.29,5.27,0.88c4.97,1.61,8.63,5.12,10.83,10.39c0.88,2.19,1.46,4.53,1.46,7.02v0.15
		c0,2.63-0.59,5.12-1.61,7.46c-1.9,3.95-5.12,7.02-9.65,8.92c-2.63,1.17-5.27,1.76-7.9,1.76
		C341.41,484.94,339.51,484.64,337.9,484.06 M333.66,442.95c-10.68,4.83-16.68,11.7-18.14,20.92c-0.29,1.32-0.29,2.63-0.29,3.95
		c0,3.51,0.73,6.88,2.19,10.24c1.32,3.07,3.22,6,5.56,8.34c2.63,2.63,5.71,4.68,9.22,5.85c2.63,1.02,5.41,1.46,8.34,1.46
		c4.24,0,8.63-1.02,13.46-2.93c10.68-4.53,16.68-11.56,18.14-20.92c0.29-1.46,0.29-2.78,0.29-4.1c0-3.36-0.59-6.58-2.05-9.65
		c-3.07-7.17-8.05-12-14.92-14.34c-2.63-1.02-5.41-1.46-8.34-1.46C343.02,439.88,338.49,440.91,333.66,442.95L333.66,442.95z
		 M332.05,492.84c-3.66-1.32-6.88-3.22-9.51-6c-2.49-2.49-4.39-5.27-5.71-8.48c-1.46-3.51-2.19-7.02-2.19-10.68
		c0-1.32,0.15-2.63,0.29-3.95c1.46-9.51,7.61-16.68,18.58-21.5c4.83-2.05,9.51-3.07,13.9-3.07c2.93,0,5.85,0.44,8.63,1.46
		c7.17,2.49,12.29,7.46,15.51,14.77c1.32,3.22,2.05,6.58,2.05,10.09c0,1.46-0.15,2.78-0.29,4.24c-1.46,9.65-7.75,16.97-18.58,21.5
		c-4.83,2.05-9.51,3.07-13.75,3.07C337.61,494.3,334.68,493.86,332.05,492.84"/>
	<path id="XMLID_121_" class="st0" d="M383.84,440.91l13.46-10.39c2.05-1.61,3.36-2.63,4.1-3.51c0.73-0.73,1.32-1.61,1.61-2.49
		c0.88-1.9,0.44-3.95-1.17-6.14c-1.61-2.05-3.51-2.93-5.56-2.63c-1.02,0.15-1.9,0.44-2.93,1.02c-0.88,0.59-2.34,1.61-4.39,3.07
		l-13.6,10.39L383.84,440.91z M388.81,447.63l10.39,13.31c0.44,0.59,0.88,0.88,1.46,1.02c0.59,0.15,1.17,0,2.05-0.44l0.73,0.88
		l-12.58,9.65l-0.73-0.88c0.59-0.73,0.88-1.46,0.88-1.9c0-0.59-0.15-1.02-0.59-1.76l-26.33-33.94c-0.44-0.59-0.88-1.02-1.46-1.17
		c-0.59,0-1.17,0-2.05,0.44l-0.73-0.88l25.16-19.46c3.07-2.34,5.71-4.1,7.75-5.12c2.05-1.02,4.1-1.61,6.14-1.76
		c2.34-0.15,4.53,0.29,6.73,1.46c2.05,1.17,3.8,2.63,5.27,4.53c4.97,6.58,4.39,13.17-2.05,19.89l16.38,5.12
		c2.93,0.88,4.83,1.32,5.85,1.46c1.02,0,2.05-0.29,3.07-0.88l0.73,0.88l-14.48,11.26l-0.73-1.02c0.88-0.88,1.02-1.61,0.73-2.19
		c-0.29-0.44-1.46-0.88-3.36-1.46l-17.26-5.56L388.81,447.63"/>
	<path id="XMLID_127_" class="st0" d="M396.42,416.18c-0.88,0.15-1.9,0.44-2.63,0.88c-0.88,0.44-2.34,1.61-4.39,3.07l-13.31,10.09
		l7.61,9.95L397,429.93c2.05-1.46,3.36-2.63,4.1-3.36c0.73-0.73,1.17-1.46,1.61-2.34c0.29-0.59,0.44-1.32,0.44-1.9
		c0-1.17-0.44-2.49-1.46-3.8c-1.32-1.76-2.78-2.49-4.53-2.49C397,416.18,396.71,416.18,396.42,416.18 M383.84,440.91l0.29-0.15
		L383.84,440.91z M375.06,430.37l13.9-10.68c2.05-1.46,3.51-2.63,4.39-3.07c0.88-0.59,1.9-0.88,2.93-1.02
		c0.29-0.15,0.59-0.15,0.88-0.15c1.9,0,3.66,1.02,5.12,2.93c1.02,1.46,1.61,2.78,1.61,4.24c0,0.88-0.15,1.61-0.44,2.19
		c-0.44,1.02-1.02,1.9-1.76,2.63c-0.73,0.73-2.19,1.9-4.1,3.51l-13.6,10.53l-0.29,0.29L375.06,430.37z M391,471.63l12-9.22
		l-0.29-0.44c-0.59,0.15-1.02,0.29-1.61,0.29c-0.15,0-0.29,0-0.44,0c-0.59-0.15-1.17-0.44-1.61-1.17l-10.24-13.31l-0.29-0.29
		l11.41-8.48l17.26,5.56c2.05,0.73,3.07,1.17,3.51,1.61c0.15,0.29,0.29,0.59,0.29,0.88c0,0.59-0.29,1.02-0.73,1.61l0.29,0.44
		l13.9-10.68l-0.29-0.29c-0.88,0.44-1.76,0.73-2.63,0.73h-0.29c-1.17,0-3.07-0.44-6-1.46l-16.97-5.27l0.44-0.44
		c3.51-3.8,5.27-7.46,5.27-10.97c0-2.78-1.02-5.56-3.22-8.48c-1.46-1.9-3.22-3.36-5.12-4.53c-1.9-1.02-3.66-1.46-5.71-1.46
		c-0.29,0-0.59,0-0.88,0c-2.05,0.15-3.95,0.73-6,1.76c-2.05,1.02-4.53,2.63-7.61,4.97l-24.87,19.16l0.29,0.44
		c0.59-0.29,1.02-0.29,1.61-0.29c0.15,0,0.29,0,0.44,0c0.73,0.15,1.17,0.59,1.76,1.17l26.19,34.08c0.44,0.59,0.73,1.17,0.73,1.76
		v0.15c0,0.59-0.29,1.17-0.73,1.9L391,471.63z M390.57,472.5l-0.88-1.17l0.15-0.29c0.59-0.73,0.73-1.32,0.88-1.61l0,0
		c0-0.44-0.15-0.88-0.59-1.32l-26.19-34.08c-0.44-0.59-0.88-0.88-1.32-1.02c-0.15,0-0.15,0-0.29,0c-0.44,0-0.88,0.15-1.61,0.44
		l-0.29,0.15l-0.15-0.15l-1.02-1.17l25.45-19.6c3.07-2.34,5.71-4.1,7.75-5.12c2.05-1.02,4.24-1.76,6.29-1.76c0.29,0,0.59,0,0.88,0
		c2.05,0,4.1,0.44,6,1.61c2.05,1.17,3.95,2.78,5.41,4.68c2.19,2.93,3.36,6,3.36,8.92c0,3.66-1.76,7.31-4.97,10.97l15.8,4.97
		c2.78,0.88,4.83,1.32,5.71,1.46h0.29c0.88,0,1.76-0.29,2.49-0.88l0.29-0.15l0.15,0.29l1.02,1.17l-15.21,11.7l-0.29-0.29l-0.88-1.32
		l0.29-0.29c0.59-0.59,0.88-1.02,0.88-1.32l-0.15-0.29c-0.15-0.15-1.17-0.73-3.22-1.32l-16.97-5.71l-10.39,8.05l10.09,13.02
		c0.44,0.59,0.88,0.88,1.32,0.88c0,0,0.15,0,0.29,0c0.44,0,0.88-0.15,1.61-0.44l0.29-0.15l0.15,0.29l1.02,1.32l-13.17,10.09
		L390.57,472.5"/>
	<path id="XMLID_128_" class="st0" d="M435.18,364.69l5.41,12.29l-1.02,0.44c-0.15-0.15-0.29-0.29-0.44-0.44
		c-0.73-0.59-1.9-0.59-3.51,0c-5.12,1.46-9.65,4.53-13.31,9.22c-1.61,2.05-2.93,4.1-3.66,6c-0.59,1.46-0.73,2.93-0.59,4.24
		s0.73,2.34,1.61,3.07c1.46,1.17,3.22,1.17,5.12-0.29c1.02-0.73,2.93-2.49,5.71-5.27l4.1-4.24c2.49-2.49,4.53-4.24,6.44-5.56
		s3.8-2.19,5.71-2.78c2.05-0.59,4.1-0.59,6.29-0.15c2.19,0.44,4.1,1.46,5.85,2.78c2.78,2.19,4.53,5.12,5.27,8.63
		c0.59,3.22,0,6.88-1.76,11.12c-1.32,3.07-3.22,6.14-5.56,9.07c-4.24,5.27-9.65,9.36-16.24,12.43c-1.46,0.59-2.19,1.17-2.34,1.32
		c-0.15,0.29-0.29,0.88-0.29,1.76l-1.17,0.59l-6.14-12.14l1.02-0.59c0.15,0.15,0.29,0.29,0.44,0.29c0.88,0.73,2.05,0.88,3.36,0.73
		c2.19-0.44,4.68-1.46,7.61-3.51c2.93-1.9,5.41-4.1,7.31-6.44c2.05-2.63,3.36-5.12,4.1-7.61c0.29-1.32,0.44-2.63,0-3.95
		c-0.29-1.17-0.88-2.19-1.76-2.93c-1.32-1.02-2.78-1.02-4.53-0.15c-1.17,0.73-3.22,2.34-5.85,5.12l-4.1,4.1
		c-2.78,2.63-4.68,4.53-6,5.56c-1.32,1.02-2.78,1.9-4.39,2.63c-2.34,1.02-4.68,1.32-7.31,0.88c-2.34-0.29-4.39-1.32-6.44-2.93
		c-3.36-2.63-5.12-6.14-5.41-10.09c-0.44-5.41,1.76-10.97,6.58-16.97c2.05-2.49,4.1-4.68,6.44-6.44c2.34-1.76,5.41-3.8,9.51-5.85
		c1.32-0.73,2.05-1.32,2.34-1.46c0.29-0.44,0.59-1.02,0.59-1.9L435.18,364.69"/>
	<path id="XMLID_131_" class="st0" d="M431.23,417.06l5.85,11.56h0.44c0-0.88,0.15-1.46,0.44-1.9c0.29-0.29,1.02-0.73,2.49-1.32
		c6.58-3.07,12-7.17,16.09-12.29c2.34-2.93,4.24-5.85,5.56-8.92c1.32-3.07,1.9-5.85,1.9-8.34c0-0.88,0-1.76-0.15-2.49
		c-0.73-3.36-2.34-6.29-5.12-8.48c-1.76-1.32-3.66-2.34-5.71-2.78c-1.02-0.15-1.9-0.29-2.93-0.29s-2.19,0.15-3.07,0.44
		c-1.9,0.59-3.8,1.46-5.56,2.63c-1.9,1.17-3.95,3.07-6.44,5.56l-4.1,4.1c-2.78,2.78-4.68,4.53-5.71,5.27
		c-1.17,0.73-2.19,1.17-3.22,1.17c-0.88,0-1.76-0.29-2.49-0.88c-1.02-0.73-1.61-1.9-1.76-3.36c-0.15-0.44-0.15-0.73-0.15-1.17
		c0-1.02,0.29-2.05,0.59-3.22c0.73-2.05,2.05-4.1,3.66-6.14c3.8-4.68,8.34-7.75,13.6-9.36c0.88-0.29,1.46-0.44,2.19-0.44
		c0.73,0,1.17,0.15,1.61,0.44c0.15,0.15,0.29,0.29,0,0.29l0.73-0.29l-5.12-11.56h-0.44c0,0.88-0.15,1.61-0.59,2.19
		c-0.29,0.44-1.02,0.73-2.49,1.61c-3.95,2.19-7.17,4.1-9.36,5.85c-2.19,1.76-4.39,3.95-6.44,6.44c-4.39,5.41-6.58,10.68-6.58,15.51
		c0,0.44,0,0.88,0,1.32c0.29,3.95,2.05,7.17,5.41,9.95c1.9,1.61,4.1,2.49,6.29,2.93c0.73,0.15,1.32,0.15,2.05,0.15
		c1.76,0,3.36-0.44,4.97-1.02c1.61-0.73,3.07-1.61,4.24-2.63c1.17-1.02,3.22-2.78,6-5.56l4.1-4.1c2.78-2.78,4.68-4.39,6-5.12
		c0.88-0.44,1.61-0.73,2.49-0.73s1.76,0.29,2.49,0.88c0.88,0.73,1.61,1.76,1.9,3.07c0.15,0.59,0.15,1.32,0.15,1.9
		c0,0.73,0,1.46-0.29,2.19c-0.59,2.63-2.05,5.12-4.1,7.75c-1.9,2.49-4.39,4.53-7.31,6.58c-2.93,2.05-5.56,3.22-7.75,3.51
		c-0.44,0-0.73,0.15-1.02,0.15c-1.02,0-1.9-0.29-2.63-0.88c0,0-0.15-0.15,0-0.29L431.23,417.06z M430.21,416.62l0.44-0.15l1.46-0.44
		c0.15,0.15,0.29,0.29,0.44,0.29c0.59,0.44,1.32,0.73,2.19,0.73c0.29,0,0.59,0,1.02,0c2.05-0.29,4.53-1.46,7.46-3.51
		c2.93-1.9,5.27-4.1,7.17-6.29c2.05-2.49,3.36-4.97,3.95-7.46c0.15-0.73,0.29-1.32,0.29-2.05c0-0.59,0-1.17-0.15-1.76
		c-0.29-1.17-0.88-2.05-1.61-2.63c-0.59-0.59-1.32-0.73-1.9-0.73s-1.32,0.15-2.05,0.59c-1.17,0.59-3.07,2.34-5.85,4.97l-4.1,4.1
		c-2.78,2.78-4.68,4.53-6,5.71c-1.32,1.02-2.78,1.9-4.39,2.63c-1.76,0.88-3.51,1.17-5.27,1.17c-0.73,0-1.46,0-2.19-0.15
		c-2.34-0.44-4.68-1.46-6.73-3.07c-3.36-2.78-5.27-6.29-5.71-10.39c0-0.44-0.15-0.88-0.15-1.32c0-5.12,2.34-10.39,6.88-15.95
		c2.05-2.49,4.24-4.68,6.58-6.44c2.34-1.76,5.41-3.8,9.51-5.85c1.32-0.73,2.05-1.32,2.19-1.46c0.29-0.29,0.44-0.88,0.59-2.05
		l1.17-0.44l0.29-0.15l5.71,12.87l-0.29,0.15l-1.46,0.44c-0.29-0.29-0.29-0.29-0.44-0.44c-0.29-0.15-0.59-0.29-1.17-0.29
		c-0.59,0-1.17,0.15-1.9,0.29c-5.12,1.46-9.51,4.53-13.17,9.07c-1.61,2.05-2.78,3.95-3.66,5.85c-0.29,1.02-0.59,2.05-0.59,2.93
		c0,0.44,0,0.73,0.15,1.02c0.15,1.32,0.73,2.19,1.46,2.78c0.73,0.59,1.32,0.73,2.05,0.73c0.73,0,1.76-0.29,2.63-1.02
		c1.02-0.73,2.93-2.34,5.71-5.27l4.1-4.1c2.49-2.49,4.68-4.39,6.58-5.56c1.9-1.32,3.8-2.19,5.85-2.78c1.17-0.29,2.19-0.44,3.36-0.44
		c1.02,0,2.05,0.15,3.07,0.29c2.19,0.44,4.24,1.46,6,2.93c2.93,2.34,4.68,5.27,5.41,8.92c0.15,0.88,0.29,1.76,0.29,2.78
		c0,2.63-0.73,5.56-2.05,8.63s-3.22,6.14-5.56,9.07c-4.24,5.27-9.8,9.51-16.38,12.58c-1.32,0.73-2.19,1.17-2.19,1.17
		c-0.15,0-0.15,0.59-0.44,1.9l-1.46,0.59L430.21,416.62"/>
	<path id="XMLID_132_" class="st0" d="M455.22,243.27c0,112.35-91.14,203.48-203.48,203.48c-112.49,0-203.48-91.14-203.48-203.48
		S139.39,39.79,251.74,39.79C364.09,39.79,455.22,130.93,455.22,243.27"/>
	<path id="XMLID_135_" class="st1" d="M251.59,412.38c-96.84,0-175.4-78.56-175.4-175.54c0-96.84,78.56-175.54,175.4-175.54
		s175.4,78.56,175.4,175.54C427.14,333.82,348.58,412.38,251.59,412.38 M251.59,49.59c-103.42,0-187.25,83.82-187.25,187.25
		s83.82,187.25,187.25,187.25s187.25-83.82,187.25-187.25S355.02,49.59,251.59,49.59"/>
	<path id="XMLID_136_" class="st1" d="M148.76,148.19c0,0,104.3,139.41,270.19,171.15l-29.99,8.63c0,0-103.72-23.99-239.47-175.69"
		/>
	<path id="XMLID_137_" class="st1" d="M99.46,344.5c0,0,135.02-22.24,283.79-18.58l29.84-6.44L397,354.6
		c0,0-156.96-5.41-273.26,6.88c-20.77-2.78-17.99-10.39-17.99-10.39L99.46,344.5"/>
	<path id="XMLID_138_" class="st1" d="M119.5,363.67c0,0,175.98-7.61,265.22,4.24c2.34,0.29,7.31-8.05,7.31-8.05
		s-64.8-8.92-263.17-2.05C96.68,358.84,119.5,363.67,119.5,363.67"/>
	<path id="XMLID_139_" class="st1" d="M140.12,163.25C108.09,239.32,70.2,269.6,70.2,269.6l2.19,15.36c0,0,41.84-54.13,67.88-114.69
		C154.46,136.78,140.12,163.25,140.12,163.25"/>
	<path id="XMLID_140_" class="st1" d="M143.05,142.34l-4.53,1.17c0,0-4.39,216.8-1.61,240.93c0.29,2.19,10.83,0.15,10.83,0.15
		s3.66,14.63,10.53,8.63c-6.14-76.8-7.61-255.27-7.61-255.27h-7.61L143.05,142.34"/>
	<path id="XMLID_141_" class="st1" d="M153.44,146.29l5.12-4.39l5.41,2.49c0,0,5.41,204.36,15.21,261.71l-5.27-0.44
		c0,0-10.68-0.59-11.41-7.31C158.26,360.01,153.44,146.29,153.44,146.29"/>
	<polygon id="XMLID_142_" class="st1" points="124.47,348.89 120.81,348.31 136.03,263.02 139.69,263.61 	"/>
	<polygon id="XMLID_143_" class="st1" points="111.01,347.28 107.5,346.7 137.93,174.81 141.59,175.4 	"/>
	<polygon id="XMLID_144_" class="st1" points="100.19,336.02 97.41,332.36 118.47,211.82 123.74,203.63 	"/>
	<polygon id="XMLID_145_" class="st1" points="188.69,339.53 192.35,338.51 158.56,231.28 161.48,253.81 	"/>
	<polygon id="XMLID_146_" class="st1" points="201.86,336.31 205.37,335.14 159.87,188.71 160.17,203.48 	"/>
	<polygon id="XMLID_147_" class="st1" points="217.07,333.53 220.58,332.36 171.43,175.25 165.29,168.81 	"/>
	<polyline id="XMLID_148_" class="st1" points="186.79,191.63 231.85,333.09 235.36,331.92 193.23,197.63 190.89,195.44 	"/>
	<polyline id="XMLID_149_" class="st1" points="209.02,212.55 247.21,333.24 250.72,332.07 214.58,217.38 209.61,212.55 	"/>
	<polygon id="XMLID_150_" class="st1" points="261.1,330.61 264.61,329.58 234.19,234.2 229.21,230.4 	"/>
	<polygon id="XMLID_151_" class="st1" points="276.76,330.02 280.41,328.85 255.98,251.61 250.28,246.35 	"/>
	<polyline id="XMLID_152_" class="st1" points="269.88,261.41 291.68,329.58 295.19,328.41 275.44,265.65 271.93,263.61 	"/>
	<polyline id="XMLID_153_" class="st1" points="290.36,276.92 307.04,329.73 310.55,328.56 295.04,279.99 290.8,278.67 	"/>
	<polygon id="XMLID_154_" class="st1" points="328.39,347.57 331.9,346.55 315.23,292.57 308.94,285.26 	"/>
	<polygon id="XMLID_155_" class="st1" points="327.37,296.52 342.14,343.77 345.8,342.6 333.08,302.08 	"/>
	<polygon id="XMLID_156_" class="st1" points="346.39,308.22 357.21,342.31 360.72,341.28 351.8,312.91 	"/>
	<polygon id="XMLID_157_" class="st1" points="82.2,302.67 77.66,299.3 89.22,254.68 92.73,255.12 	"/>
	<polygon id="XMLID_158_" class="st1" points="91.85,315.25 89.07,311.59 102.24,236.98 106.92,230.11 	"/>
	<path id="XMLID_159_" class="st0" d="M66.54,98.01l-1.02,0.73c-0.15-0.15-0.29-0.44-0.44-0.44c-0.44-0.29-1.17-0.29-1.9,0
		c-0.73,0.29-1.61,0.88-2.63,1.46c-0.88,0.73-1.76,1.46-2.78,2.49c-0.88,1.02-1.61,1.9-2.34,2.78c-0.88,1.17-1.46,2.49-2.05,3.8
		c-0.44,1.32-0.73,2.78-0.73,4.1c0,1.46,0.44,2.78,1.02,4.1c0.73,1.32,1.9,2.63,3.36,3.8c1.46,1.17,3.07,1.76,4.53,2.05
		c1.46,0.29,2.93,0.15,4.24-0.15c1.32-0.44,2.63-1.02,3.8-1.9c1.17-0.88,2.19-1.9,3.07-3.07c1.32-1.76,2.34-3.51,3.07-5.12
		c0.73-1.61,1.32-3.07,1.76-4.39l-4.1-2.93l-4.39,6c-0.29,0.44-0.44,0.88-0.44,1.17c0,0.29,0.29,0.73,0.88,1.32l-0.59,0.88l-6-4.39
		l0.59-0.88c0.59,0.29,1.02,0.44,1.32,0.29c0.29-0.15,0.59-0.44,0.88-0.88l8.63-11.7l0.88,0.59c-0.29,0.73-0.59,1.17-0.59,1.46
		s0.15,0.44,0.59,0.88l5.27,3.8c0.29,0.29,0.59,0.29,0.88,0.15c0.29-0.15,0.44-0.29,0.73-0.44l0.73,0.59c0,1.61-0.29,3.07-0.59,4.53
		c-0.44,1.46-0.88,2.93-1.46,4.24c-0.59,1.32-1.32,2.63-2.05,3.8c-0.88,1.17-1.61,2.34-2.49,3.51c-1.61,2.19-3.36,3.95-5.27,5.41
		c-1.9,1.46-3.8,2.34-5.85,2.78c-2.05,0.44-4.1,0.59-6.14,0.15c-2.05-0.44-4.1-1.32-6-2.78c-2.05-1.46-3.51-3.07-4.53-4.97
		c-1.02-1.9-1.61-3.8-1.76-5.85c-0.15-2.05,0.15-4.24,0.88-6.44c0.73-2.19,1.9-4.39,3.51-6.58c1.02-1.32,2.05-2.63,3.22-3.8
		c1.17-1.17,2.19-2.05,3.07-2.93c0.88-0.73,1.76-1.46,2.49-1.9c0.73-0.44,1.02-0.88,1.17-1.02c0.15-0.29,0.29-0.59,0.29-0.73
		c0-0.29,0-0.44,0-0.73l0.73-0.29L66.54,98.01"/>
	<path id="XMLID_162_" class="st0" d="M85.56,72.27c-0.73,1.32-1.32,2.78-1.61,4.1c-0.29,1.46-0.29,2.93,0,4.39
		c0.29,1.46,1.02,2.78,2.05,3.95c1.02,1.17,2.34,2.05,3.8,2.49c1.46,0.44,2.78,0.59,4.24,0.44c1.46-0.15,2.93-0.59,4.24-1.17
		c1.46-0.59,2.63-1.46,3.66-2.49c1.02-1.02,2.05-2.19,2.78-3.51c0.73-1.32,1.32-2.78,1.61-4.1c0.29-1.46,0.29-2.93,0-4.24
		c-0.29-1.46-1.02-2.78-2.05-3.95c-1.02-1.17-2.34-2.05-3.8-2.49c-1.46-0.44-2.78-0.59-4.24-0.44c-1.46,0.15-2.93,0.59-4.24,1.17
		c-1.46,0.59-2.63,1.46-3.66,2.49C87.32,69.78,86.44,70.95,85.56,72.27 M90.24,61.15c2.05-1.02,4.24-1.61,6.44-1.9
		c2.19-0.29,4.39-0.15,6.58,0.59c2.19,0.59,4.1,2.05,6,3.95c1.76,2.05,2.93,4.1,3.36,6.29c0.44,2.19,0.44,4.39,0,6.58
		c-0.44,2.19-1.32,4.24-2.63,6.14c-1.17,1.9-2.63,3.66-4.24,4.97c-1.61,1.46-3.36,2.63-5.41,3.8c-2.05,1.02-4.1,1.76-6.29,2.05
		c-2.19,0.29-4.39,0.15-6.58-0.59c-2.19-0.59-4.1-2.05-6-3.95c-1.76-2.05-2.93-4.1-3.36-6.29c-0.44-2.19-0.44-4.39,0-6.58
		c0.44-2.19,1.32-4.24,2.49-6.14c1.17-1.9,2.63-3.66,4.1-5.12C86.44,63.34,88.19,62.17,90.24,61.15"/>
	<path id="XMLID_163_" class="st0" d="M150.66,55.44c-0.29,0.15-0.73,0.29-1.32,0.59l-23.55,14.63l-0.59-0.88
		c1.02-0.59,1.32-1.17,0.88-1.76l-13.9-22.38c-0.29-0.59-1.02-0.59-2.05,0l-0.59-0.88l8.48-5.27l0.59,0.88
		c-0.88,0.59-1.17,1.17-0.88,1.76l12.14,19.6l16.38-10.09c0.44-0.29,0.88-0.73,1.02-1.17c0.15-0.44,0.15-0.88-0.15-1.17l0.88-0.59
		l4.24,6.73l-0.88,0.59C151.39,55.59,150.95,55.3,150.66,55.44"/>
	<path id="XMLID_166_" class="st0" d="M170.7,41.11c1.61-0.73,3.07-1.46,4.24-2.19c1.17-0.73,2.05-1.76,2.49-2.78
		c0.59-1.02,0.73-2.34,0.73-3.66c0-1.32-0.44-3.07-1.17-4.83c-0.73-1.9-1.61-3.36-2.49-4.39c-0.88-1.02-1.9-1.76-3.07-2.19
		s-2.34-0.44-3.8-0.29c-1.32,0.15-2.93,0.59-4.53,1.32l-8.34,3.36l7.61,19.16L170.7,41.11z M163.53,16.53
		c2.05-0.73,3.95-1.17,5.85-1.32c1.9-0.15,3.8,0.15,5.56,0.88c1.76,0.73,3.36,1.76,4.68,3.22c1.46,1.46,2.63,3.51,3.51,5.85
		c0.88,2.49,1.46,4.68,1.46,6.73s-0.44,3.95-1.17,5.56c-0.73,1.61-1.9,3.07-3.36,4.39c-1.46,1.32-3.22,2.34-5.27,3.07l-17.85,7.17
		l-0.44-1.02c0.88-0.29,1.17-0.88,0.88-1.46l-9.8-24.58c-0.29-0.59-0.88-0.73-1.61-0.44l-0.44-1.02L163.53,16.53"/>
	<path id="XMLID_167_" class="st0" d="M220.44,8.05c-0.15-0.44-0.29-0.73-0.73-0.88c-0.29-0.15-0.88-0.15-1.76,0l-18.43,3.66
		l1.32,7.02l11.12-2.19c0.73-0.15,1.32-0.44,1.76-0.59c0.44-0.29,0.44-0.88,0.29-1.76l1.02-0.15l1.76,8.92l-1.02,0.15
		c-0.15-0.88-0.44-1.46-1.02-1.61c-0.44-0.15-1.02-0.15-1.9,0l-11.12,2.19l1.46,7.9l19.02-3.66c0.59-0.15,1.02-0.29,1.32-0.73
		c0.29-0.29,0.44-0.73,0.29-1.17l1.02-0.15l1.46,7.75l-1.02,0.15c-0.15-0.59-0.29-0.88-0.73-0.88s-0.88,0-1.46,0.15l-26.48,5.12
		l-0.15-1.02c0.29,0,0.44-0.15,0.73-0.44c0.15-0.29,0.15-0.44,0.15-0.88l-4.97-25.89c0-0.29-0.29-0.59-0.44-0.73
		c-0.29-0.15-0.44-0.15-0.73-0.15l-0.15-1.02l26.04-5.12c0.73-0.15,1.32-0.44,1.61-0.73c0.29-0.29,0.44-0.73,0.29-1.02L220,0.15
		l1.46,7.46L220.44,8.05"/>
	<path id="XMLID_168_" class="st0" d="M235.21,29.55c0.73,0,1.17-0.29,1.17-1.02V2.19c0-0.73-0.44-1.02-1.17-1.02V0.15h9.95v1.02
		c-0.29,0-0.44,0.15-0.44,0.59c0,0.29,0.44,0.88,1.17,1.61l16.68,17.26V2.05c0-0.73-0.44-1.02-1.46-1.02V0h8.78v1.02
		c-0.73,0-1.17,0.29-1.17,1.02v26.33c0,0.73,0.44,1.02,1.17,1.02v1.02h-9.51V29.4c0.44,0,0.73-0.15,0.73-0.59
		c0-0.29-0.29-0.73-0.88-1.32l-17.7-18.43v19.31c0,0.73,0.44,1.02,1.32,1.02v1.02h-8.63L235.21,29.55"/>
	<path id="XMLID_169_" class="st0" d="M302.5,26.19l0.44,0.44c-0.15,0.29-0.15,0.73,0,1.02c0.15,0.59,0.59,1.17,1.17,1.76
		c0.59,0.59,1.46,1.32,2.34,1.9c0.88,0.59,1.9,1.17,2.93,1.61c1.02,0.44,1.9,0.88,2.78,1.17c0.59,0.15,1.46,0.29,2.49,0.59
		c1.02,0.15,2.05,0.29,3.07,0.29s2.05-0.15,2.93-0.59c0.88-0.29,1.46-0.88,1.61-1.76c0.29-0.88,0.15-1.61-0.44-2.19
		c-0.59-0.59-1.32-1.17-2.34-1.61c-1.02-0.44-2.19-1.02-3.51-1.32c-1.32-0.44-2.78-0.88-4.1-1.46c-1.32-0.44-2.78-1.02-3.95-1.76
		c-1.32-0.59-2.34-1.46-3.22-2.34c-0.88-0.88-1.46-2.05-1.9-3.22c-0.29-1.17-0.29-2.78,0.15-4.39c0.29-1.17,0.88-2.19,1.76-3.22
		c0.88-1.02,1.9-1.76,3.36-2.34c1.32-0.59,2.93-0.88,4.83-0.88s3.95,0.29,6.29,0.88c2.05,0.59,3.66,1.17,4.97,1.9
		c1.32,0.73,2.49,1.32,3.51,2.05c1.02,0.59,1.76,1.17,2.34,1.76c0.59,0.44,1.17,0.88,1.76,1.02c0.59,0.15,0.88,0.15,1.17,0
		l0.59,0.59l-5.85,5.85l-0.44-0.44c0-0.59,0-1.02-0.15-1.46c-0.15-0.59-0.59-1.17-1.17-1.76c-0.59-0.59-1.32-1.17-2.05-1.76
		c-0.88-0.59-1.76-1.17-2.78-1.61c-1.02-0.44-2.05-0.88-3.22-1.17c-0.88-0.15-1.76-0.44-2.63-0.44c-0.88-0.15-1.76-0.15-2.49-0.15
		c-0.73,0-1.46,0.29-2.05,0.59c-0.59,0.29-1.02,0.73-1.17,1.46c-0.29,0.88-0.15,1.61,0.44,2.34c0.59,0.59,1.32,1.17,2.34,1.76
		c1.02,0.59,2.19,1.02,3.51,1.46c1.32,0.44,2.63,0.88,4.1,1.46c1.32,0.44,2.78,1.02,3.95,1.76c1.32,0.73,2.34,1.46,3.22,2.34
		c0.88,0.88,1.46,2.05,1.9,3.22c0.29,1.17,0.29,2.63-0.15,4.39c-0.59,1.9-1.46,3.36-2.93,4.39c-1.32,0.88-2.93,1.61-4.68,1.9
		c-1.76,0.29-3.51,0.29-5.41,0c-1.76-0.29-3.51-0.59-4.97-1.02c-2.19-0.59-3.95-1.17-5.27-1.9c-1.32-0.59-2.49-1.32-3.36-1.9
		c-0.88-0.59-1.46-1.17-2.05-1.61c-0.44-0.44-0.88-0.73-1.32-0.88c-0.29-0.15-0.59,0-0.88,0.29l-0.73-0.73L302.5,26.19"/>
	<path id="XMLID_170_" class="st0" d="M350.92,52.66l-0.44,0.88l-8.05-3.8l0.44-0.88c0.29,0.15,0.44,0.15,0.73,0
		c0.29,0,0.44-0.29,0.59-0.59l9.95-20.92l-8.63-4.1c-0.29-0.15-0.73-0.15-1.02-0.15c-0.44,0-0.73,0.29-0.88,0.73l-0.88-0.44
		l3.51-7.31l0.88,0.44c-0.29,0.44-0.29,0.88,0,1.17c0.15,0.29,0.44,0.59,0.73,0.73l23.26,11.12c0.29,0.15,0.59,0.15,1.02,0.15
		c0.44,0,0.73-0.29,0.88-0.73l0.88,0.44l-3.51,7.31l-0.88-0.44c0.29-0.44,0.29-0.88,0-1.17c-0.15-0.29-0.44-0.59-0.73-0.73
		l-8.63-4.1l-9.95,20.92C349.9,51.79,350.19,52.22,350.92,52.66"/>
	<path id="XMLID_173_" class="st0" d="M384.42,60.12l2.05-11.7l-10.53,5.85L384.42,60.12z M360.28,56.76c0.44,0.15,0.88,0.29,1.46,0
		c0.44-0.15,1.02-0.44,1.46-0.73l21.5-12.73c0.44-0.29,1.02-0.44,1.32-0.73c0.44-0.29,0.73-0.44,0.88-0.73
		c0.15-0.29,0.29-0.59,0.15-0.88c-0.15-0.29-0.29-0.59-0.59-0.73l0.59-0.88l8.19,5.41l-0.59,0.88c-0.29-0.15-0.59-0.15-0.88-0.15
		c-0.29,0-0.59,0.15-0.88,0.44c-0.15,0.29-0.29,0.59-0.29,0.88s-0.15,0.73-0.15,1.32l-3.22,26.33c0,0.44,0,0.88,0.15,1.17
		c0.15,0.29,0.44,0.73,0.59,1.17l-0.59,0.88l-8.48-5.71l0.59-0.88c0.15,0.15,0.29,0.15,0.59,0.15c0.29,0,0.44,0,0.59-0.29
		c0.15-0.29,0.44-0.88,0.44-1.46l0.59-4.83l-11.7-7.9l-4.1,2.19c-0.73,0.44-1.32,0.88-1.46,1.17c-0.29,0.29,0,0.73,0.59,1.17
		l-0.59,0.88l-6.88-4.68L360.28,56.76"/>
	<path id="XMLID_174_" class="st0" d="M404.46,90.4l-0.73,0.73l-6.58-6l0.73-0.73c0.15,0.15,0.44,0.29,0.73,0.29
		s0.59-0.15,0.73-0.29L415,67.44L407.97,61c-0.29-0.29-0.59-0.44-0.88-0.44c-0.44-0.15-0.73,0.15-1.17,0.44l-0.73-0.73l5.56-6
		l0.73,0.73c-0.44,0.44-0.44,0.73-0.44,1.17c0.15,0.29,0.29,0.73,0.59,0.88l19.02,17.41c0.29,0.29,0.59,0.44,0.88,0.44
		c0.44,0.15,0.73-0.15,1.17-0.44l0.73,0.73l-5.56,6l-0.73-0.73c0.44-0.44,0.44-0.73,0.44-1.17c-0.15-0.44-0.29-0.73-0.59-0.88
		l-7.02-6.44l-15.65,16.97C403.88,89.38,403.88,89.97,404.46,90.4"/>
	<path id="XMLID_175_" class="st0" d="M453.47,112.05c0.29-0.29,0.44-0.59,0.44-1.02c0-0.44-0.29-0.88-0.73-1.61L441.77,94.5
		l-5.71,4.39l6.88,9.07c0.44,0.59,0.88,1.02,1.32,1.17s1.02,0,1.76-0.44l0.59,0.88l-7.17,5.56l-0.59-0.88
		c0.73-0.59,1.02-1.02,1.02-1.61c0-0.44-0.29-1.02-0.88-1.61l-7.02-9.07l-6.29,4.83l11.85,15.36c0.29,0.44,0.73,0.73,1.17,0.88
		s0.88,0,1.17-0.29l0.59,0.88l-6.29,4.83l-0.59-0.88c0.44-0.29,0.59-0.73,0.44-1.02c-0.15-0.29-0.44-0.73-0.73-1.17l-16.53-21.36
		l0.88-0.59c0.15,0.15,0.44,0.29,0.59,0.44c0.29,0,0.59,0,0.88-0.15l20.92-16.09c0.29-0.15,0.44-0.44,0.44-0.73
		c0-0.29,0-0.59-0.29-0.73l0.88-0.59l16.09,20.92c0.44,0.59,0.88,1.02,1.32,1.17s0.73,0,1.17-0.29l0.59,0.88l-6.14,4.68
		L453.47,112.05"/>
</g>
</svg>
