<?xml version="1.0" encoding="utf-8"?>
<!-- Generator: Adobe Illustrator 27.0.0, SVG Export Plug-In . SVG Version: 6.00 Build 0)  -->
<svg version="1.1" id="Layer_1" xmlns="http://www.w3.org/2000/svg" xmlns:xlink="http://www.w3.org/1999/xlink" x="0px" y="0px"
	 viewBox="0 0 512 512" style="enable-background:new 0 0 512 512;" xml:space="preserve">
<style type="text/css">
	.st0{fill:#C4CED4;}
	.st1{fill:#E31837;}
	.st2{fill:#FFFFFF;}
	.st3{fill:#002B5C;}
</style>
<g id="XMLID_1_">
	<ellipse id="XMLID_3_" class="st0" cx="256" cy="256" rx="256" ry="256"/>
	<ellipse id="XMLID_4_" class="st1" cx="255.02" cy="254.74" rx="245.62" ry="245.9"/>
	<path id="XMLID_5_" class="st2" d="M501.2,243.09H8.84c-0.28,4.21-0.42,8.42-0.42,12.76c0,22.44,3.37,44.33,9.4,65.37
		c57.93,0,415.21,0,474.13,0c6.17-21.18,9.4-43.34,9.4-65.93C501.62,251.23,501.48,247.16,501.2,243.09"/>
	<path id="XMLID_6_" class="st3" d="M223.46,501.48c9.96,1.26,20.2,1.82,30.44,1.96h0.14h0.14l0,0c22.44,0,44.19-2.95,64.81-8.56
		c64.67-18.52,119.93-64.39,152.06-123.3H39C76.59,439.76,145.32,490.4,223.46,501.48"/>
	<path id="XMLID_7_" class="st0" d="M406.09,174.22c-10.52-19.5-24.69-36.61-41.66-50.64c-3.23-2.67-6.45-5.05-9.82-7.43
		c-28.05-19.92-62.14-31.7-99.17-31.84h-0.28c-91.74,0-166.79,71.96-171.41,162.58c-0.14,2.95-0.28,5.89-0.28,8.84V256
		c0,23.71,4.77,46.29,13.47,66.77c1.12,2.52,2.24,5.05,3.37,7.57c9.68,20.06,23,37.87,39.28,52.6c4.07,3.65,8.28,7.15,12.62,10.52
		c28.62,21.46,64.11,34.09,102.68,34.23h0.14h0.14l0,0c20.76,0,40.54-3.65,58.92-10.38c65.65-23.99,112.64-87.11,112.64-161.03
		v-0.14l0,0V256c0-23.71-4.77-46.29-13.47-66.77C411.14,184.04,408.76,179.13,406.09,174.22"/>
	<path id="XMLID_33_" class="st2" d="M260.21,23.71c0,0,3.37,2.38,2.95,5.47l-4.35,38.29l8.7,0.98c1.68,0.14,2.95,0.28,3.65-0.98
		c0,0,1.12-9.68,2.24-20.48l8.84,19.5c1.26,3.23-1.54,3.37-1.54,3.37l2.67,0.42l0,0l8.7,0.98c1.68,0.14,2.95,0.14,3.65-0.98
		l4.77-42.08l-12.34-1.4l-3.37-0.28c0,0,3.09,2.24,2.81,5.33l-1.82,16.27l-10.1-21.88c-0.28-0.56-0.7-0.84-1.4-0.98
		c-1.54-0.14-10.38-1.12-10.38-1.12L260.21,23.71L260.21,23.71z M253.76,24.13c-1.26,0-6.03,0.42-11.08,0.56
		c-1.26,0.28-3.51,0.28-2.95,5.33l1.96,38.29l12.34-0.7l0.98-0.28c0,0-0.84-1.4-1.12-3.79c0,0-1.96-34.79-1.96-36.33
		C251.93,25.81,253.76,24.13,253.76,24.13z M227.8,25.25l-15.71,3.23c0,0,3.93,1.26,4.49,4.35v0.14l2.24,10.8l-8.56,1.82
		c-2.52,0.56-3.09,3.09-3.09,3.09l-3.51-18.52l-14.73,3.09c0,0,3.09,1.4,3.65,4.49l0.14,0.14l7.86,37.59l8.7-1.82
		c1.68-0.28,2.95-0.7,3.23-2.1l-3.09-15.15l11.92-2.52l3.37,16.41l8.7-1.82c1.68-0.42,2.95-0.7,3.23-2.1L227.8,25.25z M315.9,33.24
		c-0.84,0-1.4,0.14-1.96,0.42c-2.38,0.84-4.35,3.65-5.89,8.42l-6.17,17.96c-0.7,2.1-1.26,3.93-1.4,5.33
		c-0.42,2.81,0.28,4.91,1.96,6.45c1.54,1.54,4.63,3.09,8.98,4.63l7.72,2.67c5.61,1.96,9.54,2.38,11.78,1.54
		c2.38-0.84,4.35-3.65,6.03-8.42c0,0,2.95-8.42,3.37-9.68c0.7-2.38-0.98-3.79-1.96-4.07l-14.45-5.05c-1.68-0.56-2.81,0.7-3.37,1.82
		s-2.67,7.29-2.67,7.29l-0.7,1.96c0,0,1.68-1.54,3.79-0.84l5.33,1.82c-0.84,1.96-1.68,3.09-2.67,3.37c-0.84,0.28-2.52,0-5.33-0.98
		c0,0-1.82-0.7-2.38-0.98c-1.26-0.84-1.82-1.82-1.68-3.23c0.14-0.84,0.42-1.82,0.84-3.23l3.51-9.96c0.98-2.67,1.82-4.21,2.81-4.49
		s2.81,0,5.47,0.98l13.05,4.49c2.38,0.84,2.81,3.93,2.81,3.93l0.98-2.67l2.38-6.73c0.7-2.52-0.98-3.93-3.09-4.77L326,35.35
		C321.51,33.67,318.28,33.1,315.9,33.24z M178.71,36.47c-0.56,0-1.12,0-1.68,0.28l-14.87,6.17c-5.33,2.24-8.56,4.49-9.68,6.59
		c-1.12,2.1-0.7,5.61,1.26,10.38l1.68,4.07c0.28,0.56,0.56,1.12,0.98,1.68c1.4,1.96,3.23,3.23,5.75,3.93
		c2.95,0.7,6.31,0.28,10.1-1.26l5.75-2.38c2.24-0.98,3.93-0.7,4.91,0.7c0.28,0.42,0.42,0.84,0.42,1.26c0,0,0.7,1.96-3.93,3.93
		l-11.64,4.91c-2.67,0.84-6.45-1.54-6.45-1.54s2.38,5.75,3.93,9.26c0.84,2.1,3.51,3.37,5.61,2.52l1.12-0.42l8-3.37l5.75-2.38
		c5.33-2.24,8.56-4.49,9.68-6.59c1.12-2.24,0.7-5.33-1.26-9.96c0,0-1.54-3.51-1.96-4.49c-2.81-5.33-8.7-7.29-14.73-4.77l-6.73,2.81
		c-2.38,0.98-4.07,0.84-5.05-0.56l-0.28-0.7c-0.28-0.98-1.12-2.81,2.52-4.21l12.2-5.05c2.67-1.12,6.59,1.54,6.59,1.54
		s-2.38-5.75-3.93-9.26C182.08,37.59,180.39,36.47,178.71,36.47z M352.93,45.73c-0.98,0-1.54,0.7-1.82,1.12
		c-0.42,0.56-4.07,7.29-4.07,7.29l-1.68,2.95c0,0,2.52-2.52,5.47-0.84l6.45,3.79l-16.55,28.62l11.64,6.73c0,0,0-1.96,1.12-4.07
		c0,0,9.12-15.99,14.45-25.11l5.05,2.95c2.81,1.68,2.81,6.17,2.81,6.17l2.67-4.77l4.49-7.86l-18.24-10.52l-0.14-0.14l-10.38-6.03
		C353.63,45.87,353.21,45.73,352.93,45.73z M125.55,63.68l-7.29,5.05c-1.4,0.98-2.1,1.96-1.96,3.51l12.34,37.45
		c0.84,2.38-2.1,6.59-2.1,6.59l12.76-8.98c1.12-0.84,1.4-2.1,0.98-3.51l-1.82-5.33l9.82-6.87l3.79,2.38
		c2.24,1.82,0.56,3.79,0.56,3.79l14.03-9.82L125.55,63.68z M389.12,70.98c-2.52,0-5.33,2.1-8.42,6.03l-11.78,15.01
		c-1.4,1.82-2.38,3.23-2.95,4.63c-1.26,2.52-1.4,4.77-0.28,6.73c0.98,1.96,3.37,4.35,7.01,7.29l6.45,5.05
		c4.63,3.65,8.14,5.33,10.66,5.33c2.52-0.14,5.33-2.1,8.42-6.03l11.78-15.01c1.4-1.68,2.38-3.23,2.95-4.63
		c1.26-2.52,1.26-4.91,0.14-6.87c-0.98-1.82-3.23-4.21-7.01-7.15l-6.45-5.05C395.01,72.66,391.5,70.98,389.12,70.98z M104.36,76.17
		l-1.26,1.54l-6.87,7.86l-0.14,0.14c-0.98,1.12-1.54,1.96-1.54,2.95l17.53,26.93l-24.69-13.33c-3.09-1.26-1.82-4.63-1.82-4.63
		l-2.52,2.81l-5.05,5.75l-0.14,0.14c-1.26,1.4-1.96,2.95-1.26,4.49l17.67,24.83l-24.69-12.62c-3.23-1.68-1.82-5.19-1.82-5.19
		l-2.67,2.95l-5.75,6.59l-0.14,0.14c-1.26,1.54-1.68,3.65-0.42,4.77c0.14,0.14,0.14,0.14,0.14,0.14l38.29,17.96l8.98-10.24
		c1.26-1.4,1.54-2.1,0.98-3.65l-7.29-13.47l14.87,7.29l9.54-10.94c1.12-1.4,1.4-3.23,0.84-4.63l-20.34-34.09
		C103.8,78.13,104.36,76.17,104.36,76.17L104.36,76.17z M132.28,81.78l5.89,3.93l-3.51,2.52L132.28,81.78z M391.93,84.73
		c0.98,0,2.38,0.84,4.35,2.24c1.26,0.98,2.1,1.82,2.52,2.24c0.98,1.12,1.12,2.38,0.56,3.65c-0.28,0.7-0.98,1.54-1.96,2.67
		l-6.45,8.28c-1.82,2.24-3.23,3.37-4.35,3.37c-0.84,0-2.24-0.84-4.07-2.24c-1.12-0.98-2.1-1.68-2.38-2.1
		c-0.98-1.26-1.12-2.38-0.56-3.65c0.28-0.7,0.98-1.54,1.82-2.81l6.45-8.28C389.54,85.85,390.94,84.73,391.93,84.73z M255.3,88.65
		c-92.3,0-167.07,74.77-167.07,167.07S163,422.79,255.3,422.79s167.07-74.77,167.07-167.07S347.6,88.65,255.3,88.65z M423.07,97.35
		c0,0,0.56,4.07-1.82,6.03l-30.44,23.71l5.47,7.01c0.98,1.4,1.96,2.24,3.23,1.96c0,0,7.72-6.03,16.27-12.62l-7.72,19.92
		c-1.4,3.23-3.51,1.26-3.51,1.26l1.54,2.1l0,0l5.47,6.87c1.12,1.4,1.96,2.24,3.23,1.96l33.39-26.09l-7.57-9.68l-2.1-2.67
		c0,0,0.56,3.79-1.82,5.75l-12.91,10.1l8.42-22.86c0.14-0.56,0.14-1.12-0.28-1.68c-0.98-1.26-6.45-8.28-6.45-8.28L423.07,97.35
		L423.07,97.35z M54.99,165.38l-5.75,17.81h-18.8l15.15,10.94l-5.75,17.81l15.15-10.94l15.15,10.94l-5.75-17.81l15.15-10.94H60.88
		L54.99,165.38z M455.19,167.77l-5.75,17.81h-18.66l15.15,10.94l-5.75,17.81l15.15-10.94l15.15,10.94l-5.75-17.81l15.15-10.94
		h-18.66L455.19,167.77z M382.11,394.31c-0.42,0-0.84,0-1.26,0c-0.56,0.14-1.12,0.28-1.54,0.56l-13.19,9.12
		c-4.77,3.23-7.43,6.17-8.14,8.56c-0.7,2.38,0.56,5.61,3.37,9.82l2.52,3.51c0.42,0.56,0.84,0.98,1.26,1.4
		c1.68,1.68,3.93,2.52,6.45,2.67c2.95,0.14,6.17-0.98,9.54-3.23l5.19-3.51c1.96-1.4,3.65-1.54,4.91-0.28
		c0.28,0.28,0.56,0.7,0.7,1.12c0,0,1.12,1.82-3.09,4.63l-10.38,7.15c-2.38,1.4-6.59-0.28-6.59-0.28s3.51,5.05,5.75,8.28
		c1.26,1.82,4.07,2.67,6.03,1.26l0.98-0.7l7.15-4.91l5.19-3.65c4.77-3.23,7.43-6.03,8.14-8.56c0.7-2.38-0.42-5.33-3.37-9.54
		c0,0-2.24-3.09-2.95-3.93c-3.93-4.63-9.96-5.33-15.29-1.68l-6.03,4.21c-2.1,1.54-3.93,1.68-5.05,0.56l-0.42-0.56
		c-0.56-0.98-1.68-2.52,1.54-4.63l10.8-7.43c2.38-1.54,6.73,0.14,6.73,0.14l-5.75-8.14C384.63,395.15,383.37,394.45,382.11,394.31
		L382.11,394.31z M120.92,395.01c-0.84,0-1.68,0.42-2.1,1.12c-0.14,0.28-0.14,0.14-0.14,0.14l-13.61,39.42l11.5,7.29
		c1.54,0.98,2.38,1.26,3.65,0.42l12.2-9.26L127.51,450l12.2,7.72c1.54,0.98,3.37,0.84,4.77,0.14l28.48-26.79
		c2.1-1.68,4.07-1.4,4.07-1.4l-1.68-0.98l-8.84-5.61l-0.14-0.14c-1.12-0.7-2.24-1.26-3.09-0.98l-19.36,18.8l7.01-22.72
		c0.42-2.24,3.93-2.24,3.93-2.24l-3.09-1.96l-6.45-4.07h-0.14c-1.68-0.98-3.23-1.4-4.63-0.56l-19.78,18.38l8.7-22.16
		c1.12-3.37,4.91-2.67,4.91-2.67l-3.23-2.24l-7.43-4.63l-0.14-0.14C122.74,395.15,121.76,394.87,120.92,395.01L120.92,395.01z
		 M347.46,419.42c-1.54,0.14-3.51,0.7-5.75,1.68l-29.18,12.62c0,0,4.07,0.7,5.47,3.23l13.47,31.14c0.56,2.24-0.28,4.63-0.56,5.05
		l28.34-12.2c3.93-1.68,6.03-3.51,6.73-5.47c0.56-1.96,0-5.33-2.1-9.82l-8.42-18.38c-0.84-1.96-1.26-2.81-1.96-4.07
		c-1.26-2.38-3.09-3.65-4.63-3.93C348.44,419.42,347.88,419.42,347.46,419.42z M182.5,430.36c-1.12-0.14-2.67,0.42-3.79,4.07
		l-12.62,36.33l11.64,4.07l0.98,0.14c0,0-0.28-1.54,0.42-3.93c0,0,11.36-32.96,11.92-34.37c0.56-1.54,2.95-2.24,2.95-2.24
		c-1.12-0.42-5.75-1.96-10.52-3.65C183.2,430.5,182.92,430.36,182.5,430.36z M343.25,432.04c0.28,0,0.56,0,0.84,0.14
		c0.56,0.14,0.98,0.56,1.4,1.26c0.56,0.84,7.72,16.97,7.57,17.81s-0.56,1.54-1.26,1.82l-11.22,4.91l-6.59-15.01
		c-0.42-0.98-1.4-3.23-2.52-5.89l10.94-4.77C342.69,432.18,342.97,432.04,343.25,432.04L343.25,432.04z M200.17,436.39
		c-1.96,0.14-2.81,1.68-3.37,3.65l-1.26,5.75l0,0l-0.56,2.38c0,0,2.38-1.82,5.05-1.4L214.9,450l-24.83,21.04l-1.54,7.01l32.4,7.15
		c2.1,0.42,3.51,0.56,4.21-1.54l2.38-10.8c0,0-2.38,2.38-5.05,1.96l-15.71-3.51l25.53-19.5l1.82-8.28c0,0-32.4-7.15-32.82-7.15
		C200.87,436.39,200.45,436.39,200.17,436.39L200.17,436.39z M305.38,436.81c-1.26,0-2.67,0.14-4.35,0.42l-31,5.75
		c0,0,3.93,1.4,4.63,4.35l6.87,37.73l8.56-1.54c1.68-0.28,2.95-0.7,3.23-1.96l-2.38-12.76l6.03-1.26l10.38,12.62l15.43-2.81
		c0,0-2.67-0.7-4.21-2.1l-9.4-10.38c2.24-0.56,3.93-1.68,4.63-2.81c1.12-1.82,1.12-5.19,0.14-10.1c0,0-1.82-8.7-2.1-10.1
		c-0.7-2.67-2.1-4.21-3.79-4.77C307.62,436.95,306.5,436.81,305.38,436.81L305.38,436.81z M247.44,443.27
		c-1.82,0-2.81,0.42-3.65,1.82l-11.36,37.73c-0.7,2.38-5.47,4.21-5.47,4.21h15.57c1.4,0,2.38-0.98,2.81-2.24l1.54-5.33h11.92
		l1.68,4.21c0.84,2.67-1.68,3.51-1.68,3.51h17.11l-19.78-43.77h-8.7V443.27z M300.19,448.18c0.84,0.14,1.4,0.7,1.82,1.82
		c0.28,0.84,0.84,4.07,0.56,4.91c-0.28,0.84-0.84,1.26-1.68,1.4l-7.15,1.4c-1.68,0.28-2.81,1.96-3.79,4.07l-2.1-11.36l11.5-2.24
		C299.63,448.18,299.91,448.18,300.19,448.18L300.19,448.18z M251.93,462.2l2.52,6.59h-4.35L251.93,462.2z"/>
	<path id="XMLID_37_" class="st1" d="M255.16,102.54c-11.08,0-21.88,1.26-32.4,3.51c7.72,3.93,15.43,11.22,20.2,24.55l12.06-17.81
		l12.06,17.81c4.91-13.33,12.48-20.62,20.2-24.55C277.04,103.8,266.24,102.54,255.16,102.54L255.16,102.54z M206.76,110.26
		c-44.89,15.01-80.52,50.22-95.95,94.83c20.48-30.86,60.74-65.93,122.18-72.94C227.66,119.37,216.72,113.2,206.76,110.26
		L206.76,110.26z M303.41,110.4c-9.82,2.95-20.76,8.98-26.09,21.88c61.02,6.87,101,41.52,121.76,72.1
		C383.37,160.19,348.02,125.26,303.41,110.4L303.41,110.4z"/>
	<path id="XMLID_41_" class="st3" d="M307.62,150.09c-5.47,0.14-8.14,1.96-8.14,1.96l-17.81,9.96l0.84,3.37l3.93,14.03
		c0,0,7.29,20.34,24.69,37.59c32.82,32.4,74.63,79.82,70.42,123.16c15.99-23.57,25.39-51.9,25.95-82.48
		c-2.67-15.43-7.57-28.9-13.75-40.82c-11.5-22.02-33.53-42.64-60.74-58.63C321.51,151.64,313.09,149.95,307.62,150.09L307.62,150.09
		z M202.84,150.09c-5.47-0.14-13.89,1.4-25.53,8.14c-27.21,15.99-49.24,36.75-60.74,58.77c-6.31,12.2-11.36,26.23-13.89,42.08
		c0.84,30.16,10.38,58.07,26.23,81.5c-4.49-43.48,37.45-91.04,70.28-123.58c17.39-17.39,24.69-37.59,24.69-37.59l3.93-14.17
		l0.84-3.23l-17.81-9.96C210.83,152.06,208.31,150.23,202.84,150.09L202.84,150.09z M255.16,182.22
		c-1.82,1.26-58.07,41.8-82.9,81.92c-33.53,54.15-29.18,85.29-20.48,103.1c21.6,19.78,48.82,33.53,79.11,38.29l13.05-184.88
		l10.8-10.94l0.14-0.14l0,0l0.14,0.14l10.94,10.94l13.19,184.74l-0.14,0.14c30.44-4.77,57.93-18.66,79.68-38.72
		c8.56-17.96,12.48-49.1-20.62-102.68C313.23,224.02,256.98,183.48,255.16,182.22L255.16,182.22z"/>
	<path id="XMLID_44_" class="st0" d="M255.16,124.56l-1.82,3.65l-3.51,7.15l0,0l-0.14,0.28l-0.14,0.28l-1.96,3.93l-0.14,0.28l0,0
		l-4.77,0.28c-6.73,0.42-13.47,1.4-20.06,2.52c-2.95,0.56-5.89,0.98-8.84,1.54l9.4,5.05l9.4,5.05l2.95,1.54l2.95,1.54l-1.68,6.31
		l-0.14,0.42l-0.84,2.95l-5.19,18.94l11.92-8.7l8-5.89l2.38-1.68l2.38-1.68v-0.14h0.14h0.14v0.14l2.38,1.68l2.38,1.68l19.92,14.73
		l-5.19-18.94l-0.42-1.68l-0.42-1.68l-1.68-6.31l1.82-0.98l3.93-2.1l12.62-6.73l6.03-3.23c-2.95-0.7-5.89-1.12-8.84-1.54
		c-6.59-1.12-13.33-2.1-20.06-2.52l-4.77-0.28l-0.14-0.14l-0.14-0.14l-1.96-3.93l-0.14-0.28L255.16,124.56L255.16,124.56z
		 M255.16,209.85l0.14,209.29L279,405.67l0.14-0.14l-13.19-184.74L255.16,209.85L255.16,209.85z"/>
</g>
</svg>
